<svg fill="none" viewBox="0 0 80 69"><g clip-path="url(#clip0_3802_26199)"><path fill="#1677FF" d="M66.235 10.802H44.466V.592a.596.596 0 0 0-.6-.592c-8.837 0-10.773 2.178-10.773 5.022v5.78h-20.66c-1.232 0-1.772 2.858-1.772 4.873 0 .335.258.61.592.61h21.84v7.23H18.621c-1.237 0-1.777 2.946-1.773 4.893 0 .327.266.59.592.59h29.07c-.592 5.188-2.009 9.788-3.986 13.767 3.57 1.683 7.142 3.49 10.902 5.154C57.815 40.86 60.5 32.772 60.55 24.71a1.187 1.187 0 0 0-1.186-1.196H44.466v-7.229h20.588c1.232 0 1.773-2.742 1.773-4.874a.6.6 0 0 0-.593-.61"/><path fill="url(#paint0_linear_3802_26199)" d="M4.797 52.252c-.02 11.8 24.312 16.559 35.632 9.241a42.6 42.6 0 0 0 6.24-5.098c-.382-.256-2.315-1.663-4.534-3.104-1.625-1.055-3.447-2.104-4.711-2.85C23.87 66.08 4.797 61.936 4.797 52.25"/><path fill="url(#paint1_linear_3802_26199)" d="M72.858 68.169c5.457 0 6.889-6.814 7.14-12.173a1.877 1.877 0 0 0-1.818-1.964c-14.938-.467-25.303-6.386-35.656-11.267 11.426 9.802 16.324 25.404 30.334 25.404"/><path fill="url(#paint2_radial_3802_26199)" d="M17.123 43.585c7.032 0 13.78 2.984 20.333 6.874 3.119 1.854 6.197 3.91 9.255 5.947 8.683 5.816 17.102 11.457 25.51 11.753-13.494-.489-18.417-15.734-29.659-25.368-7.48-3.524-14.951-6.508-24.124-6.508C7.614 36.283 0 43.33 0 52.262c0 8.83 7.787 15.907 18.438 15.907 8.357 0 15.808-2.526 22.015-6.66C29.109 68.79 4.83 64.044 4.83 52.262c0-5.052 5.555-8.687 12.292-8.687z"/></g><defs><linearGradient id="paint0_linear_3802_26199" x1="26.807" x2="36.111" y1="84.99" y2="46.828" gradientUnits="userSpaceOnUse"><stop stop-color="#1677FF" stop-opacity=".8"/><stop offset=".037" stop-color="#1374FE" stop-opacity=".807"/><stop offset=".26" stop-color="#0866FB" stop-opacity=".852"/><stop offset=".534" stop-color="#025DF9" stop-opacity=".907"/><stop offset="1" stop-color="#005BF8"/></linearGradient><linearGradient id="paint1_linear_3802_26199" x1="26.807" x2="36.111" y1="84.99" y2="46.828" gradientUnits="userSpaceOnUse"><stop offset=".117" stop-color="#1677FF"/><stop offset="1" stop-color="#1677FF" stop-opacity=".5"/></linearGradient><radialGradient id="paint2_radial_3802_26199" cx="0" cy="0" r="1" gradientTransform="matrix(4.65204 -19.0814 43.2194 10.53687 31.459 65.909)" gradientUnits="userSpaceOnUse"><stop stop-color="#5CA0FF"/><stop offset="1" stop-color="#1777FF"/></radialGradient><clipPath id="clip0_3802_26199"><path fill="#fff" d="M0 0h80v68.169H0z"/></clipPath></defs></svg>