<svg fill="none" viewBox="0 0 80 26"><g fill="#169CD4" clip-path="url(#clip0_3802_11009)"><path d="M68.95 10.088a2.62 2.62 0 0 0-2.624-2.635 2.62 2.62 0 0 0-2.625 2.635c0 .556.174 1.07.471 1.496.118.21.248.393.368.564.18.255.34.48.408.718.174.6-.01 1.004-.305 1.124-.382.155-.98-.11-.98-.11-2.701-1.045-4.615-3.649-4.615-6.695C59.048 3.217 62.322 0 66.326 0s7.277 3.217 7.277 7.185c0 3.047-1.913 5.65-4.614 6.695 0 0-.6.265-.98.11-.296-.12-.48-.523-.306-1.124.069-.237.228-.463.408-.718.12-.17.25-.354.368-.564.297-.425.472-.94.472-1.496M61.395 24.78c1.362-.836 1.758-2.721 1.758-4.435 0-3.6-2.945-6.517-6.577-6.517-1.38 0-2.63.212-3.498.977-.685.603-.437 1.242-.012 1.72l6.73 8.038s.624.817 1.599.218m9.862-.001c-1.363-.836-1.759-2.721-1.759-4.435 0-3.6 2.945-6.517 6.577-6.517 1.38 0 2.63.212 3.499.977.684.603.436 1.242.011 1.72l-6.73 8.038s-.623.817-1.598.218M17.07 16.324l-1.333-7.108c-.224-.958-1.211-.902-1.211-.902l-2.183.075c-2.304.077-3.777 2.396-3.777 2.396l-3.556 5.54zm26.242-3.253h-5.743a.76.76 0 0 1-.76-.668h-.005V9.06c0-.419.342-.747.765-.747h12.949c.422 0 .764.328.764.747v2.045s.062.879-.764 1.698l-2.664 3.52h-7.012l2.361-3.11zm1.203 7.665h6.003a.76.76 0 0 1 .762.713h.002v3.208c0 .419-.342.694-.764.694h-12.95c-.422 0-.764-.275-.764-.694v-2.361s.09-.713.674-1.515c.247-.34 1.372-1.828 2.587-3.432h7.013zm-31.903 3.521-1.165-6.908h5.816l1.369 7.209s.293.793-.517.793h-4.064s-1.208.052-1.439-1.094M4.36 17.349.383 23.632c-1.034 1.604.36 1.72.36 1.72h4.406c.63.088 1.35-1.007 1.35-1.007l4.304-6.996zm25.699-1.025.63 1.025h4.496v7.22c0 .418-.342.782-.765.782h-3.956c-.704.03-1.239-.493-1.664-1.139l-3.642-6.238v6.595c0 .418-.343.782-.765.782h-3.821c-.423 0-.765-.364-.765-.783v-7.22h5.036l-.63-1.024h-4.406V9.06c0-.418.342-.746.765-.746h3.821c.722 0 1.462.457 1.889 1.281.235.455 3.418 6.013 3.418 6.013V9.106c0-.418.342-.791.764-.791h3.956c.423 0 .765.328.765.746v7.264z"/></g><defs><clipPath id="clip0_3802_11009"><path fill="#fff" d="M0 0h80v25.356H0z"/></clipPath></defs></svg>