<svg fill="none" viewBox="0 0 80 52"><g clip-path="url(#clip0_3802_26240)"><path fill="#000" d="M72.836 0H7.164l-.82.002q-.346.001-.691.01c-.503.014-1.01.043-1.505.132a5 5 0 0 0-1.43.472A4.8 4.8 0 0 0 .615 2.718c-.233.458-.38.927-.47 1.431A10 10 0 0 0 .01 5.653q-.008.345-.01.69v38.529q.002.345.01.69c.014.502.044 1.008.133 1.504.09.505.238.973.471 1.43A4.8 4.8 0 0 0 2.718 50.6a5 5 0 0 0 1.43.473 10 10 0 0 0 1.505.132q.345.007.69.01l.821.001h65.672l.82-.002q.345 0 .692-.01a10 10 0 0 0 1.504-.132 5 5 0 0 0 1.43-.472 4.8 4.8 0 0 0 2.103-2.103c.233-.457.38-.925.47-1.43.09-.496.119-1.002.132-1.503q.01-.345.01-.69.004-.412.003-.822V7.165q0-.411-.002-.821-.001-.345-.01-.691a10 10 0 0 0-.133-1.504 5 5 0 0 0-.47-1.43A4.82 4.82 0 0 0 77.281.615a5 5 0 0 0-1.43-.472 10 10 0 0 0-1.504-.132 35 35 0 0 0-.692-.01z"/><path fill="#fff" d="m72.836 1.707.808.002q.327.001.657.01c.383.01.83.03 1.248.105.363.066.667.165.96.314a3.1 3.1 0 0 1 1.355 1.357c.148.29.246.592.311.958.075.412.096.861.106 1.247q.009.324.01.657l.002.808V44.05c0 .27 0 .538-.002.813q-.001.326-.01.653a8.5 8.5 0 0 1-.107 1.25 3.3 3.3 0 0 1-.311.955 3.1 3.1 0 0 1-1.357 1.357c-.29.148-.594.247-.953.312a9 9 0 0 1-1.244.106 37 37 0 0 1-.666.01l-.807.001H7.154l-.802-.002q-.332 0-.653-.009c-.36-.01-.827-.03-1.249-.106a3.4 3.4 0 0 1-.96-.314 3 3 0 0 1-.784-.57 3 3 0 0 1-.57-.785 3.4 3.4 0 0 1-.312-.96 8.5 8.5 0 0 1-.106-1.245 32 32 0 0 1-.01-.655V6.355q.002-.328.01-.656c.01-.382.031-.83.107-1.25.064-.361.164-.665.312-.957a3.08 3.08 0 0 1 1.356-1.355c.29-.148.594-.247.957-.312a8.5 8.5 0 0 1 1.25-.107q.328-.007.654-.01h66.482"/><path fill="#000" d="M21.84 17.226c.684-.857 1.15-2.007 1.027-3.183-1.003.05-2.227.662-2.935 1.52-.636.733-1.2 1.932-1.052 3.058 1.125.098 2.25-.562 2.96-1.395m1.014 1.615c-1.635-.097-3.025.928-3.805.928s-1.977-.879-3.27-.855c-1.682.025-3.244.976-4.098 2.49-1.756 3.027-.463 7.517 1.245 9.983.83 1.22 1.829 2.563 3.146 2.515 1.245-.05 1.732-.806 3.245-.806 1.512 0 1.951.806 3.269.781 1.366-.024 2.22-1.22 3.05-2.441.95-1.39 1.34-2.733 1.365-2.807-.025-.025-2.635-1.026-2.659-4.028-.024-2.514 2.05-3.71 2.147-3.784-1.171-1.732-3-1.927-3.635-1.976m14.233-3.401c3.553 0 6.027 2.448 6.027 6.014 0 3.578-2.525 6.04-6.116 6.04h-3.934v6.256h-2.842V15.44zm-4.023 9.668h3.261c2.475 0 3.883-1.332 3.883-3.642s-1.408-3.629-3.87-3.629h-3.274zm10.793 4.848c0-2.335 1.789-3.77 4.961-3.947l3.654-.215v-1.028c0-1.485-1.002-2.373-2.677-2.373-1.586 0-2.576.761-2.817 1.954H44.39c.152-2.411 2.207-4.187 5.507-4.187 3.235 0 5.304 1.713 5.304 4.39v9.2h-2.627v-2.196h-.063c-.774 1.485-2.462 2.424-4.213 2.424-2.614 0-4.441-1.624-4.441-4.022m8.615-1.206v-1.053l-3.286.203c-1.637.114-2.563.838-2.563 1.98 0 1.167.964 1.928 2.436 1.928 1.916 0 3.413-1.32 3.413-3.058m5.208 9.91v-2.22c.203.05.66.05.888.05 1.27 0 1.955-.532 2.373-1.903 0-.025.241-.812.241-.825l-4.821-13.361h2.969l3.375 10.862h.05L66.132 20.4h2.893l-5 14.046c-1.141 3.236-2.46 4.277-5.227 4.277-.229 0-.914-.026-1.116-.064"/></g><defs><clipPath id="clip0_3802_26240"><path fill="#fff" d="M0 0h80v51.215H0z"/></clipPath></defs></svg>