<svg fill="none" viewBox="0 0 61 60"><g clip-path="url(#clip0_3802_18358)"><path fill="#0045E5" d="M32.288 0c.362.254.807.262 1.207.392a10.1 10.1 0 0 1 5.545 4.613c3.74 6.476 7.499 12.947 11.206 19.435 3.373 5.9.32 13.232-6.174 14.95-.841.226-1.709.341-2.58.343-7.535 0-15.07.016-22.605 0-7.839-.02-12.685-8.51-8.75-15.3A6796 6796 0 0 0 21.217 5.23C22.756 2.56 24.941.784 27.972.115c.051-.01.09-.075.131-.116zm4.373 33.74c4.578.013 7.611-4.563 5.5-8.463-1.991-3.68-4.076-7.324-6.283-10.874-2.64-4.253-8.853-4.136-11.42.163-2.092 3.5-4.107 7.045-6.125 10.593a5.94 5.94 0 0 0-.765 3.45c.198 2.437 1.507 4.1 3.748 4.947 2.314.877 4.446.419 6.277-1.275.541-.502 1.02-1.072 1.544-1.594.69-.686 1.495-.686 2.185 0 .463.46.89.957 1.36 1.41a5.6 5.6 0 0 0 3.98 1.644M0 56.078c.262-.18.246-.493.339-.748.864-2.365 1.742-4.728 2.551-7.113.262-.785.812-.882 1.461-.882s1.161.138 1.43.866c.915 2.485 1.758 4.999 2.58 7.519q.08.246.15.498c.094.35.403.73-.204.953-.58.212-1.135.088-1.344-.41a15 15 0 0 1-.546-1.604c-.098-.332-.239-.5-.627-.489q-1.502.045-3.008 0c-.339-.009-.46.14-.543.415q-.217.718-.447 1.432c-.245.76-.86.98-1.546.548a3 3 0 0 1-.246-.2zm4.416-7.176-.14-.009-1.41 4.116c-.097.287.052.325.29.324.889-.007 1.78 0 2.738 0zM54.511 60c-.293-.483-.23-.843.228-1.241.587-.513 1.032-1.177 1.462-1.831.152-.23.205-.392-.1-.562-.427-.23-.605-.671-.805-1.08a34 34 0 0 1-1.862-4.786c-.102-.328-.302-.675.187-.87.453-.181.907-.227 1.24.205q.214.327.317.706c.563 1.591 1.113 3.186 1.831 4.839.41-.707.615-1.397.827-2.076.31-.992.586-1.998.848-3.008.203-.77.713-1.012 1.439-.64l.27.145v1.177c-.212.103-.184.33-.232.503-.882 3.098-1.972 6.09-4.211 8.516zm-16.97-7.707c0-1.284.015-2.568-.008-3.852-.007-.524.214-.82.707-.937 1.417-.337 2.847-.412 4.258-.016 1.462.411 2.295 1.716 2.156 3.245-.154 1.7-1.21 2.778-2.984 2.983a11 11 0 0 1-1.759.043c-.476-.023-.666.105-.634.611.042.694-.026 1.395.022 2.092.038.531-.148.765-.668.759-.5-.008-1.013-.031-1.067-.681-.047-.563-.021-1.13-.023-1.7-.008-.85 0-1.698 0-2.547m1.715-1.708v1.432c0 .204-.008.393.289.393.715-.008 1.438.056 2.133-.161.84-.262 1.282-.916 1.257-1.831-.025-.916-.455-1.428-1.349-1.666-.557-.15-1.117-.105-1.68-.094-.523.007-.723.228-.654.758q.036.585.004 1.17m12.718 3.278c0 .587-.02 1.177 0 1.763s-.247.964-.741 1.19c-1.45.66-2.939.762-4.431.171-.946-.375-1.354-1.106-1.315-2.18.035-.915.501-1.544 1.439-1.882.83-.298 1.708-.293 2.57-.401.28-.036.732.13.805-.312.084-.498-.089-.963-.575-1.21a2.5 2.5 0 0 0-1.717-.197c-.422.098-.84.217-1.257.336-.213.062-.424.284-.629-.011a.8.8 0 0 1-.063-.916.9.9 0 0 1 .283-.261c1.134-.755 3.652-.678 4.74.13.654.49.848 1.19.874 1.953.02.608 0 1.219 0 1.83zm-1.646.866v-.717c.006-.204-.033-.328-.286-.305-.735.068-1.477.09-2.191.293-.466.13-.731.447-.714.959.017.511.285.812.736.962.416.135.856.175 1.29.118 1.118-.132 1.165-.187 1.165-1.31m-15.348-.9c0 .587-.024 1.177 0 1.762.023.584-.2.973-.704 1.208-1.469.686-2.977.785-4.486.176-.926-.374-1.334-1.112-1.299-2.129.033-.95.513-1.585 1.476-1.926.81-.288 1.666-.281 2.503-.392.293-.04.774.17.845-.343.07-.514-.101-.955-.6-1.195a2.54 2.54 0 0 0-1.459-.227 6 6 0 0 0-1.448.37c-.261.105-.523.29-.719-.09-.175-.34-.195-.668.098-.956.24-.236.556-.336.87-.423 1.046-.293 2.092-.35 3.146-.019 1.156.365 1.691 1.027 1.758 2.224.037.653.007 1.307.007 1.961zm-1.647.915v-.784c0-.191-.067-.271-.27-.253-.755.07-1.52.083-2.25.313a.876.876 0 0 0-.668.926.97.97 0 0 0 .668.947 2.9 2.9 0 0 0 1.347.146c1.123-.126 1.174-.184 1.173-1.296zm-20.398-5.33a6 6 0 0 1 1.774.27c.274.078.52.232.71.444.261.305.261.629.059.964-.228.384-.483.119-.722.024-.717-.282-1.439-.496-2.223-.287-.425.114-.785.29-.798.803-.008.484.33.67.728.792.785.244 1.61.364 2.346.763.785.422 1.177 1.055 1.14 1.961-.033.877-.469 1.46-1.232 1.842-.474.216-.988.33-1.508.335-.896.043-1.784-.02-2.595-.465-.368-.201-.613-.481-.569-.937.052-.544.336-.713.81-.45.766.425 1.57.628 2.445.492.474-.074.9-.218.973-.785.081-.632-.314-.903-.829-1.067-.785-.253-1.615-.353-2.346-.763a1.963 1.963 0 0 1-.311-3.234 2.5 2.5 0 0 1 1.035-.523c.418-.109.845-.208 1.113-.18m4.316 2.286c0-1.176.027-2.353-.013-3.521-.016-.466.116-.69.578-.702s.956-.03 1.063.584q.055.453.037.91c0 .844 0 .844.875.844.392 0 .784.029 1.177-.007.46-.041.565.228.58.588.016.384-.09.708-.549.727-.523.018-1.046.031-1.57 0-.391-.023-.531.104-.522.51.026.977.008 1.961.009 2.935 0 1.177.494 1.569 1.684 1.365.336-.06.759-.424.934.223.122.452-.173.904-.734 1.06a3.73 3.73 0 0 1-2.06-.032c-.988-.286-1.464-.915-1.481-1.961-.02-1.177 0-2.354 0-3.523zm5.614 2.04c0-.848.01-1.7 0-2.543a1.06 1.06 0 0 1 .513-.988 4.98 4.98 0 0 1 3.617-.688.78.78 0 0 1 .644.486c.178.457-.109.869-.586.82a5.2 5.2 0 0 0-1.944.177c-.428.119-.625.33-.613.826.04 1.57-.014 3.131.03 4.695.016.546-.22.697-.668.69s-.972-.025-.989-.669c-.023-.935 0-1.87 0-2.804z"/><path fill="#EAE702" d="M36.661 33.74a5.6 5.6 0 0 1-3.983-1.653c-.47-.453-.897-.95-1.36-1.41-.69-.682-1.495-.682-2.184 0-.524.523-1.003 1.092-1.545 1.594-1.83 1.694-3.959 2.151-6.277 1.275-2.24-.847-3.55-2.51-3.748-4.947a5.94 5.94 0 0 1 .765-3.45c2.018-3.543 4.035-7.088 6.125-10.593 2.567-4.299 8.78-4.417 11.42-.164a211 211 0 0 1 6.284 10.875c2.115 3.905-.917 8.48-5.497 8.474m.29-2.876c2.313 0 3.733-2.407 2.484-4.605a987 987 0 0 0-5.833-10.099c-1.548-2.652-5.195-2.652-6.757-.008-.705 1.196-1.39 2.403-2.082 3.606-1.308 2.276-2.647 4.534-3.912 6.835-.823 1.497-.45 3.045.833 3.932s2.953.684 4.08-.505c.418-.443.847-.877 1.272-1.308 1.813-1.857 4.508-1.878 6.332-.045.383.384.748.784 1.13 1.177.616.627 1.335 1.028 2.452 1.008z"/><path fill="#0045E5" d="M36.95 30.852c-1.115.02-1.83-.386-2.452-1.014-.382-.392-.747-.792-1.13-1.177-1.83-1.83-4.52-1.81-6.332.046-.425.436-.854.87-1.273 1.308-1.126 1.189-2.788 1.397-4.079.505s-1.657-2.435-.833-3.933c1.265-2.3 2.604-4.559 3.912-6.834.692-1.203 1.377-2.41 2.082-3.606 1.562-2.644 5.209-2.644 6.757.008q2.938 5.031 5.828 10.092c1.254 2.199-.166 4.606-2.48 4.605"/></g><defs><clipPath id="clip0_3802_18358"><path fill="#fff" d="M0 0h60.394v60H0z"/></clipPath></defs></svg>