<svg fill="none" viewBox="0 0 80 20"><g fill="#1F4396" clip-path="url(#clip0_3802_8477)"><path d="M18.76 6.904h2.766c1.257 0 2.072.737 2.072 1.739a1.53 1.53 0 0 1-.98 1.474c.786.226 1.346.861 1.346 1.698 0 1.149-.815 1.964-2.23 1.964H18.76zm2.55 2.848c.59 0 1.022-.314 1.022-.943 0-.628-.462-.913-1.031-.913h-1.255v1.856zm.216 3.033c.619 0 1.14-.314 1.14-1.04 0-.727-.521-1.051-1.184-1.051h-1.436v2.091zm2.825-1.491c0-1.522.815-2.622 2.2-2.622a1.74 1.74 0 0 1 1.57.883V8.81h1.208v4.968h-1.207v-.747a1.76 1.76 0 0 1-1.572.883c-1.384 0-2.199-1.099-2.199-2.62m2.494 1.614c.815 0 1.257-.658 1.257-1.614s-.441-1.607-1.257-1.607-1.257.657-1.257 1.614.452 1.603 1.257 1.603zm3.367-4.098h1.207v.784a1.67 1.67 0 0 1 1.532-.913c1.168 0 1.777.707 1.777 1.915v3.18H33.49v-2.964c0-.707-.294-1.119-.942-1.119-.697 0-1.1.53-1.1 1.434v2.65h-1.236zm5.198 5.282h1.257c.118.382.472.638 1.076.638.836 0 1.17-.52 1.17-1.291v-.56a1.73 1.73 0 0 1-1.444.687c-1.355 0-2.16-1.022-2.16-2.445s.805-2.455 2.16-2.455a1.71 1.71 0 0 1 1.493.782v-.639h1.195v4.629c0 1.433-.953 2.248-2.425 2.248-1.315 0-2.17-.618-2.318-1.59zm2.348-1.522c.774 0 1.217-.59 1.217-1.443s-.438-1.44-1.213-1.44-1.208.588-1.208 1.443c0 .854.441 1.44 1.208 1.44zm4.522-1.208v2.415h-1.236V6.904h1.236v3.947l1.778-2.045h1.482l-2.022 2.249 2.287 2.722h-1.522l-2.002-2.416z"/><path d="M45.483 11.294c0-1.522.933-2.632 2.523-2.632s2.505 1.11 2.505 2.631c0 1.522-.924 2.632-2.505 2.632s-2.523-1.11-2.523-2.632m2.52 1.629c.825 0 1.267-.677 1.267-1.63s-.439-1.629-1.267-1.629c-.829 0-1.286.687-1.286 1.63s.455 1.629 1.286 1.629m4.364.855h-1.236V6.904h1.236v3.947l1.777-2.045h1.483l-2.022 2.249 2.287 2.722H54.37l-2.003-2.416zm6.038-6.873h2.77c1.256 0 2.07.737 2.07 1.739a1.53 1.53 0 0 1-.981 1.474c.785.226 1.345.861 1.345 1.698 0 1.149-.815 1.964-2.229 1.964h-2.975zm2.553 2.848c.589 0 1.022-.314 1.022-.943 0-.628-.462-.913-1.031-.913H59.69v1.856zm.215 3.033c.62 0 1.14-.314 1.14-1.04 0-.727-.52-1.051-1.185-1.051h-1.437v2.091zm2.824-1.491c0-1.522.814-2.622 2.2-2.622a1.74 1.74 0 0 1 1.57.883V8.81h1.207v4.968h-1.207v-.747a1.76 1.76 0 0 1-1.575.884c-1.385 0-2.2-1.099-2.2-2.62zm2.493 1.614c.815 0 1.257-.658 1.257-1.614s-.442-1.615-1.257-1.615c-.814 0-1.256.658-1.256 1.614s.451 1.61 1.256 1.61zm3.367-4.098h1.208v.784a1.67 1.67 0 0 1 1.531-.913c1.169 0 1.777.707 1.777 1.915v3.18h-1.237v-2.964c0-.707-.294-1.119-.942-1.119-.698 0-1.1.53-1.1 1.434v2.65h-1.237zm6.618 4.967H75.24V6.904h1.236v3.947l1.777-2.045h1.483l-2.026 2.252L80 13.777h-1.522l-2.003-2.416zM13.52 7.943 7.47 0 1.42 7.943C.398 9.287 0 10.457 0 11.732c0 1.937.969 3.685 2.714 4.904L7.47 19.92l4.757-3.287c1.742-1.22 2.713-2.963 2.713-4.9 0-1.275-.398-2.445-1.419-3.789M6.5 16.31v1.17l-2.914-1.992c-1.369-.921-2.14-2.29-2.14-3.685a4.35 4.35 0 0 1 .547-2.067c.15.424.398.847.946 1.47l3.09 3.433c.495.575.47.924.47 1.671m-2.29-5.852c-.773-.846-.922-1.32-.922-1.818s.099-.89.695-1.668L7.47 2.44l3.487 4.531c.572.773.697 1.196.697 1.668 0 .499-.15.97-.921 1.818L7.47 14.093zm7.145 5.03L8.44 17.479v-1.17c0-.747-.024-1.096.474-1.668l3.088-3.437c.547-.622.796-1.045.946-1.469a4.36 4.36 0 0 1 .548 2.067c0 1.395-.773 2.764-2.142 3.685"/></g><defs><clipPath id="clip0_3802_8477"><path fill="#fff" d="M0 0h80v19.919H0z"/></clipPath></defs></svg>