<svg fill="none" viewBox="0 0 80 18"><g clip-path="url(#clip0_3802_8219)"><path fill="#F6D300" fill-rule="evenodd" d="M.116 15.62c2.931-1.07 5.265-2.339 6.988-3.814q.339.23.737.42.181.086.365.158c-1.688 1.571-4.09 3.03-7.16 4.388zm7.655-4.425q.549-.54.997-1.117a8 8 0 0 0 .503-.724q.21 0 .418.012.411.027.758.101-.582 1.203-1.647 2.33a4.2 4.2 0 0 1-1.03-.602M9.738 8.38c.308-.927.144-1.706-.508-2.305-.88-.807-2.608-1.227-5.086-1.37 1.246-.2 2.552-.203 3.913.037 2.279.402 3.331 1.564 2.88 3.379a7 7 0 0 1-.134.466 5.6 5.6 0 0 0-1.065-.207" clip-rule="evenodd"/><path fill="#3D107A" d="M.093 15.555q2.193-.802 3.936-1.752 1.741-.95 3.03-2.05l.04-.035.044.03a5 5 0 0 0 .728.414 6 6 0 0 0 .36.157l.104.041-.081.076Q6.982 13.62 5.18 14.719c-1.198.732-2.57 1.438-4.107 2.118l-.05.022-.033-.043-.93-1.151-.06-.076zm4.004-1.628a29 29 0 0 1-3.864 1.726l.833 1.033q2.271-1.006 4.041-2.088 1.732-1.058 2.97-2.19l-.082-.035-.185-.083a6 6 0 0 1-.701-.396q-1.285 1.092-3.012 2.033m3.624-2.782a12 12 0 0 0 .522-.546l-.001-.001a10 10 0 0 0 .738-.927q.124-.182.231-.354l.02-.033h.04a7 7 0 0 1 .82.051q.196.025.37.064l.088.018-.039.08a8.3 8.3 0 0 1-.709 1.194q-.415.588-.95 1.153l-.033.036-.045-.019a5 5 0 0 1-.56-.277 4 4 0 0 1-.487-.335l-.061-.049zm.626-.453q-.225.252-.47.497.188.145.407.273.234.137.498.25.51-.543.905-1.102.38-.537.657-1.092a6 6 0 0 0-.865-.091l-.169-.003a7 7 0 0 1-.487.696q-.226.292-.476.572m1.324-2.334q.226-.68.104-1.242-.123-.555-.593-.988c-.431-.396-1.073-.697-1.913-.918-.847-.223-1.894-.362-3.129-.432l-.644-.038.637-.103q.956-.154 1.958-.147c.646.006 1.306.064 1.978.183q.265.046.512.108c.928.23 1.615.61 2.038 1.129.425.521.58 1.182.441 1.97q-.021.125-.054.258a8 8 0 0 1-.137.472l-.02.065-.067-.019a5 5 0 0 0-.51-.126 6 6 0 0 0-.541-.08l-.088-.009zm.24-1.272q.125.566-.08 1.233.24.03.468.072.236.045.458.11a6 6 0 0 0 .165-.646c.132-.745-.014-1.368-.412-1.857-.403-.494-1.064-.857-1.963-1.08a8 8 0 0 0-.503-.106 11.6 11.6 0 0 0-3.195-.126q1.417.118 2.455.388c.863.226 1.525.539 1.974.95q.503.464.634 1.062"/><path fill="#F6D300" fill-rule="evenodd" d="M11.058 8.672c-1.225-.445-2.754-.424-4.527-.012q.032.605.22 1.118c1.023-.313 2.003-.472 2.938-.412 2.433.156 3.2 1.598 2.063 3.788-.844 1.625-2.406 2.971-4.375 4.215 2.276-1.064 3.903-2.306 4.837-3.753 1.482-2.297 1.134-4.11-1.156-4.944m-5.802.338c-.874.274-1.797.628-2.765 1.054l.96 1.107c.75-.381 1.48-.722 2.19-1.002a4.3 4.3 0 0 1-.385-1.159" clip-rule="evenodd"/><path fill="#3D107A" d="M11.034 8.739Q10.125 8.41 9 8.415c-.734 0-1.536.104-2.396.3q.019.266.067.513.048.24.124.463.74-.224 1.448-.328a7 7 0 0 1 1.45-.067c.652.042 1.188.175 1.603.39.367.19.64.445.814.757s.249.68.223 1.094c-.031.487-.203 1.04-.519 1.65-.425.819-1.032 1.568-1.78 2.269-.494.463-1.049.904-1.655 1.33q1.053-.57 1.877-1.205c.801-.62 1.437-1.286 1.899-2.003a6.5 6.5 0 0 0 .652-1.277c.245-.672.294-1.28.144-1.81-.148-.525-.497-.975-1.046-1.33a4.4 4.4 0 0 0-.87-.422M9 8.275c.765-.002 1.462.106 2.082.332q.512.187.899.436c.58.375.947.851 1.106 1.41s.108 1.196-.147 1.896q-.227.622-.667 1.306c-.47.73-1.117 1.408-1.931 2.037q-1.22.94-2.935 1.74l-1.01.472.943-.595c.98-.62 1.86-1.264 2.598-1.956.737-.689 1.333-1.426 1.75-2.231.308-.591.474-1.126.504-1.594q.036-.584-.205-1.016-.242-.433-.756-.7c-.397-.207-.914-.335-1.547-.375a7 7 0 0 0-1.421.064 10 10 0 0 0-1.492.345l-.064.019-.023-.063a4 4 0 0 1-.151-.546 4 4 0 0 1-.073-.592l-.003-.059.057-.013c.892-.208 1.723-.317 2.486-.317M5.202 9.1q-.617.197-1.268.445-.648.247-1.327.544l.862.994q.533-.272 1.062-.515.513-.236 1.013-.438a4 4 0 0 1-.201-.499 5 5 0 0 1-.14-.53m-1.318.313a24 24 0 0 1 1.351-.47l.075-.025.015.079q.057.305.151.59.095.285.227.55l.034.069-.071.027q-.53.21-1.076.462-.541.25-1.106.538l-.049.025-.036-.042-.96-1.107-.064-.072.088-.038q.728-.322 1.42-.586"/><path fill="#F6D300" fill-rule="evenodd" d="M5.547 5.86q.161-.507.367-.985.832.115 1.497.3a7.2 7.2 0 0 0-.744 1.947c-.52 2.444.37 4.151 2.632 4.855.9.28 1.86.312 2.867.134q-.057.214-.143.443c-1.428.386-2.836.31-4.182-.329-2.414-1.147-3.22-3.456-2.294-6.365M13 11.92a12 12 0 0 0 1.865-.708c-.655.436-1.313.789-1.969 1.05q.06-.175.104-.342M6.055 4.56c.81-1.734 2.04-3.197 3.505-4.453l.859 1.355C9.259 2.566 8.345 3.64 7.696 4.684a12 12 0 0 0-1.64-.124" clip-rule="evenodd"/><path fill="#3D107A" d="M5.48 5.838q.081-.255.174-.502.093-.25.195-.489l.022-.05.053.007q.416.06.794.135t.712.168l.085.024-.043.078q-.264.489-.451.972-.184.482-.285.956c-.258 1.21-.165 2.236.272 3.044.433.797 1.205 1.384 2.312 1.729q.667.206 1.375.235.71.03 1.459-.103l.107-.02-.027.106q-.029.11-.065.223-.037.114-.08.228l-.013.034-.035.009a6.4 6.4 0 0 1-2.181.22 5.8 5.8 0 0 1-2.05-.552c-1.22-.581-2.036-1.455-2.432-2.553-.396-1.1-.368-2.424.102-3.899m.305-.454q-.091.246-.17.497c-.461 1.444-.49 2.737-.104 3.81.382 1.06 1.174 1.907 2.36 2.47a5.6 5.6 0 0 0 2 .54 6.2 6.2 0 0 0 2.1-.206 4 4 0 0 0 .098-.296q-.705.115-1.38.087-.727-.03-1.41-.242c-1.145-.356-1.945-.966-2.395-1.796-.453-.838-.55-1.896-.286-3.14q.103-.486.292-.977a8 8 0 0 1 .417-.91q-.293-.079-.617-.144-.345-.069-.733-.126-.09.217-.172.433m7.196 6.468q.45-.126.915-.303.465-.178.94-.4l.868-.41-.8.532q-.496.33-.996.597a10 10 0 0 1-.986.459l-.142.057.05-.145a5 5 0 0 0 .101-.336l.01-.04zm.965-.171q-.447.17-.889.296l-.038.133-.009.029q.416-.174.831-.395.072-.038.143-.078zM5.992 4.53c.407-.872.92-1.676 1.515-2.42A15.4 15.4 0 0 1 9.515.053L9.577 0l.043.069.858 1.356.031.048-.042.04A21 21 0 0 0 8.92 3.141a13 13 0 0 0-1.162 1.58l-.025.04-.045-.007a12 12 0 0 0-1.632-.124h-.11zm1.624-2.332a12 12 0 0 0-1.45 2.292 11.5 11.5 0 0 1 1.495.118q.484-.77 1.15-1.558.67-.788 1.517-1.599L9.545.213a15.3 15.3 0 0 0-1.929 1.985"/><path fill="#0A4390" fill-rule="evenodd" d="M21.784 6.552q.529.114.794.362.364.347.364.849 0 .382-.24.73-.24.35-.66.51-.418.16-1.28.16h-2.407v-.138h.19q.319 0 .457-.204.086-.132.086-.56V4.954q0-.474-.108-.597-.146-.167-.434-.167h-.19v-.139h2.202q.616 0 .988.09.564.138.86.481.298.345.298.793 0 .383-.233.687-.233.303-.687.45m-1.971-.21q.139.027.317.04.18.014.393.014.551 0 .826-.118.277-.12.423-.363.145-.244.145-.532 0-.447-.365-.762-.364-.315-1.062-.315-.376 0-.677.082zm0 2.45q.438.101.865.101.684 0 1.043-.307a.96.96 0 0 0 .358-.758q0-.298-.167-.572-.165-.276-.53-.433-.365-.158-.904-.158a9 9 0 0 0-.398.008q-.166.008-.267.026zm7.086-1.332h-1.98l-.342.8q-.128.297-.129.444 0 .116.112.206.111.087.48.115v.138h-1.612v-.138q.32-.057.414-.147.192-.181.425-.735l1.798-4.207h.127l1.777 4.252q.214.513.39.665.174.151.487.172v.138h-2.014v-.138q.304-.015.412-.102a.26.26 0 0 0 .107-.213q0-.165-.15-.523zm-.116-.278-.86-2.063-.885 2.063zm2.048-3.13h1.374l3.13 3.838V4.938q0-.471-.106-.59-.14-.158-.445-.158h-.18v-.139H34.4v.14h-.183q-.329 0-.466.196-.083.121-.084.551v4.308h-.136l-3.364-4.118v3.148q0 .473.103.59.145.159.447.159h.183v.138h-1.796v-.138h.18q.33 0 .468-.197.084-.122.084-.552V4.722a2.4 2.4 0 0 0-.337-.343 1.3 1.3 0 0 0-.336-.155 1.3 1.3 0 0 0-.332-.034zm7.973 2.276 1.886 1.87q.465.468.791.636.329.168.656.19v.139h-2.434v-.138q.219 0 .315-.074t.096-.164a.4.4 0 0 0-.036-.162 1.5 1.5 0 0 0-.235-.268l-1.76-1.746v1.65q0 .388.05.511a.33.33 0 0 0 .158.162q.164.09.347.09h.176v.139h-2.19v-.138h.182q.318 0 .461-.185.09-.12.09-.579V4.954q0-.387-.049-.515a.34.34 0 0 0-.155-.158.7.7 0 0 0-.347-.09h-.181v-.14h2.19v.14h-.177a.74.74 0 0 0-.347.086.32.32 0 0 0-.163.181q-.046.12-.046.496v1.568q.075-.074.515-.48 1.118-1.026 1.352-1.368a.5.5 0 0 0 .101-.265q0-.086-.08-.153-.077-.065-.267-.066h-.116v-.139h1.88v.14a1.1 1.1 0 0 0-.3.046 1.5 1.5 0 0 0-.332.16q-.196.122-.481.387-.084.075-.767.771zm9.617 1.424.123.027-.439 1.384H42.15v-.138h.192q.323 0 .462-.21.08-.12.079-.554V4.954q0-.479-.106-.597-.146-.167-.435-.167h-.192v-.139h2.313v.14q-.407-.004-.572.074a.46.46 0 0 0-.223.197q-.06.12-.06.569v3.223q0 .313.06.43.044.08.14.118.092.037.588.038h.373q.59 0 .826-.087.237-.086.434-.307.195-.22.392-.694m3.816-.292h-1.98l-.341.8q-.129.297-.13.444 0 .116.112.206.112.087.48.115v.138h-1.612v-.138q.32-.057.415-.147.191-.181.425-.735l1.797-4.207h.128l1.776 4.252q.215.513.39.665.174.151.488.172v.138H50.17v-.138q.305-.015.413-.102a.26.26 0 0 0 .107-.213q0-.165-.151-.523zm-.115-.278L49.26 5.12l-.884 2.063zm5.303 1.98-1.973-4.3v3.414q0 .473.102.59.142.159.447.159h.183v.138h-1.796v-.138h.184q.326 0 .465-.197.083-.122.083-.552V4.938q0-.34-.075-.49a.43.43 0 0 0-.197-.184q-.145-.074-.46-.074v-.139h1.465l1.843 3.997L57.52 4.05h1.45v.14h-.178q-.332 0-.47.196-.083.121-.083.551v3.338q0 .473.106.59.141.159.447.159h.179v.138h-2.19v-.138h.184q.33 0 .465-.197.084-.122.084-.552V4.863l-1.967 4.3zm5.283-2.396v1.495q0 .482.105.597.143.166.432.167h.195v.138h-2.19v-.138h.193q.325 0 .465-.212.075-.116.075-.552V4.954q0-.481-.102-.597-.148-.167-.438-.167h-.192v-.139h1.873q.685 0 1.082.142.395.141.666.477.273.335.272.794 0 .626-.413 1.017-.411.393-1.165.392-.185 0-.398-.027a4 4 0 0 1-.46-.08m0-.215q.198.04.353.056.154.02.262.02a.9.9 0 0 0 .673-.304q.285-.302.285-.782 0-.331-.136-.616a.94.94 0 0 0-.382-.424 1.1 1.1 0 0 0-.563-.14q-.194 0-.492.071zM67.1 4.19v-.14h1.796v.14h-.192q-.3 0-.462.252-.079.117-.079.541v2.072q0 .769-.151 1.193-.153.424-.599.726-.445.303-1.212.303-.834 0-1.266-.29a1.56 1.56 0 0 1-.613-.78q-.12-.335-.12-1.257V4.954q0-.471-.13-.617t-.42-.147h-.19v-.139h2.204v.14h-.195q-.316 0-.452.199-.093.136-.093.564V7.18q0 .296.054.682.056.384.198.598.144.214.412.355.27.138.66.138.502 0 .897-.217.395-.22.54-.56t.145-1.155V4.954q0-.479-.105-.597-.147-.167-.436-.167zm1.78-.14h1.373l3.131 3.839V4.938q0-.471-.106-.59-.142-.158-.447-.158h-.18v-.139h1.797v.14h-.182q-.329 0-.467.196-.083.121-.083.551v4.308h-.136l-3.364-4.118v3.148q0 .473.103.59.144.159.447.159h.182v.138h-1.796v-.138h.18q.33 0 .469-.197.083-.122.083-.552V4.722a2.4 2.4 0 0 0-.336-.343 1.3 1.3 0 0 0-.337-.155 1.3 1.3 0 0 0-.332-.034zm10.395-.115.131 1.612h-.138q-.2-.6-.514-.904-.455-.438-1.168-.438-.972 0-1.48.772-.423.65-.423 1.551 0 .73.283 1.332.281.603.739.883.456.28.938.28a2.1 2.1 0 0 0 1.054-.284V7.26q0-.386-.057-.504a.4.4 0 0 0-.182-.181q-.123-.064-.432-.063v-.139H80v.14h-.094q-.292 0-.402.195-.075.14-.074.552v1.566a3.8 3.8 0 0 1-.854.344 3.7 3.7 0 0 1-.936.11q-1.479 0-2.245-.95a2.54 2.54 0 0 1-.576-1.642q0-.675.324-1.292.383-.736 1.052-1.13.56-.33 1.325-.33.277 0 .505.046.227.045.645.2.21.079.283.079.07 0 .122-.065.05-.066.062-.26z" clip-rule="evenodd"/><path fill="#DD1717" fill-rule="evenodd" d="M20.462 12.231q.245.052.366.168a.52.52 0 0 1 .168.39q0 .176-.11.337a.63.63 0 0 1-.305.234q-.192.075-.59.074h-1.107v-.064h.087q.146 0 .21-.093.04-.06.04-.258v-1.524q0-.218-.05-.275-.067-.076-.2-.076h-.087v-.064h1.014q.284 0 .455.042a.73.73 0 0 1 .396.22.545.545 0 0 1 .03.683.63.63 0 0 1-.317.206m-.907-.096q.063.012.146.019t.18.006q.255 0 .38-.055a.4.4 0 0 0 .196-.167.47.47 0 0 0 .067-.245.45.45 0 0 0-.168-.35q-.168-.147-.49-.146-.173 0-.311.038zm0 1.128q.201.047.398.047.315 0 .48-.141a.44.44 0 0 0 .166-.35.5.5 0 0 0-.322-.462 1.1 1.1 0 0 0-.416-.073q-.107 0-.183.003-.076.004-.123.012zm3.263-.614h-.912l-.157.369a.6.6 0 0 0-.06.205q0 .053.052.095.051.04.22.052v.064h-.742v-.064q.148-.026.191-.067.089-.084.196-.339l.828-1.937h.058l.82 1.958q.098.236.178.307a.37.37 0 0 0 .226.078v.064h-.929v-.064q.14-.006.19-.046a.12.12 0 0 0 .05-.098.7.7 0 0 0-.07-.242zm-.053-.127-.396-.95-.408.95zm.943-1.442h.633l1.443 1.768v-1.36q-.001-.217-.05-.272-.065-.072-.205-.072h-.083v-.064h.827v.064h-.084q-.15 0-.214.09-.04.057-.04.254v1.984h-.062l-1.55-1.896v1.45q0 .217.048.272.067.072.206.072h.084v.064h-.827v-.064h.082q.154 0 .217-.09.038-.056.038-.254V11.39a1 1 0 0 0-.155-.158.6.6 0 0 0-.155-.072.6.6 0 0 0-.153-.015zm3.673 1.048.868.862q.214.216.365.293.15.077.302.087v.064h-1.121v-.064q.1 0 .145-.033.045-.034.044-.077a.2.2 0 0 0-.016-.073.7.7 0 0 0-.109-.124l-.811-.804v.76q0 .179.023.236.017.043.073.074a.33.33 0 0 0 .16.041h.081v.064h-1.008v-.064h.083q.146 0 .212-.084.043-.056.042-.267v-1.524a.8.8 0 0 0-.022-.237.16.16 0 0 0-.072-.073.33.33 0 0 0-.16-.041h-.083v-.064h1.008v.064h-.08a.34.34 0 0 0-.161.04.15.15 0 0 0-.075.083.8.8 0 0 0-.021.229v.721l.237-.22q.514-.473.622-.63a.22.22 0 0 0 .047-.122q0-.04-.036-.071-.037-.03-.123-.03h-.053v-.064h.866v.064a.5.5 0 0 0-.292.096q-.09.055-.222.177-.038.035-.353.355zm1.456-1.048h.632l1.443 1.768v-1.36q0-.217-.05-.272-.064-.072-.204-.072h-.083v-.064h.826v.064h-.083q-.153 0-.215.09-.038.057-.039.254v1.984h-.062l-1.55-1.896v1.45q0 .217.048.272.066.072.206.072h.084v.064h-.827v-.064h.082q.153 0 .216-.09.039-.056.039-.254V11.39a1 1 0 0 0-.155-.158.6.6 0 0 0-.155-.072.6.6 0 0 0-.153-.015zm4.308 0h.82v.064h-.044a.5.5 0 0 0-.29.155q-.071.075-.175.244l-.566.884v.6q0 .216.05.27.066.074.21.073h.078v.064h-1.009v-.064h.085q.15 0 .214-.09.038-.056.039-.254v-.55l-.644-.996a2 2 0 0 0-.155-.215.6.6 0 0 0-.17-.104.2.2 0 0 0-.1-.017v-.064h1.003v.064h-.051a.3.3 0 0 0-.151.038.12.12 0 0 0-.069.114q0 .063.107.226l.487.76.464-.726q.105-.164.104-.243a.16.16 0 0 0-.024-.088.17.17 0 0 0-.073-.06.34.34 0 0 0-.14-.021zm2.101 1.57h-.912l-.157.368a.6.6 0 0 0-.06.205q0 .053.052.095.051.04.22.052v.064h-.741v-.064q.148-.026.19-.067.09-.084.196-.339l.828-1.937h.059l.819 1.958q.098.236.179.307a.37.37 0 0 0 .224.078v.064h-.927v-.064q.14-.006.19-.046a.12.12 0 0 0 .049-.098.7.7 0 0 0-.07-.242zm-.053-.128-.397-.95-.406.95zm3.135.912-.91-1.98v1.572q0 .217.048.272.066.072.206.072h.084v.064h-.827v-.064h.084q.151 0 .215-.09.038-.056.038-.254v-1.538a.54.54 0 0 0-.035-.226.2.2 0 0 0-.09-.084.5.5 0 0 0-.212-.034v-.064h.675l.848 1.84.841-1.84h.668v.064h-.082q-.153 0-.216.09-.04.057-.04.254v1.538q0 .217.05.272.065.072.206.072h.082v.064h-1.008v-.064h.084q.153 0 .215-.09.038-.056.038-.254v-1.572l-.906 1.98zm3.332-.785h-.912l-.158.369a.6.6 0 0 0-.059.205q0 .053.052.095.05.04.22.052v.064h-.742v-.064q.148-.026.19-.067.09-.084.197-.339l.827-1.937h.06l.818 1.958q.098.236.18.307a.37.37 0 0 0 .224.078v.064h-.928v-.064q.14-.006.19-.046a.12.12 0 0 0 .049-.098.7.7 0 0 0-.07-.242zm-.053-.127-.397-.95-.407.95zm2.62-1.495v.813h-.064a1 1 0 0 0-.111-.373.6.6 0 0 0-.232-.22.63.63 0 0 0-.309-.082q-.18 0-.298.11a.34.34 0 0 0-.119.251.3.3 0 0 0 .075.196q.108.13.512.347.33.18.451.272.12.095.186.223a.61.61 0 0 1-.142.73.75.75 0 0 1-.534.193q-.102 0-.193-.015a2 2 0 0 1-.223-.064 1 1 0 0 0-.214-.056.1.1 0 0 0-.069.026q-.024.027-.037.11h-.063v-.807h.063q.044.254.122.38.076.125.233.208t.344.083q.218 0 .344-.114a.36.36 0 0 0 .126-.272.4.4 0 0 0-.048-.176.5.5 0 0 0-.148-.165 4 4 0 0 0-.37-.221 3.5 3.5 0 0 1-.431-.269.7.7 0 0 1-.194-.222.58.58 0 0 1 .128-.704.7.7 0 0 1 .495-.182q.189 0 .399.092.097.043.137.043.045 0 .074-.027a.2.2 0 0 0 .046-.108zm2.04.053h.822v.064h-.045a.5.5 0 0 0-.29.155q-.07.075-.175.244l-.566.884v.6q.001.216.05.27.067.074.21.073h.078v.064h-1.008v-.064h.084q.15 0 .215-.09.038-.056.038-.254v-.55l-.644-.996a2 2 0 0 0-.155-.215.6.6 0 0 0-.17-.104.24.24 0 0 0-.1-.017v-.064h1.004v.064h-.052a.3.3 0 0 0-.15.038.12.12 0 0 0-.069.114q0 .063.106.226l.487.76.465-.726q.103-.164.103-.243a.16.16 0 0 0-.024-.088.17.17 0 0 0-.073-.06.3.3 0 0 0-.14-.021zm2.102 1.57h-.911l-.158.368a.6.6 0 0 0-.059.205q0 .053.051.095.051.04.221.052v.064h-.742v-.064q.148-.026.19-.067.09-.084.197-.339l.828-1.937h.058l.819 1.958q.098.236.179.307a.37.37 0 0 0 .225.078v.064h-.928v-.064q.14-.006.19-.046a.12.12 0 0 0 .05-.098.7.7 0 0 0-.07-.242zm-.053-.128-.396-.95-.407.95zm3.393.912h-.63l-.8-1.1a4 4 0 0 1-.188.002l-.052-.002v.685q0 .221.048.275.066.075.197.076h.092v.064h-1.009v-.064h.089q.15 0 .213-.097.036-.053.036-.254v-1.524q0-.22-.049-.275-.068-.076-.2-.076h-.089v-.064h.858q.375 0 .552.054.18.056.302.202a.53.53 0 0 1 .124.35q0 .217-.141.377-.142.16-.439.226l.487.674q.168.233.287.31.12.075.312.097zm-1.67-1.21h.056l.04.001q.333 0 .502-.145a.47.47 0 0 0 .168-.372.5.5 0 0 0-.136-.359.5.5 0 0 0-.36-.138q-.1 0-.27.032zm3.263.425h-.912l-.157.369a.6.6 0 0 0-.06.205q0 .053.052.095.051.04.221.052v.064h-.742v-.064q.148-.026.19-.067.09-.084.196-.339l.829-1.937h.058l.819 1.958q.098.236.179.307a.37.37 0 0 0 .224.078v.064h-.927v-.064q.14-.006.19-.046a.12.12 0 0 0 .048-.098.7.7 0 0 0-.068-.242zm-.053-.127-.396-.95-.407.95zm2.051-.394.87.862q.213.216.364.293.15.077.302.087v.064h-1.121v-.064q.1 0 .145-.033.044-.034.044-.077a.2.2 0 0 0-.017-.073.6.6 0 0 0-.108-.124l-.811-.804v.76q0 .179.023.236.017.043.073.074.075.041.16.041h.081v.064h-1.008v-.064h.083q.147 0 .212-.084.042-.056.042-.267v-1.524a.8.8 0 0 0-.023-.237.16.16 0 0 0-.071-.073.33.33 0 0 0-.16-.041h-.083v-.064h1.008v.064h-.081a.34.34 0 0 0-.16.04.15.15 0 0 0-.075.083.8.8 0 0 0-.021.229v.721l.237-.22q.515-.473.623-.63a.23.23 0 0 0 .047-.122q0-.04-.037-.071-.038-.03-.123-.03h-.054v-.064h.866v.064a.5.5 0 0 0-.291.096q-.09.055-.222.177-.037.035-.354.355zm3.131.521h-.912l-.157.369a.6.6 0 0 0-.06.205q0 .053.052.095.051.04.22.052v.064h-.741v-.064q.147-.026.19-.067.09-.084.196-.339l.828-1.937h.058l.819 1.958q.098.236.18.307a.37.37 0 0 0 .224.078v.064H58.4v-.064q.14-.006.19-.046a.12.12 0 0 0 .05-.098.7.7 0 0 0-.07-.242zm-.053-.127-.397-.95-.407.95zm2.653-1.442.025.554h-.066a.7.7 0 0 0-.052-.209.35.35 0 0 0-.143-.148.5.5 0 0 0-.235-.048h-.332v1.797q0 .217.047.272.066.072.203.072h.081v.064h-1.001v-.064h.084q.15 0 .214-.09.038-.056.039-.254V11.23h-.282a.8.8 0 0 0-.235.025.32.32 0 0 0-.155.126.5.5 0 0 0-.076.254h-.066l.025-.554zm2.975 1.704.057.013-.203.637h-1.82v-.064h.088q.15 0 .213-.096.036-.056.036-.255v-1.524q0-.22-.048-.275-.068-.076-.201-.076h-.088v-.064h1.065v.064a.65.65 0 0 0-.264.034.2.2 0 0 0-.103.09q-.027.056-.027.263v1.484q0 .146.027.198a.13.13 0 0 0 .065.055q.043.017.271.017h.172q.271 0 .38-.04a.5.5 0 0 0 .2-.141q.09-.1.181-.32m1.757-.135h-.912l-.157.369a.6.6 0 0 0-.059.205q0 .053.052.095.05.04.22.052v.064h-.742v-.064q.147-.026.191-.067.088-.084.196-.339l.828-1.937h.058l.819 1.958q.098.236.179.307a.37.37 0 0 0 .224.078v.064h-.927v-.064q.14-.006.19-.046a.12.12 0 0 0 .049-.098.7.7 0 0 0-.07-.242zm-.053-.127-.397-.95-.406.95zm2.443.912-.909-1.98v1.572q0 .217.048.272.065.072.206.072h.083v.064h-.827v-.064h.085q.15 0 .214-.09.038-.056.039-.254v-1.538a.54.54 0 0 0-.035-.226.2.2 0 0 0-.09-.084.5.5 0 0 0-.213-.034v-.064h.675l.849 1.84.84-1.84h.669v.064h-.083q-.152 0-.216.09-.038.057-.039.254v1.538q0 .217.05.272.064.072.206.072h.082v.064h-1.009v-.064h.085q.153 0 .214-.09.038-.056.039-.254v-1.572l-.906 1.98zm2.434-1.103v.688q0 .221.048.275.065.075.199.076h.09v.064h-1.01v-.064h.09q.148 0 .214-.097.034-.053.034-.254v-1.524q0-.22-.046-.275-.069-.076-.202-.076h-.09v-.064h.864q.315 0 .498.065a.7.7 0 0 1 .308.22.56.56 0 0 1 .124.366.62.62 0 0 1-.19.468q-.189.18-.537.18a2 2 0 0 1-.395-.05m0-.1a2 2 0 0 0 .282.035.41.41 0 0 0 .31-.14.5.5 0 0 0 .131-.36.7.7 0 0 0-.061-.284.44.44 0 0 0-.177-.195.5.5 0 0 0-.26-.065q-.088 0-.225.033zm2.944-1.087v-.064h.827v.064h-.089a.24.24 0 0 0-.212.116q-.037.054-.037.25v.953q.001.355-.07.55a.7.7 0 0 1-.275.335q-.206.14-.558.14-.385 0-.583-.134a.72.72 0 0 1-.283-.36q-.056-.153-.056-.58v-.918q0-.217-.06-.285-.059-.067-.193-.067h-.087v-.064h1.015v.064h-.09q-.146 0-.208.092-.043.061-.043.26v1.025q0 .136.025.314.025.177.091.276.067.099.19.164a.66.66 0 0 0 .305.063.84.84 0 0 0 .412-.1.54.54 0 0 0 .249-.257q.066-.159.067-.533v-.953q0-.22-.049-.275-.067-.076-.2-.076zm.819-.064h.633l1.442 1.768v-1.36q0-.217-.049-.272-.065-.072-.205-.072h-.083v-.064h.827v.064h-.084q-.151 0-.215.09-.038.057-.038.254v1.984h-.063l-1.55-1.896v1.45q0 .217.048.272.066.072.206.072h.084v.064h-.828v-.064h.083q.153 0 .217-.09.038-.056.038-.254V11.39a1 1 0 0 0-.155-.158.6.6 0 0 0-.155-.072.6.6 0 0 0-.153-.015zm4.789-.053.06.742h-.064a1 1 0 0 0-.237-.416.75.75 0 0 0-.537-.202.77.77 0 0 0-.682.356q-.195.3-.195.714 0 .336.13.613.13.278.34.407.21.13.433.13a.97.97 0 0 0 .485-.131v-.683a.6.6 0 0 0-.026-.232.18.18 0 0 0-.084-.083.5.5 0 0 0-.199-.03v-.063h.91v.064h-.044q-.135 0-.185.09-.034.064-.034.254v.721a1.7 1.7 0 0 1-.394.16q-.194.05-.43.05-.683 0-1.034-.438a1.17 1.17 0 0 1-.266-.756q0-.31.15-.596.176-.338.484-.52.258-.151.61-.151.128 0 .233.02a2 2 0 0 1 .297.093.5.5 0 0 0 .13.036q.033 0 .056-.03t.029-.12z" clip-rule="evenodd"/></g><defs><clipPath id="clip0_3802_8219"><path fill="#fff" d="M0 0h80v17.904H0z"/></clipPath></defs></svg>