<svg fill="none" viewBox="0 0 80 40"><g clip-path="url(#clip0_3802_10870)"><path fill="#0077B3" d="M80 0H0v40.002h80z"/><path fill="#fff" fill-rule="evenodd" d="M9.648 13.742c-2.794.264-3.133 2.108-3.623 3.005-.31-.249-.468-.309-.78-.554.195-.652.787-1.617 1.259-2.168 1.108-1.199 2.333-.814 3.638-1.463.8-.516 1.003-1.24 1.27-1.971.419.075.524.165.852.328-.252 1.27-1.07 2.518-2.616 2.823m1.056 1.433c1.545-.305 2.364-1.557 2.616-2.824-.328-.162-.433-.252-.852-.328-.268.732-.471 1.46-1.27 1.972-1.305.649-2.53.264-3.639 1.463-.475.55-1.067 1.516-1.259 2.168.31.248.468.309.78.554.49-.901.83-2.745 3.624-3.005m1.025 1.406c1.546-.305 2.364-1.557 2.617-2.823-.328-.163-.434-.253-.852-.328-.268.73-.472 1.459-1.271 1.971-1.305.649-2.53.264-3.638 1.463-.475.55-1.067 1.516-1.26 2.168.31.249.468.31.78.554.491-.9.83-2.744 3.624-3.005m1.105 1.294c1.546-.306 2.364-1.558 2.616-2.824-.328-.162-.433-.253-.852-.328-.267.731-.471 1.459-1.27 1.972-1.305.648-2.53.263-3.639 1.462-.475.55-1.067 1.516-1.259 2.168.31.249.468.31.78.554.49-.9.83-2.744 3.624-3.004m-3.386 4.4c-2.797.218-3.167 2.054-3.672 2.948-.305-.253-.464-.317-.77-.57.204-.648.811-1.606 1.294-2.149 1.127-1.18 2.349-.776 3.66-1.406.808-.501 1.023-1.225 1.302-1.953.418.083.52.174.844.34-.271 1.266-1.108 2.503-2.658 2.782zm1.033 1.447c-2.797.219-3.167 2.055-3.672 2.948-.305-.252-.464-.316-.77-.569.204-.648.811-1.606 1.294-2.149 1.127-1.18 2.349-.777 3.66-1.406.808-.502 1.023-1.226 1.302-1.953.418.083.52.173.844.34-.271 1.266-1.108 2.503-2.658 2.785zm1.007 1.425c1.55-.282 2.386-1.52 2.658-2.782-.324-.166-.43-.256-.845-.34-.279.728-.494 1.452-1.3 1.954-1.312.625-2.534.222-3.661 1.406-.483.543-1.09 1.5-1.293 2.149.305.252.463.317.772.57.506-.894.871-2.73 3.673-2.95zm1.082 1.312c1.55-.282 2.386-1.52 2.662-2.782-.325-.166-.426-.256-.845-.34-.279.728-.494 1.452-1.3 1.954-1.313.625-2.534.222-3.661 1.406-.483.543-1.09 1.5-1.294 2.149.306.252.464.317.77.57.505-.894.87-2.73 3.672-2.95zm10.688-12.404q.001.265-.071.502a1.7 1.7 0 0 1-.196.433 1.5 1.5 0 0 1-.313.351q-.181.152-.415.253.174.033.332.124a.96.96 0 0 1 .433.547q.061.186.06.41c0 .151-.018.31-.06.46a1.7 1.7 0 0 1-.18.442q-.122.21-.302.392-.18.181-.422.313-.243.134-.543.207-.299.075-.694.075h-1.463q-.142.001-.211-.071c-.045-.05-.057-.125-.03-.234l.976-5.003q.029-.17.136-.238a.4.4 0 0 1 .222-.067h1.188q.42-.001.701.071c.189.05.347.117.472.211a.9.9 0 0 1 .282.343q.096.202.095.468zm-.776.136a.7.7 0 0 0-.046-.256.5.5 0 0 0-.15-.196.8.8 0 0 0-.264-.125 1.6 1.6 0 0 0-.419-.045h-.773l-.346 1.817h.825q.335 0 .55-.113.214-.112.355-.286.135-.174.204-.389.066-.215.064-.407m-.166 2.545q0-.36-.249-.558-.248-.197-.773-.196h-.935l-.384 1.98H21q.351 0 .588-.102.239-.103.404-.268c.109-.11.188-.241.245-.389q.085-.22.086-.463zm5.636 1.572-.825-5.21a.3.3 0 0 0-.03-.08.15.15 0 0 0-.076-.049 1 1 0 0 0-.14-.026 3 3 0 0 0-.226-.007q-.123-.002-.207.007a.6.6 0 0 0-.14.027.2.2 0 0 0-.09.048.3.3 0 0 0-.064.08l-2.865 5.21a1 1 0 0 0-.06.155q-.01.056.018.09a.2.2 0 0 0 .106.042q.073.01.203.011.115.002.196-.008a.5.5 0 0 0 .129-.026.16.16 0 0 0 .075-.045.3.3 0 0 0 .049-.072l.716-1.353h2.296l.2 1.364c0 .027.011.05.023.065a.12.12 0 0 0 .053.041.3.3 0 0 0 .101.023q.07.006.162.007.144.002.23-.007a.3.3 0 0 0 .125-.038.12.12 0 0 0 .049-.09 1 1 0 0 0-.008-.155zm-1.432-4.6.41 2.794h-1.892zm6.51 4.555a.4.4 0 0 1-.048.147.5.5 0 0 1-.087.098.32.32 0 0 1-.215.072h-.275a.6.6 0 0 1-.189-.027.4.4 0 0 1-.135-.09.7.7 0 0 1-.102-.162 2 2 0 0 1-.094-.253l-1.033-2.99-.212-.64c-.071-.212-.135-.427-.203-.638h-.011q-.055.356-.121.705-.063.351-.132.701l-.637 3.27a.1.1 0 0 1-.03.06.15.15 0 0 1-.068.041 1 1 0 0 1-.113.026 1 1 0 0 1-.17.012c-.068 0-.12 0-.166-.012a.4.4 0 0 1-.102-.026q-.033-.015-.045-.041-.012-.025 0-.06l1.01-5.174q.035-.175.144-.248a.4.4 0 0 1 .222-.076h.336q.103 0 .177.023a.4.4 0 0 1 .132.075.6.6 0 0 1 .098.147q.044.09.094.227l1.044 3.03.197.563q.097.282.188.569h.008c.037-.238.083-.483.128-.735.049-.253.094-.502.14-.736l.603-3.038a.14.14 0 0 1 .03-.057.2.2 0 0 1 .064-.041.6.6 0 0 1 .11-.027q.067-.009.165-.007.096-.002.166.007.068.008.102.027.038.014.049.041a.1.1 0 0 1 .007.057zM39 13.079a.22.22 0 0 1-.045.12q-.044.064-.14.155l-2.288 2.27 1.447 2.612a.6.6 0 0 1 .053.117q.017.045.015.08a.13.13 0 0 1-.018.067.12.12 0 0 1-.057.05.5.5 0 0 1-.117.026 1.3 1.3 0 0 1-.192.011q-.12.002-.189-.007a1 1 0 0 1-.117-.023.2.2 0 0 1-.067-.041.3.3 0 0 1-.038-.068l-1.512-2.802-.543 2.805a.1.1 0 0 1-.026.06c-.015.02-.038.03-.072.042a1 1 0 0 1-.12.027 1 1 0 0 1-.174.01c-.068 0-.128 0-.177-.01-.05-.012-.083-.015-.11-.027-.026-.011-.041-.022-.048-.041a.08.08 0 0 1-.004-.06l1.055-5.388c0-.02.012-.042.03-.057a.2.2 0 0 1 .072-.041 1 1 0 0 1 .12-.027 1 1 0 0 1 .174-.011.8.8 0 0 1 .283.038c.026.011.041.022.049.041q.012.023.008.057l-.49 2.496 2.409-2.489a.4.4 0 0 1 .075-.068.24.24 0 0 1 .094-.041.6.6 0 0 1 .128-.023q.078-.009.178-.007a.8.8 0 0 1 .286.037q.04.018.053.046a.1.1 0 0 1 .015.06zM23.526 21.35q.002.038-.007.105-.007.068-.02.151-.012.084-.037.166a.8.8 0 0 1-.12.271q-.04.046-.08.046a.34.34 0 0 1-.158-.057 3 3 0 0 0-.238-.124 2.3 2.3 0 0 0-.328-.125 1.5 1.5 0 0 0-.426-.056q-.243 0-.418.068a.8.8 0 0 0-.283.18.7.7 0 0 0-.162.253.7.7 0 0 0-.053.283q-.001.165.083.29t.219.234q.136.108.313.211.175.1.358.211.181.11.358.242.176.13.313.301c.09.117.166.245.219.392q.083.222.082.513.001.43-.173.8a1.9 1.9 0 0 1-.494.64 2.4 2.4 0 0 1-.773.426 3 3 0 0 1-1.003.155q-.298.001-.546-.05a3 3 0 0 1-.445-.116 2 2 0 0 1-.324-.147.8.8 0 0 1-.196-.143q-.064-.07-.065-.208-.002-.034.008-.11.01-.072.026-.157.017-.084.038-.174a1 1 0 0 1 .057-.162.5.5 0 0 1 .071-.12q.04-.046.083-.046.078 0 .185.072.108.069.268.154.159.086.38.159c.148.049.32.071.528.071q.272 0 .475-.067.204-.07.343-.185a.8.8 0 0 0 .279-.618.53.53 0 0 0-.083-.298 1 1 0 0 0-.218-.238 2.4 2.4 0 0 0-.306-.204q-.17-.096-.35-.203a5 5 0 0 1-.35-.238 1.5 1.5 0 0 1-.525-.693 1.5 1.5 0 0 1-.083-.52q.001-.414.166-.759.166-.346.456-.595.294-.248.701-.389.408-.137.894-.139a2.7 2.7 0 0 1 .814.12q.172.051.29.117a.7.7 0 0 1 .167.11c.03.026.052.06.067.09a.3.3 0 0 1 .02.121zm5.452 3.284a3.3 3.3 0 0 1-.358.995 2.4 2.4 0 0 1-.604.716 2.5 2.5 0 0 1-.829.434q-.47.142-1.037.143-.605 0-1.037-.147a1.6 1.6 0 0 1-.686-.441 1.46 1.46 0 0 1-.324-.735q-.074-.443.045-1.026l.705-3.517a.16.16 0 0 1 .045-.083.3.3 0 0 1 .11-.06c.049-.016.117-.027.192-.038q.118-.014.298-.016c.113 0 .211.004.283.016a.6.6 0 0 1 .177.037c.041.015.072.038.083.06a.13.13 0 0 1 .011.084l-.705 3.517a1.9 1.9 0 0 0-.041.611.94.94 0 0 0 .154.426q.124.164.328.249.205.08.494.079.289 0 .54-.09a1.3 1.3 0 0 0 .44-.264q.193-.172.328-.423.134-.248.2-.565l.713-3.544a.17.17 0 0 1 .045-.083.25.25 0 0 1 .106-.06q.068-.022.192-.038a3 3 0 0 1 .577 0 .6.6 0 0 1 .173.038q.065.024.083.06a.1.1 0 0 1 .011.083l-.716 3.574zm7.793 2.028a.2.2 0 0 1-.042.083.2.2 0 0 1-.094.06 1 1 0 0 1-.18.034q-.114.011-.284.011c-.113 0-.215 0-.286-.01a.7.7 0 0 1-.17-.035.14.14 0 0 1-.075-.06.15.15 0 0 1-.008-.083l.962-4.822h-.008l-2.688 4.818q-.058.114-.211.155a2 2 0 0 1-.449.037 1.3 1.3 0 0 1-.43-.052c-.086-.034-.132-.08-.135-.129l-.694-4.833h-.008l-.965 4.826a.2.2 0 0 1-.038.083.2.2 0 0 1-.098.06 1 1 0 0 1-.177.034 3 3 0 0 1-.286.011c-.117 0-.211 0-.283-.01a.7.7 0 0 1-.17-.035.15.15 0 0 1-.079-.06.1.1 0 0 1-.004-.083l1.052-5.282a.7.7 0 0 1 .072-.207.5.5 0 0 1 .283-.249.6.6 0 0 1 .196-.034h.75q.203 0 .343.034a.55.55 0 0 1 .234.116c.06.057.11.129.14.215q.046.135.063.32l.574 3.526h.022l2.032-3.525q.09-.18.181-.31a1 1 0 0 1 .204-.214.8.8 0 0 1 .249-.125q.137-.038.324-.037h.852q.114 0 .196.034a.27.27 0 0 1 .128.094q.05.06.06.15a.6.6 0 0 1-.007.204l-1.052 5.286zm5.437-5.312a.4.4 0 0 0-.02-.121.3.3 0 0 0-.067-.09 1 1 0 0 0-.166-.11 1.4 1.4 0 0 0-.29-.117 2.5 2.5 0 0 0-.377-.086 3 3 0 0 0-.438-.034q-.486-.001-.893.14a2.2 2.2 0 0 0-.702.387 1.8 1.8 0 0 0-.456.596q-.165.351-.166.758 0 .3.083.52.084.227.219.396.135.172.305.298.17.13.35.237.182.108.352.204c.113.064.218.132.305.204q.134.106.219.237a.55.55 0 0 1 .083.298.8.8 0 0 1-.28.618 1 1 0 0 1-.343.185 1.5 1.5 0 0 1-.475.068q-.306-.002-.527-.072a2.5 2.5 0 0 1-.381-.158 4 4 0 0 1-.268-.154.34.34 0 0 0-.185-.072q-.044 0-.083.045a.5.5 0 0 0-.071.12 3 3 0 0 0-.057.163q-.022.09-.037.173-.017.085-.027.159t-.007.109c0 .09.022.162.064.207.041.046.11.095.196.144q.131.078.324.147.194.07.445.116.253.05.547.05.548-.001 1.002-.155.452-.154.773-.426.318-.273.494-.641.175-.369.174-.8 0-.287-.083-.512a1.4 1.4 0 0 0-.219-.392 1.7 1.7 0 0 0-.313-.302 5 5 0 0 0-.358-.241q-.181-.108-.358-.211a2.3 2.3 0 0 1-.313-.211.9.9 0 0 1-.219-.234.5.5 0 0 1-.083-.29q.002-.142.053-.283a.7.7 0 0 1 .162-.253.8.8 0 0 1 .283-.18q.17-.069.418-.069c.166 0 .302.02.426.057a2.3 2.3 0 0 1 .328.124c.09.046.174.087.238.125a.34.34 0 0 0 .158.056.1.1 0 0 0 .08-.045.4.4 0 0 0 .067-.117q.03-.075.053-.154.021-.087.038-.166.012-.084.019-.151.006-.07.007-.106zm4.795-.283s0 .049-.007.098a1 1 0 0 1-.023.154 1 1 0 0 1-.038.178 1 1 0 0 1-.056.17.5.5 0 0 1-.083.128q-.051.05-.102.049h-2.115l-.29 1.444h1.794q.063 0 .09.045a.24.24 0 0 1 .027.128q.002.035-.007.098a1 1 0 0 1-.023.15 1 1 0 0 1-.038.17q-.023.085-.056.163a.4.4 0 0 1-.08.117.14.14 0 0 1-.101.045H44.1l-.335 1.67h2.145q.056-.001.083.049a.3.3 0 0 1 .026.14c0 .018 0 .056-.004.101a1 1 0 0 1-.019.155l-.037.173a1 1 0 0 1-.057.166.4.4 0 0 1-.079.12.14.14 0 0 1-.105.046h-2.979a.5.5 0 0 1-.132-.019.23.23 0 0 1-.15-.185.6.6 0 0 1 .003-.173l1.033-5.165a.44.44 0 0 1 .166-.29.47.47 0 0 1 .279-.091h2.944q.118 0 .117.174zm3.356 4.939c0 .022 0 .056-.008.102a2 2 0 0 1-.023.162 1.6 1.6 0 0 1-.102.366.5.5 0 0 1-.078.131.13.13 0 0 1-.106.05h-2.718a.5.5 0 0 1-.136-.02.24.24 0 0 1-.102-.067.26.26 0 0 1-.053-.117.6.6 0 0 1 .004-.174l1.078-5.387c0-.03.02-.057.042-.083a.26.26 0 0 1 .113-.06c.049-.015.117-.027.192-.034q.118-.012.298-.012c.12 0 .211 0 .287.012a.8.8 0 0 1 .177.034c.041.015.072.037.083.06.011.026.019.053.011.083l-.95 4.773h1.874q.061.002.09.049.029.052.027.132m5.417-3.906q0 .27-.075.509-.075.244-.219.441a1.74 1.74 0 0 1-.8.596c.133.022.258.068.367.128q.169.091.286.234a1 1 0 0 1 .185.339q.066.193.064.437 0 .22-.06.456-.058.234-.189.46a2 2 0 0 1-.331.43 2 2 0 0 1-.494.358 2.8 2.8 0 0 1-.668.245q-.378.09-.882.091h-1.644q-.186 0-.271-.09T51 26.448l1.033-5.165q.038-.202.162-.29a.5.5 0 0 1 .29-.091h1.429q.47.002.814.072c.23.049.419.12.577.222a1 1 0 0 1 .35.373c.08.151.118.328.118.54zm-1.236.226a.5.5 0 0 0-.045-.226.44.44 0 0 0-.136-.166.7.7 0 0 0-.234-.105 1.3 1.3 0 0 0-.354-.038h-.656l-.306 1.538h.675q.298.001.494-.094a1 1 0 0 0 .32-.242.9.9 0 0 0 .181-.328q.057-.179.057-.343zm-.207 2.519a.55.55 0 0 0-.22-.464q-.214-.17-.69-.17h-.795l-.339 1.69h.852q.325 0 .547-.091.222-.09.365-.238a.9.9 0 0 0 .212-.339q.068-.191.068-.388m6.688 1.527-.773-5.256a.4.4 0 0 0-.038-.136c-.019-.034-.056-.056-.113-.075a1 1 0 0 0-.241-.034 12 12 0 0 0-.422-.008c-.159 0-.283 0-.381.008a.8.8 0 0 0-.23.034.34.34 0 0 0-.132.071.6.6 0 0 0-.09.125l-2.87 5.26a2 2 0 0 0-.117.256q-.027.096.008.147.04.052.154.064c.08.007.189.015.328.015q.198.002.328-.008t.208-.03a.24.24 0 0 0 .117-.068.3.3 0 0 0 .071-.109l.611-1.161h2.22l.163 1.191q.002.063.026.102c.015.026.046.045.083.056a1 1 0 0 0 .174.027 6 6 0 0 0 .29.007c.162 0 .29 0 .384-.01q.14-.011.2-.061c.042-.034.06-.083.064-.147 0-.064-.003-.151-.018-.26zm-1.802-4.347.339 2.514h-1.663l1.32-2.514zm7.397.075q-.001.27-.076.509-.075.244-.218.441a1.74 1.74 0 0 1-.8.596c.132.022.257.068.366.128q.168.091.287.234a1 1 0 0 1 .184.339c.046.128.065.275.065.437q0 .22-.06.456-.058.234-.19.46-.125.227-.331.43a2 2 0 0 1-.494.358 2.8 2.8 0 0 1-.667.245q-.38.09-.883.091h-1.643q-.187 0-.272-.09t-.045-.287l1.033-5.165q.039-.202.162-.29a.5.5 0 0 1 .294-.091h1.43q.469.002.813.072c.23.049.419.12.577.222a1 1 0 0 1 .35.373c.08.151.118.328.118.54zm-1.237.226a.5.5 0 0 0-.045-.226.44.44 0 0 0-.136-.166.7.7 0 0 0-.234-.105 1.3 1.3 0 0 0-.354-.038h-.656l-.305 1.538h.674c.2 0 .362-.03.494-.094a1 1 0 0 0 .32-.242.9.9 0 0 0 .182-.328q.056-.179.056-.343zm-.207 2.519a.55.55 0 0 0-.219-.464q-.215-.17-.69-.17h-.795l-.34 1.69h.849c.215 0 .4-.03.546-.091.147-.06.272-.14.366-.238a.9.9 0 0 0 .211-.339q.068-.191.068-.388zm6.466-3.778s0 .049-.008.098a1 1 0 0 1-.022.154 1 1 0 0 1-.038.178 1 1 0 0 1-.057.17.5.5 0 0 1-.083.128q-.051.05-.102.049h-2.115l-.29 1.444h1.795q.061 0 .09.045.028.044.027.128.002.035-.008.098a1 1 0 0 1-.022.15 1 1 0 0 1-.038.17q-.022.085-.057.163a.4.4 0 0 1-.079.117.14.14 0 0 1-.102.045h-1.794l-.336 1.67h2.145q.056-.001.083.049c.02.03.027.08.027.14 0 .018 0 .056-.004.101a1 1 0 0 1-.019.155q-.016.084-.038.173a1 1 0 0 1-.056.166.4.4 0 0 1-.08.12.14.14 0 0 1-.105.046h-2.978a.5.5 0 0 1-.132-.019.23.23 0 0 1-.151-.185.6.6 0 0 1 .004-.173l1.033-5.165a.44.44 0 0 1 .165-.29.47.47 0 0 1 .28-.091h2.944q.119 0 .117.174zm3.355 4.939q.002.033-.007.102a2 2 0 0 1-.023.162q-.017.091-.041.188a2 2 0 0 1-.06.178.5.5 0 0 1-.08.131.13.13 0 0 1-.105.05h-2.719a.5.5 0 0 1-.136-.02.24.24 0 0 1-.101-.067.26.26 0 0 1-.053-.117.5.5 0 0 1 .004-.174l1.078-5.387c0-.03.019-.057.041-.083a.26.26 0 0 1 .114-.06 1 1 0 0 1 .192-.034q.118-.012.298-.012c.12 0 .21 0 .286.012a.8.8 0 0 1 .177.034q.065.024.083.06a.13.13 0 0 1 .012.083l-.95 4.773h1.873a.1.1 0 0 1 .09.049q.028.052.027.132" clip-rule="evenodd"/></g><defs><clipPath id="clip0_3802_10870"><path fill="#fff" d="M0 0h80v40.002H0z"/></clipPath></defs></svg>