<svg fill="none" viewBox="0 0 80 59"><g clip-path="url(#clip0_3802_7734)"><path fill="url(#paint0_linear_3802_7734)" d="M24.58 19.336c5.05-.104 21.532-6.022 22.29-9.611l.251-1.222c-5.67 3.947-17.453 8.274-22.016 8.252h-.007l-.518 2.552z"/><path fill="url(#paint1_linear_3802_7734)" d="m49.026.47.091-.47c-7.082 4.768-17.779 7.964-21.962 7.971l-.524 2.581c5.193-.022 21.538-6.027 22.297-9.61 0 0 .045-.236.098-.471"/><path fill="url(#paint2_linear_3802_7734)" d="M48.184 4.16c-7.326 5.071-17.575 8.138-22.016 8.26l-.493 2.376c5.01-.015 21.537-6.028 22.296-9.61z"/><path fill="#2B5E87" fill-rule="evenodd" d="M74.132 38.064c-1.541 0-2.786-1.655-2.786-3.697s1.245-3.705 2.786-3.705 2.786 1.655 2.786 3.705-1.245 3.697-2.786 3.697m4.334-8.055a3.5 3.5 0 0 0-.63-.614c-.79-.646-1.753-1.033-2.786-1.033-1.116 0-2.14.448-2.968 1.192l-.068.046c-.03.015-.069.037-.122.022a.4.4 0 0 1-.28-.387v-4.312a.49.49 0 0 0-.494-.493h-2.103a.49.49 0 0 0-.493.493V39.5c0 .273.227.501.5.501h1.898a.48.48 0 0 0 .32-.121h.007v-.008a.5.5 0 0 0 .099-.122.6.6 0 0 0 .06-.197c.038-.304.243-.478.38-.433a.4.4 0 0 1 .129.069c.045.03.084.06.129.083.13.091.699.486 1.131.676.22.098.926.334 1.746.334s1.397-.182 1.534-.22a2.5 2.5 0 0 0 .402-.145q.957-.411 1.549-1.13c.387-.471.706-1.033.971-1.67a6.8 6.8 0 0 0 .608-2.84c0-1.678-.592-3.196-1.534-4.274zM1.981 35.961c0 .243.046.479.091.699.372 1.328 1.48 2.247 2.878 2.247 2.004 0 3.203-1.632 3.203-4.054 0-2.118-1.093-3.925-3.143-3.925-1.305 0-2.528.896-2.922 2.353-.046.22-.107.479-.107.79v1.898zM.084 24.711H1.98v6.627h.046c.676-1.177 1.898-1.936 3.598-1.936 2.62 0 4.472 2.179 4.449 5.383 0 3.773-2.376 5.648-4.73 5.648-1.525 0-2.748-.592-3.53-1.982h-.068l-.083 1.746H0c.046-.72.084-1.791.084-2.725zm17.711 10.096c-2.096-.045-4.472.327-4.472 2.377 0 1.245.828 1.83 1.807 1.83 1.374 0 2.247-.874 2.55-1.77.07-.197.115-.417.115-.607zm1.852 2.855c0 .918.046 1.807.175 2.528h-1.746l-.152-1.329h-.069c-.592.828-1.723 1.572-3.226 1.572-2.14 0-3.226-1.503-3.226-3.03 0-2.55 2.262-3.947 6.346-3.924v-.22c0-.873-.243-2.445-2.399-2.445-.98 0-2.004.304-2.748.79l-.44-1.268c.873-.57 2.14-.934 3.47-.934 3.226 0 4.007 2.202 4.007 4.32v3.947zm2.946-5.17c0-1.086-.023-1.981-.084-2.854h1.7l.114 1.745h.046c.524-1.001 1.746-1.98 3.492-1.98 1.458 0 3.727.872 3.727 4.486v6.3h-1.92v-6.08c0-1.7-.63-3.12-2.445-3.12-1.267 0-2.247.896-2.573 1.966-.084.235-.13.57-.13.896v6.346H22.6V32.5zM36.28 34.48h.046c.265-.371.63-.827.941-1.199l3.097-3.643h2.308l-4.076 4.342 4.646 6.21H40.91l-3.644-5.056-.98 1.093v3.97H34.39V24.718h1.898v9.763zm18.425 3.584c-1.541 0-2.786-1.655-2.786-3.697s1.245-3.705 2.786-3.705 2.786 1.655 2.786 3.705-1.245 3.697-2.786 3.697m4.335-8.055a3.5 3.5 0 0 0-.63-.614c-.797-.646-1.754-1.033-2.786-1.033-1.117 0-2.141.448-2.969 1.192l-.068.046c-.03.015-.069.037-.122.022a.4.4 0 0 1-.28-.387v-4.312a.49.49 0 0 0-.494-.493h-2.103a.49.49 0 0 0-.493.493V39.5c0 .273.227.501.5.501h1.899a.5.5 0 0 0 .319-.121h.007v-.008c.038-.038.076-.076.099-.122a.6.6 0 0 0 .06-.197c.038-.304.251-.478.38-.433a.4.4 0 0 1 .13.069c.045.03.083.06.128.083.13.091.699.486 1.131.676.22.098.927.334 1.746.334.82 0 1.397-.182 1.534-.22a2.5 2.5 0 0 0 .402-.145q.957-.411 1.549-1.13c.387-.471.706-1.033.972-1.67a6.8 6.8 0 0 0 .607-2.84c0-1.678-.592-3.196-1.533-4.274zm7-.402s0-.053-.009-.083v-.365a.5.5 0 0 0-.5-.5h-2.119a.5.5 0 0 0-.5.5v11.403c-.008.288-.365.69-.775.79q-.285.088-.57.075c-.19 0-.318.069-.394.228-.03.068-.053.167-.068.288-.016.114 0 1.337.015 1.443 0 .098.023.19.053.258.083.129.243.22.455.258.076.03 1.48.03 2.422-.197.372-.091.668-.266.919-.456a3 3 0 0 0 .653-.721c.22-.35.334-.79.356-1.321 0-.16.038-.577.038-.63V30.222c0-.06 0-.114.008-.175v-.44" clip-rule="evenodd"/><path fill="#B53838" fill-rule="evenodd" d="M53.62 54.667h1.427v-4.73c0-.258.015-.47.098-.683.273-.759.987-1.404 1.913-1.404 1.344 0 1.815 1.055 1.815 2.315v4.502H60.3v-4.661c0-2.688-1.685-3.333-2.733-3.333a2.94 2.94 0 0 0-1.458.387 2.67 2.67 0 0 0-1.017 1.017h-.03v-4.904h-1.427v11.494zm-3.675-2.642c0 .13-.015.288-.068.456-.228.66-.889 1.313-1.929 1.313-.713 0-1.328-.418-1.328-1.359 0-1.518 1.769-1.8 3.317-1.761v1.359zm1.374-2.171c0-1.556-.585-3.189-2.976-3.189-.987 0-1.943.274-2.589.684l.327.956c.546-.372 1.313-.584 2.057-.584 1.602-.016 1.784 1.169 1.784 1.799v.16c-3.029-.016-4.714 1.017-4.714 2.914 0 1.132.812 2.248 2.399 2.248 1.116 0 1.958-.547 2.391-1.162h.053l.114.987h1.276c-.084-.532-.114-1.2-.114-1.875v-2.93zm-8.578-6.104a.866.866 0 0 0-.889.888c0 .486.342.874.858.874.57 0 .911-.388.911-.874 0-.485-.357-.888-.873-.888zm.713 10.91v-7.835h-1.427v7.834zm-6.78 0h1.428v-4.176c0-.228.015-.47.046-.66.197-1.07.903-1.815 1.913-1.815.197 0 .341 0 .486.03v-1.343c-.13-.015-.243-.03-.388-.03-.956 0-1.83.66-2.186 1.715h-.045l-.061-1.556h-1.245c.045.729.068 1.526.068 2.444v5.39zm-3.673-2.643c0 .13-.016.289-.061.456-.228.66-.888 1.313-1.928 1.313-.714 0-1.329-.417-1.329-1.359 0-1.518 1.761-1.799 3.318-1.76v1.358zm1.374-2.17c0-1.557-.585-3.19-2.976-3.19-.987 0-1.944.274-2.589.684l.327.957c.554-.372 1.313-.585 2.057-.585 1.602-.015 1.784 1.17 1.784 1.8v.159c-3.03-.015-4.707 1.017-4.707 2.915 0 1.131.812 2.247 2.399 2.247 1.116 0 1.959-.547 2.399-1.162h.045l.114.987h1.276c-.084-.531-.114-1.2-.114-1.875v-2.93zm-14.098-3.03 2.885 7.22c.083.174.114.288.114.372 0 .083-.046.197-.114.341-.342.73-.812 1.276-1.2 1.587a3.7 3.7 0 0 1-1.245.698l.357 1.185c.357-.061 1.033-.312 1.746-.904.972-.858 1.67-2.216 2.688-4.904l2.14-5.587h-1.503l-1.556 4.6c-.197.57-.357 1.17-.5 1.633h-.031a22 22 0 0 0-.517-1.602l-1.7-4.631h-1.556zm-5.906 7.463c.546.326 1.344.546 2.201.546 1.83 0 2.916-.971 2.916-2.36 0-1.17-.714-1.845-2.058-2.346-1.017-.403-1.473-.699-1.473-1.344 0-.585.456-1.07 1.299-1.07a3 3 0 0 1 1.602.47l.341-1.032c-.417-.274-1.116-.486-1.913-.486-1.67 0-2.703 1.032-2.703 2.3 0 .941.668 1.7 2.088 2.217 1.032.387 1.442.744 1.442 1.427s-.485 1.162-1.503 1.162c-.713 0-1.457-.289-1.89-.547l-.342 1.07z" clip-rule="evenodd"/><path fill="#2B5E87" fill-rule="evenodd" d="M64.49 27.444c.858 0 1.557-.699 1.557-1.557s-.699-1.556-1.557-1.556c-.857 0-1.556.698-1.556 1.556s.699 1.556 1.556 1.556" clip-rule="evenodd"/></g><defs><linearGradient id="paint0_linear_3802_7734" x1="26.393" x2="49.114" y1="7.102" y2="6.308" gradientUnits="userSpaceOnUse"><stop stop-color="#3CAAE0"/><stop offset=".12" stop-color="#3780AC"/><stop offset=".42" stop-color="#306086"/><stop offset=".56" stop-color="#898870"/><stop offset="1" stop-color="#ECC931"/></linearGradient><linearGradient id="paint1_linear_3802_7734" x1="26.393" x2="49.114" y1="7.102" y2="6.308" gradientUnits="userSpaceOnUse"><stop stop-color="#3CAAE0"/><stop offset=".12" stop-color="#3780AC"/><stop offset=".42" stop-color="#306086"/><stop offset=".56" stop-color="#898870"/><stop offset="1" stop-color="#ECC931"/></linearGradient><linearGradient id="paint2_linear_3802_7734" x1="26.393" x2="49.114" y1="7.102" y2="6.308" gradientUnits="userSpaceOnUse"><stop stop-color="#3CAAE0"/><stop offset=".12" stop-color="#3780AC"/><stop offset=".42" stop-color="#306086"/><stop offset=".56" stop-color="#898870"/><stop offset="1" stop-color="#ECC931"/></linearGradient><clipPath id="clip0_3802_7734"><path fill="#fff" d="M0 0h79.985v58.22H0z"/></clipPath></defs></svg>