<svg fill="none" viewBox="0 0 80 18"><g clip-path="url(#clip0_3802_7607)"><path fill="#FAA61A" d="M8.205 8.587h3.063s.02 0 .027.008h.578c.099-.008 1-.13 1.149-1.018.05-.35.117-.877-.48-1.585l-.055-.063L6.86 0c.842 2.194 1.35 5.253 1.35 8.568v.016"/><path fill="#2A9C46" d="M13.517 7.274c.027.138-.043.732-.22 1.034-.342.59-1.007.81-1.396.834H.553c-.491 0-.739.625-.389.99l.751.791-.165-.346c.004-.224.165-.44.409-.444h11.045c.51-.036 1.506-.397 1.596-1.518q.001-.048.008-.102a3.1 3.1 0 0 0-.291-1.25z"/><path fill="#B72126" d="M13.812 8.568V8.52q-.001.053-.008.102c-.094 1.117-1.085 1.478-1.6 1.514H1.159c-.232 0-.41.196-.41.46 0 .224.166.33.166.33l4.132 4.34a2.457 2.457 0 0 0 3.594 0l2.812-2.952 1.53-1.553c.235-.24.53-.72.683-1.227.158-.519.142-.967.142-.975"/><path fill="#B52326" d="M19.368 7.404c.476-.81 1.18-1.211 2.103-1.211 1.978.075 2.961 1.431 2.961 4.085s-1.152 3.909-3.452 3.952c-2.316.016-3.48-1.152-3.48-3.496V4.085h.94c.617 0 .928.338.928.987zm0 2.788c-.016 1.576.491 2.375 1.557 2.375s1.6-.795 1.6-2.375c-.043-1.506-.562-2.242-1.573-2.242s-1.53.74-1.584 2.242m5.91-.102c.055-2.52 1.332-3.775 3.817-3.775h.268v2.037h-.633c-1.038 0-1.557.574-1.557 1.71v4.054h-1.895zM32.1 5.045v4.321l2.304-2.772h2.245l-2.568 2.89 2.6 4.632h-2.246l-1.321-2.568c-.24-.44-.476-.664-.716-.664-.196.043-.295.177-.295.385v2.847h-1.867V4.086h.967c.492 0 .896.44.896.959"/><path fill="#2A9C46" d="M40.353 12.7c.786 0 1.18-.236 1.18-.739 0-.397-.646-.723-1.923-.96-1.644-.31-2.486-1.077-2.497-2.3 0-1.678 1.262-2.477 2.96-2.508q1.435-.001 2.273.664.82.686.885 1.903h-1.18q-.656-.021-.83-.487c-.125-.338-.507-.53-1.124-.53-.731 0-1.097.207-1.097.605 0 .397.48.707 1.447.9 1.262.263 2.092.606 2.497 1.003.35.385.519.857.519 1.388 0 1.918-1.431 2.626-3.397 2.626-1.038 0-1.825-.236-2.332-.692-.562-.44-.841-1.12-.841-2.02h1.91c.044.852.634 1.147 1.546 1.147m4.875 2.8c1.027 0 1.388-.531 1.094-1.565L43.789 6.31h2.12l1.474 5.41 1.29-4.718c.114-.456.409-.692.884-.692h1.306l-2.933 9.13c-.449 1.282-.897 1.726-2.442 1.726-.476 0-.731-.016-.786-.059V15.5zm7.68-7.152h-1.868c.224-1.447 1.191-2.155 2.906-2.155 2.048 0 3.086.708 3.13 2.155v2.654c0 2.154-1.235 3.11-3.244 3.26-1.782.145-3.016-.724-3.016-2.45.043-1.872 1.333-2.375 3.212-2.564.802-.102 1.207-.354 1.207-.782-.043-.44-.436-.665-1.207-.665-.66 0-1.026.177-1.12.547m2.359 2.567v-.723c-.437.192-.94.354-1.486.472-.744.149-1.125.515-1.125 1.093.043.62.35.916.94.916 1.038 0 1.67-.649 1.67-1.754m2.706-.829c.055-2.52 1.333-3.775 3.818-3.775h.267v2.037h-.633c-1.038 0-1.557.574-1.557 1.71v4.054h-1.895zm6.205-6.005c.617 0 .912.323.896.96v.574h-1.868V4.085zm0 2.226c.601 0 .896.31.896.944v6.857h-1.868V6.315h.968zm3.877 2.037h-1.868c.224-1.447 1.191-2.155 2.906-2.155 2.048 0 3.086.708 3.13 2.155v2.654c0 2.154-1.235 3.11-3.244 3.26-1.782.145-3.02-.724-3.02-2.45.043-1.872 1.333-2.375 3.212-2.564.802-.102 1.207-.354 1.207-.782-.043-.44-.436-.665-1.207-.665-.66 0-1.022.177-1.12.547m2.359 2.567v-.723a7.7 7.7 0 0 1-1.49.472c-.744.149-1.125.515-1.125 1.093.043.62.35.916.94.916 1.038 0 1.67-.649 1.67-1.754m6.17-2.969c-1.109 0-1.584.972-1.584 2.167v3.995h-1.868V4.085h.94c.617 0 .927.338.927.987v2.332c.956-1.152 2.12-1.475 3.512-.96q1.558.596 1.474 3.142v4.526H78.12v-3.995c0-1.313-.475-2.167-1.545-2.167"/><path fill="#231F20" d="M51.107 17.32c.008-.102.011-.27.011-.44v-1.844h.39v.96h.008c.094-.158.279-.268.526-.268.394 0 .689.315.685.794 0 .559-.378.838-.74.838-.208 0-.405-.079-.523-.287h-.007l-.016.247zm.405-.672q-.002.049.008.09c.039.158.184.3.38.3.26 0 .43-.19.43-.504 0-.267-.146-.495-.421-.495a.4.4 0 0 0-.386.314.4.4 0 0 0-.011.102zm1.82.012c.012.26.236.393.5.393.192 0 .326-.027.456-.079l.059.28a1.4 1.4 0 0 1-.567.106c-.51 0-.817-.319-.817-.795 0-.4.251-.837.778-.837s.692.456.692.77c0 .067-.008.13-.016.158h-1.085zm.731-.283c0-.11-.05-.374-.346-.374-.259 0-.365.22-.385.374h.735zm.7-.091c0-.228 0-.377-.011-.519h.338l.011.315h.012c.079-.24.268-.354.44-.354.04 0 .06 0 .095.008v.381a.5.5 0 0 0-.122-.015c-.2 0-.326.125-.362.306q-.009.051-.007.11v.802h-.39v-1.034zm1.569.158h.008a3 3 0 0 1 .13-.177l.4-.5h.485l-.606.63.7.923h-.492l-.48-.688-.14.165v.527h-.39V15.04h.39v1.408zm2.186.876-.027-.177h-.012a.6.6 0 0 1-.476.217c-.33 0-.495-.236-.495-.464 0-.39.334-.598.951-.594v-.02c0-.082-.031-.271-.326-.267a.85.85 0 0 0-.436.126l-.079-.264a1.1 1.1 0 0 1 .578-.145c.503 0 .653.326.653.672v.539c0 .15.008.287.023.381h-.354zm-.05-.755c-.311-.004-.57.06-.57.284 0 .145.097.22.231.22a.34.34 0 0 0 .327-.228.3.3 0 0 0 .011-.087zm.817-1.529h.39v.96h.007a.6.6 0 0 1 .205-.193.54.54 0 0 1 .275-.075c.256 0 .566.165.566.7v.892h-.39v-.837c0-.244-.09-.42-.322-.42a.35.35 0 0 0-.322.227c-.016.036-.016.075-.016.118v.912h-.389v-2.284zm4.003 1.817q0 .282.012.471h-.342l-.02-.26h-.008a.58.58 0 0 1-.523.3c-.267 0-.558-.154-.558-.696v-.893h.39v.822c0 .271.09.44.31.44a.36.36 0 0 0 .326-.228.4.4 0 0 0 .02-.118v-.912h.389v1.081zm.444-.613q0-.273-.012-.473h.343l.02.252h.007a.58.58 0 0 1 .511-.287c.26 0 .574.165.574.7v.892h-.389v-.841c0-.244-.094-.42-.319-.42-.169 0-.283.125-.326.243a.4.4 0 0 0-.016.118v.896h-.389v-1.08zm2.328-.925v.456h.377v.307h-.377v.645c0 .188.04.303.204.303q.107-.001.162-.02l.007.31a.9.9 0 0 1-.29.044.45.45 0 0 1-.343-.138c-.082-.094-.121-.248-.121-.44v-.704h-.225v-.307h.225v-.358l.381-.094zm2.131 1.538q0 .282.012.471h-.342l-.016-.26h-.008a.58.58 0 0 1-.523.3c-.267 0-.558-.154-.558-.696v-.893h.39v.822c0 .271.09.44.31.44a.36.36 0 0 0 .326-.228.4.4 0 0 0 .02-.118v-.912h.39v1.081zm.838-.409h.008c.039-.055.086-.122.13-.177l.4-.5h.484l-.606.63.7.923h-.491l-.48-.688-.142.165v.527h-.389V15.04h.39v1.408zm1.958.503a.9.9 0 0 0 .416.126c.181 0 .256-.075.256-.173 0-.106-.067-.158-.263-.217-.311-.094-.449-.263-.445-.456 0-.275.228-.495.598-.495a.9.9 0 0 1 .429.098l-.075.283a.76.76 0 0 0-.35-.098c-.142 0-.22.067-.22.165s.082.15.283.212c.295.095.424.232.424.476 0 .272-.208.492-.637.492-.2 0-.373-.047-.495-.114zm1.667-.287c.012.26.236.393.5.393.192 0 .326-.027.455-.079l.06.28a1.4 1.4 0 0 1-.567.106c-.511 0-.818-.319-.818-.795 0-.4.252-.837.783-.837.53 0 .692.456.692.77 0 .067-.008.13-.016.158h-1.09zm.731-.283c0-.11-.05-.374-.346-.374-.26 0-.365.22-.385.374h.735zm.705-.137q0-.273-.013-.473h.33l.016.244h.012a.54.54 0 0 1 .492-.28c.208 0 .373.127.44.307h.008a.65.65 0 0 1 .192-.204.53.53 0 0 1 .33-.102c.248 0 .535.169.535.708v.884h-.377v-.83c0-.282-.106-.428-.295-.428-.141 0-.244.106-.287.216a.4.4 0 0 0-.02.134v.912h-.377v-.865c0-.244-.106-.393-.283-.393-.161 0-.26.134-.299.232a.4.4 0 0 0-.02.134v.896h-.377v-1.081zm4.214.613q0 .282.012.471h-.342l-.02-.26h-.008a.58.58 0 0 1-.523.3c-.267 0-.558-.154-.558-.696v-.893h.39v.822c0 .271.09.44.31.44.165 0 .28-.114.326-.228a.4.4 0 0 0 .02-.118v-.912h.39v1.081zm1.345.467-.028-.177h-.011a.6.6 0 0 1-.476.217c-.33 0-.496-.236-.496-.464 0-.39.335-.598.952-.594v-.02c0-.082-.032-.271-.327-.267a.9.9 0 0 0-.44.126l-.078-.264a1.1 1.1 0 0 1 .578-.145c.503 0 .652.326.652.672v.539c0 .15.008.287.024.381h-.354zm-.051-.755c-.31-.004-.57.06-.57.284 0 .145.098.22.232.22a.34.34 0 0 0 .326-.228.3.3 0 0 0 .012-.087z"/></g><defs><clipPath id="clip0_3802_7607"><path fill="#fff" d="M0 0h79.999v17.364H0z"/></clipPath></defs></svg>