<svg fill="none" viewBox="0 0 80 65"><g clip-path="url(#clip0_3802_10830)"><mask id="mask0_3802_10830" width="66" height="65" x="14" y="0" maskUnits="userSpaceOnUse" style="mask-type:luminance"><path fill="#fff" d="M37.359 16.346c4.71 4.302 13.04 13.81 9.735 20.784-1.81 3.803-8.24-1.857-11.999-2.672 2.49 3.759 7.743 10.505 14.445 16.256 6.656 5.75 22.232 18.293 28.798 11.501 7.472-7.743-11.954-34.005-24.451-43.922C41.932 8.784 23.367.543 14.31 0c10.28 4.98 19.427 12.995 23.14 16.392"/></mask><g mask="url(#mask0_3802_10830)"><path fill="url(#paint0_linear_3802_10830)" d="m48.994-35.774-69.26 71.222 71.254 69.291 69.261-71.221z"/></g><mask id="mask1_3802_10830" width="66" height="64" x="0" y="0" maskUnits="userSpaceOnUse" style="mask-type:luminance"><path fill="#fff" d="M1.814 2.354c-8.15 7.336 13.131 33.689 24.814 43.56C38.31 55.74 56.513 63.483 65.57 63.98c-9.962-4.076-19.335-12.815-22.822-16.437S27.262 31.469 32.016 26.08c2.763-3.124 8.377 2.174 12.136 2.989-2.536-5.842-6.792-9.6-13.494-15.35C25.36 9.146 15.081.361 7.248.361c-2.038 0-3.894.588-5.48 1.992"/></mask><g mask="url(#mask1_3802_10830)"><path fill="url(#paint1_linear_3802_10830)" d="m28.653-35.615-66.767 68.657 68.755 66.86 66.767-68.657z"/></g><path fill="#19335D" d="M32.061 26.035c2.446-3.079 8.377-.452 11.14 2.038 2.807 2.49 5.84 7.154 4.437 9.509-1.358 2.354-7.064 1.268-10.55-1.404-3.397-2.671-7.064-7.562-5.027-10.143"/><mask id="mask2_3802_10830" width="66" height="65" x="14" y="0" maskUnits="userSpaceOnUse" style="mask-type:luminance"><path fill="#fff" d="M37.359 16.346c4.71 4.302 13.04 13.81 9.735 20.784-1.81 3.803-8.24-1.857-11.999-2.672 2.49 3.759 7.743 10.505 14.445 16.256 6.656 5.75 22.232 18.293 28.798 11.501 7.472-7.743-11.954-34.005-24.451-43.922C41.932 8.784 23.367.543 14.31 0c10.28 4.98 19.427 12.995 23.14 16.392"/></mask><g mask="url(#mask2_3802_10830)"><path fill="url(#paint2_linear_3802_10830)" d="m48.994-35.774-69.26 71.222 71.254 69.291 69.261-71.221z"/></g><mask id="mask3_3802_10830" width="66" height="64" x="0" y="0" maskUnits="userSpaceOnUse" style="mask-type:luminance"><path fill="#fff" d="M1.814 2.354c-8.15 7.336 13.131 33.689 24.814 43.56C38.31 55.74 56.513 63.483 65.57 63.98c-9.962-4.076-19.335-12.815-22.822-16.437S27.262 31.469 32.016 26.08c2.763-3.124 8.377 2.174 12.136 2.989-2.536-5.842-6.792-9.6-13.494-15.35C25.36 9.146 15.081.361 7.248.361c-2.038 0-3.894.588-5.48 1.992"/></mask><g mask="url(#mask3_3802_10830)"><path fill="url(#paint3_linear_3802_10830)" d="m28.653-35.615-66.767 68.657 68.755 66.86 66.767-68.657z"/></g><path fill="#19335D" d="M32.061 26.035c2.446-3.079 8.377-.452 11.14 2.038 2.807 2.49 5.84 7.154 4.437 9.509-1.358 2.354-7.064 1.268-10.55-1.404-3.397-2.671-7.064-7.562-5.027-10.143"/></g><defs><linearGradient id="paint0_linear_3802_10830" x1="24.274" x2="88.325" y1="70.198" y2="4.332" gradientUnits="userSpaceOnUse"><stop stop-color="#EA292C"/><stop offset=".27" stop-color="#EA292C"/><stop offset=".38" stop-color="#EA292C"/><stop offset=".41" stop-color="#EB3E2B"/><stop offset=".46" stop-color="#EF7529"/><stop offset=".54" stop-color="#F5CC26"/><stop offset=".57" stop-color="#F8EC26"/><stop offset="1" stop-color="#F8EC26"/></linearGradient><linearGradient id="paint1_linear_3802_10830" x1="-12.334" x2="51.402" y1="58.719" y2="-6.822" gradientUnits="userSpaceOnUse"><stop stop-color="#F8EC26"/><stop offset=".45" stop-color="#F8EC26"/><stop offset=".47" stop-color="#F5CC26"/><stop offset=".54" stop-color="#EF7529"/><stop offset=".58" stop-color="#EB3E2B"/><stop offset=".61" stop-color="#EA292C"/><stop offset=".74" stop-color="#EA292C"/><stop offset="1" stop-color="#EA292C"/></linearGradient><linearGradient id="paint2_linear_3802_10830" x1="24.274" x2="88.325" y1="70.198" y2="4.332" gradientUnits="userSpaceOnUse"><stop stop-color="#EA292C"/><stop offset=".27" stop-color="#EA292C"/><stop offset=".38" stop-color="#EA292C"/><stop offset=".41" stop-color="#EB3E2B"/><stop offset=".46" stop-color="#EF7529"/><stop offset=".54" stop-color="#F5CC26"/><stop offset=".57" stop-color="#F8EC26"/><stop offset="1" stop-color="#F8EC26"/></linearGradient><linearGradient id="paint3_linear_3802_10830" x1="-12.334" x2="51.402" y1="58.719" y2="-6.822" gradientUnits="userSpaceOnUse"><stop stop-color="#F8EC26"/><stop offset=".45" stop-color="#F8EC26"/><stop offset=".47" stop-color="#F5CC26"/><stop offset=".54" stop-color="#EF7529"/><stop offset=".58" stop-color="#EB3E2B"/><stop offset=".61" stop-color="#EA292C"/><stop offset=".74" stop-color="#EA292C"/><stop offset="1" stop-color="#EA292C"/></linearGradient><clipPath id="clip0_3802_10830"><path fill="#fff" d="M0 0h80v64.18H0z"/></clipPath></defs></svg>