<svg fill="none" viewBox="0 0 80 40"><g fill-rule="evenodd" clip-path="url(#clip0_3802_10867)" clip-rule="evenodd"><path fill="red" d="M40.674 10.413c-.28-2.93-1.815-5.24-4.526-6.36-2.674-1.103-5.516-.78-8.286-.24-6.224 1.204-14.846 7.116-17.205 12.988-1.367 3.402-.452 7.14 2.307 9.302 2.95 2.31 7.123 1.907 10.433.911 1.799-.543 2.986-1.01 4.66-1.782.349-.16 1.228-.66 1.492-.708l.404 5.828 3.877-2.026c1.275-.7 2.59-1.343 3.882-2.055-.152-.22-1.32-.892-1.604-1.187l1.268-2.187c.831-1.619 1.555-3.054 2.166-4.829l.612-2.018c.472-1.771.7-3.834.528-5.637zm-10.198-1.37c1.267-.109 2.627.031 3.526.57.591.357 1.267 1.124 1.283 1.836.016.711-.084 2.174-.396 2.722-.415.731-1.303 1.695-1.938 2.222-1.28 1.068-2.143 1.66-3.758 2.495-1.183.615-4.473 2.114-5.716 2.61-2.115.843-4.645 1.655-6.604.388-.803-.52-1.415-1.671-1.34-2.794.06-.916.64-1.795 1.216-2.443.108-.12.104-.152.228-.272.184-.171.34-.32.52-.52.523-.575 2.278-1.874 2.91-2.294 3.138-2.09 6.036-4.181 10.07-4.525z"/><path fill="#fff" d="M31.24 23.4c.144-.359.415-.787.615-1.17.628-1.216 1.136-2.103 1.783-3.426 1.767-3.59 2.89-7.231 1.247-11.109-.711-1.683-2.57-3.414-2.842-4.065 2.003-.012 4.182.615 5.752 1.842 2.043 1.595 2.727 4.574 2.515 7.188-.264 3.294-1.62 7.063-3.186 9.833l-1.567 2.715c.276.244 1.251.78 1.391 1.027-.608.2-6.304 3.394-6.64 3.446l-.475-6.888 1.403.6z"/><path fill="red" d="M39.626 19.939c.28 2.93 1.815 5.24 4.525 6.36 2.675 1.103 5.517.78 8.287.24 6.224-1.204 14.846-7.116 17.205-12.988 1.367-3.402.451-7.14-2.307-9.302-2.95-2.31-7.123-1.907-10.433-.911-1.799.543-2.986 1.011-4.661 1.783-.348.16-1.227.66-1.491.707L50.347 0 46.47 2.027c-1.275.7-2.59 1.343-3.882 2.054.152.22 1.32.892 1.603 1.184L42.924 7.45c-.831 1.62-1.555 3.054-2.166 4.829l-.612 2.019c-.472 1.77-.7 3.833-.528 5.636zm10.198 1.371c-1.268.108-2.627-.032-3.526-.572-.592-.355-1.267-1.123-1.283-1.834s.084-2.175.395-2.722c.416-.732 1.304-1.695 1.94-2.223 1.278-1.067 2.142-1.659 3.757-2.495 1.183-.615 4.473-2.114 5.716-2.61 2.115-.843 4.645-1.655 6.604-.387.803.52 1.415 1.67 1.339 2.794-.06.915-.64 1.795-1.215 2.442-.108.12-.104.152-.228.272-.184.172-.34.32-.52.52-.523.575-2.278 1.874-2.91 2.294-3.138 2.09-6.036 4.181-10.07 4.525z"/><path fill="#fff" d="M49.06 6.951c-.144.36-.416.788-.616 1.172-.627 1.215-1.135 2.102-1.782 3.426-1.767 3.59-2.89 7.23-1.248 11.108.712 1.683 2.57 3.414 2.843 4.066-2.003.012-4.182-.616-5.753-1.843-2.042-1.595-2.722-4.573-2.514-7.187.264-3.294 1.619-7.064 3.186-9.834l1.567-2.714c-.276-.244-1.251-.78-1.391-1.028.607-.2 6.304-3.393 6.64-3.445l.475 6.887-1.403-.6z"/><path fill="#000" d="M1.79 38.61h.293q.924 0 1.315-.235.39-.24.471-.807.073-.488-.195-.688-.266-.204-1.084-.204h-.264l-.531 1.939zm1.336-4.924-.484 1.775h.16q.828.001 1.175-.22c.232-.144.372-.396.42-.743q.065-.451-.164-.632-.229-.18-.98-.18h-.131zM.004 39.822l1.99-7.34h1.464c.62 0 1.06.037 1.33.1q.41.102.668.34.264.247.372.576.102.329.048.736-.103.71-.571 1.183a2.02 2.02 0 0 1-1.18.572c.44.072.772.247.988.535q.323.432.228 1.08-.085.57-.38 1.03-.299.464-.784.764c-.244.156-.535.26-.871.324-.34.064-.892.096-1.667.096H0zm6.38 0 .603-1.243H9.11l.236 1.243h1.24l-1.344-5.776H7.967l-2.89 5.776zm1.055-2.19.68-1.495q.108-.234.204-.504t.18-.588c.02.276.035.516.055.712q.031.299.068.507l.268 1.367zm3.758 2.19.735-5.776h1.216l1.726 2.978c.184.328.316.572.396.74.08.163.144.323.192.471.012-.272.024-.516.036-.723.016-.208.032-.376.044-.496l.384-2.966h1.099l-.74 5.776h-1.13l-1.924-3.362a6.3 6.3 0 0 1-.475-.987v.184q.001.298-.016.571a7 7 0 0 1-.044.52l-.416 3.07h-1.087zm6.324 0 .735-5.776h1.171l-.335 2.598 2.178-2.598h1.38l-2.383 2.77 1.679 3.006h-1.311l-1.58-2.918-.363 2.918h-1.175zm6.84-1.411 1.366-.264c-.024.204-.008.356.04.456q.079.151.272.152.396-.001.792-1.507l.123-.468 1.104-4.065h1.435l-1.143 4.213q-.042.15-.12.456-.408 1.533-.804 1.998a1.6 1.6 0 0 1-.64.456q-.377.151-.887.152-.839.001-1.239-.4-.395-.4-.304-1.167zm5.308 1.411.603-1.243h2.123l.236 1.243h1.239l-1.343-5.776h-1.275l-2.89 5.776zm1.055-2.19.68-1.495q.108-.234.204-.504a7 7 0 0 0 .18-.588c.02.276.035.516.055.712q.031.299.068.507l.268 1.367zm4.105.64q.197.353.46.523.258.168.612.168c.247 0 .443-.072.583-.208q.211-.21.212-.576.001-.236-.124-.424a1.06 1.06 0 0 0-.367-.327c-.04-.024-.1-.056-.18-.104q-.684-.384-.924-.66a1.5 1.5 0 0 1-.26-.46 1.7 1.7 0 0 1-.088-.555q-.001-.745.52-1.243.516-.499 1.307-.5.475-.001.848.184c.248.124.455.304.631.547l-.6.804q-.148-.288-.367-.432a.9.9 0 0 0-.504-.144.77.77 0 0 0-.535.192.64.64 0 0 0-.212.492c0 .26.232.528.695.795q.133.08.2.124.629.382.856.752.223.366.223.947 0 .81-.527 1.307-.528.497-1.403.496-.529 0-.944-.216a2.2 2.2 0 0 1-.74-.663l.636-.824zm4.441 1.55.604-1.243h2.123l.236 1.243h1.239l-1.343-5.776h-1.276l-2.89 5.776zm1.056-2.19.68-1.495a6 6 0 0 0 .203-.504q.096-.27.18-.588c.02.276.036.516.056.712q.031.299.068.507l.268 1.367zm5.904.759 1.383-.268q-.035.308.044.46.078.151.276.152.402 0 .8-1.523l.123-.472 1.115-4.105h1.452l-1.156 4.257-.124.46q-.41 1.546-.811 2.018-.264.308-.648.46-.38.151-.895.152-.85-.001-1.251-.404-.397-.407-.308-1.175zm5.349 1.427.603-1.243h2.123l.236 1.243h1.239l-1.343-5.776H53.16l-2.89 5.776zm1.055-2.19.68-1.495a6 6 0 0 0 .203-.504q.096-.27.18-.588.028.416.056.712.031.298.068.507l.268 1.367zm3.757 2.19.736-5.776h1.171l-.336 2.598 2.179-2.598h1.379l-2.382 2.77 1.678 3.006h-1.31l-1.58-2.918-.363 2.918h-1.176zm5.56 0 .604-1.243h2.123l.236 1.243h1.239l-1.343-5.776h-1.275l-2.89 5.776zm1.056-2.19.68-1.495q.108-.234.204-.504a7 7 0 0 0 .18-.588c.02.276.035.516.055.712q.031.298.068.507l.268 1.367zm5.345-1.092h.171q.665.002.904-.188c.16-.123.24-.34.24-.643q-.001-.388-.2-.548-.2-.156-.784-.156h-.132l-.195 1.535zm-1.587 3.282.735-5.776h1.163q.727.001 1.052.08.322.077.567.268.269.204.412.503.139.3.14.66 0 .662-.36 1.095-.358.432-1.035.588l1.267 2.582h-1.28l-1.146-2.65-.336 2.65zm5.404 0 .604-4.765h-1.447l.132-1.011h3.961l-.128 1.011H73.94l-.604 4.765h-1.17zm3.63 0 .603-1.243h2.123l.236 1.243H80l-1.343-5.776h-1.275l-2.89 5.776zm1.055-2.19.68-1.495q.108-.234.203-.504a7 7 0 0 0 .18-.588q.028.416.056.712.031.298.068.507l.268 1.367z"/></g><defs><clipPath id="clip0_3802_10867"><path fill="#fff" d="M0 0h80v39.99H0z"/></clipPath></defs></svg>