<svg fill="none" viewBox="0 0 80 34"><g clip-path="url(#clip0_3802_8550)"><path fill="#1751EC" d="M41.947 10.575q-.325.735-.9 1.17-.576.435-1.336.434a2.17 2.17 0 0 1-1.438-.521q-.623-.522-.9-1.393V7.56q.278-.888.9-1.392a2.22 2.22 0 0 1 1.438-.502q.76 0 1.336.425.575.426.9 1.16.325.735.325 1.662 0 .929-.325 1.663m.835-6.515q-1.03-.735-2.384-.735a4.04 4.04 0 0 0-3.026 1.315V0h-2.71v14.287h2.617l.056-1.141a4.03 4.03 0 0 0 3.063 1.373q1.354 0 2.384-.745t1.624-2.02T45 8.912q0-1.565-.594-2.841t-1.623-2.01m9.657 7.693a2.16 2.16 0 0 1-1.317.426q-.744 0-1.327-.435-.586-.435-.91-1.17t-.325-1.662.325-1.663.91-1.17 1.327-.434q.742 0 1.317.425t.9 1.16q.055.127.102.26v2.843q-.046.135-.102.26-.325.735-.9 1.16m1.043-7.097a4.1 4.1 0 0 0-1.21-.935q-.817-.416-1.838-.416-1.335 0-2.375.745t-1.633 2.02-.594 2.842q0 1.565.594 2.841t1.633 2.02q1.04.745 2.375.745 1.021 0 1.838-.415.7-.357 1.21-.943l.052 1.126h2.635V3.538h-2.635zm12.677-.809q-.88-.522-2.117-.523-1.12 0-2.174.571a4 4 0 0 0-1.146.95l-.062-1.289h-2.746v10.73h2.842V7.78q.575-1.02 1.16-1.497.715-.58 1.566-.58.754 0 1.208.532.455.532.455 1.401v6.65h2.841V7.463q0-1.236-.474-2.165a3.5 3.5 0 0 0-1.352-1.45m6.261 6.959 1.518-1.49 2.754 4.97H80l-4.004-6.989 3.81-3.74h-3.614L74.297 5.47l-2.049 2.417.174-3.17V0H69.58v14.286h2.842zm-29.036 13.23a6 6 0 0 0-1.36-.551 14 14 0 0 0-1.482-.32 18 18 0 0 1-1.36-.26q-.618-.145-.995-.377a.73.73 0 0 1-.375-.657q0-.54.467-.822.466-.28 1.3-.28.952 0 1.552.396.598.396.639 1.13h2.76q-.142-1.7-1.48-2.648-1.342-.946-3.493-.947-1.42 0-2.486.416-1.065.416-1.665 1.16-.598.744-.598 1.75 0 .888.375 1.469.375.579.995.927.618.349 1.36.56.74.214 1.482.359.74.144 1.36.3.619.154.994.415.376.261.376.686 0 .503-.528.793t-1.4.29q-1.157 0-1.827-.532-.67-.531-.63-1.48h-2.78q.02 1.258.67 2.176t1.837 1.411q1.186.493 2.75.493 2.253 0 3.582-.918 1.33-.918 1.33-2.523 0-.928-.375-1.498a2.84 2.84 0 0 0-.995-.918m8.979 3.093a2.16 2.16 0 0 1-1.317.425q-.743 0-1.328-.435a2.87 2.87 0 0 1-.91-1.17q-.324-.734-.324-1.662t.325-1.663.91-1.169 1.327-.435 1.317.425q.574.425.9 1.16.056.127.102.26v2.844q-.046.133-.102.26-.326.735-.9 1.16m1.043-7.098a4.1 4.1 0 0 0-1.21-.935q-.817-.414-1.837-.415-1.336 0-2.376.744-1.04.745-1.633 2.02-.594 1.276-.594 2.842t.594 2.842 1.633 2.02 2.376.745q1.02-.001 1.837-.416.7-.357 1.21-.942l.052 1.126h2.635v-10.75H53.46zM65.161 25.7q-.28.85-.91 1.352a2.23 2.23 0 0 1-1.429.503q-.742 0-1.317-.435a3 3 0 0 1-.91-1.17q-.334-.734-.334-1.662t.334-1.663.91-1.16a2.15 2.15 0 0 1 1.317-.424 2.26 2.26 0 0 1 1.43.492q.63.494.91 1.344zm.037-5.665a3.9 3.9 0 0 0-1.317-.977 4.15 4.15 0 0 0-1.745-.357q-1.336 0-2.375.734-1.04.735-1.634 2.011t-.593 2.842.593 2.842 1.634 2.02q1.038.744 2.375.744a4.04 4.04 0 0 0 3.025-1.314v4.523h2.728v-14.17h-2.635zM76.75 25.44q-.573 1.021-1.16 1.496-.714.58-1.566.58-.753 0-1.208-.531-.454-.532-.454-1.402v-6.65H69.52v6.824q0 1.238.474 2.165a3.5 3.5 0 0 0 1.353 1.45q.88.522 2.117.522 1.12 0 2.174-.57a4 4 0 0 0 1.146-.95l.063 1.288h2.745v-10.73H76.75z"/><path fill="url(#paint0_linear_3802_8550)" d="M15.59.001a5.043 5.043 0 0 0-5.043 5.043 5.23 5.23 0 0 0 5.228 5.229h8.516a.7.7 0 0 0 .702-.702V.703a.7.7 0 0 0-.702-.702zM0 8.605c0 4.733 3.873 8.607 8.605 8.607.2 0 .362-.163.362-.362V.363c0-.2-.161-.362-.362-.362C3.873.001 0 3.873 0 8.605m17.975 4.21v16.487c0 .2.163.362.362.362 4.734 0 8.606-3.873 8.606-8.606s-3.872-8.605-8.606-8.605c-.2 0-.362.163-.362.362M2.652 19.391a.703.703 0 0 0-.702.703v8.868c0 .387.314.702.702.702h8.702a5.044 5.044 0 0 0 5.043-5.043 5.23 5.23 0 0 0-5.23-5.23z"/></g><defs><linearGradient id="paint0_linear_3802_8550" x1="1.592" x2="25.351" y1="28.989" y2=".676" gradientUnits="userSpaceOnUse"><stop stop-color="#FF5564"/><stop offset=".129" stop-color="#FF5564"/><stop offset=".383" stop-color="#FF5564"/><stop offset="1" stop-color="#FFC700"/></linearGradient><clipPath id="clip0_3802_8550"><path fill="#fff" d="M0 0h80v33.103H0z"/></clipPath></defs></svg>