<svg fill="none" viewBox="0 0 80 41"><g clip-path="url(#clip0_3802_8468)"><path fill="#0075BF" d="M80 32.027H0V16.32l53.413-.013L66.72 20.6 80 16.307z"/><path fill="#000" d="m6.4 36.733-.427 1.694c.107.013.187.026.24.026.094 0 .214-.013.347-.053l-.027.16c-.146.027-.253.04-.333.04s-.2-.013-.373-.027c-.147-.013-.254-.026-.347-.026-.173 0-.36.026-.587.066l.054-.173c.226-.053.386-.12.453-.173q.16-.141.24-.48L6.08 36q.08-.34.08-.4a.12.12 0 0 0-.04-.093.4.4 0 0 0-.16-.027l.04-.147c.213 0 .467-.04.773-.12-.026.08-.053.2-.093.36l-.24.934a1 1 0 0 0 .253.026.93.93 0 0 0 .68-.28c.187-.186.28-.4.28-.653 0-.2-.08-.36-.226-.493-.147-.134-.36-.187-.614-.187-.333 0-.653.08-.973.24q-.48.24-.72.6c-.16.24-.24.493-.24.747 0 .2.08.373.24.506a.7.7 0 0 1 .147.147.3.3 0 0 1 .026.107c0 .04-.013.08-.053.12-.04.026-.08.053-.12.053-.12 0-.213-.067-.307-.2-.12-.173-.173-.387-.173-.64 0-.333.093-.627.267-.92.173-.28.453-.52.813-.707q.54-.28 1.16-.28c.373 0 .693.067.933.214.24.146.374.346.374.626 0 .267-.107.507-.334.734-.226.226-.533.373-.92.426.094.2.16.334.187.4.04.12.107.307.2.587.213.64.44 1.08.667 1.347.173.186.346.28.546.28s.334-.094.387-.28a.46.46 0 0 1 .093-.214.2.2 0 0 1 .134-.053c.053 0 .093.013.133.053s.053.08.053.134c0 .133-.066.253-.213.373s-.333.173-.56.173c-.2 0-.4-.053-.587-.146-.186-.094-.373-.267-.546-.494a3.6 3.6 0 0 1-.467-.813c-.067-.16-.16-.453-.293-.88-.08-.253-.12-.413-.147-.467h-.08c.027.04 0 .04-.04.04"/><path fill="#000" d="m10.347 37.76.106.147c-.52.493-.96.746-1.333.746a.44.44 0 0 1-.347-.146c-.08-.107-.12-.267-.12-.494 0-.453.134-.906.414-1.36.306-.506.68-.773 1.106-.773.147 0 .267.04.347.107a.4.4 0 0 1 .12.306.74.74 0 0 1-.147.414c-.093.133-.266.28-.506.413-.12.067-.387.2-.787.373-.013.12-.027.227-.027.334 0 .146.027.253.067.32a.3.3 0 0 0 .213.093.7.7 0 0 0 .28-.067c.134-.08.347-.213.614-.413m-1.12-.453c.346-.147.6-.32.773-.494.12-.12.173-.24.173-.36a.34.34 0 0 0-.066-.213.24.24 0 0 0-.187-.08c-.08 0-.16.027-.227.093a.83.83 0 0 0-.253.36c-.093.214-.173.44-.213.694m3.146.493.107.12c-.16.187-.36.36-.587.507-.226.16-.413.226-.56.226a.19.19 0 0 1-.16-.08.33.33 0 0 1-.066-.2c0-.173.066-.52.2-1.053l.346-1.4c.12-.507.227-.84.32-1.013a1.36 1.36 0 0 1 .56-.6c.24-.147.494-.214.76-.214a.34.34 0 0 1 .214.067.19.19 0 0 1 .08.16c0 .067-.027.12-.08.173a.35.35 0 0 1-.227.067c-.067 0-.147-.013-.267-.027-.106-.013-.2-.026-.28-.026-.093 0-.16.013-.2.053q-.1.08-.16.32-.08.24-.24.96l-.32 1.333c-.16.667-.24 1.014-.24 1.054 0 .066.027.106.067.106q.08 0 .2-.08c.187-.146.36-.293.533-.453m2.574-1.973.213-.04-.24.813c-.093.32-.187.693-.267 1.107a2 2 0 0 0-.066.44c0 .066.026.093.08.093.04 0 .093-.027.16-.067a2 2 0 0 0 .373-.293l.107.12c-.24.227-.4.347-.467.4a2.3 2.3 0 0 1-.387.213.8.8 0 0 1-.24.04q-.08 0-.12-.04a.15.15 0 0 1-.04-.106c0-.027.014-.08.027-.134l.133-.44a2.6 2.6 0 0 1-.653.56c-.16.094-.293.147-.427.147-.12 0-.213-.04-.28-.133-.093-.12-.133-.267-.133-.454 0-.226.053-.48.173-.746.12-.28.28-.534.48-.747s.414-.387.64-.493c.174-.08.387-.12.667-.12.067 0 .133 0 .2.013zm-.4.493a1.4 1.4 0 0 0-.294-.04.85.85 0 0 0-.506.16q-.22.16-.4.56c-.12.267-.187.547-.187.813 0 .147.027.254.067.307a.22.22 0 0 0 .186.093c.147 0 .307-.08.467-.24.173-.16.293-.386.373-.68zm2.013-.933.507-.2-.227.893h.653l-.053.227h-.653l-.28 1.066c-.094.32-.134.547-.134.667q0 .08.04.12c.027.027.054.04.094.04.066 0 .173-.04.306-.12.174-.107.347-.227.507-.36l.12.147c-.467.346-.773.56-.933.64s-.28.12-.374.12c-.08 0-.146-.027-.186-.08s-.067-.147-.067-.28c0-.147.04-.387.12-.707l.32-1.267h-.52l.053-.226h.52zm1.453 1.24-.133-.107c.213-.24.4-.4.573-.493.174-.094.32-.147.454-.147q.1 0 .16.04c.04.027.053.067.053.12 0 .067-.067.32-.2.787-.227.76-.333 1.213-.333 1.36 0 .026.013.053.026.08.014.026.027.026.054.026q.1 0 .52-.4l.12.12q-.44.42-.64.52c-.134.08-.24.12-.334.12a.23.23 0 0 1-.173-.066.3.3 0 0 1-.067-.2c0-.267.16-.92.48-1.947.014-.053.027-.093.027-.133s-.013-.067-.053-.067a.25.25 0 0 0-.147.053c-.08.04-.2.147-.387.334m1.254-2.107a.22.22 0 0 1 .16.067.23.23 0 0 1 .066.173.37.37 0 0 1-.093.253c-.067.067-.133.107-.213.107a.22.22 0 0 1-.16-.067.25.25 0 0 1-.067-.173c0-.093.027-.173.093-.24.054-.093.12-.12.214-.12m1.933 1.36a.62.62 0 0 1 .52.253c.133.16.213.4.213.694 0 .466-.16.893-.493 1.266-.333.374-.68.56-1.053.56a.71.71 0 0 1-.547-.226c-.133-.147-.213-.347-.213-.614 0-.44.133-.853.386-1.24.32-.453.72-.693 1.187-.693m-.267.24c-.173 0-.36.133-.52.387-.173.253-.253.613-.253 1.066 0 .28.053.494.16.654.08.12.173.173.307.173.173 0 .346-.107.493-.333.187-.28.28-.64.28-1.067 0-.32-.04-.547-.133-.68-.094-.133-.2-.2-.334-.2m1.547.507-.107-.107c.267-.267.494-.44.654-.52s.293-.133.413-.133c.04 0 .08.013.107.026.026.014.04.04.04.067 0 .013 0 .053-.014.107l-.146.64c.213-.24.48-.467.813-.667.173-.107.32-.16.427-.16q.12 0 .2.08a.4.4 0 0 1 .066.227c0 .066-.013.146-.026.226-.04.134-.12.44-.267.907-.133.427-.2.72-.2.867 0 .04.013.08.013.093.014.027.027.027.054.027.066 0 .16-.054.293-.174l.28-.24.08.12q-.3.32-.6.52c-.133.08-.24.12-.333.12-.08 0-.147-.026-.187-.093-.04-.053-.067-.147-.067-.28 0-.187.12-.667.347-1.413.067-.267.107-.427.107-.467 0-.067-.04-.093-.12-.093s-.2.04-.334.133c-.2.133-.36.293-.506.467-.08.12-.16.293-.214.546L23 38.56h-.48c.093-.32.16-.627.227-.92l.28-1.213c.013-.054.013-.08.013-.107 0-.053-.027-.08-.067-.08s-.08.027-.146.067c-.107.093-.227.2-.347.32m4.467-.747c.186 0 .333.04.44.107.106.066.16.16.16.253a.2.2 0 0 1-.067.147.22.22 0 0 1-.16.066.3.3 0 0 1-.107-.026c-.026-.014-.066-.067-.133-.134-.107-.133-.213-.213-.307-.213-.093 0-.16.04-.226.107a.34.34 0 0 0-.107.253c0 .093.027.173.067.253q.06.12.32.4c.24.254.346.494.346.72a.75.75 0 0 1-.28.587c-.186.173-.44.253-.733.253q-.38 0-.56-.16a.5.5 0 0 1-.187-.386.3.3 0 0 1 .067-.187c.04-.053.107-.067.173-.067a.2.2 0 0 1 .147.054c.04.04.067.093.067.133v.147c0 .066.026.133.093.173q.08.08.24.08c.12 0 .213-.027.307-.053a.37.37 0 0 0 .2-.174.4.4 0 0 0 .066-.24.5.5 0 0 0-.066-.226c-.04-.08-.147-.2-.307-.374-.213-.24-.333-.48-.333-.706 0-.214.08-.387.253-.547.147-.16.36-.24.627-.24m3.4 2 .08.12q-.3.32-.6.52a.63.63 0 0 1-.347.133c-.08 0-.133-.026-.173-.093-.04-.053-.067-.147-.067-.28 0-.08.013-.213.053-.373s.134-.507.294-1.04c.066-.267.106-.414.106-.467 0-.067-.04-.107-.106-.107-.094 0-.2.04-.334.134-.186.12-.346.28-.493.466-.093.12-.16.307-.227.547l-.253 1.107h-.48c.107-.374.187-.68.24-.907l.467-2.04c.08-.373.2-.667.333-.867s.32-.373.547-.493a1.4 1.4 0 0 1 .666-.187.34.34 0 0 1 .214.067c.053.04.08.107.08.173a.18.18 0 0 1-.08.147.34.34 0 0 1-.214.067c-.053 0-.12 0-.2-.014a3 3 0 0 0-.373-.04.3.3 0 0 0-.24.12c-.067.08-.12.267-.187.56l-.36 1.574a4 4 0 0 1 .827-.667c.173-.107.32-.16.427-.16a.33.33 0 0 1 .2.067c.053.053.066.12.066.2 0 .066-.013.146-.026.213q-.04.18-.2.68c-.134.453-.214.733-.24.853-.027.107-.04.214-.04.294 0 .04 0 .053.013.08.013.013.027.026.053.026.054 0 .147-.053.28-.186.08-.054.174-.134.294-.227m.573-1.253-.133-.107c.213-.24.4-.4.573-.493.173-.094.32-.147.453-.147q.1 0 .16.04c.04.027.054.067.054.12 0 .067-.067.32-.2.787-.227.76-.334 1.213-.334 1.36 0 .026.014.053.027.08.013.026.027.026.053.026q.1 0 .52-.4l.12.12q-.44.42-.64.52c-.133.08-.24.12-.333.12a.25.25 0 0 1-.173-.066.3.3 0 0 1-.067-.2c0-.267.16-.92.48-1.947.013-.053.027-.093.027-.133s-.014-.067-.054-.067a.25.25 0 0 0-.146.053c-.08.04-.2.147-.387.334m1.24-2.107a.22.22 0 0 1 .16.067.23.23 0 0 1 .067.173.37.37 0 0 1-.094.253c-.066.067-.133.107-.213.107a.22.22 0 0 1-.16-.067.25.25 0 0 1-.067-.173c0-.093.027-.173.094-.24.066-.093.133-.12.213-.12m.427 2.16-.12-.133c.2-.227.386-.4.573-.507s.36-.16.493-.16q.081 0 .12.04a.17.17 0 0 1 .054.12c0 .067-.014.12-.027.187a6 6 0 0 1-.133.466c.32-.32.546-.52.666-.6.2-.133.387-.2.547-.2.107 0 .2.054.267.147.08.107.106.253.106.467 0 .506-.16 1-.48 1.466-.32.467-.68.694-1.066.694a.96.96 0 0 1-.454-.12l-.266 1.053c-.014.067-.027.12-.027.16 0 .08.027.133.093.173.094.054.28.094.574.134l-.04.16q-.52-.04-.8-.04c-.2 0-.467.013-.787.04l.04-.16a.56.56 0 0 0 .347-.134c.066-.066.133-.2.173-.386l.573-2.414c.107-.453.16-.706.16-.746q0-.08-.08-.08c-.066-.04-.253.093-.506.373m.64 1.493c.173.174.333.254.52.254.253 0 .48-.2.666-.6s.294-.787.294-1.16a.44.44 0 0 0-.08-.28c-.054-.067-.12-.094-.214-.094-.106 0-.213.054-.346.147-.2.16-.347.307-.454.467-.08.106-.146.306-.213.573zm4.893-1.733c.173-.187.347-.333.507-.413a.9.9 0 0 1 .44-.134.47.47 0 0 1 .36.174c.093.12.133.293.133.533 0 .347-.08.693-.24 1.027s-.36.586-.613.76c-.24.173-.48.266-.707.266-.2 0-.347-.053-.467-.173a.6.6 0 0 1-.173-.44c0-.147.027-.347.093-.613l.374-1.68c.093-.414.213-.72.346-.947.134-.213.32-.387.547-.52s.44-.187.64-.187c.12 0 .213.014.267.067a.19.19 0 0 1 .08.16.19.19 0 0 1-.08.16.34.34 0 0 1-.214.067 2 2 0 0 1-.36-.054c-.08-.013-.146-.026-.2-.026-.106 0-.186.053-.253.173q-.08.14-.2.68zm.627-.2c-.107 0-.227.067-.374.187-.146.12-.28.346-.4.666a2.4 2.4 0 0 0-.186.934c0 .12.04.213.106.293.067.08.16.12.254.12.24 0 .44-.187.626-.56a2.5 2.5 0 0 0 .28-1.107.76.76 0 0 0-.106-.413q-.08-.12-.2-.12m2.96 1.52.106.147c-.52.493-.96.746-1.333.746a.44.44 0 0 1-.347-.146c-.08-.107-.12-.267-.12-.494 0-.453.134-.906.414-1.36.306-.506.68-.773 1.106-.773.147 0 .267.04.347.107a.4.4 0 0 1 .12.306.74.74 0 0 1-.147.414c-.093.133-.266.28-.506.413-.12.067-.387.2-.787.373-.013.12-.027.227-.027.334 0 .146.027.253.067.32a.3.3 0 0 0 .213.093.7.7 0 0 0 .28-.067c.147-.08.347-.213.614-.413m-1.107-.453c.347-.147.6-.32.773-.494.12-.12.174-.24.174-.36a.34.34 0 0 0-.067-.213.24.24 0 0 0-.187-.08c-.08 0-.16.027-.226.093a.83.83 0 0 0-.254.36 2.3 2.3 0 0 0-.213.694m1.8-.774-.107-.146.24-.16c.227-.16.387-.254.48-.307a.35.35 0 0 1 .147-.04c.04 0 .093.027.133.08.187.24.347.547.467.947s.187.786.187 1.16v.226c.36-.653.533-1.186.533-1.573 0-.08-.013-.187-.053-.32a1.3 1.3 0 0 1-.054-.32c0-.067.014-.107.054-.147a.2.2 0 0 1 .146-.066c.08 0 .134.026.174.08a.4.4 0 0 1 .066.253c0 .267-.066.613-.186 1.027s-.32.853-.587 1.32c-.267.466-.52.813-.733 1.053-.227.227-.44.387-.64.493-.214.094-.4.147-.587.147a.57.57 0 0 1-.32-.08c-.067-.053-.107-.12-.107-.187a.19.19 0 0 1 .08-.16c.054-.053.134-.066.227-.066.067 0 .173.013.293.04q.2.04.28.04c.134 0 .267-.054.414-.16.2-.147.36-.32.466-.534.12-.2.174-.413.174-.626 0-.294-.04-.654-.134-1.067-.093-.413-.213-.733-.36-.947-.08-.106-.16-.173-.253-.173s-.24.067-.44.213m4.36-.653a.62.62 0 0 1 .52.253c.147.16.213.4.213.694 0 .466-.16.893-.493 1.266-.333.374-.68.56-1.053.56a.71.71 0 0 1-.547-.226c-.133-.147-.213-.347-.213-.614 0-.44.133-.853.386-1.24.307-.453.707-.693 1.187-.693m-.28.24c-.173 0-.36.133-.52.387-.173.253-.253.613-.253 1.066 0 .28.053.494.16.654.08.12.173.173.306.173.174 0 .347-.107.494-.333.186-.28.28-.64.28-1.067 0-.32-.04-.547-.134-.68-.093-.133-.2-.2-.333-.2m1.56.507-.107-.107c.267-.267.494-.44.654-.52s.293-.133.413-.133c.04 0 .08.013.107.026.026.014.04.04.04.067 0 .013 0 .053-.014.107l-.146.64c.213-.24.493-.467.813-.667.173-.107.32-.16.427-.16q.12 0 .2.08a.4.4 0 0 1 .066.227c0 .066-.013.146-.026.226-.04.134-.12.44-.267.907-.133.427-.2.72-.2.867 0 .04 0 .08.013.093.014.027.027.027.054.027.066 0 .16-.054.293-.174l.28-.24.08.12a3 3 0 0 1-.613.52c-.134.08-.24.12-.334.12-.08 0-.146-.026-.186-.093-.04-.053-.067-.147-.067-.28 0-.187.12-.667.347-1.413.066-.267.106-.427.106-.467 0-.067-.04-.093-.12-.093s-.2.04-.333.133c-.2.133-.373.293-.507.467-.08.12-.16.293-.213.546l-.253 1.107h-.48c.093-.32.16-.627.226-.92l.28-1.213c.014-.054.014-.08.014-.107 0-.053-.027-.08-.067-.08s-.08.027-.147.067c-.093.093-.213.2-.333.32m5.507 1.28.093.12q-.42.36-.64.48c-.187.106-.347.16-.453.16q-.081 0-.12-.04c-.027-.027-.054-.067-.054-.094 0-.04.014-.093.04-.173l.107-.387q-.38.42-.64.56c-.173.094-.32.147-.453.147a.35.35 0 0 1-.28-.147q-.12-.14-.12-.44c0-.306.106-.653.306-1.04.214-.386.44-.68.694-.866.253-.187.48-.28.693-.28.04 0 .12 0 .213.026.107-.413.2-.72.28-.906a1.9 1.9 0 0 1 .36-.494c.147-.133.307-.24.494-.32.186-.08.36-.106.52-.106.08 0 .146.026.2.066.053.04.08.107.08.174a.22.22 0 0 1-.067.16.3.3 0 0 1-.187.066c-.053 0-.146-.013-.293-.026-.147-.027-.24-.027-.293-.027a.33.33 0 0 0-.2.067c-.054.04-.107.146-.16.293-.04.093-.107.4-.227.92l-.453 1.92a2.5 2.5 0 0 0-.08.453c0 .08.026.12.093.12.04 0 .08-.013.133-.04.067-.093.214-.186.414-.346m-.667-1.654a2 2 0 0 0-.36-.053.6.6 0 0 0-.413.173c-.134.107-.267.334-.4.654-.12.32-.187.6-.187.84 0 .106.027.2.093.266.054.067.12.107.2.107.094 0 .187-.04.307-.12.16-.12.293-.253.387-.427.053-.106.133-.36.226-.786zm3.8.187c.173-.187.347-.333.507-.413a.9.9 0 0 1 .44-.134.47.47 0 0 1 .36.174c.093.12.133.293.133.533 0 .347-.08.693-.24 1.027q-.24.5-.6.76c-.24.173-.48.266-.707.266-.2 0-.346-.053-.466-.173a.6.6 0 0 1-.174-.44c0-.147.027-.347.094-.613l.373-1.68c.093-.414.213-.72.347-.947.133-.213.32-.387.546-.52s.44-.187.64-.187c.12 0 .214.014.267.067a.19.19 0 0 1 .08.16.19.19 0 0 1-.08.16.34.34 0 0 1-.213.067c-.067 0-.187-.014-.36-.054-.08-.013-.147-.026-.2-.026-.107 0-.187.053-.254.173q-.08.14-.2.68zm.627-.2c-.107 0-.227.067-.374.187-.146.12-.28.346-.4.666a2.4 2.4 0 0 0-.186.934c0 .12.04.213.106.293.067.08.16.12.254.12.24 0 .44-.187.626-.56a2.5 2.5 0 0 0 .28-1.107.76.76 0 0 0-.106-.413q-.08-.12-.2-.12m3.466-.413.214-.04-.24.813c-.094.32-.187.693-.267 1.107a2 2 0 0 0-.067.44c0 .066.027.093.08.093.04 0 .094-.027.16-.067.134-.08.254-.173.374-.293l.106.12c-.24.227-.4.347-.466.4-.134.093-.267.16-.387.213a.8.8 0 0 1-.24.04q-.08 0-.12-.04a.15.15 0 0 1-.04-.106c0-.027.013-.08.027-.134l.12-.44a2.6 2.6 0 0 1-.654.56c-.16.094-.293.147-.426.147-.12 0-.214-.04-.28-.133-.094-.12-.134-.267-.134-.454 0-.226.067-.48.174-.746.12-.28.28-.534.48-.747.2-.227.413-.387.64-.493.173-.08.386-.12.666-.12.067 0 .134 0 .214.013zm-.386.493a1.4 1.4 0 0 0-.294-.04.78.78 0 0 0-.493.16q-.22.16-.4.56c-.12.267-.187.547-.187.813 0 .147.027.254.067.307a.22.22 0 0 0 .187.093c.146 0 .306-.08.466-.24.174-.16.294-.386.374-.68zm1.213.307-.107-.107c.267-.267.494-.44.654-.52s.293-.133.413-.133c.04 0 .08.013.107.026.026.014.04.04.04.067 0 .013 0 .053-.014.107l-.146.64c.213-.24.493-.467.813-.667.173-.107.32-.16.427-.16q.12 0 .2.08c.053.053.066.133.066.227 0 .066-.013.146-.026.226-.04.134-.12.44-.267.907-.133.427-.2.72-.2.867 0 .04 0 .08.013.093.014.027.027.027.054.027.066 0 .16-.054.293-.174l.28-.24.08.12a3 3 0 0 1-.613.52c-.134.08-.24.12-.334.12-.08 0-.146-.026-.186-.093-.04-.053-.067-.147-.067-.28 0-.187.12-.667.347-1.413.066-.267.106-.427.106-.467 0-.067-.04-.093-.12-.093s-.2.04-.32.133a2.1 2.1 0 0 0-.506.467c-.08.12-.16.293-.214.546l-.253 1.107h-.48c.093-.32.173-.627.227-.92l.28-1.213c.013-.054.013-.08.013-.107 0-.053-.027-.08-.067-.08s-.08.027-.146.067c-.107.093-.24.2-.347.32m3.547 1.933h-.48l.413-1.733c.2-.867.333-1.387.4-1.587s.133-.36.227-.493c.093-.134.2-.24.333-.347s.28-.173.427-.24q.24-.08.4-.08c.106 0 .186.013.253.067.053.04.08.093.08.173a.2.2 0 0 1-.067.147.3.3 0 0 1-.186.066c-.094 0-.24-.013-.427-.053-.067-.013-.12-.013-.16-.013a.35.35 0 0 0-.187.066.8.8 0 0 0-.16.254c-.04.12-.106.373-.186.746l-.227 1.014c.2-.227.413-.414.64-.534a.96.96 0 0 1 .48-.146c.107 0 .2.04.267.12.066.08.106.186.106.306 0 .227-.12.427-.346.614-.24.173-.6.28-1.08.28.16.066.293.146.386.24.094.093.2.2.294.36q.14.22.36.76c.173.426.333.706.493.853.147.147.32.213.493.213a.5.5 0 0 0 .254-.066c.066-.04.106-.094.106-.134 0-.026-.013-.066-.026-.12a.4.4 0 0 1-.04-.133c0-.053.013-.093.053-.133s.08-.054.133-.054.107.027.147.067a.3.3 0 0 1 .067.187.53.53 0 0 1-.214.413c-.146.12-.32.173-.546.173A1.14 1.14 0 0 1 67 39.64c-.187-.12-.347-.307-.507-.56-.093-.147-.253-.493-.48-1.013a3.6 3.6 0 0 0-.28-.56 1.8 1.8 0 0 0-.266-.294zm.346-1.507c.28 0 .52-.026.694-.08.173-.053.306-.133.373-.226.08-.094.107-.2.107-.307a.33.33 0 0 0-.067-.2c-.04-.053-.093-.067-.16-.067-.2 0-.507.227-.92.667z"/><path fill="#000" d="m67.787 36.627-.147-.107c.213-.24.4-.4.587-.493.173-.094.32-.147.44-.147q.1 0 .16.04c.04.027.053.067.053.12 0 .067-.067.32-.213.787-.227.76-.334 1.213-.334 1.36 0 .026.014.053.027.08.013.026.027.026.053.026q.1 0 .52-.4l.12.12q-.44.42-.64.52c-.133.08-.24.12-.333.12a.23.23 0 0 1-.173-.066.3.3 0 0 1-.067-.2c0-.267.16-.92.48-1.947.013-.053.027-.093.027-.133s-.014-.067-.054-.067a.25.25 0 0 0-.146.053 4 4 0 0 0-.36.334m1.253-2.107a.22.22 0 0 1 .16.067.23.23 0 0 1 .067.173.37.37 0 0 1-.094.253c-.066.067-.133.107-.213.107a.22.22 0 0 1-.16-.067.25.25 0 0 1-.067-.173c0-.093.027-.173.094-.24.053-.093.12-.12.213-.12m.453 2.107-.106-.107c.266-.267.493-.44.653-.52s.307-.133.413-.133c.04 0 .08.013.107.026.027.014.04.04.04.067 0 .013 0 .053-.013.107l-.147.64c.213-.24.493-.467.813-.667.174-.107.32-.16.427-.16q.12 0 .2.08c.053.053.067.133.067.227 0 .066-.014.146-.027.226-.04.134-.12.44-.267.907-.133.427-.2.72-.2.867 0 .04 0 .08.014.093.013.027.026.027.053.027.067 0 .16-.054.293-.174l.28-.24.08.12a3 3 0 0 1-.613.52c-.133.08-.24.12-.333.12-.08 0-.147-.026-.187-.093-.04-.053-.067-.147-.067-.28 0-.187.12-.667.347-1.413.067-.267.107-.427.107-.467 0-.067-.04-.093-.12-.093s-.2.04-.334.133c-.2.133-.36.293-.493.467-.08.12-.16.293-.213.546l-.254 1.107h-.48c.094-.32.16-.627.24-.92l.28-1.213c.014-.054.014-.08.014-.107 0-.053-.027-.08-.067-.08s-.08.027-.147.067q-.18.14-.36.32m5.214-.76.253-.054c-.16.494-.293 1-.427 1.494-.093.36-.16.653-.2.893a4 4 0 0 0-.026.453c0 .307-.04.547-.107.734a1.2 1.2 0 0 1-.493.626c-.24.16-.534.24-.867.24q-.42 0-.68-.2c-.16-.133-.253-.293-.253-.466a.7.7 0 0 1 .2-.48c.093-.107.306-.254.613-.414.16-.08.307-.173.44-.253-.16.08-.28.12-.373.12-.08 0-.147-.04-.214-.107a.48.48 0 0 1-.093-.293c0-.387.12-.773.347-1.16s.506-.667.84-.867c.2-.12.453-.173.76-.173h.226zm-.787 2.2c-.147.133-.427.333-.84.626-.36.24-.587.427-.667.534a.57.57 0 0 0-.12.346q0 .18.16.32a.58.58 0 0 0 .387.147c.147 0 .28-.04.427-.107.133-.066.253-.173.36-.306.106-.134.173-.294.213-.454.04-.173.053-.4.053-.68-.013-.066 0-.2.027-.426m.427-1.734c-.107-.013-.187-.026-.267-.026a.86.86 0 0 0-.52.16c-.147.106-.267.28-.373.533-.147.36-.214.653-.214.893a.4.4 0 0 0 .08.254c.054.066.12.106.187.106q.12 0 .32-.12c.12-.08.227-.186.307-.306q.12-.18.24-.64z"/><path fill="#fff" d="M54.347 26.187a1.3 1.3 0 0 1-.374.04c-.4 0-.68-.16-.68-.48 0-.4.374-.494 1.04-.52zm-.614-3.56h-1.44V23.8h1.614c.253.013.413.16.44.387v.013c-1.387.08-2.587.387-2.587 1.587 0 1.013.747 1.573 2.267 1.573h1.88v-3.147c0-1.026-.64-1.586-2.174-1.586m-41.36 3.56c-.066.026-.226.04-.373.04-.4 0-.68-.16-.68-.48 0-.4.373-.494 1.04-.52v.96zm-.6-3.56h-1.44V23.8h1.614c.253.013.413.16.44.387v.013C11 24.28 9.8 24.587 9.8 25.787c0 1.013.747 1.573 2.267 1.573h1.88v-3.147c-.014-1.026-.64-1.586-2.174-1.586m25.454 4.733h1.72v-6.28h-1.72zm-5.294-4.587v.4h-.493v1.24h.493v2.947h1.627V24.4h.76v-1.24h-.76v-.4c0-.333.253-.453.6-.453.08 0 .16.013.24.013v-1.267a4 4 0 0 0-.56-.04c-1.133.014-1.907.547-1.907 1.76M28.8 26.147c-.373 0-.573-.347-.573-1.12s.2-1.12.573-1.12.573.346.573 1.12c0 .773-.2 1.12-.573 1.12m0-3.52c-1.413 0-2.24 1.026-2.24 2.413s.827 2.427 2.24 2.427 2.24-1.04 2.24-2.427-.827-2.413-2.24-2.413m20.693-.6h1.667v-.987h-1.667zm0 5.333h1.667v-4.733h-1.667zm-7.906-4.733h-2.014v4.733h1.667v-3.373c.08-.04.24-.067.373-.067.307 0 .494.173.494.467v2.973h1.666v-3.147c-.013-1.026-.653-1.586-2.186-1.586m5.44 3.413a.8.8 0 0 1-.28.04c-.467 0-.734-.373-.734-1.16 0-.667.254-1.107.707-1.107.12 0 .253.027.293.054v2.173zm0-3.387c-.12-.04-.32-.066-.494-.066-1.453 0-2.186.92-2.186 2.346 0 1.574.84 2.414 2.4 2.427h1.946v-6.293h-1.666zM6.733 26.08c-.146 0-.32-.027-.426-.04v-1.32h.613c.267 0 .427.067.547.173.106.107.173.294.173.494 0 .506-.253.693-.907.693m-.413-3.72a2 2 0 0 1 .427-.04c.666 0 .866.267.866.693 0 .227-.066.4-.173.494-.08.08-.28.146-.507.146H6.32zm2.027 1.667v-.014c.493-.16.88-.573.88-1.186 0-1.027-.72-1.774-2.48-1.774h-2.04v6.307h2.04c1.76 0 2.6-.693 2.6-1.84a1.63 1.63 0 0 0-1-1.493m15.933-1.28h-1.853l-1.014 1.92H21.4v-3.6h-1.653v6.293h1.64v-2.28h.013l1.173 2.28H24.4l-1.333-2.493zm-7.507-.107H14.76v4.72h1.667v-3.373c.08-.04.24-.067.373-.067.307 0 .493.173.493.467v2.973h1.667v-3.147c-.027-1.026-.653-1.573-2.187-1.573"/><path fill="#000" d="m66.707 24.587-8.414 7.426L63 21.853l-9.587-5.546 10.96 1.173L66.707 0l2.333 17.48L80 16.307l-9.587 5.546 4.707 10.16z"/><path fill="#E53312" d="m66.707 24.373-7.947 7.014 4.453-9.6-9.066-5.24 10.36 1.12 2.2-16.454 2.2 16.454 10.36-1.12-9.067 5.24 4.453 9.6z"/><path fill="#0075BF" d="M68.907 17.667h-4.4l-1.294 4.12 3.494 2.586 3.493-2.586z"/><path fill="#000" d="M66.707 23.493a2.83 2.83 0 0 1-2.827-2.826 2.84 2.84 0 0 1 2.827-2.84 2.83 2.83 0 0 1 2.826 2.84 2.837 2.837 0 0 1-2.826 2.826"/><path fill="#fff" d="M66.707 23.333c-1.48 0-2.667-1.2-2.667-2.666a2.666 2.666 0 1 1 2.667 2.667"/><path fill="#000" d="M66.773 18.987q-.02 0 0 0h-.053c-.013-.014-.04 0-.053 0-.014 0-.014-.014-.014-.014v.014h.027c.013.013.013.026.027.04h.04c.013 0 .013-.014.013-.027h.027zm-.08.04c0-.014.014 0 .014 0zm.014.933a.07.07 0 0 0-.067.04.04.04 0 0 0 0 .053c.013.014.04.04.067.04.026 0 .053-.026.066-.04.027-.053-.013-.093-.066-.093m.013.107c-.013.013-.013.013-.027 0-.013-.014-.013-.027-.013-.054 0-.026.027-.04.04-.053a.08.08 0 0 1 0 .107m.92.96c-.013 0-.013-.027-.013-.027-.014.027-.014.027-.027.027h-.027c0 .026.054.026.054 0 .013.013.04.026.053 0-.013.013-.027 0-.04 0m.173 0c-.013 0-.04-.014-.066-.014-.014 0-.027.014-.04.027s-.027.04-.014.067c0 0 0 .013.014.013 0 0 0-.013.013-.013.04 0 .067 0 .093-.014.014-.013.014-.026.027-.04 0-.013.013-.026.013-.04-.026.014-.04.014-.04.014m-.08.066q-.02 0 0 0-.02-.02 0 0c0-.026 0-.026.014-.026.013 0 .013.026 0 .026a.03.03 0 0 0 .026-.026c.014 0 .014 0 .014.013s-.027.027-.054.013m-.213-.053c-.027-.013-.067 0-.093 0l-.014-.013q0 .04.04.04c.014.04.054.053.107.04 0 0 0 .013.013.013l.014-.013c0-.014-.014-.027-.014-.04-.013 0-.04-.027-.053-.027m-.04.027c.013-.014.04.013.027.013h-.014c0 .027.027.013.04.013 0 0 .014 0 .014.014-.027 0-.08-.014-.067-.04m.107.386c0 .014.013.027.026.027a.03.03 0 0 0 .027-.027.04.04 0 0 0-.053 0m-.36.614c.013-.014.04-.014.053-.027-.027-.027-.093-.027-.093.027 0 .026.04.026.04 0m.16.44c-.014 0-.027.013-.04.013s-.014-.013-.027-.013-.04-.014-.053-.014c-.027 0-.094.014-.054.04.014.014.04.014.054.014-.014.013 0 .026 0 .026.026.014.08.014.12.027h.093c.013 0 .027.013.04.013.04 0 .053 0 .08-.013.013-.013.027-.013.013-.04a.25.25 0 0 0-.106-.027c-.014-.04-.08-.04-.12-.026m1.2-.374c-.014 0-.027 0-.04-.013h-.08c-.027 0-.04 0-.067-.013-.027 0-.053-.014-.067-.014-.013 0-.04-.026-.053-.026a1.4 1.4 0 0 0-.2-.094c.013-.026.027-.04.04-.066s.013-.067.027-.107c0-.027.013-.053.013-.067v-.146c-.013-.147 0-.28 0-.4a.7.7 0 0 0-.027-.16.5.5 0 0 0-.053-.147.1.1 0 0 0-.027-.053c-.013-.014-.026-.027-.04-.027v-.013c0-.014-.026-.027-.04-.04l-.026-.027c-.014 0-.027-.013-.04-.013s-.014 0-.027-.014c-.013 0-.013-.013-.013-.013-.027-.013-.054-.013-.094-.013 0 0-.013 0-.013-.014-.053-.013-.12 0-.173-.013a.5.5 0 0 1-.147-.067q0-.04-.04-.04c0-.013.013-.04-.013-.053h-.014c-.026-.093-.04-.187-.066-.267-.014-.04-.027-.093-.04-.133 0-.027-.014-.053-.014-.08s-.013-.053-.013-.067c0-.04 0-.066-.013-.106.013-.014.04-.04.04-.067v-.013c0-.014-.014-.027-.027-.054-.027-.053-.027-.12-.04-.173-.013-.067-.027-.12-.04-.173-.013-.014-.013-.04-.027-.054-.013-.04-.026-.053-.053-.066 0-.014-.013-.027-.013-.04s-.014-.027-.014-.04v-.054c0-.013-.013-.013-.013-.013v-.027c0-.013-.013-.013-.013-.026.013-.027 0-.054-.014-.067.014-.013 0-.04-.013-.053.013-.014 0-.04-.013-.054.013-.026 0-.04-.014-.053.014-.027 0-.053-.013-.067v-.013c0-.013-.013-.013-.013-.027v-.026c0-.014 0-.014-.014-.027 0-.053-.013-.08-.053-.12a.24.24 0 0 0-.173-.067c-.067-.013-.12.027-.174.054a.15.15 0 0 0-.066.093v.013a.2.2 0 0 0-.027.094c-.013.026-.013.04-.013.053v.053c-.014.014-.014.04-.014.054a.04.04 0 0 0 0 .053c-.013.013-.013.053 0 .067 0 .013-.013.013-.013.026 0 .014.013.014.013.027s-.013.013-.013.027v.04c-.013.013-.027.04-.013.053 0 .013-.014.013-.014.013v.014a.03.03 0 0 1-.026.026c0 .014-.014.027-.014.04-.013.027-.04.067-.053.107-.027.133-.067.293-.093.427 0 .026-.014.053-.027.08-.067-.027-.16-.04-.24-.054 0-.013 0-.026-.013-.04-.014-.013-.027 0-.054.014 0-.014-.04-.027-.053-.014-.013 0-.013-.013-.027-.013a.2.2 0 0 0-.053-.093c-.013-.014-.027-.014-.04-.027-.027-.013-.04-.027-.067-.04-.013 0-.053-.027-.053-.04v-.013c-.027-.094-.04-.174-.067-.267 0-.013-.013-.027-.013-.04l.013-.013c0-.014 0-.027-.013-.04-.013-.04-.027-.067-.027-.107.04-.013.067-.027.094-.04.013-.027.026-.04.026-.08-.013-.093-.08-.173-.093-.28v-.067c-.013 0-.013.014-.027.027-.026.08.014.16.027.227 0 .026 0 .066-.027.093-.013.013-.026.027-.04.027-.013-.027-.013-.08-.013-.107-.013-.013.013-.04 0-.053l-.027-.027c-.013-.013-.013-.013-.013-.027a.6.6 0 0 1-.067-.133c-.013-.013-.013-.04-.026-.04-.014.013 0 .027 0 .027 0 .04.013.066.013.106v.107c0 .013-.013.013-.013.027l.013.013c0 .013.013.013.013.027.027.026.04.066.054.106-.014 0-.014.014-.014.027-.053.027-.093-.013-.093-.067v-.133a.26.26 0 0 0-.053-.12c-.014-.013-.014-.027-.04-.013 0 .013.013.026.013.04.027.08.013.213.013.306 0 .04.027.067.054.094.04.026.08.013.133 0 .013.04.027.08.027.12v.026l.013.014c.013.013.013.026.013.04l.08.32c0 .013-.013.013-.013.013v.08c0 .013.013.013.013.027 0 .013 0 .04.014.053 0 .013.013.04.026.053.014.014.027.014.027.027s.013.04.013.053c0 .014.014.04.014.054l.08.32c.093.346.173.706.253 1.053.013.067.04.147.053.213-.013 0-.026.014-.04.014-.026.013-.053.013-.066.026-.04.014-.08.04-.107.054 0 0-.013 0-.013.013a.8.8 0 0 0-.214.267c-.013.013-.013.026-.026.04 0 .013 0 .013-.014.026 0 .014-.013.014-.013.027-.013.04-.027.08-.04.133-.013.067 0 .12.013.174-.026 0-.08.013-.093.04 0 .013.013.026.027.04-.014 0-.027.013-.04 0-.027 0-.08-.014-.107 0-.013 0-.027.013-.027.026 0 .027.054.027.08.027h.094c.013 0 .013 0 .013.013h.093c0 .014-.013.014-.013.014v.026a.2.2 0 0 0 .053.04c.04.014.08-.013.134-.013.04 0 .066.027.106.013-.013.014-.026.054-.013.067s.013.013.027.013h.106c.027 0 .067-.013.094 0 .013 0 .013.014.013.027l.027.027c.013.013.053.013.066.026v.014c0 .04 0 .08.027.106.013.014.027.014.027.027.026.013.04.027.066.04.014.013.027.013.054.027l.04.04c-.014 0-.014-.014-.014-.027 0-.027.014-.04.014-.053a.28.28 0 0 0-.107-.28l-.027-.027c.027 0 .054-.027.08-.04.014.04.014.093.027.147 0 .013 0 .04.013.04.014 0 .04 0 .04-.014.014-.013 0-.053-.013-.066-.013-.04-.013-.067-.027-.094 0-.013-.013-.04-.013-.053s.053-.013.08-.013h.053c.027 0 .04-.014.067-.014.013.014.013.027.027.027q.06.02.12 0c.013 0 .04-.013.053-.013.027-.014.053-.014.067-.014.013 0 .053-.013.053-.026 0-.014-.013-.014-.013-.014.013 0 .026-.013.053-.013s.053.013.067.013h.04c.026 0 .053.014.08.014.013 0 .026-.014.04-.014.013 0 .04 0 .053.014h.08c.04 0 .067-.014.107-.027 0 0 .013-.013.026-.013.014 0 .027 0 .04.013h.04c.014 0 .04 0 .04-.013 0-.014-.013-.027-.013-.027-.04-.027-.107-.027-.147-.013-.013 0-.026.013-.04 0 0-.014.014-.014.027-.014s.013-.013.013-.013q.06.02.12 0c.014.013.054.013.08.027v.013c.014.013.054.013.08.013.08 0 .16.014.24.027.027.027.094.013.134.04-.014 0-.014.013-.027.013a.26.26 0 0 0-.173.014c-.014 0-.027.026-.014.04.014.013.054.026.094.026s.066.014.106 0c.014 0 .04-.013.04-.013.014 0 .014-.013.014-.027.026 0 .12 0 .133-.026 0-.014-.013-.014-.013-.014.013 0 .013-.013.04-.026h.026c.014 0 .027 0 .027-.014l.027-.026h.053c.013 0 .04-.027.053-.04.027 0 .04 0 .067.013.027 0 .04.013.067.013.026 0 .053 0 .066-.013.014 0 .027-.013.04-.013.027-.014.054 0 .067-.027v-.013c.04-.014.053-.04.053-.107-.013-.107-.053-.133-.106-.147m-3.294-3.026h-.066c-.014 0-.027-.014-.04-.027-.027-.04-.014-.12-.014-.187.014.027 0 .067.014.107 0 .027 0 .04.013.067.013.013.04.04.053.04q.02-.021.04 0c0-.014.014-.014.014-.014 0 .014-.014.014-.014.014m.027-.134c-.013-.026-.04-.066-.053-.093.013-.027.013-.067.013-.107v.014c.013.026.027.066 0 .066.013.04.027.08.04.134zm0 .067c0-.013.013-.013.027-.013 0 0-.014 0-.027.013.013.013.013.053.04.067-.013 0-.013 0-.013.013a.3.3 0 0 1-.027-.08m.053.187c-.013-.04-.013-.08-.013-.107 0 .013.013.04.013.067 0 .026.014.053.014.066-.014 0-.014-.013-.014-.026m.027-.2c.013-.014.027-.014.04-.027 0 .027-.013.027-.04.027q0 .02 0 0m2.707 2.84c0 .013-.014.013-.014.026-.013.027-.026.04-.04.067-.026.04-.08.053-.12.093l-.04.04c-.013.014-.026.027-.04.027h-.026c0-.013.013-.013.013-.013 0-.014.013-.014.027-.014v-.013c.013-.027.04-.04.053-.067 0-.013.013-.026.013-.04v-.026c.014-.014.027-.014.04-.027 0-.013.014-.027.027-.027 0-.013.013-.04.013-.04.014-.053-.013-.093 0-.146-.013.026-.013.066-.013.106s-.027.08-.053.094v-.04c0-.014.013-.027.026-.04.014-.027 0-.067.014-.094 0-.013.013-.026.013-.04v-.04c0-.013-.013-.026-.013-.026 0-.014.013-.027.013-.04s-.013-.027-.013-.04 0-.04.013-.054h.013l.014-.013a.2.2 0 0 1 .026.08v.16c0 .04.027.08.027.12.027-.027.04 0 .027.027m-.4-.094v-.026c0-.014-.014-.027-.014-.04s.014-.027.014-.054c0-.013-.014-.026-.014-.053v-.04l-.013-.053c-.013 0-.013.026-.013.04v.026c0 .014.013.027.013.04.013.027-.013.054-.013.08 0 .014.013.027.013.04s-.013.04-.013.054.013.026.026.053c.014.067-.026.107-.04.147-.013.013-.026.013-.04.026-.013.014-.013.054-.053.04 0-.013.027-.013.027-.026.013-.014.04-.027.053-.054.013-.04 0-.08 0-.133 0-.027.013-.04.013-.053 0-.014.014-.04.014-.067 0-.04-.014-.08-.014-.107 0-.013.014-.026.027-.04 0-.013 0-.013-.013-.026h-.054v.026c0 .014.014.014.014.027s.013.027.013.053c0 .014.013.027.013.054 0 .04-.026.093-.026.133-.014 0-.014-.013-.014-.027v-.026c0-.014.014-.027.014-.04v-.04c0-.014.013-.027.013-.04s-.013-.014-.013-.027c0-.027-.014-.053-.014-.08v-.013c-.013-.014-.04 0-.053-.014-.013-.013-.013-.04-.027-.066.014-.014.027 0 .04-.014.014 0 .027-.013.04-.013h.04c.014 0 .014-.013.027-.013s.027.013.04.013h.013c.014 0 .027.013.04.027.04-.014.054-.04.067-.08 0 .04-.027.066-.027.12 0 .04.04.066.04.106v.04c.014.067-.026.094-.04.134-.013-.014-.026-.027-.026-.04 0-.027.026-.054.026-.067a.3.3 0 0 0-.026-.107c0-.013-.014-.026-.014-.04l-.013-.013c0-.013 0-.027-.013-.027-.014 0-.014.014-.014.027 0 .027.027.053.04.08 0 .013 0 .027.014.04 0 .013.013.027.013.053 0 .027-.027.04-.04.067 0 .013 0 .04.013.053 0 .014.014.014.027.027 0 .013.013.027.013.053 0 .014.014.04.014.054V22c0 .013-.014.027-.027.053-.013.014-.013.027-.04.027-.013.013-.027.013-.053.013-.014 0-.014 0-.027.014-.013 0-.027-.014-.04-.014 0-.053.04-.053.067-.08q.04-.039.04-.12c-.027-.066-.04-.093-.04-.12m-.334.094v.026c-.013 0-.013-.013-.013-.026-.013-.027-.013-.054-.013-.094.013-.04.026-.08.013-.12 0-.013-.027-.04-.027-.053-.013-.027-.026-.053-.026-.093 0-.027.013-.067.013-.107s0-.08.013-.107c0-.013.014-.04.027-.053.013 0 .013.013.013.027a.24.24 0 0 1 .014.106c0 .027-.014.04-.027.067-.013.04-.013.08-.013.12 0 .013.013.027.013.053.013.04.04.067.04.107v.053c0 .04-.027.054-.013.094 0 .013.013.04.026.053.014.04.027.107 0 .147-.013 0-.026-.027-.04-.04.04-.067.027-.134 0-.16m-.266-.467c.026.053.013.147.053.2.027.04.053.053.107.067.013.013 0 .04.013.053 0 .013.013.027.013.04v.053c-.013-.013-.013-.026-.013-.04 0-.013-.013-.026-.027-.04-.026-.026-.066-.04-.093-.066a.2.2 0 0 1-.053-.134c-.027-.053 0-.093 0-.133m-.04.067c-.014 0 0-.014 0-.014 0-.013.013-.04.013-.066 0-.014 0-.027.013-.04-.013.026-.013.053-.013.08 0 .013 0 .026-.013.04m-.094-1.507s0-.013-.013-.013c.013-.014.027-.04.053-.04 0 .053.014.066.014.066 0 .014 0 .027.013.054 0 .026.013.066.013.093.014.027.027.107.04.147.04.093.08.186.12.266 0 .014-.013.027-.013.04s.013.014.013.014c0 .013-.013.013-.013.026 0 .027.04.04.067.04.013.014.013.027.013.04s.013.027.013.04-.013.014-.026.027a.2.2 0 0 0-.04.053c-.027.04-.067.094-.08.147 0 .013-.014.027-.014.027 0-.347-.026-.694-.16-.907v-.067c.014-.026.014-.053 0-.053m.094-.08c0-.013.013-.013.026-.013.027-.014.067-.014.107-.027v.013c-.027.014-.04.014-.067.014-.026.013-.04.013-.066.013m.573.92c.013 0 .027-.027.053-.027.014.014-.013.027-.026.04-.014.014-.027.014-.054.014-.013 0-.04-.014-.053-.014-.04-.013-.093 0-.133.014-.04.013-.054.04-.08.053.013-.067.053-.093.12-.107h.066c.027.014.08.027.107.027m-.027-.027c0-.013.014-.013.014-.013.04 0 0 .027-.014.013m.32.08c0 .014-.013.014 0 .027l.014.013s-.027.027-.04.027c-.027.013-.067 0-.08-.013a.2.2 0 0 0 .106-.054m.014 0c.026-.026.053-.013.053 0 .013.054-.027.107-.067.12-.013 0-.04 0-.04-.013h.014c.026 0 .053-.027.08-.04 0-.04-.014-.067-.04-.067m.093.507c0 .013 0 .04-.013.053-.014.027-.04.027-.04.054-.014.026.013.066.013.093-.013 0-.013-.013-.013-.013 0-.014-.014-.014-.014-.027-.013-.04.014-.107 0-.147 0-.013-.013-.026-.013-.026 0-.027.013-.04.013-.067 0-.013-.013-.027-.026-.04-.014-.013-.014-.013-.014-.027 0-.026.014-.04.027-.066.013-.04 0-.08-.013-.107.013.013.04.04.04.067a.2.2 0 0 1 .026.08c0 .04-.013.08-.013.12.013 0 .04.013.04.053m-.16-.387c.04.014.04.054.053.094 0 .026-.013.066-.013.093s0 .053.013.067c.014.013.027.013.027.04 0 .013-.013.026-.013.04-.014-.014-.014-.027-.014-.054 0-.013-.013-.04-.013-.053v-.053c0-.054-.027-.12-.04-.174m-.027.574c0 .013.014.013.014.026.013.014.013.08-.014.08 0-.066-.066-.106-.053-.186 0-.014.013-.04.013-.054.014-.04.027-.08.014-.12v-.013s.026-.04.026-.053c.014 0 .014.026.014.026a.2.2 0 0 1 .026.094.3.3 0 0 1-.026.093c-.014.027-.04.04-.04.08zm.027-.507c.013.067 0 .12-.027.173-.013.027-.04.054-.053.08 0 .014.013.027 0 .04-.027 0-.04-.013-.067-.026 0 .026.04.04.054.04 0 .013-.014.026-.014.026-.013 0-.04-.013-.04-.026 0 0 0-.014-.013-.014 0 .027.027.04.04.054 0 .013-.013.026-.027.026-.026 0-.04-.04-.04-.066-.013 0-.013.026-.013.04-.04-.014-.053-.054-.053-.094.013-.04.08-.026.08-.066v-.04c0-.014 0-.014-.014-.027 0 .013.014.027 0 .04h-.013c-.027 0-.053.013-.067.013h-.066c0-.013.013-.026 0-.04-.014.014-.014.027-.014.04s.014.027.027.04c.027.014.053.014.067.027v.04c0 .04-.04.067-.067.067 0-.014.013-.04 0-.04s-.013.026-.027.04c-.013.013-.04.04-.053 0 .013-.014.04-.027.053-.054-.013 0-.026 0-.04.014-.013.013-.026.013-.026-.014a.07.07 0 0 0 .066-.04c-.013 0-.04.014-.066.014v-.014a.45.45 0 0 1-.08-.2.5.5 0 0 1 .026-.146c.014-.014.014-.027.027-.04s.013-.027.04-.04.053-.014.08-.014.053.014.08.027c.04.013.053-.013.08-.013.04 0 .067.013.093.026.014 0 .014.014.027.027zm-.547.093v.08c0 .027-.026.04-.026.067v.093a.16.16 0 0 1-.014-.133.2.2 0 0 0 .027-.093c0-.054 0-.12.013-.174l.04-.08c.014 0 .014-.013.027-.013a.2.2 0 0 1 .16-.04h-.067c-.053.027-.106.053-.133.107 0 .013-.013.04-.013.066-.027.054-.014.08-.014.12m-.146.027c.026-.04.053-.067.066-.12h.014c0 .08-.067.12-.08.2-.014-.013-.014-.053 0-.067.013 0 0-.013 0-.013m.08-.213c.013 0 .013-.014.04-.014-.014.027-.014.067-.014.107 0 0-.013 0-.013-.013-.027-.027-.027-.067-.013-.08m-.027.253c0-.013.013-.027.027-.053a.3.3 0 0 0 .026-.107c.027.093-.026.173-.026.253 0 .027.013.054.013.08.013.014.013.04.013.067-.013-.013-.026-.04-.04-.053 0-.014-.013-.027-.013-.027-.027-.053-.027-.12 0-.16m.133-.253q.021-.021 0 0c-.013.013-.013.053-.026.093v-.027a.14.14 0 0 1 .026-.066m-.04-.16c0 .013-.013.026-.013.04-.013.013-.013.026-.027.04-.04 0-.053.026-.066.053V21c0 .013-.014.053-.014.067-.013.026-.026.04-.04.066 0 0-.013.014-.013.027-.013.027 0 .08.013.093 0 .014.014.014.014.027v.053c0 .027-.014.054-.014.067v.04c0 .053.027.107.04.133 0 .014.014.014.014.027-.027-.013-.054-.027-.067-.053-.013-.027-.013-.067-.013-.107s-.027-.067-.027-.107c0-.026 0-.04-.013-.066V21.2c.013-.053.013-.12.04-.173.013-.04.026-.067.04-.107.04-.053.066-.107.12-.147zq.021 0 0 0m-.04 1v-.054s-.013-.013 0-.026c0-.014.014-.014.014-.014.013-.04-.027-.08-.04-.106-.04-.054-.054-.094-.04-.187.026.027.04.053.053.067 0 .04 0 .093.013.12 0 .013.014.026.027.04.013.013.027.026.027.04 0 .026-.014.04-.014.066-.013.054-.013.12.014.147.013.013.04.027.04.04s-.027.027-.027.04c-.027-.013-.04-.04-.053-.067 0-.013-.014-.04-.014-.053-.013-.013 0-.027 0-.053m.134.053c-.014-.04.013-.08.013-.133a.2.2 0 0 0-.027-.08c-.013-.04-.04-.067-.04-.107 0-.053.027-.08.04-.133 0-.014.014-.04.014-.067.013 0 0 .013.013.013 0 .014.013.027.013.04 0 0 0 .014.014.014 0 .013-.014.04-.014.053 0 .027.014.04.014.067 0 .013 0 .026-.014.04 0 .026-.013.053 0 .093 0 .013.014.04.014.053.013.027.026.054.013.094 0 .026-.013.066-.013.093q-.04-.02-.04-.04m.026.12c.014-.013 0-.013 0 0 .027.027.04.053.027.08h-.04c.013-.027.027-.067.013-.08m.027-.067c0-.026.013-.053.013-.08v-.053c0-.053-.053-.107-.04-.173.014 0 0 .013.014.013.013 0 .013 0 .013-.013.013-.054-.04-.094-.013-.16.013.013.013.026.026.026 0 .014.014.04.014.054s-.014.026-.014.04c0 .04.027.053.04.08 0 .053 0 .106.014.146.013.027.026.04.04.054 0 0 .013.013.013.026.013.054.013.107-.027.134-.013.013-.026.013-.04.026-.013.014-.013.027-.013.027V22c0-.013-.013-.013-.013-.027a.2.2 0 0 1-.027-.08m.107-.173c0 .013-.014.027-.014.04-.026-.027 0-.067 0-.107s-.04-.066-.026-.106c.013.013.013.013.013.04 0 0 0 .013.013.013v.013c0 .014.014.014.014.027s-.014.027-.014.053c.014.014.014.027.014.027m.213.293a.25.25 0 0 0 .027-.106c0-.04-.014-.067-.014-.107a.4.4 0 0 1 .054-.107.2.2 0 0 0 .026-.08v-.053a.1.1 0 0 0-.026-.053c0-.014.013-.027.013-.04l.027-.027s0-.013.013-.013c0-.014.013-.027.013-.054 0 .04-.013.094 0 .12 0 0 0 .014.014.014 0 0 0 .013.013.013.013.027.027.04.04.053v.04c0 .014-.013.014-.013.04s.013.04 0 .067c0 .013-.014.027-.027.04-.013.027 0 .053 0 .067 0 .013 0 .026-.013.04 0 .04-.014.066-.027.093-.013 0-.013.013-.027.013 0 0-.013.014-.026.014-.014-.014 0-.027 0-.027.013-.04.066-.093.026-.147 0 .027 0 .054-.013.08 0 .014-.027.014-.027.027 0 0 0 .013-.013.013-.013.027 0 .054-.013.08-.014.027-.067.054-.107.027.04.027.067 0 .08-.027m.173-1.213c.027 0 .04.013.054.027.04.053.04.146.066.213 0 .013.014.027.014.04a.7.7 0 0 1 .013.16v.173c0 .094.027.187.013.28v.04c-.013 0-.013-.013-.013-.013-.013-.027-.013-.04-.013-.067V21.6c0-.053 0-.107-.027-.16 0-.013-.013-.027-.013-.027 0-.013.013-.013.013-.026.013-.067-.04-.107-.027-.174v-.066a.3.3 0 0 0-.053-.16c.013-.014.04-.027.04-.054v-.08c0-.013-.013-.04-.027-.04-.026-.013-.066 0-.08.014l-.013.013c-.013 0-.013.013-.027.013.014-.026.04-.053.08-.053m-.16-.12c.027 0 .027.027.054.027h.053c.013 0 .027.013.027.026l.013.014c0 .013-.013 0-.013.013-.014.013-.04.027-.054.04a.1.1 0 0 1-.066.027h-.04c-.014 0-.027.013-.04 0 .013-.014.026-.014.04-.014.026-.013.066-.026.066-.08-.013 0-.04-.026-.04-.053m-.12-.027c.014 0 .027 0 .04.014.014 0 .027.013.04.013s.04.04.04.053c0 .014 0 .04-.013.054a.1.1 0 0 1-.053.026c-.014 0-.014 0-.027.014-.013 0-.013.013-.027.013 0-.013.014-.013.014-.027 0 0 .013-.013.013-.026.027 0 .08-.014.08-.04 0-.014-.013-.014-.013-.027 0 0 0-.013-.014-.013-.013-.014-.026-.014-.04-.027 0 0-.013-.013-.026-.013 0 0-.014 0-.014-.014m-.266-.066c.066.013.12.04.173.066.04.014.067.027.107.04l.013.014c.013 0 .027.013.027.013s.013 0 .013.013c-.013 0-.013 0-.027-.013a.7.7 0 0 0-.173-.067.04.04 0 0 0 .027.014c.066.013.12.053.173.093.013 0 .027.013.027.027-.014 0-.027 0-.027-.014a.46.46 0 0 0-.2-.093c0 .013.013.013.027.013.04.014.08.027.106.054.014 0 .027.013.027.026.013 0 .027.014.027.027-.014.013-.04 0-.067-.013-.013-.014-.027-.014-.04-.027a.3.3 0 0 0-.107-.027c-.026 0-.04 0-.066-.013-.014 0-.027-.013-.054-.013-.013.013.014.013.027.026h.013a.16.16 0 0 1 .08.014c.014 0 .054.013.054.026 0 .014-.067 0-.094 0h-.106a.14.14 0 0 1-.08-.026c0-.014-.014-.014-.014-.027v-.04c0-.013-.013-.013-.013-.027 0-.013 0 0 .013 0h.04c.014 0 .014-.013.027-.013.04-.04.053-.053.067-.053m-.04-.054c.013 0 .026.014.026.014 0 .013-.013.013-.04.013-.013 0-.013.013-.026.013h-.014c-.013 0-.013 0-.026.014h-.014c-.013 0-.013 0-.013.013-.013 0-.013 0-.027.013-.013 0-.04-.013-.026-.026 0-.014.04-.014.053-.014s.04 0 .053-.013c.027-.013.04-.027.054-.027m0-.04c.013.014 0 .027-.014.04a.3.3 0 0 1-.12.027c-.013 0-.04 0-.04-.027.067.014.147 0 .174-.04m-.134-.373c.04.093.067.2.094.307 0 .013.013.04.013.053s-.053.027-.067.027h-.04c-.013 0-.013-.027-.026-.04-.04-.067-.107-.294-.134-.374-.013-.026-.013-.053-.013-.08v-.093c.04-.013.08-.027.133-.027 0 .027.014.027.014.067v.12c.013 0 .026.027.026.04m-.013-.373c.013.013-.027.026-.04.026a1 1 0 0 0-.16.067c-.013.013-.013.027-.04.013 0-.013.013-.013.013-.026.014 0 .014-.014.027-.014.04-.013.067-.04.12-.053.027 0 .053 0 .08-.013m-.013-.014h-.04c0-.013 0-.026-.014-.04.014 0 .027-.013.04-.013 0 .027.014.04.014.053m-.094-.4c0 .014.014.014.014.027a.7.7 0 0 1 .026.147c0 .026.014.053.014.08 0 .026.013.053.013.066h-.027c-.053 0-.12 0-.186.027v-.093c0-.014-.027-.054-.027-.027v.24h-.027c-.013 0-.026.013-.04.013-.013 0-.04.014-.053 0-.013 0-.04-.013-.053-.013-.014 0-.027-.013-.04-.027-.04-.013-.054.027-.094.027.014-.04.04-.08.067-.12a.6.6 0 0 1 .107-.147c.013-.013.026-.04.053-.053a.16.16 0 0 1 .067-.067c.013 0 .013-.013.026-.013a.2.2 0 0 1-.053.093l-.027.027c-.013 0-.013.013-.026.013 0 .027.026.027.04.014.013-.014.026-.04.053-.067a.8.8 0 0 1 .16-.2c0 .013.013.04.013.053M66.227 21c-.014 0-.027 0-.04-.013 0-.147 0-.294.013-.414v-.2c0-.08 0-.146.013-.24.014-.013.04-.026.054-.04.013.04 0 .08 0 .12s.013.08 0 .12c0 .014-.014.027-.014.04s0 .027-.013.04c0 .014 0 .04-.013.067zm-.027.067c0 .066 0 .133-.013.2v.146c-.014 0-.014-.013-.027-.013l.04-.387c.013.027 0 .04 0 .054m.133-.8c0-.014.014-.027.027-.04.013-.04.027-.054.053-.094l.04-.04c.04.014.08.014.12.014h.04c.014 0 .027.013.04.026h.067c-.013.027-.04.04-.067.067-.026.013-.04.04-.066.067-.04.04-.08.093-.12.133-.04.053-.067.093-.107.147a.5.5 0 0 0-.067.12c-.013.013-.013.026-.026.04 0-.08.013-.16.013-.24 0-.04.013-.067.027-.107.013-.027.013-.067.026-.093m-.026-.2v-.027c0-.027.013-.04.026-.053.014.013 0 .04.014.053 0 .027.013.067.013.093 0 .027 0 .04-.013.054-.014.013-.014.04-.027.053-.013-.067-.013-.12-.013-.173m.146.013v-.093zm.387-.187c.027-.013.04-.013.053-.013 0 0 0 .013-.013.013-.013.027-.013.054-.04.067-.013.013-.027 0-.053 0-.04-.04-.12-.04-.16-.013-.014.013-.027.026-.054.013 0-.013.027-.027.04-.027l.08-.04c.014 0 .027-.013.054-.013 0 .027.013.04.04.027 0 0 .013 0 .026-.014zm-.347.867c-.026 0-.026.04-.04.053a.4.4 0 0 0-.053.134l-.12.32c0 .013 0 .026-.013.026v-.28c0-.026.013-.053.013-.093v-.067c0-.013 0-.04.013-.053 0-.013.014-.04.014-.053 0-.014.013-.014.013-.027a.7.7 0 0 1 .107-.2c.04-.053.08-.107.12-.147a.7.7 0 0 1 .173-.16.4.4 0 0 0 .107-.093c.013-.013.013-.027.026-.04 0 .013 0 .027-.013.04a.4.4 0 0 1-.067.093c-.04.067-.093.12-.133.187-.013.04-.04.067-.067.107-.053.106-.106.213-.173.32-.013.04-.04.066-.053.106.013 0 .013-.013.026-.026.08-.134.16-.28.254-.414a2 2 0 0 1 .146-.213c.04-.053.067-.107.107-.16.013-.013.027-.04.04-.053.013-.014.027.026.013.04 0 .013-.013.026-.013.04a.4.4 0 0 1-.053.106.6.6 0 0 0-.067.134c-.04.093-.093.186-.147.266-.026.04-.053.094-.08.134l-.2.36a.03.03 0 0 1-.026.026c0-.013.013-.026.013-.04.027-.066.053-.133.093-.2.014-.04.04-.08.054-.133-.014 0 0-.027-.014-.04m.12-.693c-.013-.027 0-.054 0-.067.014-.013.04-.04.067-.04.04 0 .093.013.107.04.013.04 0 .093-.04.107-.027.013-.107 0-.134-.04m-.053-.107c-.013.013-.027.013-.053.013 0-.013.013-.013.026-.026l.027-.027c.027 0 .04-.013.053-.027 0 .027-.026.04-.053.067m0 .107c-.013.013-.013-.014-.013-.04s-.014-.054.013-.054c-.013.04 0 .067 0 .094m-.307 1.533c0 .067 0 .12.014.187a.3.3 0 0 0-.16 0l-.014.013c0 .013.014.04.027.04s.013 0 .027.013c.013 0 .04-.013.066 0 .014 0 .014.014.027.014s.027.013.027.013c.013.013.026.04.04.053.013.04.013.107.026.147.014.04.014.08.027.12h-.173c-.054-.173-.094-.36-.134-.547.014-.013.054-.013.067-.013.04-.013.093-.013.133-.013-.026-.027-.013-.027 0-.027m.08.333c0-.013.014-.04.027-.053s.027-.04.04-.053c.04-.054.067-.107.107-.16.013-.014.026-.04.04-.054.013-.026.04-.053.053-.08 0-.013.013-.013.013-.026.014.013 0 .026 0 .04-.013.066-.026.133-.053.186 0 0-.04.054-.013.067.013 0 .026-.027.026-.04a.6.6 0 0 0 .054-.16c.013-.053.026-.107.053-.16.013-.013.013-.04.027-.053l.026-.027c0 .027 0 .067-.013.107-.013.053-.013.106-.027.146-.013.054-.026.12-.04.174-.013.026-.013.053-.026.08l-.08.24c0 .013-.014.026-.014.04-.013.013-.013.04-.026.04h-.04c-.054-.014-.094-.027-.12-.054 0-.026-.014-.053-.014-.08 0-.04-.013-.08 0-.12m.294-.64c-.014.027-.027.054-.054.08a.3.3 0 0 1-.053.08c-.04.04-.08.094-.12.134a.5.5 0 0 0-.093.133l-.014.013c0-.026-.013-.04-.013-.066-.013-.067-.013-.16-.013-.227 0-.053.013-.093.04-.133 0-.014.013-.027.013-.04.027-.067.053-.134.093-.187.027-.053.054-.093.08-.133.054-.094.12-.174.16-.267.04-.067.067-.147.107-.227.027-.053.053-.093.067-.146.013-.04.04-.067.066-.094h.014c.013 0 0 .04 0 .054s-.014.04-.014.053c-.04.16-.093.307-.133.453-.013.027-.027.054-.027.08-.013.027-.013.067-.026.094 0 .013-.014.026-.027.04-.013.013-.013.026-.013.04-.014.026-.027.053-.04.066s-.014.027-.027.04c-.013.027-.04.054-.04.094 0 .013-.013.04 0 .053.013 0 .04-.027.04-.04.013-.013.013-.04.027-.053.053-.107.106-.227.146-.347s.08-.24.12-.373c.014-.027.014-.067.027-.094 0-.013 0-.026.013-.026 0 .04-.013.08-.013.12s-.013.066-.027.106c-.013.067-.04.134-.053.2-.04.134-.08.254-.147.374a1 1 0 0 0-.04.093c.014 0-.013.027-.026.053m.32-1.293v-.04.08zm0-.72a.2.2 0 0 1-.08.067c-.054.04-.12.08-.174.133l-.04.04c-.013.013-.04.027-.04.067.027 0 .04-.027.054-.04.053-.04.093-.08.133-.12 0 0 .013 0 .013-.014.027-.026.054-.04.094-.066a.2.2 0 0 1 .053-.04h.013c.014-.014.027-.027.054-.027.013 0 .013 0 .026-.013.014 0 .04-.027.067 0-.013.013-.04.026-.053.04-.027.013-.054.04-.08.053l-.027.027a.4.4 0 0 0-.093.106c-.014.027-.04.04-.054.067-.026.04-.066.08-.093.12-.053.08-.107.173-.187.24-.013.013-.08.053-.08 0h.04c.027-.013.04-.04.054-.053.013-.014.026-.027.013-.04-.013 0-.027.026-.04.04-.013.013-.027.026-.053.026-.054 0-.08-.026-.08-.093v-.093a.1.1 0 0 1 .053-.054c.04-.026.067-.053.107-.08.013-.013.026-.013.026-.026.027-.014.054-.027.067-.054.053-.04.12-.066.187-.106l.08-.04c.013-.054.026-.067.04-.067m-.12-.16v-.053c0 .04.013.066.013.093a.2.2 0 0 1-.027.08 1 1 0 0 0-.186.107 2 2 0 0 1-.04-.134c0-.026-.014-.04 0-.053 0-.013.013-.027.013-.04.013.013.027.013.027.027.026.013.053.04.093.04h.093c.014 0 .014-.027.014-.04zm.026.093c0-.013 0-.026.014-.04.013 0 .026.014.04.014-.014.013-.04.013-.054.026m-.32-.453c0-.027.014-.04.014-.053 0-.014.013-.014.013-.027.04-.04.08-.053.133-.08v-.04c0 .013 0 .027.014.04.04.013.066.027.093.053a.24.24 0 0 1 .067.094c0 .026 0 .04.013.053s.027.027.013.053c0 .08-.053.187-.106.227-.027.013-.067.04-.107.04s-.067-.027-.093-.053a.4.4 0 0 1-.054-.08.23.23 0 0 1-.04-.134c.014-.026.04-.053.04-.093m.014.413c.013.054.013.094.026.147 0 .013.014.027.014.04-.014.013-.027.027-.054.027-.026-.054-.026-.12-.026-.2.013 0 .026-.014.04-.014m-.054.28c.014.014.04.014.04.04 0 .014-.04.04-.053.054h-.013c0-.014.013-.027.013-.027.013-.013 0-.04 0-.04-.013-.013 0-.013.013-.027m-.28.227c.014-.067.014-.133.04-.2.014-.053.027-.107.054-.16.013-.013.013-.027.026-.04 0 0 0-.013.014-.013a.2.2 0 0 1 .053-.04h.013c.014-.014.04-.014.067-.027 0 .053 0 .093.013.147 0 .026.014.053.014.066-.04.027-.067.054-.107.067-.013-.013 0-.027-.013-.027 0 .014-.014.014-.014.027s.014.027.014.04v.093c0 .014-.014.067-.014.094v.04c-.04-.014-.106-.027-.146-.04-.027 0-.027-.014-.014-.027m-.04.147c.067 0 .12.026.16.053v.013c-.053-.026-.106-.04-.16-.066m-.32.12v-.014l.014-.013c0-.013 0-.027.013-.027.067.014.147.027.213.054.014 0 .027.013.04.013s.027.027.027.027h.027c.026-.027-.014-.054-.04-.054v-.026h.026c.04.013.094.026.12.04-.013.053-.04.08-.053.133-.013.013-.027.053-.053.053-.014 0-.054-.013-.067-.013-.027 0-.04-.013-.067-.013-.026 0-.04-.014-.053-.027a2 2 0 0 1-.173-.08c0-.04.026-.04.026-.053m-.013-.094h.013c-.013 0-.026.027-.013.04-.013.014-.013.014-.013.027-.014 0-.014.013-.014.027l-.013.013v.013c-.013 0-.013.014-.027.027 0 0 0-.013-.013-.013.04-.04.053-.094.08-.134m-.04-.026h.013c.014.026 0 .053-.013.08-.013.013-.027.053-.04.053s-.027 0-.027-.013l.027-.027c0-.013.027-.053.04-.093m-.32-.227c.013 0 .013.013.013.013l.04.04c-.013-.013-.04 0-.053-.013 0-.013-.013-.04 0-.04m.107.107c-.014 0-.027-.014-.04-.014-.027-.013-.067 0-.08 0-.014-.066.133-.04.12.014m-.12 0s.026 0 .026-.014c.027 0 .04.014.067.027.013.013.027.013.027.027 0 .013-.014.013-.027.013-.027 0-.04-.013-.067-.013-.013 0-.013.013-.026.013zm.013.053c.013-.013.053-.013.08 0 .013 0 .027.013.027.027-.027 0-.067-.014-.094.013-.013-.013-.013-.027-.013-.04m.053.053c-.013 0-.013.014-.013.027-.013 0-.027-.04 0-.053.027-.014.08 0 .08.026-.013.014-.053 0-.067 0m.04.027c0-.013.027-.013.027-.027 0-.013-.013-.013-.013-.026.013 0 .013.013.026.026 0 0 .027.027.04.027s.04 0 .027-.027c-.013 0-.027 0-.04-.013s-.027-.04-.04-.053c.013-.014 0-.027-.013-.04 0-.027 0-.04-.014-.054.027.014.04.014.067.027.04.027.067.053.067.107.013.013.04.013.04.026-.014.04-.014.067-.04.08-.014-.013-.027-.026-.054-.04-.013.014-.08.014-.093 0 .027.027.013 0 .013-.013m.32 1.307c-.026-.134-.066-.267-.093-.414-.013-.04-.013-.066-.027-.106-.013-.04-.013-.067-.026-.107-.04-.2-.107-.413-.147-.613a.2.2 0 0 0 .093.013c0 .027 0 .053.04.053 0 .014 0 .027.014.04.026 0 .04 0 .053-.013.12.053.227.107.373.133 0 .147-.013.294-.013.454 0 .053-.013.106-.013.16 0 .093-.014.2-.014.293-.013.067-.013.147-.026.213v.08c0 .027-.014.054 0 .067l.013.013c.027.027.08.04.12.067v.027l-.24.04a4 4 0 0 0-.107-.4m.2 1.56a.1.1 0 0 1 .027.053c-.013-.013-.013-.04-.027-.053m.04-.214c-.04.014-.093.014-.133.027h-.067c-.04 0-.066 0-.093-.013-.013-.014-.027-.014-.04-.027s-.027-.027-.013-.067v-.026c0-.014.013-.014.013-.027s-.013-.027-.013-.027c-.027 0-.04 0-.04.014v.013l-.014.013h-.026c-.014 0-.027 0-.04-.013a.16.16 0 0 1-.067-.067c0-.026-.013-.026-.013-.053 0-.013 0-.04.013-.053 0-.014.027-.027.013-.054l-.013-.013c0-.013 0-.013-.013-.027-.014 0-.027 0-.027.014-.013.013-.013.053-.027.066v.107c0 .027.014.027.027.053.013.014.027.04.053.054.014.013.054.026.054.053.013 0 .026.013.053.027.013.013.053.013.067.04.013 0 .04.013.053.026.067.027.12.054.187.08.026.014.053.027.066.04l.04.04c-.013 0-.026-.026-.04-.013 0 .013.014.027.027.04v.013l.013.014c-.013 0-.013-.014-.026-.027 0-.013-.014-.013-.027-.013v.013l-.013-.013c-.014.013.013.026.013.026-.013 0-.013-.013-.027-.013v.013s0-.013-.013-.013v.027c0 .013.013.013.013.026 0 .04-.013.08 0 .107-.026-.027-.013-.067-.013-.107a.1.1 0 0 0-.027-.053.5.5 0 0 0-.24-.147c-.013-.013-.053-.013-.08-.026a.7.7 0 0 1-.173-.067.16.16 0 0 1-.067-.067c-.013-.013-.026-.04-.04-.053-.013-.013-.013-.027-.013-.053v-.12c0-.04.027-.107.04-.134.013-.04.04-.066.067-.093.026-.027.053-.053.08-.093.026-.04.04-.08.08-.107a.3.3 0 0 1 .066-.04.6.6 0 0 1 .227-.067c.04.147.08.307.12.454 0 .026.013.04.013.066-.026 0-.093-.026-.106-.013-.027.013 0 .04.026.04H66c-.013 0-.027.013-.04.013h-.013a.03.03 0 0 0-.027.027c-.013.013 0 .04.027.027l.04-.04a.4.4 0 0 1 .12-.027c.013.067.026.12.04.187-.04 0-.094.013-.134 0-.026-.014-.04-.014-.066 0l.013.013c0 .027-.04.013-.04 0-.013.027.027.053.067.067H66c.053 0 .12-.014.16-.027.013.053-.013.053-.027.053m.094-.026c0-.014.013-.014.013-.014.053-.013.12-.013.187-.026h.013c-.067.026-.147.026-.213.04m.16-.067c-.067 0-.12 0-.174.013-.013-.066-.026-.12-.04-.186.067 0 .134.013.2.013.014.013.014.013.014.027.013.013.026.026.04.026l.026.027.014.013.026.027c-.013.013-.026.013-.04.027-.013.013-.04.013-.066.013m.146.12c0-.013.027-.013.027 0 0 .027-.04.027-.027 0m.174-.12c-.014.027-.014.053-.04.08h-.014c-.026.013-.026.08-.066.053-.014-.026.026-.026.04-.013 0-.013-.014-.013-.04-.013 0-.027.026-.04.04-.054v-.013c-.014-.013-.027 0-.027.013 0 .014-.027.027-.027.04-.013.014-.013.027-.026.014 0-.04.026-.04.04-.067v-.013c-.027 0-.014.026-.04.04-.014.013-.014.04-.027.053h-.013v-.013l.013-.014c-.013-.026.013-.053.027-.066-.014-.027-.04.026-.04.04 0 .013 0 .026-.014.026-.013 0 0-.04 0-.053s.014-.013.027-.027c-.013 0-.027.014-.027.014s0 .013-.013.013 0-.013 0-.027c.013-.013.013-.026.04-.026.013 0 .013-.014.013-.027.014-.013.067 0 .094 0 .013 0 .04 0 .053.013.013 0 .04 0 .04.014 0 0-.013 0-.013.013m.106-1.027c0 .134-.013.267-.013.4 0 .16-.013.32-.027.454-.026 0-.053-.014-.093-.027-.04 0-.067-.013-.107-.013.054-.174.107-.347.147-.547.027-.12.053-.227.067-.347.026.014.026.067.026.08m-.04-.16c-.013.027-.04.04-.053.067-.013.013-.013.027-.027.027.067-.174.147-.347.2-.534l.08-.28q.04-.16.04-.32c.014.014.027.027.027.054.027.066.04.133.053.2.014.053.014.093.014.146v.16c0 .027-.027.054-.04.08s-.027.054-.054.08c-.026.054-.066.094-.106.147zm.174.414a1.7 1.7 0 0 1 0-.374V21.2c0-.027 0-.053.026-.08.014-.013.027-.013.04-.027l.027-.026c0-.014.013-.04.013-.054.014.254-.026.427-.053.654 0 .066-.013.12-.013.186-.027-.04-.027-.133-.04-.226m.04.44c-.014 0-.027 0-.04.013a4 4 0 0 1-.067-.4c-.013-.147-.027-.293-.027-.44.014 0 .014-.013.027 0s.013.08.013.107c0 .106.014.226.014.333 0 .067.013.147.026.213.014.054.04.12.054.174m-.16.093c0-.16.013-.333.013-.507.013 0 0 .014 0 .027.013.067.013.147.027.213.013.08.04.147.04.227-.014.013-.04.013-.054.013 0 .014-.013.027-.026.027m.4.253c-.027-.013-.054-.04-.094-.053h-.04c0 .013.014.013.027.013.027 0 .053.014.067.027.013 0 .026.013.026.027-.013.026-.053-.014-.053-.027-.013 0-.013-.013-.027-.013h-.026c-.014 0-.014 0-.027-.014 0 .027.053.014.067.04v.014l.013.013v-.013c.04-.014.04.026.013.04-.026.013-.053-.014-.066-.014h-.094c-.026 0-.04-.026-.053-.04a.1.1 0 0 0-.067-.026l.04-.08c.014-.014.067-.04.094-.027.013 0 .04.013.053.013s.013.014.027.014c.013.013.013.026.026.026a.2.2 0 0 0 .08.014c.014 0 .014 0 .014.013 0 0 0 .013-.014.013-.013 0-.013-.013-.013-.013-.013-.013-.053-.013-.08-.013 0 0 .013 0 .013.013.04.013.067.027.094.04-.014 0 .013 0 0 .013m.933-.093c.013.027.027.04.027.067-.014.013-.014.026-.027.026 0-.013 0-.04-.013-.04 0 0 0 .014-.014.014-.013 0-.013-.014-.026-.014 0 .014.013.027.013.04 0 .04-.027.054-.053.054 0-.014.026-.014.026-.027s-.013-.027-.026-.04c-.014 0 0 .013-.014.013-.013 0-.013-.026-.04-.013q.021.02 0 .04c-.013.013-.04.013-.053.013-.027 0-.053 0-.08-.026-.013-.014-.013-.027-.027-.04-.013-.014-.026-.014-.04-.027-.013 0-.013-.013-.013-.027-.013-.013-.027-.013-.04-.026-.04-.014-.107-.04-.16-.04-.093-.014-.2 0-.28-.027-.027 0-.067-.013-.093-.013-.04 0-.067.013-.094 0-.026 0-.04-.027-.053-.054-.013-.066-.013-.133-.053-.186a.09.09 0 0 1 0-.08c0-.027.013-.054.013-.08s0-.054.013-.08a.3.3 0 0 1 .04-.12c.014 0 .027.026.027.026.027.014.053.027.067.04.013 0 .013.014.026.027.027.053.014.12.04.173 0 .014.014.014.014.027-.027 0-.067 0-.08.027.013.026.053 0 .08 0a.15.15 0 0 1 .08.026c.013.014.026.04.053.04.027.014.08.014.12.014s.093.013.12.013c.053.013.12.04.16.053.013 0 .013 0 .027.014.013 0 .013.013.026.013.014.013.04.013.067.013s.04.014.067.014c.013.013.04.013.066.026.014 0 .014.014.027.014h.04c.013 0 .027.013.04.026.027.014.04.04.053.067-.026.053-.026.027-.053.04m.267-.013c-.014-.014-.04-.014-.054-.014-.026 0-.066-.013-.093-.013s-.067-.013-.093-.013c.013-.014.053-.014.08-.014.053 0 .146 0 .16.027zm.213-.08c.013.013.027.026.027.04 0 0 0 .013-.014.013-.013 0-.013-.04-.053-.04 0 0-.013 0-.013.013-.014.027.053.04.026.08 0 .014-.026.014-.053.014 0-.014.013-.014.013-.027 0-.027-.04-.053-.066-.027 0 .027.026.04.013.054a.04.04 0 0 1-.053 0h.026l.014-.014c0-.013-.014-.013-.027-.026l-.027-.027c0-.053-.04-.053-.093-.067-.08 0-.16-.013-.24-.026 0-.04-.027-.04-.053-.054-.04-.013-.08-.013-.12-.026a.1.1 0 0 1-.054-.027c0-.013.027-.027.04-.04.04-.027.08-.053.12-.093.08.013.134.053.2.08.014.013.04.013.054.026.013.014.04.014.053.027.08.027.2 0 .267.04.026.013.04.04.04.067-.014 0-.014-.04-.027-.04s-.013.013-.013.013c0 .053 0 .067.013.067m-.707.146c-.026-.013-.04-.04-.053-.066 0 0-.013-.014-.027-.014-.013 0-.013-.013-.026-.013-.027-.013-.054-.013-.08-.027h-.027c-.013 0-.027-.013-.04-.013-.04-.013-.093 0-.133-.013-.067 0-.134-.014-.2-.027-.027 0-.067-.013-.094-.013-.013 0-.013-.014-.026-.014h-.067c-.013 0-.013.014-.027.014-.013 0-.013-.027-.04-.014-.013.014-.013.027-.013.04 0 0 .027.014.027.027.013.013.026 0 .04-.013.053-.014.106.013.146.013.12.013.267.013.374.04.013 0 .04 0 .053.013.053.014.08.054.12.067.027.027.04.053.08.067.027 0 .053 0 .053-.014.04-.04-.013-.026-.04-.04M66.68 18.96h.013c.014 0 .04.013.054 0 .026-.013 0-.053 0-.08 0-.013 0-.027.013-.04 0 0 .053.027.093 0 0 0 .014 0 .014-.013v-.014s-.014.014-.014 0c-.026-.013-.04-.026-.066-.013-.027 0-.04.013-.04.013-.014-.04.08-.053.106-.026 0-.014-.013-.027-.013-.027-.027-.027-.093 0-.107.013-.013.014-.013.08-.013.107 0 .013.013.013.013.04 0 .013 0 .013-.013.027-.013 0-.04-.014-.04.013m.133-.147c.014.014 0 .014 0 0 .014 0 .014 0 .014.014 0 0-.014.013-.027.013.013 0 .027 0 .013-.027q.021.021 0 0m-.026 0q0 .021 0 0v.027c-.027 0-.04-.013-.04-.013s.026 0 .04-.014m-.214.04s.027.014.04.014c.054 0 .067-.04.067-.04 0-.04-.027-.067-.053-.067-.014 0-.04 0-.04.013-.014.014-.027.027-.027.04.013 0 .04-.026.08-.013.027 0 .04.027.027.04-.014-.013-.014-.013-.027-.013-.04-.014-.067.013-.08.026h-.013c0-.013.013-.013.026 0m.054-.04s.013 0 .026.014c0 0-.013.013-.026.013 0 0 .013 0 0-.027q.02.021 0 0m-.027 0q0 .021 0 0v.027c-.027 0-.04-.013-.04-.013s.027 0 .04-.014"/><path fill="#EF7D00" d="M66.707 2.427 64.733 17.24l1.974-1.053zM62.493 19.28l-7.613-2.493 8.053 4.64zm16.04-2.493-9.16.986 1.56 1.494zm-9.186 7.426 4.84 6.547-3.947-8.493zm-10.12 6.547 7.04-6.24-2.2-.32zm7.76-6.387 2.24-.32.906-2.013zm-3.694-2.333.894 2 2.253.32zm1-4.2-1.6 1.493.44 2.174zm4.84 0 1.6 1.493-.453 2.174zm-.426-.333-2-1.08-2 1.08z"/></g><defs><clipPath id="clip0_3802_8468"><path fill="#fff" d="M0 0h80v40.253H0z"/></clipPath></defs></svg>