<svg fill="none" viewBox="0 0 80 23"><g clip-path="url(#clip0_3802_10679)"><path fill="#DD4140" d="M37.01 8.298c-.637 0-1.146-.052-1.636-.224-.161-.057-.266-.019-.366.105a11 11 0 0 0-1.38 2.293c-.09.2-.066.304.134.432a.96.96 0 0 1 .385 1.142c-.142.39-.585.68-.994.656-.414-.024-.79-.352-.894-.78a.97.97 0 0 1 .438-1.042c.175-.104.175-.2.104-.356-.385-.847-.894-1.617-1.45-2.36-.096-.128-.19-.132-.338-.09-1.18.343-2.345.31-3.487-.166a2.26 2.26 0 0 1-.975-.733c-.432-.575-.256-1.293.405-1.564.77-.32 1.56-.2 2.345-.024.984.214 1.74.804 2.444 1.484.305.295.3.304.633.052.185-.138.433-.257.504-.466.086-.247-.224-.352-.342-.533-.98-1.465-1.346-3.03-.8-4.751a2.3 2.3 0 0 1 .595-.966c.628-.609 1.446-.528 1.931.195.604.9.737 1.898.59 2.944-.152 1.09-.561 2.07-1.299 2.902-.076.085-.095.142-.014.228.048.052.086.114.129.166.432.514.547.514 1.036.072.933-.842 1.979-1.456 3.273-1.503.504-.02 1.003.033 1.465.285.57.31.727 1.028.342 1.55-.319.438-.78.652-1.275.814a5 5 0 0 1-1.512.247m-4.856-4.975c.019 1.023.418 1.912.946 2.759.114.18.167.038.229-.048.451-.642.751-1.35.884-2.126.12-.68.062-1.346-.333-1.945-.409-.618-.956-.613-1.365.01-.266.409-.376.86-.361 1.35m4.78 4.7c.223-.015.433-.024.642-.043.495-.038.946-.176 1.298-.547.181-.195.324-.405.233-.67-.09-.262-.328-.348-.58-.362-1.217-.081-2.202.409-3.03 1.27-.147.152 0 .18.1.204.443.114.895.119 1.332.152m-7.277-.019c.371 0 .742-.014 1.108-.095.176-.038.219-.1.076-.247-.475-.495-1.022-.875-1.674-1.08-.504-.162-1.022-.219-1.546-.11-.418.091-.537.429-.276.766.105.134.243.238.381.343.58.433 1.27.38 1.936.423m3.534 1.19c.247-.476.447-.919.732-1.318.228-.314.224-.31-.08-.528a7 7 0 0 1-.524-.404c-.09-.081-.157-.11-.252-.01-.195.205-.438.352-.67.504-.115.076-.139.143-.048.262.333.447.632.918.842 1.489"/><path fill="#171717" d="M1.082 10.186v.119c-.02.214.1.547-.053.623-.266.138-.608.048-.918.038-.161-.005-.1-.152-.1-.238V8.37c0-2.169.005-4.342-.009-6.52 0-.229.057-.305.285-.276.257.033.6-.11.752.057.128.142.043.475.043.727V5.71c.204-.266.347-.49.551-.67 1.18-1.018 3.639-.823 4.134 1.441.242 1.099.214 2.197-.324 3.22-.599 1.151-1.864 1.688-3.12 1.35-.514-.137-.908-.442-1.241-.865m0-2.302v.576c.024.865.604 1.583 1.422 1.76.851.18 1.655-.224 2.026-1.037.342-.747.39-1.537.233-2.331-.086-.438-.271-.842-.637-1.132-.951-.742-2.378-.347-2.844.775-.186.447-.224.913-.2 1.39"/><path fill="#161717" d="M22.019 7.97c0 .927-.005 1.83 0 2.74 0 .199-.038.294-.262.27-.247-.028-.58.105-.723-.057-.123-.133-.043-.456-.043-.699q.001-4.175-.004-8.342c0-.252.062-.319.314-.314.718.014.718 0 .718.708v5.29l1.488-1.622c.38-.414.766-.823 1.142-1.242.052-.057.095-.095.176-.095h1.241c-.413.428-.77.8-1.127 1.175-.57.594-1.141 1.189-1.717 1.774-.114.114-.085.185.014.29.994 1.013 1.979 2.03 2.968 3.044.01.01.005.033.014.076h-1.265c-.119 0-.17-.076-.242-.152q-1.243-1.355-2.492-2.702c-.053-.057-.081-.138-.21-.157m-11.215 2.179a2.2 2.2 0 0 1-1.398.965c-.856.186-1.817-.123-2.226-.727-.761-1.128-.152-2.673 1.208-3.044.68-.186 1.389-.214 2.083-.32.423-.066.428-.06.376-.489-.09-.77-.528-1.165-1.303-1.17q-.315 0-.628.071a3.36 3.36 0 0 0-1.408.714v-.99c0-.109.071-.133.138-.17.951-.524 1.955-.676 2.996-.367.723.214 1.09.78 1.223 1.508.047.266.061.537.057.808 0 1.27-.005 2.54 0 3.805 0 .2-.053.271-.248.248-.266-.034-.618.123-.77-.072-.124-.161-.024-.494-.024-.756l-.076-.019m.067-1.826q0-.5-.466-.447c-.039.004-.081.004-.12.009-.603.08-1.222.1-1.788.362-.376.17-.518.49-.547.87-.028.38.1.718.428.937.51.342 1.394.252 1.855-.157.485-.433.68-.975.642-1.574m64.714-2.207c0-.233.028-.41-.005-.571-.08-.4.133-.561.461-.704a4.1 4.1 0 0 1 2.445-.276c.78.152 1.341.794 1.46 1.646.034.257.053.523.053.785.004 1.25 0 2.497.004 3.747 0 .195-.043.272-.247.257-.252-.019-.57.081-.737-.038-.18-.128-.038-.466-.067-.713-.005-.043.02-.1-.057-.148-.223.314-.475.604-.823.795-.803.447-2.112.28-2.668-.338-.732-.813-.68-2.659.937-3.172.57-.181 1.17-.19 1.75-.295.238-.043.476-.081.719-.105.142-.014.166-.09.156-.2-.08-.922-.432-1.564-1.678-1.407a3.6 3.6 0 0 0-.895.247c-.28.114-.518.29-.813.48m3.372 2.179q0-.48-.485-.424l-.152.015c-.59.09-1.199.09-1.76.356-.4.19-.537.514-.542.928-.01.409.123.746.513.946.452.229.914.21 1.37.034.704-.272 1.061-.909 1.056-1.85M62.975 4.479c1.479-.015 2.416.409 2.958 1.465.423.818.504 1.717.324 2.615-.438 2.198-2.64 3.249-4.643 2.226-.656-.333-1.089-.87-1.331-1.564-.328-.956-.3-1.917.033-2.864a2.82 2.82 0 0 1 2.659-1.878m-1.86 3.1c-.01.686.057 1.085.214 1.466.333.832 1.075 1.26 2.112 1.212.808-.033 1.436-.528 1.684-1.355a3.74 3.74 0 0 0 .019-2.107q-.346-1.283-1.675-1.446a2.03 2.03 0 0 0-2.011.985 2.56 2.56 0 0 0-.343 1.246"/><path fill="#171717" d="M14.818 5.615c.437-.585.96-1.003 1.684-1.108 1.445-.214 2.416.542 2.535 1.974.119 1.427.028 2.858.047 4.29 0 .152-.033.205-.2.214-.841.033-.841.043-.841-.808 0-1.109.014-2.212-.024-3.32-.02-.538-.181-1.051-.714-1.346-.875-.485-2.045.052-2.373 1.094a3 3 0 0 0-.119.865c0 1.08-.01 2.155.005 3.234 0 .234-.067.281-.286.281-.737-.01-.737 0-.737-.728 0-1.783.005-3.567-.005-5.35 0-.248.072-.3.305-.3.718.014.718 0 .718.713v.295z"/><path fill="#161717" d="M40.316 4.63c.057-.009.076-.018.095-.018.333 0 .723-.1.975.043.238.138.252.56.357.86.452 1.28.908 2.56 1.355 3.843.072.21.11.429.181.733.105-.633.333-1.146.519-1.674.437-1.227.88-2.445 1.322-3.672.038-.11.11-.147.228-.143.29.01.585 0 .894 0-.042.262-.17.476-.256.704l-2.188 5.489c-.029.076-.034.171-.138.171-.29.005-.585.014-.875 0-.134-.01-.129-.166-.162-.261Q41.568 7.93 40.52 5.153c-.062-.166-.129-.333-.2-.528m18.93 5.437c0 .195-.018.348 0 .495.058.323-.109.457-.394.509-.338.062-.68.086-1.018.014-.67-.142-1.099-.623-1.184-1.308-.086-.685-.038-1.37-.048-2.054-.01-.666-.005-1.332 0-1.998 0-.162-.028-.247-.21-.219-.07.01-.142 0-.213 0-.733 0-.733 0-.675-.728.009-.133.056-.18.18-.166h.12c.256-.019.598.114.75-.052.129-.143.039-.476.043-.728 0-.062-.004-.124 0-.18.024-.196-.1-.472.062-.571.257-.157.58-.215.88-.29.138-.039.09.1.09.166 0 .475.01.946 0 1.422-.004.185.038.247.233.238.381-.014.766.005 1.147-.01.19-.005.238.057.238.243 0 .656.01.656-.633.656-.252 0-.504.014-.756 0-.195-.014-.233.062-.229.243.01 1.117 0 2.235 0 3.358v.209c.072.813.671 1.165 1.423.832.042-.019.09-.038.18-.076"/><path fill="#171717" d="M54.746 5.815c-.361-.195-.699-.376-1.08-.433-1.393-.214-2.53.695-2.625 2.107-.047.728.02 1.422.48 2.031.676.885 2.07.928 2.983.357.071-.043.119-.138.252-.119v.8c0 .108-.052.16-.138.204-1.303.651-3.534.608-4.376-1.384-.542-1.28-.347-3.12.814-4.143.784-.695 1.73-.866 2.734-.737.98.123 1.014.195.952 1.312"/><path fill="#9DBF58" d="M72.968 18.486c-.295.209-.58.433-.89.618-.48.29-.89.28-1.175.014-.27-.256-.318-.76-.08-1.212.551-1.047 1.498-1.465 2.616-1.575.29-.028.58.029.875.048.2.014.214.066.114.233a8.5 8.5 0 0 0-.78 1.693c-.043.138-.157.31-.024.423.124.105.276-.047.419-.076.123-.024.242-.252.356-.085.1.147-.204.109-.185.309.19.071.323-.057.428-.205.338-.475.609-.994.899-1.498.618-1.07 1.103-2.216 1.898-3.182.423-.514.889-.956 1.555-1.137.651-.176.86.19.98.709.01.052.01.105-.048.128-.067.024-.11-.01-.148-.066-.36-.59-.613-.633-1.165-.219-.813.609-1.35 1.432-1.807 2.312-.224.437-.476.86-.633 1.331-.01.015-.028.038-.023.048.019.033.047.024.07.005.4-.229.748-.543 1.176-.733.328-.147.651-.219.97.015.295.213.357.47.204.85-.152.377-.4.695-.618 1.033-.066.1-.138.2-.195.304-.047.09-.157.186-.071.3.08.11.2.057.304.033.062-.014.152-.071.18.024.03.09-.06.152-.137.166a2 2 0 0 1-.476.058c-.28-.01-.556-.076-.841-.034-.11.015-.19-.047-.276-.195.47.129.59-.242.79-.49.342-.432.708-.851.889-1.388.147-.448-.038-.657-.51-.571a1.54 1.54 0 0 0-.66.28 5.04 5.04 0 0 0-1.513 1.774c-.052.1-.152.234-.019.329.129.09.266.014.385-.076.072-.053.105-.257.238-.1.1.119-.043.2-.119.261-.152.124-.328.22-.518.224-.319 0-.628.01-.947.104-.257.081-.247-.218-.328-.413-.261.123-.513.261-.775.37-.152.063-.333.172-.48.03-.143-.139 0-.3.037-.448.024-.095.058-.19.09-.285l.025-.062-.057.029m-1.603-.105c-.02.476.257.647.694.447.88-.4 1.29-1.165 1.594-2.017.052-.142-.02-.161-.138-.19-.966-.247-2.112.685-2.15 1.76"/><path fill="#171717" d="M69.01 5.825c.134-.233.21-.5.39-.71.443-.503 1-.689 1.656-.58.104.02.19.043.19.181-.005.3 0 .6 0 .909-1.284-.533-2.15.338-2.25 1.64-.085 1.095-.019 2.193-.033 3.292 0 .414 0 .414-.414.414q-.628 0-.628-.623V4.907c0-.224.038-.338.295-.305.238.029.552-.071.7.053.156.128.023.456.056.694.02.162-.071.333.048.485l-.038-.028c0 .014-.01.028-.014.038l.047-.02"/><path fill="#9DBF58" d="M53.78 19.185c-.789-.024-1.507-.243-2.078-.823-.352-.357-.518-.79-.413-1.298.176-.875.984-1.294 1.793-.933.1.048.242.096.214.22-.033.151-.176.07-.28.056-.9-.133-1.385.51-1.1 1.437a1.51 1.51 0 0 0 1.066 1.06c.732.214 1.46.162 2.13-.228.724-.414.942-1.327.548-2.15-.281-.58-.757-.984-1.199-1.422-.2-.2-.37-.423-.5-.675-.423-.847.015-1.617 1.042-1.713.41-.038.8.081 1.156.286.361.204.514.57.39.884-.052.134-.124.234-.29.186-.152-.048-.276-.128-.304-.3-.02-.119.085-.119.157-.138.156-.038.175-.133.09-.242-.285-.362-1.06-.657-1.517-.276-.329.276-.405.542-.22.927.205.429.543.747.885 1.061.452.41.804.88.942 1.48.228.989-.276 1.925-1.246 2.349a3 3 0 0 1-1.265.252"/><path fill="#171717" d="M47.346 7.808c0-.975.005-1.955 0-2.93 0-.21.047-.271.266-.271.756.005.756 0 .756.747 0 1.783-.004 3.562.005 5.346 0 .238-.066.3-.285.276-.238-.024-.557.1-.695-.053-.119-.123-.038-.437-.038-.67v-2.45m26.041.01c0 .965-.005 1.93 0 2.896 0 .205-.043.3-.262.271-.247-.028-.575.11-.718-.057-.124-.138-.043-.461-.043-.699q.001-2.639-.005-5.284c0-.247.034-.347.319-.338.709.024.709.01.709.704z"/><path fill="#9DBF58" d="M58.813 18.614c-.266.19-.457.357-.675.476-.367.204-.709.166-.98-.072-.276-.247-.338-.527-.171-.865.123-.252.304-.471.47-.7q.248-.332-.137-.432c.066-.171.242-.2.366-.29.214-.153.466-.238.704-.343.08-.033.171-.1.247-.01.071.086.052.191-.01.281-.133.19-.261.38-.399.566-.247.333-.476.676-.628 1.061-.062.157-.114.328.038.476.162.157.338.104.504.023.633-.309 1.061-.856 1.513-1.37q.4-.452.785-.917c.071-.086.147-.162.304-.157-.095.285-.29.5-.437.737-.48.78-.823 1.631-1.29 2.42-.499.852-1.046 1.67-1.85 2.284-.285.219-.59.385-.937.466-.423.1-.765-.08-1.06-.366-.086-.081-.143-.19-.095-.324.78.552 1.389.466 2.054-.257.714-.77 1.185-1.688 1.689-2.692m4.347-.18c-.357.247-.647.466-.951.66-.447.29-.904.305-1.18.063-.266-.238-.328-.719-.128-1.185.319-.732.922-1.15 1.64-1.422.619-.233 1.256-.247 1.908-.162.19.024.19.077.095.22-.37.58-.623 1.212-.837 1.864-.029.085-.076.18 0 .257.086.09.19.033.28-.005.139-.062.272-.133.41-.195.066-.034.123 0 .152.052.033.067-.034.086-.072.105-.375.233-.756.466-1.18.604-.104.033-.227.066-.318-.015-.095-.09-.052-.209-.019-.313.053-.162.12-.314.205-.528m-1.674-.02c-.005.481.247.643.675.429.347-.172.642-.405.904-.69.361-.39.48-.899.704-1.355.066-.138-.043-.138-.134-.162-1.013-.247-2.135.68-2.15 1.779"/><path fill="#9DBF58" d="M64.273 19.085c.609-.176.88-.637 1.118-1.137.195-.404.4-.803.6-1.203-.03-.024-.044-.043-.058-.048-.08-.028-.204.076-.242-.038s.085-.17.175-.209c.234-.1.476-.152.728-.185.048-.005.129-.015.143.014.195.29.4.105.604.014a.9.9 0 0 1 .409-.09c.247.019.495.047.576.337.066.229-.134.59-.367.71-.104.051-.214.085-.309.004-.11-.09-.052-.2-.014-.305.033-.09.128-.17.033-.27-.09-.096-.204-.1-.333-.077-.47.086-.785.395-1.056.752-.29.385-.513.818-.699 1.26-.1.238-.052.285.205.252.071-.01.161-.104.209.005.047.105-.029.19-.1.266a.15.15 0 0 1-.076.043 4.2 4.2 0 0 1-1.546-.1m3.648.029c.894-.476 1.09-1.356 1.465-2.126-.095-.057-.133-.02-.176 0-.066.033-.138.071-.185-.01-.048-.076-.02-.157.047-.214.124-.11.271-.176.419-.233.204-.08.409-.171.613-.247.076-.029.167-.105.243 0 .067.09.019.18-.024.257-.271.485-.542.96-.818 1.44-.105.186-.228.358-.323.548-.124.257-.053.366.228.37.067 0 .119-.009.133.072.014.105-.024.186-.128.205a.65.65 0 0 1-.414-.034.73.73 0 0 0-.666.005c-.105.052-.228.062-.409-.033m3.068-4.195c0 .28-.2.518-.433.523-.243 0-.466-.257-.457-.537.01-.267.224-.524.438-.533.238-.005.452.257.452.547"/><path fill="#fff" d="M76.226 17.092c-.024.014-.053.029-.072-.01 0-.009.015-.028.024-.042zm-3.258 1.394.057-.029-.024.062zM69.01 5.825l-.047.019c.005-.015.01-.024.014-.038.014.01.024.019.038.028v-.01"/></g><defs><clipPath id="clip0_3802_10679"><path fill="#fff" d="M0 0h79.997v22.276H0z"/></clipPath></defs></svg>