<svg fill="none" viewBox="0 0 80 14"><g fill-rule="evenodd" clip-path="url(#clip0_3802_10861)" clip-rule="evenodd"><path fill="#ED3338" d="M3.927.003h2.652L9.394 0l3.823 3.89-.046 5.457-3.892 3.824-5.455-.048L0 9.233l.048-5.456L2.997.88v9.271h7.236V2.875H4.755v5.477h3.607V4.764H5.715v-.94h3.567V9.24H3.927z"/><path fill="#383336" d="M19.35 6.184q.84 0 1.24-.187a1.4 1.4 0 0 0 .611-.528q.212-.34.213-.868 0-.528-.21-.865a1.3 1.3 0 0 0-.6-.513q-.389-.174-1.253-.17zm0 .456v2.84q0 .316.159.478.157.16.469.161.462 0 .85-.208a1.4 1.4 0 0 0 .596-.601q.207-.395.208-.879 0-.554-.232-.995a1.3 1.3 0 0 0-.688-.621q-.455-.18-1.36-.174zm2.136-.298q1.137.264 1.595.64.66.533.66 1.384 0 .897-.72 1.485-.886.71-2.572.71h-4.037v-.204q.552 0 .748-.104a.6.6 0 0 0 .275-.268q.08-.165.08-.815V4q-.001-.648-.08-.818a.6.6 0 0 0-.278-.268q-.2-.1-.745-.1V2.61h3.81q1.367 0 1.934.242.568.243.898.727.328.484.328 1.028 0 .576-.42 1.022-.42.449-1.476.711zm7.458 1.599L27.76 5.233l-1.214 2.708zm.189.432h-2.78l-.348.775q-.165.391-.165.646 0 .339.27.499.157.095.78.143v.204h-2.64v-.204a1.18 1.18 0 0 0 .703-.358q.275-.294.679-1.212l2.836-6.334h.112l2.866 6.51q.409.935.674 1.179.199.184.562.213v.205h-3.84v-.205H29q.46 0 .65-.13a.32.32 0 0 0 .128-.274.8.8 0 0 0-.034-.22 6 6 0 0 0-.177-.447l-.433-.992zm6.672-5.853 3.915 4.926V4.032q-.001-.723-.205-.977-.284-.343-.945-.332V2.52h2.626v.204q-.504.065-.677.169a.68.68 0 0 0-.27.337q-.095.234-.096.8v6.621h-.198L34.59 4.023V9.09q0 .69.314.934.315.242.72.242h.188v.203h-2.83v-.203q.659-.005.917-.272.258-.264.258-.904V3.47l-.167-.206q-.253-.324-.445-.425-.194-.102-.557-.113V2.52zM46.49 5.66l2.786 3.5q.591.742 1.02 1.007.31.188.656.188v.204h-4.128v-.204q.392-.037.508-.124a.27.27 0 0 0 .113-.22q0-.25-.538-.935l-1.819-2.287-.297.24v2.176q0 .626.07.778.071.154.27.263.2.11.641.109v.204h-4.005v-.204h.262q.345 0 .556-.124a.54.54 0 0 0 .234-.284q.064-.141.063-.744V3.964q0-.614-.063-.766a.6.6 0 0 0-.26-.268q-.195-.117-.53-.116h-.263V2.61h3.946v.204q-.402 0-.614.119a.56.56 0 0 0-.239.278q-.07.148-.07.755v2.481l2.955-2.38q.614-.507.614-.81 0-.227-.251-.358-.13-.066-.638-.085V2.61h3.093v.204q-.416.03-.653.152-.238.12-1.092.823l-2.324 1.872m13.05 2.191 2.172-5.242h3.216v.204h-.256q-.351 0-.56.126a.57.57 0 0 0-.234.28q-.065.143-.066.746v5.24q0 .615.066.767.064.154.263.268.199.116.531.116h.256v.204h-4.138v-.204h.258q.35 0 .56-.124a.57.57 0 0 0 .234-.284q.064-.142.064-.744V3.32l-3.054 7.24h-.14L55.62 3.375v5.59q0 .59.03.726.074.294.33.48.258.186.802.186v.204h-2.721v-.204h.082q.264.005.493-.086a.8.8 0 0 0 .348-.246q.117-.155.182-.432.013-.064.012-.603V3.964q.001-.614-.064-.766a.6.6 0 0 0-.264-.268q-.2-.117-.535-.117h-.253v-.205h3.241l2.242 5.242m10.385.091-1.184-2.708-1.214 2.708zm.19.432h-2.78l-.347.775q-.164.391-.164.646 0 .339.268.499.157.095.78.143v.204h-2.642v-.204a1.18 1.18 0 0 0 .704-.358q.275-.294.679-1.212l2.836-6.334h.112l2.866 6.51q.41.935.674 1.179.198.184.562.213v.205h-3.84v-.205h.158q.46 0 .65-.13a.32.32 0 0 0 .128-.274.7.7 0 0 0-.036-.22 7 7 0 0 0-.175-.447l-.433-.992zm9.328-5.943.06 2.65h-.24q-.17-.994-.836-1.6-.667-.606-1.44-.606-.6 0-.948.32-.349.32-.349.734 0 .264.122.468.171.275.545.545.277.194 1.272.684 1.395.687 1.883 1.295.48.609.48 1.392 0 .996-.778 1.713-.776.717-1.973.717a3.3 3.3 0 0 1-.71-.076 5 5 0 0 1-.84-.287 1.3 1.3 0 0 0-.463-.117q-.153 0-.324.119a.83.83 0 0 0-.275.36h-.203V7.744h.203q.258 1.263.994 1.928.736.662 1.587.663.656 0 1.047-.357t.39-.833q0-.281-.15-.545a1.7 1.7 0 0 0-.453-.5q-.305-.237-1.08-.617-1.086-.534-1.558-.908a2.8 2.8 0 0 1-.727-.839 2.1 2.1 0 0 1-.252-1.02q0-.949.696-1.617t1.757-.669q.386 0 .75.093.275.069.67.258.397.189.553.19.156 0 .24-.094.088-.093.163-.447h.18"/></g><defs><clipPath id="clip0_3802_10861"><path fill="#fff" d="M0 0h79.997v13.171H0z"/></clipPath></defs></svg>