<svg fill="none" viewBox="0 0 80 41"><g fill-rule="evenodd" clip-path="url(#clip0_3802_8474)" clip-rule="evenodd"><path fill="#0067B1" d="M30.93 9.957c2.378.921 4.746 1.912 7.054 3.031a150 150 0 0 0-21.37 10.62c-2.308-1.188-4.686-2.377-7.054-3.427 6.856-3.953 13.98-7.381 21.37-10.224m-8.837-3.101A128 128 0 0 0 0 16.287c2.239.862 4.488 1.714 6.658 2.636A122.7 122.7 0 0 1 28.087 8.897c-1.982-.724-3.953-1.447-6.004-2.041z"/><path fill="#EE2A24" d="M46.95 9.63a138 138 0 0 0-18.725-7.322 175 175 0 0 0-6.727 2.11 134.6 134.6 0 0 1 19.26 7.45A163 163 0 0 1 46.96 9.63zm9.828-2.903C50.645 4.022 44.245 1.783 37.716 0a97 97 0 0 0-6.201 1.387c6.459 1.912 12.79 4.29 18.863 7.193 2.11-.664 4.29-1.318 6.4-1.843zm15.832 5.271a166.1 166.1 0 0 0-43.126 21.964c3.299 2.04 6.459 4.15 9.56 6.46A175 175 0 0 1 80 16.217a117 117 0 0 0-7.39-4.22M61.92 6.985c-16.09 4.22-31.188 11.076-44.84 20.18 3.031 1.516 6.063 3.101 9.035 4.815C39.5 22.747 54.341 15.495 70.162 10.75c-2.704-1.318-5.41-2.636-8.243-3.756z"/></g><defs><clipPath id="clip0_3802_8474"><path fill="#fff" d="M0 0h80v40.421H0z"/></clipPath></defs></svg>