<svg fill="none" viewBox="0 0 80 42"><g clip-path="url(#clip0_3802_8465)"><path fill="#007CC5" fill-rule="evenodd" d="M0 21.402h45.838l16.808 2.687 17.073-2.687v20.384H0z" clip-rule="evenodd"/><path fill="#fff" fill-rule="evenodd" d="M14.25 26.522h-1.736v4.087h1.436V27.7a1 1 0 0 1 .32-.055c.264 0 .42.153.42.41v2.554h1.44v-2.722c0-.881-.55-1.36-1.876-1.36zm4.886.094-.877 1.665h-.016V25.17h-1.42v5.44h1.42v-1.97h.016l1.006 1.97h1.583l-1.146-2.15 1.045-1.844zM6.973 27.727v-.02c.429-.136.764-.498.764-1.025 0-.881-.628-1.532-2.145-1.532h-1.77v5.448h1.77c1.517 0 2.243-.593 2.243-1.595 0-.66-.457-1.116-.858-1.28zm-1.755-1.442c.09-.028.23-.036.363-.036.577 0 .748.23.748.597 0 .195-.058.343-.148.429-.066.066-.238.133-.437.133h-.526zm.363 3.217c-.133 0-.281-.024-.363-.04v-1.138h.526c.23 0 .37.059.468.148.098.09.156.25.156.425 0 .437-.222.6-.787.6zm34.809-2.964a1.7 1.7 0 0 0-.421-.058c-1.252 0-1.888.791-1.888 2.027 0 1.361.726 2.09 2.067 2.102h1.681v-5.44H40.39v1.373zm0 2.925a.7.7 0 0 1-.242.031c-.41 0-.628-.32-.628-.998 0-.577.215-.96.613-.96.101 0 .214.024.257.047zm-4.691-2.945h-1.74v4.087h1.44v-2.909a.9.9 0 0 1 .315-.054c.265 0 .421.152.421.41v2.553h1.435v-2.722c0-.881-.55-1.364-1.871-1.364m6.824 4.087h1.435v-4.09h-1.435zm0-4.61h1.435v-.85h-1.435zm-17.876.523c-1.221 0-1.93.89-1.93 2.09 0 1.202.709 2.095 1.93 2.095 1.22 0 1.93-.897 1.93-2.094 0-1.198-.71-2.09-1.93-2.09m0 3.038c-.316 0-.496-.296-.496-.963s.18-.963.496-.963.495.296.495.963-.18.963-.495.963m2.702-2.57h-.425v1.065h.425v2.554h1.408v-2.554h.651v-1.065h-.651v-.347c0-.288.222-.393.519-.393q.097.002.206.015v-1.096a3 3 0 0 0-.487-.039c-.979 0-1.646.46-1.646 1.51zm4.582 3.62h1.482V25.18h-1.482zM9.93 26.517H8.685v1.014h1.392c.222.012.355.137.378.344v.007c-1.197.075-2.234.34-2.234 1.37 0 .88.643 1.352 1.957 1.352h1.623v-2.722c0-.881-.546-1.364-1.872-1.364m.526 3.073a1.1 1.1 0 0 1-.32.032c-.339 0-.584-.137-.584-.41 0-.35.323-.429.904-.452zm34.494-3.073v1.014h1.396c.218.012.355.137.378.344v.007c-1.2.075-2.234.34-2.234 1.37 0 .88.643 1.352 1.961 1.352h1.622v-2.722c0-.881-.545-1.364-1.871-1.364zm1.77 3.073a1.2 1.2 0 0 1-.32.032c-.343 0-.584-.137-.584-.41 0-.35.327-.429.904-.452zm-34.267 6.74c-.694.097-.83-.32-.819-.948.012-.566.203-.952.807-.854l.024.28v.636zm.016-2.848c-.862-.081-1.443.067-1.849.566-.359.444-.515 1.31-.335 2.063.378 1.575 1.914 1.404 3.568 1.365l.023-5.32h-1.4l-.007 1.33zm6.57 3.967 1.409.038.007-2.168c0-.14-.039-.624.086-.713.23-.075.421-.067.581.14.203.484-.058 2.094.094 2.745l1.36.008c.071-.468.02-1.357.02-1.864 0-.6.078-1.217-.241-1.63-.574-.74-2.96-.597-3.311-.5v3.944zm-13.056.023h1.385l.007-2.543c.012-.425.133-.386.578-.292.214.086.16.366.183.628l.008 2.215h1.341c.063-.535.024-1.283.024-1.837 0-2.055-.149-2.203-3.502-2.141l-.02 3.974zm10.366-2.862c.721-.277.784 1.571.277 1.774-.807.328-.835-1.564-.277-1.774m-.285-1.104c2.796-.484 3.015 3.623.839 4.032-2.797.53-3.12-3.638-.839-4.032m19.113 2.211v.721c-1.131.328-1.123-.986 0-.721m-1.724-1.267c.948.02 1.568-.156 1.705.3-.414.222-1.1.09-1.658.456-.421.277-.67.843-.41 1.463.203.48.699.702 1.31.78.395.05 1.736.07 2.103 0 .242-4.04-.024-4.029-3.038-3.986l-.012.983zm-8.864.81c0-.249-.07-.623.14-.764.601-.41 1.478.78-.14.765m2.192 2.185.008-.944c-.92-.04-1.884.129-2.145-.289.175-.113.503-.093.803-.16.803-.175 1.587-.604 1.29-1.66-.264-.945-1.949-1.17-2.862-.683-.506.273-.592.663-.592 1.36 0 .586-.098 1.342.171 1.787.23.378.722.57 1.338.604.366.024 1.7.055 1.993-.011zm2.094-1.088c.07-.312-.164-.336-.523-.468-1.427-.519-1.774-2.847 1.958-2.403l-.012.99c-.452.052-1.38-.136-1.524.145-.113.316.198.285.55.421.69.27 1.255.823.908 1.666-.382.932-1.65.803-2.847.756l.02-1.045c.476-.023 1.06.055 1.47-.062m-25.052 1.11h1.443l.008-5.292-1.443-.023zm27.08-.008 1.408.012v-4.005l-1.377-.012zm0-4.523 1.396.007.012-.81-1.393-.02z" clip-rule="evenodd"/><path fill="#191917" fill-rule="evenodd" d="m62.646 32.072-10.974 9.702 6.142-13.267-12.514-7.23 14.3 1.537L62.65 0l3.046 22.81L80 21.273l-12.518 7.23 6.142 13.267-10.974-9.702z" clip-rule="evenodd"/><path fill="#E3300C" fill-rule="evenodd" d="m62.646 31.791-10.362 9.164 5.8-12.533-11.825-6.829 13.52 1.447 2.867-21.457 2.866 21.457 13.525-1.45-11.824 6.832 5.799 12.533z" clip-rule="evenodd"/><path fill="#0073BD" fill-rule="evenodd" d="M65.516 23.04h-5.732l-1.689 5.39 4.555 3.365 4.566-3.37-1.696-5.381z" clip-rule="evenodd"/><path fill="#191917" d="M62.646 30.644a3.697 3.697 0 1 0 0-7.394 3.697 3.697 0 0 0 0 7.394"/><path fill="#fff" fill-rule="evenodd" d="M62.646 30.43a3.49 3.49 0 0 1-3.486-3.486 3.49 3.49 0 0 1 3.486-3.487 3.493 3.493 0 0 1 3.486 3.487 3.493 3.493 0 0 1-3.486 3.486" clip-rule="evenodd"/><path fill="#191917" fill-rule="evenodd" d="M62.517 24.55s-.008.007-.008.015q-.001.017.016.023c-.035 0-.05-.02-.05-.02s.011-.015.046-.019zm.035 0s.02.003.032.01c0 0-.012.02-.04.024.005-.004.016-.011.016-.023a.03.03 0 0 0-.008-.016zm-.078.046s.036.012.059.012c.066 0 .086-.047.093-.051 0-.047-.03-.09-.074-.094a.1.1 0 0 0-.058.012c-.02.008-.031.027-.04.043.024-.004.048-.035.102-.024.028.004.059.043.04.047-.016-.011-.02-.015-.032-.02-.047-.019-.09.016-.113.036l-.016-.004c.008.02.016.027.035.043zm.285-.047s-.004.008-.004.016q-.001.017.016.023c-.031-.004-.05-.02-.05-.02s.015-.015.042-.019zm.04 0h.003s.02.004.02.008q.003.005.007.004s-.011.02-.039.027c.004-.004.012-.012.012-.023q.001-.008-.004-.016m-.176.183c-.012-.039.03-.015.046-.02.012 0 .024-.015.024-.03 0-.02-.016-.028-.016-.043 0-.035 0-.121.016-.14.023-.028.101-.051.136-.02q.012.012.024.035c-.032-.039-.148-.031-.137.031 0 0 .027-.02.059-.02.035-.003.054 0 .082.024.007.008.011-.004.02-.004 0 0 0 .012-.005.016l-.004.004c-.008.008-.02.008-.023.015-.047.047-.121.008-.121.004a.1.1 0 0 0-.012.047c0 .035.047.09.004.11-.023.01-.047-.005-.074-.005-.008 0-.016.004-.02 0zm1.626 4.454c-.043-.02-.047-.059-.074-.082-.004 0-.02-.016-.028-.02l-.027-.015c-.035-.016-.074-.023-.11-.031q-.021-.005-.038-.004c-.016-.004-.031-.016-.047-.024-.054-.011-.117-.004-.171-.011-.09-.004-.168-.02-.25-.028a.6.6 0 0 1-.117-.023l-.035-.016a.14.14 0 0 0-.082.004c-.012.004-.023.016-.031.016-.016 0-.027-.027-.05-.02-.013.012-.02.032-.013.043.004.004.028.028.032.028.027.011.043-.004.062-.008.066-.02.14.015.199.023.152.024.35.016.483.059q.04.006.075.02c.062.023.105.062.156.089a.18.18 0 0 0 .113.078c.027.008.066.008.066-.027 0-.043-.074-.035-.11-.051zm.928-.187s.031.035.031.054c0 .004-.011.016-.02.016-.027 0-.023-.062-.062-.059-.004 0-.011 0-.015.012-.012.035.062.047.043.102-.008.023-.035.027-.067.027 0-.012.012-.016.012-.027 0-.036-.05-.07-.078-.04 0 .028.035.043.023.075-.015.02-.058.02-.074 0 .004 0 .02.004.028 0q.01-.002.011-.016c.004-.016-.011-.02-.027-.027l-.031-.028c.004-.062-.05-.074-.113-.078-.102-.007-.219-.02-.312-.027.004-.047-.04-.055-.078-.062-.055-.012-.106-.016-.16-.028-.024-.003-.063-.015-.063-.035 0-.023.032-.035.047-.047a3 3 0 0 0 .152-.116c.11.019.18.062.265.113l.067.03a.3.3 0 0 0 .07.032c.11.031.265 0 .343.055.027.02.055.043.055.081-.02 0-.02-.046-.043-.05-.012 0-.023.012-.023.02 0 .011.015.019.027.027zm-.289.109.02.008c0-.008 0-.024-.004-.028-.027-.043-.148-.046-.218-.043-.04 0-.082-.003-.11.012.036.008.078.012.117.02.043.004.082.015.121.02.028 0 .051 0 .074.01m-.343.008c.012.035.043.043.035.093a.2.2 0 0 1-.039.043c.004-.02 0-.043-.015-.054-.008 0-.004.015-.012.015-.016-.004-.012-.023-.035-.023-.004.023.016.031.02.05.003.051-.032.075-.075.07.004-.023.035-.015.043-.03.004-.024-.02-.04-.031-.051-.012 0 0 .012-.016.015-.015-.003-.027-.035-.05-.023.011.016.027.039.011.058a.13.13 0 0 1-.07.016c-.039 0-.078-.012-.097-.035-.012-.016-.02-.035-.031-.047-.016-.015-.04-.015-.055-.031-.012-.004-.016-.02-.023-.027-.016-.012-.04-.02-.063-.032a.7.7 0 0 0-.207-.054c-.12-.012-.253-.008-.37-.031-.043-.008-.086-.02-.125-.024-.043-.004-.086.012-.125.004-.035-.004-.054-.031-.066-.062a.6.6 0 0 0-.066-.234.2.2 0 0 1-.008-.113c0-.028.016-.063.02-.098.003-.035.003-.074.011-.109a.3.3 0 0 1 .059-.148c.015.004.027.027.039.039.03.02.066.027.093.055a.1.1 0 0 1 .032.035c.035.062.023.156.05.23.004.011.016.02.012.03-.04.005-.09.005-.113.032.02.031.062.004.101.004a.2.2 0 0 1 .11.031c.019.016.038.047.066.055.039.015.101.02.152.023.058.004.117.012.163.02.079.015.149.046.219.074l.035.015c.012.004.02.016.027.02.024.015.055.015.086.02.031.003.055.015.082.023.023.011.055.02.082.035.012.004.02.015.031.02.02.003.04 0 .055.003a.2.2 0 0 1 .054.027c.035.02.063.047.063.094-.016-.012-.02-.05-.051-.031zm-1.22.125c-.04-.024-.078-.055-.125-.067q-.024-.008-.047-.004c-.004.02.023.016.043.02.039.004.066.023.093.039.012.012.036.023.028.039-.016.027-.066-.02-.066-.031-.016-.004-.02-.02-.036-.024-.011-.004-.027 0-.039-.004-.015 0-.027-.008-.039-.011-.004.043.063.023.082.043.004.003-.004.011-.004.019l.02.016s-.004-.008 0-.016c.047-.012.05.043.012.055-.04.011-.067-.02-.094-.028-.047-.008-.086.004-.12-.004-.036-.007-.048-.03-.071-.05-.027-.028-.059-.028-.094-.04.02-.034.028-.073.059-.1.015-.016.09-.051.125-.028.02.008.05.016.066.023a.1.1 0 0 1 .031.024c.012.012.02.027.031.031.028.008.07.016.102.027.008 0 .023.004.023.016 0 .004 0 .015-.012.015-.007 0-.011-.011-.02-.015-.023-.016-.07-.016-.097-.027.004.004.016.007.02.011a.5.5 0 0 1 .12.051c.012.004.032.02.016.027zm-.515-.332c.004-.214.011-.437.02-.655l.003-.004v.004c.008.008.008.023.008.035l.035.273c.016.101.043.199.047.304q-.036.017-.074.027c-.016.004-.024.02-.043.02zm.199-.11c-.012-.081-.043-.159-.055-.249a3 3 0 0 1-.035-.273c-.008-.132-.02-.284-.023-.429 0-.039.007-.124-.02-.136-.02-.004-.031 0-.043.004a4.6 4.6 0 0 0 .118 1.095c.019 0 .038 0 .054-.011zm-.051-.576c.016.113.02.226.05.32l.024-.246c.031-.3.078-.53.066-.858 0 .02-.02.047-.023.07-.012.016-.023.023-.039.039q-.024.016-.043.031c-.023.027-.027.063-.031.102q.001.032-.004.062c-.008.156-.012.332.004.484zm-.23-.554-.074.086q-.017.023-.04.043c.083-.23.184-.449.254-.69.035-.122.07-.242.102-.371.035-.133.05-.27.054-.425 0 0 0-.004.004-.004.028.015.035.043.04.07.03.082.046.176.066.27q.017.094.023.194c0 .031.008.067.008.102s.004.078 0 .105c-.004.039-.035.078-.055.113q-.032.056-.062.101c-.04.067-.09.129-.137.188-.062.074-.12.152-.183.222zm.05.21c.005.18-.011.351-.015.527-.004.207-.023.41-.031.6-.04-.003-.078-.023-.121-.03-.047-.008-.094-.008-.137-.012.067-.227.149-.457.195-.706l.094-.449s0-.004.004-.004c.012-.003.008.055.008.07zm-.323 1.244c.016-.039.031-.07.047-.113h.004a1 1 0 0 1-.043.117c-.004 0-.004-.003-.012 0zm.195.102c-.016.039-.012.078-.05.101-.009.004-.02 0-.024.004-.035.024-.031.113-.094.074-.015-.035.028-.043.043-.023 0-.02-.023-.023-.043-.023.004-.04.031-.055.055-.075v-.02c-.02-.015-.035.005-.031.028-.004.012-.028.027-.04.043-.011.02-.011.043-.035.02-.003-.055.043-.055.051-.094 0-.004-.004-.004-.004-.012-.035-.004-.023.043-.05.047-.012.023-.016.05-.032.07q-.006.004-.02-.004c.005-.003-.003-.011 0-.015 0-.004.009-.004.013-.012-.02-.035.011-.07.03-.086-.019-.035-.046.031-.054.047-.004.016 0 .031-.012.031-.015 0 0-.054.004-.066.008-.02.024-.023.028-.039-.012 0-.028.012-.035.023-.004.004-.008.02-.016.02-.02 0 0-.027 0-.031.016-.02.023-.028.05-.032.012-.007.016-.023.028-.03.023-.016.09-.008.12-.005q.037 0 .067.012c.024 0 .047 0 .059.016 0 .015-.012.02-.016.027zm-.234.16c-.016.035.047.031.035-.004-.004-.008-.027-.008-.023.008zm-.18-.16c.036 0 .075.004.094-.004.012-.016.027-.02.043-.035q-.024-.016-.043-.031l-.023-.016c-.016-.015-.024-.027-.035-.039-.02-.016-.043-.027-.059-.043-.008-.015-.012-.027-.023-.039-.078-.008-.168-.027-.254-.023l.059.234q.111-.012.234-.012zm-.214.093s-.004-.011-.004-.015l.027-.012c.07-.015.16-.023.242-.027.004 0 .024-.004.024.004-.09.023-.195.031-.289.047zm-.12.036a1 1 0 0 1-.172.03h-.086a.3.3 0 0 1-.113-.023l-.047-.03a.09.09 0 0 1-.027-.087l.004-.003v-.02c.003-.008.015-.02.015-.031a.1.1 0 0 0-.023-.043.07.07 0 0 0-.059.027c-.004.004-.004.004-.004.012 0 0-.015.015-.02.015-.003.004-.023.008-.03.008a.1.1 0 0 1-.055-.011.2.2 0 0 1-.09-.09c-.004-.027-.015-.043-.011-.074 0-.02.004-.047.015-.063.004-.011.031-.039.02-.066-.004-.012-.02-.012-.028-.02-.007-.007-.004-.019-.015-.027q-.024-.006-.035.012c-.016.023-.024.07-.032.09 0 .043 0 .093.008.132.004.028.024.04.028.067.02.023.039.05.062.07q.002-.001.004.004c.016.023.066.043.078.066l.066.031c.02.028.067.024.09.047.023.004.05.02.07.031.09.031.164.074.246.102q.051.03.097.054c.016.02.035.035.047.05-.02-.003-.031-.03-.055-.019.004.02.02.036.035.043v.012c.008-.004.012.012.02.016-.016.003-.027-.024-.043-.028-.004-.011-.016-.023-.027-.023-.004.008.008.012.004.023q-.008-.006-.016-.02c-.016.016.012.028.016.04-.012-.004-.02-.02-.035-.027-.008.003 0 .015 0 .023-.008 0-.008-.016-.016-.012-.008.012 0 .024.004.035s.012.024.015.035c.008.047-.015.106.008.149-.03-.032-.011-.098-.015-.137a.3.3 0 0 0-.031-.078.55.55 0 0 0-.308-.187c-.028-.016-.07-.023-.106-.035-.078-.024-.156-.059-.234-.09-.039-.027-.066-.058-.097-.09-.016-.02-.04-.046-.051-.074a.3.3 0 0 1-.027-.07q-.007-.033-.008-.066-.008-.04-.004-.086a.5.5 0 0 1 .062-.183q.044-.062.086-.113.053-.05.102-.113c.035-.055.058-.106.105-.145.023-.02.05-.03.082-.05a.8.8 0 0 1 .288-.09c.055.195.102.394.152.589a.3.3 0 0 1 .016.085c-.031-.011-.117-.035-.148-.019-.035.02.004.062.039.062-.004.004-.016.004-.02.004-.011.008-.027.02-.046.024q-.007.005-.02.004a.07.07 0 0 0-.039.043c-.012.023.008.05.04.035.019-.012.042-.04.058-.047a.3.3 0 0 1 .16-.027q.033.117.062.25a.5.5 0 0 1-.168 0c-.039-.013-.058-.017-.086.007.004.008.012.012.012.023 0 .035-.05.024-.058-.004-.012.043.043.078.081.082h.024c.07 0 .152-.023.21-.039.004.024-.027.02-.042.028zm-.052.273c.016.023.024.05.04.07-.012-.024-.02-.055-.04-.07m-.257-2.036c-.043-.176-.082-.355-.129-.534-.011-.043-.02-.09-.03-.133a1 1 0 0 1-.036-.133c-.058-.269-.129-.534-.191-.799v-.004c.039.016.094.012.129.024-.004.035.004.07.05.066.008.015.012.035.02.047a.1.1 0 0 0 .074-.016c.156.066.3.144.487.175.008.188-.015.387-.02.59 0 .07-.01.132-.015.202a4 4 0 0 1-.027.386c-.016.094-.023.187-.031.277-.004.035-.004.066-.004.105 0 .032-.012.07 0 .094a.1.1 0 0 0 .023.02c.043.03.11.05.152.081v.035c-.109.012-.21.032-.316.047-.042-.175-.093-.35-.132-.53zm-.417-1.704s.027-.016.031-.035c0-.016-.012-.024-.016-.04.016.005.024.024.04.04.007.007.035.035.046.035.016.004.047-.008.035-.028-.015-.007-.035-.004-.05-.015-.024-.016-.035-.047-.047-.074.008-.02 0-.04-.016-.047q.005-.045-.02-.062l.005-.004c.027.015.058.027.082.043a.19.19 0 0 1 .097.144c.02.011.043.02.059.039-.008.047-.024.082-.059.105-.023-.012-.043-.031-.062-.043-.024.024-.098.012-.117-.008-.004-.004-.016-.035-.012-.05zm-.063-.032c.024 0 .078.02.078-.011 0-.02-.082-.035-.109-.027-.031.015-.015.062.008.066q.005-.024.027-.031zm-.074-.078s0 .04.016.047c.031-.03.082-.011.117-.015.012-.02-.016-.028-.031-.032-.028-.011-.082-.027-.106 0zm-.008-.07s-.011.047.008.055c.012 0 .024-.012.04-.012.03-.008.062.012.089.02.02 0 .031 0 .031-.012 0-.016-.023-.02-.039-.031-.027-.016-.043-.035-.086-.031-.011 0-.035 0-.042.011m.149.004c.02-.07-.172-.113-.152-.015.03-.008.074-.02.109-.004.015.008.027.027.043.023zm-.129-.144s.02.012.023.02c.016.015.04.03.055.046-.023-.011-.055 0-.07-.011-.016-.004-.031-.055-.008-.055m.406.304a.4.4 0 0 1-.07.133c-.008.011-.032.023-.032.035 0 .02.024.02.04.011.023-.011.046-.054.058-.078.011-.03.03-.07.02-.105-.005 0-.016-.004-.016.004m.054.027a.4.4 0 0 1-.093.164c0 .004 0 .02.007.02.02-.004.02-.028.043-.035v-.012l.02-.023c-.004-.012.008-.028.02-.032-.005-.023.007-.027.019-.039-.02-.011 0-.043.015-.046-.004-.008-.015-.004-.02 0zm.027.125c-.007.02-.03.031-.03.059.073.03.155.07.233.097.028.004.05.02.078.027q.038.007.086.02c.02.004.066.016.09.016.039-.008.043-.051.066-.075.02-.062.059-.1.07-.167a.5.5 0 0 0-.152-.059c-.012 0-.035-.004-.043 0a.1.1 0 0 0-.008.04c.04 0 .082.046.051.073-.008.012-.015 0-.031 0-.016-.007-.027-.027-.043-.035a.2.2 0 0 0-.055-.02c-.085-.026-.183-.042-.273-.062-.015.008-.011.024-.015.035 0 .012-.012.02-.016.028q-.005.01-.004.027zm.414-.148a.4.4 0 0 1 .203.062q.001.008-.004.016a1 1 0 0 0-.203-.062q-.001-.017.004-.016m.043-.195c.015-.086.027-.168.05-.257.02-.078.032-.145.063-.203.012-.02.023-.031.039-.047.004-.004.004-.015.011-.02.02-.015.043-.027.063-.05.004 0 .012-.004.012 0 .023-.02.058-.024.082-.035h.003a1 1 0 0 0 .024.183c.008.035.02.062.023.094-.047.03-.09.066-.132.097-.012-.015-.004-.035-.024-.043-.008.016-.02.027-.02.043 0 .012.016.035.012.047 0 .015.004.09 0 .12 0 .016-.015.094-.02.13 0 .019-.003.035 0 .05a1 1 0 0 0-.194-.047c.004-.023.004-.046.015-.062zm.37-.293s-.023.008-.031.02c.008.012.012.039 0 .055-.008.015-.023.023-.023.043h.02a.2.2 0 0 0 .073-.063c.016-.035-.027-.035-.043-.055zm.07-.374c.012.066.016.129.028.187.004.02.015.04.015.059-.02.015-.039.031-.062.039a.7.7 0 0 1-.043-.261c.02-.004.043-.016.062-.024m-.015-.53c-.012.05-.04.078-.043.128a.3.3 0 0 0 .047.176c.02.039.047.074.07.098a.3.3 0 0 0 .12.066c.06.008.11-.02.137-.047a.4.4 0 0 0 .137-.296c0-.032-.016-.051-.027-.07-.008-.024-.004-.044-.012-.07a.2.2 0 0 0-.086-.126c-.039-.03-.07-.058-.125-.07-.004-.011 0-.027-.008-.043q-.005.022-.004.043c-.062.027-.128.05-.171.102l-.023.035a.4.4 0 0 0-.02.074zm.417.577c.004-.027.008-.035.016-.055.02.004.035.016.054.024-.02.02-.05.02-.07.031m-.043-.117s.004.012.004.02c0 .019-.016.042-.027.046-.02.016-.043.004-.063.004-.02.004-.035.012-.054.012-.055 0-.094-.035-.121-.059-.016-.015-.027-.03-.043-.043 0 .02-.012.036-.012.055q-.004.036.004.074a.6.6 0 0 0 .05.172 2 2 0 0 1 .247-.137c.015-.03.035-.062.035-.101s-.02-.078-.02-.121c-.004.012 0 .02 0 .035 0 .02-.004.031-.004.043zm.168.203-.07.035h.004c-.035.02-.075.035-.11.054-.081.035-.16.082-.238.133-.03.023-.066.043-.093.062-.016.012-.027.028-.043.04-.05.035-.086.066-.136.1a.2.2 0 0 0-.067.079c-.008.023-.004.105-.004.125q0 .117.102.117c.035 0 .05-.016.074-.028.015-.015.027-.043.05-.043.012.02-.011.043-.027.059-.023.027-.047.058-.078.074-.011.008-.031.008-.047.008.012.062.086.027.113.004.094-.094.168-.207.242-.32.04-.055.074-.11.117-.164.02-.027.04-.05.063-.078a1 1 0 0 1 .124-.129l.036-.03c.035-.028.066-.047.105-.075.023-.015.054-.023.074-.043-.02-.027-.059 0-.082.004-.015 0-.027.008-.039.012q-.032.017-.062.039h.004s-.008.008-.012.008a.3.3 0 0 0-.066.05q-.06.045-.114.09s-.007 0-.015.008c-.062.054-.117.109-.18.164-.019.015-.035.043-.062.043-.012-.043.023-.063.047-.086.015-.02.031-.031.05-.047q.114-.091.227-.172c.039-.03.078-.054.105-.09zm-.012.979v-.086h.004l.004.062q.001.022-.004.04c-.004 0-.008-.012-.008-.02zm-.41 1.66.06-.108c.023-.04.038-.078.054-.113.074-.152.132-.316.183-.488a13 13 0 0 0 .101-.405c.004-.051.016-.098.016-.149-.016.004-.012.028-.016.04l-.035.124a6 6 0 0 1-.152.48c-.058.148-.117.312-.187.444l-.039.067c-.012.015-.035.054-.054.047-.016-.008-.008-.043 0-.063.011-.047.035-.082.058-.117l.039-.055c.012-.03.031-.062.047-.093q.008-.023.027-.047c.008-.015.02-.027.027-.043.016-.035.028-.078.04-.113.011-.035.03-.074.042-.113.067-.191.129-.382.18-.585 0-.012.011-.047.015-.062 0-.012.012-.063-.004-.063q-.005-.001-.011.004a.5.5 0 0 0-.094.129c-.031.062-.066.125-.094.187-.05.098-.09.191-.14.285-.066.124-.14.238-.214.355-.036.058-.078.113-.11.179-.043.07-.078.16-.113.242l-.023.05c-.027.055-.05.098-.05.168 0 .098 0 .203.01.297 0 .03 0 .062.013.09.011 0 .015-.016.023-.02.039-.059.086-.113.129-.164q.075-.095.152-.183a.3.3 0 0 0 .07-.098q.032-.052.062-.109zm-.385.832c-.02.042-.008.097-.004.152.004.039.007.078.015.109a.36.36 0 0 0 .156.07c.02 0 .043.012.055.004.023-.004.027-.035.039-.059q.013-.029.02-.05l.112-.308.032-.106c.02-.074.039-.144.058-.222l.04-.195c.007-.05.015-.097.015-.129l-.031.032q-.016.03-.032.066a2 2 0 0 0-.07.207 3 3 0 0 1-.074.202c-.004.012-.023.059-.039.055-.027-.016.02-.086.02-.09.035-.082.05-.16.07-.25 0-.015.015-.034.004-.05-.012.008-.02.023-.028.035-.027.035-.054.066-.078.102a2 2 0 0 0-.195.277q-.022.033-.046.074c-.016.027-.032.05-.04.078zm-.114-.433s-.03-.004-.042 0l-.168.023a.2.2 0 0 0-.094.027l.176.71q.052-.001.093.004c.035.008.075.004.11.008q.017-.001.035.004a1 1 0 0 1-.035-.152c-.008-.063-.016-.145-.032-.195-.02-.016-.03-.047-.054-.063l-.04-.015c-.007 0-.019-.016-.03-.02-.032-.008-.055 0-.078.004l-.035-.012a.1.1 0 0 1-.028-.062c.008-.004.012-.012.024-.016a.5.5 0 0 1 .21 0q0-.126-.011-.253zm.398-1.997c-.023.012-.02-.02-.027-.047-.004-.027-.02-.062.012-.062a.3.3 0 0 1 .015.109m.004-.152s-.035.027-.062.012c.004-.02.027-.024.039-.032l.039-.03c.035-.005.054-.02.078-.036h.008c-.024.031-.067.059-.102.082zm.082.136a.1.1 0 0 1 .004-.09.13.13 0 0 1 .094-.05c.058-.004.117.016.136.05.02.055 0 .118-.047.141-.062.035-.164.004-.187-.05m-.168.917c-.035.008-.042.047-.058.074-.027.058-.05.11-.074.175-.055.13-.105.273-.156.41-.004.012-.004.031-.02.039-.008-.016-.004-.04-.004-.059 0-.105 0-.214.004-.316.004-.039.012-.074.012-.113v-.085c0-.024.012-.047.016-.075a.3.3 0 0 1 .02-.066q.002-.017.015-.035c.03-.097.085-.183.136-.261q.075-.107.156-.195a1.3 1.3 0 0 1 .23-.21 1 1 0 0 0 .14-.118c.016-.015.024-.035.044-.047 0 .02-.012.04-.016.051-.027.043-.062.082-.09.121-.058.078-.12.156-.175.246-.027.047-.05.09-.078.136-.078.133-.148.273-.226.41a.7.7 0 0 0-.067.144c.016 0 .02-.02.028-.031.109-.18.21-.367.323-.542q.087-.14.191-.273a1 1 0 0 0 .14-.207c.016-.023.032-.05.048-.07.015-.016.027.031.023.055 0 .011-.016.03-.02.046-.023.047-.038.098-.062.14-.031.063-.066.122-.09.176-.058.125-.128.234-.19.347a29 29 0 0 0-.359.647c-.008.012-.016.036-.032.036a.2.2 0 0 1 .02-.055 4 4 0 0 1 .117-.253 1 1 0 0 0 .062-.172c.004-.027.02-.059 0-.074zm.453-1.135c.027-.016.05-.016.066-.027h.004l-.012.02c-.02.03-.023.077-.05.089-.02.012-.04.004-.067.008-.046-.047-.148-.047-.203-.016-.019.008-.035.027-.066.02.004-.024.028-.032.047-.043.035-.02.066-.043.105-.063.02-.008.043-.02.063-.015 0 .03.015.05.058.043a.1.1 0 0 0 .027-.012l.024-.012zm-.507.246c.008-.035 0-.086 0-.121v.125zm-.183-.024s0-.03.003-.043a.2.2 0 0 1 .032-.074c.011.02.007.047.011.074.004.04.012.082.016.121 0 .032 0 .059-.012.078l-.039.07c-.011-.07-.02-.148-.011-.222zm.035.262c-.016.039-.024.09-.04.132-.011.047-.03.094-.035.137a1.6 1.6 0 0 0-.027.312c.016-.012.024-.035.031-.051.035-.055.063-.11.098-.156a4 4 0 0 1 .144-.191c.05-.066.105-.121.156-.18a1 1 0 0 1 .082-.081c.031-.028.066-.051.086-.086-.027-.004-.059 0-.082-.008-.02-.004-.039-.023-.055-.027-.015-.004-.039 0-.054-.004a.7.7 0 0 1-.164-.02c-.02.02-.031.04-.047.059a.6.6 0 0 0-.07.113.4.4 0 0 0-.027.058zm-.176 1.06s.004-.039 0-.054h-.004l-.058.495c.023-.004.03.004.043.012.007-.031.004-.063.007-.094l.004-.101c0-.086.008-.172.012-.254zm.035-.093c.004-.23-.012-.46.016-.64 0 0 .004-.008.004-.011v-.02q.014-.042.015-.078c.012-.012.012-.031.016-.05l.016-.055a.5.5 0 0 0-.008-.156c0-.051.008-.106-.008-.152-.023.015-.04.035-.066.046-.004.11-.004.207-.012.308 0 .043-.004.082-.004.125 0 .047 0 .09-.004.137-.012.163-.008.347-.012.542l.051.012zm1.186-2.176.015.039c.02.062.028.128.04.198a4 4 0 0 0 .043.195q-.023.001-.04.008c-.066.012-.16.012-.234.035v-.031c-.004-.027-.004-.023-.004-.043s0-.047-.011-.043c0-.023-.032-.07-.035-.035v.032c.004.054.004.054.004.113 0 .023.003.128 0 .148-.012 0-.024.004-.036 0a.3.3 0 0 1-.05.02c-.024.003-.047.011-.074.011a.4.4 0 0 1-.075-.02c-.019-.011-.038-.027-.058-.03-.059-.02-.062.038-.125.027.024-.059.059-.102.09-.152q.065-.104.14-.192.034-.036.063-.074.04-.047.085-.09c.012-.007.02-.023.04-.023a.2.2 0 0 1-.07.121c-.012.012-.024.027-.032.031-.012.008-.027.012-.031.028v.007c0 .028.035.036.055.024.023-.016.042-.059.062-.09.054-.093.12-.199.203-.25.02-.015.035.02.043.036zm.12.518s-.019-.027-.019-.046c-.015-.004-.035.003-.047.011.004.016.004.031.012.047l.055-.008zm.012.028s.016 0 .016.011c0 .012-.05.02-.062.024a1 1 0 0 0-.2.085c-.019.012-.027.028-.046.02a.06.06 0 0 1 .023-.027l.035-.02q.069-.036.149-.066c.027-.008.058-.016.081-.027zm.02.487c-.008-.027-.02-.047-.023-.066-.004-.016-.008-.027-.008-.043v-.059c-.008-.027-.012-.027-.012-.054-.008-.04-.012-.043-.02-.082a.5.5 0 0 0-.175.035v.125c.008.039.004.07.02.113.038.101.136.39.179.483.008.02.02.051.027.059.008.004.031.004.047.004.027 0 .086-.02.09-.043.004-.02-.008-.05-.016-.07-.039-.145-.07-.277-.117-.406zm.171.48s-.007.039-.02.047a.3.3 0 0 1-.155.043c-.023 0-.059 0-.047-.032.082.02.187.004.215-.058zm.012.054s-.043.024-.078.035a.3.3 0 0 1-.07.016c-.02 0-.059 0-.066.016-.016.02.011.039.03.035.017-.004.024-.02.044-.012.011-.004.015-.016.027-.016.008-.003.016 0 .024 0 .011 0 .019-.011.027-.011h.02c.015-.004.019-.02.03-.02.024-.008.043 0 .047-.02 0-.01-.015-.03-.031-.027zm.04.067c.077.02.151.058.23.082.05.015.097.027.132.05.012.004.015.012.023.016l.043.023c.004.004.016 0 .012.012-.016.008-.024-.008-.035-.012-.067-.035-.137-.078-.226-.09.011.016.027.016.042.016.082.02.153.074.219.113.011.004.027.012.027.027-.012.008-.027 0-.035-.007-.074-.051-.148-.11-.261-.129-.008.02.023.023.03.023a.6.6 0 0 1 .15.063l.042.031c.016.008.035.016.043.031-.023.02-.059 0-.082-.015-.023-.012-.039-.024-.062-.032a1 1 0 0 0-.14-.039c-.028-.003-.055-.003-.079-.011-.023-.004-.043-.024-.066-.024-.02.024.015.024.039.032 0 0 .008.011.012.011.03.008.074.004.109.012.023.004.066.02.066.031 0 .027-.09.004-.113.004-.059-.004-.094.004-.148-.004-.04-.004-.082-.015-.101-.043a.1.1 0 0 1-.016-.031c0-.012.004-.027 0-.043s-.016-.015-.008-.031c0-.012.008 0 .024-.008a.03.03 0 0 0 .015-.008h.027c.016 0 .016-.023.04-.015.015-.016.03-.024.05-.035zm.354.097c0 .012.016.016.023.024q.011.009.028.019c.02.012.043.02.054.035.004.004.004.016.012.024.008.015.023.023.023.038-.004.032-.07.04-.101.051-.008.008-.012.02-.023.027-.004.012-.016.02-.016.036.016 0 .023-.02.039-.028.008-.004.016-.004.027-.011q.043-.022.078-.043a.08.08 0 0 0 .012-.07l-.055-.067c-.011-.004-.03-.011-.046-.015-.02-.008-.04-.024-.051-.016zm.152.031c.004.035.031.063.04.09.003.059-.06.082-.09.098-.02.011-.044.011-.055.027.015.012.035 0 .054 0 .02 0 .043.004.059.004a.2.2 0 0 0 .086-.043c.023-.02.047-.043.07-.055.008 0 .023 0 .027-.012.004-.007-.012-.019-.015-.023-.012-.02-.02-.035-.043-.043-.024-.004-.047 0-.067-.004-.027-.008-.035-.046-.066-.043zm.218.152c-.054 0-.085.035-.12.067.011-.008.027-.008.035-.02l.015-.02c.024-.015.074-.034.11-.011a.1.1 0 0 1 .027.05.16.16 0 0 1 0 .106c-.012.035-.04.05-.055.074a.35.35 0 0 1 .078.21l-.004.09c0 .082.059.14.043.219 0 .012-.011.023-.011.035s.019.031.027.043a.5.5 0 0 1 .031.199c0 .023-.004.05-.004.074.004.035.02.066.027.093 0 .008 0 .024.012.028.012-.016.004-.035.004-.051 0-.133-.023-.246-.027-.37l.004-.23c0-.075 0-.149-.016-.211-.004-.02-.016-.04-.02-.059-.035-.093-.042-.206-.09-.277-.015-.023-.034-.043-.07-.043zm-.234 1.592a.2.2 0 0 1-.085.081c.054.02.12 0 .14-.039.016-.035.008-.074.02-.105q0-.012.011-.02c.008-.015.024-.027.035-.042.016-.028.016-.07.016-.106.055.063-.016.133-.035.188-.004.011-.012.027 0 .039.016 0 .02-.016.031-.02.012-.008.02-.008.031-.02.031-.023.035-.07.043-.116.004-.02.012-.04.012-.055 0-.027-.008-.062 0-.09s.023-.039.031-.062c.012-.027-.004-.05-.004-.082.004-.02.012-.031.016-.043a.2.2 0 0 0 0-.062c-.008-.035-.031-.05-.047-.078-.008-.012-.008-.016-.016-.027 0-.008-.011-.016-.011-.028-.016-.05.011-.113.004-.16-.004 0-.004-.004-.004-.004s0 .004-.004.004c-.004.028-.016.047-.024.067-.003.007-.003.015-.011.023-.008.016-.024.023-.035.039a.1.1 0 0 0-.024.059c.004.023.02.042.031.066q.008.03.004.066a.24.24 0 0 1-.039.101c-.023.043-.054.094-.062.137-.008.047.008.09.012.136a.3.3 0 0 1-.032.137zm-.276-.383s-.004-.03-.004-.043c0-.023.02-.042.02-.062-.005-.008-.016-.02-.02-.035q-.005-.017-.004-.027c0-.004-.008-.012-.012-.02a.06.06 0 0 0-.027-.047c-.027.055.023.094.031.14 0 .06-.023.102.004.141-.008-.023.012-.035.015-.05zm-.14.211c0 .047.026.074.046.105.004.012.016.027.016.04.004.019-.004.05.004.058.011-.008.011-.028.023-.04.012-.015.031-.019.047-.03.039-.032.054-.106.03-.172l-.015-.027c-.02-.028-.043-.047-.054-.078-.024-.059-.012-.129-.02-.195-.02-.035-.047-.059-.047-.102 0-.02.012-.03.012-.05 0-.024-.016-.047-.02-.067-.019-.008-.027-.023-.042-.035-.028.078.047.129.023.203-.008 0-.008.012-.023.012-.012 0 0-.028-.012-.024-.02.09.047.152.055.227v.078c0 .035-.02.066-.024.1zm-.024.086a.3.3 0 0 1-.012.105l.055.004a.2.2 0 0 0-.035-.117s-.008 0-.008.004zm-.05-.148.03.062c0-.043.024-.082.028-.125.003-.054-.012-.09-.024-.129l-.02-.066a.3.3 0 0 1 .012-.117l.004-.05c0-.02-.011-.051-.008-.078 0-.02.012-.043.012-.063a.04.04 0 0 0-.012-.023c-.003-.02-.011-.032-.015-.051 0-.016 0-.027-.012-.027-.004.035-.004.058-.015.082-.016.062-.067.101-.059.171.004.055.04.094.059.14.011.032.027.067.027.102.004.059-.027.12-.012.168zm-.16-.067c0 .032-.02.055-.028.082q.001.037.02.074a.2.2 0 0 0 .062.082c.011-.02.039-.027.039-.05s-.031-.04-.047-.055a.24.24 0 0 1-.02-.191c.008-.024.032-.05.024-.082 0-.02-.023-.04-.035-.059l-.035-.054a.3.3 0 0 1-.02-.156c-.03-.024-.047-.063-.074-.094l-.004.004a.3.3 0 0 0 .059.242c.027.035.078.078.058.136 0 .012-.011.016-.011.028-.004.008.004.02.004.027v.062zm.054-1.302s.015-.012.008-.016c-.016 0-.02.008-.035.012-.067.05-.106.12-.149.195-.015.047-.042.082-.054.132-.024.07-.04.156-.05.23-.005.032-.013.055-.009.082 0 .028.004.051.012.082.012.051.031.094.039.149 0 .058 0 .105.02.144a.2.2 0 0 0 .085.074c-.004-.016-.015-.023-.02-.035a.5.5 0 0 1-.054-.18v-.062c0-.031.02-.062.02-.098q.001-.01-.004-.035v-.035s-.02-.02-.027-.03c-.012-.028-.028-.083-.012-.126q.007-.014.02-.03c.019-.028.046-.052.058-.079a.3.3 0 0 0 .023-.093l-.004-.036c0-.023-.004-.046.004-.066q.024-.063.094-.074a.2.2 0 0 1 .035-.062c0-.016 0-.035.011-.047zm.047.206s0-.011.004-.02q.004 0 0 0-.025.065-.043.134a.03.03 0 0 1 0-.028c.004-.031.015-.078.035-.09zm-.184.332c.008-.024.028-.043.035-.062a.5.5 0 0 0 .032-.13v-.007l.004.004c.035.113-.035.218-.035.324 0 .035.011.07.027.097.008.024.023.047.011.082-.027-.02-.038-.047-.058-.078l-.02-.035a.4.4 0 0 1 .004-.191zm.047-.34s.028-.023.05-.019a.3.3 0 0 0-.026.133c-.004-.004-.016-.008-.024-.016-.023-.027-.015-.078 0-.097m-.101.281h.004c.027-.05.062-.093.074-.152.004 0 .008.004.011.004 0 .113-.09.16-.1.258-.02-.024-.017-.075 0-.09 0 0 0-.023.003-.008.004-.004-.004-.008 0-.015zm.187-.039q.001.05-.004.098c-.012.031-.035.055-.039.09v.02c0 .007-.008.015-.012.019-.003.03.004.058.004.093a.25.25 0 0 1-.02-.167c.013-.043.032-.079.032-.117.008-.075 0-.164.012-.235.011-.042.039-.066.058-.097.012-.004.02-.023.035-.02 0-.003-.008 0-.004-.003.051-.035.121-.075.203-.051l-.086.008a.3.3 0 0 0-.167.136l-.004.008s-.016.055-.02.086c-.008.05.012.09.012.136zm.698-.109c.012.082 0 .16-.031.219-.02.039-.047.074-.07.109.004.015.015.043 0 .058-.032-.004-.055-.015-.082-.027.004.043.047.047.074.062 0 .012-.012.028-.02.028-.011 0-.047-.028-.058-.032-.004-.003-.012-.015-.016-.015 0 .039.031.05.05.07-.003.012-.019.031-.03.031-.031.004-.047-.054-.059-.082-.02.008-.015.04-.023.059-.05-.02-.067-.07-.063-.125.012-.047.094-.035.11-.082q.002-.024-.008-.043-.004-.024-.02-.03c-.011.015.016.038 0 .054-.011.004-.02 0-.027 0-.035-.004-.062.011-.094.008-.015 0-.03-.008-.046-.008q-.018.001-.035-.004c-.004-.02.011-.035-.008-.043a.1.1 0 0 0-.012.058c0 .02.02.04.031.047.028.016.07.016.082.04a.1.1 0 0 1 0 .046c-.004.047-.043.078-.082.09.004-.016.012-.059-.008-.055-.011 0-.015.031-.027.047-.016.023-.05.043-.07.004.027-.02.054-.031.066-.067a.2.2 0 0 0-.058.02c-.024.012-.04.023-.04-.02a.1.1 0 0 0 .083-.054c-.024.008-.055.023-.086.015-.004-.003 0-.015 0-.019a.42.42 0 0 1-.059-.452q.016-.034.032-.055a.1.1 0 0 1 .046-.05.3.3 0 0 1 .11-.02c.042.004.07.023.1.031.044.012.075-.02.11-.023a.18.18 0 0 1 .125.035c.012.004.023.023.035.035a.26.26 0 0 1 .062.144zm-.027.663s.015.016.023.027c.012.024.012.102-.012.11.004-.098-.085-.137-.062-.234a.2.2 0 0 1 .023-.067c.016-.046.04-.101.024-.16 0-.003-.008-.015-.008-.023a.2.2 0 0 1 .039-.07c.016.004.016.027.016.039.011.035.035.078.035.12 0 .04-.02.087-.035.118-.024.031-.055.054-.051.105l.012.04zm.035-.749v-.007q.002.004.004.003c.039.02.054.07.058.125 0 .04-.015.078-.02.113a.13.13 0 0 0 .024.098c.012.012.035.023.035.047 0 .023-.02.039-.023.058-.016-.02-.02-.043-.024-.066-.003-.023-.015-.047-.015-.07s.004-.04.004-.063a.6.6 0 0 0-.043-.234zm.218.496c0 .023-.011.05-.02.07-.019.027-.042.035-.054.066-.012.043.02.082.012.117-.012 0-.02-.015-.024-.027a.1.1 0 0 1-.02-.031c-.015-.055.024-.133.005-.195 0-.012-.016-.028-.016-.035 0-.032.027-.055.024-.09 0-.023-.016-.035-.028-.05-.011-.016-.023-.024-.023-.044 0-.03.023-.058.027-.09a.2.2 0 0 0-.023-.144h.004q.034.035.062.086c.016.027.027.07.027.11 0 .05-.015.1-.011.148.004.038.043.062.046.105zm-.129-.663s.012-.012.012-.016c.024-.02.055.004.059.023.023.067-.032.149-.082.156-.024.004-.059-.003-.059-.019.004-.008.012-.004.02-.004a.16.16 0 0 0 .097-.05c.016-.043-.004-.086-.043-.086zm-.015.004s-.012.02-.004.03c0 .009.012.016.012.02 0 .008-.035.028-.047.031-.035.012-.086 0-.098-.019a.26.26 0 0 0 .14-.066zm-.43-.102s.067-.015.028-.023c-.004.011-.027.004-.027.023m.04.027c-.043.008-.098-.019-.148-.023q-.044-.008-.086-.004c-.078.012-.125.059-.152.137.031-.028.062-.059.105-.074.047-.02.117-.035.172-.012q.034.02.07.027c.039 0 .054-.012.074-.023.012-.02.047-.031.031-.059-.027 0-.035.024-.062.032zm-.745-1.2s.02-.016.035-.02c.043-.012.09-.027.137-.027a.03.03 0 0 1 .008.02c-.028.015-.063.015-.094.019-.031.003-.059.015-.086.011zm-.117.1s.004.04.004.055v.09c.183.289.218.726.21 1.186.012-.012.016-.028.024-.043a.8.8 0 0 1 .11-.187c.019-.028.034-.051.054-.067.008-.011.035-.02.035-.031 0-.016-.016-.047-.02-.058-.007-.02-.011-.04-.023-.055-.031 0-.082-.016-.086-.047-.004-.015.004-.023.012-.043-.004-.011-.02-.011-.02-.027 0-.02.012-.035.016-.05a3 3 0 0 1-.152-.352 2 2 0 0 1-.05-.187l-.02-.12-.012-.063s-.004-.016-.012-.082h-.004c-.027.012-.046.043-.07.058 0 .008.012.012.012.02zm.121 1.97v-.023l.02-.082c0-.02 0-.035.011-.047h.004c-.012.031-.012.07-.016.098q-.003.032-.019.05zm.047-.09c0 .063-.031.106-.031.164.003.07.03.137.066.176.035.039.093.047.129.086.015.015.027.039.039.058.007.016.007.035.02.047.003-.024.01-.043.01-.062 0-.024-.019-.04-.019-.055 0-.027.016-.055-.011-.074-.059-.02-.11-.035-.137-.082-.047-.07-.023-.176-.054-.257h-.004v.003zm.35.62c.028.04.047.118.012.16.016.02.024.04.047.047a.22.22 0 0 0 0-.19c-.011-.024-.031-.048-.039-.071-.011-.05.012-.082.016-.129 0-.02.004-.047 0-.066-.004-.047-.043-.086-.059-.129l-.023-.062a.4.4 0 0 1 .012-.148c.011-.028.023-.051.035-.082a.26.26 0 0 0-.012-.137c0-.011-.008-.035-.02-.03a.3.3 0 0 0-.03.07c-.016.042-.012.093-.016.144 0 .05-.02.097-.024.136-.007.063.016.094.036.129.015.027.035.05.042.074.02.058 0 .11-.02.16-.01.047 0 .09.012.12.004.012.008.028.024.036.012 0 0-.02.004-.027zm.43-.128c0 .043.02.078.027.117a.2.2 0 0 1-.05.156c-.032.039-.083.043-.09.105.023 0 .039.016.058.012.012 0 .02-.012.031-.012.024-.008.043-.012.063-.023a.1.1 0 0 0 .047-.043.2.2 0 0 0 .035-.062c0-.02.007-.059.004-.075 0-.02-.012-.046-.016-.066a.2.2 0 0 0-.02-.066c-.007-.012-.02-.024-.027-.04a.2.2 0 0 1-.016-.066c0-.035.04-.058.047-.09a.13.13 0 0 0-.015-.07c-.008-.019-.008-.035-.016-.046-.012-.031-.054-.066-.054-.102 0-.011 0-.023.019-.027.016.008.012.027.023.04 0 .007.012.015.02.023l.016.054c.011.04.038.086.03.137-.007.035-.038.062-.038.093 0 .024.02.047.035.059.027-.059.062-.098.058-.18l-.004-.046c-.011-.047-.05-.079-.058-.133-.008-.062.027-.098.035-.156-.02.039-.039.078-.086.094-.015-.012-.027-.024-.05-.032h-.016c-.016 0-.035-.02-.05-.02-.013 0-.024.009-.04.012-.015 0-.035-.011-.05-.011-.012 0-.028.015-.043.02-.02 0-.035 0-.051.011.016.02.012.066.031.082.02.015.047.004.066.015 0 .008.008.012.008.016 0 .047.02.066.02.105.004.012.02.024.02.04 0 .015-.02.035-.024.058v.047c0 .02-.02.03-.02.05q-.001.019.004.032c0 .007.004.02.016.027 0-.07.039-.121.039-.18 0-.023-.012-.042-.016-.062a.3.3 0 0 0-.015-.062c0-.012-.016-.02-.02-.032 0-.015 0-.023.004-.035.02-.003.05 0 .07-.003.004.011.016.019.016.038 0 .02-.024.036-.031.055-.004.043.027.094.023.148-.004.024-.008.055-.02.078-.007.028-.019.047-.019.078 0 .063.016.125.004.172-.012.035-.04.055-.062.074-.008.02-.032.02-.04.039.051.027.055-.024.07-.047.02-.023.044-.027.06-.043.026-.05.077-.109.058-.187-.008-.023-.024-.039-.032-.062 0-.028.02-.051.016-.078 0-.012-.008-.028-.008-.043 0-.027.024-.063.016-.098-.008-.02-.02-.03-.023-.05v-.04c0-.019.007-.058.023-.058.012 0 .023.063.023.074 0 .016-.011.04-.004.05 0 .028.016.044.016.067-.004.024-.02.043-.023.063-.004.023.011.043.011.062l-.004.031zm.526.117a.3.3 0 0 0 0-.094c0-.054-.031-.093-.035-.152v-.09c0-.03.008-.085 0-.128 0-.027-.02-.098-.039-.105-.008 0-.016.015-.02.019l-.019.008a.13.13 0 0 0-.02.066c0 .016.012.031.012.047 0 .027-.011.043-.011.058s.007.028.011.04a.2.2 0 0 1 0 .058c0 .02-.011.035-.02.054-.003.043.009.086-.01.121-.013.02-.032.036-.036.059 0 .02.012.039.008.058a.17.17 0 0 0 .066-.128c0-.043-.012-.106.016-.133-.012.082.015.133.004.195 0 .016-.016.05-.024.063l-.031.038c-.016.016-.035.02-.047.04-.004.007 0 .019-.008.027a.1.1 0 0 1-.02.05c-.022.032-.061.051-.077.082-.004.008 0 .02-.004.024-.004.011-.02.015-.027.027-.008 0-.028 0-.02.02q.017.003.028-.004a.3.3 0 0 0 .05-.043q.024-.024.047-.043c.055-.043.117-.07.152-.117a.3.3 0 0 0 .047-.082c.004-.008.016-.02.016-.031zm-3.53-3.69s.04-.019.056-.034c-.004.02-.032.035-.055.039zm-.042.258c-.012-.043-.016-.097-.023-.136q.017.036.027.085c.004.032.015.067.012.094-.012-.008-.012-.027-.016-.039zm-.062-.242.027-.02c.004.005-.008.009-.012.016.008.032.008.067.031.086-.011 0-.015.008-.027.008 0-.016-.027-.07-.023-.09zm-.012-.09q-.036-.064-.074-.124a.7.7 0 0 0 .023-.14c.008 0 .004.011.004.019.012.035.043.078.004.093.012.059.039.11.05.172-.007-.004-.003-.012-.011-.02zm-.035.172s.027 0 .027-.011c-.004-.012-.02 0-.027 0-.016.003-.031.007-.047.003-.031-.007-.066-.023-.078-.05a.2.2 0 0 1-.016-.078c0-.047 0-.106-.007-.137-.004.078-.016.18.015.238a.3.3 0 0 0 .047.031.2.2 0 0 0 .09.004zm4.31 3.947s-.032-.008-.044-.016c-.031-.004-.07-.004-.101-.004-.031-.004-.059-.004-.094-.011q-.047-.005-.093-.016c-.024-.008-.051-.027-.075-.043a3 3 0 0 0-.265-.12c.02-.032.043-.055.059-.087.02-.039.023-.09.031-.14.004-.031.016-.066.02-.094.003-.066 0-.124-.004-.183-.02-.183 0-.363-.008-.534a.8.8 0 0 0-.043-.21c-.023-.067-.04-.141-.062-.196a.2.2 0 0 0-.036-.062c-.011-.016-.035-.027-.043-.043v-.027c-.007-.024-.038-.032-.054-.047-.016-.012-.024-.024-.035-.031-.012-.012-.027-.016-.043-.024-.012-.004-.027-.004-.04-.011-.01-.004-.015-.016-.022-.02-.04-.023-.075-.012-.125-.023-.008 0-.016-.008-.024-.008-.062-.02-.152-.004-.218-.027-.074-.02-.137-.059-.199-.078.004-.036-.023-.043-.043-.055 0-.02.016-.055-.008-.066H63.5c-.035-.121-.054-.238-.086-.351-.015-.059-.043-.113-.05-.168l-.016-.098c0-.03-.012-.062-.016-.093-.011-.05-.007-.094-.011-.14.015-.024.054-.047.05-.082v-.02c-.004-.023-.02-.043-.03-.062-.032-.07-.044-.152-.06-.23-.015-.086-.027-.164-.054-.234-.008-.024-.02-.047-.027-.07q-.002.001-.004-.004c-.008-.051-.027-.075-.074-.082-.004-.016-.02-.028-.028-.047-.003-.012-.027-.035-.027-.047-.004-.027.004-.047-.004-.066 0-.012-.015-.016-.02-.027 0-.012.005-.02 0-.032 0-.015-.015-.015-.019-.03.02-.032 0-.063-.015-.083.015-.023 0-.047-.016-.062.02-.024-.004-.05-.016-.07a.06.06 0 0 0-.015-.07c.015-.04-.004-.063-.012-.082v-.024c0-.012-.012-.02-.015-.027q.001-.02-.004-.031a.1.1 0 0 0-.012-.04c-.012-.07-.02-.113-.062-.163a.3.3 0 0 0-.234-.094.37.37 0 0 0-.23.07.22.22 0 0 0-.09.125q0 .008-.012.016a.24.24 0 0 0-.035.117q-.017.041-.027.078c-.004.015 0 .027-.004.043l-.008.023.004.027c-.023.016-.02.047-.016.075-.02.011-.02.05-.004.062-.023.02-.023.066-.004.09-.003.015-.015.02-.015.035s.012.023.012.035c0 .011-.016.02-.02.031a.07.07 0 0 0 .008.05c-.016.02-.031.047-.02.079-.004.011-.015.015-.02.027-.003.004 0 .016-.003.023-.004.02-.023.032-.035.043q-.017.02-.027.043a.6.6 0 0 0-.063.14c-.043.18-.078.383-.129.554-.011.035-.015.07-.035.102-.093-.035-.202-.047-.304-.07-.004-.02 0-.04-.015-.047-.02-.012-.043.004-.063.011-.008-.023-.05-.035-.074-.02-.011-.007-.027-.01-.035-.022a.2.2 0 0 0-.074-.117c-.016-.012-.039-.02-.058-.036a.4.4 0 0 0-.094-.046.2.2 0 0 1-.078-.055c0-.004 0-.02-.004-.027-.031-.117-.062-.23-.09-.347-.004-.02-.011-.043-.011-.055s.007-.012.011-.023a.2.2 0 0 0-.008-.047c-.015-.05-.03-.094-.035-.14a.24.24 0 0 0 .13-.063c.019-.031.038-.055.034-.105-.011-.129-.113-.223-.12-.363 0-.031.007-.058-.005-.082-.015 0-.023.024-.027.04-.039.108.027.202.043.3.008.042 0 .09-.031.116-.016.012-.043.04-.059.028-.015-.04-.023-.102-.015-.148-.016-.024.015-.047.008-.074 0-.012-.02-.028-.032-.036a.1.1 0 0 0-.027-.035 1 1 0 0 1-.094-.18c-.011-.019-.015-.046-.039-.054-.015.012-.003.028-.003.04.007.046.011.089.015.14 0 .035 0 .097-.008.136-.004.012-.015.027-.011.04.004.007.015.015.02.023.007.011.01.023.019.035.03.039.05.085.07.132-.012.004-.02.02-.016.035-.07.028-.113-.023-.117-.082-.004-.054 0-.116-.011-.171a.3.3 0 0 0-.067-.16c-.012-.012-.027-.031-.047-.023 0 .02.016.03.024.046.035.102.02.273.023.394 0 .055.031.098.066.117.047.028.11.012.164 0 .016.043.032.106.043.152.004.012.004.024.008.032.004.003.016.007.02.015.007.008.011.04.015.059.035.136.07.28.102.41 0 .01-.012.015-.016.022-.008.02-.004.04-.004.063v.031c0 .012.012.023.016.035.004.027 0 .05.02.063a.1.1 0 0 0 .03.07c.012.011.028.015.035.027a.3.3 0 0 1 .02.066c.004.028.012.051.015.07.036.141.067.274.102.414.117.46.226.916.34 1.377.023.093.05.183.062.28a.4.4 0 0 0-.063.02 1 1 0 0 0-.242.117l-.027.015c-.12.082-.207.219-.285.348l-.035.058q-.005.02-.015.039c-.004.012-.016.023-.02.035a.6.6 0 0 0-.05.176c-.012.082 0 .16.023.222-.035 0-.113.012-.113.047 0 .02.023.039.027.05a.07.07 0 0 1-.058.004c-.043-.004-.106-.011-.14.004-.013.008-.032.024-.028.04 0 .03.07.038.101.038.016 0 .028-.004.035-.004.028 0 .059 0 .082.008.012.004.012.012.016.012h.027l.028.004h.085c-.004.008-.015.015-.023.023.004.012 0 .02 0 .035.015.027.035.035.066.043.063.016.113-.015.172-.008.043.004.086.028.136.02-.02.023-.035.066-.015.093.011.016.027.016.039.024a1 1 0 0 0 .136 0c.031 0 .09-.02.117 0 .012.004.016.023.028.039 0 .004.011.011.019.015l.016.02c.02.012.078.023.09.043 0 0-.005.004 0 .008 0 .05 0 .105.027.144.011.015.03.023.038.043.028.015.055.039.086.058q.032.017.063.028c.02.011.035.03.05.046h.008c-.012.004-.012-.015-.012-.027 0-.027.012-.055.02-.082.035-.168-.062-.288-.136-.366q-.02-.016-.028-.032c.04-.007.063-.027.098-.046q.022.088.039.183c.004.02.011.047.023.054.016.008.05-.003.055-.015.015-.023-.004-.062-.012-.09l-.031-.125c-.004-.02-.02-.054-.012-.066.004-.02.066-.023.105-.02.02 0 .051.008.075.008.03-.003.054-.027.09-.015.015.012.023.027.038.031a.3.3 0 0 0 .16 0l.07-.023c.035-.012.07-.012.094-.028.023-.004.074-.015.074-.035 0-.011-.016-.011-.012-.027.02-.004.04-.016.063-.016.03 0 .062.008.09.008.015 0 .035-.008.05-.004.035.004.07.02.11.016.019-.004.034-.012.062-.016.023-.004.05.004.074.008.031 0 .07 0 .105-.004a.4.4 0 0 0 .129-.031c.008-.004.023-.02.035-.02s.035.004.05.012c.02 0 .043.004.059.004.02 0 .055-.004.055-.016.003-.011-.02-.03-.028-.039-.047-.027-.136-.027-.195-.02-.015.005-.035.017-.043 0 0-.015.024-.01.036-.019.011-.003.015-.015.023-.023a.4.4 0 0 0 .16 0c.027.02.062.023.105.027.004.008 0 .02.004.028.023.02.062.023.101.023.102.004.215.027.316.031.043.035.125.027.18.043-.016.004-.028.02-.04.027a.4.4 0 0 0-.222.008c-.027.012-.039.043-.015.063.023.023.074.027.117.027s.09.012.132 0a.1.1 0 0 0 .051-.023c.012-.004.016-.02.016-.032.043 0 .16.004.167-.039 0-.015-.011-.02-.015-.027.023.004.027-.027.047-.031h.03s.032-.008.04-.012c.02-.012.023-.027.039-.039.027 0 .05.008.074-.004.027-.011.047-.039.074-.043.031-.008.055 0 .086.008.027.004.058.016.09.016.027.004.066 0 .09-.016.015-.004.026-.023.042-.027.027-.008.063-.004.082-.031v-.024c.055-.023.078-.062.07-.136-.004-.07-.058-.117-.125-.129zm-1.576.483c.05-.011.14-.015.16.032.058 0 .112.011.144.035.008.023-.008.03-.028.046-.023.012-.058.032-.101.024a.2.2 0 0 1-.055-.02c-.039-.004-.085 0-.113 0-.043-.004-.124-.004-.152-.027-.011-.008-.015-.023-.004-.035-.023-.004-.062-.012-.074-.027-.043-.035.047-.047.074-.047q.042 0 .07.012c.016.003.024.015.036.015s.027-.008.043-.012zm-.203-.565s.047-.02.062-.031c-.031-.035-.128-.032-.125.039.004.027.067.035.063-.004zm.468-.807s.054-.008.07 0c.004.023-.02.043-.04.039-.015 0-.034-.02-.034-.04zm-.137-.503c-.012.042.047.054.078.042 0-.007 0-.007-.008-.011-.02.011-.054.015-.058-.012 0 0 .012.004.02.004.023-.016-.008-.035-.032-.027zm.059-.036c-.043-.023-.086.008-.121 0-.008 0-.016-.011-.024-.011 0 .035.016.05.047.054.016.047.066.063.133.063.008.004.004.015.015.015.008 0 .02-.015.02-.023a.1.1 0 0 0-.016-.043c-.004-.02-.039-.043-.054-.055m.269.067c.035.015.078 0 .086-.035-.004-.004-.008-.012-.02-.012 0 .023-.016.047-.043.039.016-.008.016-.027 0-.04q-.028.002-.027.032c-.004.004-.012 0-.012.016.004.004.008-.004.016-.004zm.105-.074c-.027 0-.055-.02-.082-.016-.02 0-.043.02-.058.035a.2.2 0 0 0-.028.082c0 .004 0 .012.012.016.012.003.008-.016.016-.016.054.004.09.004.117-.016.015-.011.023-.035.03-.058.009-.016.028-.031.02-.05h-.004c-.007.003-.015.019-.027.023zm-.214-.004s-.024-.028-.024-.032c-.008.032-.027.036-.043.04-.015.003-.023-.008-.03-.008-.005.043.061.03.073.008.012.015.059.035.063-.004q-.024.01-.047-.004zm-1.213-1.248c.039-.04.035-.105-.008-.133h-.004a.1.1 0 0 0-.043.063c0 .03.012.05.024.066q.015.029.035.004zm-.02-.145c-.039.004-.07.024-.082.047a.08.08 0 0 0-.004.074c.012.024.055.055.086.055.035 0 .078-.027.09-.05.031-.067-.023-.13-.094-.125zm-.004-1.212s.016-.004.024-.004c0 .008-.02.004-.024.004m.094-.055s.02.008.02.027c-.02 0-.028.004-.036.004q-.001.03-.027.043a.2.2 0 0 1-.058 0c-.02-.008-.02-.031-.028-.043h-.03c-.005-.008-.009-.023 0-.027.007 0 .007.012.023.012.019.004.038-.024.066-.004.008 0 .02-.008.031-.004.008 0 .02.004.027.004.004 0 .012-.008.016-.008z" clip-rule="evenodd"/><path fill="#EE7A00" fill-rule="evenodd" d="M62.646 3.163 60.072 22.49l2.578-1.373V3.163zm-5.499 21.983-9.932-3.237 10.506 6.045zm20.93-3.245-11.956 1.287 2.055 1.946zm-11.98 9.679 6.31 8.557-5.155-11.088zm-13.216 8.568 9.2-8.15-2.875-.422-6.321 8.572zm10.124-8.361 2.932-.421 1.178-2.613zm-4.816-3.03 1.177 2.605 2.925.425-4.106-3.03zm1.302-5.487-2.086 1.958.585 2.835zm6.314 0 2.086 1.958-.585 2.839-1.501-4.793zm-.55-.44-2.601-1.408-2.61 1.407z" clip-rule="evenodd"/></g><defs><clipPath id="clip0_3802_8465"><path fill="#fff" d="M0 0h80v41.786H0z"/></clipPath></defs></svg>