<svg fill="none" viewBox="0 0 80 23"><g clip-path="url(#clip0_3802_8471)"><path fill="#B30738" d="M11.313 0C5.064 0 0 5.064 0 11.312s5.064 11.312 11.313 11.312c6.247 0 11.312-5.064 11.312-11.312S17.56 0 11.313 0m-8.88 11.312c0-4.451 3.274-8.133 7.545-8.776V6.69l-1.85.007c-1.39 0-2.234 1.02-2.234 2.41v4.355c0 1.39 1.14 2.462 2.53 2.462H9.97l.007 4.172a8.89 8.89 0 0 1-7.546-8.784m6.148 2.177s-.123-.013-.185-.12c-.06-.105-.044-.161-.044-.161V9.43s-.006-.133.067-.215c.07-.077.197-.08.197-.08h5.34s.085-.012.184.042c.084.045.132.223.132.223v3.877s-.048.107-.093.145c-.043.037-.131.066-.131.066l-1.413.003zm4.03 6.614-.007-4.207h1.666c1.391 0 2.412-1.044 2.412-2.434V9.107c0-1.39-1.108-2.404-2.498-2.404l-1.58.002-.001-4.18a8.88 8.88 0 0 1 7.59 8.787 8.88 8.88 0 0 1-7.581 8.79"/><path fill="#231F20" d="m75.582 21.65.05-.115c.033-.034.232-.086.313-.187.078-.101 1.735-3.851 1.735-3.851l.101-.026 1.522 3.494c.101.23.17.386.229.442a.7.7 0 0 0 .316.128c.06.005.025.094.025.094l-1.672-.003s-.11-.084 0-.127c.068-.027.337-.108.38-.28.019-.075-.017-.254-.094-.457-.053-.144-.205-.46-.29-.52-.075-.053-.39-.024-.68-.033-.263-.008-.612-.017-.722.042-.138.074-.29.65-.323.74-.03.087 0 .29.077.349.128.1.382.178.475.204l.026.102zm2.53-1.714c.043-.055-.114-.367-.263-.697-.11-.246-.297-.723-.357-.705-.042.012-.195.39-.314.663-.128.293-.284.661-.222.722.037.037.324.06.562.051.272-.01.556.018.595-.034m-46.534.823c.089-.436-.009-.723-.263-.936-.121-.101-.444-.255-.707-.255-.361 0-.599-.034-.599.37l.004.982c0 .552.69.493.69.493.56 0 .807-.323.875-.654m10.873.73a.5.5 0 0 0 .307-.195c.05-.077.11-.181.11-.442v-2.601c0-.162-.05-.318-.118-.383-.067-.066-.173-.135-.408-.153 0 0-.18-.11 0-.16l1.572-.004s.145.045.018.113c-.114.06-.214.017-.305.12-.063.07-.101.21-.104.43V19.5c0 .05.05.126.068.128.085.008.136-.096.18-.12.17-.144.432-.427.67-.654.427-.406.643-.618.714-.714.094-.127.112-.306.06-.366-.06-.068-.187-.068-.297-.102 0 0-.102-.068.016-.11h1.403s.051.127-.025.161c-.194.018-.266.06-.383.12a2.6 2.6 0 0 0-.543.416s-1.026.882-.987.986c.06.161.651.855 1.054 1.41.172.24.344.538.442.614.095.068.246.212.374.212.149 0 .077.136.077.136s-.798-.03-.935-.017c-.094.008-.207-.162-.207-.162-.311-.408-1.205-1.657-1.272-1.735-.034-.025-.4.247-.409.477v.756c0 .228.053.343.12.41.11.109.39.143.39.135.129.034.043.12.043.12h-1.692s-.06-.086.067-.111m-5.24.002c.114-.044.323-.175.404-.265.076-.09.135-.169.135-.494 0 0-.018-1.971-.018-2.26 0-.239-.083-.554-.194-.638a.67.67 0 0 0-.383-.145s-.11-.119.01-.145h1.062l2.517 2.78s.097.122.152.095l.023-.136c.011-.213.003-1.848.003-1.848 0-.176.033-.371-.086-.508-.152-.174-.455-.204-.544-.238-.068-.025-.068-.102.008-.127h1.344c.093.008.026.102.026.102-.153.043-.302.076-.374.17-.085.11-.129.276-.129.601v3.24h-.112s-2.764-3.003-2.93-3.17c-.076-.075-.102.026-.102.129l-.008 2.065c0 .337.068.544.283.657.084.044.3.098.397.116.042.01.063.131.063.131H37.21s-.04-.096 0-.112m-4.586.122.05-.115c.034-.034.234-.085.315-.187.076-.102 1.733-3.851 1.733-3.851l.103-.026 1.522 3.494c.102.23.169.386.23.442.06.054.212.12.313.128.062.005.027.094.027.094l-1.693.042s-.059-.093.051-.136c.069-.026.307-.144.349-.315.02-.076-.017-.255-.094-.458-.053-.144-.203-.46-.288-.52-.076-.053-.392-.024-.68-.033-.265-.008-.613-.018-.723.043-.139.074-.291.65-.323.739-.03.087 0 .289.076.348.129.1.383.18.476.204l.025.103zm2.533-1.713c.041-.056-.116-.367-.264-.697-.111-.247-.297-.725-.357-.706-.043.014-.196.39-.315.663-.129.294-.283.661-.22.723.036.036.323.059.56.05.273-.009.557.02.596-.033M31.375 18.6c.003-.274-.157-.527-.333-.674a.85.85 0 0 0-.518-.187c-.306 0-.508.043-.508.332l-.003 1.08c-.025.254.586.19.586.19.512 0 .767-.071.776-.741m-2.577 2.886c.204-.057.354-.107.417-.185.068-.085.091-.139.095-.369V18.21a.48.48 0 0 0-.138-.36c-.183-.199-.4-.068-.433-.144-.025-.056-.018-.159-.018-.159h1.715c.49 0 .815.021 1.108.168a.87.87 0 0 1 .485.77c0 .548-.442.743-.62.87.34.094.9.29.9.927 0 .663-.365 1.08-.714 1.19a3 3 0 0 1-.878.125h-1.92zm24.647.036c0 .012.212-.068.306-.144.067-.056.119-.168.119-.434l.009-2.576c0-.215-.027-.314-.103-.434-.077-.117-.264-.144-.484-.178 0 0-.161-.12-.048-.168a197 197 0 0 1 1.773.015c.596.01 1.19-.049 1.25-.008.077.051.036.623.051.73.008.06-.038.181-.093.188-.068.008-.085-.113-.085-.187 0-.154-.13-.33-.161-.374-.082-.109-.239-.13-.314-.13h-.915c-.081 0-.105-.002-.132.028a.34.34 0 0 0-.06.179v1.13c0 .067.004.164.042.178.095.034.706.026.706.026.103 0 .222-.102.256-.161.053-.092.14-.203.187-.341.026-.076.161-.136.161.035 0 .107.018 1.326.018 1.326-.069.094-.127-.026-.127-.026-.047-.236-.088-.322-.163-.399-.071-.077-.179-.17-.332-.17l-.526-.008c-.196-.018-.204.195-.213.271l-.009 1.09c.009.109.035.256.103.321.069.06.243.183.475.204.112.01.035.134.035.134H53.4s-.084-.057.044-.117m-4.234-3.476c.376-.36.92-.516 1.47-.519.55 0 1.007.086 1.386.45.407.392.618.876.622 1.53 0 .664-.214 1.205-.639 1.599a2.17 2.17 0 0 1-1.446.56c-.574 0-1.124-.155-1.504-.543-.383-.394-.524-.923-.527-1.548 0-.651.225-1.132.638-1.53m.527 2.958c.337.384.57.467 1.037.467.323 0 .649-.19.901-.492.213-.255.315-.706.315-1.37 0-.666-.184-1.11-.434-1.42-.289-.357-.602-.438-.96-.44-.365 0-.731.093-.97.364-.26.297-.378.771-.382 1.42 0 .643.305 1.259.493 1.47m21.33.485c0 .009.273-.085.375-.238.063-.096.104-.187.104-.51l-.036-2.542a.5.5 0 0 0-.23-.366c-.084-.043-.223-.033-.297-.094 0 0-.17-.126-.026-.153-.011.005 1.029-.033 1.043.005.113.072 1.737 1.874 2.41 2.648.22.263.305.22.296-.034l.01-1.904c0-.272-.137-.367-.196-.409a1 1 0 0 0-.443-.189s-.17-.057 0-.113h1.335c.094-.004.094.073 0 .098-.118 0-.262.096-.339.186-.078.091-.116.293-.116.616l-.004 3.109c-.008.145-.145.068-.145.068s-2.532-2.763-2.834-3.101c-.004-.003-.047-.087-.12-.034-.046.033-.052.049-.047.125l.007 2.083c0 .335.116.519.214.62.063.066.167.122.391.145.136-.008.111.135.111.135l-1.555.001s-.027-.119.093-.152m-2.362.041c.06-.016.188-.087.263-.143.072-.058.112-.17.114-.41l.013-2.626c-.009-.17-.009-.374-.093-.459-.124-.123-.262-.176-.515-.189 0 0-.106-.057 0-.113h1.689c.135.022-.018.113-.018.113a.4.4 0 0 0-.297.138c-.078.093-.075.284-.086.425v2.71c0 .237.079.377.154.436.07.054.157.098.407.12.162.025 0 .11 0 .11l-1.632-.002c-.127-.041 0-.11 0-.11m-5.305-.016c-.011.002.254-.172.313-.238.06-.063.111-.168.111-.433l.017-2.534c0-.219-.044-.341-.094-.425-.059-.103-.197-.118-.424-.136 0 0-.324-.077-.026-.153h1.59c.17.008.026.109.026.109-.128.002-.23.044-.294.123-.057.072-.114.202-.101.427v.896s-.013.213.173.204c.274-.012 1.495.024 1.683.01.222-.017.264-.153.264-.256.009-.255 0-.828 0-.828 0-.218-.058-.385-.123-.453q-.1-.096-.44-.123c-.16-.023-.05-.113-.05-.113l1.693.002s.085.095-.051.113c-.137-.01-.192.053-.26.12q-.1.099-.1.428l.003 2.699c0 .221.044.292.11.357.066.06.14.163.365.188.12.016.171.135.035.144l-1.548.034s-.204-.093.026-.17a.48.48 0 0 0 .247-.17c.045-.074.077-.272.077-.408 0 0 .008-.944.008-1.09 0-.1-.034-.236-.17-.211 0 0-1.659-.005-1.794-.017-.094-.008-.154.042-.154.22V20.9a.7.7 0 0 0 .188.468c.066.063.189.123.417.145.195.025.05.127.05.127l-1.809-.002s-.103-.091.042-.126m-1.693-3.809c.216.113.391.204.485.196.059-.006.106-.124.127-.196.094-.128.128.102.128.094l.076 1.147s-.076.112-.153 0c-.08-.272-.293-.571-.442-.73-.22-.239-.62-.478-1.046-.485-.484-.009-.82.19-1.07.501-.214.264-.34.706-.34 1.165 0 .543.23 1.174.552 1.48.313.296.649.446 1.089.45.316 0 .495-.086.764-.239.153-.083.36-.307.544-.483.11-.094.17.034.17.034.018.092-.334.46-.62.688-.213.17-.766.366-1.046.366-.657 0-1.037-.034-1.615-.553-.327-.294-.51-.901-.514-1.484q.001-.892.565-1.5.591-.637 1.55-.637c.22 0 .584.076.796.186M45.007 5.99c.027-.05.034.042.16.18s.048.18.124.29c.074.112.075.052.056.18-.017.126-.042.1-.155.192-.111.091-.017.05-.127-.06-.108-.113-.013-.273-.121-.368-.11-.094-.118-.094-.092-.246.028-.153.129-.117.156-.168m-.429.419c.052-.033.143.12.21.283.064.161.065.127.122.306.058.18.041.094-.105.262-.146.169-.34.149-.538.325s-.283.124-.462.249-.154.083-.305.022c-.152-.061-.143-.104-.04-.23s.086-.058.163-.125c.077-.068-.092-.078-.008-.145.086-.066.076.026.214-.124.138-.152.097-.178.148-.27a.55.55 0 0 1 .259-.269c.145-.066.291-.25.342-.284m1.117-3.618c.051-.025.162-.023.28-.005.07.01-.052-.018.247-.031.152-.007.236.07.372.149.316.183.538.247.606.347.058.084.103.25.08.374-.018.101-.028.297-.157.405-.111.095-.176.18-.232.236-.052.05-.032.202-.122.235-.11.042-.195-.035-.33-.037-.145-.003-.256.081-.298.038-.03-.032-.064-.083-.117-.12-.05-.035-.126-.01-.135-.07a1.2 1.2 0 0 0-.224-.435c-.034-.034.051-.213.004-.272-.051-.06-.042-.154-.05-.213a1 1 0 0 1-.006-.178c.001-.06-.078-.154-.04-.23.027-.05.066-.166.122-.193m-1.375 1.068c-.031-.161.155-.116.325-.208.172-.091.086-.067.136.069.05.137-.051.009-.096.195-.044.186-.044.152-.164.236-.12.082-.102-.01-.16-.104-.058-.095-.008-.026-.04-.188m-2.038-1.025c-.034-.08.175-.355.726-1.043.49-.612 1.506-1.018 1.924-1.165.089-.032.384-.118.486-.14.077-.015.386-.028.458-.053.146-.049.39-.031.434-.054.106-.05.218-.08.341-.106.142-.03.322.046.45.022.249-.046.444.096.583.17.48.251 1.005 1.14 1.202 1.643s.605 1.918.676 3.073c.046.742.018 2.682-.01 2.98-.052.529-.074 1.771-.11 2.009-.045.287-.078.78-.182.958-.192.326-.974.91-1.142 1.063-.138.126-.728.64-.797.636-.085-.006-.185-.181-.37-.361-.33-.323-1.188-.626-1.551-.825-.356-.197-1.523-.306-2.237-.35-.508-.032-1.288-.1-1.313-.16-.028-.068-.084-.045-.162-.046-.07 0-.076.085-.093.118-.027.05.033.026.007.17-.029.144.04.052.056.17.016.12.067.07.023.18-.043.11.177.188.218.308.048.141.046.323-.106.33-.164.007-.308.072-.484.01-.128-.044-.564-.44-.586-.687-.02-.21-.048-.697-.066-.848-.03-.272-.133-.987-.161-1.343-.031-.358-.065-.282.004-.425.07-.143-.108-.165-.047-.357.045-.136-.012-.397.067-.567.035-.077-.056-.077-.05-.154.01-.103.02-.17.047-.271.02-.078.01-.17.004-.314-.007-.145-.006-.204.055-.306.037-.062-.033-.094-.023-.22.005-.074.093-.738.13-.992.038-.253.093-.928.14-1.017.13-.244.205-.795.258-.99.057-.206.237-.39.279-.549.018-.067.128-.125.171-.098.059.035.083.213.082.28-.002.1-.067.529-.11.619-.053.11-.109.506-.117.567-.016.106-.02.23-.03.305-.01.077-.061.178-.088.262-.02.07.017.21-.003.28-.026.093-.018.153-.062.229-.041.072.023.144-.003.204-.032.073.032.144-.019.228-.054.088.036.107.006.22-.036.137-.03.247-.064.314-.034.068.064.157.03.281-.044.17-.014 1.13-.04 1.324-.028.194-.019.805.004.917.017.076.023.229.091.22.085-.009.1-.284.181-.268.052.01.018.166.032.271.023.196.008.03.054.375.032.23-.008.61.025.73.032.12.015.23.142.23.11.002.069-.083.155-.192.086-.11.092-.126.162-.075.059.044.474.04.61.017.177-.032.299-.177.42-.267.145-.109.712-.645.995-.888.129-.11.483-.529.62-.663a18 18 0 0 0 .635-.654c.044-.05.062-.118.012-.212q-.046-.086-.136-.036c-.146.082-.334.327-.48.42-.255.16-.576.377-.753.482-.196.116-.479.248-.658.348-.231.13-.49.213-.53.232-.084.042-.115.066-.194.005-.067-.05-.047-.02.02-.237.044-.144-.07-.3.091-.508.103-.134.201-.481.365-.683.058-.073.375-.467.44-.572.052-.084.156-.13.172-.158.052-.103.117-.229.147-.246.107-.056.215-.215.231-.235.036-.04.05-.066.028-.134-.009-.026-.063-.121-.128-.044-.068.083-.195.107-.247.14-.095.063-.07.178-.164.185-.137.011-.124-.213-.107-.289.022-.09-.05-.111-.006-.205.101-.213.071-.236.098-.278.025-.042.049-.01.102-.075.035-.043-.032-.102.01-.153.088-.102.113-.223.2-.278a1.05 1.05 0 0 0 .275-.335c.021-.073.028-.147.053-.221.01-.026-.087-.039-.126-.086-.042-.052-.007-.085.01-.179.01-.05-.09-.112-.09-.179 0-.077-.008-.11-.1-.103-.094.007-.298.219-.462.25-.17.03-.305-.09-.218-.258.108-.21.363-.513.414-.573.077-.086.062-.168.054-.253-.008-.087-.086-.28-.113-.486a5 5 0 0 0-.17-.612c-.017-.034-.055-.14.044-.178.043-.017.128.077.185.163.089.13.225.368.266.453.052.106.1.215.124.299.016.06.057.17.143.18.083.01.136.001.187-.049.087-.085.54-.263.734-.33.093-.033.145-.05.245.011.057.034.125.231.159.248.069.036.102.027.084.078-.012.033 0 .016-.086.118-.087.1-.011.135-.096.27-.088.135-.158.32-.193.404-.034.082-.112.118-.172.177-.07.068-.045.16-.078.178-.107.051-.104.035-.138.108-.034.076-.053.194.03.349.041.076.118.094.133.154.032.114.11.111.152.171.071.104.058.097.1.163.075.12.066.07.16.137.058.043.107.18.174.25.11.11.252.197.353.318.08.096.083.145.073.23-.015.143.017.06-.036.16-.038.076-.002.178-.003.23 0 .093-.001.16-.061.245-.062.084-.233.303-.268.387-.03.07-.054.143-.02.178.047.048.084.069.144.028.11-.077.431-.606.708-.96.147-.188.45-.69.52-.825.07-.139.285-.4.328-.455.025-.033.101-.033.118.027.014.053-.01.11.006.145.023.046.084.018.093.094.007.077.015.11-.011.152-.02.033.048.05.008.12-.036.059.006.178-.089.287-.135.156-.467.596-.604.774-.19.244-.74.899-.826.975-.047.04-.103.129-.079.185.041.094.2.359.292.436.12.1.37.25.48.253a.42.42 0 0 0 .265-.074c.205-.16.37-.505.44-.674a7 7 0 0 0 .265-.794c.015-.119-.04-.247-.03-.29.012-.052.085-.04.101.011.022.068.04.196.056.28.027.142-.188.864-.225 1.11-.046.296-.405.803-.435.878-.019.041-.01.11-.096.116-.099.01-.135-.018-.194-.035-.22-.063-.406-.218-.547-.347a6 6 0 0 1-.52-.61c-.03-.05-.142-.128-.193-.085-.094.075-.233.284-.302.335-.053.039-.156.08-.214.141-.086.093-.189.21-.291.302-.077.069-.404.31-.464.369-.094.092-.207.243-.275.293-.07.05-.3.191-.368.268-.077.084-.186.255-.276.293-.06.024-.137.125-.078.177.058.051.255-.038.382-.062.101-.02.255-.023.366-.03.068-.006.13-.077.29-.124.137-.041.229.02.288.003.075-.02.12-.05.24-.082.133-.036.314-.013.39-.045.055-.025.052-.042.155-.11.066-.043.155-.002.229-.022q.225-.058.443-.139a7 7 0 0 1 .664-.17c.065-.007.163-.15.274-.191.14-.053.409-.005.519-.07.065-.04.215.046.286.173.091.162-.012.245-.038.339-.067.233-.131.338-.209.422s-.105.236-.232.27c-.147.035-.223.057-.382-.015-.287-.131-.442-.005-.61-.04-.253-.055-.35.071-.469.06-.059-.004-.25-.036-.305-.003-.165.096-.298.073-.409.106-.093.027-.128.117-.078.16.088.074.38.149.618.134.381-.022.661.06.814.07.228.016.389.14.5.142.124.001.177.061.304.097.084.024.186.054.28.045.102-.007.179.07.219.054.154-.057.154-.044.239-.065.068-.015.206-.194.3-.259.12-.084.37-.319.42-.462.055-.146.072-.21.124-.398.046-.157-.022-.169.04-.423.055-.22 0-.577.043-.712.027-.086.019-.128.045-.204.036-.103 0-.18-.006-.22-.008-.052.07-.161.07-.229.001-.059-.065-.111-.021-.23.054-.148.011-.305.054-.355.044-.05-.048-.136-.022-.213.04-.115.043-.586.018-.831-.03-.306.017-.722.028-.875.005-.077-.1-.136-.066-.204.048-.092-.005-.237-.02-.356-.021-.159-.071-.45-.078-.63-.011-.305-.297-2.08-.478-2.535-.255-.64-.936-1.31-1.214-1.432-.265-.117-.61-.101-.83-.104-.17-.002-.774.093-1.31.264a7 7 0 0 0-1.152.487c-.197.116-.42.385-.568.536-.157.164-.198.359-.242.447-.12.245.002.552.027.637.04.144.004.247-.055.271-.133.055-.076.058-.324.09-.08.01-.228-.062-.236-.122-.019-.147-.148-.393-.214-.546m37.596 3.09c-.142.078-.576.562-.687.611-.107.048-.261-.07-.355-.054-.248.038-.837.18-1.252.255-.348.064-.927.28-1.082.36-.11.058-.115.137-.053.195.21.198.387.293.487.422.068.088-.036.127-.063.271-.033.176-.147 1.008-.094 1.459.047.393.254 1.579.308 1.905.047.29.089.684.126.833.052.209-.024.577-.101.662-.285.308-.731.763-.851.804-.18.062-.416.054-.585-.084-.218-.18-.3-.504-.365-.674-.113-.293-.434-.516-.663-.68-.4-.29-1.28-.737-1.412-1.052-.019-.045-.05-.137.045-.17.176-.062.26.156.379.242.222.164.413.21.573.262.253.083.705.195.812.23.257.086.39.125.586.06.132-.045.353-.463.364-.642.025-.432-.073-.943-.063-1.155.032-.61.018-.724.083-1.187.047-.34-.044-.595-.033-.748.013-.19.014-.467.066-.601.043-.114-.096-.108-.194-.079-.469.138-.688.356-1.093.546-.282.133-.786.442-.992.514-.142.053-.257.252-.34.174-.096-.087-.23-.062-.312-.216-.121-.224.073-.431.228-.523.203-.12.39-.046 1.013-.352.624-.307 1.299-.714 1.802-.911a26 26 0 0 1 2.029-.638c.194-.042.62-.08.688-.11.264-.116.503-.113.587-.129.117-.023.288.02.39.03.124.012.16.096.024.17m-5.296-1.465c.18-.091.228.122.288.122.177.002.338.023.56-.051.17-.058 1.246-.597 1.612-.686.626-.152 1.5-.397 1.805-.377.102.006.11.078.006.136-.114.066-.146.228-.24.32-.062.06-.037.245-.09.312a.31.31 0 0 1-.264.125l-.297-.004c-.126-.001-.377.16-.47.181-.033.008-.12-.065-.202-.087-.194-.053-.933.24-1.218.366-.299.133-.83.394-1.095.675-.103.109-.209.312-.376.216-.153-.087-.216-.436-.256-.589-.036-.133-.018-.53.237-.659m-.96-4.185c.161.027.458.752.624 1.077.053.106.089.274.12.545.016.127.132.367.102.655-.014.144.028.403-.022.525-.036.085-.172.168-.173.287-.002.07-.113.228-.182.295-.109.104-.175.382-.245.473-.129.167-.456.162-.69.228-.17.05-.377.158-.556.282-.179.126-.502.238-.725.39-.172.117-.523.47-.626.553-.072.057-.194.154-.08.254.118.103.45.047.897.248.295.133.555.314.705.56.125.205.063.385-.073.467-.11.066-.185.264-.421.461-.12.1-.207.357-.397.52-.146.126-.674.689-.876.84-.11.084-.11.222.073.289.169.061.693.431.866.681.183.265.264.837.298 1.303.022.306-.188.77-.277 1.092-.043.16-.075.228-.282.191-.053-.01-.147-.135-.235-.224-.126-.128-.3-.18-.387-.276-.1-.112-.24-.175-.31-.284-.084-.128-.074-.716-.03-.976.035-.22.07-.376.125-.542.044-.135.13-.58-.035-.612-.094-.017-.445.174-.632.264-.208.102-.445.24-.548.359a.9.9 0 0 0-.2.447c-.018.133-.112.225-.172.193-.126-.07-.251-.01-.34.013-.127.032-.211-.084-.355-.14-.245-.097-.133-.023-.346-.2-.134-.112-.433-.551-.32-.86.061-.17.003-.248.175-.406.419-.388.582-.604 1.006-1.066.223-.243.602-.638.835-.83.092-.078.179-.216.25-.38.043-.1.288-.283.131-.388-.168-.112-.386-.125-.508-.074-.12.05-.197-.088-.338-.165-.126-.07-.267.024-.364-.047-.118-.087-.176-.147-.285-.224-.102-.072-.293-.176-.2-.368.07-.143.012-.348.166-.465.198-.15.335-.301.473-.418.266-.226.998-1.074 1.488-1.637.517-.593 1.468-2.002 1.837-2.38.078-.08.044-.265.439-.47.24-.124.428-.093.62-.06M62.18 2.146c.031.144-.095.678-.245 1.135-.15.455-.184.608-.318 1.023-.059.184-.178.099-.247.175-.077.084.094-.067-.233.252-.198.192-.615.45-.729.576-.059.068-.186.032-.21-.095-.015-.084-.015-.162-.022-.332-.005-.144.122-.322.15-.397.044-.118.115-.355.117-.508.003-.289.313-.675.554-.96.24-.286 1.183-.869 1.183-.869m-1.508 4.523c.128-.093.117.154.237.13.075-.015.138-.107.188-.166.043-.052.108-.088.152.128.024.12.046.232-.021.314-.103.125-.692.339-.794.38-.073.03-.095.06-.127-.086-.04-.187.182-.286.192-.37.017-.156.069-.255.173-.33m1.275 2.613c.12.018.427-.156.556-.256.092-.073.177.036.126.128-.057.1-.26.337-.303.447-.026.064-.095.109-.146.09a2.3 2.3 0 0 1-.33-.147c-.118-.068-.012-.28.097-.262m-2.735.179c.04-.094.278.182.43.218.163.038.348.115.55.168.279.072.574.236.785.383.145.1.338.14.506.311.062.064.04.153-.011.212-.06.068-.096.151-.207.226-.29.196-1.256.707-1.385.815-.164.14-.476.062-.577-.033a.66.66 0 0 1-.208-.384 6 6 0 0 1-.037-1.027c.018-.232.023-.585.154-.89m-3.099.14c0-.06.307-.2.477-.283.166-.08.317-.149.461-.164.073-.008.155.055.126.146-.044.144-.705.781-.937 1.033-.05.053-.144-.138-.15-.257-.007-.136.021-.346.023-.475m-.527-1.415c.095-.011.134.125.057.238-.052.076-.196.116-.23.073-.056-.07-.006-.135.079-.195.076-.05.026-.108.094-.116m.76-2.504c.17-.014.175.066.187.079.042.052.134.267.2.342.058.068.104.147.201.18.05.018.056.248.046.35-.01.109-.278.154-.41.257a.9.9 0 0 0-.189.193c-.07.092-.087.143-.181.227-.078.07.017.435-.042.602-.026.076.076.069.161.07.042 0 .057-.079.111-.126.07-.058.258-.193.352-.25.07-.042-.02-.273.08-.296.069-.016.073.234.115.332.033.077.143.362.113.477-.028.102-.046.214-.08.28-.035.066-.445.243-.404.418.024.103.328-.041.484-.028.118.01.345-.013.45-.01.101 0 .298.151.411.352.059.103-.359.469-.578.75-.215.276-1.056.987-1.227 1.154-.089.087-.03.4-.1.441-.082.05-.154 0-.245.022-.068.017-.186.063-.223.142-.034.076-.042.136.024.17.084.043.972-.404 1.4-.789.45-.403 1.065-1.023 1.29-1.31.173-.217.108-1.143.306-2.049.09-.416.292-1.761.436-2.396.165-.726.733-1.853.84-2.02.043-.066-.003-.132.037-.194.043-.067.06-.118.212-.048.062.029.16.146.219.122.133-.056-.069.058.412-.412.481-.469.943-.7 1.2-.893s.429-.41.557-.468c.106-.048.206-.003.245.105.041.11.051.273-.006.475-.035.127-.13.305-.244.574-.046.106-.185.645-.283.939-.1.293-.217.994-.287 1.117-.103.184.02.23-.054.432-.024.065-.16.374-.245.548-.088.178-.34.735-.392.785-.065.064-.02.2.015.255.04.068.274.213.434.6.049.119.033.242-.064.371-.07.094-.348.182-.505.258-.204.1-1.025.514-1.299.74-.06.05-.16.037-.135-.053.044-.16-.009-.653.053-.823.09-.25.052-.152.26-.438.11-.153.34-.709.589-.985.024-.027.075-.17-.006-.222-.068-.043-.152.046-.239.074-.05.016-.06.143-.12.168-.092.038-.18-.056-.263.014-.06.05-.17.293-.193.456-.009.068-.125.157-.155.202-.035.05-.013.271-.032.424-.022.185-.196.657-.24.854-.026.128-.078.41-.065.576.007.095.05.16.117.146.077-.016.13-.146.206-.158.094-.016.398-.02.533.015.063.016.179.095.382.055.117-.022.297-.072.434-.07.136 0 .797 0 1.078.004.102.001.674-.28.853-.363.148-.068.504-.402.747-.653.137-.142.461-.24.63-.162.086.04.032.292-.099.39-.102.075-.35.207-.47.29-.192.135-.5.516-.646.765-.069.119-.294.438-.406.64-.023.04-.024.14.065.23.083.086.785.273 1.115.387.03.01.076.07.144.044.046-.017.11-.04.118.078.003.057.464.07.516.11.177.128.854.28 1.073.42.084.051.11.073.185.162.05.061.177.058.16.146-.019.095-1.322.417-1.787.394-.401-.018-.814-.068-1.196-.2-.337-.117-.985-.607-1.078-.608-.153-.002-.137.033-.24.133-.028.028-.081.122-.155.193a8 8 0 0 0-.447.462c-.087.118-.29.164-.419.266-.094.076-.275.277-.387.352-.205.138-.461.309-.614.375-.157.066-.431-.034-.662-.068-.255-.037-.566-.303-.681-.535-.07-.136-.066-.477-.102-.68-.024-.136.084-.555-.002-.61-.117-.078-.18.01-.238.073-.094.1-.208.294-.507.503-.133.091-.133.156-.284.302-.112.109-.373.264-.556.417-.18.15-.506.242-.717.28-.077.014-.289.145-.41.198-.11.05-.464.173-.682.238-.136.041-.2-.256-.232-.46-.031-.205.048-.416.168-.482.2-.112.515-.478.687-.663.043-.047-.045-.158-.126-.153-.28.013-.457-.108-.457-.108.205-.032.552-.043.674-.196.019-.024.077-.075.077-.144.002-.1-.03-.123-.04-.187-.008-.048.058-.132.036-.178-.024-.05-.072-.171-.16-.12-.178.105-.484.41-.566.57a.7.7 0 0 0-.063.211c-.051.051-.144.007-.144.007-.163.168-.422.453-.55.562-.096.082-.226.14-.333.09-.125-.061-.21-.325-.266-.411-.05-.077.02-.186.097-.237.115-.074.418-.232.504-.308.094-.082.498-.485.593-.56.15-.121.36-.257.48-.385.086-.092-.02-.205-.083-.153-.052.04-.128.023-.161-.053-.082-.193-.255-.666-.253-.844 0-.11.003-.172.046-.27.13-.305.565-.873.7-.977.128-.1.051-.196.012-.272-.05-.094-.301-.403-.291-.513.015-.163.258-.31.498-.477.24-.168.48-.352.649-.367m.813-2.545c.06-.126.477-.155.664-.119.168.034.37.365.435.523.041.103.112.32.08.4-.044.11-.22.11-.392.157a2 2 0 0 0-.333.132 2 2 0 0 0-.386.292c-.069.066-.184.097-.24.082-.033-.01-.031-.106.03-.17.11-.118.25-.447.218-.574-.017-.066-.083-.095-.09-.299-.002-.102-.036-.317.014-.424M57.101.853c.068-.016.115.1.22.147.076.035.108.104.185.105.105.001.108.163.167.214.05.043.117.204.175.257.067.06.092.137.159.188.073.057.094.248.005.357a.7.7 0 0 1-.327.242c-.136.04-.436.052-.603.154a3.2 3.2 0 0 0-.533.435c-.267.285-.57.782-.812 1.204-.166.286-.781 1.34-.964 1.753-.076.173-.469 1.012-.61 1.317-.183.396-.631 1.261-.723 1.493-.123.313-.051.576-.136.695-.077.11-.23.1-.322.03-.093-.07-.24-.208-.277-.351-.031-.128.035-.426.076-.577a.3.3 0 0 1 .163-.21c.051-.025.138-.001.213-.031.057-.023.302-.429.424-.657.161-.302.587-1.204.688-1.418.06-.13.307-.683.487-1.02.113-.211.666-1.733.934-2.104.062-.084.347-.688.522-.96.155-.244.785-1.239.889-1.263m-24.002 9.878q.075 0 .1.128c.022.118.007.118.022.22.016.1-.023.126-.003.21.024.101.014.157.022.261.016.178.021.337-.013.447-.036.109.006.143.005.253-.002.1-.06.26-.072.411-.01.127.114.256.112.407 0 .092-.042.092-.127.083-.092-.01-.202-.07-.235-.147s-.13-.33-.129-.422c.001-.102.03-.286.047-.404.018-.127-.013-.278-.012-.397.002-.143.172-.293.174-.437.002-.143-.032-.16-.03-.337.003-.176.071-.277.139-.276m1.386-6.549c-.007-.094.33-.3.495-.407.152-.1.27-.238.4-.308.186-.098.355-.067.463-.061.17.01.374-.08.464.03.082.103.058.187.03.305-.022.093-.508.854-.74 1.128-.24.289-.837.973-.896 1.01-.069.04-.123-.06-.14-.204-.017-.127-.034-.234-.006-.296.034-.075-.008-.124-.023-.193-.015-.077-.092-.356-.077-.566.01-.152.042-.304.03-.438M30.47 6.611c.022-.052.246-.166.348-.248.071-.059.247-.175.315-.233.196-.167.17-.135.35-.257.084-.058.202-.1.217.078.018.211-.007.59 0 .725.006.135-.028.168-.038.278-.008.094.032.144.04.203s-.012.076-.027.184c-.01.068.04.17-.02.287-.06.118-.385.375-.487.407-.101.033-.03-.152-.198-.272s-.207-.29-.282-.408c-.091-.148-.065-.22-.172-.348-.11-.127-.107-.254-.046-.396m-2.123-2.039c.103-.032.307.363.505.577.2.214.497.484.558.538.066.06.224.298.284.3.03 0 .223-.166.382-.275.17-.115.555-.378.673-.456.094-.062.387-.276.568-.414s.575-.394.588-.43c.008-.023-.008-.11.054-.278.037-.103-.045-.149-.049-.17-.008-.042.044-.167.053-.235.02-.125-.012-.384.006-.438.043-.134.058-.415.064-.497.02-.23-.007-.329.022-.421.1-.307.11-.555.086-.783-.018-.192-.064-.21-.01-.505.049-.266.29-.55.4-.677.073-.085.292-.099.458.063.062.062.21.13.35.275.138.14.394.456.483.536.142.13.416.478.59.699.133.168.205.474.221.584.023.166-.013.388.1.41.163.03.48-.243.986-.338.336-.063.886-.048 1.248-.044.16.003.473-.012.499.063.047.137-.035.554-.243 1.02-.181.41-.282.489-.489.752-.17.218-.196.354-.506.76-.3.394-.897.968-.78 1.079.1.095.395-.047.444.174.04.177-.155.293-.225.469-.097.245-.038.422-.26.528-.202.098-.32.063-.447.147-.154.098-.096.352-.193.536-.172.327-.084.64-.189.903-.158.397-.12.242-.25.655-.028.089-.092.543-.128.703-.03.135-.134.244-.137.293-.013.139-.081.498-.075.538.007.052-.087.118-.079.21.008.084-.082.297-.098.446-.062.585-.01.662.013.987s-.038.395-.073.482c-.03.078-.153.096-.238.12-.092.027-.086.126-.144.145-.069.023-.165-.05-.198.007-.066.113-.135.256-.22.263-.087.008-.117-.044-.142-.178-.005-.035-.09-.044-.106-.12-.025-.118-.052-.045-.159-.242-.09-.165-.013-.223-.023-.371-.007-.114-.16-.217-.12-.397.02-.096-.006-.291-.026-.452a4 4 0 0 1-.03-.363c.002-.086-.027-.002-.005-.27.02-.236-.054-.43-.053-.497 0-.085-.032-.144-.1-.146-.053 0-.081.03-.11.165s-.032.405-.016.567c.016.152.11.575.118.71.009.18-.01.093-.005.337.002.12.059.415.1.578.044.162.138.155.169.269.032.118.065.22.106.288.053.087.26.137.234.188-.033.062-.12.184-.189.191-.136.015-.384-.265-.433-.388-.089-.22-.149-1.01-.195-1.296-.08-.484-.162-.697-.22-1.234-.061-.558-.196-2.012-.192-2.32.003-.203-.13-.272-.204-.276-.09-.004-.202.09-.21.186-.007.118.02.396-.104.446-.102.04-.823-.162-1.385-.532-.917-.604-1.242-2.106-1.394-2.394-.207-.39-.212-1.201-.17-1.358.044-.162.106-.345.26-.392"/></g><defs><clipPath id="clip0_3802_8471"><path fill="#fff" d="M0 0h79.966v22.624H0z"/></clipPath></defs></svg>