<svg fill="none" viewBox="0 0 80 36"><g clip-path="url(#clip0_3802_7667)"><path fill="#134939" d="M80 0H0v28.654h80z"/><path fill="#C3D451" d="M5.193 13.635v9.826l4.018-1.709v-9.827m5.063-6.416v9.827l4.019-1.702V3.8M9.73 11.706v9.827l4.026-5.97V5.728"/><path fill="#fff" d="M25.81 10.913c0 1.182.39 2.276 2.285 3.823l.778.64c1.507 1.248 1.928 1.888 1.928 2.99 0 1.101-.802 2.155-2.333 2.155-.632 0-2.115-.154-2.414-1.645-.04-.235-.04-.462-.04-.616 0-.089 0-.316-.252-.316-.235 0-.251.26-.26.397l-.015.203c-.025.356-.073.931-.073 1.62 0 .47.008.616.324.77.664.316 1.442.478 2.365.478 1.045 0 1.969-.26 2.666-.746 1.118-.794 1.514-2.041 1.514-2.957 0-1.344-.413-2.454-2.551-4.14l-.478-.38c-1.645-1.345-2.05-1.896-2.05-2.779 0-1.118.802-1.871 1.985-1.871 1.426 0 1.904.591 2.041.842.09.17.195.616.211.81.008.13.032.34.267.34.243 0 .243-.34.243-.526 0-.915.04-1.466.057-1.693v-.138c.008-.162-.089-.243-.283-.243-.114 0-.244 0-.568-.08a7.2 7.2 0 0 0-1.628-.17c-2.203 0-3.686 1.287-3.686 3.215m20.942-2.851s-4.545 10.483-4.57 10.531c-.024-.032-4.755-10.548-4.755-10.548-.065-.154-.154-.332-.348-.332-.227 0-.284.284-.308.413l-1.15 11.277c-.057.6-.106 1.167-.519 1.256-.227.049-.3.049-.453.049s-.284.089-.284.202c0 .105.049.276.389.276.283 0 .786-.025.988-.033.21-.008.267-.008.267-.008h.398c.194 0 .761.033 1.174.04.138 0 .405 0 .405-.275 0-.121-.113-.21-.259-.21-.162 0-.308-.009-.567-.073a.42.42 0 0 1-.324-.413c0-.292 0-.6.016-.867 0 0 .583-7.583.6-7.583-.041 0 3.864 8.603 3.864 8.603.324.657.389.794.575.794.21 0 .267-.137.527-.729.008 0 3.856-8.83 3.856-8.83l.737 8.474c0 .105 0 .186.016.267 0 .138 0 .3-.024.308-.138.057-.162.146-.162.227 0 .218.243.267.55.291.617.033 2.334.025 2.674.025.422 0 .454-.21.454-.276 0-.064-.024-.202-.251-.202-.154 0-.551 0-.997-.146-.615-.219-.72-1.158-.777-1.718l-1.07-10.547c-.016-.243-.048-.576-.316-.576-.202 0-.3.22-.348.349m8.215.753s0-.04.105-.065c.235-.056.583-.08.794-.08 1.612 0 2.187 1.458 2.187 2.827 0 .624-.21 1.223-.583 1.652-.324.373-.519.406-1.466.406-.592 0-.892-.05-1.013-.065-.008 0-.032-.025-.032-.065V8.822m-.146-.85-.64.016h-.22a32 32 0 0 0-1.716-.049c-.098 0-.398 0-.398.26 0 .137.106.243.26.243s.43 0 .55.04c.479.105.608.284.64.859.041.543.041 1.029.041 3.702v3.022c0 1.612 0 2.997-.08 3.718-.082.51-.155.786-.398.835a2 2 0 0 1-.486.065c-.186 0-.267.113-.267.226 0 .268.308.268.405.268.364 0 .9-.033 1.28-.057h.397l.656.024c.575.033 1.37.073 1.628.073 2.957 0 4.505-1.944 4.505-3.864 0-2.09-1.677-3.313-2.868-3.686.875-.583 1.515-1.66 1.515-3.038 0-1.005-.754-2.706-3.565-2.706-.462 0-.891.016-1.231.032m.672 12.217c-.453-.227-.453-.38-.51-1.166v-.073c-.016-.251-.016-2.415-.016-3.703v-.972c.72 0 1.15.008 1.288.033h.008c.405.048.81.097 1.369.478 1.45 1.004 1.604 2.657 1.604 3.33 0 2.243-2.058 2.316-2.293 2.316-.154 0-.972-.016-1.458-.243m9.697-10.491c-1.296 1.483-1.717 3.46-1.677 4.82.057 2.172.762 3.889 2.099 5.112 1.36 1.256 3.078 1.799 5.395 1.742.956-.024 2.22-.17 2.9-.486.316-.162.373-.227.47-.583.146-.608.292-2.115.284-2.236-.008-.349-.17-.381-.252-.381-.21 0-.234.227-.267.373-.073.332-.219 1.036-.518 1.393-.592.697-1.483.859-2.65.891-1.571.04-3.021-.583-4.107-1.758-1.02-1.118-1.636-2.665-1.677-4.253-.04-1.458.081-3.135 1.28-4.44.754-.842 1.912-1.271 3.54-1.312 1.426-.04 2.625.421 3.128.859.388.332.607.923.68 1.644.016.203.016.478.26.478.242 0 .25-.291.25-.486V9.284c.009-.38.033-.6.041-.745l.016-.227c0-.186-.105-.284-.332-.3-.478-.016-.98-.105-1.547-.202l-.065-.017c-.956-.162-1.953-.153-2.341-.145-2.163.064-3.76.713-4.902 2.017"/><path fill="#134939" d="M32.713 31.393s0-.017.032-.025a1.4 1.4 0 0 1 .26-.024c.518 0 .704.47.704.915a.86.86 0 0 1-.186.535c-.105.122-.17.13-.478.13a1.5 1.5 0 0 1-.324-.025s-.008 0-.008-.024v-1.49m-.049-.276h-.283c-.122 0-.365-.016-.56-.016-.032 0-.129 0-.129.08 0 .05.033.082.081.082.049 0 .138 0 .178.016.154.032.195.09.211.275.016.179.016.332.016 1.2v.98c0 .518 0 .972-.024 1.199-.024.162-.049.25-.13.267a.7.7 0 0 1-.162.024c-.056 0-.089.04-.089.073 0 .09.097.09.13.09.121 0 .291-.009.413-.017h.13l.21.008c.187.008.446.025.527.025.956 0 1.458-.632 1.458-1.248 0-.68-.543-1.07-.923-1.191.283-.186.485-.535.485-.98 0-.324-.242-.875-1.15-.875-.146 0-.283 0-.397.008m.219 3.945c-.146-.073-.146-.121-.162-.38v-1.54c.235 0 .373 0 .421.008.13.016.26.033.446.154.47.324.518.859.518 1.078 0 .729-.664.745-.737.745-.049 0-.316 0-.47-.081m30.704-3.921c-.154 0-.284 0-.373.016h-.218c-.114 0-.292-.016-.462-.016-.049 0-.154 0-.154.081 0 .049.032.081.08.081.033 0 .163 0 .26.024.138.033.178.114.186.486l.057 2.714c-.097-.105-.243-.259-.413-.445-.251-.276-.559-.616-.85-.924a740 740 0 0 1-1.767-1.904l-.048-.048c-.073-.09-.13-.138-.179-.138-.097 0-.105.13-.105.316v3.184c0 .502-.032.632-.146.664a.7.7 0 0 1-.21.033c-.057 0-.09.04-.09.072 0 .09.09.09.13.09.17 0 .34-.008.438-.017h.169c.106 0 .284.017.511.017.04 0 .138 0 .138-.09 0-.032-.024-.072-.081-.072-.016 0-.146 0-.268-.033-.113-.032-.178-.138-.186-.607l-.073-2.552c.243.275.802.89 1.377 1.515.6.64 1.394 1.458 1.45 1.506.309.316.373.365.438.365.09 0 .09-.073.09-.437V31.74c.007-.349.04-.421.185-.454.065-.016.098-.016.122-.016.073 0 .105-.04.105-.081 0-.081-.097-.081-.137-.081m-14.996.009c-.154 0-.283 0-.373.016h-.218c-.114 0-.292-.016-.462-.016-.049 0-.154 0-.154.081 0 .049.032.081.09.081.032 0 .161 0 .259.024.13.033.178.114.186.486l.056 2.714c-.097-.105-.242-.259-.413-.445-.25-.276-.559-.616-.85-.924a749 749 0 0 1-1.766-1.904l-.049-.048c-.081-.09-.13-.138-.178-.138-.097 0-.106.13-.106.316v3.184c0 .502-.032.632-.145.664a.7.7 0 0 1-.211.033c-.057 0-.09.04-.09.072 0 .09.09.09.13.09.17 0 .34-.008.438-.017h.17c.105 0 .284.017.51.017.041 0 .138 0 .138-.09 0-.032-.024-.072-.08-.072-.017 0-.147 0-.268-.033-.114-.032-.178-.138-.187-.607l-.072-2.552c.243.275.802.89 1.377 1.515.6.64 1.393 1.458 1.45 1.506.308.316.373.365.437.365.09 0 .09-.073.09-.437V31.74c.008-.349.04-.421.186-.454.065-.016.097-.016.121-.016.073 0 .106-.04.106-.081 0-.081-.098-.081-.138-.081m-5.088 4.132c-.048 0-.162-.008-.243-.024-.13-.016-.162-.105-.178-.267-.024-.235-.024-.68-.024-1.2v-.98c0-.866 0-1.02.008-1.198.008-.195.049-.26.178-.284.065-.008.09-.016.13-.016.048 0 .08-.033.08-.073 0-.09-.096-.09-.129-.09-.121 0-.324.009-.453.017h-.179c-.121 0-.34-.016-.47-.016-.032 0-.13 0-.13.089 0 .04.041.073.082.073.032 0 .097 0 .162.024.073.016.146.065.154.276.008.178.008.332.008 1.199v.98c0 .518 0 .972-.024 1.199-.025.17-.05.26-.13.275a.7.7 0 0 1-.154.025c-.057 0-.09.04-.09.073 0 .08.098.08.13.08.122 0 .325 0 .454-.016h.154c.122 0 .38.017.616.017.113 0 .13-.057.13-.081 0-.033-.025-.073-.082-.073m33.272.008c-.056 0-.13 0-.21-.033-.122-.032-.268-.13-.454-.591-.243-.6-.745-1.928-1.053-2.722-.122-.324-.219-.559-.235-.624-.065-.17-.097-.219-.154-.219s-.081.049-.154.235l-1.256 3.443c-.105.292-.21.47-.437.503-.049 0-.122.016-.154.016-.049 0-.081.024-.081.065 0 .08.097.08.138.08.178 0 .372-.007.502-.015h.267c.097 0 .21.008.292.008.097 0 .121-.04.121-.081 0-.017-.008-.065-.089-.065h-.056c-.065 0-.179-.033-.179-.13s.033-.227.073-.364l.308-.932s.016-.024.025-.024h1.239s.008 0 .016.008l.494 1.32c.016.049.008.073 0 .09 0 .016-.016.016-.016.016-.057.016-.065.056-.065.072 0 .065.073.065.17.073h.025c.25.008.559.017.875.017.121 0 .146-.04.146-.081 0-.04-.033-.065-.09-.065m-2.722-1.718.51-1.53s0-.017.009-.025c0 0 0 .016.008.024l.543 1.531H74.02zM4.172 31.393s0-.017.033-.025a1.4 1.4 0 0 1 .259-.024c.518 0 .705.47.705.915a.8.8 0 0 1-.187.535c-.105.122-.17.13-.478.13-.194 0-.291-.017-.324-.025 0 0-.008 0-.008-.024v-1.49m-.048-.276H3.84c-.122 0-.365-.016-.559-.016-.032 0-.13 0-.13.08 0 .05.033.082.081.082a.7.7 0 0 1 .179.016c.154.032.194.09.21.275.016.179.016.332.016 1.2v.98c0 .518 0 .972-.024 1.199-.024.162-.048.25-.13.267a.7.7 0 0 1-.161.024c-.057 0-.09.04-.09.073 0 .09.098.09.13.09.122 0 .292-.009.413-.017h.13l.21.008c.187.008.446.025.527.025.956 0 1.458-.632 1.458-1.248 0-.68-.543-1.07-.923-1.191.283-.186.486-.535.486-.98 0-.324-.243-.875-1.15-.875-.146 0-.284 0-.398.008m.22 3.945c-.147-.073-.147-.121-.163-.38v-1.54c.235 0 .373 0 .421.008.13.016.26.033.446.154.47.324.518.859.518 1.078 0 .729-.664.745-.737.745-.048 0-.316 0-.47-.081m15.684.17a1 1 0 0 1-.324-.073c-.259-.105-.348-.194-.802-.615h-.016c-.21-.211-1.272-1.305-1.499-1.548.187-.202 1.062-1.061 1.191-1.19.033-.033.073-.066.098-.098.186-.178.3-.292.486-.373a.7.7 0 0 1 .291-.073q.098.002.098-.08c0-.082-.09-.082-.122-.082-.097 0-.308 0-.43.017H18.9c-.065 0-.146 0-.227-.008h-.194c-.097 0-.105.064-.105.08 0 .05.048.073.073.082.024.008.048.024.048.08 0 .074-.137.211-.267.349l-.025.024c-.105.114-.445.462-.745.77-.218.227-.413.421-.502.518v-.25c0-.868 0-1.021.008-1.2.008-.194.049-.259.178-.283.065-.008.098-.017.13-.017.049 0 .089-.032.089-.072 0-.09-.097-.09-.13-.09-.105 0-.275 0-.405.009h-.218c-.122 0-.349-.017-.527-.017-.032 0-.13 0-.13.09 0 .04.04.072.081.072.04 0 .138 0 .179.017.154.032.194.089.202.283.008.178.008.332.008 1.2v.98c0 .518 0 .972-.024 1.198-.024.17-.049.26-.13.276a.7.7 0 0 1-.154.024c-.056 0-.089.04-.089.073 0 .09.098.09.13.09.113 0 .292 0 .413-.017h.219c.13 0 .348.016.543.016.113 0 .13-.056.13-.089 0-.04-.025-.073-.082-.073-.04 0-.113 0-.21-.024-.13-.016-.162-.105-.179-.267-.024-.227-.024-.681-.024-1.2v-.461c.332.397 1.418 1.555 1.653 1.758l.04.032c.219.178.365.292.656.316.122.008.227.008.39.008h.283c.048 0 .162 0 .162-.089 0-.032-.033-.073-.114-.073M15.1 31.117c-.153 0-.283 0-.372.016h-.219c-.113 0-.291-.016-.461-.016-.057 0-.154 0-.154.081 0 .049.032.081.08.081.033 0 .163 0 .26.024.13.033.178.114.186.486l.057 2.714c-.097-.105-.243-.259-.413-.445-.251-.276-.56-.616-.85-.924a729 729 0 0 1-1.767-1.904l-.048-.048q-.107-.137-.179-.138c-.097 0-.105.13-.105.316v3.184c0 .502-.033.632-.146.664a.7.7 0 0 1-.21.033c-.057 0-.09.04-.09.072 0 .09.09.09.13.09.17 0 .34-.008.438-.017h.169c.106 0 .284.017.511.017.04 0 .138 0 .138-.09 0-.032-.025-.072-.081-.072-.017 0-.146 0-.268-.033-.113-.032-.178-.138-.186-.607l-.073-2.552c.243.275.802.89 1.377 1.515.6.64 1.394 1.458 1.45 1.506.308.316.373.365.438.365.089 0 .089-.073.089-.437V31.74c.008-.349.04-.421.186-.454.065-.016.098-.016.122-.016.073 0 .105-.04.105-.081 0-.081-.097-.081-.138-.081m-4.682 4.149c-.057 0-.13 0-.21-.033-.122-.032-.268-.13-.454-.591-.243-.6-.746-1.928-1.054-2.722-.121-.324-.218-.559-.234-.624-.065-.17-.098-.219-.154-.219-.057 0-.081.049-.154.235l-1.256 3.443c-.105.292-.21.47-.437.503-.05 0-.122.016-.154.016-.049 0-.081.024-.081.065 0 .08.097.08.137.08.179 0 .373-.007.503-.015h.267c.097 0 .21.008.292.008.097 0 .121-.04.121-.081 0-.017-.008-.065-.089-.065H7.38c-.065 0-.178-.033-.178-.13s.024-.227.073-.364l.308-.932s.016-.024.024-.024h1.24s.008 0 .016.008l.494 1.32c.016.049.008.073 0 .09 0 .016-.016.016-.016.016-.057.016-.065.056-.065.072 0 .065.073.065.17.073h.024c.252.008.56.017.875.017.122 0 .146-.04.146-.081 0-.04-.032-.065-.089-.065M7.68 33.539l.51-1.53s0-.017.008-.025c0 0 0 .016.009.024l.542 1.531H7.672zm59.14 1.029c-.066 0-.074.065-.082.114-.032.218-.097.316-.227.372-.137.057-.38.057-.518.057-.543 0-.591-.073-.608-.421v-1.442c.097 0 .64.008.794.024.187.016.235.09.26.17.024.065.024.122.024.17s.024.081.073.081c.073 0 .073-.089.073-.137 0-.033.008-.235.024-.349.008-.113.024-.186.032-.243 0-.032.008-.057.008-.073 0-.073-.048-.08-.064-.08-.033 0-.057.032-.098.072h-.008c-.04.057-.105.065-.235.081-.097.008-.51.008-.875.016v-1.579c.073 0 .665.008.754.016.3.024.332.097.364.17a.6.6 0 0 1 .033.186c0 .09.048.105.08.105.041 0 .058-.032.074-.089 0-.048.016-.162.016-.259 0-.048 0-.097.008-.113.008-.09.024-.146.032-.195 0-.032.017-.056.017-.073 0-.073-.04-.08-.057-.08a.1.1 0 0 0-.057.016q-.01.002-.032.016a1 1 0 0 1-.227.024h-1.37c-.17 0-.396-.016-.526-.016-.032 0-.121 0-.121.08 0 .041.032.066.08.066.05 0 .139 0 .179.016.154.032.203.097.21.284.009.178.009.332.009 1.199v.972c0 .518 0 .972-.025 1.199-.024.17-.048.259-.137.275a.7.7 0 0 1-.162.024c-.057 0-.081.033-.081.065 0 .081.089.081.121.081h.535c.08 0 .194 0 .43.016h.12c.203 0 .479.017.819.017.21 0 .284 0 .332-.17.024-.114.073-.495.073-.543 0-.04 0-.122-.065-.122m-36.755-3.427s-1.466 3.387-1.475 3.403c-.008-.008-1.539-3.41-1.539-3.41-.024-.05-.049-.106-.113-.106-.073 0-.09.089-.098.13l-.372 3.645c-.016.195-.033.38-.17.405-.073.016-.098.016-.146.016-.049 0-.09.033-.09.065 0 .033.017.09.13.09.09 0 .252 0 .316-.009h.22c.064 0 .242.008.38.016.04 0 .13 0 .13-.089 0-.04-.041-.064-.082-.064-.048 0-.097 0-.186-.025-.065-.016-.105-.065-.105-.138v-.283s.186-2.455.194-2.455c-.016 0 1.248 2.779 1.248 2.779.105.21.13.26.186.26.065 0 .09-.041.17-.236l1.248-2.851.235 2.738v.089c0 .04 0 .097-.008.097-.049.016-.057.049-.057.073 0 .073.081.09.178.097.203.008.754 0 .867 0 .138 0 .146-.065.146-.089s0-.065-.081-.065c-.049 0-.178 0-.324-.048-.203-.073-.235-.373-.251-.56l-.349-3.41c0-.08-.016-.186-.105-.186-.065 0-.097.073-.113.113m37.784.94c0 .38.121.737.737 1.24l.251.21c.486.405.624.608.624.964 0 .357-.26.697-.753.697-.203 0-.68-.049-.778-.535-.016-.073-.016-.146-.016-.194 0-.033 0-.106-.081-.106-.073 0-.081.09-.081.13v.065c-.016.113-.025.3-.025.526 0 .154 0 .203.106.252.218.105.47.153.761.153.34 0 .632-.08.859-.242.364-.26.486-.665.486-.956 0-.438-.138-.794-.826-1.337l-.154-.122c-.527-.437-.664-.615-.664-.899 0-.364.259-.608.64-.608.461 0 .615.195.656.276a.8.8 0 0 1 .064.26c0 .04.009.113.081.113.082 0 .082-.114.082-.17 0-.3.016-.47.016-.552v-.04c0-.057-.025-.081-.09-.081-.04 0-.08 0-.186-.024a2 2 0 0 0-.526-.057c-.713 0-1.191.421-1.191 1.037m-44.549 0c0 .38.13.737.737 1.24l.251.21c.486.405.624.608.624.964 0 .357-.26.697-.753.697-.203 0-.68-.049-.778-.535-.016-.073-.016-.146-.016-.194 0-.033 0-.106-.081-.106s-.081.09-.081.13v.065c-.017.113-.025.3-.025.526 0 .154 0 .203.106.252.218.105.47.153.761.153.34 0 .632-.08.859-.242.364-.26.486-.665.486-.956 0-.438-.138-.794-.826-1.337l-.154-.122c-.527-.437-.665-.615-.665-.899 0-.364.26-.608.64-.608.462 0 .616.195.657.276a.8.8 0 0 1 .064.26c0 .04.009.113.082.113.08 0 .08-.114.08-.17 0-.3.017-.47.017-.552v-.04c0-.057-.033-.081-.09-.081-.04 0-.08 0-.186-.024a2 2 0 0 0-.526-.057c-.713 0-1.191.421-1.191 1.037M72.19 35.24a1.5 1.5 0 0 1-.243-.024c-.13-.016-.162-.105-.178-.267-.024-.235-.024-.68-.024-1.2v-.98c0-.866 0-1.02.008-1.198.008-.195.049-.26.178-.284.065-.008.09-.016.13-.016.048 0 .08-.033.08-.073 0-.09-.096-.09-.129-.09-.121 0-.324.009-.454.017h-.178c-.121 0-.34-.016-.47-.016-.032 0-.13 0-.13.089 0 .04.041.073.082.073.032 0 .097 0 .162.024.073.016.146.065.154.276.008.178.008.332.008 1.199v.98c0 .518 0 .972-.025 1.199-.024.17-.048.26-.13.275a.6.6 0 0 1-.153.025c-.057 0-.09.04-.09.073 0 .08.098.08.13.08.122 0 .325 0 .454-.016h.154c.122 0 .38.017.616.017.121 0 .13-.057.13-.081 0-.033-.025-.073-.082-.073m-36.18-3.573c-.421.478-.55 1.118-.543 1.555q.025 1.057.68 1.653c.438.405.997.583 1.743.56.307 0 .712-.058.94-.155.105-.048.12-.073.153-.186.049-.195.098-.68.09-.721 0-.114-.057-.122-.082-.122-.064 0-.072.073-.089.122-.024.105-.073.34-.17.454-.186.226-.478.275-.859.291-.51.016-.98-.186-1.328-.567a2.17 2.17 0 0 1-.543-1.377c-.016-.47.024-1.013.413-1.434.243-.275.616-.413 1.142-.421.462-.008.851.137 1.013.275.13.105.195.3.219.535 0 .065 0 .154.08.154.082 0 .082-.098.082-.154v-.575c0-.122.008-.195.016-.243v-.073c0-.065-.032-.09-.105-.098-.154 0-.316-.032-.503-.064h-.016a3.5 3.5 0 0 0-.753-.049c-.697.016-1.215.235-1.588.648m20.585-.688c-1.62 0-2.228 1.352-2.228 2.211 0 1.07.69 2.22 2.196 2.22 1.304 0 2.252-.972 2.252-2.309 0-.632-.219-1.175-.632-1.555-.397-.365-.956-.567-1.588-.567m-.04.267c.794 0 1.653.632 1.653 2.009 0 1.774-1.248 1.863-1.491 1.863-1.02 0-1.734-.858-1.734-2.09 0-1.102.608-1.79 1.58-1.79m-5.493-.114c-.275.008-.445.017-.696.017-.308 0-.568-.017-.754-.017-.032 0-.121 0-.121.081 0 .04.032.065.08.065.05 0 .138 0 .179.016.154.033.202.098.21.284.009.178.009.332.009 1.199v.972c0 .518 0 .972-.025 1.199v.04c-.024.146-.04.211-.137.236-.049.008-.114.024-.154.024-.057 0-.081.032-.081.065 0 .08.089.08.121.08h.689c.08 0 .186.017.308.025h.121c.178.024.332.032.527.032.923 0 1.385-.372 1.652-.648.381-.405.6-.98.6-1.588 0-.72-.292-1.174-.535-1.434-.632-.648-1.45-.648-1.993-.64m1.54 3.549a1.7 1.7 0 0 1-1.24.502c-.656 0-.737-.122-.794-.21-.04-.057-.048-.317-.057-.406 0-.097-.008-.591-.008-1.199v-1.871c0-.049.008-.065.049-.081.032-.016.202-.032.324-.032.672 0 1.118.04 1.628.575.235.25.519.697.519 1.418 0 .542-.162 1.044-.422 1.304"/></g><defs><clipPath id="clip0_3802_7667"><path fill="#fff" d="M0 0h80v35.475H0z"/></clipPath></defs></svg>