<svg fill="none" viewBox="0 0 80 14"><g clip-path="url(#clip0_3802_10644)"><path fill="#0060AF" d="M5.135 11.077c-1.06-.044-2.192-.293-3.274-.72-.252-.1-.63-.264-.774-.337-.058-.03-.062-.036-.174-.29a10.6 10.6 0 0 1-.907-3.838C-.005 5.653 0 5.047.015 4.834a10.4 10.4 0 0 1 .986-3.783l.025-.05.185-.084a10.2 10.2 0 0 1 3.15-.86 9.6 9.6 0 0 1 3.4.235 11.6 11.6 0 0 1 2.136.767l.063.029.061.135c.536 1.17.863 2.4.964 3.62.118 1.435-.095 2.907-.627 4.33-.127.339-.358.874-.39.901-.033.03-.45.21-.744.325-.189.073-.613.216-.813.273-.804.231-1.596.36-2.454.402-.162.007-.662.01-.822.003m.917-.239c1.279-.07 2.575-.388 3.667-.898l.082-.039.083-.186c.497-1.114.785-2.222.876-3.367.127-1.601-.178-3.286-.884-4.882l-.09-.204-.158-.072Q7.738.331 5.836.239a9.9 9.9 0 0 0-4.427.845c-.228.101-.213.091-.237.147l-.082.185C.67 2.363.389 3.408.28 4.434c-.04.372-.051.601-.051 1.018 0 .587.037 1.06.13 1.622.147.9.443 1.871.812 2.666l.037.08.077.036c1.292.603 2.606.938 3.897.992.195.008.643.003.87-.01m-.989-.58c-.016-.003-.02-.01-.019-.035 0-.074.05-.848.055-.852.002-.002.09 0 .196.004.176.008.194.01.232.03.03.015.048.033.068.067.066.11.042.3-.048.375-.046.038-.101.052-.214.052h-.096l-.006.063-.01.183-.007.12-.065-.002zm.336-.505q.061-.028.06-.134c0-.048-.003-.062-.02-.081q-.032-.039-.133-.04c-.035 0-.045.004-.049.016a2 2 0 0 0-.01.13l-.006.115.034.003c.071.008.095.006.124-.009m.948.457a53 53 0 0 1-.116-.863l.176-.027c.194-.027.248-.024.298.019.046.039.065.093.065.186 0 .07-.002.087-.02.114a.2.2 0 0 1-.046.05l-.028.017.026.006.04.01c.025.007.075.066.09.106a.6.6 0 0 1 .012.233.18.18 0 0 1-.088.108 1 1 0 0 1-.205.044l-.185.025q-.014 0-.02-.028m.263-.14a.1.1 0 0 0 .047-.035c.037-.05.011-.197-.039-.223a.4.4 0 0 0-.153.003c-.003.004.03.242.038.264.003.013.053.008.107-.01m-.054-.42a.1.1 0 0 0 .04-.037.2.2 0 0 0 0-.14c-.023-.045-.047-.054-.123-.042-.061.009-.062.01-.058.032l.014.105c.005.046.011.088.013.094.004.014.069.007.114-.011m-2.127.572a.4.4 0 0 1-.176-.064c-.087-.071-.092-.151-.038-.579.021-.163.04-.3.043-.302a1 1 0 0 1 .17.017l-.037.31a6 6 0 0 0-.04.363c0 .049.003.058.025.08.044.044.127.045.17.003.033-.035.043-.084.083-.42l.037-.307.053.005.087.01.035.005-.04.328c-.026.202-.049.35-.06.387a.23.23 0 0 1-.119.147.4.4 0 0 1-.193.017m-.686-.104-.086-.023.006-.053a2 2 0 0 1 .022-.143c.024-.124.023-.144-.007-.174-.025-.025-.06-.038-.132-.048l-.04-.006-.037.186-.04.188a2 2 0 0 1-.174-.036c-.003-.003.185-.876.19-.881.007-.007.354.075.398.094a.2.2 0 0 1 .11.122.44.44 0 0 1-.013.197c-.017.057-.066.11-.112.118l-.032.006.035.025c.048.035.05.055.022.207a.7.7 0 0 0-.018.187c.003.032.002.058-.001.058zm.008-.577a.24.24 0 0 0 .046-.133c0-.037-.017-.068-.044-.081a.7.7 0 0 0-.16-.035 3 3 0 0 0-.05.24c.001.002.029.01.061.02q.107.03.147-.01m3.516.545c-.057-.018-.112-.081-.141-.163a2.3 2.3 0 0 1-.089-.46c-.006-.131.006-.173.068-.23a.32.32 0 0 1 .219-.074c.115 0 .186.057.222.177.009.03.016.058.016.063 0 .01-.148.041-.156.032a.3.3 0 0 1-.02-.047q-.043-.117-.129-.082-.06.024-.06.113c0 .061.068.408.09.46.024.056.05.078.1.083q.111.011.088-.149l-.008-.063a.5.5 0 0 1 .162-.036 1 1 0 0 1 .008.09.4.4 0 0 1-.009.137.21.21 0 0 1-.131.14.5.5 0 0 1-.23.009m.62-.175c-.01-.121-.049-.813-.046-.84s.004-.028.104-.058a1 1 0 0 1 .106-.027c.019.02.446.795.44.8a.4.4 0 0 1-.07.026l-.075.023c-.007.002-.03-.034-.061-.093a.5.5 0 0 0-.06-.101.4.4 0 0 0-.097.02l-.085.026v.043c0 .023.004.077.008.118l.007.076-.06.017c-.115.034-.104.038-.11-.03m.265-.41a2 2 0 0 0-.084-.19c-.05-.1-.09-.176-.09-.17 0 .019.034.357.04.381l.003.02.063-.018a.4.4 0 0 0 .068-.024m-5.268.416c-.055-.017-.057-.019-.043-.079l.007-.03-.03.027q-.095.084-.238.012c-.154-.077-.168-.182-.067-.536.064-.228.122-.324.21-.35a.42.42 0 0 1 .334.077c.04.035.056.066.065.124.008.046-.004.171-.017.171l-.031-.008-.073-.021-.048-.014.008-.05c.007-.042.006-.056-.007-.083-.017-.036-.07-.067-.114-.067-.033 0-.08.03-.1.065-.019.033-.12.395-.126.453q-.005.043.01.076a.11.11 0 0 0 .166.045.36.36 0 0 0 .085-.157c.006-.027.006-.027-.044-.038l-.056-.014a.4.4 0 0 1 .038-.134c.026 0 .258.082.255.09l-.063.234a3 3 0 0 1-.064.223zm1.764-1.57a.6.6 0 0 0-.153-.247.97.97 0 0 0-.935-.26 4 4 0 0 1-.805.096c-.192.001-.23-.004-.355-.045a1 1 0 0 1-.412-.263 1.02 1.02 0 0 1-.312-.597 1.9 1.9 0 0 1 .054-.626.8.8 0 0 1 .14-.28l.017-.02.024.038a.7.7 0 0 0 .29.24c.103.053.214.09.474.156 1.01.26 1.474.481 1.779.849.223.27.355.597.371.92l.005.103h-.163zm.37.008c0-.144-.053-.403-.117-.575a2 2 0 0 0-.27-.493c-.34-.445-.802-.678-1.911-.965a5 5 0 0 1-.268-.076c-.36-.13-.61-.438-.685-.847a1.7 1.7 0 0 1 0-.46c.053-.3.192-.576.392-.784.236-.245.519-.367.945-.409.368-.036.794.17 1.175.57.43.45.73 1.059.839 1.71.047.281.049.31.053 1.386l.004.999h-.157zm.334.019c-.002-.02-.007-.378-.01-.794-.005-1.043-.017-1.305-.07-1.65a3.6 3.6 0 0 0-.173-.69 3.2 3.2 0 0 0-.424-.762 6 6 0 0 0-.221-.244 11 11 0 0 1-.245-.266c-.352-.404-.515-.797-.515-1.24 0-.485.162-.903.47-1.213.493-.494 1.304-.644 1.997-.37a1.62 1.62 0 0 1 1.03 1.579c.001.28-.047.49-.168.74-.109.223-.265.432-.547.726-.2.21-.256.274-.33.379-.369.52-.542 1.067-.583 1.836-.005.091-.008.58-.008 1.086v.92h-.198zm.36-.927c.004-.59.01-1.01.015-1.081a3.7 3.7 0 0 1 .214-.975c.317-.837.95-1.496 1.57-1.632.222-.05.635.02.891.149.346.174.619.55.71.977.028.132.033.366.01.502-.069.401-.302.705-.65.846-.041.017-.18.058-.308.09-1.173.303-1.626.546-1.954 1.044-.12.182-.227.438-.274.655-.02.094-.044.282-.044.348v.041h-.184zm.345.914a1.63 1.63 0 0 1 .785-1.322c.297-.18.677-.317 1.4-.507.142-.038.285-.078.316-.09.19-.072.358-.192.421-.3l.023-.039.02.025c.125.15.194.41.195.73 0 .213-.018.307-.088.452a1.12 1.12 0 0 1-.708.602c-.208.053-.578.03-1.066-.068-.202-.04-.315-.046-.437-.02-.341.07-.604.277-.685.537l-.015.05h-.162zm18.04 1.898-.164-.012c-.654-.048-1.29-.228-1.783-.504-.958-.537-1.552-1.45-1.7-2.616-.173-1.352.34-2.88 1.362-4.068a5.82 5.82 0 0 1 3.726-1.992c.352-.044.813-.06.986-.032.11.017.297.065.432.11.055.019.103.034.107.034.003 0 .059-.068.124-.151l.117-.152.08.043c1.465.777 1.785.948 1.787.954.003.008-1.332 2.452-1.348 2.468a.3.3 0 0 1-.096-.062 3 3 0 0 0-1.622-.646 4 4 0 0 0-.623.013c-.63.075-1.158.32-1.558.723a2.5 2.5 0 0 0-.68 1.33 2.7 2.7 0 0 0-.017.542c.063.536.333.986.768 1.279.204.137.485.248.764.303.218.043.317.052.58.052.266.001.335-.007.56-.06.454-.108 1.057-.363 1.406-.595l.075-.05-.024.053c-.117.26-1.31 2.805-1.318 2.812a1 1 0 0 1-.123.032l-.339.07c-.5.107-.61.12-1.085.123-.197.002-.375.002-.394 0m-11.6-.293c0-.005.367-1.434.815-3.174l.816-3.163-.083-.006a8 8 0 0 0-.331-.006 3 3 0 0 1-.249-.008c0-.003.307-.601.682-1.329L14.83.957l1.886-.002c1.906-.003 2.098 0 2.322.029.988.13 1.616.676 1.763 1.536.023.13.027.43.009.574-.103.817-.735 1.62-1.688 2.14l-.068.038.03.013c.232.102.38.196.515.326.295.286.439.643.48 1.19.013.171.006.512-.013.631q-.136.849-.788 1.506c-.612.616-1.461.981-2.394 1.03-.264.014-4.387.013-4.387-.002m4.348-2.295c.387-.066.687-.283.8-.576a.67.67 0 0 0-.012-.545.64.64 0 0 0-.4-.32l-.077-.025-.557-.002c-.307-.002-.56 0-.564.004a30 30 0 0 0-.194.729l-.192.738c-.004.014.026.015.545.015.51 0 .557-.002.651-.018m.601-3.075q.657-.116.73-.76c.017-.16-.015-.277-.102-.364a.43.43 0 0 0-.217-.118c-.065-.018-.099-.02-.587-.028a8 8 0 0 0-.525 0 57 57 0 0 0-.294 1.284c0 .005.158.007.456.004.377-.003.471-.006.54-.018m9.286 5.127c.474-.935 3.117-6.18 3.117-6.186 0-.005-.15-.009-.363-.01l-.362-.002L30.512.957 34.79.953l.005.08.38 8.894.002.05h-2.86V8.428h-1.962l-.642 1.545-3.11.004zm5.592-3.542c0-.087-.006-.584-.013-1.103l-.013-1.153a1 1 0 0 0-.008-.2c-.008.008-1.09 2.57-1.098 2.6-.004.014.027.015.564.015h.568z"/><path fill="#00A6B5" d="M44.358 13.72c-.27-.02-.746-.09-.773-.114-.009-.008.095-.423.232-.922l.248-.907.078.003c.044.001.199.01.345.02.3.02.632-.012.862-.083a.46.46 0 0 0 .239-.15c.102-.11.232-.364.276-.539.026-.103.018-.126-1.217-3.72-.683-1.99-1.242-3.621-1.242-3.625s.535-.007 1.19-.007h1.189l.458 1.42.617 1.908c.087.27.167.482.176.472.01-.011.301-.87.647-1.91l.63-1.89h1.165c.642 0 1.167.008 1.167.017s-.418 1.255-.929 2.768c-.51 1.513-1.039 3.11-1.173 3.55s-.301.975-.37 1.189c-.314.97-.79 1.67-1.38 2.03-.32.195-.83.38-1.261.455-.248.043-.822.06-1.174.034m-4.985-3.474a5 5 0 0 1-1.54-.435c-.328-.16-.549-.324-.732-.54-.222-.264-.441-.678-.456-.862l-.007-.076.908-.143c.5-.08.95-.15 1.002-.158l.093-.014.097.149c.161.25.408.425.715.51.12.033.24.042.586.042.432.001.439 0 .575-.063.302-.141.416-.357.264-.499-.09-.084-.315-.163-.793-.277-1.234-.294-1.397-.344-1.812-.556-.5-.255-.806-.605-.96-1.098-.075-.238-.075-.738 0-1.04.183-.75.613-1.216 1.413-1.532 1.107-.437 2.813-.297 3.837.314.215.128.562.458.69.655.097.15.21.43.183.455-.01.009-.282.07-.605.137l-.945.196-.359.074-.095-.145c-.222-.337-.516-.468-1.053-.469-.293 0-.453.028-.61.107-.183.092-.223.252-.11.438.099.16.287.236.886.354 1.274.25 1.868.49 2.276.92.391.41.548.862.495 1.423-.053.563-.234.947-.621 1.316-.414.395-.918.624-1.713.777-.209.04-.356.05-.84.055a9 9 0 0 1-.77-.015m11.915-.137c-.491-.032-.77-.129-1.123-.391a1.4 1.4 0 0 1-.46-.538c-.094-.198-.124-.355-.122-.63.009-.82.512-1.541 1.322-1.892.294-.127.671-.219 1.969-.478a24 24 0 0 0 1.367-.3c.38-.127.494-.23.494-.444 0-.341-.288-.528-.815-.529-.297 0-.487.049-.781.201-.21.11-.42.304-.485.45-.023.052-.058.095-.077.095-.047 0-2.24-.258-2.249-.265a1 1 0 0 1 .054-.175c.164-.46.514-.881 1.01-1.215.39-.263.72-.4 1.192-.493.473-.095.755-.112 1.62-.099.897.014 1.131.042 1.611.192.336.105.519.188.7.318.31.221.447.45.542.91.094.451.046.924-.262 2.573a87 87 0 0 0-.224 1.23c-.086.507-.063 1.014.06 1.304.016.038-.047.04-1.125.04h-1.14l-.043-.098q-.064-.146-.106-.563l-.015-.144-.084.07c-.508.429-.9.623-1.545.766a4.3 4.3 0 0 1-1.285.105m1.9-1.426c.567-.175 1.012-.586 1.167-1.077.058-.186.138-.618.118-.638-.012-.012-.33.066-1.093.268-.757.201-1.128.4-1.249.668a.65.65 0 0 0-.047.278c0 .235.068.358.245.445.235.115.592.138.859.056m13.739 1.426c-.511-.032-.844-.16-1.208-.466-.387-.325-.544-.741-.48-1.273a2.03 2.03 0 0 1 .779-1.39c.396-.319.808-.467 1.862-.672 2.017-.391 2.361-.49 2.473-.706.056-.108.032-.316-.05-.434-.126-.183-.504-.298-.87-.263-.47.044-.99.346-1.134.66q-.04.086-.087.087c-.026 0-.522-.056-1.103-.126-.58-.07-1.074-.126-1.097-.126-.049 0-.047-.01.055-.277.234-.613.965-1.25 1.721-1.502.562-.186.978-.23 2.046-.214.686.01.857.019 1.08.059.477.085.926.237 1.173.397.328.211.495.45.594.847.13.515.093.913-.263 2.819-.193 1.032-.262 1.486-.263 1.711 0 .173.05.491.101.636l.034.097h-2.275l-.043-.098c-.047-.107-.081-.283-.105-.54l-.015-.167-.091.075c-.432.353-.659.489-1.045.622a4.6 4.6 0 0 1-1.79.244m2.022-1.465c.28-.11.459-.226.678-.44.28-.276.387-.508.473-1.033a1 1 0 0 0 .021-.205c-.023-.023-1.459.36-1.666.445-.552.226-.722.407-.722.77 0 .223.057.339.21.429s.324.122.592.113a1 1 0 0 0 .414-.08M56.873 9.937c0-.034 1.055-6.052 1.105-6.301l.024-.12h1.17c1.038 0 1.17.003 1.17.035 0 .019-.035.235-.08.48-.11.605-.108.61.057.365.31-.461.88-.853 1.402-.963.257-.055.833-.032 1.07.042l.094.029-.19 1.053c-.103.58-.193 1.058-.2 1.064a.8.8 0 0 1-.19-.035 2.7 2.7 0 0 0-.857-.088c-.816.036-1.232.34-1.495 1.09-.116.33-.13.392-.413 1.992l-.244 1.381-1.212.006c-1.083.005-1.211.002-1.211-.03m5.332.007c0-.016.252-1.466.559-3.223l.557-3.194 2.355-.012-.016.086-.56 3.223-.543 3.137-1.177.006c-.934.005-1.176 0-1.175-.023m10.317.016c0-.02 1.49-8.434 1.519-8.576l.024-.12h1.125c.618 0 1.124.007 1.123.016 0 .01-.128.757-.284 1.66-.156.904-.282 1.647-.279 1.65s.087-.067.187-.157c.54-.485 1.073-.796 1.618-.945.17-.046.248-.053.586-.052.472 0 .676.044 1.042.22.315.152.509.34.643.62.146.306.175.456.174.882-.002.425.028.228-.432 2.86a325 325 0 0 0-.335 1.937c0 .01-.548.018-1.218.018-1.092 0-1.218-.004-1.218-.036 0-.02.113-.633.252-1.362.359-1.888.4-2.139.401-2.497.002-.275-.003-.309-.056-.414-.067-.135-.179-.218-.385-.286a.98.98 0 0 0-1.02.273 2.3 2.3 0 0 0-.364.676c-.028.087-.198.94-.377 1.896l-.325 1.738-1.2.006c-.66.004-1.2 0-1.2-.007"/></g><defs><clipPath id="clip0_3802_10644"><path fill="#fff" d="M0 0h80v13.732H0z"/></clipPath></defs></svg>