<svg fill="none" viewBox="0 0 80 13"><g clip-path="url(#clip0_3802_10650)"><path fill="#0060AF" d="M5.618 9.07c0-.477.005-1.75-.007-1.906.01-1.895-1.367-3.23-2.237-3.127-.602.053-1.107.298-1.378 1.004-.25.659-.026 1.534.809 1.74.892.22 1.414.404 1.79.663.463.317.84.922.85 1.626"/><path fill="#0060AF" d="M5.974 11.949c-1.574 0-3.192-.388-4.807-1.155l-.04-.02-.019-.04A11.4 11.4 0 0 1 0 5.894c0-1.635.368-3.237 1.093-4.766l.02-.04.04-.02A11.1 11.1 0 0 1 5.933 0c1.563 0 3.232.4 4.826 1.156l.041.019.019.041c.739 1.559 1.128 3.232 1.128 4.842 0 1.604-.374 3.208-1.113 4.766l-.02.04-.041.02a11.3 11.3 0 0 1-4.799 1.065m-4.658-1.364c1.57.738 3.135 1.11 4.658 1.11a11 11 0 0 0 4.65-1.022c.711-1.509 1.071-3.062 1.071-4.615 0-1.558-.376-3.18-1.086-4.692C9.062.638 7.446.253 5.933.253a10.8 10.8 0 0 0-4.63 1.024 10.8 10.8 0 0 0-1.05 4.616c0 1.586.368 3.208 1.063 4.692"/><path fill="#0060AF" d="M5.244 9.07a1.74 1.74 0 0 0-.783-1.44c-.395-.256-.925-.425-1.78-.642-.265-.067-.542-.218-.627-.41-.227.23-.268.742-.228 1.042.046.347.452.92 1.063.942.372.015.844-.08 1.07-.129.39-.084 1.007.16 1.105.637m.869-7.985c-1.035 0-1.93.683-1.927 1.865.004.993.803 1.525 1.088 1.905.43.573.664 1.25.688 2.287.019.826.018 1.64.022 1.93h.229a75 75 0 0 1-.003-1.955c.016-1.037.257-1.69.689-2.262.287-.38 1.086-.912 1.087-1.905.004-1.182-.89-1.865-1.924-1.865"/><path fill="#0060AF" d="M6.196 9.07c0-.477-.006-1.75.006-1.906-.01-1.895 1.366-3.23 2.237-3.127.602.053 1.106.298 1.378 1.004.25.659.025 1.534-.81 1.74-.892.22-1.413.404-1.791.663-.462.317-.813.922-.823 1.626"/><path fill="#0060AF" d="M6.569 9.07a1.74 1.74 0 0 1 .781-1.44c.397-.256.928-.425 1.782-.642.265-.067.542-.218.626-.41.227.23.268.742.229 1.042-.048.347-.452.92-1.062.942-.373.015-.847-.08-1.072-.129-.388-.084-1.007.16-1.106.637m.141 1.971-.133-.967.32-.048c.078-.01.173.003.21.052a.27.27 0 0 1 .064.16c.012.082-.012.178-.105.225v.003c.104 0 .167.075.185.2.002.027.01.092.002.145-.02.128-.097.17-.225.187zm.206-.173c.038-.005.076-.007.106-.027.046-.03.042-.094.036-.142-.016-.105-.044-.144-.155-.128l-.07.01.044.292zm-.067-.447c.042-.006.1-.012.123-.052.013-.027.029-.048.018-.108-.013-.07-.036-.114-.126-.097l-.084.013.033.248m1.282.035q.005.028.007.056c.026.176-.007.322-.205.362-.293.057-.349-.125-.4-.38l-.028-.138c-.04-.244-.058-.429.228-.486.16-.029.267.035.312.195q.012.036.018.072l-.175.036c-.02-.06-.047-.168-.126-.159-.141.018-.095.194-.08.267l.053.265c.015.08.047.208.17.183.099-.02.056-.175.047-.238m.461.257-.061-1 .235-.072.494.87-.185.055-.117-.22-.206.061.027.252zm.143-.467.148-.043-.197-.405m-5.91.159c.073-.236.14-.41.42-.333.15.042.244.109.24.284 0 .038-.014.078-.022.117l-.175-.049c.023-.096.037-.173-.082-.21-.137-.037-.17.13-.19.201l-.07.263c-.023.078-.05.206.07.24.1.026.161-.072.197-.215l-.122-.032.042-.152.288.092-.137.506-.132-.036.03-.107h-.004a.18.18 0 0 1-.2.084c-.289-.078-.259-.266-.19-.517m1.108.291-.086.411-.196-.042.208-.96.333.075c.195.042.254.129.226.307-.016.102-.066.213-.19.204v-.002c.104.037.112.09.094.18-.008.039-.062.274-.025.312l.002.028-.202-.052c-.009-.066.02-.182.031-.247.012-.058.03-.138-.028-.169-.046-.024-.063-.023-.114-.035zm.034-.149.131.036q.118.018.14-.127c.014-.088-.004-.123-.076-.14l-.14-.028m1.163.031.193.023-.083.675c-.04.214-.123.307-.359.278-.24-.03-.296-.14-.281-.355l.083-.675.195.023-.084.659c-.008.072-.025.178.102.19.113.01.139-.066.152-.159m.488.354.058-.965.371.016c.175.008.221.151.216.288-.005.083-.031.176-.104.226a.33.33 0 0 1-.206.05l-.121-.007-.024.404zm.22-.54.098.006c.08.003.132-.029.14-.146.003-.112-.04-.131-.143-.136l-.078-.003m25.921-8.222-1.474 2.676c-.556-.452-1.236-.784-2.103-.784-2.05 0-2.884 1.529-2.884 2.606 0 .8.524 1.979 2.349 1.979.766 0 1.855-.533 2.168-.776l-1.457 3.104c-.695.14-.924.225-1.512.243-3.267.098-4.587-1.91-4.586-3.96.002-2.71 2.413-6.008 6.408-6.008.245 0 .544.085.8.179l.26-.331m8.113.084.418 9.724h-3.107l-.002-1.668H32.9l-.697 1.668h-3.369l3.522-6.944-.794-.005 1.51-2.775zm-2.71 2.975L33.8 6.833h1.233"/><path fill="#0060AF" d="M20.166 1.03c1.538.009 2.408.844 2.408 2.05 0 1.112-.917 2.096-1.924 2.605 1.037.381 1.126 1.316 1.126 1.978 0 1.598-1.604 3.091-3.688 3.091h-4.546l1.773-6.847-.728-.004 1.489-2.873s2.839-.009 4.09 0m-1.51 3.942c.319 0 .88-.08 1.021-.696.154-.668-.373-.686-.626-.686l-.904-.004-.315 1.387zM17.38 6.691l-.416 1.598h1.064c.419 0 .99-.208 1.13-.728.137-.521-.262-.87-.679-.87"/><path fill="#00A6B5" d="M60 2.951c0-.019.297-1.789.314-1.872l.01-.044h1.358c.747 0 1.359.004 1.359.008l-.16.953c-.088.52-.16.95-.16.96 0 .009-.509.015-1.36.015-1.043 0-1.36-.005-1.36-.02m-11.813-.028.164-.964.155-.916 2.726-.009-.009.045c-.005.024-.079.458-.164.964l-.156.92-2.726.008zm27.465 7.707.83-4.688.82-4.651H80v.073c0 .056-1.536 8.807-1.618 9.218l-.016.084h-2.722zm-17.012.018c0-.032 1.187-6.789 1.194-6.801a37 37 0 0 1 1.359-.013c1.254 0 1.35.002 1.35.027 0 .02-.92 5.296-1.178 6.753l-.009.052H60c-1.014 0-1.358-.005-1.358-.018m-11.815-.01c.003-.015.27-1.533.59-3.372l.594-3.388.01-.044h1.358c1.076 0 1.358.005 1.358.02 0 .011-.27 1.547-.597 3.412l-.595 3.392-1.362.004c-1.292.004-1.362.003-1.356-.024m17.751.076q-.582-.042-.905-.155c-.36-.128-.57-.376-.65-.765-.03-.142-.033-.197-.025-.488.009-.325.037-.573.105-.928.018-.092.137-.78.265-1.528s.236-1.376.241-1.396l.008-.036h-.488c-.455 0-.488-.002-.487-.028 0-.015.06-.37.133-.788l.132-.76 1.008-.008.1-.556.19-1.055.09-.5h1.332c.734 0 1.333.005 1.333.012 0 .006-.085.48-.189 1.052l-.187 1.04 1.307.008-.01.044-.129.747c-.066.388-.124.724-.13.748l-.008.044h-.655c-.39 0-.654.006-.654.015s-.106.608-.234 1.332c-.247 1.396-.27 1.553-.245 1.649.024.09.109.191.196.233.166.08.294.1.645.1h.326l-.008.035c-.005.02-.07.432-.144.916l-.144.93-.009.048-.484.02c-.64.027-1.38.035-1.626.018m3.58-.131c-.212-.106-.24-.126-.375-.26a1.3 1.3 0 0 1-.316-.474c-.09-.229-.108-.406-.081-.799.028-.404.082-.607.24-.912.094-.182.18-.294.386-.502a2.9 2.9 0 0 1 1.35-.786c.233-.067 1.052-.205 1.756-.296.79-.102 1.224-.184 1.39-.265a.64.64 0 0 0 .277-.307c.068-.182.015-.403-.123-.508-.072-.056-.3-.123-.51-.153a1.66 1.66 0 0 0-.786.132.8.8 0 0 0-.332.34c-.03.062-.059.126-.064.141-.008.027-.086.028-1.329.028h-1.32l.01-.052c.134-.746.57-1.332 1.27-1.704.619-.329 1.43-.492 2.615-.525.989-.027 1.913.105 2.441.349.3.139.544.348.658.564.118.226.189.566.189.905 0 .24-.016.433-.065.775a284 284 0 0 1-.654 3.7.65.65 0 0 0 .187.582c.07.064.071.068.058.131l-.014.065-.232-.005c-.128-.002-.758-.02-1.4-.039l-1.168-.034-.008-.727-.1.08a3.8 3.8 0 0 1-1.58.75c-.83.152-1.68.147-2.37-.194m3.01-1.23c.157-.025.355-.099.5-.185.444-.267.693-.722.788-1.442.004-.037.005-.068 0-.068-.004 0-.06.021-.123.046a5 5 0 0 1-.803.234c-.447.088-.748.176-.953.28a.8.8 0 0 0-.31.332.5.5 0 0 0-.056.263c-.005.145-.003.16.04.238.05.093.105.144.212.199.198.1.474.14.705.103m-18.063 3.553c-.674-.056-1.196-.173-1.582-.354-.34-.16-.658-.415-.841-.675a1.7 1.7 0 0 1-.272-.77.3.3 0 0 1 .006-.136c.013-.02.18-.019 1.324.012.72.02 1.34.04 1.376.044.064.008.067.011.077.076.025.154.09.235.257.32.126.063.252.081.5.07.321-.014.548-.089.75-.248.214-.17.457-.66.494-.997.006-.056.035-.224.064-.374s.05-.273.049-.275a1 1 0 0 0-.123.085 3.17 3.17 0 0 1-1.611.63c-.206.02-.676.006-.876-.024-.5-.077-.99-.328-1.323-.677-.448-.468-.695-1.182-.66-1.907.032-.687.15-1.195.42-1.808.21-.478.49-.909.81-1.244.539-.565 1.193-.898 2.01-1.022.275-.042.694-.038.906.008.598.128 1.077.44 1.366.887.081.126.095.139.102.106.005-.021.038-.2.073-.399l.074-.404.009-.044h2.398l-.009.036c-.005.02-.228 1.271-.496 2.78-.582 3.272-.55 3.1-.648 3.48-.236.923-.425 1.323-.848 1.8-.27.302-.708.593-1.104.732-.273.096-.8.203-1.288.262-.307.037-1.092.054-1.384.03m1.613-4.48a1.1 1.1 0 0 0 .516-.287c.262-.262.46-.645.533-1.036.039-.203.05-.644.021-.78-.059-.274-.164-.452-.343-.58s-.285-.157-.548-.154c-.46.005-.735.149-.973.51a2.4 2.4 0 0 0-.365.942c-.036.196-.04.255-.034.457.007.193.015.254.05.36a.84.84 0 0 0 .678.6c.105.02.318.004.465-.032M40.94 10.833c-.932-.127-1.573-.641-1.902-1.527-.167-.447-.202-.898-.131-1.693.034-.376.157-.854.356-1.379a4 4 0 0 1 .475-.936c.582-.893 1.32-1.428 2.242-1.624.56-.119 1.384-.006 1.808.247.158.093.373.288.489.44a.5.5 0 0 0 .09.102c.005-.002.137-.722.291-1.6l.282-1.596 2.726-.009-.008.037c-.005.02-.376 2.124-.825 4.675-.45 2.552-.82 4.653-.825 4.668-.008.026-.08.028-1.232.028h-1.223l.008-.036c.005-.02.038-.205.074-.412s.069-.394.074-.416c.007-.03-.048.016-.205.17-.328.32-.705.583-.997.696a3.5 3.5 0 0 1-.651.165c-.21.03-.692.03-.915 0m1.841-1.943a1.28 1.28 0 0 0 .743-.488 2.3 2.3 0 0 0 .255-.42c.195-.433.287-1.159.193-1.532a1 1 0 0 0-.25-.48c-.172-.174-.374-.24-.687-.225a1.16 1.16 0 0 0-.797.329c-.136.12-.344.465-.45.745a3.4 3.4 0 0 0-.182 1.166c.01.27.038.399.131.584a.7.7 0 0 0 .462.348c.11.028.41.014.582-.027"/></g><defs><clipPath id="clip0_3802_10650"><path fill="#fff" d="M0 0h80v12.917H0z"/></clipPath></defs></svg>