<svg fill="none" viewBox="0 0 80 23"><g clip-path="url(#clip0_3802_18397)"><path fill="#2093FD" d="M12.72 20.688c.011-6.895.002-13.79.005-20.688 1.068.013 2.133.013 3.201.015-.011 6.875-.03 13.75.01 20.624-1.07.064-2.143.013-3.216.049"/><path fill="#2093FD" fill-rule="evenodd" d="M.028 20.708c-.04-6.555-.033-13.11-.005-19.666.734.032 1.469.04 2.203.047 1.108.012 2.216.023 3.321.117.25.021.505.03.761.04.898.032 1.815.065 2.585.61 2.688 1.696 2.994 6.508.41 8.479 1.207.618 2.176 1.855 2.384 3.307.255 1.699.085 3.58-.884 5-.863 1.19-2.221 1.928-3.615 1.986-1.291.074-2.584.064-3.877.054a72 72 0 0 0-3.283.026m3.327-16.39.004.592c.012 1.428.023 2.857-.018 4.285.291-.034.59-.055.892-.076.987-.068 1.997-.137 2.85-.686.645-.922.695-2.412-.012-3.314-.838-.78-1.983-.786-3.058-.79q-.337 0-.658-.01m.017 10.375c.004-.882.007-1.763.023-2.644q.432.025.866.04c.826.03 1.654.06 2.46.262 1.75.442 2.104 3.268.83 4.462-.833.639-1.838.654-2.836.67-.464.007-.927.014-1.37.084.02-.958.024-1.917.027-2.874m37.365-4.96c-1.552-2.246-4.522-2.658-6.892-2.006-2.584.731-4.388 3.588-4.31 6.445-.073 2.152.625 4.475 2.28 5.784 1.65 1.497 4.018 1.576 6.022 1.045 1.85-.496 3.213-2.09 4.14-3.818-.38-.24-.766-.466-1.153-.693a32 32 0 0 1-1.59-.976c-.565.887-1.225 1.76-2.14 2.236-.78.437-1.714.337-2.518.038-.99-.483-1.575-1.607-1.688-2.747 3.025-.025 6.05-.015 9.075-.005.019-1.83-.165-3.803-1.226-5.303m-5.11 2.688c-.806-.001-1.612-.003-2.419.011.538-2.73 4.872-2.788 5.4-.033-.994.027-1.987.024-2.981.022" clip-rule="evenodd"/><path fill="#2093FD" d="M16.91 7.823c1.07-.005 2.143.002 3.215-.008.031 2.461.007 4.925.01 7.388.03.872.174 1.922.912 2.43.946.542 2.117.553 3.1.126.76-.297 1.191-1.204 1.177-2.047.073-2.653-.012-5.306.033-7.958 1.061-.003 2.122.02 3.183-.041.083 2.146.036 4.296.043 6.445-.045 1.845-.215 3.88-1.36 5.346-1.5 1.71-3.884 1.72-5.898 1.498-1.459-.102-2.907-.979-3.583-2.41-.675-1.357-.573-2.944-.689-4.431.003-2.114-.127-4.225-.144-6.338"/><path fill="#1B49A9" fill-rule="evenodd" d="M47.011 1.105q-1.434-.004-2.87-.014c-.017 3.688-.015 7.375-.012 11.062.001 2.836.003 5.672-.004 8.509.856-.047 1.714-.035 2.572-.023l.644.008a647 647 0 0 1-.005-8.567c.464-.01.931.003 1.398.016 1.109.03 2.22.061 3.303-.223 1.811-.544 2.889-2.558 3.1-4.482.126-1.712-.282-3.568-1.397-4.838-.99-1.122-2.485-1.403-3.858-1.434q-1.434-.008-2.87-.014m.52 5.003q.006-.899.005-1.796l.051.004c.922.08 1.852.161 2.75.417 1.474.345 1.724 2.776.67 3.752-.773.417-1.64.498-2.5.578-.326.03-.65.06-.968.11a112 112 0 0 1-.008-3.065" clip-rule="evenodd"/><path fill="#1B49A9" d="M67.131 5.632c1.142-.002 2.285.034 3.429.008 1.06 2.298 1.846 4.728 2.787 7.082 1.115-2.316 2.065-4.723 3.159-7.054 1.165-.023 2.33-.04 3.494-.01a4862 4862 0 0 0-6.82 15.873c-.218.434-.305 1.014-.725 1.278-1.115.04-2.233.02-3.348.048.762-1.876 1.62-3.713 2.282-5.63-.181-.85-.54-1.64-.827-2.453-1.198-3.023-2.237-6.118-3.43-9.142"/><path fill="#1B49A9" fill-rule="evenodd" d="M60.023 7.424c-1.858-.092-3.697 1.048-4.572 2.824-1.098 2.198-1.108 4.876-.445 7.227.698 2.374 2.961 4.079 5.267 3.864 1.088-.016 2.042-.584 2.971-1.137l.31-.184.07.718c.38-.006.76-.001 1.14.004.662.01 1.325.019 1.986-.035l-.004-1.326c-.011-3.834-.023-7.667.015-11.498q-1.137-.013-2.275-.011l-.853-.001v.007q-.005.487-.005.969c-1.075-.767-2.273-1.505-3.605-1.421m-1.86 5.185c.205-.813.733-1.566 1.462-1.894 1.306-.603 3.112-.038 3.638 1.472.766 1.933.46 4.71-1.45 5.702-1.146.45-2.632.115-3.297-1.06-.66-1.27-.742-2.837-.353-4.22" clip-rule="evenodd"/></g><defs><clipPath id="clip0_3802_18397"><path fill="#fff" d="M0 0h80v22.857H0z"/></clipPath></defs></svg>