<svg fill="none" viewBox="0 0 80 17"><g clip-path="url(#clip0_3802_10558)"><path fill="#231F20" d="M20.72 5.461c.036.601.07 2.123.07 2.677 0 .51 0 2.223-.089 2.96l-.007.058h2.674c1.313 0 2.704-.409 2.704-1.575 0-.731-.53-1.271-1.52-1.567.735-.196 1.224-.698 1.224-1.271 0-.953-1.095-1.312-2.123-1.336h-2.948zm2.066.582c1.115.009 1.523.236 1.523.843 0 .168-.05.317-.15.43-.214.257-.63.39-1.16.357h-.026l-.311.811h.31c.616-.017 1.152.177 1.426.513a.8.8 0 0 1 .19.524c0 .635-.559.962-1.66.962-.188 0-.488 0-.676-.007a82 82 0 0 1-.045-2.338c0-.4.026-1.29.045-2.051.128-.026.338-.042.536-.042m9.457-.638h-1.301l.052 1.45c.026.717.05 1.453.1 2.17-.084-.224-.163-.34-.558-.916-.002-.02-1.354-2.1-1.824-2.692l-.014-.014h-1.51v.054c.048.602.067 2.123.067 2.678 0 .51 0 2.222-.071 2.96l-.013.058h1.345v-.058c-.077-1.402-.077-2.819-.077-4.193.047.166.107.31.318.624.018.037 2.335 3.41 2.447 3.604l.012.025h1.077v-.058c-.084-.738-.09-2.45-.09-2.96 0-.555.036-2.076.071-2.678l.018-.054h-.053zm1.556.054c.053.602.074 2.123.074 2.677 0 .511 0 2.223-.08 2.961v.06h1.601l-.007-.06c-.054-.532-.082-1.542-.088-2.317.076.003.303.016.303.016l.227.005c2.106 0 3.13-.556 3.13-1.73 0-1.334-1.437-1.64-2.635-1.664h-2.523v.054zm1.973.64c.75-.014 1.273.138 1.521.453a.8.8 0 0 1 .177.518c0 .832-.938 1.012-1.72 1.012l-.316-.019-.131-.012c-.005-.193-.005-.446-.005-.731 0-.362 0-.79.017-1.19.11-.013.277-.033.457-.033m6.239-.638c.05.602.08 2.123.08 2.677 0 .511-.005 2.223-.087 2.961v.06h1.602l-.01-.06c-.05-.532-.08-1.542-.08-2.317.076.003.289.016.289.016l.233.005c2.105 0 3.137-.556 3.137-1.73 0-1.334-1.445-1.64-2.648-1.664h-2.514v.054zm1.97.64c.753-.014 1.276.138 1.527.453a.8.8 0 0 1 .175.518c0 .832-.935 1.012-1.708 1.012l-.317-.019-.133-.012c-.008-.193-.008-.448-.008-.731 0-.366 0-.79.015-1.19.1-.013.273-.033.451-.033m5.331-.692h-.021l-.01.03c-.3.818-2.218 5.008-2.522 5.65l-.027.071H48.1l.01-.031c.121-.394.282-.838.457-1.314l1.139-.017.94.007s.153.01.198.01c.243.618.428 1.085.509 1.32l.016.025h1.579l-2.552-5.75zm.39 1.692c.127.275.456 1.04.828 1.952-.057.004-.129.004-.129.004l-.7.008s-.725-.008-.846-.012c.303-.73.602-1.388.847-1.952m3.885-1.638c.045.601.068 2.123.068 2.677 0 .51 0 2.223-.087 2.96v.06h1.61l-.007-.06c-.085-.742-.09-2.447-.09-2.96 0-.4.012-1.29.052-2.01.122-.008.308-.027.435-.027.745-.014 1.272.14 1.518.453a.78.78 0 0 1 .172.518c0 .664-.621 1-1.198 1.03-.194.008-.338-.018-.338-.018l-.114-.02.062.106a36 36 0 0 1 1.78 2.96l.01.025h1.72l-.043-.077c-.07-.098-1.19-1.747-1.666-2.45l-.042-.042c.881-.264 1.308-.757 1.308-1.514 0-1.324-1.436-1.64-2.65-1.665h-2.507l.005.054zm7.869-.054h-1.533l.009.054c.04.601.071 2.123.071 2.677 0 .51-.007 2.218-.078 2.96l-.006.058h1.59l-.009-.057c-.061-.743-.08-2.452-.08-2.96 0-.555.038-2.076.08-2.678v-.054zm1.5.054c.046.601.074 2.123.074 2.677 0 .51 0 2.223-.08 2.96l-.013.058h2.678c1.31 0 2.703-.409 2.703-1.575 0-.731-.53-1.271-1.528-1.567.734-.196 1.23-.698 1.23-1.271 0-.953-1.097-1.312-2.117-1.336h-2.955l.007.054zm2.064.582c1.123.009 1.532.236 1.532.843 0 .168-.05.317-.154.43-.203.257-.635.39-1.161.357h-.026l-.31.811h.31c.617-.017 1.147.177 1.421.513a.78.78 0 0 1 .198.524c0 .635-.561.962-1.668.962-.179 0-.478 0-.666-.007-.046-.846-.046-1.993-.046-2.338 0-.4.016-1.29.046-2.051.12-.026.33-.042.524-.042m7.236-.638h-1.077l-.007.026c-.322.871-2.35 5.281-2.52 5.647l-.03.079h1.37l.008-.036c.114-.395.273-.835.452-1.32l1.131-.017.943.014.199.002c.248.617.432 1.087.512 1.32l.016.035h1.586l-2.551-5.752h-.035zm-.66 1.691c.129.268.456 1.034.828 1.948-.057 0-.126.005-.126.005l-.703.01s-.734-.017-.843-.017a54 54 0 0 1 .843-1.948m3.695-.203c0 1.011 1.011 1.417 1.908 1.79.698.277 1.427.57 1.427 1.052 0 .145-.03.267-.11.355-.168.197-.507.28-1.046.25-.535-.021-1.136-.19-1.813-.502l-.266-.128v1.254l.182.046.105.017c.334.082.98.235 1.623.235 1.689 0 2.696-.674 2.696-1.788 0-1.045-1.04-1.453-1.96-1.818-.679-.275-1.378-.546-1.378-.995 0-.13 0-.506.874-.506.646 0 1.272.263 1.628.399l.324.135v-.215l-.002-1.043-.322-.057c-.328-.067-.876-.175-1.439-.175-1.456 0-2.429.689-2.429 1.696"/><mask id="mask0_3802_10558" width="17" height="17" x="0" y="0" maskUnits="userSpaceOnUse" style="mask-type:luminance"><path fill="#fff" d="M16.557 0H0v16.557h16.557z"/></mask><g mask="url(#mask0_3802_10558)"><path fill="url(#paint0_linear_3802_10558)" d="M16.557 0H0v16.557h16.557z"/></g><mask id="mask1_3802_10558" width="17" height="17" x="0" y="0" maskUnits="userSpaceOnUse" style="mask-type:luminance"><path fill="#fff" d="M1.292.295c-.322 0-.53.271-.58.65 0 0-.413 2.175-.413 6.788s.413 7.636.413 7.636c.038.366.26.65.58.65h14.33c.32 0 .576-.253.581-.65 0 0-.159-3.536-.159-6.991 0-3.456.16-7.432.16-7.432.008-.353-.261-.65-.581-.65z"/></mask><g mask="url(#mask1_3802_10558)"><path fill="url(#paint1_linear_3802_10558)" d="M16.212.295H.3v15.727h15.913z"/></g><g style="mix-blend-mode:multiply"><mask id="mask2_3802_10558" width="17" height="17" x="0" y="0" maskUnits="userSpaceOnUse" style="mask-type:luminance"><path fill="#fff" d="M16.212.295H.3V16.02h15.913z"/></mask><g mask="url(#mask2_3802_10558)"><mask id="mask3_3802_10558" width="17" height="17" x="0" y="0" maskUnits="userSpaceOnUse" style="mask-type:luminance"><path fill="#fff" d="M1.277.295C.965.305.762.573.713.945c0 0-.412 2.175-.412 6.788s.412 7.636.412 7.636c.039.366.261.65.581.65h14.329c.32 0 .575-.253.58-.65 0 0-.159-3.536-.159-6.991 0-3.456.16-7.432.16-7.432.007-.348-.252-.64-.565-.65z"/></mask><g mask="url(#mask3_3802_10558)"><path fill="url(#paint2_linear_3802_10558)" d="M16.212.295H.3V16.02h15.913z"/></g></g></g><path fill="#009A7B" d="M12.857 4.473c-1.025.6-1.336.647-2.449 1.315l.055-.124c.584-.637.835-.903 1.22-1.466-1.025.056-2.515.179-3.58.413l.056-.114c.966-.47 2.758-.937 3.673-1.058-.224-.314-2.04-1.295-2.49-1.484l.052-.116c1.376.156 3.2.8 3.996 1.286.336-.105.68-.116 1.303-.17 0 0-.093.374-.771.841.167.451-.237 2.948-.57 3.611-.016-1.045-.107-2.364-.495-2.936m-7.482 8.954.053-.12c-.544-.207-1.088-.375-1.529-.788a4.5 4.5 0 0 1 .555-1.07l.054-.117c-.467.07-.89.243-1.296.321-.318-.56-.44-1.325-.602-2.054l-.052.113c-.09.834-.126 1.43-.009 2.094-.337.094-.631.108-.902.223l-.05.112c.43.264.783.469 1.27.698.261.558.53.94.97 1.37l.052-.118c-.079-.315-.18-.579-.142-.928a6.3 6.3 0 0 0 1.626.262M6.885 5.11s-.22.386-.394.9h-.042c1.277.173 2.48.689 2.782.867l-.054.116c-1.322-.235-2.02-.207-2.513-.163-.493.05-.593.109-.593.109-.283.62-.45 1.633-.517 2.007l-.054.115c-.242-.582-.592-1.743-.592-1.743-.666.357-2.203 1.8-2.203 1.8.846-1.69 1.705-2.461 1.705-2.461-.295-.297-1.068-.45-1.633-.472l.054-.116c.353-.103 1.084-.146 1.572-.17.579-.017.929.017.929.017.516-.411 1.283-.77 1.554-.807m1.621 7.265c-.267.36-.495.649-.79.979-.437.12-.958.066-1.362.079l-.053.113c.303.158.6.25.917.317-.257.234-.602.413-.842.575l-.054.114c.518-.124 1.198-.343 1.705-.64.264.01.513-.009.691-.044 0 0 .054-.117.054-.114-.031-.115-.134-.187-.166-.351a12 12 0 0 0 1.217-1.105l.054-.114c-.393.271-.869.642-1.329.859a17 17 0 0 1-.045-.668"/><path fill="#fff" d="M12.909 4.357c-1.021.602-1.336.65-2.445 1.317.647-.701.871-1.002 1.273-1.588-1.024.055-2.513.177-3.576.413.925-.495 2.76-1.044 3.727-1.173-.224-.31-2.041-1.294-2.494-1.483 1.44.113 3.197.649 4.048 1.17.336-.105.684-.11 1.31-.165-.16.273-.166.43-.778.836.17.453-.236 2.95-.57 3.61-.012-1.044-.103-2.363-.495-2.935m-7.481 8.947a4 4 0 0 1-1.476-.906c.14-.383.297-.684.558-1.07-.478.072-.83.126-1.24.204-.336-.587-.486-1.15-.658-1.939-.09.834-.125 1.43-.008 2.093a6 6 0 0 0-.955.34c.435.264.787.47 1.273.696.26.56.532.935.969 1.365a2.6 2.6 0 0 1-.088-1.045c.544.16 1.008.245 1.625.26M6.956 5.01c-.182.238-.395.68-.453.886 1.513.205 2.727.983 2.727.983-1.323-.234-2.02-.204-2.515-.16-.492.045-.591.104-.591.104-.357.782-.572 2.125-.572 2.125-.241-.58-.59-1.744-.59-1.744-.667.357-2.203 1.8-2.203 1.8.845-1.691 1.702-2.459 1.702-2.459-.294-.299-1.069-.448-1.634-.474.293-.119 1.046-.259 1.625-.285.58-.017.929.016.929.016.515-.408 1.3-.752 1.572-.79m1.607 7.25c-.266.36-.497.645-.792.976a4.9 4.9 0 0 1-1.412.196c.305.155.6.25.919.316-.317.29-.586.493-.894.69.518-.123 1.196-.342 1.703-.64.264.01.513-.006.693-.043a4 4 0 0 1-.114-.465 12 12 0 0 0 1.22-1.107 8.3 8.3 0 0 1-1.274.745 10 10 0 0 1-.046-.668"/></g><defs><linearGradient id="paint0_linear_3802_10558" x1="8.006" x2="8.006" y1="-.407" y2="17.071" gradientUnits="userSpaceOnUse"><stop stop-color="#009A7B"/><stop offset=".6" stop-color="#77C1B1"/><stop offset="1" stop-color="#009A7B"/></linearGradient><linearGradient id="paint1_linear_3802_10558" x1="8.14" x2="8.14" y1="-4.108" y2="15.528" gradientUnits="userSpaceOnUse"><stop stop-color="#009A7B"/><stop offset=".3" stop-color="#77C1B1"/><stop offset=".55" stop-color="#009A7B"/><stop offset=".84" stop-color="#009A7B"/><stop offset="1" stop-color="#00A184"/></linearGradient><linearGradient id="paint2_linear_3802_10558" x1="8.138" x2="8.138" y1="-4.108" y2="15.528" gradientUnits="userSpaceOnUse"><stop stop-color="#fff"/><stop offset=".3" stop-color="#fff"/><stop offset=".55" stop-color="#fff"/><stop offset=".84" stop-color="#B1B3B5"/><stop offset=".87" stop-color="#B9BBBD"/><stop offset=".92" stop-color="#D2D3D4"/><stop offset=".99" stop-color="#F9F9F9"/><stop offset="1" stop-color="#fff"/></linearGradient><clipPath id="clip0_3802_10558"><path fill="#fff" d="M0 0h80v16.557H0z"/></clipPath></defs></svg>