<svg fill="none" viewBox="0 0 50 80"><g clip-path="url(#clip0_3802_11069)"><g fill="#00529C" clip-path="url(#clip1_3802_11069)"><path d="M14.531 56.072c-.29 0-.573.02-.854.051h1.708a8 8 0 0 0-.854-.05"/><path d="M11.027 68.359q2.02 0 2.996 1.046a3.54 3.54 0 0 1 .919 2.433q0 1.448-1.048 2.475t-3.446 1.028H5.023v-6.982zm.772-10.2q.541.206.896.54.913.877.913 2.095 0 1.105-.38 1.828-.381.724-.762 1.104H5.023v-5.883H9.65q1.299.001 2.149.316m4.734 7.026q.267-.267.63-.689.363-.42.689-.994.324-.573.555-1.28.229-.708.229-1.511 0-1.568-.535-2.925a6.3 6.3 0 0 0-1.645-2.371q-1.11-1.013-2.772-1.587-1.664-.573-3.881-.574H.052v26.767H10.76q2.331 0 4.072-.63 1.74-.632 2.887-1.74a7 7 0 0 0 1.702-2.582 8.9 8.9 0 0 0 .554-3.154q0-2.257-1.032-4.015-1.033-1.759-2.41-2.715m15.762-7.342q.478 0 .906.057 1.357.204 2.21.971 1.162 1.047 1.162 2.57 0 .762-.248 1.485a3.4 3.4 0 0 1-.78 1.276q-.534.552-1.371.895-.839.343-2.018.343h-5.367v-7.597zm5.832 10.649a8.2 8.2 0 0 0 2.007-1.912q.803-1.09 1.186-2.409a9.7 9.7 0 0 0 .382-2.696q0-1.797-.592-3.307a6.9 6.9 0 0 0-1.779-2.6q-1.185-1.09-2.963-1.702t-4.11-.612H21.722v26.767h5.067v-9.942h2.826l6.988 9.942h5.94l-7.227-10.286q1.607-.42 2.811-1.243m6.206-15.238v.008c-.051-.002-.101-.008-.153-.008h-.043v26.767h5.167V53.254zM9.093.035c-1.754.204-2.971.587-4.24 1.34C2.13 2.983.383 5.702.07 8.816c-.052.523-.064 5.022-.052 16.292.026 14.2.032 15.616.134 16.082.377 1.838 1.04 3.236 2.168 4.595 1.575 1.902 3.909 3.14 6.434 3.414.886.096 30.925.09 31.817-.006a9.96 9.96 0 0 0 4.86-1.934c.637-.485 1.644-1.55 2.116-2.24 1.02-1.493 1.556-3.07 1.683-4.914.077-1.085.077-29.866 0-30.95-.172-2.49-1.115-4.602-2.837-6.319C45.03 1.464 43.5.635 41.484.176l-.637-.141L25.065.022C16.388.016 9.202.022 9.094.035m6.376 5.699c2.002.555 3.667 2.201 4.19 4.135.203.766.184 1.844-.039 2.604a6.5 6.5 0 0 1-.988 2.003c-.434.607-.051.198-5.426 5.942-2.506 2.68-4.56 4.907-4.56 4.952 0 .108 4.292 4.25 7.493 7.23 1.957 1.825 2.697 2.815 3.162 4.25.243.74.287 1.998.096 2.796-.268 1.117-.823 2.067-1.709 2.922-.586.569-1.154.951-1.581 1.079-.185.051-1.212.064-3.698.051l-3.444-.02-.484-.171c-1.365-.485-2.302-1.455-2.78-2.86-.109-.338-.115-.97-.134-15.762-.02-17.25-.051-15.935.446-16.969.376-.785 1.071-1.468 1.9-1.882.944-.466 1.084-.48 4.272-.46 2.647.013 2.8.02 3.284.16m14.474.134c1.25.427 2.538 1.576 3.157 2.814 1.224 2.431.414 5.08-2.474 8.066-1.429 1.48-7.952 8.545-7.952 8.616 0 .038 3.954 4.16 8.78 9.164 7.614 7.881 8.761 9.093 8.64 9.132-.076.019-3.78.038-8.231.044-6.447.007-8.08-.012-8.054-.076 1.033-2.38 1.288-3.427 1.276-5.31-.02-3.222-1.403-6.183-4.139-8.838-.382-.37-1.562-1.487-2.627-2.483-1.064-.995-1.925-1.831-1.912-1.857.012-.025 1.345-1.461 2.965-3.197 3.188-3.42 3.392-3.65 4.048-4.652 1.677-2.56 2.296-5.514 1.735-8.264-.16-.798-.542-1.883-.95-2.693l-.471-.785h1.695c1.552-.004 3.145-.137 4.514.319m10.502-.224c1.46.307 2.684 1.5 3.15 3.063.115.364.121 1.073.134 13.593.013 7.263.013 14.053.006 15.08l-.019 1.87-6.695-6.93c-3.68-3.81-6.695-6.97-6.695-7.014s.988-1.136 2.2-2.425c2.869-3.05 3.182-3.395 3.749-4.148 1.798-2.374 2.755-4.767 2.914-7.313.108-1.666-.332-3.689-1.142-5.265-.14-.281-.267-.53-.28-.562-.045-.09 2.225-.044 2.678.051"/></g></g><defs><clipPath id="clip0_3802_11069"><path fill="#fff" d="M0 0h49.252v80H0z"/></clipPath><clipPath id="clip1_3802_11069"><path fill="#fff" d="M0 0h49.252v80H0z"/></clipPath></defs></svg>