<svg fill="none" viewBox="0 0 80 39"><g fill="#006747" clip-path="url(#clip0_3802_8188)"><path d="M69.118 18.882a.5.5 0 0 1-.183-.21c-.045-.115-.75-6.085-.75-6.343 0-.047-.06-.155-.136-.239-.135-.15-.16-.157-3.284-.79-1.731-.35-3.19-.66-3.243-.688-.206-.11-.268-.495-.11-.684.047-.057 1.377-.691 2.973-1.417 1.588-.723 2.93-1.351 2.98-1.396a.6.6 0 0 0 .135-.193c.028-.075-.08-1.186-.324-3.322-.25-2.178-.353-3.247-.324-3.325.084-.22.376-.335.616-.243.044.017 1.045 1.081 2.224 2.365s2.193 2.37 2.254 2.413a.5.5 0 0 0 .251.077c.078 0 1.393-.572 2.963-1.289 1.553-.71 2.896-1.313 2.984-1.341.335-.108.679.223.567.544-.027.075-.751 1.38-1.61 2.9-.916 1.62-1.561 2.813-1.56 2.887 0 .068.038.182.085.252s1.03 1.154 2.184 2.408 2.126 2.347 2.16 2.428c.088.209-.026.47-.245.56-.15.062-.395.02-3.272-.568-1.71-.349-3.17-.635-3.243-.636a.46.46 0 0 0-.257.11c-.068.061-.826 1.355-1.684 2.875-.857 1.52-1.587 2.793-1.621 2.828-.097.098-.385.119-.53.037M45.047 14.62c3.462 0 4.35.02 5.948 0 .012.366 0 .851 0 1.076.234-.136.697-.563 2.202-1.056 2.1-.689 4.977-.65 6.968.095 4.239 1.584 5.512 5.295 5.512 6.993 0 5.382.081 10.447.09 15.833h-5.97v-14.45c0-2.055-2.09-3.194-4.047-3.194-2.575 0-4.694 1.668-4.694 3.991 0 4.597-.035 9.08-.022 13.678l-5.933.025c.067-7.64-.054-17.815-.054-22.991M32.255 38.105c-1.935-.146-4.076-.801-5.972-1.828-.004-.002-1.302-.736-1.97-1.307 1.102-1.441 2.056-3 3.201-4.408 1.14.726 2.332 1.792 4.638 2.182.59.1 1.733.103 2.192.006.68-.144 1.153-.441 1.393-.873.13-.237.145-.308.145-.707 0-.395-.015-.47-.134-.673-.379-.644-1.198-1.11-3.42-1.945-2.687-1.01-3.969-1.733-5.108-2.882-1.138-1.148-1.685-2.393-1.759-4.001a6.5 6.5 0 0 1 .638-3.182c1.08-2.27 3.318-3.703 6.476-4.153.938-.133 2.622-.156 3.53.022 2.11.412 3.935.947 6.354 2.792-.839 1.197-2.296 3.095-3.17 4.264-1.15-.72-1.676-1.148-2.987-1.587a5.1 5.1 0 0 0-1.802-.291c-1.209 0-1.877.277-2.192.908-.28.56-.184 1.138.261 1.59.457.463 1.17.81 2.844 1.389 2.079.718 3.27 1.253 4.25 1.907 1.596 1.067 2.506 2.385 2.841 4.114.13.675.119 2.01-.024 2.675-.663 3.084-2.98 5.078-6.721 5.783-.968.183-2.562.276-3.504.205M0 6.018v31.697h6.06v-1.66s2.25 2.08 6.525 2.08c6.994 0 11.546-5.94 11.546-11.238 0-7.137-4.216-11.077-8.17-12.137-4.962-1.33-8.773.448-9.982 1.657v-10.4zm12.12 14.193a6.023 6.023 0 1 1-.001 12.046 6.023 6.023 0 0 1 0-12.046"/></g><defs><clipPath id="clip0_3802_8188"><path fill="#fff" d="M0 0h80v38.134H0z"/></clipPath></defs></svg>