<svg fill="none" viewBox="0 0 80 25"><g clip-path="url(#clip0_3802_7836)"><path fill="#AD8F6B" d="M73.764 21.578V10.831h1.332v4.572h.03q.348-.621.954-.939a2.57 2.57 0 0 1 1.362-.378q.424 0 .817.151.409.135.818.47.423.317.666.968.257.65.257 1.544v4.359h-1.332v-4.223q0-.97-.409-1.559-.408-.605-1.286-.605-.62 0-1.105.378-.484.378-.681.954-.09.211-.091.635v4.42zm-1.521-4.495v2.74q0 1.058.106 1.755h-1.196l-.12-.923h-.046q-.318.468-.908.787a2.9 2.9 0 0 1-1.332.302q-1.06 0-1.65-.62a2.08 2.08 0 0 1-.59-1.483q0-1.332 1.135-2.029 1.15-.711 3.27-.696v-.151q0-.288-.061-.53-.045-.258-.212-.545-.152-.288-.515-.454-.348-.167-.878-.167-1.12 0-1.922.545l-.303-.893q1.014-.636 2.422-.635 2.8 0 2.8 2.996m-1.301 2.028v-1.272q-3.104-.06-3.103 1.65 0 .621.348.954.363.318.893.318.68 0 1.15-.348a1.9 1.9 0 0 0 .65-.878q.062-.183.062-.424m-5.456 2.468h-1.332v-7.326h1.332zm-.681-8.567h-.015a.76.76 0 0 1-.575-.242.8.8 0 0 1-.227-.575q0-.365.227-.59a.82.82 0 0 1 .605-.243q.363 0 .59.242a.8.8 0 0 1 .227.59.83.83 0 0 1-.227.59q-.227.228-.605.228m-5.042 8.567v-5.04q0-1.378-.06-2.286h1.165l.06 1.438h.046a2.4 2.4 0 0 1 .802-1.165 1.97 1.97 0 0 1 1.241-.44q.121 0 .363.03v1.257a4 4 0 0 0-.454-.03q-.696 0-1.18.47-.47.468-.606 1.225-.045.303-.045.62v3.92zm-1.521-4.495v2.74q0 1.058.106 1.755h-1.195l-.122-.923h-.045q-.318.468-.908.787a2.9 2.9 0 0 1-1.332.302q-1.06 0-1.65-.62a2.08 2.08 0 0 1-.59-1.483q0-1.332 1.135-2.029 1.15-.711 3.27-.696v-.151q0-.288-.061-.53-.045-.258-.212-.545-.152-.288-.515-.454-.347-.167-.878-.167-1.12 0-1.922.545l-.303-.893q1.015-.636 2.422-.635 2.8 0 2.8 2.996m-1.301 2.028v-1.272q-3.103-.06-3.103 1.65 0 .621.348.954.363.318.893.318.68 0 1.15-.348a1.9 1.9 0 0 0 .651-.878q.06-.183.06-.424m-11.273-4.858h1.453l1.589 4.329q.272.711.484 1.499h.03q.015-.046.182-.621.182-.59.288-.908l1.453-4.299h1.407l-1.998 5.222q-.741 1.937-1.301 2.967-.545 1.029-1.211 1.62-.833.695-1.635.847l-.333-1.105a3.3 3.3 0 0 0 1.166-.65q.68-.53 1.12-1.484.105-.243.106-.318 0-.12-.106-.348zm-4.913 6.963.318-1q.863.516 1.771.515.681 0 1.044-.302a.98.98 0 0 0 .364-.788q0-.469-.303-.756-.303-.303-1.044-.576-1.953-.711-1.953-2.073 0-.908.696-1.529.697-.62 1.832-.62 1.09 0 1.786.454l-.318.953a2.94 2.94 0 0 0-1.498-.424q-.576 0-.893.288a.92.92 0 0 0-.318.711q0 .44.302.697.318.257 1.075.56.969.363 1.438.893.484.515.484 1.301 0 .999-.726 1.605-.727.605-1.998.605-1.18 0-2.059-.514"/><path fill="#015BFD" d="M7.703 7.254a6.7 6.7 0 0 0-4.09 1.392V2.38H0V21.6h3.613v-1.111a6.7 6.7 0 0 0 4.09 1.392c3.848 0 6.968-3.273 6.968-7.314 0-4.04-3.12-7.313-6.968-7.313M7.357 18.31a3.745 3.745 0 1 1 .001-7.489 3.745 3.745 0 0 1-.001 7.49m31.667-5.768v9.056H35.41v-8.666c0-.412-.124-.82-.355-1.162-.407-.6-1.111-.905-1.817-.963-.622-.05-1.323.064-1.87.377a2.53 2.53 0 0 0-1.282 2.182V21.6h-3.613V7.613h3.614v.754c0-.217.987-.635 1.164-.71.46-.195.95-.314 1.446-.369 3.24-.357 6.325 1.833 6.325 5.256zm-14.212-1.417V7.612H20.73v-3.8h-1.195L17.115 5.5v2.471L14.67 9.877v1.249h2.446v5.446c0 .509.055 1.018.181 1.51.785 3.056 3.527 3.798 5.065 3.798 1.702 0 2.45-.549 2.45-.549v-3.435s-.63.5-2.245.5c-.646 0-1.07-.222-1.344-.488a1.66 1.66 0 0 1-.493-1.197v-5.586z"/><path fill="red" d="M38.26.038 26.973 4.339a.77.77 0 0 0-.498.724v.754a.21.21 0 0 0 .248.208l10.566-1.898a2.11 2.11 0 0 0 1.736-2.077V.563a.562.562 0 0 0-.763-.525"/></g><defs><clipPath id="clip0_3802_7836"><path fill="#fff" d="M0 0h80v24.908H0z"/></clipPath></defs></svg>