<svg fill="none" viewBox="0 0 80 46"><g clip-path="url(#clip0_3802_10501)"><path fill="#7C6A55" d="M74.702 10.614c1.092-1.894 2.995-2.834 4.255-2.103 1.261.73 1.398 2.858.306 4.745-1.092 1.895-2.995 2.834-4.256 2.104-1.26-.731-1.397-2.859-.305-4.746"/><path fill="#F58220" d="M7.676 29.467c.16.93.225 4.68 4.135 4.68 2.416 0 4.648-2.778 4.648-8.639s-2.167-8.68-4.472-8.68c-.867 0-1.702.386-2.4 1.069V16.09c.923-.538 1.983-.787 3.251-.787 5.043 0 8.776 3.59 8.776 9.587 0 6.536-4.568 10.518-10.036 10.518-2.417 0-8.832-1.277-8.832-7.419V12.26c0-3.075-.2-3.645-2.537-3.645H0V7.363h7.676c-.024.45 0 22.096 0 22.096m27.026 4.255v1.541c-.723.241-1.502.346-2.425.346-3.878 0-5.66-1.558-6.56-2.714-1.092-1.397-.923-3.172-.915-8.952v-.21l-.008-6.374h-2.602v-1.478h.763c1.51-.08 2.826-.586 3.605-1.806.618-.964.972-1.975 1.293-3.742l.024-.176h2.063v5.644h3.597v1.558H29.94v7.162c0 .048 0 .088-.016.128 0 7.74-.056 9.555 3.164 9.555a3.06 3.06 0 0 0 1.605-.474m9.956.032a3.06 3.06 0 0 0 1.606.474c2.674 0 4.111-2.69 4.111-8.607 0-5.918-1.373-8.495-3.685-8.495-2.144 0-3.621 2.023-4.135 5.709V43.83c.289.722.963.81 2.505.867h.2v1.268H34.887v-1.26h.2c1.976-.065 2.402-.201 2.49-2.104v-23.06c-.096-1.942-.763-2.175-2.69-2.2v-1.525h7.66v1.96c1.51-1.534 3.075-2.2 5.291-2.2 4.938 0 7.7 3.524 7.7 9.554 0 3.203-.827 6.038-2.256 7.804-1.405 1.734-3.71 2.722-6.19 2.722-.924 0-1.703-.104-2.425-.345V33.77zm19.278-15.44-.016-.016v-2.513H56.38v1.172h.209c2.24.04 2.489.29 2.489 3.324v10.077c0 3.18-.21 3.396-2.562 3.428h-.168v1.293h10.309v-1.293h-.209c-2.312-.04-2.52-.217-2.52-3.428v-7.274c0-1.165.385-2.618.955-3.646.883-1.517 2.127-2.296 3.565-2.296 2.047 0 2.986 1.43 2.986 5.355v7.86c0 3.148-.249 3.397-2.52 3.43h-.21v1.292h10.318v-1.293h-.209c-2.344-.04-2.553-.249-2.553-3.428V22.28c0-2.192-.257-3.445-.94-4.577-.995-1.758-2.713-2.577-5.13-2.577-2.754 0-4.73.995-6.27 3.187m10.766-7.708c1.092-1.894 2.995-2.834 4.255-2.103 1.261.73 1.397 2.858.306 4.745-1.092 1.895-2.995 2.834-4.256 2.104-1.26-.731-1.397-2.859-.305-4.746"/><path fill="#7C6A55" d="M37.142 5.412h-.289a.18.18 0 0 1-.176-.177c0-.554-.137-1.092-.595-1.445a1.8 1.8 0 0 0-.698-.337 3.6 3.6 0 0 0-.915-.113c-.506 0-.884.072-1.148.2q-.422.196-.603.426a1.22 1.22 0 0 0-.289.771c0 .337.064.578.177.739.136.168.305.297.53.393.249.105.522.193.81.265q.457.118 1.069.273.432.12.85.241c.306.08.57.2.812.353.248.16.45.354.602.603.168.256.24.578.24.955q.002.6-.272 1.044a2.06 2.06 0 0 1-.675.69 2.7 2.7 0 0 1-.923.37q-.495.12-.988.12c-1.011 0-1.806-.225-2.36-.69-.554-.474-.811-1.22-.811-2.176 0-.097.08-.177.177-.177h.288c.097 0 .177.08.177.177 0 .803.217 1.357.626 1.702.426.345 1.052.538 1.903.538.257 0 .514-.024.78-.08.272-.065.505-.153.722-.282a1.6 1.6 0 0 0 .506-.49c.128-.184.2-.417.2-.706s-.072-.522-.2-.682a1.46 1.46 0 0 0-.514-.442 2.7 2.7 0 0 0-.763-.297l-.931-.233c-.562-.136-1.149-.273-1.686-.514a1.56 1.56 0 0 1-.755-.634c-.169-.281-.241-.634-.241-1.052 0-1.453 1.437-2.031 2.682-2.031 1.678 0 2.85.722 2.85 2.537 0 .096-.08.177-.177.177M41.27 9.61l2.488-6.591c.016-.048.113-.112.16-.112h.306c.144 0 .217.104.16.24l-3.372 8.76c-.289.77-.787 1.116-1.517 1.164h-.9c-.313-.032-.313-.634.033-.642h.803c.497-.008.819-.257.947-.61l.546-1.413-3.051-7.259c-.056-.136.016-.248.16-.248h.306c.048 0 .144.064.16.112l2.762 6.592zm8.446-3.147c-.072.049-.153.08-.241.113q-.314.108-.723.168-.398.06-.867.073-.445.014-.867.04a6 6 0 0 0-.827.112c-.24.04-.466.137-.65.265q-.276.169-.442.506c-.104.2-.168.49-.168.867 0 .193.032.378.088.57.064.177.168.33.329.482.153.136.345.257.602.353.257.088.57.137.964.137 1.14 0 2.224-.57 2.625-1.686.129-.33.193-.659.193-1.004v-.996zm0 2.98a2.9 2.9 0 0 1-.763.746c-.265.184-.57.33-.907.425a3.6 3.6 0 0 1-1.116.169c-.771 0-1.413-.169-1.903-.522-.506-.377-.747-.931-.747-1.638 0-.473.072-.883.233-1.188.169-.305.385-.538.65-.715s.554-.297.884-.353a6 6 0 0 1 .947-.136l1.309-.073a4.5 4.5 0 0 0 .85-.136c.218-.072.354-.16.426-.265.08-.113.137-.29.137-.546 0-.434-.04-.891-.313-1.245a1.34 1.34 0 0 0-.578-.433c-.257-.12-.619-.185-1.092-.185-.747 0-1.31.185-1.694.53-.811.699-.466 1.638-.836 1.638h-.289c-.401 0-.016-1.044.057-1.204a2.6 2.6 0 0 1 .57-.851c.257-.241.57-.426.923-.554.37-.137.795-.201 1.269-.201q.506-.002.963.104c.321.072.602.2.843.394.586.433.803 1.092.82 1.79v5.347c0 .29-.073.29-.33.29-.273 0-.313 0-.313-.306zm3.276-5.404c.353-.603.915-.98 1.541-1.18.193-.065 1.397-.37 1.397.023v.29a.175.175 0 0 1-.184.176c-.482-.032-.9.04-1.237.2q-.506.232-.843.643c-.474.57-.666 1.35-.666 2.072v4.183c0 .096-.08.176-.177.176h-.29a.18.18 0 0 1-.176-.176V3.05c0-.096.08-.177.177-.177h.289c.096 0 .177.08.177.177v.988zm4.44-.908v7.395c0 .096-.08.177-.177.177h-.289a.18.18 0 0 1-.177-.177V3.131c0-.096.08-.176.177-.176h.289c.096 0 .177.08.177.176m0-2.874V1.71c0 .097-.08.177-.177.177h-.289a.18.18 0 0 1-.177-.177V.257c0-.096.08-.177.177-.177h.289c.096 0 .177.08.177.177m9.482 3.766c.185-.29.385-.514.618-.707q.374-.291.843-.45a3.1 3.1 0 0 1 1.052-.168c.401 0 .77.056 1.108.184.345.12.65.306.9.554.264.241.457.538.585.9q.217.53.217 1.204v4.906c0 .096-.08.176-.176.176h-.29a.18.18 0 0 1-.176-.176V5.588c0-.417-.056-.754-.169-1.027a1.65 1.65 0 0 0-.473-.683 1.66 1.66 0 0 0-.683-.393 2.6 2.6 0 0 0-.835-.137q-.626 0-1.084.241a2.2 2.2 0 0 0-.787.626c-.457.57-.634 1.325-.634 2.048v4.183c0 .096-.08.176-.177.176h-.289a.18.18 0 0 1-.176-.176V.176c0-.096.08-.176.176-.176h.29c.096 0 .176.08.176.177v3.846zm-3.22 2.44c-.072.049-.152.08-.24.113q-.314.108-.723.168-.398.06-.867.073-.445.014-.867.04a6 6 0 0 0-.827.112 1.65 1.65 0 0 0-.659.265 1.25 1.25 0 0 0-.441.506c-.105.2-.169.49-.169.867 0 .193.032.378.088.57.065.177.169.33.33.482.152.136.345.257.602.353.257.088.57.137.963.137 1.14 0 2.224-.57 2.626-1.686.128-.33.192-.659.192-1.004v-.996zm0 2.98a2.9 2.9 0 0 1-.762.746c-.265.184-.57.33-.908.425a3.6 3.6 0 0 1-1.116.169c-.77 0-1.413-.169-1.903-.522-.505-.377-.746-.931-.746-1.638 0-.473.072-.883.233-1.188.168-.305.385-.538.65-.715s.554-.297.883-.353a6 6 0 0 1 .947-.136l1.31-.073a4.5 4.5 0 0 0 .85-.136c.217-.072.354-.16.426-.265.08-.113.136-.29.136-.546 0-.434-.04-.891-.313-1.245a1.34 1.34 0 0 0-.578-.433c-.257-.12-.618-.185-1.092-.185-.746 0-1.308.185-1.694.53-.81.699-.466 1.638-.835 1.638h-.289c-.401 0-.016-1.044.048-1.204a2.5 2.5 0 0 1 .578-.851c.257-.241.57-.426.924-.554.369-.137.794-.201 1.268-.201q.506-.002.964.104c.32.072.602.2.843.394.586.433.803 1.092.819 1.79v5.347c0 .29-.073.29-.33.29-.273 0-.313 0-.313-.306z"/></g><defs><clipPath id="clip0_3802_10501"><path fill="#fff" d="M0 0h80v45.966H0z"/></clipPath></defs></svg>