<svg fill="none" viewBox="0 0 80 80"><g clip-path="url(#clip0_3802_9516)"><path fill="#fff" d="M8.755 0S0 0 0 8.755v62.49S0 80 8.755 80h62.49S80 80 80 71.245V8.755S80 0 71.245 0z"/><path fill="url(#paint0_linear_3802_9516)" d="M12.783 13.395v51.787h39.405c.182 0 .357.015.54.015 7.996 0 14.482-6.42 14.482-14.344 0-6.195-3.969-11.477-9.52-13.483 4.493-1.912 7.645-6.333 7.645-11.484 0-6.895-5.64-12.483-12.607-12.483H12.783z"/><path fill="#fff" d="M22.027 56.872c.138.168.211.467.211.883v1.094H20.75v-1.087q0-.636.197-.89a.64.64 0 0 1 .525-.255q.351.002.562.255m-4.079 1.977v-.926c0-.365.059-.628.183-.774q.174-.219.503-.219c.234 0 .409.073.533.22q.184.218.182.787v.912zm2.605-4.946q-.459.459-.657 1.444c-.116-.43-.284-.759-.488-.985q-.47-.504-1.117-.503-.778-.002-1.306.707c-.35.467-.525 1.146-.525 2.021v5.268h7.354v-4.86q-.001-.307-.102-1.261c-.05-.474-.131-.832-.24-1.065a2.2 2.2 0 0 0-.723-.898 1.73 1.73 0 0 0-1.029-.328q-.698 0-1.167.46m-4.1.065v-3.45l2.349-1.08-2.35-1.08v-3.43l4.86 3.036h2.62v2.962h-2.62zm5.428-13.891c.32.211.474.518.474.912s-.16.678-.489.904c-.32.22-.86.336-1.598.336-.736 0-1.284-.11-1.612-.336-.32-.219-.489-.518-.489-.883 0-.364.16-.685.482-.911.32-.227.824-.336 1.517-.336.825 0 1.394.11 1.715.32m-4.443-2.45c-.657.787-.985 1.918-.985 3.377 0 1.46.335 2.54 1.007 3.335q1.004 1.194 2.809 1.196 1.288-.002 2.152-.605a3.5 3.5 0 0 0 1.255-1.576c.262-.65.394-1.467.394-2.459s-.154-1.787-.46-2.444-.737-1.153-1.284-1.496q-.823-.516-2.116-.518c-1.182 0-2.108.394-2.765 1.19m-.992-2.138v-3.619l3.896-2.072H16.46v-2.809h7.354v3.64l-4.21 2.058h4.21v2.802zm4.976-15.154c.262.11.445.27.554.467.102.197.16.533.16 1.007v.554h-4.02v-.561c0-.584.146-1.007.431-1.255.285-.256.824-.38 1.598-.38.59 0 1.014.059 1.277.168m-2.751-3.21a3.1 3.1 0 0 0-1.182.744 3.4 3.4 0 0 0-.78 1.299c-.183.525-.27 1.21-.27 2.065v4.319h7.354v-4.32a8.7 8.7 0 0 0-.197-1.736 3.4 3.4 0 0 0-.584-1.313 3.2 3.2 0 0 0-1.087-.956c-.43-.226-1.043-.343-1.831-.343q-.756.002-1.423.234"/><path fill="#00A39E" d="M62.993 68.188v3.37h.803v-2.524a.85.85 0 0 0-.803-.846m-4.253 2.78a.8.8 0 0 0 .248-.037.4.4 0 0 0 .153-.102.4.4 0 0 0 .073-.138.6.6 0 0 0 .022-.154c0-.058 0-.117-.022-.16a.3.3 0 0 0-.08-.124.4.4 0 0 0-.154-.073.8.8 0 0 0-.24-.03h-.54v.818zm-.54-2.138v.81h.401c.088 0 .16 0 .233-.015a.6.6 0 0 0 .176-.065.26.26 0 0 0 .109-.124.4.4 0 0 0 .037-.197.5.5 0 0 0-.03-.197.3.3 0 0 0-.087-.124.4.4 0 0 0-.153-.066c-.059-.007-.14-.022-.227-.022zm.452-.57q.34 0 .584.067.24.065.394.175a.6.6 0 0 1 .219.277c.043.11.073.233.073.365a1 1 0 0 1-.03.211.5.5 0 0 1-.102.19.6.6 0 0 1-.175.16 1 1 0 0 1-.255.132c.219.05.38.138.489.255q.153.177.153.453c0 .138-.03.27-.08.394a.9.9 0 0 1-.241.313q-.154.133-.394.212a1.7 1.7 0 0 1-.533.073h-1.328v-3.283h1.219zm3.663.665s-.044.066-.073.08a.2.2 0 0 1-.095.03.2.2 0 0 1-.11-.037c-.036-.022-.087-.044-.138-.073a1 1 0 0 0-.175-.073.7.7 0 0 0-.22-.03c-.145 0-.255.03-.32.088-.073.059-.102.146-.102.248q0 .1.065.168c.044.044.095.08.168.11s.146.058.234.087c.087.03.182.059.27.088.094.029.182.073.27.116q.13.067.24.168a.9.9 0 0 1 .168.248.8.8 0 0 1 .066.35c0 .154-.03.292-.08.424a.9.9 0 0 1-.234.343 1.2 1.2 0 0 1-.372.233 1.4 1.4 0 0 1-.504.088c-.102 0-.211-.008-.313-.03a1.7 1.7 0 0 1-.598-.226 1.2 1.2 0 0 1-.234-.175l.226-.357s.044-.052.073-.066a.2.2 0 0 1 .095-.03q.064 0 .139.044c.043.03.102.059.153.095.058.037.124.066.204.095q.118.044.27.044.208 0 .328-.088c.08-.058.117-.16.117-.291a.3.3 0 0 0-.066-.19.4.4 0 0 0-.167-.117 1.4 1.4 0 0 0-.234-.08q-.129-.035-.27-.08a2 2 0 0 1-.27-.11.8.8 0 0 1-.401-.43 1 1 0 0 1-.066-.387c0-.124.03-.24.073-.357q.076-.174.22-.314a1 1 0 0 1 .357-.219c.138-.058.306-.08.489-.08.102 0 .197.007.299.022q.144.02.277.073.131.043.24.109c.074.044.147.087.205.146l-.19.35z"/><path fill="#FAAD3E" d="M63.883 66.977s0-.059-.007-.08a.9.9 0 0 0 .715.27.9.9 0 0 0 .365-.103.85.85 0 0 0-.117.504c.015.226.11.43.263.576a.92.92 0 0 0-.985.452.91.91 0 0 0-.744-.758.9.9 0 0 0 .51-.868z"/><path fill="#000" d="M52.94 70.895a.5.5 0 0 1-.387.153.5.5 0 0 1-.387-.153q-.14-.153-.139-.438c0-.19.051-.336.14-.438a.47.47 0 0 1 .378-.16c.161 0 .3.05.394.16q.144.163.146.445c0 .19-.043.336-.138.438m.503-1.248c-.168-.197-.401-.291-.7-.291a.8.8 0 0 0-.401.102q-.156.096-.3.292v-1.525h-.583V71.5h.59v-.299c.08.132.176.226.293.292a.9.9 0 0 0 .423.095.81.81 0 0 0 .664-.307c.167-.204.255-.474.255-.81 0-.335-.08-.62-.248-.817m1.999-.226-.467 1.153c-.153-.394-.35-.905-.35-.912l-.095-.248h-.7l.839 1.911-.453 1.102h.671l1.24-3.006h-.692z"/></g><defs><linearGradient id="paint0_linear_3802_9516" x1="39.997" x2="39.997" y1="13.396" y2="65.197" gradientUnits="userSpaceOnUse"><stop stop-color="#FAAD3E"/><stop offset="1" stop-color="#05908B"/></linearGradient><clipPath id="clip0_3802_9516"><path fill="#fff" d="M0 0h80v80H0z"/></clipPath></defs></svg>