<svg fill="none" viewBox="0 0 80 20"><g fill-rule="evenodd" clip-path="url(#clip0_3802_8314)" clip-rule="evenodd"><path fill="#6A1F1D" d="M10.556 10.552H0V0h10.556z"/><path fill="#fff" d="m1.426 1.99 2.482 3.287H9.52L7.037 1.991z"/><path fill="#DA242A" d="M3.908 5.277 1.426 8.56h5.611l2.484-3.283z"/><path fill="#6A1F1D" d="M37.172 5.204c.309-.168.807-.638.807-1.406 0-1.199-.819-1.946-2.136-1.946H33.08v6.875h2.88c1.302 0 2.114-.761 2.114-1.991 0-.922-.542-1.351-.902-1.532m-2.704-2.103h1.271c.533 0 .85.28.85.752 0 .476-.317.758-.85.758h-1.27zm1.36 4.383h-1.36V5.867h1.36c.633 0 .856.414.856.803 0 .394-.223.814-.857.814m-8.153-1.238L25.252 1.84h-1.357v6.875h1.389V4.608c.102.18 2.391 4.162 2.391 4.162l2.39-4.162v4.107h1.387V1.84h-1.358s-2.368 4.317-2.419 4.406m-6.87-4.394v6.875h1.39V1.852zm-2.3 5.22a2.24 2.24 0 0 1-1.41.492c-1.252 0-2.23-.997-2.23-2.273 0-1.274.977-2.274 2.23-2.274.518 0 1.007.169 1.41.492l.02.017.966-.968-.02-.018a3.63 3.63 0 0 0-2.375-.889c-2.032 0-3.68 1.634-3.68 3.64s1.648 3.638 3.68 3.638c.87 0 1.712-.314 2.375-.886l.02-.02-.965-.967zM52.01 6.069h2.293l-1.128-3.322h-.019zm.674-4.18h.995l2.392 6.815h-.832l-.65-1.835h-2.862L51.1 8.747h-.925zm13.186 4.18h2.294l-1.13-3.322h-.019zm.671-4.18h.996l2.388 6.815h-.83l-.647-1.835h-2.865l-.624 1.878h-.93zm-3.833.889s-2.583-2.051-4.9.133c0 0-1.04.905-.979 2.806 0 0 .118 3.121 3.563 3.166 0 0 1.47-.09 2.45-.669V4.96h-2.271v.623h1.603v2.14s-2.36 1.115-3.7-.221c0 0-1.067-.58-.843-2.588 0 0 .444-2.436 2.91-2.285 0 0 1.337.163 1.694.743zM49.03 1.84v6.864h-.712V1.84zm-3.255 6.864h.714V1.84h-.714v5.618L41.681 1.84h-.714v6.864h.714V3.068z"/><path fill="#6A1F1D" d="M60.143 11.704h.007c.237-.007.424-.075.57-.205.196-.174.191-.33.155-.43-.054-.154-.203-.232-.46-.232-.258.007-.445.075-.573.208-.172.172-.162.338-.124.443q.076.216.425.216m-1.968 1.127c.03.02.083.052.13.052.113 0 .145-.06.157-.097a.7.7 0 0 1 .12-.195q.094-.129.21-.235l.036-.032-.015-.046c-.016-.044-.051-.08-.108-.119-.037-.017-.085-.042-.152-.063l-.033-.01c-.013 0-.025-.004-.045-.006l-.031-.01h-.01a2 2 0 0 0-.357-.036c-.868 0-1.862.593-2.26.855l.031-.045.023-.038q.072-.101.128-.22c.039-.083.058-.147.039-.2q-.059-.166-.319-.244c-.17-.05-.24-.066-.288-.066h-.001c-.073 0-.127.066-.195.176a2.4 2.4 0 0 1-.22.386c-.116.175-.252.383-.39.607q-.024.025-.058.054c-1.788 1.457-2.857 1.762-3.44 1.762a1.3 1.3 0 0 1-.302-.033c-.232-.09-.195-.433-.186-.496q.046-.21.147-.456c.164-.39.447-.922.84-1.581l.857-.01c.026-.007.154-.048.179-.15.01-.04.009-.103-.065-.176-.066-.061-.379-.097-.682-.11l.002-.005a.7.7 0 0 1 .142-.153l.115-.09-.141-.04-.049-.012-.017-.006-.016.003-.617.123a.6.6 0 0 0-.177.095.6.6 0 0 0-.097.11c-.638.057-1.56.226-2.399.725a5 5 0 0 0-.716.478q-.556.451-.81.943c-.175.333-.222.617-.143.84q.121.32.625.32l.03-.002a1.9 1.9 0 0 0 .708-.16c.245-.098.487-.22.714-.365a5 5 0 0 0 .783-.601 2 2 0 0 0-.082.235q-.09.343-.014.547a.7.7 0 0 0 .334.368q.234.133.68.133h.05a3.6 3.6 0 0 0 1.114-.212 6.3 6.3 0 0 0 1.11-.523 10 10 0 0 0 1.072-.744c-.172.268-.338.541-.5.807q-.133.205-.09.317c.012.05.056.093.248.174.169.073.23.086.268.086q.162 0 .198-.083.23-.319.412-.629c.108-.185.239-.382.395-.6q.222-.308.469-.57.246-.264.63-.503a2.8 2.8 0 0 1 .567-.287q.331-.132.642-.138h.039q.242 0 .372.031c.114.031.196.058.255.086a1 1 0 0 1 .154.084m-7.97.638c-1.467 1.193-1.97 1.373-2.139 1.373-.067 0-.076-.026-.08-.043 0-.112.04-.271.12-.466a3 3 0 0 1 .56-.851q.269-.298.641-.555a2.7 2.7 0 0 1 1.435-.443l.082.001q-.065.104-.133.222l-.135.227c-.121.203-.25.392-.35.535m-14.223 2.1.04.01.15.043c.276.066.546.105.824.126.24.021.488.03.756.03h.105c.679-.013 1.278-.098 1.781-.252a3.3 3.3 0 0 0 1.124-.595 1.2 1.2 0 0 0 .339-.428.64.64 0 0 0 .02-.498.9.9 0 0 0-.128-.238 1.3 1.3 0 0 0-.212-.204l-.023-.018-.104-.072a3 3 0 0 0-.204-.129l-.103-.065-.035-.022c-.985-.616-1.27-.902-1.341-.99-.106-.166-.208-.41-.093-.618.12-.218.522-.478 1.745-.479q.264.04.436.114.351.154.413.313c.011.032.021.074.005.101l-.033.06.058.04q.07.047.142.047a.2.2 0 0 0 .061-.01l.047-.015.004-.047q.013-.12.055-.282.039-.173.073-.274l.007-.023-.007-.027a.42.42 0 0 0-.185-.19 2 2 0 0 0-.586-.184 4 4 0 0 0-.526-.038h-.072a4.1 4.1 0 0 0-1.376.247 2 2 0 0 0-.41.2c-.112.079-.19.139-.245.19q-.246.231-.369.527a.85.85 0 0 0-.011.612c.07.2.203.373.391.522.17.135.416.294.746.486.336.19.59.354.736.475.075.066.127.126.162.167a.42.42 0 0 1 .04.399c-.1.215-.46.5-1.617.619a8 8 0 0 1-.842.045c-1.46 0-1.569-.51-1.569-.55l.007-.024-.008-.024q-.036-.098-.154-.1c-.025.002-.075.007-.101.047l-.01.023v.019q-.021.148-.044.385c-.01.154-.02.295-.024.414v.03l.017.02c.028.035.07.06.148.086m11.213-3.366a.7.7 0 0 0-.207-.284.8.8 0 0 0-.313-.175q-.227.008-.453.277a4.3 4.3 0 0 0-.414.611c-.206.346-.402.689-.598 1.048l-.145.23-.205.331c-.437.44-1.045.674-1.048.674a1.9 1.9 0 0 1-.57.116h-.002c-.137 0-.23-.037-.27-.108-.094-.167.043-.515.191-.766q.034-.055.078-.114c.33-.484.694-1.045 1.079-1.67l.019-.031-.012-.033c-.032-.099-.156-.099-.198-.099-.037 0-.122.009-.289.03a6 6 0 0 0-.375.055c-.053.023-.099.054-.143.082a2 2 0 0 0-.13.115l-.017.015-.005.007a65 65 0 0 0-1.099 1.523c-.315.457-.428.793-.344 1.033q.087.226.367.327.245.088.602.087h.063a3 3 0 0 0 1.037-.191q.27-.104.472-.2c-2.724 3.23-5.1 3.92-6.629 3.92a5 5 0 0 1-1.877-.363c-.442-.181-.687-.362-.688-.362a1 1 0 0 1-.184-.27q-.017-.061-.105-.106a.2.2 0 0 0-.054-.01.13.13 0 0 0-.114.073.5.5 0 0 0-.028.215q.004.143.095.405c.093.264.247.47.465.627a2.4 2.4 0 0 0 .748.352q.423.117.862.16a7 7 0 0 0 .819.032 6.4 6.4 0 0 0 2.86-.753 11.2 11.2 0 0 0 2.438-1.776 20 20 0 0 0 1.501-1.598l1.807-2.031c.134-.147.261-.295.379-.43l.04-.048c.17-.198.319-.388.442-.557.16-.225.175-.31.152-.37m32.783-4.42a1.5 1.5 0 0 0-.164-.407 1.5 1.5 0 0 0-.565-.598 2.4 2.4 0 0 0-.785-.296 4.6 4.6 0 0 0-.859-.096l-.134-.003q-.362.001-.662.038c-.99.116-1.875.452-2.626.999a9.6 9.6 0 0 0-2.016 2.013 17.3 17.3 0 0 0-1.588 2.587l-.023.047q-.047.097-.09.181l-.055.083q-.076.114-.15.232c-.1.153-.198.315-.297.476l-.12.196c-1.55 1.203-2.66 1.81-3.303 1.81-.189 0-.33-.052-.423-.164-.188-.221-.13-.614-.12-.676l.03-.081q.017-.052.041-.113c.152-.368.414-.864.802-1.515l.89-.009c.024-.008.154-.05.18-.152.01-.04.009-.103-.065-.176-.069-.062-.401-.101-.723-.11.012-.017.022-.03.032-.048l.015-.022a.6.6 0 0 1 .138-.15l.126-.091-.15-.041-.05-.013-.016-.004-.018.002-.615.123a.7.7 0 0 0-.18.095.6.6 0 0 0-.133.176 4.8 4.8 0 0 0-1.733.353 5.6 5.6 0 0 0-1.276.732h-.033c-.04 0-.083.02-.15.07-1.407 1.265-2.73 1.715-3.498 1.715-.352 0-.595-.1-.616-.26-.04-.375.466-1.325.949-2.088l.037-.054.033-.053a.23.23 0 0 0 .085-.131.24.24 0 0 0 .004-.137c-.039-.084-.152-.084-.21-.084-.073 0-.2.028-.4.09q-.314.091-.402.225c-.102.116-.23.287-.368.495a14 14 0 0 0-.44.679q-.21.36-.346.69-.148.358-.066.573.061.175.23.287c.1.063.212.112.346.156q.181.055.404.067.168.01.3.01l.06-.002c.292-.007.603-.047.923-.121.329-.074.633-.176.931-.31a9 9 0 0 0 1.197-.682l.13-.09q-.23.464-.118.79c.075.212.288.32.628.32h.029a2 2 0 0 0 .701-.159q.365-.143.718-.368a5.4 5.4 0 0 0 .65-.48l.133-.118q-.052.12-.08.232c-.061.22-.067.405-.015.546q.075.223.335.37.233.131.663.13h.063c.356-.003.72-.073 1.118-.21.38-.136.754-.31 1.109-.523a10 10 0 0 0 1.047-.724q-.268.45-.541.93a.3.3 0 0 0-.02.236q.056.153.333.193.206.025.343.025h.038q.234-.006.382-.308c.11-.211.243-.455.437-.791q.149-.265.296-.52l.186-.327c.451-.514.858-.873 1.213-1.066.432-.235.651-.29.76-.295.013 0 .026 0 .038.028.015.042.02.157-.124.438q-.18.354-.402.777a8 8 0 0 0-.38.835q-.17.436-.07.718.108.304.466.455a1.76 1.76 0 0 0 .819.13 4 4 0 0 0 1.276-.27c.43-.16.856-.372 1.258-.627.393-.247.778-.53 1.148-.84.235-.196.45-.405.694-.67.172-.16.274-.266.274-.266l.049-.048-.048-.053q-.094-.102-.194-.103a.22.22 0 0 0-.178.099h.002c-1.93 1.79-3.03 2.166-3.61 2.166-.701 0-.886-.524-.896-.642.01-.088.027-.17.053-.26q.114-.373.31-.76.202-.395.445-.746.228-.342.37-.526a.7.7 0 0 0 .162-.267l.002-.027.002-.001q.023-.17-.06-.27-.094-.107-.307-.107c-.638 0-2.066.76-2.622 1.069.338-.967 1.586-4.005 4.165-4.857a8 8 0 0 1 .716-.174c.235-.038.478-.056.72-.056.881 0 1.83.244 2.82.723.009.013.015.028.02.036.026.05.07.072.11.09a.1.1 0 0 0 .05.01.114.114 0 0 0 .113-.094.5.5 0 0 0-.014-.216m-14.604 5.773a.4.4 0 0 1-.041.047l-.022.024c-1.163.981-1.667 1.188-1.887 1.188-.063 0-.148-.016-.151-.14q.016-.165.117-.403.171-.422.563-.857.1-.114.22-.224c.007-.006.798-.708 1.847-.708l.048.001-.003.001c-.07.121-.147.249-.222.385a8 8 0 0 1-.47.686"/></g><defs><clipPath id="clip0_3802_8314"><path fill="#fff" d="M0 0h80v19.769H0z"/></clipPath></defs></svg>