<svg fill="none" viewBox="0 0 80 11"><g fill="#183964" fill-rule="evenodd" clip-path="url(#clip0_3802_8456)" clip-rule="evenodd"><path d="M27.58 3.182V4.34l.153-.012v-.012c.03-.171.336-.496.72-.496h1.146v5.981h1.133V3.838h1.175c.396 0 .65.212.69.407v.03h.172l-.012-1.063h-.011v-.03zm-20.595 0h-.03v.154l.012.012c.1.059.2.295.2.596v5.851h1.105v-3.01h.496c.437.029.608.312.82.678l.03.041.142.225c.242.395.567.933.891 1.44.242.355.538.567.922.62.265.042.803.03 1.015-.03l.242-.058.1-.03-.336-.1c-.142-.041-.354-.142-.638-.467-.183-.2-.466-.667-.903-1.34l-.425-.679-.012-.012a1.76 1.76 0 0 0-.638-.608c.62-.2 1.228-.761 1.228-1.612 0-.242-.059-.69-.466-1.086s-1.063-.596-1.937-.596H6.997zm1.895.597c1.134.041 1.157 1.003 1.157 1.104 0 .962-.708 1.299-1.328 1.299 0 0-.396-.012-.437-.012V3.779c.13 0 .337-.012.608 0m9.412-.597h-.03l.012.172h.012c.1.041.183.283.183.478v5.951h1.895c1.246 0 2.291-.383 3-1.115a3.28 3.28 0 0 0 .92-2.291c0-.508-.17-1.287-.667-1.925-.65-.85-1.682-1.287-3.082-1.287l-2.25.012zm1.316.638h.597c.153 0 .549.012.832.06 1.866.283 2.067 1.853 2.067 2.503 0 .537-.1 1.316-.567 1.907-.455.578-1.157.874-2.12.874-.224 0-.508 0-.82-.012.011-.042.011-5.273.011-5.332m6.967-.638h-1.299v.154l.012.012c.112.059.201.265.201.549v5.892h1.104v-6.6l-.012-.013zm-9.712 0h-3.72l.012.154h.012c.1.059.212.283.212.596v5.851h3.702l.272-1.174-.154-.06-.041.071c-.313.479-.62.538-1.695.538-.383.011-.761-.03-.991-.042V6.418h1.877v-.596h-1.877v-2.05L16 3.786c.336 0 .72.324.75.525v.03h.153zm31.004 0h-1.3l.012.154h.012c.112.059.2.283.2.567v5.892h1.105v-6.6zm15.433 0h-3.702l.012.172h.012c.1.059.212.271.212.578v5.851h3.703l.265-1.175-.171-.059-.041.071c-.313.479-.62.538-1.683.538-.384.011-.762-.03-.992-.042V6.418h1.878v-.596h-1.878v-2.05l1.53.013c.424 0 .737.313.737.525v.03l.171-.012-.029-1.157-.03.011zM49.661 4.853c-.011.921.538 1.37 1.441 1.825l.337.171c.708.354 1.175.579 1.175 1.246 0 .112-.03.508-.325.82-.213.213-.508.313-.874.313-1.063-.011-1.44-.832-1.582-1.316l-.03-.083-.224.041.059 1.388.059.03c.354.2.944.537 1.783.549.608 0 1.216-.242 1.624-.65.366-.366.566-.82.566-1.328 0-1.158-.803-1.57-1.653-2.02l-.153-.082c-.921-.455-1.228-.667-1.228-1.175 0-.355.265-.892 1.003-.874.892.012 1.27.65 1.358.992l.03.1.224-.03-.082-1.216-.042-.03c-.508-.336-1.145-.383-1.4-.383-.991-.012-2.036.596-2.048 1.724zm-14.531 0c-.011.921.538 1.37 1.441 1.825l.337.171c.709.354 1.175.579 1.175 1.246 0 .112-.03.508-.325.82-.212.213-.508.313-.874.313-1.062-.011-1.44-.832-1.582-1.316l-.03-.083-.224.041.06 1.388.058.03c.355.2.945.537 1.783.549.608 0 1.217-.242 1.624-.65.366-.366.567-.82.567-1.328 0-1.158-.803-1.57-1.653-2.02l-.154-.082c-.92-.455-1.228-.667-1.228-1.175 0-.355.266-.892 1.004-.874.891.012 1.27.65 1.358.992l.03.1.224-.03-.071-1.204-.041-.03c-.508-.336-1.146-.383-1.4-.383-.992-.03-2.049.579-2.066 1.712zm19.491 0c-.012.921.537 1.37 1.44 1.825l.337.171c.709.354 1.175.579 1.175 1.246 0 .112-.03.508-.325.82-.212.213-.507.313-.873.313-1.063-.011-1.441-.832-1.583-1.316l-.03-.083-.224.041.06 1.388.059.03c.354.2.944.537 1.783.549.608 0 1.216-.242 1.623-.65.366-.366.567-.82.567-1.328 0-1.158-.803-1.57-1.653-2.02l-.154-.082c-.92-.455-1.228-.667-1.228-1.175 0-.225.1-.455.266-.62.183-.171.437-.266.738-.266.892.012 1.27.65 1.358.992l.03.083.224-.03-.071-1.204-.041-.03c-.508-.336-1.146-.384-1.4-.384-.991 0-2.048.609-2.066 1.736zM45.11 3.188h-.875l.012.154h.012c.041.03.183.13.183.537v3.743c0 .72-.272 1.6-1.541 1.6-1.205 0-1.458-.72-1.458-1.794V3.17h-1.388l.012.141h.012c.082.042.242.225.242.579v3.52c0 2.19 1.44 2.433 2.533 2.433.537 0 2.261-.154 2.261-2.22v-4.47l-.012.03zM.921 4.133A3.53 3.53 0 0 0 0 6.495c0 .974.384 1.854 1.075 2.485.667.609 1.54.933 2.485.933.496 0 1.47-.082 2.403-.667l.042-.03.112-1.37-.183-.011-.03.06c-.69 1.481-1.765 1.269-2.178 1.269-1.825 0-2.445-1.34-2.445-2.8 0-1.398.62-2.603 2.462-2.603.567 0 1.583-.012 2.12 1.258l.03.07.17-.059-.111-1.428-.042-.012c-.862-.384-1.553-.55-2.25-.55-1.115-.011-2.066.367-2.739 1.087zm75.782 3.519c-1.228-.2-2.556-.313-3.536-.142-.06.012-.1-.03-.1-.082 0-.337 0-1.441-.266-2.81 0-.03-.012-.042-.042-.06-3.212-2.25-6.105-3.743-7.292-4.31-.082-.041-.17.07-.1.142 3.466 3.182 4.676 8.596 4.836 9.317.011.041.059.07.1.07 3.885-.75 7.788.184 8.88.479.083.03.142-.083.083-.142a36 36 0 0 0-2.516-2.432c0-.012-.011-.03-.04-.03z"/><path d="M79.968 8.201C76.845 4.015 72.405.933 71.006.018c-.083-.06-.172.041-.113.13 1.075 1.41 1.624 3.04 1.896 4.398 0 .03.011.042.03.06a51 51 0 0 1 3.902 3.04c.012.012.03.012.041.012a32 32 0 0 1 3.112.679c.083.03.142-.06.1-.13zM27.58 3.182V4.34l.153-.012v-.012c.03-.171.336-.496.72-.496h1.146v5.981h1.133V3.838h1.175c.396 0 .65.212.69.407v.03h.172l-.012-1.063h-.011v-.03zm-20.595 0h-.03v.154l.012.012c.1.059.2.295.2.596v5.851h1.105v-3.01h.496c.437.029.608.312.82.678l.03.041.142.225c.242.395.567.933.891 1.44.242.355.538.567.922.62.265.042.803.03 1.015-.03l.242-.058.1-.03-.336-.1c-.142-.041-.354-.142-.638-.467-.183-.2-.466-.667-.903-1.34l-.425-.679-.012-.012a1.76 1.76 0 0 0-.638-.608c.62-.2 1.228-.761 1.228-1.612 0-.242-.059-.69-.466-1.086s-1.063-.596-1.937-.596H6.997zm1.895.597c1.134.041 1.157 1.003 1.157 1.104 0 .962-.708 1.299-1.328 1.299 0 0-.396-.012-.437-.012V3.779c.13 0 .337-.012.608 0m9.412-.597h-.03l.012.172h.012c.1.041.183.283.183.478v5.951h1.895c1.246 0 2.291-.383 3-1.115a3.28 3.28 0 0 0 .92-2.291c0-.508-.17-1.287-.667-1.925-.65-.85-1.682-1.287-3.082-1.287l-2.25.012zm1.316.638h.597c.153 0 .549.012.832.06 1.866.283 2.067 1.853 2.067 2.503 0 .537-.1 1.316-.567 1.907-.455.578-1.157.874-2.12.874-.224 0-.508 0-.82-.012.011-.042.011-5.273.011-5.332m6.967-.638h-1.299v.154l.012.012c.112.059.201.265.201.549v5.892h1.104v-6.6l-.012-.013zm-9.712 0h-3.72l.012.154h.012c.1.059.212.283.212.596v5.851h3.702l.272-1.174-.154-.06-.041.071c-.313.479-.62.538-1.695.538-.383.011-.761-.03-.991-.042V6.418h1.877v-.596h-1.877v-2.05L16 3.786c.336 0 .72.324.75.525v.03h.153zm31.004 0h-1.3l.012.154h.012c.112.059.2.283.2.567v5.892h1.105v-6.6zm15.433 0h-3.702l.012.172h.012c.1.059.212.271.212.578v5.851h3.703l.265-1.175-.171-.059-.041.071c-.313.479-.62.538-1.683.538-.384.011-.762-.03-.992-.042V6.418h1.878v-.596h-1.878v-2.05l1.53.013c.424 0 .737.313.737.525v.03l.171-.012-.029-1.157-.03.011zM49.661 4.853c-.011.921.538 1.37 1.441 1.825l.337.171c.708.354 1.175.579 1.175 1.246 0 .112-.03.508-.325.82-.213.213-.508.313-.874.313-1.063-.011-1.44-.832-1.582-1.316l-.03-.083-.224.041.059 1.388.059.03c.354.2.944.537 1.783.549.608 0 1.216-.242 1.624-.65.366-.366.566-.82.566-1.328 0-1.158-.803-1.57-1.653-2.02l-.153-.082c-.921-.455-1.228-.667-1.228-1.175 0-.355.265-.892 1.003-.874.892.012 1.27.65 1.358.992l.03.1.224-.03-.082-1.216-.042-.03c-.508-.336-1.145-.383-1.4-.383-.991-.012-2.036.596-2.048 1.724zm-14.531 0c-.011.921.538 1.37 1.441 1.825l.337.171c.709.354 1.175.579 1.175 1.246 0 .112-.03.508-.325.82-.212.213-.508.313-.874.313-1.062-.011-1.44-.832-1.582-1.316l-.03-.083-.224.041.06 1.388.058.03c.355.2.945.537 1.783.549.608 0 1.217-.242 1.624-.65.366-.366.567-.82.567-1.328 0-1.158-.803-1.57-1.653-2.02l-.154-.082c-.92-.455-1.228-.667-1.228-1.175 0-.355.266-.892 1.004-.874.891.012 1.27.65 1.358.992l.03.1.224-.03-.071-1.204-.041-.03c-.508-.336-1.146-.383-1.4-.383-.992-.03-2.049.579-2.066 1.712zm19.491 0c-.012.921.537 1.37 1.44 1.825l.337.171c.709.354 1.175.579 1.175 1.246 0 .112-.03.508-.325.82-.212.213-.507.313-.873.313-1.063-.011-1.441-.832-1.583-1.316l-.03-.083-.224.041.06 1.388.059.03c.354.2.944.537 1.783.549.608 0 1.216-.242 1.623-.65.366-.366.567-.82.567-1.328 0-1.158-.803-1.57-1.653-2.02l-.154-.082c-.92-.455-1.228-.667-1.228-1.175 0-.225.1-.455.266-.62.183-.171.437-.266.738-.266.892.012 1.27.65 1.358.992l.03.083.224-.03-.071-1.204-.041-.03c-.508-.336-1.146-.384-1.4-.384-.991 0-2.048.609-2.066 1.736zM45.11 3.188h-.875l.012.154h.012c.041.03.183.13.183.537v3.743c0 .72-.272 1.6-1.541 1.6-1.205 0-1.458-.72-1.458-1.794V3.17h-1.388l.012.141h.012c.082.042.242.225.242.579v3.52c0 2.19 1.44 2.433 2.533 2.433.537 0 2.261-.154 2.261-2.22v-4.47l-.012.03zM.921 4.133A3.53 3.53 0 0 0 0 6.495c0 .974.384 1.854 1.075 2.485.667.609 1.54.933 2.485.933.496 0 1.47-.082 2.403-.667l.042-.03.112-1.37-.183-.011-.03.06c-.69 1.481-1.765 1.269-2.178 1.269-1.825 0-2.445-1.34-2.445-2.8 0-1.398.62-2.603 2.462-2.603.567 0 1.583-.012 2.12 1.258l.03.07.17-.059-.111-1.428-.042-.012c-.862-.384-1.553-.55-2.25-.55-1.115-.011-2.066.367-2.739 1.087z"/><path d="M76.703 7.652c-1.228-.2-2.556-.313-3.536-.142-.06.012-.1-.03-.1-.082 0-.337 0-1.441-.266-2.81 0-.03-.012-.042-.042-.06-3.212-2.25-6.105-3.743-7.292-4.31-.082-.041-.17.07-.1.142 3.466 3.182 4.676 8.596 4.836 9.317.011.041.059.07.1.07 3.885-.75 7.788.184 8.88.479.083.03.142-.083.083-.142a36 36 0 0 0-2.516-2.432c0-.012-.011-.03-.04-.03z"/><path d="M79.968 8.201C76.845 4.015 72.405.933 71.006.018c-.083-.06-.172.041-.113.13 1.075 1.41 1.624 3.04 1.896 4.398 0 .03.011.042.03.06a51 51 0 0 1 3.902 3.04c.012.012.03.012.041.012a32 32 0 0 1 3.112.679c.083.03.142-.06.1-.13z"/></g><defs><clipPath id="clip0_3802_8456"><path fill="#fff" d="M0 0h79.988v10.261H0z"/></clipPath></defs></svg>