<svg fill="none" viewBox="0 0 80 29"><g clip-path="url(#clip0_3802_8340)"><path fill="#046148" d="M1.875 12.813h.865c.493 0 .892.04 1.332.547.31.351.653 1.127.653 2.381 0 .45.003.896-.082 1.354-.137.723-.47 1.882-2.378 1.882-.51 0-.39-.014-.39-.014zm.98 7.233c2.568 0 3.718-1.146 3.718-4.275 0-.827-.243-2.213-1.014-3.059-.797-.868-1.827-.976-2.697-.976H0v8.31zm8.104-2.153c0 .275-.008.645-.3.91-.245.215-.59.231-.721.231-.326 0-.62-.118-.743-.52a1.6 1.6 0 0 1-.043-.378c0-.607.403-.863.85-.972.235-.054.393-.064.957-.111zm0-1.59-.936.093c-1.008.115-1.394.207-1.825.494-.696.473-.705 1.165-.705 1.393 0 .568.172.995.407 1.24.31.361.8.493 1.273.493 1.16 0 1.714-.527 1.714-.527l.008.375h1.565v-3.931c0-.443.01-1.065-.497-1.505a1.5 1.5 0 0 0-.857-.384c-.357-.064-.481-.09-.83-.09-1.055 0-1.852.186-2.305.994-.195.35-.185.7-.185.97h1.435c.013-.235.024-.56.206-.784.093-.128.31-.31.711-.31.131 0 .511 0 .705.316.108.187.117.43.117.706zm12.459 1.59c0 .275-.008.645-.303.91-.238.215-.584.231-.724.231-.323 0-.612-.118-.737-.52a1.6 1.6 0 0 1-.04-.378c0-.607.4-.863.85-.972.234-.054.39-.064.954-.111zm0-1.59-.932.093c-1.014.115-1.394.207-1.828.494-.693.473-.704 1.165-.704 1.393 0 .568.168.995.4 1.24.314.361.807.493 1.278.493 1.164 0 1.716-.527 1.716-.527l.008.375h1.56v-3.931c0-.443.013-1.065-.492-1.505a1.53 1.53 0 0 0-.857-.384c-.359-.064-.481-.09-.832-.09-1.055 0-1.85.186-2.306.994-.192.35-.18.7-.18.97h1.431c.013-.235.024-.56.207-.784.092-.128.309-.31.71-.31.131 0 .511 0 .71.316.103.187.112.43.112.706zm23.576 3.561H45.36v-3.518c0-.226 0-.413-.018-.605-.016-.184-.07-.781-.781-.781-.189 0-.349.046-.45.09-.482.22-.495.611-.506.922v3.892h-1.637v-5.758h1.637v.655c.41-.368.782-.77 1.7-.77.772 0 1.153.298 1.311.483.363.408.363.938.378 1.35zm-28.241 0h-1.632v-3.518c0-.226 0-.413-.027-.605-.01-.184-.066-.781-.782-.781-.182 0-.342.046-.445.09-.482.22-.496.611-.51.922v3.892h-1.635v-5.758h1.636v.655c.418-.368.786-.77 1.703-.77.775 0 1.15.298 1.313.483.366.408.366.938.38 1.35zm7.362-5.761h1.635v.67c.314-.28.868-.787 1.85-.787 1.122 0 1.434.67 1.51.891.67-.647 1.11-.892 1.75-.892.314 0 .529.052.737.127.88.338.9 1.121.916 1.629v4.12h-1.664v-3.753c-.008-.408-.02-.638-.127-.82-.02-.046-.183-.333-.597-.333-.14 0-.406.034-.531.103-.458.218-.475.598-.483.907v3.895h-1.62v-3.728c0-.443.005-1.177-.734-1.177-.166 0-.457.047-.6.127-.407.25-.418.618-.407 1.13v3.648h-1.635zM39.34 16.86c0 .328-.013.641-.047.958-.035.318-.09.957-.58 1.225-.14.068-.29.103-.441.103-.927 0-1.011-.973-1.03-1.328a10 10 0 0 1-.038-.782c0-.23.016-.55.05-.928.033-.305.1-.888.572-1.164.161-.082.316-.115.497-.115.88 0 .96.923.98 1.28.024.251.037.505.037.752m1.667.03c0-.511 0-1.467-.569-2.117-.685-.818-1.667-.818-2.014-.818-.404 0-1.33.016-2.058.676-.824.734-.824 1.906-.824 2.499 0 1.125.254 2.315 1.678 2.73.414.127.634.15 1.052.15.39 0 1.366 0 2.09-.807.645-.713.645-1.782.645-2.313"/><path fill="#EF9826" d="M12.646 5.87H27.77L14.356 1.756l-1.71.919L6.84 4.173z"/><path fill="#EB712D" d="M0 0v5.87h12.648V2.675z"/><path fill="#FEC02B" d="M27.778 5.87 12.646 0l.002 2.675z"/><path fill="#EF9826" d="M79.92 16.905V5.867H59.548l-4.235 3.052 4.235 3.679z"/><path fill="#FEC02B" d="M59.548 12.598 54.01 7.823 27.78 5.874l31.768 11.038z"/><path fill="#EB712D" d="M27.773 5.866v.006l31.775 6.724V5.868H27.773z"/><path fill="#046148" d="M28.065 26.304q.02.349.165.567.276.407.973.407.313 0 .57-.09.495-.172.496-.619 0-.334-.21-.477-.21-.14-.663-.243l-.555-.125q-.545-.123-.77-.27-.39-.258-.391-.768 0-.553.382-.907.383-.354 1.083-.354.645 0 1.093.312.453.31.453.994h-.522q-.042-.33-.179-.506-.254-.32-.862-.32-.491 0-.706.206a.65.65 0 0 0-.215.48q0 .301.251.44.165.09.745.224l.575.131q.416.095.642.26.39.287.39.834 0 .68-.496.974a2.2 2.2 0 0 1-1.15.293q-.764 0-1.197-.391-.432-.389-.424-1.052zm5.248-1.666h.555q-.105.288-.471 1.312-.273.77-.458 1.255-.434 1.145-.614 1.395-.178.252-.613.252-.107 0-.165-.009a1 1 0 0 1-.14-.03v-.458q.132.036.19.044a1 1 0 0 0 .104.009q.139 0 .203-.048a.4.4 0 0 0 .112-.111 14 14 0 0 0 .226-.536l-1.105-3.075h.57l.8 2.433zm1.376 2.194q0 .217.159.343a.6.6 0 0 0 .377.125q.264 0 .513-.123a.69.69 0 0 0 .418-.666v-.405a1 1 0 0 1-.237.098 2 2 0 0 1-.284.055l-.304.04a1.2 1.2 0 0 0-.41.114q-.232.131-.232.418m1.216-1.016q.174-.022.232-.145a.44.44 0 0 0 .033-.193q0-.256-.184-.37-.181-.118-.521-.118-.394 0-.559.212a.7.7 0 0 0-.12.349h-.468q.014-.552.357-.767.345-.219.8-.218.528 0 .857.2.327.202.327.626v1.721q0 .078.03.126.034.047.137.047.033 0 .075-.003.042-.005.09-.014v.372a1.4 1.4 0 0 1-.179.042q-.061.008-.167.008-.26 0-.377-.184a.7.7 0 0 1-.087-.277q-.153.2-.44.35a1.36 1.36 0 0 1-.634.147.95.95 0 0 1-.68-.251.85.85 0 0 1-.263-.633q0-.416.26-.645.26-.228.68-.282zm1.594-1.177h.477v.517q.059-.15.287-.366a.74.74 0 0 1 .575-.215l.114.011v.53a1 1 0 0 0-.164-.013q-.38 0-.584.245a.85.85 0 0 0-.203.56v1.72h-.502zm1.888.014h.511v2.975h-.51zm0-1.124h.511v.57h-.51zm1.658 3.304q0 .217.159.343a.6.6 0 0 0 .377.125q.264 0 .513-.123a.69.69 0 0 0 .418-.666v-.405a1 1 0 0 1-.237.098 2 2 0 0 1-.284.055l-.304.04q-.275.036-.41.114-.232.131-.232.418m1.216-1.016q.174-.022.232-.145a.44.44 0 0 0 .033-.193q0-.256-.184-.37-.181-.118-.521-.118-.394 0-.559.212a.7.7 0 0 0-.12.349h-.468q.014-.552.357-.767.345-.219.8-.218.528 0 .857.2.327.202.327.626v1.721q0 .078.03.126.034.047.137.047.033 0 .075-.003.042-.005.09-.014v.372a1.4 1.4 0 0 1-.179.042q-.061.008-.167.008-.26 0-.377-.184a.7.7 0 0 1-.086-.277q-.154.2-.441.35a1.36 1.36 0 0 1-.634.147.95.95 0 0 1-.68-.251.85.85 0 0 1-.263-.633q0-.416.26-.645.26-.228.68-.282zm1.579-2.301h.503v1.529q.179-.226.32-.318.244-.16.606-.16.65 0 .882.456.125.248.125.689v1.917h-.516v-1.884q0-.33-.084-.482-.136-.246-.513-.246a.86.86 0 0 0-.566.215q-.255.215-.254.812v1.585h-.502z"/></g><defs><clipPath id="clip0_3802_8340"><path fill="#fff" d="M0 0h79.92v28.852H0z"/></clipPath></defs></svg>