<svg fill="none" viewBox="0 0 80 33"><g clip-path="url(#clip0_3802_8343)"><path fill="#F05A22" d="M0 0v5.737h13.038V2.664z"/><path fill="#FDBC38" d="M27.873 5.737 13.037 0l.001 2.675z"/><path fill="#F79433" d="M13.038 5.737h14.83l-14.83-3.074z"/><path fill="#FDBC38" d="M61.937 12.951 27.9 5.74l34.037 11.33z"/><path fill="#004E39" d="M26.223 14.05h1.642v.674c.317-.279.87-.789 1.858-.789 1.125 0 1.441.675 1.517.892.67-.645 1.114-.892 1.758-.892.312 0 .529.048.74.127.881.34.904 1.126.917 1.633v4.14h-1.667v-3.77c-.012-.407-.023-.637-.13-.822-.022-.047-.183-.335-.598-.335-.14 0-.409.034-.537.104-.455.222-.473.596-.483.91v3.914h-1.627v-3.747c0-.443.007-1.18-.738-1.18-.165 0-.456.048-.602.127-.408.255-.418.622-.408 1.135v3.665h-1.642zm-7.395 1.733c-.012-.42-.012-.951-.38-1.36-.16-.18-.539-.48-1.317-.48-.922 0-1.292.401-1.71.772v-.659h-1.64v5.784h1.64v-3.91c.013-.313.027-.705.512-.928.1-.041.262-.09.445-.09.72 0 .778.6.789.788.025.188.025.377.025.606v3.533h1.636zm28.364 0c-.018-.42-.018-.951-.38-1.36-.158-.18-.545-.48-1.316-.48-.92 0-1.293.401-1.71.772v-.659h-1.643v5.784h1.643v-3.91c.016-.313.027-.705.508-.928.105-.041.262-.09.452-.09.715 0 .77.6.785.788.02.188.02.377.02.606v3.533h1.64zm-6.583-1.06c.57.658.57 1.618.57 2.127 0 .535 0 1.61-.646 2.325-.727.81-1.707.81-2.1.81-.419 0-.643-.023-1.057-.15-1.431-.416-1.689-1.614-1.689-2.744 0-.594 0-1.769.831-2.51.73-.659 1.661-.677 2.065-.677.348 0 1.334 0 2.026.82m-1.15 3.062a9 9 0 0 0 .013-1.72c-.024-.357-.105-1.284-.99-1.284-.18 0-.335.037-.499.117-.472.278-.541.864-.57 1.167-.037.38-.054.701-.054.933 0 .258.017.522.038.787.018.354.103 1.332 1.036 1.332.15 0 .302-.037.443-.102.491-.272.545-.912.582-1.23M24.523 14.38c.504.442.495 1.063.495 1.513v3.947h-1.565l-.01-.376s-.554.527-1.722.527c-.473 0-.968-.132-1.284-.493-.232-.25-.405-.677-.405-1.246 0-.23.015-.924.706-1.402.44-.287.819-.378 1.837-.498l.938-.09v-.46c0-.276-.008-.52-.113-.707-.197-.318-.578-.318-.71-.318-.408 0-.624.185-.713.309-.188.229-.2.55-.21.786H20.33c0-.27-.014-.622.184-.97.456-.816 1.254-.998 2.316-.998.35 0 .474.026.831.09.359.053.596.154.863.386m-1.01 2.633c-.566.048-.72.059-.96.116-.453.106-.852.365-.852.974 0 .123.01.25.043.383.123.4.415.52.738.52.142 0 .489-.018.727-.235.296-.262.304-.637.304-.91zM12.168 14.38c.51.442.498 1.063.498 1.513v3.947h-1.568l-.013-.376s-.55.527-1.719.527c-.474 0-.967-.132-1.278-.493-.236-.25-.408-.677-.408-1.246 0-.23.007-.924.707-1.402.435-.287.82-.378 1.834-.498l.939-.09v-.46c0-.276-.012-.52-.118-.707-.191-.318-.576-.318-.708-.318-.404 0-.62.185-.712.309-.185.229-.194.55-.21.786H7.975c0-.27-.012-.622.183-.97.455-.816 1.254-.998 2.315-.998.349 0 .476.026.837.09.357.053.593.154.858.386m-1.008 2.633c-.568.048-.724.059-.96.116-.448.106-.855.365-.855.974 0 .123.01.25.045.383.126.4.417.52.744.52.132 0 .478-.018.724-.235.29-.262.302-.637.302-.91zm-5.583-4.36c.778.852 1.02 2.245 1.02 3.075 0 3.143-1.154 4.291-3.73 4.291H0v-8.344h2.868c.878 0 1.91.112 2.709.978m-.916 4.404c.083-.461.08-.907.08-1.362 0-1.256-.344-2.037-.653-2.389-.441-.51-.843-.548-1.342-.548h-.867v6.175s-.12.012.393.012c1.916 0 2.25-1.16 2.389-1.888"/><path fill="#F05A22" d="m27.88 5.74 34.042.02v7.191z"/><path fill="#F79433" d="M61.922 5.76v7.191L80 17.071 79.992 5.76z"/><path fill="#393C3E" d="M30.905 31.627v-1.714l-.73 1.11h-.015l-.736-1.1v1.704h-.548v-2.632h.613l.686 1.103.687-1.103h.592v2.632zm2.105.03c-.702 0-1.118-.391-1.118-1.158v-1.504h.55v1.488c0 .426.226.644.575.644.35 0 .576-.21.576-.625v-1.507h.548v1.484c0 .79-.43 1.177-1.131 1.177m2.12-2.114v.549h1.15v.548h-1.15v.987h-.55v-2.632h2.03v.548zm2.953 2.117c-.813 0-1.363-.571-1.363-1.341v-.008c0-.74.569-1.349 1.36-1.349.47 0 .749.127 1.02.36l-.364.434c-.2-.166-.37-.265-.672-.265-.419 0-.741.37-.741.813v.007c0 .479.32.828.783.828.21 0 .368-.053.534-.157v-.342h-.604v-.549h1.152v1.156a1.68 1.68 0 0 1-1.105.413"/><path fill="#DE2D36" d="M25.938 28.338c-.287 0-.56.06-.806.172a1.974 1.974 0 1 0 0 3.603 1.975 1.975 0 1 0 .806-3.775m-.806 3.758a1.784 1.784 0 1 1 0-3.568 1.784 1.784 0 1 1 0 3.567m.822-1.784a.822.822 0 1 1-1.643-.001.822.822 0 0 1 1.643 0"/><path fill="#393C3E" d="M.823 29.085h.6l.814 2.462H1.76l-.197-.61h-.94l-.194.61H0zm-.092 1.518h.726l-.36-1.143zm2.667-.858h.417v.276a.6.6 0 0 1 .548-.314c.234 0 .42.1.51.324a.71.71 0 0 1 .61-.324c.33 0 .599.204.599.7v1.14h-.417v-1.113c0-.265-.114-.38-.32-.38s-.397.14-.397.415v1.078h-.417v-1.113c0-.265-.117-.38-.32-.38-.207 0-.396.14-.396.415v1.078h-.417zm3.042.92v-.027c0-.558.383-.931.896-.931.448 0 .851.266.851.91v.12h-1.32c.014.342.186.534.497.534.251 0 .382-.1.413-.276h.403c-.058.38-.365.586-.827.586-.53 0-.913-.348-.913-.916m1.334-.207c-.021-.31-.18-.447-.438-.447-.252 0-.42.169-.461.447zm.786-.713h.416v.276a.61.61 0 0 1 .548-.314c.235 0 .42.1.51.324a.71.71 0 0 1 .61-.324c.33 0 .6.204.6.7v1.14h-.417v-1.113c0-.265-.114-.38-.32-.38s-.397.14-.397.415v1.078h-.417v-1.113c0-.265-.117-.38-.32-.38-.207 0-.397.14-.397.415v1.078H8.56zm3.58 1.512v.29h-.418v-2.635h.418v1.123a.7.7 0 0 1 .589-.328c.45 0 .8.335.8.917v.028c0 .578-.335.93-.8.93-.286 0-.493-.142-.59-.325m.961-.599v-.027c0-.4-.207-.596-.48-.596-.289 0-.495.196-.495.596v.027c0 .403.196.593.5.593.306 0 .475-.207.475-.593m.683.007v-.027c0-.558.383-.931.896-.931.448 0 .851.266.851.91v.12h-1.32c.014.342.187.534.496.534.252 0 .383-.1.414-.276h.403c-.058.38-.365.586-.827.586-.53 0-.913-.348-.913-.916m1.333-.207c-.02-.31-.179-.447-.437-.447-.252 0-.42.169-.462.447zm.786-.713h.417v.337c.114-.227.283-.361.586-.364v.388c-.366.004-.586.121-.586.504v.937h-.417zm2.068.92v-.027c0-.558.395-.931.926-.931.528 0 .924.37.924.92v.028c0 .561-.396.926-.927.926s-.924-.369-.924-.916m1.423-.007v-.024c0-.372-.187-.6-.497-.6s-.5.225-.5.597v.027c0 .368.183.6.5.6.31 0 .497-.232.497-.6m.876-.6h-.245v-.313h.245v-.241c0-.396.22-.61.606-.61.1 0 .162.01.238.035v.324a.6.6 0 0 0-.19-.031c-.169 0-.237.11-.237.265v.258h.41v.313h-.41v1.489h-.417zm19.624 1.799.313-.816.397.157-.452.772zm1.846-.81c0-.42.406-.571.924-.571h.224v-.093c0-.242-.083-.362-.328-.362-.217 0-.325.103-.343.283h-.405c.035-.42.37-.596.772-.596.404 0 .72.166.72.658v1.181h-.41v-.22c-.116.155-.275.254-.55.254-.331 0-.604-.158-.604-.534m1.148-.13v-.18h-.214c-.316 0-.52.073-.52.293 0 .152.081.252.289.252.256 0 .445-.134.445-.365m1.615.692h.421c.034.179.172.282.445.282.323 0 .502-.162.502-.486v-.264a.7.7 0 0 1-.589.333c-.45 0-.799-.337-.799-.857v-.025c0-.506.344-.885.81-.885.297 0 .475.135.578.314v-.276h.418v1.668c-.005.53-.359.795-.917.795-.565 0-.821-.255-.869-.6m1.383-1.007v-.023c0-.34-.187-.545-.487-.545-.31 0-.488.224-.488.552v.027c0 .334.206.54.474.54.29 0 .5-.206.5-.55m.91.945h.416v-2.635h-.416zm.802-.882v-.027c0-.558.398-.931.928-.931.527 0 .922.37.922.92v.028c0 .561-.395.926-.926.926-.53 0-.924-.369-.924-.916m1.423-.007v-.024c0-.372-.185-.6-.495-.6s-.5.225-.5.597v.027c0 .368.183.6.5.6.31 0 .495-.232.495-.6m1.221.599v.29h-.417v-2.635h.417v1.123a.7.7 0 0 1 .589-.328c.451 0 .8.335.8.917v.028c0 .578-.335.93-.8.93-.285 0-.492-.142-.59-.325m.961-.599v-.027c0-.4-.206-.596-.478-.596-.29 0-.497.196-.497.596v.027c0 .403.195.593.499.593.307 0 .476-.207.476-.593m.672.389c0-.42.408-.571.924-.571h.224v-.093c0-.242-.082-.362-.327-.362-.217 0-.324.103-.345.283h-.404c.036-.42.37-.596.773-.596.404 0 .72.166.72.658v1.181h-.41v-.22c-.118.155-.277.254-.55.254-.332 0-.605-.158-.605-.534m1.148-.13v-.18h-.214c-.317 0-.52.073-.52.293 0 .152.083.252.289.252.256 0 .445-.134.445-.365m.907.63h.417v-2.635h-.417zm1.815-1.489h-.244v-.313h.244v-.241c0-.396.218-.61.6-.61.104 0 .161.01.227.032v.324a.4.4 0 0 0-.175-.028c-.166 0-.235.11-.235.265v.258h.41v.313h-.41v1.489h-.417zm1.096-.846c0-.138.11-.242.248-.242.139 0 .249.104.249.242 0 .134-.11.238-.249.238a.24.24 0 0 1-.248-.238m.045.533h.418v1.802h-.418zm.923 0h.418v.286c.086-.176.285-.324.582-.324.362 0 .617.21.617.706v1.134h-.417v-1.095c0-.273-.111-.397-.36-.397-.233 0-.422.145-.422.431v1.06h-.418zm1.964 1.302c0-.42.406-.571.924-.571h.224v-.093c0-.242-.083-.362-.327-.362-.219 0-.324.103-.345.283h-.403c.034-.42.369-.596.772-.596s.72.166.72.658v1.181h-.41v-.22c-.117.155-.276.254-.553.254-.33 0-.602-.158-.602-.534m1.148-.13v-.18h-.215c-.316 0-.52.073-.52.293 0 .152.084.252.29.252.255 0 .445-.134.445-.365m.895-1.172h.417v.286c.086-.176.286-.324.583-.324.361 0 .617.21.617.706v1.134h-.418v-1.095c0-.273-.11-.397-.357-.397-.235 0-.425.145-.425.431v1.06h-.417zm1.976.924v-.029c0-.57.405-.933.909-.933.4 0 .775.18.822.676h-.402c-.034-.242-.193-.341-.413-.341-.287 0-.489.22-.489.592v.028c0 .392.192.599.5.599.22 0 .409-.13.433-.386h.383c-.03.413-.345.706-.834.706-.517 0-.91-.337-.91-.912m2.068-1.457c0-.138.11-.242.248-.242a.24.24 0 0 1 .247.242.24.24 0 0 1-.247.238.24.24 0 0 1-.248-.238m.044.533h.417v1.802H65.9zm.792 1.302c0-.42.408-.571.925-.571h.224v-.093c0-.242-.083-.362-.328-.362-.217 0-.323.103-.344.283h-.404c.034-.42.369-.596.772-.596s.72.166.72.658v1.181h-.41v-.22c-.116.155-.276.254-.55.254-.332 0-.605-.158-.605-.534m1.148-.13v-.18h-.214c-.317 0-.52.073-.52.293 0 .152.084.252.29.252.255 0 .445-.134.445-.365m.905.63h.417v-2.635h-.417zm1.645.062h.42c.034.179.172.282.444.282.324 0 .503-.162.503-.486v-.264a.7.7 0 0 1-.59.333c-.45 0-.798-.337-.798-.857v-.025c0-.506.344-.885.81-.885.296 0 .475.135.578.314v-.276h.417v1.668c-.003.53-.358.795-.917.795-.565 0-.82-.255-.868-.6m1.381-1.007v-.023c0-.34-.186-.545-.486-.545-.31 0-.49.224-.49.552v.027c0 .334.208.54.477.54.289 0 .5-.206.5-.55m.899-.857h.417v.337a.6.6 0 0 1 .585-.364v.388c-.365.004-.585.121-.585.504v.937h-.418zm1.213.92v-.027c0-.558.396-.931.927-.931.527 0 .923.37.923.92v.028c0 .561-.396.926-.926.926-.532 0-.925-.369-.925-.916m1.423-.007v-.024c0-.372-.186-.6-.496-.6s-.5.225-.5.597v.027c0 .368.183.6.5.6.31 0 .496-.232.496-.6m.786.241v-1.154h.418v1.106c0 .272.114.396.354.396.224 0 .42-.144.42-.43v-1.072h.418v1.802h-.418v-.283c-.09.176-.278.317-.571.317-.355 0-.62-.203-.62-.682m2.102-1.154h.416v.29a.7.7 0 0 1 .59-.328c.451 0 .8.334.8.916v.029c0 .578-.335.93-.8.93-.287 0-.493-.142-.59-.318v.9h-.416zm1.379.913v-.027c0-.4-.208-.597-.48-.597-.29 0-.497.197-.497.597v.027c0 .403.197.592.5.592.306 0 .477-.206.477-.592"/></g><defs><clipPath id="clip0_3802_8343"><path fill="#fff" d="M0 0h80v32.286H0z"/></clipPath></defs></svg>