<svg fill="none" viewBox="0 0 80 22"><g clip-path="url(#clip0_3802_18288)"><path fill="#0079FA" d="M9.933 21.4c-.212-.082-.438-.07-.657-.1a10.5 10.5 0 0 1-5.797-2.717C1.8 17.045.722 15.153.238 12.93a11 11 0 0 1-.237-2.085c-.003-.146.063-.144.17-.144q2.143.005 4.285-.002c.15-.001.199.04.22.185.142.97.502 1.856 1.087 2.64 1.104 1.478 2.575 2.325 4.422 2.499 3.096.291 5.97-1.844 6.557-4.98.063-.34.066-.34.418-.34h4.035q.237 0 .232.231c-.065 2.426-.841 4.598-2.374 6.482-1.672 2.056-3.82 3.331-6.436 3.812a9 9 0 0 1-1.078.138c-.028.002-.06-.002-.07.035z"/><path fill="#010101" d="M80 5.923c-.072.052-.075.14-.102.212-1.48 4.086-2.955 8.174-4.438 12.26-.478 1.317-1.39 2.172-2.774 2.48a4.5 4.5 0 0 1-2.205-.08c-.109-.031-.15-.073-.15-.192q.011-1.008 0-2.015c-.001-.15.04-.162.173-.125.36.102.731.16 1.108.155.375-.006.68-.15.893-.466.357-.527.54-1.13.74-1.725.026-.077-.018-.139-.044-.203L69.053 6.061q-.035-.089-.07-.184c.045-.041.094-.024.137-.024.851-.002 1.702.002 2.553-.005.124 0 .174.039.214.15q1.41 3.938 2.826 7.876l.062.162c.127-.396.247-.766.365-1.137q1.096-3.435 2.187-6.874c.043-.135.1-.179.245-.177.81.009 1.619.004 2.428.004z"/><path fill="#0079FA" d="M10.719 5.353c-3.505 0-7.01-.002-10.514.003-.159 0-.205-.034-.205-.2Q.01 2.67 0 .183C0 .033.04 0 .187 0Q10.718.006 21.25 0c.146 0 .187.03.187.182a681 681 0 0 0 0 4.991c0 .15-.039.183-.186.183-3.51-.005-7.02-.003-10.531-.003"/><path fill="#010101" d="M34.94 14.546c-.277.439-.57.796-.944 1.077-1.029.77-2.187 1.059-3.459.911-2.398-.277-4.014-2.068-4.422-4.255-.303-1.624-.047-3.162.894-4.541.984-1.444 2.374-2.143 4.123-2.052 1.384.071 2.482.702 3.28 1.84q.04.058.085.112c.002.002.01 0 .032 0v-.169c0-1.86.002-3.72-.004-5.58-.001-.157.048-.179.188-.177q1.205.01 2.41 0c.147-.002.184.031.184.181q-.006 5.634-.004 11.267c0 .167.002.333.042.496.058.232.204.376.443.4.13.013.163.063.161.19-.007.659-.004 1.319-.002 1.978 0 .092-.005.157-.118.175-.488.075-.973.154-1.472.083-.705-.1-1.25-.574-1.345-1.207-.034-.222-.045-.447-.072-.73m-.411-3.277q-.002-.562 0-1.123a.6.6 0 0 0-.054-.257c-.267-.622-.712-1.087-1.272-1.452-1.083-.708-2.284-.66-3.23.209-.986.904-1.271 2.064-.98 3.347.197.873.7 1.562 1.515 1.965 1.27.627 2.635.343 3.574-.717.294-.331.505-.695.452-1.17-.03-.265-.005-.535-.005-.802m13.579 3.318v.193c0 1.896-.002 3.792.005 5.688 0 .164-.047.189-.196.188q-1.215-.011-2.428 0c-.133 0-.166-.032-.166-.166q.006-7.238 0-14.477c0-.136.036-.165.167-.163q1.053.011 2.107-.002c.144-.001.161.046.16.17-.007.528-.003 1.057-.003 1.607.083-.055.109-.135.156-.197.779-1.011 1.794-1.593 3.074-1.725 2.726-.283 4.974 1.594 5.479 4.208.332 1.724.042 3.349-.996 4.791-.794 1.103-1.881 1.737-3.25 1.85-.993.083-1.93-.09-2.78-.63a4.4 4.4 0 0 1-1.329-1.335m0-3.636q.002.563 0 1.124a.55.55 0 0 0 .049.24q.37.809 1.064 1.362c1.169.925 2.765.8 3.71-.331.808-.968 1.02-2.09.649-3.293-.316-1.02-1.014-1.703-2.042-1.982-1.27-.345-2.3.105-3.114 1.094-.214.26-.353.552-.32.913.025.289.004.582.004.873m17.312 3.738c-.299.372-.61.688-.977.94-1.367.938-2.852 1.225-4.436.702-1.082-.357-1.834-1.099-2.16-2.214a2.98 2.98 0 0 1 1.015-3.197c.787-.632 1.707-.919 2.69-1.03a7.8 7.8 0 0 1 2.812.21c.212.053.417.131.64.203 0-.512.038-1.017-.145-1.501-.272-.718-.83-1.074-1.555-1.199-1.169-.2-2.25.075-3.28.622-.25.134-.505.263-.736.431-.086.063-.122.047-.166-.045a84 84 0 0 0-.73-1.462c-.053-.104-.032-.148.062-.206a8.2 8.2 0 0 1 3.093-1.165c1.1-.171 2.19-.145 3.27.144 1.733.462 2.811 1.75 2.936 3.534.082 1.169.016 2.34.035 3.51.003.213-.018.427.03.639.06.27.2.416.478.453.128.016.162.062.16.19-.007.659-.003 1.319-.004 1.978 0 .065.03.143-.082.162-.582.1-1.163.2-1.751.065a1.445 1.445 0 0 1-1.15-1.326c-.012-.134-.03-.268-.048-.438m-.415-2.25c0-.19-.003-.38.001-.57.003-.083-.02-.123-.106-.15-.666-.21-1.344-.357-2.045-.365-.627-.008-1.23.095-1.768.45-.468.308-.753.718-.723 1.301.036.695.591 1.309 1.358 1.445a3.3 3.3 0 0 0 2.424-.48c.575-.37 1.002-.848.859-1.613zM40.04 11.094c0-1.687.002-3.374-.004-5.06 0-.145.029-.188.181-.186q1.222.012 2.445 0c.137 0 .163.037.163.167q-.006 5.097 0 10.194c0 .129-.025.168-.163.167q-1.231-.012-2.462 0c-.137 0-.164-.037-.163-.167q.004-2.558.003-5.115m1.402-9.379c.41 0 .82.003 1.23-.002.106-.001.155.01.154.139a159 159 0 0 0-.001 2.404c0 .112-.03.137-.139.136q-1.257-.007-2.514 0c-.115.001-.135-.034-.134-.14q.007-1.201 0-2.404c-.001-.112.03-.138.138-.136.422.007.844.003 1.266.003"/></g><defs><clipPath id="clip0_3802_18288"><path fill="#fff" d="M0 0h80v21.4H0z"/></clipPath></defs></svg>