<svg fill="none" viewBox="0 0 80 81"><g clip-path="url(#clip0_3802_18344)"><path fill="#E2261D" d="M73.276 0c1.455 0 2.822.243 4.012 1.124a6 6 0 0 1 2.668 4.872c.022 3.748.022 7.474.022 11.177L80 73.081c0 1.146-.022 2.248-.551 3.284-.882 1.94-2.668 3.285-4.762 3.55-.551.088-1.124.11-1.675.11l-65.123-.022c-.727 0-1.499-.044-2.226-.088a6.17 6.17 0 0 1-5.644-6.636c0-22.222.022-44.4 0-66.643 0-1.94.551-3.594 2.006-4.938A5.9 5.9 0 0 1 5.927.043C6.897.022 7.89.022 8.86.022z"/><path fill="#fff" d="M19.507 11.927H13.29c-1.08 0-1.322.242-1.344 1.278v3.351c0 .97.264 1.213 1.19 1.235l7.804.11c1.433.022 2.844 0 4.255.022 1.852.022 3.505.661 4.982 1.786 3.395 2.623 3.682 7.804.816 10.846-1.565 1.697-3.77 2.667-6.085 2.623-3.88.023-7.738 0-11.618-.022-1.102 0-1.344.265-1.344 1.367v3.351c.022 1.014.33 1.323 1.345 1.323 3.527 0 7.032.022 10.537 0 .948 0 1.896-.066 2.822-.177a12.6 12.6 0 0 0 8.664-4.695A13.41 13.41 0 0 0 37.32 20.15c-2.227-5.424-6.636-8.047-12.434-8.267-1.763-.022-3.571.022-5.379.044m34.501-.022c7.76 0 14.065 6.106 14.065 13.668S61.768 39.24 53.986 39.24s-14.065-6.107-14.065-13.646 6.305-13.69 14.087-13.69m0 21.869c4.343 0 7.893-3.682 7.893-8.201s-3.528-8.201-7.915-8.201c-4.343 0-7.914 3.681-7.914 8.2.022 4.542 3.571 8.202 7.936 8.202M18.515 52.115c-.264-.33-.176-.683-.176-1.014v-9.303c-.066-.617-.287-.837-.838-.97a3 3 0 0 0-.617-.088h-3.638c-.97.022-1.278.33-1.278 1.279v24.757c0 .948.264 1.212 1.19 1.234h3.461c1.5 0 1.72-.176 1.72-1.741v-5.512c0-.617.132-1.168.595-1.609.64-.661 1.279-1.323 1.962-1.94.507-.485.882-.44 1.345.11.44.53.838 1.08 1.256 1.61l6.24 8.178c.44.552.991.904 1.719.904l5.335-.022c.287 0 .617.022.794-.44-.133-.221-.287-.552-.508-.816l-7.495-9.612-3.02-3.946c-.507-.662-.485-1.014.088-1.632.088-.088.154-.176.242-.264l5.424-5.38 4.144-4.122c.22-.242.617-.419.441-.904-.132-.022-.264-.088-.397-.11-1.763-.022-3.483-.066-5.246-.066-1.015 0-1.83.397-2.558 1.146-3.086 3.241-6.217 6.394-9.37 9.59-.22.287-.396.617-.815.683m21.45-3.615v2.58c.044 1.785-.11 3.527.177 5.29 1.08 7.033 7.385 12.081 14.506 11.596 7.473-.198 13.403-6.371 13.36-13.844.043-3.969 0-7.915 0-11.883v-.529c-.067-.595-.31-.904-.905-.904a137 137 0 0 0-4.254 0c-.596.022-.838.33-.86.904v.904c-.044 3.99-.066 7.98-.132 11.993a8.1 8.1 0 0 1-1.654 4.761c-2.535 3.395-7.341 4.1-10.758 1.566a8.37 8.37 0 0 1-3.35-6.923c-.023-3.968.021-7.914.065-11.882 0-1.102-.264-1.345-1.367-1.367h-3.527c-1.058.022-1.279.265-1.279 1.345V48.5z"/></g><defs><clipPath id="clip0_3802_18344"><path fill="#fff" d="M0 0h80v80.025H0z"/></clipPath></defs></svg>