<svg fill="none" viewBox="0 0 81 15"><g clip-path="url(#clip0_3802_18379)"><path fill="#6E6E6E" d="M8.145 0a.45.45 0 0 1 .344.127c.09.09.126.199.126.344V7.91c-.018.796-.199 1.502-.579 2.153a4 4 0 0 1-1.538 1.52 4.4 4.4 0 0 1-2.172.544c-.815 0-1.539-.181-2.208-.561-.652-.38-1.177-.887-1.539-1.539C.181 9.357 0 8.615 0 7.801c0-.796.181-1.52.561-2.19.38-.652.887-1.177 1.539-1.539.651-.38 1.393-.56 2.208-.56.724 0 1.393.162 1.973.47.597.308 1.05.742 1.393 1.285V.471a.45.45 0 0 1 .127-.344A.5.5 0 0 1 8.145 0M4.308 11.258c.633 0 1.212-.145 1.72-.453a3.44 3.44 0 0 0 1.212-1.23c.29-.525.434-1.104.434-1.756s-.145-1.23-.434-1.756a3.05 3.05 0 0 0-1.213-1.23 3.43 3.43 0 0 0-1.72-.453c-.633 0-1.212.145-1.719.453a3.17 3.17 0 0 0-1.212 1.23A3.57 3.57 0 0 0 .923 7.82c0 .652.145 1.23.453 1.756.29.525.705.94 1.212 1.23s1.086.453 1.72.453M17.23 3.602a.44.44 0 0 0-.326.127.45.45 0 0 0-.127.343v4.706a2.1 2.1 0 0 1-.38 1.231c-.253.38-.615.67-1.05.869-.452.217-.94.307-1.484.307-.887 0-1.593-.253-2.154-.778-.543-.507-.832-1.249-.832-2.226V4.072a.44.44 0 0 0-.127-.325.44.44 0 0 0-.326-.127.44.44 0 0 0-.325.127.43.43 0 0 0-.127.325v4.145c0 .815.163 1.52.507 2.118a3.2 3.2 0 0 0 1.393 1.34c.598.307 1.267.47 2.01.47a3.85 3.85 0 0 0 1.646-.362c.507-.236.924-.58 1.285-1.014v.797a.436.436 0 0 0 .453.453.45.45 0 0 0 .344-.128.44.44 0 0 0 .127-.325V4.072a.45.45 0 0 0-.127-.343c-.09-.091-.235-.127-.38-.127m5.755 7.475h-.344c-.579 0-1.067-.181-1.43-.561-.361-.38-.56-.85-.56-1.448V4.742h2.027a.46.46 0 0 0 .307-.109c.09-.072.109-.18.109-.307a.46.46 0 0 0-.109-.308c-.072-.09-.18-.108-.307-.108h-2.027V1.394a.45.45 0 0 0-.127-.344.45.45 0 0 0-.344-.127.44.44 0 0 0-.326.127.45.45 0 0 0-.127.344V3.91h-1.194a.46.46 0 0 0-.308.108c-.09.072-.108.181-.108.308 0 .126.036.217.108.307.073.091.181.11.308.11h1.195v4.325c0 .561.126 1.068.361 1.52.254.453.598.797 1.032 1.05s.941.38 1.502.38h.362a.45.45 0 0 0 .344-.127.44.44 0 0 0 .127-.325.463.463 0 0 0-.47-.489m4.96-7.566c.796 0 1.52.181 2.19.561.651.38 1.176.887 1.538 1.539.38.651.561 1.394.561 2.208v3.747a.44.44 0 0 1-.126.325.45.45 0 0 1-.344.127.44.44 0 0 1-.326-.127.44.44 0 0 1-.127-.325V10.37a3.54 3.54 0 0 1-1.393 1.285 4.2 4.2 0 0 1-1.973.47c-.815 0-1.539-.18-2.208-.56-.652-.38-1.177-.887-1.539-1.539-.38-.651-.561-1.394-.561-2.19 0-.814.181-1.538.561-2.208.38-.652.887-1.177 1.539-1.538.67-.399 1.393-.58 2.208-.58m0 7.747c.633 0 1.212-.145 1.72-.453.506-.29.922-.705 1.212-1.23s.434-1.104.434-1.756-.145-1.23-.434-1.756a3.05 3.05 0 0 0-1.213-1.23c-.507-.308-1.086-.453-1.72-.453s-1.212.145-1.719.453a3.44 3.44 0 0 0-1.212 1.23 3.5 3.5 0 0 0-.453 1.756c0 .652.145 1.23.453 1.756.29.525.706.94 1.212 1.23.507.308 1.086.453 1.72.453"/><path fill="#009CFE" d="M42.154 3.493a3 3 0 0 1 1.647.47c.489.309.85.743 1.122 1.286s.398 1.176.398 1.864v4.453a.44.44 0 0 1-.126.325.45.45 0 0 1-.344.127.44.44 0 0 1-.326-.127.44.44 0 0 1-.127-.325V7.113c0-.796-.217-1.43-.633-1.937a2 2 0 0 0-1.611-.76q-1.086 0-1.738.706c-.434.47-.651 1.104-.633 1.883v4.56a.44.44 0 0 1-.127.326.45.45 0 0 1-.344.127.44.44 0 0 1-.326-.127.44.44 0 0 1-.126-.325V7.113c0-.796-.218-1.43-.634-1.937a2 2 0 0 0-1.61-.76c-.706 0-1.286.217-1.738.67-.453.452-.67 1.032-.67 1.756v4.706a.44.44 0 0 1-.127.325.45.45 0 0 1-.343.127.44.44 0 0 1-.326-.127.44.44 0 0 1-.127-.325V4.071a.45.45 0 0 1 .127-.343.43.43 0 0 1 .326-.127.45.45 0 0 1 .343.127c.09.09.127.199.127.343v.598a3.2 3.2 0 0 1 1.068-.87 3.1 3.1 0 0 1 1.357-.307c.598 0 1.123.145 1.593.435s.85.687 1.122 1.212a3.1 3.1 0 0 1 1.159-1.212 3.15 3.15 0 0 1 1.647-.435m8.362 8.616a4.33 4.33 0 0 0 2.19-.562c.651-.38 1.176-.886 1.538-1.538.38-.652.561-1.394.561-2.19 0-.814-.18-1.538-.56-2.208-.38-.652-.887-1.177-1.54-1.539-.65-.38-1.393-.56-2.19-.56-.814 0-1.538.18-2.207.56-.652.38-1.177.887-1.539 1.539-.38.651-.56 1.394-.56 2.208 0 .796.18 1.538.56 2.19s.887 1.176 1.539 1.538c.67.38 1.393.562 2.208.562m0-.851c-.634 0-1.213-.145-1.72-.453a3.17 3.17 0 0 1-1.212-1.23 3.57 3.57 0 0 1-.453-1.756c0-.652.145-1.23.453-1.756.307-.525.706-.94 1.212-1.23.507-.308 1.086-.453 1.72-.453s1.212.145 1.72.453c.506.307.922.724 1.212 1.23.29.525.434 1.104.434 1.756s-.144 1.23-.434 1.756c-.29.525-.688.94-1.213 1.23-.507.308-1.086.453-1.72.453m9.176-7.765a3.85 3.85 0 0 0-1.647.362c-.507.236-.923.58-1.285 1.014v-.797a.45.45 0 0 0-.127-.343.45.45 0 0 0-.343-.127.44.44 0 0 0-.326.127.45.45 0 0 0-.127.343v7.494a.436.436 0 0 0 .453.453.45.45 0 0 0 .343-.128.43.43 0 0 0 .127-.325V6.86c0-.453.127-.869.38-1.231.254-.38.616-.67 1.05-.869s.941-.308 1.484-.308c.887 0 1.593.254 2.154.779s.833 1.249.833 2.226v4.145c0 .127.036.235.126.326.09.09.2.126.326.126a.44.44 0 0 0 .326-.126.44.44 0 0 0 .127-.326V7.42c0-.815-.163-1.52-.507-2.118a3.2 3.2 0 0 0-1.394-1.34 4.2 4.2 0 0 0-1.973-.47m8.724.036c-.778 0-1.448.181-2.063.543a3.66 3.66 0 0 0-1.394 1.52 4.9 4.9 0 0 0-.507 2.227c0 .814.181 1.557.544 2.208a3.87 3.87 0 0 0 1.484 1.52q.95.543 2.172.543c.488 0 .995-.09 1.52-.29.525-.198.96-.434 1.285-.741.09-.09.145-.181.145-.29a.41.41 0 0 0-.163-.325.45.45 0 0 0-.272-.091.5.5 0 0 0-.325.127 2.6 2.6 0 0 1-.96.543 4 4 0 0 1-1.212.199c-.598 0-1.14-.127-1.611-.399a3 3 0 0 1-1.158-1.12 3.24 3.24 0 0 1-.47-1.629h6.443a.5.5 0 0 0 .326-.108c.09-.073.127-.181.127-.308 0-.796-.163-1.52-.489-2.136a3.6 3.6 0 0 0-1.376-1.466 4.2 4.2 0 0 0-2.045-.525m0 .851c.833 0 1.52.272 2.064.796q.814.788.923 2.118h-5.991q.162-1.303.977-2.118c.543-.524 1.23-.796 2.027-.796m3.874 9.34c.018.072 0 .054.072.09.2.127.561.2.778.253.218.055.833.073 1.104.055.76-.073 1.34-.543 1.756-1.159l.326-.56c.145-.236.326-.725.434-.996l.869-2.046c.127-.29.235-.524.344-.832l1.213-2.896c.018-.054.054-.109.09-.2.054-.09.054-.126.072-.198l.453-1.068s0-.018.018-.018c0 0 0-.018.018-.018L79.891 4c.055-.127.127-.235.145-.416h-.905l-.615 1.556c-.018.073-.055.127-.09.2L76.85 9.284c-.055.163-.453 1.213-.543 1.267l-.435-.887c-.108-.29-.271-.579-.398-.869l-.199-.452c-.072-.145-.127-.29-.2-.434l-.108-.218c-.163-.362-.344-.706-.507-1.086l-1.266-2.624c-.037-.054-.073-.145-.109-.2a.3.3 0 0 1-.036-.108l-.036-.054-.942-.036c.019.217.127.362.218.543l2.117 4.38c0 .018.018.036.018.036.055.145.163.344.236.507.072.145.18.326.235.47.072.181.145.344.235.507l.67 1.358c.054.09 0 .036.054.072-.036.109-.163.362-.217.47-.145.29-.326.598-.543.815-.253.235-.47.453-.833.525-.235.036-.687.054-.923-.018-.199-.054-.687-.235-.814-.235l-.181.488c-.036.127-.036.127-.054.217"/></g><defs><clipPath id="clip0_3802_18379"><path fill="#fff" d="M0 0h80.036v14.124H0z"/></clipPath></defs></svg>