<svg fill="none" viewBox="0 0 80 80"><g clip-path="url(#clip0_3802_10647)"><path fill="#FD6542" fill-rule="evenodd" d="M40 80c22.091 0 40-17.909 40-40S62.091 0 40 0 0 17.909 0 40s17.909 40 40 40" clip-rule="evenodd"/><path fill="#fff" d="m28.05 34.394.39-3.066h-4.69l.195-1.572q.136-1.215.486-2.05c.2-.508.498-.969.875-1.356a3.3 3.3 0 0 1 1.197-.757c.48-.163.984-.242 1.49-.235h.564q.25.002.496-.04a.8.8 0 0 0 .36-.15.52.52 0 0 0 .175-.33l.39-2.229a6.3 6.3 0 0 0-2.258-.398 7.8 7.8 0 0 0-2.831.512 7.1 7.1 0 0 0-2.326 1.463 7.9 7.9 0 0 0-1.673 2.329q-.663 1.372-.876 3.106l-.215 1.711h-2.723l-.214 1.732q-.058.497.185.746c.18.177.407.298.652.349l1.732.278-2.589 21.857h1.673q.896 0 1.382-.468t.76-1.323l.952-3.902 1.907-16.207zm5.079 16.96 3.503-29.46H32.51l-3.487 29.463zm7.434-20.305-2.375 20.308h4.107l2.393-20.305zm5.147-7.245a2.95 2.95 0 0 0-1.48-1.521 2.4 2.4 0 0 0-1.021-.226 2.3 2.3 0 0 0-.992.226c-.32.15-.61.359-.856.617-.25.266-.45.577-.59.916a2.8 2.8 0 0 0-.221 1.105c-.003.377.072.75.22 1.095.143.333.34.639.584.903.239.258.523.468.837.618s.656.227 1.002.226c.35 0 .695-.076 1.013-.226a3.1 3.1 0 0 0 1.497-1.521c.156-.343.236-.717.234-1.095a2.8 2.8 0 0 0-.22-1.114zm6.763 17.878c.32-1.03.73-2.03 1.226-2.985a14.7 14.7 0 0 1 1.537-2.39q.818-1.016 1.693-1.58.876-.566 1.732-.567 1.38 0 2.135 1.124.753 1.124.749 3.374c-.001.77-.066 1.54-.194 2.299q-.191 1.144-.565 2.24a11.6 11.6 0 0 1-.915 2.02 8 8 0 0 1-1.225 1.642 5.4 5.4 0 0 1-1.499 1.096 3.95 3.95 0 0 1-1.752.398 5.3 5.3 0 0 1-1.877-.358 3.8 3.8 0 0 1-1.65-1.253zm.7-9.236q0-.737-.36-1.085-.36-.35-1.04-.349h-2.104l-3.231 27.093h4.066l1.013-8.48a5.8 5.8 0 0 0 1.955 1.493c.798.367 1.665.55 2.54.538a6.6 6.6 0 0 0 2.588-.527 8.8 8.8 0 0 0 2.317-1.45 11.8 11.8 0 0 0 1.956-2.2 15 15 0 0 0 1.508-2.758 16.9 16.9 0 0 0 1.303-6.479q0-1.872-.379-3.275-.379-1.404-1.08-2.349a4.44 4.44 0 0 0-1.703-1.414 5.3 5.3 0 0 0-2.247-.47c-.7 0-1.394.124-2.053.368a7.7 7.7 0 0 0-1.926 1.054 11.7 11.7 0 0 0-1.77 1.642 14.5 14.5 0 0 0-1.567 2.15l.214-3.504z"/></g><defs><clipPath id="clip0_3802_10647"><path fill="#fff" d="M0 0h80v80H0z"/></clipPath></defs></svg>