<svg fill="none" viewBox="0 0 80 31"><g fill-rule="evenodd" clip-path="url(#clip0_3802_26411)" clip-rule="evenodd"><path fill="#5F6368" d="M37.835 24.06v-9.024h4.88q3.02.001 5.074-1.897a6.09 6.09 0 0 0 2.119-4.73 6.11 6.11 0 0 0-2.12-4.701 7.2 7.2 0 0 0-5.073-1.93H34.88V24.06zm0-11.76V4.52h4.954c1.104-.03 2.168.4 2.923 1.182a3.74 3.74 0 0 1 1.187 2.723 3.74 3.74 0 0 1-1.187 2.723 3.97 3.97 0 0 1-2.923 1.152zm24.051-2.287q-1.896-1.695-5.17-1.696-4.209 0-6.355 2.987l2.602 1.588q1.443-2.024 3.917-2.024a4.26 4.26 0 0 1 2.852 1.044 3.22 3.22 0 0 1 1.22 2.533v.655q-1.703-.934-4.334-.934-3.083.005-4.928 1.401-1.846 1.397-1.846 3.764a4.7 4.7 0 0 0 1.75 3.733q1.75 1.494 4.35 1.494 3.047 0 4.881-2.614h.129v2.116h2.826v-9.396q.001-2.955-1.894-4.65M53.873 21.26a2.26 2.26 0 0 1-.98-1.867c0-.83.402-1.522 1.211-2.09q1.203-.842 3.002-.842 2.472 0 3.853 1.067 0 1.803-1.468 3.141a4.8 4.8 0 0 1-3.322 1.337 3.68 3.68 0 0 1-2.296-.746M80 8.815 70.136 30.78h-3.05l3.66-7.686L64.26 8.815h3.212l4.688 10.951h.064l4.56-10.95z"/><path fill="#4285F4" d="M25.897 13.093a15 15 0 0 0-.228-2.603H13.211v4.93h7.135a5.92 5.92 0 0 1-2.638 3.89v3.2h4.259c2.493-2.228 3.93-5.522 3.93-9.418"/><path fill="#34A853" d="M13.21 25.601c3.566 0 6.567-1.134 8.756-3.09l-4.258-3.2c-1.185.779-2.712 1.223-4.497 1.223-3.446 0-6.371-2.25-7.417-5.283H1.407v3.298C3.649 22.872 8.217 25.6 13.21 25.6"/><path fill="#FBBC04" d="M5.794 15.25a7.44 7.44 0 0 1 0-4.899V7.053H1.407a12.45 12.45 0 0 0 0 11.496z"/><path fill="#EA4335" d="M13.21 5.068a7.3 7.3 0 0 1 5.068 1.92l3.771-3.654c-2.39-2.176-5.558-3.37-8.838-3.333C8.215 0 3.649 2.73 1.406 7.053l4.387 3.298c1.046-3.033 3.97-5.283 7.417-5.283"/></g><defs><clipPath id="clip0_3802_26411"><path fill="#fff" d="M0 0h80v30.78H0z"/></clipPath></defs></svg>