<svg fill="none" viewBox="0 0 80 70"><g fill="#00B041" fill-rule="evenodd" clip-path="url(#clip0_3802_26266)" clip-rule="evenodd"><path d="m79.999 20.663-.114.897c-.273 2.136-1.178 3.973-2.666 5.518-1.511 1.576-3.348 2.56-5.507 2.92-3.461.58-7.464-.84-9.494-4.014-.315-.493-.519-1.053-.773-1.583-.064-.137-.041-.25.065-.375.375-.436.73-.883 1.094-1.326.038-.045.057-.102.114-.204.136.375.22.666.34.939 1.152 2.59 3.125 4.158 5.912 4.632 4.037.689 7.897-2.03 8.817-5.886.144-.602.208-1.23.235-1.848.03-.803.011-1.613-.038-2.42-.091-1.533-.652-2.9-1.583-4.109-1.364-1.765-3.151-2.84-5.37-3.098-2.205-.253-4.163.413-5.867 1.814-1.776 1.462-3.314 3.159-4.79 4.916-.686.818-1.345 1.659-2.015 2.488-.042.05-.087.095-.16.175a3 3 0 0 1-.01-.216c0-.815-.004-1.633.003-2.447a.57.57 0 0 1 .102-.333c1.178-1.526 2.401-3.015 3.772-4.37a20 20 0 0 1 3.322-2.67c1.106-.705 2.329-1.103 3.624-1.273 5.143-.674 9.623 2.962 10.68 7.423.125.519.167 1.056.246 1.587q.03.176.064.352v2.5zM53.97 62.443c.147.117.253.197.36.284 1.548 1.257 3.31 2.056 5.29 2.31 1.318.17 2.632.144 3.89-.379 1.397-.583 2.097-1.689 2.226-3.158.068-.777.042-1.56.053-2.34 0-.065-.015-.13-.023-.22-.053.026-.087.034-.106.056-.882 1.004-2.033 1.527-3.306 1.777-2.071.412-4.078.189-5.957-.807-2.007-1.064-3.166-2.799-3.723-4.965-.22-.852-.314-1.72-.314-2.598V40.841q0-.337.345-.337c1.329 0 2.654.007 3.984-.008.269 0 .33.08.33.337-.008 3.916-.027 7.832.007 11.744.015 1.8 1.083 3.62 3.351 4.015 1.31.227 2.56.019 3.64-.826.814-.64 1.223-1.515 1.356-2.522a9 9 0 0 0 .056-1.193V40.852q.001-.352.356-.352h3.882c.197 0 .27.053.27.265-.008 6.912.014 13.82-.02 20.73-.007 1.89-.568 3.64-1.86 5.09-1.079 1.213-2.457 1.928-4.006 2.338-.917.242-1.852.348-2.799.393-2.628.122-4.976-.61-7.036-2.257a.63.63 0 0 1-.266-.549c.012-1.276.004-2.552.008-3.829 0-.06.008-.12.015-.242zM14.72 61.06h-.311c-1.277 0-2.553-.007-3.83.008-.272 0-.328-.083-.328-.337.007-5.442.003-10.884.003-16.33v-7.866c0-.341 0-.345.341-.345 3.17 0 6.34-.053 9.506.023 2.287.053 4.385.75 6.044 2.435 1.042 1.057 1.655 2.348 1.932 3.79.352 1.834.314 3.663-.303 5.44-.932 2.67-2.863 4.245-5.556 4.95-.909.238-1.837.332-2.78.332h-4.374c-.34 0-.34 0-.34.345v7.552zm2.544-12.054c.618 0 1.231.019 1.848-.008.527-.022 1.06-.049 1.572-.155 1.405-.295 2.428-1.08 2.897-2.47.379-1.113.383-2.249.053-3.374-.318-1.09-1.026-1.84-2.086-2.264-.663-.265-1.356-.368-2.057-.379-1.507-.019-3.018-.004-4.53-.008-.193 0-.25.072-.25.262.005 2.708.008 5.412 0 8.12 0 .22.073.28.285.28.753-.012 1.51 0 2.265 0zm27.806 9.941c-1.023 1.068-2.254 1.659-3.651 1.935-1.038.209-2.083.194-3.128.084-1.273-.133-2.481-.47-3.606-1.087-2.083-1.148-3.355-2.928-3.995-5.192a11.4 11.4 0 0 1-.413-3.053c0-.996-.027-2 .057-2.992.326-3.851 2.503-7.055 6.749-8.063 2.219-.526 4.446-.48 6.608.27 2.916 1.014 4.696 3.09 5.45 6.066.22.875.322 1.769.322 2.674v10.858q0 .367-.368.367c-1.242 0-2.48-.004-3.722.004-.228 0-.322-.05-.311-.303.019-.526.008-1.053.008-1.58zm.045-8.222c-.053-.735-.038-1.477-.167-2.196-.318-1.75-1.302-3-2.988-3.632-1.056-.398-2.147-.428-3.249-.231a4.8 4.8 0 0 0-3.935 4.018 13.7 13.7 0 0 0-.045 3.45c.2 1.913 1.174 3.325 2.927 4.147 1.09.515 2.246.56 3.431.401 1.867-.253 3.265-1.45 3.772-3.264.247-.883.22-1.784.262-2.689zm-24.73-32.63h-8.169c-.008-.114-.015-.204-.015-.295v-1.303q0-.357.371-.356h6.616c.954 0 1.909.008 2.863-.004.228 0 .3.064.296.292-.008 3.393 0 6.786-.012 10.183a.7.7 0 0 1-.155.417c-.988 1.159-2.242 1.958-3.617 2.572-1.299.579-2.662.908-4.078 1.064-2.405.261-4.75.041-6.965-.981-3.874-1.8-6.306-4.806-7.188-8.987-.519-2.462-.47-4.935.435-7.32 1.19-3.14 3.344-5.435 6.283-7.015a13.6 13.6 0 0 1 4.984-1.533c1.292-.144 2.58-.091 3.867.007 1.265.099 2.503.333 3.696.777.242.09.352.2.337.48-.026.595-.007 1.194-.007 1.826-.243-.121-.443-.231-.652-.33-1.083-.522-2.23-.806-3.42-.9a28 28 0 0 0-2.594-.103c-2.583.034-4.893.878-6.938 2.443-1.939 1.48-3.29 3.382-3.969 5.74-.344 1.194-.405 2.417-.356 3.655.065 1.576.398 3.076 1.106 4.48 1.553 3.072 4.018 4.977 7.389 5.697 1.363.291 2.738.261 4.113.102 1.62-.186 3.162-.617 4.548-1.5a9 9 0 0 0 1.068-.825.6.6 0 0 0 .178-.402c.011-2.533.008-5.07.008-7.604 0-.084-.016-.17-.027-.273zm29.597 9.483c0 .629.007 1.227-.008 1.826 0 .068-.117.174-.197.197-.606.166-1.212.393-1.83.458-2.544.272-4.847-.402-6.873-1.958-2.132-1.64-3.446-3.795-3.79-6.465-.148-1.136-.1-2.302-.08-3.454.045-2.31.89-4.325 2.397-6.06 1.504-1.726 3.378-2.851 5.639-3.241 3.06-.53 5.798.23 8.15 2.265 1.818 1.571 2.909 3.575 3.299 5.945.072.451.11.913.11 1.371.007 3.769.003 7.537.003 11.301v.349h-1.95v-.371c0-3.769.026-7.537-.008-11.301-.034-3.962-2.893-6.988-6.404-7.647-4.245-.791-8.328 2.11-9.172 6.26a6.6 6.6 0 0 0-.14 1.262c-.016 1.11-.103 2.223.12 3.321.584 2.893 2.273 4.897 4.985 6.014 1.802.742 3.632.686 5.457.027.087-.03.174-.061.292-.099"/><path d="M18.885 19.61v.276q-.001 2.709.004 5.416c0 .197-.06.322-.212.44-.845.662-1.825 1.018-2.856 1.25-1.162.26-2.351.39-3.537.31-3.488-.231-6.07-1.92-7.737-4.98-.73-1.341-1.026-2.795-1.053-4.322-.026-1.477.163-2.904.81-4.245 1.19-2.458 3.114-4.102 5.651-5.052 1.526-.572 3.113-.7 4.73-.598 1.375.087 2.72.295 4.003.799.364.14.716.31 1.064.48.076.038.16.148.16.224.01.693.007 1.386.007 2.136-.106-.072-.182-.117-.254-.17-1.071-.81-2.295-1.246-3.616-1.39-.887-.095-1.784-.186-2.67-.148-3.125.133-5.567 1.485-7.143 4.238-.545.954-.776 2.007-.799 3.113-.027 1.28.102 2.53.655 3.7 1.098 2.325 2.905 3.772 5.461 4.173 1.803.284 3.571.03 5.287-.59.174-.065.239-.163.239-.345a105 105 0 0 1 0-2.447c.003-.253-.069-.344-.337-.344-1.417.011-2.83 0-4.246.011-.235 0-.314-.057-.306-.303.018-.538.007-1.072.007-1.632zm46.578-.42c.114.51.186.943.303 1.363.33 1.155.902 2.166 1.765 3.018 1.818 1.792 4.363 1.292 5.78-.155.783-.8 1.215-1.765 1.234-2.89.015-.848.057-1.704-.019-2.545-.166-1.814-1.537-3.329-3.317-3.734-1.568-.356-2.932.08-4.11 1.136-1.564 1.41-2.923 3.015-4.275 4.62-1.538 1.826-3.026 3.69-4.533 5.538-.015.019-.027.045-.091.056-.004-.068-.015-.136-.015-.208 0-.84-.008-1.685.007-2.526a.77.77 0 0 1 .14-.424c1.394-1.856 2.905-3.61 4.477-5.314.856-.931 1.715-1.863 2.624-2.749 1.026-1 2.216-1.768 3.636-2.075 1.693-.364 3.257.022 4.662 1.01 1.447 1.016 2.36 2.398 2.689 4.144.056.303.08.621.08.932-.008.935.033 1.878-.065 2.806-.269 2.45-2.113 4.544-4.53 5.234-2.643.753-5.336-.31-6.892-2.716a7.6 7.6 0 0 1-1.019-2.374.54.54 0 0 1 .087-.394c.41-.526.84-1.038 1.261-1.556.038-.046.06-.103.118-.194zm-15.481 4.574c0 .67.007 1.296-.008 1.917 0 .094-.11.208-.197.269-.519.352-1.11.53-1.72.625-2.658.409-5.176-.78-6.544-3.09a6.05 6.05 0 0 1-.87-3.167c0-.557.003-1.11 0-1.666-.02-2.106.84-3.799 2.461-5.102 3.62-2.908 9.218-1.022 10.116 3.738.08.432.113.879.117 1.318.008 3.723.004 7.446.004 11.169q0 .349-.356.352c-.436 0-.867-.011-1.303.004-.223.007-.276-.076-.276-.284.007-1 0-1.996 0-2.996v-8.15c0-.966-.209-1.878-.773-2.678-.89-1.253-2.106-1.87-3.65-1.9-1.811-.035-3.727 1.173-4.254 3.279-.083.34-.121.7-.132 1.053-.023.613-.008 1.23-.008 1.848 0 2.223 1.549 4.052 3.753 4.367 1.204.174 2.344-.084 3.382-.735.072-.046.144-.095.261-.17zM39.374 10.032c-.493.534-.924 1.008-1.349 1.466-.503-.19-.988-.44-1.503-.557-3.087-.7-5.836-.114-8.06 2.261-.991 1.06-1.54 2.36-1.753 3.787-.102.674-.14 1.364-.14 2.045-.015 3.575-.007 7.15-.007 10.726q0 .366-.368.367c-.443 0-.886-.008-1.329 0-.185.004-.254-.064-.238-.239.003-.041 0-.087 0-.129V18.592c0-2.147.526-4.135 1.772-5.9 1.473-2.087 3.507-3.314 5.999-3.784 1.939-.367 3.847-.246 5.692.481.432.17.833.417 1.28.644z"/><path d="m37.173 12.748-.844 1.681c-.386-.09-.769-.22-1.159-.265-1.856-.22-3.65.364-4.617 2.151a4.36 4.36 0 0 0-.518 2.098v11.688h-1.932c-.004-.091-.015-.182-.015-.273 0-3.837-.034-7.673.011-11.51.034-3.094 2.167-5.506 5.071-6.029a7.1 7.1 0 0 1 3.44.216c.192.06.374.163.563.246zM60.241.015h1.916c.004.106.015.197.015.288v9.949c0 .17-.053.28-.174.405-.522.53-1.03 1.08-1.541 1.621a6 6 0 0 0-.216.242zm3.454 9.593V.345q0-.345.36-.345h1.196q.372 0 .375.386v7.631c0 .205-.06.322-.242.436-.5.314-.977.663-1.462.996l-.23.159z"/></g><defs><clipPath id="clip0_3802_26266"><path fill="#fff" d="M0 0h80.002v69.329H0z"/></clipPath></defs></svg>