<svg fill="none" viewBox="0 0 46 80"><g clip-path="url(#clip0_3802_18159)"><path fill="url(#paint0_linear_3802_18159)" d="M20.212 19.214h20.276c2.929 0 4.828 2.381 4.828 5.052v42.805c0 3.83-2.511 6.18-4.828 6.95l-16.993 5.73s-5.182-4.537-6.983-11.07c0 0 2.199 2.943 5.776 2.943 4.248 0 7.917-3.258 7.917-7.315 0-4.056.024-23.558.024-31.765s-7.24-12.745-10.017-13.332z"/><path fill="url(#paint1_linear_3802_18159)" d="M22.455 80s-7.523-6.912-7.523-15.408V32.377c0-5.084 5.663-6.565 7.658-6.565s4.507 1.223 6.148 3.154c0 0-1.447-5.341-6.116-7.626-4.666-2.285-7.852-2.123-9.558-2.123H5.052C2.769 19.217 0 20.662 0 24.556V68.1c0 3.91 3.845 5.455 5.487 6.035S22.455 80 22.455 80"/><path fill="url(#paint2_linear_3802_18159)" d="M30.252 7.659a7.659 7.659 0 1 1-15.318 0 7.659 7.659 0 0 1 15.318 0"/></g><defs><linearGradient id="paint0_linear_3802_18159" x1="30.913" x2="30.913" y1="19.536" y2="78.818" gradientUnits="userSpaceOnUse"><stop stop-color="#00B0C3"/><stop offset="1" stop-color="#3151B0"/></linearGradient><linearGradient id="paint1_linear_3802_18159" x1="14.369" x2="14.369" y1="19.536" y2="80.324" gradientUnits="userSpaceOnUse"><stop stop-color="#3151B0"/><stop offset="1" stop-color="#00B0C3"/></linearGradient><linearGradient id="paint2_linear_3802_18159" x1="22.593" x2="22.593" y1=".516" y2="15.688" gradientUnits="userSpaceOnUse"><stop stop-color="#FABE40"/><stop offset="1" stop-color="#F07728"/></linearGradient><clipPath id="clip0_3802_18159"><path fill="#fff" d="M0 0h45.316v80H0z"/></clipPath></defs></svg>