<svg fill="none" viewBox="0 0 56 70"><g clip-path="url(#clip0_3802_8349)"><path fill="#B2292E" fill-rule="evenodd" d="M26.896 9.983H16.09v9.98h6.62v3.327h-6.62v9.98h10.806v-3.325h-7.481V26.62h6.647v-9.986h-6.647V13.31h7.48zM6.04 21.64C6.04 9.684 15.725 0 27.686 0s21.647 9.684 21.647 21.641c0 11.958-9.692 21.644-21.647 21.644-11.956 0-21.645-9.688-21.645-21.644m3.351 0c0-10.096 8.19-18.293 18.294-18.293 10.103 0 18.29 8.197 18.29 18.293s-8.192 18.292-18.29 18.292S9.392 31.741 9.392 21.641M28.57 33.275h10.787V23.3h-6.633v-3.325h6.633v-9.99H28.57v3.327h7.459v3.333H29.38v9.978h6.648v3.324h-7.46z" clip-rule="evenodd"/><path fill="#161519" d="M33.086 69.152c2.063 0 3.616-.498 4.622-1.48 1.033-1.01 1.25-2.31 1.25-3.225 0-2.001-.84-3.393-2.499-4.13l-.072-.031.07-.036c.749-.391 1.739-1.185 1.739-3.557 0-1.302-.495-2.475-1.397-3.303-.986-.911-2.424-1.39-4.16-1.39l-8.985-.007v17.156l9.432.005zm-6.169-14.004h5.443c.958 0 2.564 0 2.564 1.887 0 .691-.301 1.184-.895 1.458-.531.248-1.2.277-1.656.277h-5.456zm0 6.77v-.036h5.947c.542 0 1.323.085 1.952.493.585.384.882.947.882 1.678 0 .585-.162 1.04-.474 1.354-.583.583-1.591.581-2.325.581h-6v-.038l.02-4.032zm-23.495-9.92H0v17.154h3.422zm2.779 8.432c0 1.66.28 3.029.862 4.185.48.964 1.161 1.774 2.144 2.557 1.53 1.219 3.685 1.836 6.4 1.836h4.684v-3.24H15.87c-2.459 0-4.246-.61-5.305-1.81-.75-.857-1.137-2.004-1.146-3.42-.013-1.518.415-2.726 1.269-3.586 1.067-1.078 2.811-1.624 5.182-1.624h4.422v-3.21h-4.52c-1.522 0-2.798.152-3.904.46-1.101.311-2.01.774-2.77 1.415-1.083.91-2.898 2.959-2.898 6.437m34.824 0c0 1.656.29 3.117.86 4.338a7.6 7.6 0 0 0 2.146 2.712c1.434 1.143 3.472 1.674 6.402 1.674h4.94v-3.238h-4.68c-2.456 0-4.241-.635-5.307-1.886-.749-.882-1.132-2.058-1.146-3.492-.015-1.561.43-2.807 1.315-3.698 1.075-1.083 2.803-1.634 5.138-1.634h4.68V52h-4.776c-1.52 0-2.799.151-3.902.461-1.105.308-2.014.77-2.772 1.413-.871.73-2.9 2.84-2.9 6.557"/></g><defs><clipPath id="clip0_3802_8349"><path fill="#fff" d="M0 0h55.372v69.154H0z"/></clipPath></defs></svg>