<svg fill="none" viewBox="0 0 80 21"><g fill-rule="evenodd" clip-path="url(#clip0_3802_10100)" clip-rule="evenodd"><path fill="#091C5A" d="M.497 5.623c.6 0 1.02.127 1.28.387.29.29.421.77.421 1.557v9.817c0 1.358-.285 1.964-1.967 1.964H0v.603h7.561v-.6l-.228-.003c-1.667-.02-1.948-.622-1.948-1.964V7.566c0-.783.13-1.262.421-1.552.263-.264.69-.392 1.303-.392h.452v-.61H0v.61zm24.183 9.32s-.132-.613-.151-.957V9.503c-.03-2.615.327-3.917-1.961-3.907V5.01h5.264v.587c-2.357-.01-2.06 1.292-2.073 3.907v10.47l-.75-.008L13.641 8.08s.128.612.147.956v7.342c-.065 2.679.267 3.003 1.995 2.971v.612h-5.489v-.612c1.73.002 2.07-.228 2.068-3.19v.178V9.1l-.014-1.149c.065-1.487-.485-2.349-2.163-2.335V5.03h5.053zm19.056-10.22h-.58l-.027.199c-.04.296-.156.792-.494.792a1.7 1.7 0 0 1-.607-.169c-1.175-.508-2.698-.822-3.98-.822-2.495 0-4.758.893-6.374 2.515-1.485 1.49-2.297 3.518-2.286 5.71.01 2.1.837 3.827 2.528 5.282 1.704 1.457 3.613 2.078 6.388 2.078 2.31 0 3.634-.332 5.664-1.42l.355-.193v-3.918c0-1.67.205-1.93 1.565-1.984l.221-.008v-.582h-6.644v.582l.221.008c1.515.059 1.801.33 1.801 1.71v3.63c-1.123.741-1.94 1.023-2.97 1.023a5.46 5.46 0 0 1-3.922-1.628c-1.22-1.22-1.815-2.995-1.815-5.002 0-2.162.576-4.006 1.763-5.191.945-.944 2.2-1.469 3.632-1.469 1.28 0 2.765.549 3.784 1.356.829.678 1.259 1.333 1.583 2.417l.05.164h.567z"/><path fill="#fff" d="M72.837 19.91c.37-.056.761-.047 1.056-.317a4.85 4.85 0 0 0 3.494-.804 7.3 7.3 0 0 0 1.36-1.428c.331-.465.593-.898.762-1.419a6.6 6.6 0 0 0 .301-.998c.356-1.618.17-3.427-.358-4.966a9 9 0 0 0-.327-.826c-.658-1.359-1.553-2.824-2.932-3.684a5.9 5.9 0 0 1-1.93-2.007c-.24-.214-.468-.499-.777-.55.085.14.178.275.2.438l-.017.023c-.328.01-.584-.164-.809-.373l.248-.224c-.094-.047-.2-.065-.304-.09-.943-.107-1.719.328-2.556.538l-.013.046c.514.229.621.794.92 1.177.074-.09.2-.024.304-.032.15.008.29.116.434.078.005-.125-.066-.224-.088-.336.088-.042.196-.005.294 0 .271.158.705-.028.874.336a5 5 0 0 0-.888.155c.019.116.136.209.126.326a3 3 0 0 0-.785-.2l-.014.042c.35.41.832.653 1.322.798.707.163 1.328-.173 2.009-.056 1.674.765 3.103 2.516 3.724 4.178q.046.12.088.243c.52 1.517.62 3.383.098 4.966-.278.658-.584 1.28-1.073 1.814q-.279.343-.613.603c-.701.545-1.566.786-2.458.542-.056-.038-.168-.048-.149-.145q.047-.195.085-.397a9.8 9.8 0 0 0 .177-2.355l-.003-.102a9 9 0 0 0-.707-3.202c-.273-.575-.598-1.201-1.007-1.764-.488-.67-1.094-1.25-1.871-1.54-.477-.126-1.066-.15-1.425.247a.96.96 0 0 0-.327.86 2.94 2.94 0 0 1-1.346.433c-.12.01-.243.055-.369.053q-.177.008-.348-.013c-.592-.073-1.19-.392-1.645-.756-.01-.243-.024-.472-.033-.728-.26-.136-.477-.392-.495-.696l.023-.023c.15.046.28.12.416.2-.06-.364-.131-.723-.312-1.04-.17-.071-.338-.127-.496-.211a.8.8 0 0 1-.326-.54c.163.158.448.102.574.27-.22-.65-.224-1.391-.584-1.984-.182-.439-.66-.64-.986-.961-.127-.155-.177-.37-.406-.393-.187-.047-.201-.256-.234-.392.116.013.214.093.312.111-.27-.717-.509-1.516-1.242-1.974l-.126.08a8 8 0 0 1-.873.07c.126-.186.35-.266.527-.35-.205-.154-.375-.191-.632-.233-.149.149-.42.224-.61.266l-.025-.02c-.005-.167-.043-.372.21-.415-.243-.116-.646-.069-.893 0-.07.182-.27.346-.256.561-.144.15-.247.35-.397.458-.005-.36.148-.691.214-.994-.21.08-.424.191-.63.29a9 9 0 0 0-1.036-.529c-.032-.014-.102-.027-.088.033.304.22.186.63.218.942l-.191-.158c-.094-.238-.363-.41-.41-.671-.318.06-.521.144-.816.27l-.04.024c.22 0 .406.172.513.345-.331.018-.626-.112-.953-.145-.032-.032-.06-.07-.112-.066-.163.061-.304.177-.448.29-.323.317-.65.667-.804 1.088.108.018.243.013.323.079-.178.107-.332.29-.505.392-.06.243-.051.519-.066.784-.135.206-.317.387-.405.617-.29.937-.365 1.978-.323 3.042-.094.09-.216.146-.303.216l.01.951h.022c.042-.2.28-.311.425-.447h.047c-.023.214-.051.43-.056.649l-.27.224c-.272.238-.043.597-.066.896.02.079.032.196.089.215.033-.117.135-.2.201-.304.116-.027.22-.122.327-.135q-.092.35-.234.686a.8.8 0 0 0-.142.117.34.34 0 0 0-.097.172c.211 1.106.542 2.198.92 3.239-.256.434-.402.946-.616 1.394a2 2 0 0 0-.084.191c-.214.543-.28 1.15-.547 1.671a2 2 0 0 0-.345-.182c-.506-.168-1.09-.06-1.458.327a1.25 1.25 0 0 0-.921.168 1.2 1.2 0 0 0-.409.499 1 1 0 0 0-.072.444c-.21.145-.323.368-.392.593-.098.504.079 1.028.369 1.416z"/><path fill="#fff" d="M69.744 9.416c-.005.121-.093.257-.014.36.112-.127.3-.122.449-.178.415-.037.813.093 1.2.187-.097-.154-.163-.326-.27-.466-.216-.056-.543.093-.58-.224-.13-.113-.337-.032-.471-.024-.132.094-.24.21-.314.345m-14.279-4.03-.007-.004v.004zm1.698 4.148.28-.27c.025 0 .043.005.057.024l-.024.518c.135.126.304.168.48.177.015-.14.123-.238.184-.36.051-.097.019-.242.12-.312l.033.032c.033.154.024.327.104.462l.032.234c.205.01.392-.047.55-.122-.009-.177.053-.322.08-.485.043-.057-.052-.159.066-.154.065.14.182.284.247.434.27-.276.383-.635.449-1.008-.08-.108-.201-.108-.295-.177-.794-.257-1.813-.31-2.58.088-.049.318.016.668.217.92m-7.425 8.758c-.028.36 0 .697.023 1.052.075.116.21.252.345.262l.025-.239c.055-.332-.122-.684.065-.964.13.042.26.107.374.168.055-.308-.024-.667-.318-.854zm1.154-.503c-.183.545-.318 1.22-.098 1.794.126-.084.257-.163.368-.28-.022-.44-.083-.908.178-1.272.228.07.383.29.471.504a.86.86 0 0 0 .146-.729c.01-.204-.226-.157-.337-.242.038-.173.032-.373.215-.47l-.56.055c-.145.205-.304.406-.383.64m1.154 1.611c.024.043 0 .117.047.126.07-.391.388-.646.56-.99.084-.117.08-.281.215-.37.183 0 .314.131.491.145.056.042-.029.08-.033.125-.037.319-.158.582-.135.908h.032c.248-.26.416-.543.598-.842l.032-.265c.042-.318-.303-.523-.528-.654l.201-.257-.28-.098a1.28 1.28 0 0 0-.85.425c-.285.523-.331 1.113-.35 1.747m1.257-2.77c.107.033.205-.056.312-.009.43.158.88.322 1.201.681l.384.975.191-.601-.126-.327c-.107-.234-.402-.215-.603-.224-.084-.093.005-.201.033-.29.098-.33-.309-.313-.472-.447.01-.2-.234-.13-.37-.15l-.046-.056c-.027-.042-.097-.042-.135-.01-.01-.013-.028-.022-.018-.046l-.104.024a.66.66 0 0 0-.247.48m.271-1.073c.014.06.05.122.097.159.211-.056.411-.2.654-.113.314.276.64.565 1.02.715l.135-.024c.084.029.177.033.233.126.052.126-.078.201-.121.303.21.154.126.43.258.616l.336-.448c-.079-.196.005-.532-.304-.55a.3.3 0 0 1-.168-.271c-.2-.182-.448-.261-.65-.448-.163-.13-.26-.332-.471-.378a1.8 1.8 0 0 0-.471-.158c-.315-.047-.342.326-.548.471m.448-.919.056.089c.233-.015.445-.117.674-.113.154.094.355.09.513.168.126.173.262.369.448.486.38.056.589.462.72.76v-.144c.056-.2-.005-.434-.08-.616-.094-.094-.229-.155-.327-.239-.019-.06-.005-.088.014-.144-.145-.154-.36-.239-.537-.36-.248-.359-.724-.26-1.103-.359zm-.008-3.424c.042.145.093.327.12.48.13-.289.389-.418.617-.657a1.2 1.2 0 0 0-.438-.159v-.008c-.103.102-.262.204-.299.344m.849 1.535.21-.214c.21-.215.383-.463.416-.738-.15-.089-.345-.028-.49.023-.053.304-.13.603-.136.93m.154.658c.323.018.635.083.897-.098l.261-.84c-.083-.006-.168-.043-.247-.015a2.05 2.05 0 0 1-.911.953m.095-2.979c.21.31.56.655.92.752-.042-.392-.378-.663-.551-.999l-.01-.112a1.7 1.7 0 0 0-.44-.29c-.022.225.04.44.08.65m1.14 3.015c.248.043.514 0 .742-.07.332-.08.515-.444.627-.728h-.416l-.449.438c-.177.094-.346.235-.504.36m-.051-3.44c.07.364.224.695.435 1.009l.056-.696zm1.532 1.816c.028-.234-.07-.504-.096-.742-.141-.094-.338-.084-.482-.177.01.368.298.68.578.919m-.425 2.372c.294-.094.579-.197.85-.347.172-.246.434-.471.471-.76-.215.06-.402-.01-.602.09-.121.218-.197.466-.43.624-.037.158-.21.266-.29.393m.458.574.35.456a.71.71 0 0 0 .585-.065l-.127-.416c-.247.095-.54.066-.808.024m.585-3.305.135.616c.326-.266.393-.653.385-1.064-.187.215-.297.346-.52.448m.92 1.088a.45.45 0 0 0 .08.243c.364.13.401.574.738.742.219.097.47-.024.663-.113-.145-.163-.31-.276-.449-.448-.098-.042-.196-.103-.191-.224zm.289 2.203c.16.182.374.275.598.326-.037-.051.024 0 .033-.032l-.28-.615c-.14.003-.285.032-.416.023.009.101.033.204.065.298m.496-2.876c-.131-.303-.186-.671-.223-1.007-.14.168-.285.275-.416.447-.06.346.433.43.639.56m.57-.317c.168.22.537.145.743.08-.098-.168-.415-.266-.47-.448a4 4 0 0 0-.202-.929c-.163.397-.36.868-.071 1.298m.294.989c.468.341.925.737 1.579.593.047-.033.126-.029.136-.09-.192-.12-.397-.214-.594-.325l-.224-.327h-.102c-.253.084-.525.116-.795.15m.01 3.784h.032c.28-.224.612-.298.944-.392.09.032.033.13.112.168.201-.084.445-.065.65-.135.248.01.45.014.65.121.157.21.457.188.663.327l-.033-.326c-.434-.51-1.112-.547-1.737-.537l-.015-.066a1.1 1.1 0 0 0-.457.099c-.2.008-.392.107-.584.167-.09.178-.16.392-.225.574m.375-5.735c.182.238.452.42.76.359-.157-.154-.34-.318-.35-.537.047-.416-.41-.448-.634-.664.074.281.065.593.224.841m-.048 6.563h.055c.248-.155.608-.038.851-.202.135-.07.144.117.239.168.228.14.256.56.579.463.387.2.29.672.303 1.018l.36-.224c-.033-.182.07-.403-.047-.56-.088-.2-.331-.22-.448-.383.14-.239-.177-.35-.243-.523l.019-.024.494.065c.17.103.23.29.281.463.388.065.482.503.617.784.08-.192.112-.397.192-.583.004-.155-.201-.155-.304-.224a.84.84 0 0 0-.345-.607c-.43-.107-.808-.346-1.28-.346l-.393.122c-.215.051-.444-.014-.607.134-.244.019-.263.286-.323.459m.247-1.924.09.042c.19-.09.382-.191.584-.266.312-.089.555.266.817.042.098-.07.181.033.257.089.112.206.374.191.57.247-.098-.265-.22-.63-.56-.673-.136-.06-.295-.054-.426-.135-.36-.396-.593.327-.986.15-.14.155-.312.299-.346.504"/><path fill="#fff" d="M61.591 17.511c.15.126.303.341.536.313.291.135.17.517.328.718l.168-.15-.014-.008.024-.024.01.014c.046-.14-.02-.388-.099-.55-.107-.075-.233.004-.336-.066-.014-.15-.108-.224-.215-.317-.075-.056-.173.018-.257.014zm.585-5.689c.154.257.452.416.69.593.196.089.453.111.664.065-.2-.163-.383-.35-.551-.547-.065-.093-.08-.21-.168-.293-.22.042-.467.037-.636.182m.258-1.671c.216.266.547.159.85.168v-.032l-.467-.393c-.13.042-.27.159-.383.257M53.832 5.75l.27.84c-.004-.476.215-.873.169-1.358l.201-.3-.426.131c-.112.215-.204.43-.214.687m.182-1.457.369-.214v-.547c-.155.094-.24.253-.36.379z"/><path fill="#fff" d="M61.592 5.143c-.089.117-.224.145-.336.168.196-.36.29-.86.135-1.265.104-.037.216-.055.314-.112l-.01-.01.257-.224c.341-.233.21-.676.337-1.007-.168-.262-.22-.58-.463-.8l.014-.008c-.192-.243-.537-.215-.8-.336-.345-.117-.611.12-.859.28-.107.018-.042.158-.159.154-.065.173-.145.36-.191.55-.463-.065-.963-.013-1.332.248-.197-.144-.435-.173-.664-.238-.168-.032-.36.028-.48-.066-.177-.2-.216-.564-.52-.615-.107-.038-.13-.154-.13-.257-.2-.033-.38-.125-.575-.168-.298-.136-.537.08-.761.224-.098.042-.21.056-.303.112a4.2 4.2 0 0 0-.435.816c.033.238.135.449.258.65.107.303.443.54.728.662a2.75 2.75 0 0 0 0 1.48l-.008.005-.015.013c-.045 0-.092.01-.13-.013h-.005c.065.446.275.836.615 1.17.122.043.094.187.145.28a.22.22 0 0 1 .023.168 3.67 3.67 0 0 0-1.962.49c-.15.075-.083.281-.097.425a3.6 3.6 0 0 1 1.345-.56c.21-.013.448-.065.65-.009l.023.402c-.556.289-1.164.457-1.64.933.009.144-.019.313.023.435l.426-.347c.41-.311.84-.578 1.312-.75.127.149.258.308.426.4q.428-.274.92-.4c.174-.103.448-.01.56-.215l.08-.425c-.014-.01-.023-.027-.047-.022-.219-.127-.364-.346-.345-.603a.6.6 0 0 1-.248.065c-.075-.018-.144-.036-.177-.112-.005-.094-.052-.233.041-.303.304-.187.697-.196 1.08-.168.285.037.697.023.794.36-.013.098-.004.205-.102.27-.103.056-.22-.005-.314-.046-.074.228-.2.486-.458.56l.034.27c.032.123.041.322.234.28.443.108.835.337 1.223.584.131-.131.234-.28.327-.415.691.233 1.29.75 1.86 1.231l.023-.392c-.542-.48-1.145-.82-1.77-1.087.023-.126.051-.248.055-.383a4.6 4.6 0 0 1 2.06.63l-.01-.335c-.644-.346-1.35-.574-2.12-.584a.24.24 0 0 1-.032-.145c.374-.06.64-.448.73-.785.19-.219.466-.457.401-.783l.027-.083c.025-.083.046-.168.018-.244"/><path fill="#fff" d="m62.242 6.343.383-.122.042-.214c.108-.313-.12-.547-.234-.794zm.966 1.479c.183.2.36.523.683.424-.024-.134-.099-.246-.145-.368-.085-.099-.112-.378-.28-.28-.127-.084-.159-.224-.24-.336-.035.172-.013.387-.018.56m.066 1.367c.07.099.09.225.158.313.127.083.314.07.468.056.14-.033.229.121.36.032-.163-.102-.261-.29-.416-.424-.183-.145-.378-.019-.57.023m.248 2.171c.322.191.732.378 1.162.313.046-.024.126-.019.135-.075-.266-.094-.545-.36-.825-.416-.155-.238-.355.061-.551.042.004.056.06.099.079.136m.971 4.12.07.15c.07.486.378.934.21 1.466.14.098.183.26.271.392h.023c.108-.406.033-.826-.023-1.233.042-.368-.332-.583-.551-.774m.08-4.779c.243.187.631.205.91.112-.176-.098-.372-.205-.518-.337zm1.153 1.433c-.024.196.107.36.248.457.051-.117.135-.214.144-.345a.85.85 0 0 0-.336-.518c-.033.13-.07.256-.056.406m.014 2.127c-.032.22.21.248.313.37.084.102-.056.172-.056.27.177.228.28.49.28.794.07-.285.178-.556.216-.85-.019-.205-.345-.163-.294-.392.093-.233-.02-.462-.08-.671-.019-.034-.061-.1-.097-.08-.086.191-.296.326-.281.56m.639-1.111.243.47c.108-.012.177-.116.261-.19.066-.196-.107-.322-.158-.48-.043-.113 0-.262-.08-.36-.06-.037-.131-.098-.201-.08zm.313-1.242c.192.117.411.285.513.49.165.476.426.906.617 1.368.07.322.127.609.216.927.033.082.014.246.145.233.037-.355.107-.696.112-1.065-.117-.153-.272-.219-.416-.313v-.032c.019-.08.084-.173.183-.158.041-.048.167-.094.112-.177-.243-.243-.23-.661-.618-.736-.134-.056-.168-.196-.18-.327-.184-.153-.455-.206-.684-.21m.224 2.53c.238.219.155.536.136.83-.037.178.187.075.257.169.144.215.06.527.009.76.126-.191.271-.36.369-.569-.005-.08.097-.116.094-.214.041-.136-.117-.075-.182-.09-.056-.014-.117-.051-.1-.126.123-.233.01-.513-.036-.746-.056-.192.024-.448-.066-.616-.149.205-.593.252-.481.602m.435-3.314c.416.42.72.842 1.168 1.249.01-.181-.014-.35-.024-.528-.066-.125-.187-.219-.29-.312-.33-.033-.504-.479-.854-.41m1.088 2.225c.01.043.029.08.047.122.182.299.355.606.482.928-.038-.344.196-.775-.113-1.04-.042-.112-.182-.075-.27-.066zm1.122 3.41c.131.06.299-.048.425-.121.117-.029.215.037.304.097.037.075 0 .145.013.215.281.08.556.182.805.345l.078-.079c.019-.2-.14-.344-.29-.457-.097-.057-.243-.024-.312-.113.047-.074.047-.186.042-.27-.155 0-.253-.047-.38-.122-.078-.023-.148-.088-.214 0-.233.16-.247.392-.471.505m.328-5.873a.8.8 0 0 0 .336-.15c.312-.284.765-.093 1.13-.098a2.5 2.5 0 0 0-.257-.36c-.131-.05-.253-.112-.402-.112-.318-.186-.532.127-.776.28-.065.127-.097.313-.032.44m.009.96c0-.013 0-.028.014-.032.042.037-.005.126.066.144.121-.06.233-.144.345-.223.314 0 .5-.303.808-.303.514.093 1.024.196 1.472.447-.032-.303-.294-.578-.56-.714-.15-.052-.267.029-.374.112-.314.197-.15-.284-.37-.294-.284.09-.579.187-.896.16-.187.069-.319.24-.528.223-.01.154-.033.34.023.48m.216 1.042c.097.102.26.083.401.102l.406-.158c.005-.075-.121-.094-.094-.177.113-.126.267-.038.407-.09.197-.027.398-.223.593-.079-.005.023.01.057-.009.08-.061.144.042.232.154.288.23.043.444.253.673.159-.023-.191-.074-.368-.122-.55-.19-.034-.326-.192-.504-.258-.08.075-.182.131-.28.122-.36-.084-.79-.308-1.154-.079-.131.158-.365.112-.542.181.01.16.028.314.07.459m.154 2.774c-.028.079-.107.21.037.247.3.01.683-.144.916.089.08.061.042.186.037.266l.392.327c.038-.196.108-.374.113-.584a.65.65 0 0 0-.238-.392c-.258 0-.407-.3-.683-.262-.144-.034-.27.094-.415.094-.066.066-.103.145-.159.215m.113-2.2c.06.125.13.331.247.345.276-.121.677-.197.986-.065.103.018.103.135.08.21.158.093.35.167.518.27l-.046-.28c-.01-.303-.393-.332-.416-.63a1.85 1.85 0 0 0-.995-.056c-.109.098-.262.084-.393.113-.009.037.014.06.019.093m.08 1.512c.182-.051.297-.252.494-.27a.91.91 0 0 1 .752.382c.113.075.09.267.233.267-.042-.23.033-.44.024-.673-.197-.326-.681-.075-.864-.458l-.345.023c-.248.061-.182.35-.216.547-.028.06-.084.107-.078.182m1.713 2.041c.145.29.463.51.495.841.075-.09.127-.191.178-.29-.005-.093-.113-.093-.155-.167-.042-.121.024-.229.042-.337a.9.9 0 0 0-.368-.438zm.576-.736.336.456c.144-.229.144-.564.088-.84-.032-.052-.093-.136-.177-.098-.127.131-.145.331-.247.481M71.38 3.504c.12.06.238.116.382.125a.5.5 0 0 1 .346-.056c.173.113.383-.023.583-.014-.177-.167-.378-.27-.583-.368-.262.056-.471.242-.729.313m1.828.438c.246.023.424.242.592.426.21.032.37.18.495.335l-.079-.247c-.056-.248-.21-.44-.368-.635-.224.014-.445.033-.64.121"/><path fill="#F60" d="m55.77 1.894.136.014c.364.182.953.275.986.803-.369.145-.724.341-1.018.639-.224-.229-.678-.103-.752-.504.07-.378.205-.853.648-.952m.352 2.367c.424-.037.835.022 1.275-.014.108.046.22.14.27.247-.013.504-.167.985-.19 1.503-.192.08-.38.238-.426.448-.173.051-.327.155-.495.233-.075-.158-.061-.396.07-.526.182-.258.654-.197.616-.603.122-.196.005-.448.01-.654-.047-.153-.093.052-.168.047-.15.032-.304.042-.434-.032-.099-.104-.22-.187-.248-.327-.131-.066-.285-.168-.35-.304zm.513 3.043c.2.028.411-.06.584.037-.038.065-.135.093-.215.112l-.313.145c-.117-.028-.051-.215-.056-.294m.818-3.898c.2-.065.416-.2.63-.134-.154.154-.275.354-.391.54l-.64-.013c.069-.168.246-.308.401-.393m1.874-.153c.265-.047.251.298.494.313.043.056.104.107.08.19-.14.056-.346.029-.505.066-.21-.117-.074-.481-.407-.458-.018-.027-.056-.083-.009-.102.104-.037.238-.023.347-.01m-.168 1.252c.116-.164.294-.177.462-.21l1.21.023c.051.046-.046.088-.046.145-.075.07-.183.088-.248.154-.159.005-.146.19-.258.27-.173.173-.425.094-.626.066a.54.54 0 0 1-.182-.201l-.056.056c.07.261.052.551.102.817l.29.192c.005.429.51.312.73.55-.052.154-.155.285-.266.416a1.6 1.6 0 0 0-.594-.36c-.018-.252-.294-.4-.449-.527-.041-.457-.051-.924-.125-1.368zm.438 2.879h.561l-.07.294-.561-.238c-.013-.047.037-.06.07-.056m1.009-5.287.416-.132c.239.112.463.253.682.41.173.32.145.748.066 1.102-.127.14-.402 0-.505.224h-.019c-.154-.438-.593-.83-1-1.031.066-.224.136-.443.36-.573"/><path fill="#fff" d="M72.844 19.877c.369-.056.761-.047 1.055-.318a4.85 4.85 0 0 0 3.495-.802c.518-.418.983-.9 1.359-1.428.331-.464.594-.899.763-1.419q.188-.483.3-.999c.357-1.617.17-3.426-.356-4.966a9 9 0 0 0-.328-.825c-.658-1.36-1.552-2.824-2.932-3.684a5.9 5.9 0 0 1-1.93-2.007c-.24-.216-.469-.5-.777-.551.085.14.178.275.202.438l-.02.023c-.326.01-.584-.163-.808-.374l.248-.223c-.093-.046-.2-.066-.304-.088-.944-.108-1.719.326-2.555.536l-.014.047c.513.228.62.793.92 1.176.075-.09.202-.024.304-.033.15.01.29.116.434.08.005-.127-.065-.224-.089-.336.089-.043.197-.005.295 0 .27.158.705-.029.874.335a5 5 0 0 0-.888.154c.019.117.135.21.126.327a3 3 0 0 0-.785-.2l-.013.04c.35.412.83.655 1.322.8.705.163 1.326-.173 2.007-.056 1.675.765 3.103 2.516 3.725 4.178q.046.12.088.242c.52 1.517.619 3.384.098 4.966-.278.66-.584 1.28-1.073 1.816a3.8 3.8 0 0 1-.613.602c-.702.546-1.567.786-2.457.541-.056-.036-.169-.046-.15-.144q.047-.195.085-.397a9.8 9.8 0 0 0 .177-2.354l-.004-.103a9 9 0 0 0-.706-3.201c-.273-.575-.598-1.202-1.007-1.765-.488-.671-1.094-1.251-1.871-1.54-.477-.127-1.066-.15-1.425.247a.96.96 0 0 0-.328.859 2.9 2.9 0 0 1-1.345.434c-.12.01-.244.054-.369.053q-.178.008-.348-.014c-.593-.073-1.19-.39-1.646-.756-.01-.242-.024-.471-.033-.727-.26-.136-.475-.393-.494-.696l.024-.023c.149.046.28.12.415.2-.061-.363-.13-.723-.313-1.04-.168-.07-.338-.126-.496-.21a.8.8 0 0 1-.326-.542c.163.16.448.103.574.271-.219-.649-.224-1.39-.584-1.984-.182-.439-.659-.64-.986-.962-.126-.154-.177-.368-.406-.392-.187-.046-.201-.257-.234-.391.117.013.215.093.314.111-.272-.719-.51-1.516-1.243-1.974l-.127.08c-.284.042-.588.06-.873.07.126-.187.35-.266.528-.351-.206-.154-.375-.191-.633-.233-.149.15-.419.223-.61.265l-.023-.018c-.005-.167-.044-.374.208-.415-.242-.117-.644-.07-.892 0-.07.182-.27.345-.257.56-.144.15-.246.35-.397.457-.004-.36.148-.69.214-.994-.21.08-.423.19-.629.29a9 9 0 0 0-1.036-.527c-.032-.015-.103-.029-.089.031.304.22.186.63.219.944l-.192-.159c-.093-.238-.363-.41-.41-.672-.317.06-.52.145-.815.27l-.041.024c.22 0 .406.172.514.345-.332.019-.626-.112-.953-.144-.033-.033-.06-.07-.113-.065-.163.06-.303.177-.448.29-.322.316-.65.667-.803 1.086.108.02.243.015.322.08-.177.107-.331.29-.505.392-.06.243-.051.518-.065.785-.135.205-.318.387-.406.615-.29.938-.365 1.98-.322 3.043-.094.089-.216.146-.304.215l.01.952h.023c.042-.2.28-.312.425-.448h.047c-.023.215-.052.43-.056.65l-.271.223c-.27.238-.042.597-.066.895.02.08.033.197.09.216.032-.117.135-.201.2-.303.117-.03.22-.122.327-.136q-.092.35-.234.686a1 1 0 0 0-.142.116.34.34 0 0 0-.095.174c.21 1.106.54 2.198.92 3.239-.258.433-.404.945-.618 1.393q-.045.094-.084.191c-.214.544-.28 1.15-.547 1.672a2 2 0 0 0-.345-.183c-.506-.167-1.09-.06-1.458.327a1.25 1.25 0 0 0-.921.167 1.23 1.23 0 0 0-.408.5 1 1 0 0 0-.073.444c-.21.145-.323.369-.392.593-.098.504.079 1.028.369 1.416z"/><path fill="#F60" d="M79.46 9.945a9 9 0 0 0-.328-.825c-.658-1.36-1.552-2.824-2.932-3.684a5.9 5.9 0 0 1-1.93-2.007c-.24-.216-.469-.5-.777-.551.085.14.178.275.202.438l-.02.023c-.326.01-.584-.163-.808-.374l.248-.223c-.093-.046-.2-.066-.304-.088-.944-.108-1.719.326-2.555.536l-.014.047c.513.228.62.793.92 1.176.075-.09.202-.024.304-.033.15.01.29.116.434.08.005-.127-.065-.224-.089-.336.089-.043.197-.005.295 0 .27.158.705-.029.874.335a5 5 0 0 0-.888.154c.019.117.135.21.126.327a3 3 0 0 0-.785-.2l-.013.04c.35.412.83.655 1.322.8.705.163 1.326-.173 2.007-.056 1.675.765 3.103 2.516 3.725 4.178q.046.12.088.242c.52 1.517.619 3.384.098 4.966-.278.66-.584 1.28-1.073 1.816a3.8 3.8 0 0 1-.613.602c-.702.546-1.567.786-2.457.541-.056-.036-.169-.046-.15-.144q.047-.195.085-.397a9.8 9.8 0 0 0 .177-2.354l-.004-.103a9 9 0 0 0-.706-3.201c-.273-.575-.598-1.202-1.007-1.765-.488-.671-1.094-1.251-1.871-1.54-.477-.127-1.066-.15-1.425.247a.96.96 0 0 0-.328.859 2.9 2.9 0 0 1-1.345.434c-.12.01-.244.054-.369.053q-.178.008-.348-.014c-.593-.073-1.19-.39-1.646-.756-.01-.242-.024-.471-.033-.727-.26-.136-.475-.393-.494-.696l.024-.023c.149.046.28.12.415.2-.061-.363-.13-.723-.313-1.04-.168-.07-.338-.126-.496-.21a.8.8 0 0 1-.326-.542c.163.16.448.103.574.271-.219-.649-.224-1.39-.584-1.984-.182-.439-.659-.64-.986-.962-.126-.154-.177-.368-.406-.392-.187-.046-.201-.257-.234-.391.117.013.215.093.314.111-.272-.719-.51-1.516-1.243-1.974l-.127.08c-.284.042-.588.06-.873.07.126-.187.35-.266.528-.351-.206-.154-.375-.191-.633-.233-.149.15-.419.223-.61.265l-.023-.018c-.005-.167-.044-.374.208-.415-.242-.117-.644-.07-.892 0-.07.182-.27.345-.257.56-.144.15-.246.35-.397.457-.004-.36.148-.69.214-.994-.21.08-.423.19-.629.29a9 9 0 0 0-1.036-.527c-.032-.015-.103-.029-.089.031.304.22.186.63.219.944l-.192-.159c-.093-.238-.363-.41-.41-.672-.317.06-.52.145-.815.27l-.041.024c.22 0 .406.172.514.345-.332.019-.626-.112-.953-.144-.033-.033-.06-.07-.113-.065-.163.06-.303.177-.448.29-.322.316-.65.667-.803 1.086.108.02.243.015.322.08-.177.107-.331.29-.505.392-.06.243-.051.518-.065.785-.135.205-.318.387-.406.615-.29.938-.365 1.98-.322 3.043-.094.089-.216.146-.304.215l.01.952h.023c.042-.2.28-.312.425-.448h.047c-.023.215-.052.43-.056.65l-.271.223c-.27.238-.042.597-.066.895.02.08.033.197.09.216.032-.117.135-.201.2-.303.117-.03.22-.122.327-.136q-.092.35-.234.686a1 1 0 0 0-.142.116.34.34 0 0 0-.095.174c.21 1.106.54 2.198.92 3.239-.258.433-.404.945-.618 1.393q-.045.094-.084.191c-.214.544-.28 1.15-.547 1.672a2 2 0 0 0-.345-.183c-.506-.167-1.09-.06-1.458.327a1.25 1.25 0 0 0-.921.167 1.23 1.23 0 0 0-.408.5 1 1 0 0 0-.073.444c-.21.145-.323.369-.392.593-.098.504.079 1.028.369 1.416h8.256a2.7 2.7 0 0 1-.319-.517c-.177-.267-.055-.645-.074-.953.168-.339.339-.68.53-1.012l.119-.197.379-.144c.2 0 .37-.145.56-.094.257.257.257-.257.505-.28.58-.075 1.154-.019 1.48.471 0 .066.105.066.08.127-.074.022-.145-.024-.224-.024-.355-.089-.77-.314-1.12-.113q-.022.127-.05.253-.027.135-.04.26c.228.066.42.23.593.407.117-.229.364-.332.584-.407.192.042.402.047.561.169.295.27.15.733.122 1.078.266.149.56.234.83.378-.125.113-.293.159-.447.215l-.448-.089c-.052-.037-.141-.037-.16-.102-.149.158-.331.368-.425.573h6.4a3.4 3.4 0 0 0-.298-.517c-.132-.28-.08-.664-.094-.962l.599-.91c.326-.005.696-.127 1.05-.066a.4.4 0 0 0 .052-.027c.147-.102.192-.338.411-.309.392-.107.692.07.986.248l-.03.06c-.123.198-.354-.022-.522.037-.07.075.033.163.047.248.06.083-.061.074-.103.088a.32.32 0 0 1-.28-.088c-.019-.024-.005-.051-.042-.056-.085.14-.206.266-.239.425.107.103.252.205.304.336.107.154-.084.27-.121.406-.014.027-.057.027-.07 0-.1-.056-.183-.196-.29-.16-.095.416.032.832-.024 1.247.182.043.397-.01.593 0l.08-.877c.083-.57.42-1.046.818-1.48.428-.293.705.285 1.022.486.052.01.033.065.056.097-.005.094-.102.131-.168.16-.197.069-.341-.146-.463-.272-.116.126-.168.294-.303.393l.046.013c.156.155.304.318.338.523a.59.59 0 0 1-.281.463 4.6 4.6 0 0 1-.312-.673c.004.01-.006.014-.015.024-.257.07-.326.358-.369.592.014.23-.159.322-.113.55h3.332c.37-.055.762-.046 1.056-.317a4.85 4.85 0 0 0 3.494-.802 7.4 7.4 0 0 0 1.36-1.428c.33-.465.593-.9.762-1.42q.189-.482.301-.998c.356-1.616.17-3.426-.357-4.965"/><path fill="#F60" d="M58.02 18.608c.181-.117.476-.145.517-.415-.073-.057-.14-.127-.224-.146l-.191.056c.014-.112.075-.238.113-.359l.616-.2c-.085.28-.117.63-.145.952.055.476.126.985.369 1.381h-.664c-.074-.438-.533-.756-.392-1.269m1.435-.56h.037l.448.406.065-.014c-.036.476-.06.943-.065 1.437h-.486c-.098-.461-.262-.947-.242-1.446.083-.126.14-.285.243-.384m.999.449c.09-.116.126-.313.303-.335.127.003.244.022.338.111.163.205.003.468-.056.673a8 8 0 0 1-.281.933h-.472zm7.087-.145c.104.131.136.308.29.425.136-.186.169-.476.103-.714l-.135-.136c.173-.041.355-.055.528-.088-.075.247-.216.471-.192.76.005.421.075.841.112 1.28h-.513c-.187-.412-.374-.803-.36-1.28.055-.084.093-.182.168-.247"/><path fill="#fff" d="M69.751 9.384c-.005.121-.093.256-.014.36.113-.127.3-.122.449-.178.416-.038.813.093 1.2.187-.098-.155-.163-.327-.271-.467-.215-.056-.542.093-.58-.225-.13-.112-.335-.032-.47-.023-.132.094-.24.21-.314.346m-14.28-4.031-.007-.005.001.005zm1.699 4.15.28-.27c.025 0 .043.004.057.022l-.023.518c.135.126.302.167.48.177.014-.14.122-.238.183-.36.051-.097.019-.242.12-.31l.034.031c.032.155.023.327.103.462l.031.233c.206.01.394-.046.552-.121-.01-.177.052-.322.079-.485.043-.056-.052-.16.065-.154.066.14.182.284.248.434.27-.275.384-.634.448-1.008-.079-.107-.2-.107-.294-.177-.794-.257-1.812-.308-2.579.088-.051.317.014.667.216.92m-7.426 8.758c-.028.36 0 .697.023 1.052.075.117.211.252.347.26l.023-.238c.056-.331-.122-.683.066-.963.13.042.261.107.373.168.056-.308-.024-.668-.318-.855zm1.155-.505c-.183.547-.318 1.22-.098 1.795.126-.085.256-.164.368-.28-.023-.44-.084-.907.178-1.272.228.07.383.29.47.503a.86.86 0 0 0 .147-.727c.01-.206-.224-.158-.337-.243.037-.173.032-.372.215-.47l-.56.055c-.145.206-.304.405-.383.64m1.154 1.613c.023.04 0 .116.047.125.07-.392.387-.646.56-.992.084-.115.08-.28.216-.368.181 0 .313.13.49.144.056.043-.029.08-.033.127-.037.318-.158.58-.135.907h.032c.248-.262.416-.543.598-.842l.032-.265c.043-.318-.303-.523-.528-.654l.201-.258-.28-.097a1.27 1.27 0 0 0-.85.425c-.285.522-.332 1.112-.35 1.747M53.31 16.6c.107.031.205-.057.312-.01.43.158.879.321 1.201.68l.383.977.192-.603-.126-.326c-.108-.234-.402-.215-.603-.224-.084-.094.004-.201.033-.29.098-.33-.309-.312-.472-.448.01-.2-.234-.13-.37-.149l-.046-.056c-.028-.043-.098-.043-.136-.01-.008-.013-.027-.023-.018-.046l-.102.023a.66.66 0 0 0-.248.481m.27-1.073c.014.06.051.12.098.158.21-.056.412-.201.654-.112.314.275.64.564 1.02.714l.135-.023c.084.027.177.031.233.126.052.126-.08.2-.12.303.21.154.126.429.256.615l.336-.447c-.078-.196.005-.532-.303-.551a.29.29 0 0 1-.169-.27c-.2-.182-.448-.262-.648-.449-.165-.13-.262-.33-.472-.377a1.7 1.7 0 0 0-.472-.158c-.314-.048-.342.325-.548.47m.45-.919.055.09c.234-.015.444-.117.673-.113.153.093.355.088.513.168.127.173.262.368.448.485.38.056.589.463.72.76v-.143c.056-.201-.005-.435-.079-.617-.094-.094-.23-.154-.327-.237-.02-.061-.005-.09.014-.145-.145-.154-.36-.239-.538-.36-.248-.36-.723-.26-1.102-.36zm-.009-3.424c.042.145.092.327.12.482.13-.29.389-.42.617-.658a1.2 1.2 0 0 0-.438-.159v-.01c-.103.102-.262.206-.299.345m.849 1.536.21-.214c.21-.216.384-.463.415-.738-.149-.089-.345-.028-.49.024-.05.302-.13.6-.135.928m.154.659c.322.018.636.083.897-.1l.262-.839c-.085-.005-.169-.043-.248-.014a2.05 2.05 0 0 1-.911.953m.095-2.978c.21.307.56.652.92.75-.042-.392-.378-.662-.552-.998l-.009-.112a1.7 1.7 0 0 0-.44-.29c-.022.225.04.439.08.65m1.139 3.015c.248.041.515 0 .743-.07.331-.08.514-.444.626-.728h-.416l-.447.438c-.178.093-.346.233-.506.36m-.05-3.44c.07.364.225.695.435 1.008l.056-.695zm1.532 1.816c.028-.234-.07-.505-.097-.742-.14-.094-.336-.085-.481-.178.01.368.297.681.578.92m-.425 2.37c.294-.093.579-.196.85-.345.173-.248.434-.471.472-.76-.216.06-.402-.01-.603.088-.121.22-.197.467-.43.625-.037.158-.21.266-.29.392m.458.574.35.457a.71.71 0 0 0 .584-.065l-.125-.414c-.248.092-.542.065-.809.022m.584-3.304.136.616c.326-.266.394-.653.384-1.064-.186.215-.295.345-.52.448m.921 1.087a.45.45 0 0 0 .079.243c.364.13.402.573.738.741.219.099.472-.023.663-.112-.145-.163-.308-.275-.448-.447-.098-.042-.197-.103-.192-.224zm.29 2.203c.158.182.373.276.597.326-.037-.05.024 0 .033-.032l-.28-.616c-.14.005-.286.033-.416.024q.015.156.066.299m.495-2.875c-.131-.304-.185-.673-.224-1.008-.139.168-.284.275-.415.447-.061.345.433.43.639.56m.569-.318c.17.22.538.146.743.08-.098-.168-.414-.267-.47-.447a4 4 0 0 0-.201-.929c-.164.396-.361.868-.072 1.296m.295.99c.467.34.925.737 1.579.592.046-.032.126-.028.135-.088-.191-.121-.397-.216-.593-.327l-.224-.326h-.102a4 4 0 0 1-.795.149m.009 3.785h.034c.28-.224.611-.3.943-.392.09.033.033.131.113.168.2-.083.444-.065.649-.135.247.009.449.013.65.12.159.211.457.187.663.328l-.033-.327c-.434-.51-1.111-.546-1.738-.537l-.014-.065c-.149 0-.317.032-.457.098-.2.01-.393.107-.584.167-.09.178-.16.394-.226.575m.376-5.736c.181.239.452.421.76.36-.157-.155-.34-.318-.35-.537.047-.415-.41-.449-.634-.663.075.28.065.593.224.84m-.048 6.562h.056c.247-.154.607-.037.85-.2.135-.07.145.117.238.168.23.14.258.56.58.462.387.2.29.672.303 1.017l.36-.224c-.033-.182.07-.401-.047-.56-.088-.2-.332-.219-.448-.382.14-.238-.178-.35-.244-.523l.02-.023.495.065c.168.102.23.29.28.462.388.066.481.504.617.784.08-.191.112-.397.191-.584.005-.154-.2-.154-.303-.224a.83.83 0 0 0-.346-.606c-.43-.108-.807-.345-1.28-.345l-.392.12c-.215.052-.444-.013-.608.136-.243.018-.261.285-.322.457m.247-1.923.09.043c.191-.089.382-.192.584-.267.312-.088.555.267.817.042.098-.069.182.033.256.09.114.205.375.19.572.246-.099-.265-.22-.63-.562-.672-.135-.06-.294-.055-.424-.135-.36-.396-.594.327-.987.15-.14.153-.313.299-.346.503"/><path fill="#fff" d="M61.598 17.479c.15.126.304.34.538.312.289.135.168.518.326.72l.168-.15-.014-.01.023-.023.01.013c.047-.14-.019-.387-.098-.55-.107-.075-.233.004-.336-.066-.014-.15-.108-.224-.215-.317-.075-.057-.173.018-.257.013zm.585-5.689c.153.256.452.415.69.592.197.088.453.112.664.065a4.3 4.3 0 0 1-.551-.546c-.066-.094-.08-.211-.168-.294-.22.042-.468.037-.636.182m.258-1.67c.215.266.547.159.85.168v-.033l-.467-.392c-.13.042-.27.158-.383.257m-8.6-4.402.27.84c-.005-.476.215-.873.168-1.358l.2-.3-.425.132c-.112.215-.205.43-.214.686m.182-1.456.37-.214V3.5c-.156.093-.24.253-.36.378z"/><path fill="#fff" d="M61.6 5.11c-.09.117-.225.145-.337.168.197-.359.29-.858.136-1.265.102-.037.214-.056.312-.112l-.01-.01.258-.223c.34-.234.21-.677.336-1.008-.168-.261-.22-.579-.462-.798l.014-.01c-.192-.243-.538-.214-.8-.335-.346-.117-.612.12-.86.28-.107.018-.041.158-.158.153-.066.173-.146.36-.193.551-.462-.065-.962-.014-1.33.247-.198-.145-.435-.172-.664-.237-.168-.034-.36.027-.48-.066-.178-.2-.216-.565-.52-.616-.108-.038-.13-.154-.13-.257-.201-.033-.38-.126-.575-.168-.299-.136-.537.08-.761.224-.1.041-.21.056-.304.112a4.4 4.4 0 0 0-.435.816c.033.238.136.448.258.65.107.303.443.54.728.663a2.74 2.74 0 0 0 0 1.478s-.008.007-.008.005l-.015.014c-.044 0-.092.01-.129-.013h-.006c.067.446.277.836.616 1.17.122.043.094.188.144.28a.22.22 0 0 1 .024.169 3.67 3.67 0 0 0-1.963.49c-.149.075-.083.28-.097.425a3.6 3.6 0 0 1 1.345-.56c.21-.014.448-.066.65-.01l.023.402c-.556.29-1.164.457-1.64.934.01.144-.019.311.023.433l.426-.345c.411-.313.841-.579 1.312-.752.127.15.258.31.426.402a3.2 3.2 0 0 1 .92-.402c.173-.102.45-.009.562-.214l.078-.425c-.013-.01-.023-.028-.046-.024-.22-.126-.364-.345-.346-.601a.6.6 0 0 1-.247.064c-.074-.018-.145-.037-.177-.112-.005-.093-.052-.233.042-.302.303-.187.696-.197 1.079-.169.284.038.696.023.795.36-.014.098-.005.206-.104.27-.102.056-.219-.005-.313-.047-.074.23-.2.486-.457.56l.032.27c.032.123.042.323.234.28.443.109.836.337 1.224.584.131-.13.233-.28.326-.415.693.234 1.29.752 1.86 1.233l.023-.392c-.542-.482-1.144-.822-1.77-1.088.023-.126.051-.247.056-.383a4.6 4.6 0 0 1 2.06.63l-.01-.336c-.644-.346-1.35-.574-2.12-.583a.23.23 0 0 1-.033-.145c.374-.06.64-.447.73-.784.191-.219.467-.457.401-.783l.028-.085c.024-.08.045-.166.018-.242"/><path fill="#fff" d="m62.248 6.31.383-.121.043-.214c.107-.314-.122-.547-.234-.794zm.967 1.479c.183.201.36.523.683.425-.024-.136-.1-.248-.145-.37-.084-.097-.113-.377-.28-.279-.127-.084-.159-.224-.24-.336-.035.173-.013.387-.018.56m.065 1.367c.071.098.09.225.16.314.126.083.313.069.468.055.139-.032.228.121.358.033-.163-.103-.26-.29-.414-.425-.183-.144-.379-.018-.571.023m.248 2.171c.322.191.732.378 1.162.313.046-.023.126-.018.135-.074-.266-.094-.546-.36-.825-.416-.155-.238-.356.061-.552.042.005.056.06.097.08.135m.97 4.121.07.15c.071.485.378.932.21 1.465.14.098.183.261.272.392h.023c.107-.405.033-.826-.023-1.232.042-.369-.332-.583-.552-.775m.081-4.779c.242.187.63.205.91.112-.177-.098-.373-.206-.518-.336zm1.153 1.432c-.023.197.107.36.248.459.051-.117.134-.216.144-.346a.86.86 0 0 0-.337-.519c-.031.131-.07.257-.055.406m.014 2.129c-.033.22.21.248.312.369.084.103-.056.173-.056.27.178.23.281.49.281.794.07-.285.177-.555.215-.85-.02-.205-.346-.162-.295-.391.094-.234-.018-.462-.08-.673-.017-.032-.06-.098-.096-.078-.085.19-.295.326-.28.56m.639-1.111.243.47c.107-.014.177-.116.26-.191.066-.196-.107-.322-.157-.481-.043-.112 0-.261-.08-.359-.061-.038-.13-.099-.2-.08zm.313-1.243c.191.117.41.285.514.49.163.477.425.905.616 1.368.07.322.126.61.215.926.033.085.014.248.145.234.037-.355.107-.696.112-1.065-.117-.154-.27-.219-.416-.312v-.033c.02-.079.085-.173.183-.158.041-.047.168-.093.112-.177-.243-.243-.23-.66-.616-.735-.136-.056-.168-.197-.182-.327-.183-.155-.454-.206-.684-.21m.226 2.529c.237.22.154.537.135.831-.037.178.187.074.257.168.145.215.061.528.01.76.126-.191.27-.359.368-.57-.004-.078.099-.116.094-.214.042-.135-.117-.074-.182-.088-.056-.014-.117-.052-.098-.127.12-.233.01-.513-.038-.746-.056-.192.024-.448-.066-.616-.15.206-.594.252-.48.602m.434-3.313c.416.42.72.842 1.168 1.249.009-.183-.014-.35-.023-.528-.066-.126-.188-.219-.29-.313-.332-.032-.505-.478-.855-.408m1.088 2.224c.01.043.028.08.047.12.182.3.355.608.482.93-.038-.346.195-.774-.114-1.04-.041-.114-.18-.076-.27-.067zm1.121 3.409c.131.06.3-.047.426-.121.117-.028.214.038.304.098.037.074 0 .145.014.215.28.079.555.182.803.345l.078-.08c.02-.2-.139-.345-.29-.457-.097-.056-.242-.023-.312-.112.047-.075.047-.187.042-.27-.154 0-.252-.048-.378-.122-.08-.023-.15-.09-.215 0-.234.158-.248.392-.472.504m.328-5.873c.117-.033.238-.066.336-.15.314-.285.766-.093 1.131-.098a2.6 2.6 0 0 0-.257-.36c-.132-.05-.253-.111-.402-.111-.318-.187-.532.126-.776.28-.066.126-.098.312-.032.44m.008.96c0-.014 0-.029.014-.032.043.037-.004.126.066.144.122-.06.234-.144.346-.224.313 0 .5-.303.808-.303.514.093 1.023.197 1.471.447-.032-.302-.294-.578-.56-.713-.15-.052-.267.028-.374.112-.312.197-.15-.285-.368-.294-.286.088-.58.187-.898.158-.187.07-.318.243-.528.224-.009.155-.032.342.023.481m.216 1.04c.098.104.261.085.402.104l.406-.16c.005-.073-.121-.093-.093-.176.112-.127.266-.037.406-.089.196-.028.397-.223.593-.08-.006.024.009.056-.01.08-.06.145.042.234.155.29.229.041.443.252.672.158-.023-.192-.074-.368-.12-.551-.192-.032-.328-.191-.505-.257-.08.075-.183.13-.281.121-.36-.084-.79-.308-1.154-.079-.131.16-.365.112-.542.182.01.159.029.313.071.457m.154 2.775c-.028.08-.107.21.038.248.299.009.682-.146.916.088.079.06.041.187.036.266l.392.327c.038-.197.109-.374.114-.584a.66.66 0 0 0-.239-.392c-.258 0-.406-.3-.683-.263-.144-.032-.27.096-.415.096-.065.065-.103.144-.159.214m.112-2.2c.06.126.131.331.248.345.275-.12.678-.196.986-.065.102.018.102.135.08.21.158.093.35.168.518.27l-.047-.28c-.01-.303-.392-.331-.416-.63a1.85 1.85 0 0 0-.995-.056c-.107.098-.262.085-.392.112-.01.038.013.062.018.093m.08 1.513c.182-.052.299-.252.495-.27a.92.92 0 0 1 .752.383c.112.074.089.265.234.265-.043-.228.032-.438.022-.672-.195-.326-.681-.074-.863-.457l-.346.023c-.248.061-.182.35-.214.547-.029.06-.085.107-.08.181m1.714 2.042c.145.289.463.508.495.84.075-.089.127-.191.178-.29-.005-.093-.113-.093-.154-.168-.043-.12.022-.228.041-.336a.9.9 0 0 0-.368-.439zm.576-.738.335.458c.145-.228.145-.565.089-.84-.032-.052-.094-.136-.177-.098-.126.13-.145.331-.248.48M71.386 3.471c.121.06.238.117.384.126a.48.48 0 0 1 .345-.056c.173.113.383-.023.584-.014-.177-.168-.38-.27-.584-.369-.262.056-.471.243-.729.313m1.827.438c.247.023.425.243.593.425.21.032.369.182.494.336l-.078-.247c-.056-.248-.211-.44-.37-.636-.223.015-.444.034-.64.122"/><path fill="#F60" d="m55.778 1.862.136.015c.363.182.951.275.986.802-.37.145-.725.34-1.02.64-.224-.229-.677-.103-.752-.504.07-.38.205-.855.65-.953m.351 2.368c.425-.039.836.022 1.275-.015a.55.55 0 0 1 .27.247c-.014.504-.167.985-.19 1.503-.192.078-.38.238-.426.448-.173.05-.328.153-.496.232-.073-.158-.06-.396.07-.527.183-.257.655-.197.618-.603.121-.195.005-.448.008-.652-.046-.155-.093.05-.167.046-.15.032-.303.041-.435-.034-.098-.102-.218-.187-.247-.326-.132-.065-.285-.167-.35-.303zm.513 3.04c.2.03.411-.06.584.039-.037.066-.135.093-.215.112l-.313.144c-.117-.027-.051-.214-.056-.294m.818-3.897c.2-.065.415-.2.63-.135-.154.154-.275.354-.392.541l-.64-.014c.07-.168.248-.307.401-.392m1.874-.154c.266-.046.252.3.495.312.043.056.104.108.08.192-.141.056-.346.029-.505.065-.21-.116-.074-.48-.406-.457-.019-.028-.056-.084-.01-.103.103-.037.24-.023.346-.008m-.168 1.249c.117-.163.295-.177.463-.209l1.21.022c.051.048-.047.09-.047.146-.074.07-.182.089-.247.154-.16.004-.145.191-.257.271-.173.173-.426.093-.627.065a.55.55 0 0 1-.182-.2l-.056.055c.07.262.052.551.104.817l.29.192c.003.429.508.312.727.55-.051.155-.154.285-.266.416a1.6 1.6 0 0 0-.593-.36c-.019-.25-.294-.4-.448-.527-.042-.457-.051-.924-.126-1.368zm.439 2.88h.561l-.07.294-.562-.238c-.013-.046.038-.06.071-.055m1.009-5.288.416-.13c.239.111.462.25.682.41.173.317.145.747.066 1.101-.127.14-.402 0-.505.224h-.02c-.153-.438-.592-.831-.999-1.03.066-.225.136-.445.36-.575"/></g><defs><clipPath id="clip0_3802_10100"><path fill="#fff" d="M0 0h80v20.308H0z"/></clipPath></defs></svg>