<svg fill="none" viewBox="0 0 80 13"><g clip-path="url(#clip0_3802_10097)"><path fill="#000" d="M57.436 3.892V2.44h2.196c.681 0 .722.34.722.696 0 .401-.078.755-.722.755zm0 .883h2.333c.147 0 .814-.062.814.76s-.536.78-.771.78h-2.376zM56.42 1.513v5.73h3.637c.866 0 1.59-.29 1.59-1.56-.006-.773-.272-1.28-1.213-1.408 0 0 1.002-.085 1.002-1.29 0-1.347-.825-1.472-1.348-1.472zM33.386 4.452s.866-.128.866-1.384c0-1.252-1.223-1.565-1.83-1.565H28.94v5.74h1.074V2.371h2.155c.172 0 1.017-.057 1.017.823 0 .916-.993.83-.993.83h-1.346v.868h1.332c.382 0 .92-.007.92.876v1.475h1.06V5.656c0-1.024-.773-1.204-.773-1.204m6.138-2.949v3.768c0 .732-.16 1.183-1.674 1.183-1.513 0-1.71-.426-1.71-1.183V1.503h-1.082v3.905c0 .637.034 1.954 2.76 1.954 2.729 0 2.782-1.233 2.782-1.954V1.503zm3.75 2.317c-.606-.066-.857-.244-.857-.635 0-.473.193-.896 1.601-.896 1.451 0 1.638.386 1.638 1.127h1.037c0-.622-.029-2.012-2.643-2.012-2.54 0-2.662 1.226-2.662 1.913s.524 1.205 1.472 1.312c1.806.203 2.96.15 2.96.883 0 .526-.156.953-1.661.953s-1.702-.388-1.702-1.136h-1.07c0 .631.03 2.033 2.74 2.033s2.767-1.367 2.767-1.9c0-1.555-2.017-1.473-3.62-1.643M17.196 7.364c2.724 0 2.72-1.402 2.72-1.975V1.503h-2.544v.854h1.47V5.25c0 .85-.354 1.218-1.66 1.218-1.63 0-1.634-.601-1.634-1.62h-.99c0 .938-.218 2.516 2.638 2.516m7.713-4.993v4.874h1.077V2.371h2.229v-.868h-5.53v.868zm24.514 0v4.874h1.076V2.371h2.228v-.868h-5.533v.868zM63.85 5.056l.973-2.653.972 2.653zm2.288.914.475 1.273h1.21l-2.276-5.73h-1.44l-2.286 5.73h1.224l.47-1.273zm9.629-4.457h-1.06v5.73h1.06zM80 7.243 77.209 4.29l2.659-2.777H78.47L75.897 4.29l2.673 2.953zm-7.982 0h1.668v-5.73h-1.052v4.743l-2.682-4.743h-1.67v5.73h1.063v-4.71z"/><path fill="#009EE3" d="M11.828 4.084C11.828 1.83 9.926 0 7.58 0 5.97 0 4.57.86 3.85 2.125a5 5 0 0 1 .384-.016c2.347 0 4.249 1.829 4.249 4.085 0 .714-.188 1.38-.52 1.962 2.166-.185 3.866-1.937 3.866-4.072"/><path fill="#009EE3" d="M7.306 8.73c-.047.033-.098.059-.149.086q-.18.092-.375.16c-.177.06-.36.1-.54.123a2.65 2.65 0 0 1-2.119-.67 2.3 2.3 0 0 1-.57-.836c-.382-.976-.013-2.036.835-2.644-1.29.46-1.965 1.814-1.539 3.057q-.05-.071-.095-.144a2.75 2.75 0 0 1 1.031-3.818 2.927 2.927 0 0 1 3.81.872L7.58 4.89c-.974-1.644-3.124-2.214-4.796-1.275a3.37 3.37 0 0 0-1.714 2.5 3 3 0 0 1-.123-.85c0-1.605 1.263-2.93 2.902-3.14C1.687 2.318 0 4.063 0 6.189c0 2.253 1.902 4.082 4.245 4.082 1.61 0 3.01-.862 3.73-2.133-.18.232-.405.434-.67.592"/><path fill="#000" d="M54.936 8.426v1.041c.753.193 1.458.517 2.128.895l-.295.583c-.384-.252-1.331-.756-1.833-.886v2.07h-.618V8.427zm6.491 1.15c-.147 1.315-.593 2.314-2.858 2.503l-.169-.52c1.902-.085 2.205-.84 2.344-1.458h-2.85v-.525zm-.251-.47H58.2V8.58h2.975zm1.107 2.524c.97-.361 1.959-1.214 2.435-2.423h-2.184v-.538h2.958c-.057.273-.187.903-.796 1.743.528.395.99.781 1.44 1.214l-.489.466a12.4 12.4 0 0 0-1.297-1.256c-.48.537-1.05.991-1.725 1.26zm6.275-3.204v1.041c.752.193 1.457.517 2.127.895l-.294.583c-.385-.252-1.332-.756-1.833-.886v2.07h-.619V8.427zm4.393 3.519a24 24 0 0 1-1.638.24l-.06-.492c.137-.012.293-.021.721-.072v-1.087h-.705v-.462h.705v-.307h-.393v-.243a2 2 0 0 1-.23.18l-.155-.525c.371-.252.579-.495.782-.882h.528c.199.345.354.525.67.74l-.298.428c-.03-.021-.043-.034-.057-.042v.344h-.389v.307h.632v.462h-.632v1.029c.096-.013.58-.084.632-.093l.008.248c.039-.004.065-.004.138-.017V8.396h1.98v1.945h-.769c.017.122.044.26.125.47.255-.164.39-.307.48-.408l.312.4c-.078.07-.247.226-.58.41.217.316.459.493.636.619l-.333.453c-.246-.172-.908-.63-1.107-1.944h-.233v1.28c.32-.058.441-.083.6-.121v.479c-.604.15-1.136.226-1.335.255zm-1.245-1.24c.043.152.108.48.13.723l-.398.076c-.005-.34-.095-.668-.112-.73zm1.007-1.38a2.6 2.6 0 0 1-.466-.585c-.083.135-.173.294-.459.584zm.299 1.402a4 4 0 0 1-.13.66l-.333-.064a3.7 3.7 0 0 0 .1-.642zm.709-1.55h.96v-.332h-.96zm0 .73h.96v-.343h-.96zm3.403-1.486c-.16.324-.553.865-1.102 1.202l-.277-.513c.16-.088.536-.298.895-.865zm.13.92c-.065.139-.169.374-.467.764v2.155h-.545v-1.558c-.16.143-.22.18-.311.239l-.177-.609c.453-.307.8-.735 1.054-1.213zm2.629.273v.508h-.632v1.747c0 .286-.108.387-.432.387h-.865l-.095-.555h.704c.1 0 .14-.016.14-.122v-1.457h-1.48v-.508zm-.164-.655H77.4v-.504h2.318zm-28.804 3.265c1.75 0 1.747-.905 1.747-1.274V8.44h-1.634v.552h.944v1.866c0 .55-.227.789-1.066.789-1.048 0-1.052-.39-1.052-1.047h-.635c0 .606-.14 1.624 1.696 1.624"/></g><defs><clipPath id="clip0_3802_10097"><path fill="#fff" d="M0 0h80v12.285H0z"/></clipPath></defs></svg>