<svg fill="none" viewBox="0 0 80 13"><g clip-path="url(#clip0_3802_16455)"><path fill="url(#paint0_linear_3802_16455)" d="M2.816.914c0-.377.322-.764.924-.764v.011h3.224c.462 0 .85.333.892.731v5.535c.02 2.083-1.463 3.497-3.712 3.632h-.67C1.551 9.925 0 8.547 0 6.771c0-.495.462-.86.892-.86.462 0 .86.247.903.817.054 1.085.849 1.805 1.988 1.805 1.408 0 2.364-.849 2.364-2.117V1.687H3.74c-.602 0-.924-.397-.924-.773"/><path fill="url(#paint1_linear_3802_16455)" fill-rule="evenodd" d="M12.07 1.967c-2.148 0-3.623 1.497-3.762 3.687v.728c.124 2.137 1.328 3.552 3.249 3.688h.589c.7-.053 1.491-.302 2.115-.784.065.387.355.644.86.644s.87-.322.87-.795V2.913c0-.473-.354-.796-.87-.796-.494 0-.784.247-.86.613a3.74 3.74 0 0 0-2.192-.763m.128 1.547c-1.29 0-2.15 1.043-2.15 2.494v.01c0 1.516.796 2.515 2.01 2.515.903 0 1.838-.397 2.193-1.182V4.697c-.387-.753-1.258-1.183-2.053-1.183" clip-rule="evenodd"/><path fill="url(#paint2_linear_3802_16455)" d="M17.979 9.909c-.387-.056-.708-.326-.708-.774V.785c0-.527.44-.785.87-.785s.87.269.87.785v4.234l2.838-2.655c.183-.16.451-.247.645-.247.494 0 .892.366.892.785 0 .193-.108.397-.322.59l-2.408 2.129 2.73 2.966c.516.645-.022 1.322-.634 1.322a.92.92 0 0 1-.699-.333l-2.59-2.88-.44.397v2.042c0 .448-.347.718-.74.774z"/><path fill="url(#paint3_linear_3802_16455)" fill-rule="evenodd" d="M28.523 10.07c-3.01 0-5.03-2.01-5.03-5.03S25.578 0 28.523 0s4.933 1.977 4.976 4.933v.215c-.043 2.966-1.967 4.922-4.976 4.922m-.01-8.5c-1.924 0-3.214 1.385-3.214 3.47 0 2.064 1.3 3.461 3.213 3.461s3.182-1.386 3.182-3.46c0-2.075-1.258-3.472-3.182-3.472" clip-rule="evenodd"/><path fill="url(#paint4_linear_3802_16455)" d="M36.164 2.947V2.87c0-.473-.44-.753-.87-.753s-.87.28-.87.785v6.233c0 .495.365.785.902.785.538 0 .838-.29.838-.785v-3.02c0-1.795 1.591-2.622 2.386-2.622 1.3 0 1.881.86 1.881 2.128v3.493c0 .473.355.795.87.795.549 0 .871-.322.871-.795V5.653c0-2.085-1.127-3.548-3.068-3.686h-.616c-.718.05-1.56.291-2.324.98"/><path fill="url(#paint5_linear_3802_16455)" fill-rule="evenodd" d="M43 5.822v.688c.144 2.125 1.736 3.56 4.03 3.56 1.01.022 2.053-.226 2.773-.924.86-.817-.215-1.978-1.15-1.129a2.73 2.73 0 0 1-1.666.538 2.265 2.265 0 0 1-2.225-1.688h5.105c.87 0 .967-.419.967-.924-.01-2.375-1.397-3.987-3.847-3.987-2.332 0-3.847 1.557-3.987 3.866m6.212-.32c-.108-1.203-.764-2.02-2.204-2.02-1.203 0-2.042.806-2.257 2.02z" clip-rule="evenodd"/><path fill="url(#paint6_linear_3802_16455)" fill-rule="evenodd" d="M59.7.15h-3.487c-.492.003-.886.325-.886.796v8.2c0 .505.43.763.87.763s.892-.247.892-.785V7.19h2.203c2.58 0 4.073-1.376 4.073-3.45 0-1.973-1.342-3.45-3.665-3.59m-.343 1.516h-2.268v4.02h2.203c1.505 0 2.332-.764 2.332-1.935 0-1.258-.816-2.085-2.267-2.085" clip-rule="evenodd"/><path fill="url(#paint7_linear_3802_16455)" fill-rule="evenodd" d="M66.905 10.07c-2.031-.144-3.26-1.718-3.26-4.062l-.01-.011c0-2.375 1.515-4.03 3.771-4.03a3.74 3.74 0 0 1 2.193.763c.075-.366.365-.613.86-.613.516 0 .87.323.87.796v6.222c0 .473-.365.795-.87.795s-.796-.257-.86-.644c-.615.482-1.405.731-2.105.784zm.63-6.556c-1.29 0-2.149 1.043-2.149 2.494v.01c0 1.516.795 2.515 2.01 2.515.903 0 1.838-.397 2.192-1.182V4.697c-.387-.753-1.257-1.183-2.053-1.183" clip-rule="evenodd"/><path fill="url(#paint8_linear_3802_16455)" d="M74.767 12.67c.285-.067.542-.29.71-.6l4.471-8.781c.215-.613-.279-1.15-.795-1.15a.86.86 0 0 0-.806.537v-.021l-2.364 4.632-2.365-4.611c-.15-.322-.494-.548-.816-.548-.549 0-1.075.602-.796 1.214l3.02 5.836-1.16 2.3c-.278.545.082 1.08.543 1.193z"/></g><defs><linearGradient id="paint0_linear_3802_16455" x1="78.09" x2="78.09" y1="-54327.1" y2="-54453.5" gradientUnits="userSpaceOnUse"><stop stop-color="#D9672C"/><stop offset=".406" stop-color="#F99F57"/><stop offset="1" stop-color="#FCCDA2"/></linearGradient><linearGradient id="paint1_linear_3802_16455" x1="78.09" x2="78.09" y1="-54327.1" y2="-54453.5" gradientUnits="userSpaceOnUse"><stop stop-color="#D9672C"/><stop offset=".406" stop-color="#F99F57"/><stop offset="1" stop-color="#FCCDA2"/></linearGradient><linearGradient id="paint2_linear_3802_16455" x1="78.09" x2="78.09" y1="-54327.1" y2="-54453.5" gradientUnits="userSpaceOnUse"><stop stop-color="#D9672C"/><stop offset=".406" stop-color="#F99F57"/><stop offset="1" stop-color="#FCCDA2"/></linearGradient><linearGradient id="paint3_linear_3802_16455" x1="78.09" x2="78.09" y1="-54327.1" y2="-54453.5" gradientUnits="userSpaceOnUse"><stop stop-color="#D9672C"/><stop offset=".406" stop-color="#F99F57"/><stop offset="1" stop-color="#FCCDA2"/></linearGradient><linearGradient id="paint4_linear_3802_16455" x1="78.09" x2="78.09" y1="-54327.1" y2="-54453.5" gradientUnits="userSpaceOnUse"><stop stop-color="#D9672C"/><stop offset=".406" stop-color="#F99F57"/><stop offset="1" stop-color="#FCCDA2"/></linearGradient><linearGradient id="paint5_linear_3802_16455" x1="78.09" x2="78.09" y1="-54327.1" y2="-54453.5" gradientUnits="userSpaceOnUse"><stop stop-color="#D9672C"/><stop offset=".406" stop-color="#F99F57"/><stop offset="1" stop-color="#FCCDA2"/></linearGradient><linearGradient id="paint6_linear_3802_16455" x1="78.09" x2="78.09" y1="-54327.1" y2="-54453.5" gradientUnits="userSpaceOnUse"><stop stop-color="#D9672C"/><stop offset=".406" stop-color="#F99F57"/><stop offset="1" stop-color="#FCCDA2"/></linearGradient><linearGradient id="paint7_linear_3802_16455" x1="78.09" x2="78.09" y1="-54327.1" y2="-54453.5" gradientUnits="userSpaceOnUse"><stop stop-color="#D9672C"/><stop offset=".406" stop-color="#F99F57"/><stop offset="1" stop-color="#FCCDA2"/></linearGradient><linearGradient id="paint8_linear_3802_16455" x1="78.09" x2="78.09" y1="-54327.1" y2="-54453.5" gradientUnits="userSpaceOnUse"><stop stop-color="#D9672C"/><stop offset=".406" stop-color="#F99F57"/><stop offset="1" stop-color="#FCCDA2"/></linearGradient><clipPath id="clip0_3802_16455"><path fill="#fff" d="M0 0h80v12.671H0z"/></clipPath></defs></svg>