<svg fill="none" viewBox="0 0 80 18"><g clip-path="url(#clip0_3802_10091)"><path fill="#00A4DE" fill-rule="evenodd" d="M29.859 13.077c0 1.51-.958 2.362-3 2.426V17.8c2.319 0 5.255-1.255 5.255-4.724V1.814H29.86zM43.17 6.665c0-1.788-.979-5.065-4.597-5.065-3.426 0-4.596 2.873-4.596 5.852s1.191 5.852 5.129 5.852c1.063 0 2.425-.255 3.979-1.362l-1.15-1.787c-.978.617-1.915.936-2.83.936-1.745 0-2.553-1.191-2.745-2.426h4.746c1.404 0 2.064-.553 2.064-2m-6.831-.213c.149-1.404.745-2.639 2.234-2.639 1.49 0 2.086 1.235 2.235 2.64zM49.304 1.6c-2.81 0-4.257 2.32-4.257 2.32v9.257h2.256V4.664s.703-.85 2-.85c1.427 0 2.214 1.17 2.214 2.213v7.15h2.256v-7.15c0-2.15-1.511-4.427-4.47-4.427m6.972.128h2.256v11.449h-2.256zm19.318 4.511h.022c-.766-.212-1.767-.595-1.767-1.383 0-.574.596-1.043 1.724-1.043s2.405.511 2.894.745l.724-2.021c-.745-.384-2.256-.937-3.618-.937-1.958 0-4 1-4 3.256 0 2.086 1.83 3.128 3.639 3.575.978.213 2.212.617 2.212 1.426 0 .851-1 1.234-1.978 1.234-.958 0-2.278-.617-3.278-1.149l-.872 2.107c.957.49 2.362 1.213 4.15 1.256 2.064 0 4.234-.98 4.234-3.448 0-2.383-2.383-3.192-4.086-3.618m-8.028 2.64c0 1.038-.782 2.204-2.2 2.211-1.416-.007-2.198-1.173-2.198-2.212v-7.15h-2.256v7.15c0 2.143 1.501 4.411 4.441 4.426h.028c2.94-.014 4.44-2.283 4.44-4.426v-7.15h-2.255zM12.044 0C9.877 0 6.797.939 4.98 3.214 2.1 4.471 0 7.281 0 10.35c0 4.762 4.055 7.606 8.943 7.606.804 0 1.57-.178 2.285-.359q.791.126 1.637.127c4.613 0 8.678-3.74 8.678-8.625C21.543 4.054 17.534 0 12.044 0M8.737 3.649c2.319 0 4.118 2.282 4.118 4.32 0 2.755-1.683 4.603-4.033 4.603-2.11 0-3.989-1.955-3.989-4.733 0-2.29 1.703-4.19 3.904-4.19m-.31 13.449c-3.193 0-6.568-3.088-6.568-6.937 0-1.878.59-3.756 2.082-5.018-.268.553-.446 1.218-.518 2.011a7 7 0 0 0-.057.896c0 4.157 2.278 7.603 5.841 9.002q-.387.046-.78.046m2.393-.435c-2.676-.525-4.87-2.552-5.818-4.951.938.916 2.274 1.544 3.975 1.544 2.722 0 5.31-2.084 5.31-5.178 0-1.519-.537-2.513-.537-2.513 1.134 1.152 1.852 2.77 1.852 4.742 0 2.772-2.075 5.357-4.783 6.356m2.646.015c2.18-1.303 3.537-3.53 3.537-5.953 0-5.397-5.263-7.331-5.263-7.331-.967-.57-2.159-.874-3.483-.874-.1 0-.273.002-.373.006A8.2 8.2 0 0 1 12.74.891c4.117 0 7.232 3.908 7.232 7.567 0 4.254-3.011 7.554-6.505 8.22" clip-rule="evenodd"/></g><defs><clipPath id="clip0_3802_10091"><path fill="#fff" d="M0 0h79.68v17.955H0z"/></clipPath></defs></svg>