<svg fill="none" viewBox="0 0 80 6"><g clip-path="url(#clip0_3802_8450)"><path fill="#000" d="M64.669 0q-.464 0-.77.312a.98.98 0 0 0-.304.709c0 .337.15.71.45 1.127-.498.332-.838.612-1.014.83q-.26.326-.259.807 0 .42.214.739c.14.215.316.384.54.503.224.118.462.182.709.182q.753-.001 1.431-.754.57.753 1.318.754c.23 0 .434-.069.61-.198a.9.9 0 0 0 .342-.51h-.183c-.13.23-.315.35-.556.35a.87.87 0 0 1-.495-.16q-.235-.157-.647-.746.173-.228.38-.716.248-.593.48-.807a1.3 1.3 0 0 1 .541-.297v-.183h-1.645v.183c.403.046.602.21.602.503q-.001.183-.13.51a3 3 0 0 1-.342.632 95 95 0 0 0-1.288-1.782c.735-.37 1.097-.75 1.097-1.143a.72.72 0 0 0-.327-.617A1.3 1.3 0 0 0 64.669 0m6.991.023q-.671-.001-1.233.312-.562.316-.876.967a3.15 3.15 0 0 0-.313 1.386q0 1.123.678 1.806c.454.454 1.045.677 1.76.677q1.014 0 1.668-.738.17.227.236.525h.167V3.214h-.167q-.046.434-.29.899-.24.462-.655.655-.417.192-.815.19c-.496 0-.915-.197-1.249-.594-.333-.398-.495-.968-.495-1.714 0-.787.152-1.397.457-1.82a1.44 1.44 0 0 1 1.234-.632q.635 0 1.142.396.507.393.67 1.394h.168L73.701.107h-.167c-.023.222-.083.44-.19.647-.149-.185-.378-.35-.678-.503A2.2 2.2 0 0 0 71.66.023M42.414.038q-.671-.002-1.233.312-.562.316-.876.968-.314.649-.313 1.386 0 1.121.678 1.805.679.68 1.752.678c.676 0 1.233-.24 1.668-.732.116.153.2.327.244.526h.167V3.229h-.167q-.046.434-.29.899-.24.463-.655.655-.417.197-.815.198c-.496 0-.915-.205-1.249-.602-.333-.397-.495-.967-.495-1.713q0-1.18.457-1.813c.306-.423.716-.64 1.234-.64q.636 0 1.142.396.506.395.67 1.394h.168L44.455.129h-.167c-.022.223-.09.433-.198.64q-.221-.275-.67-.502a2.2 2.2 0 0 0-1.006-.229M6.184.053q-.42 0-1.173.03l-.624.024v.167h.091q.382.002.495.069c.077.044.123.12.145.236s.038.373.038.77v2.436c0 .416-.016.686-.038.8a.36.36 0 0 1-.152.251c-.083.054-.236.076-.45.076h-.13v.168H6.68v-.168h-.167c-.224 0-.376-.024-.457-.083a.4.4 0 0 1-.152-.275c-.02-.121-.023-.376-.023-.769v-1.05h.548q.857 0 1.196-.16a1.16 1.16 0 0 0 .518-.473 1.4 1.4 0 0 0 .182-.723q0-.47-.266-.777a1.4 1.4 0 0 0-.686-.427Q6.957.054 6.184.053M1.47.107v.167h.114c.253 0 .413.025.488.069s.129.121.152.236.03.373.03.77v1.69c0 .554-.014.955-.053 1.196a1.08 1.08 0 0 1-.35.624 1 1 0 0 1-.701.267.8.8 0 0 1-.343-.069Q.67 4.991.67 4.874q-.001-.042.038-.13a.5.5 0 0 0 .046-.19.34.34 0 0 0-.107-.258.38.38 0 0 0-.54.015A.4.4 0 0 0 0 4.6q0 .285.305.494c.203.139.485.206.86.206q.503 0 .884-.168a1.48 1.48 0 0 0 .883-1.127q.048-.33.046-.96V1.348q0-.62.038-.784.038-.167.152-.229.114-.06.48-.06h.122V.106zm7.525 0v.167h.137c.253 0 .412.025.487.069s.13.12.153.236.03.373.03.77V3.51c0 .411-.009.693-.038.845a.65.65 0 0 1-.251.389c-.135.104-.304.155-.518.167v.168h1.79v-.168q-.344-.02-.534-.182a.63.63 0 0 1-.228-.381q-.038-.217-.038-.815V.624l1.98 4.456h.175L14.097.625v3.168c0 .416-.007.678-.03.792a.38.38 0 0 1-.16.251c-.083.054-.23.076-.442.076h-.175v.168h2.392v-.168h-.221c-.226 0-.378-.024-.457-.083a.4.4 0 0 1-.152-.267 6 6 0 0 1-.031-.777V1.348q0-.62.038-.784c.025-.11.076-.189.152-.229s.243-.06.488-.06h.183V.106h-1.539l-1.805 4.12L10.51.107zM64.684.19q.279 0 .45.19a.7.7 0 0 1 .174.496q-.002.52-.769.967c-.313-.43-.464-.771-.464-1.02 0-.181.055-.328.167-.45a.57.57 0 0 1 .442-.183M6.26.228q.68 0 .983.29.304.288.305.906c0 .27-.058.502-.176.686a.83.83 0 0 1-.441.358 2.3 2.3 0 0 1-.693.091H5.88V.244q.131-.016.38-.016m49.247.945c-.292 0-.526.085-.716.266a.92.92 0 0 0-.29.686c0 .179.05.345.137.503s.203.29.358.388c.156.099.394.211.7.343q.516.22.71.411.192.194.19.48 0 .286-.221.518-.222.229-.625.228-.896 0-1.135-1.203h-.144v1.234h.144a.95.95 0 0 1 .137-.374q.421.482 1.051.48.549.001.876-.304.328-.31.328-.8-.001-.31-.137-.548a1 1 0 0 0-.358-.366q-.227-.135-.724-.358c-.344-.155-.576-.296-.708-.419a.57.57 0 0 1-.206-.442q0-.218.16-.403.16-.183.503-.183a.93.93 0 0 1 .64.251q.274.247.38.678h.122v-.998h-.122a.6.6 0 0 1-.144.336q-.227-.249-.442-.328a1.4 1.4 0 0 0-.464-.076m-37.48.008c-.59 0-1.075.175-1.47.533q-.592.537-.594 1.424.002.906.587 1.455c.389.367.886.556 1.493.556.623 0 1.125-.19 1.508-.556.382-.367.57-.84.57-1.432q-.002-.918-.6-1.447-.6-.532-1.494-.533m8.843 0c-.596 0-1.062.205-1.41.616a2.17 2.17 0 0 0-.525 1.44c0 .553.186 1.01.549 1.37q.543.541 1.363.542c.272 0 .564-.064.883-.183q.354-.131.572-.13.053-.002.122.008V4.44q0-.495.03-.624a.3.3 0 0 1 .13-.19q.097-.055.373-.054v-.13h-1.653v.13h.091q.228.001.313.038.082.035.121.137c.028.069.046.206.046.411a.95.95 0 0 1-.091.435.67.67 0 0 1-.32.289 1.2 1.2 0 0 1-.533.122 1.24 1.24 0 0 1-.96-.42c-.257-.281-.38-.768-.38-1.446q.001-1.018.403-1.417.399-.401.937-.403.52 0 .883.342.367.343.45.93h.129V1.31h-.13a1.4 1.4 0 0 1-.121.434 1.64 1.64 0 0 0-1.272-.563m49.878 0c-.59 0-1.076.175-1.47.533q-.593.537-.594 1.424c0 .605.19 1.088.579 1.455s.886.556 1.492.556c.624 0 1.126-.19 1.508-.556s.58-.84.58-1.432c0-.612-.204-1.094-.602-1.447q-.6-.532-1.493-.533m-24.783.007-1.112 2.65c-.08.191-.133.3-.145.328-.118.3-.214.493-.297.586a.62.62 0 0 1-.38.183v.13h1.15v-.13a.5.5 0 0 1-.305-.091q-.115-.088-.114-.26c0-.107.074-.332.22-.685l.1-.243h1.447l.297.708c.086.205.13.324.13.366 0 .08-.035.14-.1.167q-.098.04-.373.038v.13h1.5v-.13a.56.56 0 0 1-.297-.099.53.53 0 0 1-.16-.213l-.175-.396-1.272-3.039zm-29.916.015q-.321 0-.869.023l-.54.023v.13h.06q.299.001.39.053.087.05.113.183.025.131.023.586v1.881q.001.479-.023.61a.28.28 0 0 1-.122.19q-.095.06-.342.06h-.122v.13h1.835v-.13h-.182c-.174 0-.297-.023-.358-.068a.3.3 0 0 1-.115-.205 6 6 0 0 1-.015-.587v-.838h.152c.103 0 .173.02.221.054s.138.123.267.282q.193.236.373.495c.374.538.657.87.838.997h1.02v-.13a1 1 0 0 1-.578-.19q-.246-.18-.678-.761c-.354-.478-.618-.754-.777-.83q.532-.063.807-.328a.87.87 0 0 0 .274-.647.78.78 0 0 0-.213-.549 1.17 1.17 0 0 0-.548-.335q-.344-.1-.891-.099m9.116 0-1.12 2.643-.136.328q-.179.451-.305.594c-.084.093-.203.148-.373.175v.13h1.15v-.13a.5.5 0 0 1-.305-.084c-.078-.06-.114-.152-.114-.266q0-.16.22-.686l.1-.244h1.447l.29.709c.086.205.136.332.136.373q0 .12-.099.16-.097.04-.373.038v.13h1.5v-.13c-.133-.013-.23-.04-.297-.092a.53.53 0 0 1-.16-.213l-.175-.403-1.272-3.032zm14.227.038v.13h.076c.195 0 .316.02.374.053q.086.051.114.183.028.131.03.586v1.874c0 .32-.012.53-.03.617a.28.28 0 0 1-.122.19q-.096.062-.343.061h-.099v.13h1.737v-.13h-.1c-.173 0-.295-.023-.357-.068a.3.3 0 0 1-.114-.206 5 5 0 0 1-.023-.594v-.922h1.995v.922q.001.479-.023.61a.3.3 0 0 1-.122.197q-.093.062-.335.061h-.13v.13h1.73v-.13h-.084q-.256 0-.35-.068a.3.3 0 0 1-.115-.206 5 5 0 0 1-.023-.594V2.193q0-.475.03-.601.029-.129.115-.175.09-.047.373-.046h.054v-.13h-1.73v.13h.1q.288.002.373.053.087.051.114.183.024.131.023.586v.762h-1.995v-.762q0-.475.03-.601.032-.129.122-.175c.059-.032.177-.046.366-.046h.076v-.13zm12.338 0v.13q.279-.001.366.053.089.054.114.19.024.14.023.58v1.873c0 .32-.008.524-.023.602a.34.34 0 0 1-.106.19c-.056.05-.17.076-.358.076h-.084v.13h3.153l.084-1.188h-.13c-.067.286-.164.51-.282.67s-.236.265-.365.312q-.194.07-.495.069h-.282q-.384-.002-.472-.122-.085-.12-.084-.8V3.1h.411c.163 0 .282.016.35.038a.25.25 0 0 1 .153.137q.053.109.053.426h.13V2.4h-.13q-.001.282-.038.38a.25.25 0 0 1-.145.146q-.11.046-.388.045h-.396v-1.6h.526c.265 0 .451.018.57.047.12.029.226.094.313.205q.13.17.22.571h.13l-.091-.952zm-24.05.009v.13q.308.002.396.045t.13.19c.027.1.045.294.045.587v2.034c0 .23-.013.372-.03.434q-.026.093-.168.175a1 1 0 0 1-.411.099v.13h1.416v-.13c-.202 0-.348-.026-.45-.084-.1-.058-.168-.12-.19-.19q-.03-.105-.03-.434V1.577l2.719 3.587h.114V1.995c0-.163.013-.274.038-.342a.35.35 0 0 1 .175-.183q.14-.073.381-.091v-.13h-1.378v.13q.223 0 .38.06.162.06.214.16.052.104.053.358v2.285L34.821 1.25zm-15.644.069q.699.002 1.066.48.367.472.366 1.363 0 .916-.373 1.378-.373.464-1.013.465-.732 0-1.097-.465c-.244-.308-.366-.763-.366-1.378 0-.606.122-1.07.366-1.379q.364-.464 1.051-.464m58.72 0q.7.002 1.067.48.366.472.365 1.363 0 .916-.373 1.378-.372.464-1.013.465c-.488 0-.86-.156-1.104-.465-.244-.308-.366-.763-.366-1.378 0-.606.122-1.07.366-1.379.244-.31.6-.464 1.058-.464m-54.737.022q.668 0 .869.244.198.244.197.648 0 .23-.06.388a.7.7 0 0 1-.16.259.65.65 0 0 1-.267.145q-.165.05-.388.06c-.149.008-.288.012-.427.016V1.348c.09-.008.168-.008.236-.008m29.787.556.67 1.615h-1.333zm-20.8.008.67 1.622h-1.34zm33.153.404c.39.508.856 1.168 1.394 1.988-.303.352-.633.533-.99.533-.321 0-.614-.14-.868-.42-.255-.28-.381-.583-.381-.898q0-.305.22-.632.223-.328.625-.571M79.581 4.34a.4.4 0 0 0-.297.122.4.4 0 0 0-.122.297.419.419 0 1 0 .838 0 .4.4 0 0 0-.122-.297.4.4 0 0 0-.297-.122"/></g><defs><clipPath id="clip0_3802_8450"><path fill="#fff" d="M0 0h80v5.301H0z"/></clipPath></defs></svg>