<svg fill="none" viewBox="0 0 80 30"><g fill="#961A8B" clip-path="url(#clip0_3802_18332)"><path d="M80 23.429c-.013.08-.036.159-.039.239-.041 1.294-.479 2.45-1.242 3.482-1.038 1.404-2.43 2.26-4.15 2.565-.369.066-.75.09-1.126.09q-11.079.006-22.157.004h-.2v-5.246c.966-.002 1.925-.001 2.906 0v2.3c.1.003.18.009.26.01h5.27q6.686-.002 13.373 0c.592.001 1.17-.075 1.712-.32 1.37-.62 2.19-1.67 2.422-3.164a4 4 0 0 0 .038-.601c.002-5.257-.005-10.514.006-15.77.004-1.917-1.301-3.493-2.993-3.936a4.8 4.8 0 0 0-1.216-.137q-6.46.002-12.92.001h-5.946v2.296h-2.912V.015C51.177.01 51.263 0 51.35 0h21.985c.826 0 1.636.107 2.404.415 2.272.911 3.662 2.566 4.146 4.97.043.215.048.437.072.656q.02.175.043.352zM37.277 8.588l-2.005 1.955c-.043-.031-.084-.057-.12-.089-.602-.525-1.31-.812-2.092-.93a7 7 0 0 0-1.3-.074c-.417.016-.826.084-1.209.26-.745.343-1.147.929-1.17 1.747-.017.54.187.996.636 1.322.38.277.811.428 1.271.497.784.118 1.57.222 2.353.34a6.5 6.5 0 0 1 1.65.46c1.099.479 1.83 1.289 2.162 2.444.269.935.318 1.886.095 2.836-.284 1.21-1 2.111-2.05 2.756a6.3 6.3 0 0 1-2.367.845 10.9 10.9 0 0 1-4.363-.21 6.5 6.5 0 0 1-2.521-1.28.34.34 0 0 0-.167-.08l.598 1.656c-.143.046-2.856.064-3.28.023-.02-.055-.046-.118-.067-.183l-.824-2.469-.047-.143q-.03-.091-.128-.09-.075.002-.151 0h-5.383c-.181.002-.183.001-.24.17l-.603 1.767-.325.952q-.103.008-.193.01c-2.09 0-4.18-.002-6.27.004-.151 0-.223-.053-.292-.176q-1.951-3.472-3.907-6.942l-.184-.322c-.048.044-.082.07-.108.1q-.968 1.161-1.938 2.319c-.072.085-.085.174-.085.278q.002 2.247.001 4.494v.233H.037l-.014-.018-.01-.015c-.005-.031-.012-.062-.012-.093L0 6.889a1 1 0 0 1 .01-.093c0-.012.009-.023.02-.046h2.62l.004.784v6.263l.04.017q.068-.071.131-.145l2.73-3.38q1.377-1.701 2.75-3.41a.34.34 0 0 1 .3-.143c1.146.005 2.292.003 3.438.003h.165l.012.025v.017l-.006.018-.021.03-.036.045-5.24 6.302-.02.032-.005.018c.073.2 5.459 9.337 5.581 9.453l5.78-15.93h2.491l5.118 14.048 1.869-1.837c.032.022.06.036.082.056.705.657 1.552 1.013 2.49 1.173.693.117 1.39.15 2.088.074.396-.043.782-.13 1.144-.302.765-.362 1.124-1.032 1.038-1.896a2.5 2.5 0 0 0-.071-.408c-.143-.524-.486-.87-.982-1.071-.305-.125-.627-.181-.951-.228-.79-.113-1.584-.215-2.372-.344a5.8 5.8 0 0 1-1.833-.62c-1.01-.55-1.641-1.389-1.894-2.508-.213-.945-.204-1.89.093-2.815.427-1.337 1.332-2.241 2.603-2.796a6.5 6.5 0 0 1 2.139-.506c1.036-.076 2.062-.015 3.073.234a6.3 6.3 0 0 1 2.75 1.474c.042.038.09.068.149.111M21.557 17.5c-.029-.228-1.905-5.792-2-5.919l-2.05 5.92z"/><path d="M62.446 23.069H59.06c-.027-.055-.06-.114-.088-.176l-2.777-6.137-.056-.12c-.023-.059-.063-.089-.129-.088l-2.001.009c-.006 0-.011.005-.045.022-.014.22-.004.457-.006.693q-.002.359 0 .718v5.053c-.153.045-2.486.062-2.895.026-.04-.13-.058-15.986-.015-16.317.05-.004.105-.012.16-.012 1.938 0 3.878-.003 5.817 0a5 5 0 0 1 2.14.466 4.38 4.38 0 0 1 2.197 2.245c.562 1.268.649 2.58.231 3.905-.378 1.198-1.166 2.052-2.304 2.584l-.208.098zm-8.477-9.166c.086.004.16.01.233.01q1.208.002 2.417-.001c.176-.001.354-.007.527-.035.791-.13 1.351-.556 1.627-1.319.188-.519.185-1.05.025-1.576a1.9 1.9 0 0 0-.463-.79c-.419-.433-.943-.62-1.53-.627-.888-.012-1.775-.004-2.663-.003-.055 0-.11.01-.173.015zM41.731 16.92l-.002 1.242v4.884c-.153.04-2.673.05-2.897.016-.042-.15-.046-16.133 0-16.323h5.83c.923 0 1.8.193 2.602.661 1.036.604 1.728 1.494 2.09 2.629.472 1.485.398 2.948-.314 4.344-.68 1.334-1.79 2.13-3.252 2.436a5.7 5.7 0 0 1-1.181.111c-.876-.003-1.75 0-2.626 0zm-.002-2.861c.087.005.143.01.198.01q1.303.003 2.606 0 .227-.001.45-.041c.78-.147 1.327-.582 1.588-1.34a2.6 2.6 0 0 0 0-1.723c-.225-.666-.679-1.11-1.359-1.3a2.7 2.7 0 0 0-.687-.099c-.856-.011-1.712-.004-2.568-.004-.067 0-.134.007-.229.012zm24.496 8.428c-.077-.039-.134-.063-.186-.094-1.423-.851-2.329-2.065-2.62-3.715a14 14 0 0 1-.185-2.349c-.004-1.082-.009-2.165.008-3.247.013-.812.089-1.618.282-2.412.489-2.004 2.314-3.505 4.1-3.822 1.094-.194 2.18-.174 3.213.25 1.743.717 2.877 1.984 3.3 3.846.147.647.205 1.305.222 1.966q.03 1.207.028 2.416c-.002.717-.029 1.433-.045 2.178-.092-.055-.11-.123-.138-.18l-3.34-6.43-.12-.235c-.199-.366-.551-.538-.946-.46-.375.074-.65.393-.68.803-.03.4-.053.803-.079 1.205q-.09 1.413-.183 2.825l-.115 1.789c-.002.035-.008.07-.017.14l-.21-.197-2.43-2.32a1 1 0 0 0-.382-.236.86.86 0 0 0-1.071 1.043q.208.93.412 1.859l1.151 5.173c.013.06.019.12.031.204"/><path d="m70.013 11.2.084.15q1.96 3.777 3.923 7.55a.4.4 0 0 1 .034.322c-.52 1.881-2.13 3.373-4.057 3.75-.24.046-.483.073-.722.109-.043-.174.632-10.97.738-11.882m-4.475 3.962c.085.078.145.131.204.187.928.886 1.855 1.774 2.787 2.655.106.1.13.199.12.332-.052.683-.097 1.367-.144 2.051l-.179 2.56c-.002.036-.01.072-.02.135-.167-.024-.326-.044-.484-.07-.143-.024-.284-.06-.426-.08-.118-.018-.168-.082-.192-.195-.082-.393-.172-.785-.26-1.178l-1.387-6.257c-.007-.034-.01-.07-.019-.14"/></g><defs><clipPath id="clip0_3802_18332"><path fill="#fff" d="M0 0h80v29.809H0z"/></clipPath></defs></svg>