<svg fill="none" viewBox="0 0 80 24"><g clip-path="url(#clip0_3802_7745)"><path fill="#FBB01D" d="M3.912 5.488a2.7 2.7 0 0 0-.476-.326c-.516-.272-1.027-.554-1.542-.832A10 10 0 0 1 .9 3.718C.79 3.64.683 3.552.576 3.469a.47.47 0 0 1-.185-.316c-.015-.097 0-.175.063-.243q.246-.255.574-.394a.33.33 0 0 1 .306.02q.073.042.151.092.292.19.589.38c.17.106.345.213.55.262.072.02.14.063.213.097q.84.408 1.635.895c.048.03.097.064.15.083.025.01.054 0 .088 0 .02-.19.044-.37.063-.555a15 15 0 0 1 .487-2.514c.078-.282.18-.555.272-.832.02-.054.039-.112.068-.16a.2.2 0 0 1 .083-.078c.19-.083.374-.156.579-.2.102-.02.194.01.282.049.024.01.048.034.063.058.049.083.102.166.136.258a.4.4 0 0 1 .02.17c0 .078-.025.156-.034.229-.068.433-.141.86-.205 1.294-.058.403-.102.807-.15 1.216-.025.194-.03.389-.04.583 0 .025.015.059.035.069a.1.1 0 0 0 .082-.005c.234-.141.462-.287.696-.433Q8.278 2.8 9.409 2.112c.15-.092.301-.175.452-.262q.234-.124.423-.307c.2-.185.414-.355.647-.496a3 3 0 0 1 .876-.384c.155-.04.306-.044.462-.04.068 0 .126.054.146.123.024.082.039.17.024.257-.01.059-.024.117-.03.175a.58.58 0 0 1-.203.375 9 9 0 0 1-.779.613c-.535.374-1.094.705-1.663 1.026L7.706 4.345a3 3 0 0 0-.34.224c-.097.078-.21.14-.316.209-.21.126-.419.248-.623.374q-.073.046-.146.098c-.053.039-.048.102.01.146q.081.058.17.116.447.299.895.604c.21.14.418.287.623.432q.248.184.481.375c.175.141.355.267.57.35.316.122.612.297.9.482.3.194.598.399.894.598.248.17.501.336.75.51a.34.34 0 0 0 .189.06c.545.014 1.085-.03 1.615-.19a3.1 3.1 0 0 0 1.085-.555 1.78 1.78 0 0 0 .68-1.333c.02-.355-.01-.384-.301-.569-.268-.175-.564-.2-.87-.146a1.7 1.7 0 0 0-.764.34 2.53 2.53 0 0 0-.822 1.042 1 1 0 0 0-.098.423c0 .039 0 .078-.01.116a.145.145 0 0 1-.106.127c-.234.068-.463.146-.706.18-.184.024-.32-.054-.428-.19a.26.26 0 0 1-.048-.136c-.015-.097-.015-.195-.025-.292a11.4 11.4 0 0 1-.005-1.863q.014-.175.02-.35c.01-.136.024-.268.068-.399a1.2 1.2 0 0 0 .044-.229c.024-.233.039-.466.058-.695.005-.068.005-.136.034-.2.025-.053.054-.107.112-.13.238-.118.482-.215.75-.22q.114-.001.155.107.095.234.102.482.015.38-.03.759-.035.336-.062.666v.088c0 .068.058.107.116.082.068-.034.141-.063.21-.102a3.7 3.7 0 0 1 .588-.253 3.45 3.45 0 0 1 2.009-.073q.475.126.841.448c.059.048.117.102.185.146.117.082.19.19.238.32.093.244.112.492.078.745a2.2 2.2 0 0 1-.588 1.24c-.297.316-.647.56-1.031.754a5.6 5.6 0 0 1-1.922.55c-.048.005-.097.014-.146.014-.126 0-.194.054-.223.18-.015.068-.069.112-.132.151-.33.2-.248.229-.666.083a10 10 0 0 1-1.143-.51c-.812-.42-1.59-.896-2.364-1.382q-.882-.564-1.77-1.129a4 4 0 0 0-.2-.121c-.063-.04-.122-.015-.122.053v.175c.005.574.01 1.148.049 1.722q-.001.06.005.117c.024.545.053 1.09.078 1.63.01.165.029.33.039.495q.014.205.004.41c0 .067-.02.13-.034.199-.01.043-.063.077-.112.077-.068 0-.136 0-.204-.01a1.6 1.6 0 0 1-.384-.126.3.3 0 0 1-.165-.19q-.097-.321-.185-.642c-.078-.272-.141-.544-.258-.802-.049-.102-.058-.224-.078-.34a18 18 0 0 1-.185-1.83c-.02-.457-.034-.914-.053-1.371a.7.7 0 0 0-.02-.141c0-.015-.029-.03-.044-.025a.2.2 0 0 0-.082.02 2.5 2.5 0 0 0-.428.253c-.102.073-.21.14-.331.185-.092.034-.175.087-.258.136-.452.267-.9.54-1.357.802-.36.21-.725.419-1.114.57a8 8 0 0 1-.438.155.7.7 0 0 1-.17.03.27.27 0 0 1-.17-.04C.225 8.382.177 8.348.128 8.32c-.15-.097-.17-.156-.049-.302a.9.9 0 0 1 .302-.228l.321-.146q.242-.102.462-.248c.866-.579 1.732-1.153 2.598-1.732q.074-.05.14-.107c.015-.01.015-.034.025-.053"/><path fill="#796E63" d="M44.965 5.44c.025.048.068.067.112.082q.286.118.52.316c.346.292.55.676.648 1.114.082.375.063.754-.04 1.124a1.85 1.85 0 0 1-.865 1.123 2.8 2.8 0 0 1-.866.336c-.34.073-.69.122-1.04.122h-3.556c-.069 0-.132-.01-.205-.015-.01-.044-.024-.083-.024-.122V1.748c0-.054.039-.088.092-.088h3.323c.272 0 .544.015.817.034.292.02.574.083.856.175q.226.072.423.195.526.312.7.895c.132.457.137.919-.005 1.376-.126.414-.364.75-.724.993-.054.038-.127.058-.156.126m-2.583.652c-.37.005-.739 0-1.104.005q-.087 0-.175.014c-.015 0-.034.025-.039.04a.3.3 0 0 0-.014.087v2.3c0 .05.038.083.097.088h1.833q.19.001.38-.005c.233 0 .462-.053.686-.117q.21-.057.394-.18a1.03 1.03 0 0 0 .476-.734 1.7 1.7 0 0 0-.014-.608.9.9 0 0 0-.418-.608 1.5 1.5 0 0 0-.346-.156 2.7 2.7 0 0 0-.686-.112c-.36-.01-.72-.01-1.075-.02m-.102-3.414h-.992c-.058 0-.117 0-.175.01-.024 0-.054.024-.054.058 0 .05-.01.098-.01.146v2.01c0 .102.035.132.147.132h1.804c.195 0 .39-.015.584-.035a1.5 1.5 0 0 0 .632-.209 1 1 0 0 0 .467-.642 1.6 1.6 0 0 0-.005-.778.72.72 0 0 0-.292-.423 1.3 1.3 0 0 0-.593-.219 4.3 4.3 0 0 0-.754-.058h-.759m-8.04 2.752s.015.048.024.053a1 1 0 0 0 .136.044q.36.074.676.258c.526.311.832.773.905 1.386q.049.38-.034.754c-.112.506-.394.9-.822 1.197-.316.218-.671.35-1.046.428a5 5 0 0 1-1.04.116h-3.936a2 2 0 0 1-.146-.01c-.034 0-.053-.029-.058-.053-.01-.024-.01-.058-.01-.087V1.762c0-.063.044-.102.117-.102h3.702q.393 0 .788.03c.35.028.69.096 1.021.223q.234.088.438.229.453.306.623.817.153.466.082.948c-.087.589-.404 1.022-.914 1.314-.093.053-.195.092-.292.13q-.11.043-.219.079m-2.53 3.312h.993q.16.001.321-.005c.233-.01.462-.053.686-.112a1.3 1.3 0 0 0 .374-.16c.253-.15.428-.36.511-.647a1.8 1.8 0 0 0 .049-.637 1.16 1.16 0 0 0-.594-.949 1.7 1.7 0 0 0-.457-.185 3.2 3.2 0 0 0-.807-.111h-2.447q-.044-.001-.087.004c-.04 0-.078.04-.078.073 0 .049-.01.098-.01.146v2.36c0 .048 0 .097.01.145 0 .03.048.073.082.073q.102-.001.205.005h1.255m-.02-3.72h.876c.175 0 .35-.01.525-.016.156 0 .306-.038.457-.082q.241-.064.448-.21a1 1 0 0 0 .423-.67c.034-.185.024-.37-.005-.55a.91.91 0 0 0-.467-.671 1.5 1.5 0 0 0-.404-.156 4 4 0 0 0-.895-.097H30.29c-.02 0-.038 0-.058.014-.015.01-.034.024-.039.04a.7.7 0 0 0-.02.14v2.072c0 .04 0 .078.01.117.01.024.034.053.059.058.053.01.116.015.17.015h1.284"/><path fill="#796F64" d="M27.936 9.661h-1.469c-.277 0-.228.03-.438-.165q-.83-.759-1.653-1.518l-2.642-2.422a.1.1 0 0 0-.024-.02c-.044-.028-.078-.097-.146-.063-.053.03-.029.088-.034.132V9.48c0 .151-.02.176-.16.176h-.963c-.03 0-.059 0-.088-.01a.13.13 0 0 1-.058-.054c-.01-.024-.01-.058-.01-.087V1.932c0-.282-.015-.277.262-.277h.905q.11 0 .112.102v3.386c.034 0 .073.02.088.005q.204-.162.408-.331l3.629-3.02.068-.06a.33.33 0 0 1 .238-.092h1.547c.02 0 .034.015.049.025s0 .044-.03.073l-.087.073c-.287.228-.579.457-.866.69-1.08.861-2.16 1.717-3.24 2.578a3 3 0 0 0-.17.156c-.01.01-.01.039 0 .053q.046.058.098.107l1.303 1.168c1.06.944 2.116 1.887 3.177 2.83.063.06.13.118.19.18.014.015.004.05.009.083m38.101-2.038V3.66c0-.048.043-.087.097-.087h.934q.072 0 .146.01c.034 0 .073.043.073.077q.006.191.02.375c0 .01.033.029.043.024a.7.7 0 0 0 .126-.073c.132-.102.268-.19.419-.267.442-.234.91-.326 1.41-.253q.263.035.511.121c.409.141.734.394.987.74.22.291.365.622.453.972a5.15 5.15 0 0 1 .068 2.31 3 3 0 0 1-.321.871c-.355.628-.885 1.027-1.59 1.173a2.27 2.27 0 0 1-1.805-.365q-.117-.082-.234-.17c-.02-.015-.068 0-.068.024 0 .068-.01.136-.01.204v1.513q.001.088-.005.175c0 .024-.024.054-.048.068-.03.025-.068.04-.102.059-.321.155-.647.316-.968.471-.01 0-.02.01-.025.01-.058.024-.102 0-.102-.053V7.623zm4.12-.987c.019-.253-.025-.51-.064-.769a2.1 2.1 0 0 0-.214-.661 1.17 1.17 0 0 0-.55-.545 1.4 1.4 0 0 0-.885-.097c-.452.092-.817.345-1.123.686a.2.2 0 0 0-.049.136V7.69q0 .138.093.239c.267.277.578.491.943.608q.446.144.89.02c.292-.083.516-.263.671-.526.122-.204.195-.423.234-.657.044-.238.068-.481.053-.739"/><path fill="#796E63" d="M57.948 9.657c-.088-.049-.151-.127-.214-.2-.53-.554-1.056-1.114-1.586-1.668-.326-.346-.657-.69-.983-1.036a4 4 0 0 0-.204-.205c-.01-.01-.034-.01-.053-.01-.025 0-.034.015-.04.04 0 .087-.009.175-.009.262v2.481q.001.132-.005.263c0 .048-.044.087-.097.087h-1.08q-.095-.001-.102-.112V1.952q-.001-.102.005-.204c0-.034.039-.069.078-.073.019 0 .038-.005.058-.005h.992q.03-.001.059.005c.048 0 .082.043.087.097v3.964c0 .345.005.39.054.384.131-.024.204-.136.291-.218q1.203-1.088 2.398-2.175c.03-.024.059-.053.088-.078a.26.26 0 0 1 .185-.073h1.464c0 .034.01.073 0 .083q-.11.115-.229.224c-.817.749-1.634 1.493-2.451 2.242q-.095.09-.19.185c-.024.024-.024.078 0 .107.034.039.063.073.098.107q.618.634 1.245 1.27l1.614 1.644c.054.053.103.112.156.17.015.02.015.034 0 .053-.005.005-.014.015-.02.015-.019 0-.038.005-.058.005H58.04a.4.4 0 0 1-.082-.01"/><path fill="#796E64" d="M59.475 6.646c.005-.414.039-.764.131-1.104q.087-.33.239-.623c.355-.681.895-1.138 1.634-1.352a2.92 2.92 0 0 1 1.887.068 2.6 2.6 0 0 1 1.387 1.187c.219.384.345.797.398 1.24.059.467.035.93-.063 1.391a3 3 0 0 1-.447 1.065 2.6 2.6 0 0 1-1.367 1.036 3 3 0 0 1-1.664.073 2.6 2.6 0 0 1-1.663-1.225 3.2 3.2 0 0 1-.443-1.343c-.02-.155-.02-.311-.024-.399m4.436-.043c0-.302-.039-.57-.112-.832a1.9 1.9 0 0 0-.272-.574 1.42 1.42 0 0 0-1.05-.603 1.8 1.8 0 0 0-.58.034 1.35 1.35 0 0 0-.788.564c-.204.297-.296.627-.335.982a4.6 4.6 0 0 0-.005.73c.014.214.063.423.131.628q.095.277.277.51.27.342.686.472c.18.058.36.068.55.063q.468-.014.827-.32c.243-.21.408-.468.52-.764a2.8 2.8 0 0 0 .16-.886"/><path fill="#796E63" d="M51.1 9.545c-.01-.044-.025-.078-.025-.117l-.015-.292c0-.024-.053-.049-.068-.034l-.087.073a1.9 1.9 0 0 1-1.046.472 2.8 2.8 0 0 1-1.07-.044 1.86 1.86 0 0 1-1.285-1.012 2.9 2.9 0 0 1-.257-.831 5 5 0 0 1-.059-.842V3.654c0-.02 0-.039.015-.053.01-.015.024-.034.044-.04a.3.3 0 0 1 .087-.014h.992c.02 0 .04 0 .059.01.024.015.053.034.058.054q.015.102.015.204V6.99c0 .214.014.428.068.637.03.102.058.205.097.302.146.35.419.554.783.622q.316.06.638.01c.379-.068.661-.262.841-.608.083-.155.131-.32.156-.496.024-.165.034-.326.034-.496V3.669c0-.088.034-.122.126-.122h1.022c.073 0 .107.034.111.107v5.564c0 .37.035.327-.325.327h-.73q-.086-.001-.18-.01"/><path fill="#796F64" d="M76.115 4.097s.049.02.059.014q.05-.03.092-.068a2.03 2.03 0 0 1 1.28-.5c.34-.02.675 0 1.006.111q.746.24 1.104.934c.17.321.258.671.297 1.031q.035.336.034.672v3.088c0 .078-.01.156-.015.234 0 .014-.019.029-.038.039a.1.1 0 0 1-.059.014h-1.05c-.054 0-.093-.039-.093-.087 0-.088-.005-.175-.005-.263V6.432q.002-.352-.048-.696a1.5 1.5 0 0 0-.117-.418c-.16-.384-.453-.598-.861-.657a1.7 1.7 0 0 0-.525 0q-.628.08-.905.647a1.9 1.9 0 0 0-.166.676c-.01.117-.004.234-.004.35V9.34c0 .088 0 .176-.01.263 0 .034-.04.068-.078.073h-1.08a.1.1 0 0 1-.097-.092c0-.068-.005-.137-.005-.205V3.956c0-.068 0-.136.01-.204 0-.034.039-.069.078-.073h1.079c.054 0 .098.039.098.087q.001.177.01.346"/><path fill="#59A544" d="M27.95 16.987c.04-.01.064-.02.093-.02h.642c.073 0 .098.034.088.112-.01.059-.015.117-.024.175l-.438 2.496c-.083.486-.17.977-.253 1.464-.034.2-.083.399-.16.588a2.13 2.13 0 0 1-.847 1.012 3 3 0 0 1-.686.321c-.51.165-1.04.219-1.58.229h-.03c-.039 0-.078-.04-.078-.073.005-.146.01-.292.024-.438.005-.073.044-.097.117-.102q.438-.031.866-.127a2.8 2.8 0 0 0 .657-.228 1.8 1.8 0 0 0 .34-.22c.234-.194.39-.432.457-.724.025-.102.034-.21.05-.316 0-.01-.025-.039-.04-.039a1.3 1.3 0 0 0-.2.03 6 6 0 0 1-.598.12 2.3 2.3 0 0 1-.841-.019 1.3 1.3 0 0 1-.355-.126.85.85 0 0 1-.433-.56 1.3 1.3 0 0 1-.03-.55c.035-.199.064-.403.098-.602l.394-2.238c.005-.039.01-.078.024-.112.01-.024.04-.039.059-.058.005-.005.02-.005.029-.005h.7c.025 0 .054.039.054.058v.088l-.131.744c-.117.662-.234 1.318-.35 1.98-.02.107-.03.21-.02.32q.028.35.37.424c.111.024.228.039.345.03a5.6 5.6 0 0 0 .948-.142c.073-.02.117-.058.132-.136.058-.345.121-.69.18-1.031q.18-1.045.37-2.097.022-.111.053-.223m16.937.073q.123-.038.248-.069c.17-.043.335-.092.506-.126.316-.063.637-.058.953.024l.136.044c.35.136.54.399.58.769q.027.293-.025.578c-.156.88-.307 1.761-.462 2.642-.015.087-.04.17-.054.248-.024.014-.039.029-.058.029h-.7c-.05 0-.083-.044-.074-.097 0-.03.01-.059.015-.088.049-.297.102-.593.15-.89.103-.593.21-1.187.312-1.78.024-.156.044-.307.03-.462-.02-.185-.113-.307-.288-.365a1 1 0 0 0-.258-.044 2.3 2.3 0 0 0-.578.049l-.511.121c-.068.015-.097.064-.107.122q-.072.386-.136.773-.21 1.218-.428 2.442c-.01.068-.034.131-.054.2-.044.004-.078.019-.117.019h-.496c-.224 0-.224 0-.185-.233.122-.7.244-1.396.37-2.097q.159-.904.316-1.81.152-.89.312-1.78a.4.4 0 0 1 .019-.082c.015-.04.039-.068.083-.073q.348-.036.695-.063c.044 0 .078.029.073.068-.01.058-.014.116-.024.175-.088.486-.175.977-.258 1.464-.015.078-.02.155-.024.228 0 .015.02.03.034.054m-20.58-1.051c-.166-.02-.311-.039-.452-.053-.263-.03-.521-.059-.784-.083a1.6 1.6 0 0 0-.55.039.9.9 0 0 0-.291.126c-.346.224-.419.589-.35.89q.045.177.17.302a2 2 0 0 0 .238.214c.18.136.365.263.545.39.141.101.287.199.428.3.102.074.204.152.297.234.311.273.452.623.472 1.027.029.603-.205 1.075-.681 1.44-.297.228-.638.37-1.002.452a3.2 3.2 0 0 1-1.216.029 4.5 4.5 0 0 1-.876-.21.2.2 0 0 1-.073-.043c-.014-.01-.03-.039-.024-.049.053-.165.102-.33.16-.496a.065.065 0 0 1 .068-.039q.06 0 .117.015c.204.058.418.092.628.126.262.044.52.05.783.035.184-.01.364-.059.535-.137q.147-.067.272-.17c.287-.233.394-.545.365-.905a.67.67 0 0 0-.185-.418 1.8 1.8 0 0 0-.287-.248c-.175-.122-.355-.238-.525-.365q-.271-.195-.535-.399-.1-.081-.2-.17c-.583-.516-.569-1.464-.082-2q.307-.34.739-.5.497-.191 1.031-.156c.438.034.87.093 1.294.2.03.005.053.014.083.024.034.01.063.053.053.087-.044.17-.082.341-.16.526m7.34.807c.301 0 .603.054.9.146.238.073.471.17.705.277.078.035.092.069.078.166l-.102.632c-.112.671-.23 1.338-.341 2.01-.01.067-.024.135-.024.203a.58.58 0 0 0 .233.506c.034.025.068.04.093.068.019.02.034.059.024.078q-.118.203-.243.399a.09.09 0 0 1-.102.039 1.3 1.3 0 0 1-.526-.238.9.9 0 0 1-.263-.346q-.036-.08-.116-.014-.058.045-.107.097a2 2 0 0 1-.433.292 1.8 1.8 0 0 1-1.299.146 1.14 1.14 0 0 1-.788-.676 2 2 0 0 1-.15-.681 3.34 3.34 0 0 1 .379-1.77c.2-.375.462-.692.812-.935a2.2 2.2 0 0 1 1.27-.394m-1.59 2.826v.175c.009.166.033.331.101.482.102.233.287.36.54.38.146.009.292 0 .433-.044.35-.098.628-.302.851-.58a.3.3 0 0 0 .049-.102c.03-.14.053-.287.078-.427.102-.604.209-1.207.311-1.81.01-.068-.015-.102-.083-.131a2.3 2.3 0 0 0-.744-.127c-.33-.01-.603.117-.836.346a2 2 0 0 0-.312.418c-.253.462-.36.958-.389 1.42m11.63 1.036c-.073.063-.136.122-.204.175a2 2 0 0 1-.88.433 1.8 1.8 0 0 1-.89-.039 1.1 1.1 0 0 1-.686-.588 1.7 1.7 0 0 1-.17-.613c-.05-.598.028-1.182.281-1.732a2.7 2.7 0 0 1 .618-.875 2.22 2.22 0 0 1 1.644-.623c.195.005.39.034.574.083.33.082.647.204.953.35q.077.036.064.117-.036.245-.078.491c-.127.725-.248 1.454-.375 2.18a1.4 1.4 0 0 0-.02.286c0 .156.069.282.186.384.048.044.107.078.16.127.01.01.02.039.01.053q-.124.213-.263.419c-.01.02-.053.029-.078.024-.33-.078-.622-.214-.778-.545-.014-.034-.039-.063-.068-.102m-1.97-.973c0 .093 0 .18.015.263.014.126.044.248.102.36q.147.302.477.34c.146.02.291.015.433-.024.33-.083.603-.263.831-.506a.52.52 0 0 0 .141-.282q.163-.961.331-1.921.02-.133.034-.258c0-.034-.024-.078-.058-.088a2.1 2.1 0 0 0-.973-.121 1 1 0 0 0-.195.053 1.1 1.1 0 0 0-.413.263 1.9 1.9 0 0 0-.355.491c-.229.448-.34.93-.355 1.425"/><path fill="#7A7065" d="M72.277 6.631V3.718c0-.035.04-.078.073-.078.03 0 .059-.01.088-.01h.963c.03 0 .058 0 .083.015.024.01.048.038.053.058.01.078.01.156.01.233v5.618c0 .064-.044.103-.112.103h-1.046c-.063 0-.102-.044-.102-.117V6.627z"/><path fill="#59A745" d="M34.96 16.972c.068.054.078.122.097.185.015.044.054.054.093.039.043-.02.087-.044.131-.063.282-.141.579-.224.895-.234.156 0 .311-.005.467-.005.03 0 .058.01.097.015 0 .034.015.073.01.112l-.073.433c-.015.063-.053.092-.127.092h-.437a2.6 2.6 0 0 0-.856.146c-.195.073-.21.088-.243.282q-.271 1.524-.536 3.04l-.014.088c-.015.068-.054.107-.117.107h-.671c-.054 0-.088-.04-.078-.097.024-.16.053-.326.083-.487l.51-2.899q.06-.342.127-.69c.005-.04.044-.069.078-.074.194-.01.389-.01.569 0m2.578 4.228s-.02.01-.03.01c-.252.023-.5.014-.753.009-.04 0-.073-.044-.068-.078 0-.03 0-.058.01-.087l.554-3.123q.064-.387.136-.774c.005-.039.015-.073.024-.112.01-.034.049-.068.083-.068h.725c.039 0 .073.04.068.078l-.102.603c-.195 1.1-.385 2.194-.58 3.293-.014.088-.023.175-.067.248"/><path fill="#7C7166" d="M72.297 1.694c.029-.01.053-.03.082-.03h1.07c.054 0 .093.04.093.088q.001.51-.005 1.012c0 .034-.039.068-.078.073-.029 0-.058.005-.087.005h-.93a.4.4 0 0 1-.111-.015c-.015 0-.034-.02-.039-.039a.2.2 0 0 1-.015-.082v-.93c0-.028.01-.058.015-.087"/><path fill="#5AA644" d="M38 16.277a.56.56 0 0 1-.306-.078.41.41 0 0 1-.19-.282c-.083-.496.36-.856.754-.817q.116.015.219.072.154.097.2.273a.64.64 0 0 1-.02.345.71.71 0 0 1-.657.487"/></g><defs><clipPath id="clip0_3802_7745"><path fill="#fff" d="M0 0h79.987v23.364H0z"/></clipPath></defs></svg>