<svg fill="none" viewBox="0 0 64 64"><g clip-path="url(#clip0_3802_8178)"><path fill="#6936D3" d="M0 8.318A8.32 8.32 0 0 1 8.318 0h47.364A8.32 8.32 0 0 1 64 8.318v47.364A8.32 8.32 0 0 1 55.682 64H8.318A8.32 8.32 0 0 1 0 55.682z"/><path fill="#fff" d="M14.267 49.05c.093-.131.17-.247.254-.357 2.53-3.296 4.712-6.809 6.612-10.5 2.512-4.881 4.507-9.967 6.08-15.222a99 99 0 0 0 2.095-8.29 88 88 0 0 0 .846-4.853q.058-.39.104-.784c.014-.119.089-.157.193-.147q.533.052 1.065.113 1.573.177 3.145.36l2.82.335c.17.02.34.025.51.045.175.021.224.072.206.239-.033.292-.07.585-.12.875-.24 1.389-.495 2.776-.782 4.156a114 114 0 0 1-1.79 7.36 106 106 0 0 1-2.882 8.887l-.047.131c-.238.606-.24.552.351.502 2.509-.21 4.726-1.113 6.61-2.793 1.077-.96 1.93-2.098 2.62-3.361q.594-1.083 1.02-2.242c.027-.073.052-.146.083-.217.044-.101.112-.127.222-.086.364.133.732.256 1.098.384l4.785 1.68q.154.053.306.113c.085.034.112.106.086.188a9 9 0 0 1-.171.482c-.86 2.202-2.079 4.192-3.593 6.002-1.453 1.735-3.101 3.259-4.985 4.52-.413.276-.843.525-1.265.787-.066.04-.134.077-.199.12-.058.039-.054.122.005.149q.064.026.13.047c1.567.533 2.8 1.511 3.772 2.834.95 1.296 1.548 2.75 1.92 4.304.342 1.428.44 2.877.386 4.34a16.7 16.7 0 0 1-1.2 5.61q-.049.13-.11.255a.16.16 0 0 1-.152.089q-.07-.001-.14-.006-1.722-.07-3.444-.146-1.932-.088-3.862-.182a2 2 0 0 1-.231-.022c-.074-.014-.1-.074-.079-.14.037-.117.086-.232.129-.348.468-1.267.857-2.555 1.107-3.885.216-1.149.304-2.308.216-3.473-.198-2.607-1.336-4.708-3.45-6.27a12 12 0 0 0-3.644-1.826c-.37-.113-.75-.2-1.094-.386-.097-.051-.181-.028-.233.072q-.084.166-.164.334c-.966 2.013-1.916 4.035-2.942 6.018-1.055 2.04-2.178 4.041-3.494 5.93a28 28 0 0 1-2.531 3.156q-.11.121-.226.235c-.108.104-.158.107-.278.001q-.453-.4-.902-.807l-4.64-4.173c-.035-.03-.063-.068-.126-.137"/></g><defs><clipPath id="clip0_3802_8178"><path fill="#fff" d="M0 0h64v64H0z"/></clipPath></defs></svg>