<svg fill="none" viewBox="0 0 48 59"><g clip-path="url(#clip0_3802_10047)"><path fill="#00D200" d="M47.062 17.042c0-11.614-11.371-19.82-22.393-16.162L0 9.068v17.693q0 .274.012.544l24.657-8.184c7.834-2.6 15.843.794 19.821 7.144a17.8 17.8 0 0 0 2.572-9.223"/><path fill="#008BEC" d="M34.853 33.958 17.81 39.615C9.217 42.467.359 36.252.012 27.305L0 27.31v17.693c0 9.237 9.043 15.764 17.81 12.854L34.853 52.2a17.82 17.82 0 0 0 12.209-16.916c0-3.36-.953-6.433-2.572-9.018a17.8 17.8 0 0 1-9.636 7.693z"/><path fill="#1A4FE3" d="M24.669 19.121.012 27.305c.347 8.947 9.205 15.162 17.798 12.31l17.043-5.657a17.8 17.8 0 0 0 9.636-7.693c-3.979-6.35-11.987-9.744-19.821-7.144z"/></g><defs><clipPath id="clip0_3802_10047"><path fill="#fff" d="M0 0h47.062v58.556H0z"/></clipPath></defs></svg>