<svg fill="none" viewBox="0 0 80 59"><g clip-path="url(#clip0_3802_10009)"><path fill="#FFCA08" d="M22.94 0h12.625q-3.154 7.093-6.313 14.183l-5.925 13.308H10.695C14.777 18.328 18.855 9.162 22.94 0"/><path fill="#FA9D1C" d="M35.565 0h.003c1.323 2.979 2.654 5.954 3.976 8.934l.01.02c-.903 1.968-1.764 3.954-2.65 5.93-1.018 2.278-2.03 4.56-3.047 6.84-.215.457-.388.935-.634 1.377l-3.971-8.918Q32.41 7.093 35.565 0"/><path fill="#9E9FA3" d="M43.525 0h.003q3.156 7.095 6.317 14.187c-1.335 2.974-2.651 5.957-3.983 8.932-2.11-4.718-4.206-9.443-6.309-14.164l-.009-.021C40.878 5.959 42.201 2.979 43.525 0"/><path fill="#636466" d="M43.528 0h12.626c4.087 9.161 8.163 18.328 12.246 27.49-4.21.005-8.42.001-12.63.003q-2.964-6.652-5.925-13.306Q46.685 7.095 43.528 0"/><path fill="#F37022" d="M39.553 8.955c2.103 4.721 4.199 9.446 6.309 14.164a6.94 6.94 0 0 1-2.677 3.015c-1.724 1.07-3.925 1.313-5.845.667a6.95 6.95 0 0 1-4.117-3.7c.246-.442.42-.92.634-1.377 1.018-2.28 2.029-4.562 3.047-6.84.886-1.976 1.747-3.962 2.65-5.93"/><path fill="#646565" d="M39.36 34.646h2.66l2.404 4.543h.085l2.403-4.543h2.668v10.688h-2.753v-5.242h-.085l-1.347 2.557a1.08 1.08 0 0 1-.912.537 1.16 1.16 0 0 1-.912-.537l-1.457-2.36h-.094v5.113h-2.66m15.53-2.42h4.637v2.36h-7.603V34.647h7.603v2.344H54.89v1.807h3.853v2.292H54.89zm10.143-3.802h4.373v.98a9.8 9.8 0 0 1-.282 2.668 3.74 3.74 0 0 1-1.474 2.054 4.3 4.3 0 0 1-2.557.725 4.5 4.5 0 0 1-2.557-.69 3.6 3.6 0 0 1-1.466-1.978 11 11 0 0 1-.307-2.94c-.03-.999.073-1.996.307-2.967a3.6 3.6 0 0 1 1.466-1.96 4.5 4.5 0 0 1 2.557-.69 4.4 4.4 0 0 1 2.378.613 3.6 3.6 0 0 1 1.466 1.705c.18.419.287.866.315 1.321h-2.685l-.102-.341a1.245 1.245 0 0 0-1.176-.801c-.802 0-1.296.239-1.509.954a9 9 0 0 0-.153 2.157 9.2 9.2 0 0 0 .153 2.156 1.364 1.364 0 0 0 1.45.955c.766 0 1.235-.281 1.405-.852q.09-.421.094-.853v-.077h-1.704zm11.021-4.628L80 45.334h-2.838l-.588-1.534h-3.197l-.605 1.534h-2.855l3.912-10.782zm-1.142 4.032-.853 2.65h1.858l-.954-2.65zM29.099 34.73h1.355v5.976l5.012-5.975h1.679l-3.478 4.364 3.81 6.41h-1.594l-3.307-5.387-2.173 2.59v2.796h-1.304zm-3.708 0h1.33v10.774h-1.33l-5.694-8.463v8.463H18.41V34.731h1.33l5.66 8.515zm-12.018 0h-1.125L8.216 45.505h1.356l.852-2.31h4.748l.792 2.31h1.407zm-2.634 7.263 2.097-5.694 2.012 5.694zm-6.69-7.263a3.55 3.55 0 0 1 2.48.768 2.7 2.7 0 0 1 .852 2.071 2.56 2.56 0 0 1-.409 1.517 2.3 2.3 0 0 1-1.057.853c.442.145.828.422 1.108.792.171.222.307.47.4.733.103.314.155.642.154.972a2.86 2.86 0 0 1-.929 2.301 4.05 4.05 0 0 1-2.65.776H0V34.731zm1.38 4.194a1.56 1.56 0 0 0 .503-1.193 1.62 1.62 0 0 0-.503-1.236 2 2 0 0 0-1.415-.468H1.457v3.409h2.557c.52.02 1.028-.164 1.415-.512m-1.338 5.302a2.1 2.1 0 0 0 1.5-.486 1.867 1.867 0 0 0 0-2.557 2.1 2.1 0 0 0-1.5-.486h-2.65v3.554z"/><path fill="#94278F" d="M13.714 58.434a5.3 5.3 0 0 1-1.773-.315 3.6 3.6 0 0 1-1.32-.784.1.1 0 0 1 0-.145l1.013-1.193a.103.103 0 0 1 .145 0c.53.494 1.228.768 1.952.767.277.016.552-.05.793-.188a.59.59 0 0 0 .29-.528.48.48 0 0 0-.222-.426 1.8 1.8 0 0 0-.75-.222l-.4-.051c-1.705-.247-2.558-1.048-2.558-2.412a2.16 2.16 0 0 1 .776-1.705 3.06 3.06 0 0 1 2.08-.716 4.44 4.44 0 0 1 2.71.852.11.11 0 0 1 0 .154l-.852 1.227a.11.11 0 0 1-.145.043 3.07 3.07 0 0 0-1.705-.571 1 1 0 0 0-.622.162.57.57 0 0 0-.222.477c0 .35.333.563.98.64l.41.059a3.4 3.4 0 0 1 1.917.776 2.13 2.13 0 0 1 .614 1.704 2.19 2.19 0 0 1-.852 1.782 3.53 3.53 0 0 1-2.259.613m9.845-.136h-1.995v-2.975l-2.327-4.577c0-.085 0-.128.094-.128h1.773a.2.2 0 0 1 .179.111l1.287 2.625 1.261-2.625a.18.18 0 0 1 .18-.11h1.704c.102 0 .128 0 .094.127l-2.327 4.577zm4.278-.111 2.66-7.458a.136.136 0 0 1 .144-.11h1.841a.14.14 0 0 1 .137.11l2.582 7.458c0 .068 0 .111-.076.111h-1.841a.15.15 0 0 1-.145-.11l-.358-1.186h-2.506l-.358 1.185a.145.145 0 0 1-.145.111h-1.85c-.076 0-.102-.043-.085-.11m3.69-5.233-.74 2.395h1.49l-.715-2.395zm12.888 5.343h-1.96a.18.18 0 0 1-.162-.11l-1.125-2.626h-.853v2.736h-1.977v-7.671h3.239c.74-.047 1.47.202 2.028.69a2.32 2.32 0 0 1 .742 1.756c.005.451-.11.895-.333 1.287a2.2 2.2 0 0 1-.937.852l1.415 2.975a.1.1 0 0 1 0 .094.1.1 0 0 1-.077.017m-2.957-4.373a.9.9 0 0 0 .656-.221.85.85 0 0 0 0-1.185.93.93 0 0 0-.656-.213h-1.143v1.62zm6.418 4.373v-7.671h1.986v7.671zm5.011-.111 2.651-7.458a.145.145 0 0 1 .154-.11h1.84a.15.15 0 0 1 .145.11l2.557 7.458c0 .068 0 .111-.076.111h-1.944a.136.136 0 0 1-.136-.11l-.367-.913h-2.216l-.392.912a.136.136 0 0 1-.136.111h-1.995c-.076 0-.102-.043-.085-.11m3.69-4.526-.46 1.705h.93l-.435-1.705zm6.649 4.636v-7.671h1.995v2.906h2.224v-2.915h1.986v7.671h-1.986v-3.008h-2.224v3.017z"/></g><defs><clipPath id="clip0_3802_10009"><path fill="#fff" d="M0 0h80v58.444H0z"/></clipPath></defs></svg>