<svg fill="none" viewBox="0 0 80 24"><g clip-path="url(#clip0_3802_7842)"><path fill="#183181" d="M11.88 0a185 185 0 0 1-2.093 5.071l-.983 2.254-.995-2.254C7.059 3.371 6.34 1.683 5.666 0H.163v.441c.61 0 1.112.51 1.112 1.137C1.185 2.74 1.088 3.904.97 5.07L.604 8.62C.43 10.317.231 12.01 0 13.69h1.758c.11-1.68.245-3.373.416-5.07l.542-5.35A171 171 0 0 1 4.97 8.172l.2.447q1.128 2.548 2.145 5.071h.533c.664-1.68 1.368-3.373 2.098-5.07l.317-.73q1.065-2.461 2.21-4.9l.572 5.63c.171 1.697.313 3.39.416 5.07h4.045c-.233-1.68-.433-3.373-.604-5.07l-.361-3.549c-.17-1.7-.315-3.388-.414-5.071zm18.145 12.33c.441-.84.917-1.689 1.422-2.538l4.914-8.178v-.346H25.55v2.516h.427c0-.606.466-1.101 1.05-1.138q.506-.018 1.006-.018h3.49a50 50 0 0 1-1.396 2.481l-4.939 8.237v.344H36.85v-1.461a31 31 0 0 1-2.48.1zm19.99 1.36.103-.008a33 33 0 0 1-.103-2.527V8.077h4.828v3.078c0 .847-.029 1.696-.093 2.535h3.72a32 32 0 0 1-.1-2.535V3.806c0-.853.031-1.696.1-2.54h-4.742v.393h.107c.529 0 .954.418.991.946q.018.598.017 1.201v2.909h-4.828V3.806c0-.853.031-1.696.1-2.54h-4.74v.393h.103a1 1 0 0 1 .991.94q.021.603.021 1.207v8.602c-.487.062-.989.091-1.496.091q-.82 0-1.608-.128c-1.489-.284-1.726-1.68-1.726-2.551V3.734c0-.826.037-1.647.1-2.467h-4.74v.392h.101c.529 0 .952.414.99.939.013.404.02.804.02 1.208v5.425c0 1.22.387 3.917 3.698 4.407 1.034.142 2.09.223 3.165.223 1.687 0 3.362-.06 5.021-.17M74.388 7.48c0 4.232-3.659 6.38-7.263 6.38s-7.256-2.148-7.256-6.38c0-4.234 3.651-6.383 7.256-6.383 3.604 0 7.263 2.149 7.263 6.383m-3.54 0c-.004-2.307-.968-5.02-3.723-5.02-2.752 0-3.72 2.713-3.72 5.02 0 2.304.968 5.019 3.72 5.019 2.755 0 3.719-2.715 3.722-5.02M23.505 3.806c0-.853.031-1.696.103-2.54h-4.865v.442h.101c.63 0 1.121.509 1.121 1.142q.015.473.014.956v7.349c0 .847-.033 1.696-.09 2.535h3.72a30 30 0 0 1-.104-2.535z"/><path fill="#ED1A3A" d="M6.766 20.514a139 139 0 0 1 30.431-3.356c14.758 0 28.998 2.213 42.412 6.328a.1.1 0 0 1 .07.119c-.011.052-.068.093-.12.081a291 291 0 0 0-42.29-3.823 293 293 0 0 0-30.437 1.049.204.204 0 0 1-.218-.153.205.205 0 0 1 .152-.245"/></g><defs><clipPath id="clip0_3802_7842"><path fill="#fff" d="M0 0h79.681v23.689H0z"/></clipPath></defs></svg>