<svg fill="none" viewBox="0 0 80 24"><g clip-path="url(#clip0_3802_7985)"><path fill="#223C77" d="M55.438 8.025H56.7v2.92h.023q.132-.21.32-.375.188-.166.41-.277a2 2 0 0 1 .475-.177 2 2 0 0 1 .498-.066q.674 0 1.173.243.51.233.84.653.333.409.498.962a4.1 4.1 0 0 1 .166 1.184q0 .575-.154 1.117a2.8 2.8 0 0 1-.454.963q-.3.41-.763.663-.465.244-1.096.244-.287 0-.586-.044a2.04 2.04 0 0 1-1.04-.432 1.4 1.4 0 0 1-.354-.464h-.022v.785h-1.195zm4.403 5.045q0-.388-.1-.752a2 2 0 0 0-.298-.642 1.5 1.5 0 0 0-.498-.454 1.3 1.3 0 0 0-.686-.177q-.796 0-1.206.553-.398.554-.398 1.472 0 .431.1.807.11.366.32.631t.498.42q.3.155.686.155.432 0 .73-.177.3-.177.487-.453.2-.288.277-.642.088-.364.088-.741m7.117 1.582q0 .232.055.332.067.1.244.1h.133q.076 0 .177-.023v.874q-.067.023-.177.044-.1.033-.21.056a2.3 2.3 0 0 1-.41.044q-.387 0-.641-.155-.255-.155-.332-.542-.376.365-.93.53a3.6 3.6 0 0 1-1.05.167q-.388 0-.742-.11a2 2 0 0 1-.63-.3 1.65 1.65 0 0 1-.432-.52 1.7 1.7 0 0 1-.155-.74q0-.532.188-.864.2-.33.51-.52.32-.187.707-.265.398-.088.797-.133.342-.066.653-.088a3 3 0 0 0 .541-.1.83.83 0 0 0 .377-.199q.144-.144.144-.42a.63.63 0 0 0-.122-.399.7.7 0 0 0-.288-.232 1 1 0 0 0-.376-.11 2.6 2.6 0 0 0-.398-.034q-.531 0-.874.222-.343.22-.387.686h-1.261q.033-.554.265-.919t.586-.586q.366-.221.819-.31.453-.088.93-.088.42 0 .829.088.41.09.73.288.332.2.531.52.2.309.2.763zm-1.26-1.593a1.6 1.6 0 0 1-.709.232 8 8 0 0 0-.84.11 2.3 2.3 0 0 0-.388.1 1 1 0 0 0-.332.166.7.7 0 0 0-.232.277 1 1 0 0 0-.078.41q0 .21.122.353a1 1 0 0 0 .288.232q.177.078.376.111.21.033.376.033.21 0 .454-.055.243-.056.453-.188.222-.134.365-.332a.9.9 0 0 0 .144-.509zm2.617-2.854h1.195v.84l.022.022a2.07 2.07 0 0 1 .752-.74q.465-.277 1.03-.277.939 0 1.482.486.542.488.542 1.46v3.928h-1.261v-3.595q-.022-.675-.288-.974-.266-.31-.83-.31-.32 0-.575.122-.255.11-.431.32-.177.2-.277.476-.1.277-.1.587v3.374h-1.26zm6.385-2.18h1.262v4.492l2.279-2.312h1.549l-2.19 2.101 2.4 3.618h-1.538l-1.748-2.777-.752.73v2.047h-1.261z"/><path fill="#FFD200" d="M45.682 1.808c-.462-.342-.814-.785-1.236-1.142a2.45 2.45 0 0 0-3.402.043l-.042.043q-.178.148-.352.313l-3.48 3.451-.019.086c-.268 1.309.59 2.266.59 2.266l1.937 1.987 3.098 3.124 1.058-1.06 2.264-2.244 1.713-1.67.113-.095q.06-.053.178-.132a2.7 2.7 0 0 1 1.316-.467 2.6 2.6 0 0 1 .86.071l.015.005.01.003z"/><path fill="#223C77" d="m53.782 9.835-3.488-3.448-.016-.005a2.6 2.6 0 0 0-.859-.072 2.7 2.7 0 0 0-1.494.6l-.113.095-1.712 1.67-2.265 2.243-1.057 1.06 2.887 2.828 2.185 2.197.003.003.002.003c.085.09.357.415.544 1.03.193.64.095 1.214.062 1.37l-.01.044.002-.002 3.324-3.357 2.325-2.325c.39-.39.619-.883.688-1.39q.032-.181.035-.39c.016-.937-.454-1.537-1.043-2.154"/><path fill="#EE3524" d="M48.399 18.04c-.187-.616-.459-.94-.544-1.03l-.005-.007-2.185-2.197-2.887-2.827-2.83 2.884-2.199 2.19s-.804.816-2.127.652a3 3 0 0 1-.239-.04l4.468 4.504c.553.553 1.33 1.656 2.686 1.765a2.43 2.43 0 0 0 2.081-.682l2.71-2.71 1.107-1.07v-.002l.017-.018.01-.044c.032-.156.13-.73-.062-1.37"/><path fill="#EA4125" d="m47.855 17.01-.002-.004-.004-.003z"/><path fill="#3F9244" d="m39.68 8.855-1.938-1.987s-.858-.957-.59-2.266l.02-.086-4.586 4.534c-.576.576-1.752 1.394-1.776 2.86-.015.943.45 1.55 1.034 2.172l3.462 3.507.076.076v.002q.123.025.24.038c1.323.165 2.127-.653 2.127-.653l2.2-2.19 2.829-2.883z"/><path fill="#fff" d="M36.33 11.978c0-3.53 2.887-6.393 6.447-6.393s6.45 2.862 6.45 6.393-2.887 6.392-6.45 6.392c-3.562 0-6.447-2.861-6.447-6.392m.45 0a5.9 5.9 0 0 0 1.758 4.202 6 6 0 0 0 4.24 1.741 6 6 0 0 0 4.24-1.741 5.9 5.9 0 0 0 1.757-4.202c0-1.644-.67-3.127-1.757-4.205a6 6 0 0 0-4.24-1.74 6 6 0 0 0-4.24 1.74 5.9 5.9 0 0 0-1.757 4.205"/><path fill="#fff" d="M43.742 11.885a.953.953 0 1 1-1.907 0 .953.953 0 0 1 1.907 0"/><path fill="#223C77" d="M19.795 8.067v5.526s-2.126-3.215-2.444-3.754c-.547-.74-1.219-1.773-2.368-1.773H12.6v7.842h2.383v-5.525s2.126 3.214 2.444 3.754c.546.738 1.16 1.771 2.368 1.771h2.365V8.067zm-12.411 1.2C6.868 10.481 5.95 13.06 5.95 13.06L4.829 9.793s-.584-1.726-2.45-1.726H0v7.842h2.378v-5.441s.285.055.835 1.61l1.362 3.848h1.603S7.329 15.851 8 14.025l.863-2.354s.433-1.283.829-1.437v5.675h2.355V8.067H9.692s-1.79-.012-2.308 1.2m23.465 4.627-.018-.018h-3.665a1.874 1.874 0 0 1-1.877-1.87c0-1.032.84-1.87 1.877-1.87h3.52c.296-.327.614-.586.835-.807l1.276-1.262h-6.129a3.95 3.95 0 0 0-3.956 3.94 3.947 3.947 0 0 0 3.956 3.94h6.207z"/><path fill="url(#paint0_radial_3802_7985)" d="M48.73 11.978a5.953 5.953 0 1 1-11.905-.001 5.953 5.953 0 0 1 11.905 0"/></g><defs><radialGradient id="paint0_radial_3802_7985" cx="0" cy="0" r="1" gradientTransform="translate(42.778 11.978)scale(5.95203)" gradientUnits="userSpaceOnUse"><stop stop-color="#fff"/><stop offset="1" stop-color="#fff" stop-opacity="0"/></radialGradient><clipPath id="clip0_3802_7985"><path fill="#fff" d="M0 0h80v23.961H0z"/></clipPath></defs></svg>