<svg fill="none" viewBox="0 0 79 16"><g clip-path="url(#clip0_3802_10486)"><path fill="#000" d="M26.224 3.664H25.8c-.413 0-.594.121-.866.574L22.68 7.892l-.936-3.614c-.11-.433-.232-.604-.705-.604h-.352c-.463 0-.755.272-.846.755l-1.047 5.88c-.08.442.121.674.504.674h.16c.404 0 .585-.202.655-.635l.846-4.75.815 3.18c.07.322.131.534.745.534.514 0 .634-.182.816-.473l1.993-3.272-.846 4.751c-.08.453.121.675.494.675h.17c.403 0 .584-.212.655-.634l1.037-5.92c.09-.473-.141-.775-.614-.775m6.291 4.208c-.05-1.43-1.016-2.476-2.647-2.476-1.862 0-3 1.52-2.95 3.18.06 1.52 1.108 2.497 2.648 2.497 1.913-.01 3-1.54 2.95-3.2m-2.94 2.154c-.875 0-1.428-.634-1.459-1.5-.04-1.117.695-2.103 1.742-2.103.805 0 1.44.634 1.47 1.51.03 1.177-.705 2.093-1.752 2.093m7.096-4.631c-.775 0-1.39.382-1.802 1.027.04-.735-.362-.947-.775-.947-.191 0-.342.05-.352.07l-.846 4.782c-.08.494.191.635.554.635h.15c.393 0 .554-.161.635-.635l.503-2.869c.363-.634.765-.936 1.39-.936s.996.373 1.006.987c.01.16-.03.362-.06.604l-.393 2.214c-.08.494.201.635.554.635h.15c.393 0 .554-.161.635-.635l.433-2.446c.05-.272.08-.513.07-.735-.03-1.026-.715-1.751-1.852-1.751m23.817 0c-.634 0-1.107.362-1.429 1.027.05-.735-.352-.947-.765-.947-.201 0-.342.05-.352.07l-.856 4.782c-.08.494.242.635.604.635h.151c.342 0 .503-.161.594-.635l.282-1.6c.211-1.248.675-2.114 1.42-2.114a.94.94 0 0 1 .744.322c.02.02.584-.201.564-.866-.03-.413-.443-.674-.956-.674m6.503.08c-.524 0-.816.252-.987.916-.332-.624-1.016-1.006-1.812-1.006-1.69 0-2.869 1.51-2.869 3.221 0 1.41.866 2.456 2.235 2.456.836 0 1.48-.342 1.893-1.037-.06.725.08.947.604.947.463 0 .614-.171.664-.685.06-.946.383-2.486.755-4.65 0-.04-.211-.162-.483-.162m-3.141 4.55c-.825 0-1.299-.523-1.299-1.45 0-1.086.635-2.174 1.812-2.174.957 0 1.36.705 1.36 1.48 0 .977-.665 2.144-1.873 2.144m11.174-4.63c-.926 0-1.54.473-1.973 1.167-.211-.734-.846-1.167-1.651-1.167-.705 0-1.319.332-1.742.966.02-.674-.372-.876-.775-.876-.201 0-.342.05-.352.07l-.846 4.783c-.08.493.192.634.554.634h.151c.342 0 .554-.141.634-.635l.524-2.97c.382-.593.745-.845 1.308-.845.554 0 .896.413.896 1.037q0 .15-.03.332l-.423 2.446c-.08.494.202.635.554.635h.14c.343 0 .565-.151.645-.635l.524-2.97c.382-.593.745-.845 1.308-.845.534 0 .927.322.927.987 0 .16-.03.362-.071.604l-.393 2.214c-.08.494.192.635.554.635h.151c.393 0 .554-.161.634-.635l.433-2.446c.05-.272.07-.513.07-.735.01-1.077-.714-1.751-1.751-1.751M44.636 7.792c0-.745-.151-1.239-.483-1.671-.363-.464-1.037-.745-1.823-.745-2.375 0-3.231 1.751-3.231 3.271 0 1.45 1.047 2.416 2.658 2.416s2.516-.714 2.516-1.288c0-.383-.272-.514-.584-.544-.422.544-1.006.806-1.801.806-.705 0-1.54-.272-1.601-1.53h3.654c.393.01.695-.212.695-.715m-1.178-.172h-3.05c.292-.775.966-1.258 1.822-1.258.433 0 .765.12.986.363.192.221.262.523.242.895m12.522-.563h-2.174c-.261 0-.382.06-.463.14-.13.142-.201.464-.201.605.01.221.201.352.554.352h1.54c-.211 1.077-.896 1.822-2.074 1.822-1.238 0-2.063-.785-2.114-2.124-.06-1.681 1.057-3.07 2.638-3.07.926 0 1.65.493 1.943 1.147.04.05.895.05.865-.684-.01-.262-.16-.574-.443-.836-.453-.453-1.308-.845-2.446-.845-1.59 0-2.849.875-3.503 2.144 0-.01-.01-.01-.01-.01a.69.69 0 0 0-.554-.252c-.352 0-.584.11-.926.715l-1.691 2.97-.634-2.96c-.121-.554-.322-.725-.675-.725-.413 0-.745.302-.735.373l1.208 4.781-1.248 2.054c-.13.221-.14.513.332.513h.262c.493 0 .654-.302.896-.714l3.402-5.759c-.1.403-.15.836-.13 1.279.06 1.933 1.369 3.1 3.281 3.1.906 0 1.631-.342 2.034-.865-.03.563.272.785.674.785.222 0 .383-.07.383-.11l.553-3.101q.136-.726-.543-.725m22.237 3.322c.04.07.07.1.121.1 0 0 .01.08-.09.08-.061 0-.101-.03-.162-.14l-.11-.201h-.101l-.05.281c-.01.04-.03.06-.07.06h-.021c-.04 0-.06-.02-.05-.07l.14-.724c.01-.05.04-.07.091-.07h.212c.19 0 .302.08.302.22 0 .172-.111.283-.302.293zm-.13-.272c.13 0 .2-.07.19-.181 0-.08-.06-.131-.17-.131h-.152l-.06.302h.191z"/><path fill="#000" d="M78.057 9.463c.393 0 .705.322.705.704a.707.707 0 0 1-.705.705.707.707 0 0 1-.705-.705.7.7 0 0 1 .705-.704m0-.121a.83.83 0 0 0-.825.825.83.83 0 0 0 .825.826.83.83 0 0 0 .826-.826.83.83 0 0 0-.826-.825"/><path fill="#fff" d="M7.983 15.966A7.983 7.983 0 1 0 7.983 0a7.983 7.983 0 0 0 0 15.966"/><path fill="#DF2127" d="M15.966 7.983A7.983 7.983 0 1 1 .755 4.59a6.5 6.5 0 0 0-.473 2.386c0 3.614 2.92 4.138 4.157 4.128 1.893-.02 4.098-.947 5.96-2.658 0 0-.242 1.349-.312 1.762-.07.402.191.755.594.755h.16c.414 0 .716-.343.786-.755l.675-3.765c.08-.423-.192-.755-.615-.755H7.922c-.422 0-.805.221-.875.644 0 .02-.03.14-.03.171-.06.403.22.705.624.705h1.963l-.091.09c-1.359 1.279-3.04 1.983-4.43 1.983-1.378 0-2.929-.875-2.929-2.838C2.154 2.366 5.98 0 7.983 0c4.399 0 7.983 3.574 7.983 7.983"/></g><defs><clipPath id="clip0_3802_10486"><path fill="#fff" d="M0 0h78.883v15.966H0z"/></clipPath></defs></svg>