<svg fill="none" viewBox="0 0 80 17"><g clip-path="url(#clip0_3802_8078)"><path fill="#122448" d="M38.186 7.357c.087.043.163.098.239.141.021.011.043.033.065.044.043.021.076.054.108.076l1.065.673v-1.38c0-1.75-1.412-2.325-3.162-2.325h-.554v5.64h2.217c.043.021-.011-2.89.022-2.87m0-4.585c.087.043.163.098.239.141.021.011.043.033.065.044.043.032.076.054.108.076l1.065.673v-1.38C39.663.575 38.251 0 36.501 0h-.554v1.347l2.13 1.348c.032.033.076.054.109.076m5.933 10.247a7 7 0 0 1-2.39.424c-.827 0-1.38-.228-1.653-.695-.173-.294-.282-.663-.347-1.087l-.044.033-.022.01-3.173 2.445c.142.316.316.609.533.87.402.489.934.87 1.597 1.152.663.271 1.5.412 2.51.412q1.19 0 2.022-.195c.01 0 .01 0 .01-.01a1.32 1.32 0 0 0 1.011-1.305zM68.688 3.76c.63-.185 1.445-.348 2.445-.51 1-.164 2.043-.24 3.14-.24 1.109 0 2.043.141 2.771.435.74.293 1.326.695 1.76 1.228.435.532.74 1.162.924 1.89.185.729.272 1.544.272 2.435v7.4h-3.716V9.454c0-1.195-.163-2.043-.468-2.543-.315-.5-.902-.75-1.77-.75a12 12 0 0 0-1.642.12v10.117H68.7V3.76zM66.08 9.834c0 1.033-.152 1.967-.446 2.826-.304.858-.728 1.586-1.293 2.195a5.7 5.7 0 0 1-2.032 1.402c-.782.326-1.673.5-2.651.5-.968 0-1.837-.164-2.63-.5a6 6 0 0 1-2.032-1.402c-.565-.609-1-1.337-1.315-2.195-.315-.859-.467-1.804-.467-2.826 0-1.032.163-1.966.489-2.814s.771-1.565 1.347-2.162a5.9 5.9 0 0 1 2.043-1.391c.782-.337 1.652-.5 2.575-.5.946 0 1.815.163 2.608.5a5.8 5.8 0 0 1 2.032 1.39c.566.598 1 1.326 1.315 2.163.294.848.457 1.782.457 2.814m-3.793 0q0-1.71-.684-2.705-.686-.978-1.956-.978c-.848 0-1.5.326-1.967.978s-.696 1.554-.696 2.705c0 1.141.229 2.054.696 2.728s1.12 1.01 1.967 1.01q1.271 0 1.956-1.01c.456-.674.684-1.587.684-2.728m-11.703 6.575h-1.206a2.51 2.51 0 0 1-2.51-2.5V3.314h1.553c1.196 0 2.163.968 2.163 2.163zM33.458 9.834c0 1.033-.152 1.967-.445 2.826-.305.858-.729 1.586-1.294 2.195a5.7 5.7 0 0 1-2.032 1.402c-.782.326-1.673.5-2.651.5-.967 0-1.837-.164-2.63-.5a6 6 0 0 1-2.032-1.402 6.3 6.3 0 0 1-1.315-2.195 8.2 8.2 0 0 1-.478-2.826c0-1.032.163-1.966.489-2.814s.772-1.565 1.348-2.162a5.9 5.9 0 0 1 2.042-1.391c.794-.337 1.652-.5 2.576-.5.945 0 1.814.163 2.608.5a5.8 5.8 0 0 1 2.032 1.39c.565.598 1 1.326 1.315 2.163a8.3 8.3 0 0 1 .467 2.814m-3.792 0q0-1.71-.685-2.705-.686-.978-1.956-.978c-.848 0-1.5.326-1.967.978s-.695 1.554-.695 2.705c0 1.141.228 2.054.695 2.728q.699 1.01 1.967 1.01 1.272 0 1.956-1.01c.467-.674.684-1.587.684-2.728m-22.482-.38q0-1.793-.457-2.543c-.304-.5-.836-.75-1.575-.75-.228 0-.467.011-.717.044-.25.022-.49.054-.728.087v10.106H0V3.76q.473-.13 1.108-.26c.424-.088.87-.175 1.348-.25.478-.077.956-.131 1.456-.175q.75-.065 1.467-.065c.945 0 1.717.12 2.304.359s1.076.532 1.456.858a6.4 6.4 0 0 1 1.836-.902C11.66 3.108 12.301 3 12.877 3c1.043 0 1.902.142 2.575.435a4 4 0 0 1 1.609 1.228q.603.799.815 1.89.228 1.093.228 2.446v7.4h-3.706V9.454q0-1.793-.456-2.543c-.304-.5-.837-.75-1.587-.75-.195 0-.478.055-.836.153a3.4 3.4 0 0 0-.88.37c.119.38.184.782.217 1.205.032.424.054.88.054 1.359v7.15H7.194V9.454z"/><path fill="#DCA32D" d="m42.728 5.727-3.075-2.01-1.054-.674c-.033-.033-.077-.055-.11-.076-.02-.011-.043-.033-.064-.044a3 3 0 0 0-.229-.141h-.01a1 1 0 0 1-.11-.065l-2.129-1.348v4.097l.543.315c1.51.891 1.565 3.043.12 4.02l-.652.435v.696c0 .847.076 1.619.239 2.314.076.326.174.63.304.913l3.173-2.445.022-.01.044-.033.14-.109 2.946-2.14c1.25-.935 1.206-2.837-.098-3.695"/></g><defs><clipPath id="clip0_3802_8078"><path fill="#fff" d="M0 0h80v16.756H0z"/></clipPath></defs></svg>