<svg fill="none" viewBox="0 0 80 19"><g clip-path="url(#clip0_3802_8445)"><path fill="#5A5A5A" d="M40.68 15.625V7.507l-3.472 5.302h-.094l-3.519-5.208v8.118h-2.627V3.144h2.909l3.284 5.255L40.4 3.144h2.815v12.528H40.68zm9.994.14c-3.33 0-5.301-1.877-5.301-5.49v-7.13H48v7.085c0 2.017 1.08 3.05 2.721 3.05 1.643 0 2.722-.986 2.722-2.957V3.144h2.58v7.038c0 3.753-2.017 5.583-5.349 5.583m10.042-10.04v2.627h5.49v2.627h-5.49v4.693h-2.628V3.144h9.666V5.77h-7.039zm14.029 10.087c-3.848 0-6.475-2.721-6.475-6.381v-.047c0-3.519 2.721-6.428 6.475-6.428 2.252 0 3.566.61 4.833 1.69L77.842 6.71c-.939-.798-1.736-1.267-3.191-1.267-1.97 0-3.52 1.783-3.52 3.847v.094c0 2.3 1.502 3.941 3.708 3.941.985 0 1.736-.234 2.534-.75v-1.642H74.51V8.305H80v5.49c-1.267 1.126-2.956 2.017-5.255 2.017"/><path fill="#E60000" d="M17.032 0a9.6 9.6 0 0 0-3.847.798C12.059.282 10.745 0 9.385 0 4.222 0 0 4.176 0 9.384c0 5.161 4.223 9.384 9.384 9.384 1.36 0 2.675-.281 3.848-.797a9.4 9.4 0 0 0 3.847.797c5.162 0 9.384-4.223 9.384-9.384C26.416 4.176 22.241 0 17.033 0m-3.8 17.877A8.49 8.49 0 0 1 4.74 9.384 8.49 8.49 0 0 1 13.232.89a8.49 8.49 0 0 1 8.492 8.493c0 4.692-3.847 8.493-8.492 8.493m3.894-8.493a3.886 3.886 0 0 1-3.894 3.894 3.885 3.885 0 0 1-3.895-3.894 3.885 3.885 0 0 1 3.895-3.894 3.884 3.884 0 0 1 3.894 3.894"/></g><defs><clipPath id="clip0_3802_8445"><path fill="#fff" d="M0 0h80v18.768H0z"/></clipPath></defs></svg>