<svg fill="none" viewBox="0 0 79 23"><g clip-path="url(#clip0_3802_7698)"><path fill="#002657" d="M60.77 15.61v-.071q.002-.306-.001-.61c0-.052.015-.068.066-.068l.665.001c.08 0 .08 0 .08.082v4.996c0 .079 0 .08-.077.08h-.67c-.05 0-.064-.015-.064-.064v-.688c-.028.026-.047.041-.063.059a2.6 2.6 0 0 1-.825.597q-.662.305-1.387.23a2.6 2.6 0 0 1-1.43-.604 2.67 2.67 0 0 1-.834-1.23 2.8 2.8 0 0 1-.113-1.274 2.67 2.67 0 0 1 .54-1.287c.33-.425.745-.73 1.253-.904a2.6 2.6 0 0 1 1.349-.097 2.6 2.6 0 0 1 1.394.743l.09.092zm-3.798 1.736c0 .334.03.527.11.76.115.34.311.628.59.852.426.342.913.472 1.453.4a1.73 1.73 0 0 0 .954-.43c.624-.569.803-1.276.58-2.085a1.82 1.82 0 0 0-.688-.986 1.8 1.8 0 0 0-.739-.33 1.9 1.9 0 0 0-.688-.008 1.8 1.8 0 0 0-.762.313c-.542.396-.796.942-.81 1.514m15.448-1.747v-.676c-.001-.045.012-.062.059-.062q.346.003.693 0c.044 0 .061.016.057.06v5.042q.007.058-.054.057a51 51 0 0 0-.698 0c-.045 0-.058-.016-.058-.06q.002-.31 0-.62l-.003-.071c-.655.693-1.444.995-2.376.871-.684-.09-1.248-.422-1.687-.957a2.77 2.77 0 0 1 .167-3.671 2.57 2.57 0 0 1 1.962-.798c.764.018 1.403.326 1.924.891zm-3.798 1.727c0 .354.03.548.109.779.115.34.311.628.59.852.425.343.913.473 1.453.402.29-.038.56-.135.794-.307.663-.483.917-1.146.801-1.955a1.85 1.85 0 0 0-.501-1.019q-.406-.432-.985-.55a1.9 1.9 0 0 0-.694-.008 1.8 1.8 0 0 0-.761.315c-.539.396-.793.94-.806 1.49m6.637-1.959q.188-.22.434-.368.325-.197.7-.267.428-.08.854.002c.347.067.657.214.922.45.3.268.49.603.595.988q.091.34.088.692l.001 3.099c0 .052-.016.062-.064.062a29 29 0 0 0-.698 0c-.054.001-.068-.014-.068-.069v-2.918c0-.264-.03-.522-.135-.767-.164-.385-.438-.651-.847-.75-.51-.123-.976-.024-1.371.337-.2.182-.33.412-.384.68a2 2 0 0 0-.042.401q-.003 1.499-.002 2.998v.083l-.06.004q-.354-.001-.709.001c-.051 0-.061-.018-.061-.066v-7.192q.002-.028 0-.056c-.005-.046.012-.062.06-.062q.262.003.524.001.098.002.196 0c.04-.002.051.013.05.051v2.662zm-24.641-.485.06-.003q.398.001.794-.001c.046 0 .068.015.086.058q.393.936.79 1.87l.91 2.155c.006.015.016.028.029.05l.194-.451 1.042-2.423.521-1.214c.013-.03.028-.045.061-.045l.838.001c.01 0 .018.003.036.006l-.09.207-2.133 4.731q-.532 1.178-1.06 2.36c-.023.05-.048.072-.107.071q-.377-.004-.755-.002h-.077l.04-.1.999-2.152a.13.13 0 0 0 .002-.121q-.841-1.92-1.681-3.843l-.49-1.123zm-3.658 3.92q.11.095.217.183c.242.194.512.335.815.402.334.074.666.075.977-.096a.69.69 0 0 0 .284-.923.83.83 0 0 0-.386-.34q-.375-.179-.76-.335c-.333-.136-.66-.278-.936-.516a1.22 1.22 0 0 1-.422-1.192c.104-.57.456-.926.976-1.127.439-.17.89-.18 1.346-.088q.46.09.856.34c.053.034.103.075.155.11q.04.028.013.067l-.352.569c-.023.039-.045.025-.072.006a2.4 2.4 0 0 0-.499-.285 1.6 1.6 0 0 0-.827-.101 1.06 1.06 0 0 0-.473.17.608.608 0 0 0-.048.997c.164.139.354.234.55.318.267.113.538.218.803.336.23.103.445.234.634.405.264.24.393.54.395.898.003.381-.102.723-.354 1.012a1.54 1.54 0 0 1-.656.433 2.3 2.3 0 0 1-.901.122 2.9 2.9 0 0 1-1.225-.33 2 2 0 0 1-.53-.4c-.018-.02-.033-.036-.01-.066l.41-.55q.005-.007.02-.019m16.597-3.357c.057-.075.102-.139.152-.199a1.48 1.48 0 0 1 1.547-.5c.073.02.145.047.218.07.04.011.043.03.025.066a55 55 0 0 0-.331.688c-.02.04-.04.048-.079.032a1 1 0 0 0-.688-.021 1 1 0 0 0-.58.474c-.154.262-.223.55-.224.851-.006 1.001-.003 2.002-.004 3.003 0 .116 0 .116-.116.116h-.631c-.082 0-.082 0-.082-.082v-4.047l-.002-.96c0-.056.016-.075.073-.074q.324.004.648 0c.053 0 .072.013.07.07-.003.15 0 .3 0 .45 0 .016.002.032.004.063m3.321 2.006.001 2.501c0 .056-.011.075-.07.073a27 27 0 0 0-.699 0c-.048 0-.063-.013-.063-.063v-5.02c0-.047.011-.065.062-.064q.352.004.704 0c.051 0 .066.014.066.066q-.002 1.254-.001 2.507m-.423-3.713a.57.57 0 0 1-.579-.575c0-.327.254-.576.584-.575a.575.575 0 1 1-.005 1.15M46.598 9.939V0h2.3v3.402c.045-.024.073-.035.098-.052 1.334-.913 3.219-.73 4.407.63 1.392 1.592 1.184 4.08-.451 5.41a3.336 3.336 0 0 1-4.132.08l-.106-.076v.544zM51.94 6.47c-.011-.105-.017-.21-.035-.314a1.51 1.51 0 0 0-2.014-1.157c-.725.268-1.127 1.052-.945 1.844a1.5 1.5 0 0 0 1.751 1.167c.71-.122 1.236-.777 1.243-1.54m10.784 3.47h-2.148v-.523l-.126.093c-1.308.96-3.094.828-4.3-.315-1.722-1.634-1.477-4.53.496-5.846a3.32 3.32 0 0 1 3.811.085l.115.084V3h2.152zm-3.808-1.905c.851.004 1.503-.668 1.51-1.555.006-.89-.645-1.574-1.5-1.578-.86-.004-1.514.665-1.52 1.557-.006.895.642 1.573 1.51 1.576m19.907 1.911h-.136l-2.553.002c-.084 0-.13-.028-.175-.096q-.956-1.442-1.915-2.88a.3.3 0 0 0-.096-.096v3.062h-2.306V0h2.304v5.4l.026.009.072-.09q.865-1.115 1.726-2.235a.21.21 0 0 1 .191-.094q1.299.003 2.596.002h.135c-.035.048-.056.08-.08.108q-1.19 1.472-2.387 2.94c-.061.076-.066.124-.009.205q1.263 1.787 2.522 3.579zM66.142 9.94h-2.304V3h2.123v.521c.025-.011.036-.013.042-.02.455-.505 1.043-.705 1.7-.736.713-.033 1.376.117 1.94.577.627.512.908 1.197.918 1.99.014 1.148.005 2.297.006 3.447V9.84c0 .029-.003.058-.005.096h-2.306v-.134l.001-3.732c0-.21-.03-.414-.122-.606a1.026 1.026 0 0 0-1.141-.557 1.03 1.03 0 0 0-.846.947q-.006.116-.005.23v3.854M28.131 3.96V2.95q.069-.004.124-.005c.282 0 .563.004.844-.003.11-.003.142.025.142.138q-.005 3.343-.003 6.685v.126h-1.103V8.882c-.962.987-2.098 1.389-3.437 1.15-.863-.155-1.573-.59-2.13-1.265a3.7 3.7 0 0 1 .098-4.805c.722-.809 1.64-1.214 2.726-1.217 1.08-.004 1.982.418 2.739 1.215m-.015 2.46c-.022-.181-.034-.364-.069-.542-.327-1.696-2.21-2.6-3.73-1.794-1.015.537-1.54 1.661-1.333 2.85a2.57 2.57 0 0 0 2.863 2.085c1.318-.184 2.258-1.265 2.27-2.6m13.646 3.683c-1.28-.052-2.445-.654-3.165-1.961-.911-1.652-.39-3.671 1.184-4.746 1.68-1.145 4.073-.747 5.264.877a3.62 3.62 0 0 1-.995 5.224c-.64.405-1.34.6-2.288.606m.194-1.062c1.449 0 2.58-1.146 2.58-2.617.002-1.476-1.13-2.632-2.578-2.633-1.45-.001-2.599 1.161-2.598 2.63 0 1.466 1.143 2.618 2.596 2.62m-9.983.853h-1.128q-.005-.064-.006-.12 0-3.349-.002-6.697c0-.105.028-.136.134-.134.31.007.62.003.942.003v.74c.028-.012.043-.014.05-.022.635-.732 1.457-.998 2.396-.936.885.058 1.594.448 2.083 1.199a2.9 2.9 0 0 1 .459 1.577c.01 1.436.004 2.873.005 4.31q-.002.036-.008.08h-1.124V5.868c0-.383-.047-.758-.22-1.106-.316-.636-.836-.971-1.544-.993-.767-.024-1.38.268-1.785.938a1.9 1.9 0 0 0-.253.995zm-16.421 0h-1.13q-.005-.063-.006-.121l-.002-6.695c0-.103.024-.138.132-.135.31.007.62.002.941.002V3.7c.03-.02.047-.026.057-.037.586-.685 1.35-.96 2.23-.943.95.02 1.718.4 2.245 1.206a2.87 2.87 0 0 1 .46 1.576c.01 1.44.005 2.881.005 4.321 0 .022-.003.042-.006.07h-1.123q-.004-.067-.005-.136V5.851c0-.376-.048-.744-.216-1.085-.313-.637-.832-.974-1.54-.998-.767-.025-1.382.264-1.788.933-.19.314-.256.662-.256 1.027q.003 2.013.001 4.026z"/><path fill="#31F000" d="M8.836 4.77C8.786 1.374 5.033-.477 2.527.945A1.435 1.435 0 0 0 0 1.875V9.33a1.435 1.435 0 0 0 2.87 0V4.958c0-2.147 3.077-2.043 3.077 0h.02V9.33a1.435 1.435 0 0 0 2.87 0V4.838z"/></g><defs><clipPath id="clip0_3802_7698"><path fill="#fff" d="M0 0h78.853v22.253H0z"/></clipPath></defs></svg>