<svg fill="none" viewBox="0 0 56 80"><g clip-path="url(#clip0_3802_18304)"><path fill="#009AD9" d="M55.744 26.02v3.102c-.052.405-.033.814-.07 1.219a27 27 0 0 1-.785 4.548c-1.592 6-4.809 10.953-9.659 14.817-4.643 3.7-9.961 5.679-15.886 6.009a27 27 0 0 1-4.536-.134c-1.944-.219-3.85-.61-5.698-1.248-7.436-2.572-12.898-7.396-16.366-14.454C1.167 36.67.323 33.252.082 29.686a27 27 0 0 1 .03-3.966 27.4 27.4 0 0 1 .693-4.399c1.275-5.193 3.81-9.678 7.65-13.398C13.315 3.215 19.147.613 25.892.078a27 27 0 0 1 5.43.138c1.923.236 3.807.646 5.63 1.296 7.227 2.571 12.573 7.29 16.004 14.145a26.2 26.2 0 0 1 2.737 10.224c.003.05-.017.112.051.14m-22.582 2.715v9.474c0 .136 0 .271.023.407.137.8.586 1.386 1.284 1.76 1.343.717 2.732.762 4.105.113.993-.469 1.512-1.27 1.506-2.407-.014-2.965-.005-5.93-.004-8.896 0-1.397 0-2.793-.107-4.187-.083-1.076-.208-2.145-.442-3.2-.292-1.312-.862-2.477-1.786-3.46-.916-.975-2.014-1.684-3.232-2.214-2.25-.98-4.62-1.333-7.059-1.285-1.685.033-3.34.282-4.95.79-1.447.457-2.8 1.1-3.98 2.071-1.366 1.126-2.254 2.532-2.523 4.307a24 24 0 0 0-.247 3.496c-.014 4.262-.011 8.525-.015 12.787 0 .136.007.271.036.406.151.713.552 1.251 1.16 1.64.532.34 1.12.51 1.742.567.917.083 1.795-.057 2.595-.529.845-.498 1.287-1.227 1.288-2.236.005-3.935-.046-7.871.033-11.806.01-.543-.022-1.088.053-1.63a4.404 4.404 0 0 1 4.15-3.815c2.388-.125 4.461 1.722 4.618 4.115a4.43 4.43 0 0 1-3.719 4.673c-.055.01-.126-.005-.153.082 1.094.348 2.203.45 3.329.217.845-.175 1.598-.53 2.176-1.197.022-.025.042-.06.119-.043"/><path fill="#232323" d="M55.744 67.267c-.152.267-.395.332-.683.332q-2.516-.005-5.033-.002c-.098 0-.199-.016-.296.016-.021.898.625 1.782 1.538 2.039.992.278 1.92.148 2.732-.537.16-.134.296-.296.481-.398a.68.68 0 0 1 .745.03c.223.148.313.37.295.633-.013.19-.119.339-.241.476a3.3 3.3 0 0 1-.916.717c-1.29.677-2.631.764-3.996.273a3.35 3.35 0 0 1-1.923-1.713c-.67-1.356-.716-2.75-.046-4.11.668-1.356 1.813-2.054 3.314-2.168a3.7 3.7 0 0 1 1.398.144c1.293.41 2.06 1.32 2.466 2.58.092.285.107.582.165.872zm-5.964-1.066c.051.004.104.012.158.012h4.018c.239 0 .254-.016.195-.246-.173-.67-.53-1.206-1.16-1.528-1.03-.528-2.691-.208-3.172 1.44-.029.099-.088.201-.039.322M17.486 80c-.036-.09-.128-.082-.198-.109a1.4 1.4 0 0 1-.59-.422c-.12-.145-.122-.313-.015-.416.115-.111.272-.111.419.004.05.04.092.087.14.13.39.355 1.31.292 1.458-.481a2.7 2.7 0 0 0 .04-.536c-.358.393-.779.496-1.248.41a1.34 1.34 0 0 1-.818-.5c-.442-.549-.4-1.47.09-1.98.523-.544 1.265-.568 1.957-.06.017-.05.03-.103.052-.15q.108-.22.326-.188c.135.02.241.124.27.269a.4.4 0 0 1 .006.081c-.01.834.027 1.668-.033 2.501a1.9 1.9 0 0 1-.148.605 1.24 1.24 0 0 1-.814.743c-.081.025-.182.015-.24.099zm1.247-2.879c-.005-.498-.363-.844-.87-.84a.84.84 0 0 0-.85.87.83.83 0 0 0 .872.842.845.845 0 0 0 .848-.872"/><path fill="#FEFEFE" d="M33.162 28.736c-.077-.018-.097.017-.12.042-.577.667-1.33 1.022-2.175 1.197-1.126.233-2.235.131-3.33-.217.028-.087.1-.073.154-.082a4.43 4.43 0 0 0 3.719-4.672c-.157-2.394-2.23-4.24-4.619-4.116a4.404 4.404 0 0 0-4.15 3.815c-.074.542-.041 1.087-.052 1.63-.078 3.935-.028 7.87-.033 11.806-.001 1.009-.443 1.738-1.288 2.236-.8.472-1.678.612-2.595.529-.622-.057-1.21-.228-1.741-.567-.61-.389-1.01-.927-1.161-1.64a2 2 0 0 1-.036-.406c.004-4.262.002-8.524.015-12.787.004-1.17.072-2.336.247-3.496.269-1.775 1.157-3.18 2.524-4.307 1.179-.971 2.532-1.614 3.98-2.07a17.5 17.5 0 0 1 4.95-.79c2.438-.049 4.807.304 7.058 1.284 1.218.53 2.316 1.24 3.232 2.213.924.984 1.494 2.149 1.786 3.46.234 1.056.36 2.125.442 3.201.107 1.395.107 2.79.107 4.187-.001 2.965-.01 5.931.004 8.896.006 1.137-.513 1.938-1.506 2.407-1.373.649-2.762.604-4.105-.114-.698-.373-1.147-.96-1.284-1.76a2.4 2.4 0 0 1-.023-.406z"/><path fill="#232323" d="M40 64.097c.09-.097.163-.178.239-.254 1.61-1.61 4.43-1.4 5.78.431.472.64.714 1.365.726 2.154.018 1.224.011 2.448.009 3.673-.001.363-.155.652-.494.811a.82.82 0 0 1-.895-.098c-.235-.177-.33-.424-.333-.711v-1.197c0-.853.004-1.705-.001-2.558a1.99 1.99 0 0 0-1.544-1.955c-.99-.237-1.977.185-2.41 1.031a2.14 2.14 0 0 0-.217.998q.003 1.755 0 3.51c0 .108-.001.218-.015.325a.85.85 0 0 1-.864.744.86.86 0 0 1-.832-.785c-.007-.08-.004-.163-.004-.244q.002-1.782 0-3.564c-.002-.85-.37-1.492-1.139-1.857-.782-.372-1.555-.308-2.259.21-.54.399-.779.964-.781 1.628-.004 1.206 0 2.412-.002 3.618 0 .136.006.271-.038.404a.85.85 0 0 1-.91.58c-.428-.056-.738-.372-.752-.795-.014-.417-.006-.834-.005-1.251 0-.87-.022-1.742.011-2.611.041-1.107.493-2.036 1.357-2.738.813-.661 1.76-.906 2.797-.815 1.02.09 1.873.522 2.576 1.316m-29.095 3.499c.047 1.07.75 1.91 1.761 2.114.983.197 1.873.01 2.626-.687.087-.08.172-.162.266-.233.313-.238.712-.218.963.044.25.26.259.631.012.94a3 3 0 0 1-.662.601 4.5 4.5 0 0 1-2.265.758c-.62.04-1.231-.01-1.826-.205-1.151-.378-1.947-1.134-2.36-2.27-.42-1.152-.43-2.318.074-3.445.659-1.474 1.832-2.25 3.438-2.358 1.214-.081 2.247.316 3.047 1.253.494.579.773 1.261.909 2.005q.083.458.07.92c-.01.328-.19.518-.518.556-.099.01-.2.007-.3.007h-5.234m.065-1.401c.069.029.142.018.213.018h3.937c.272 0 .268-.001.204-.273-.225-.966-1.056-1.762-2.198-1.73-1.045.03-1.91.725-2.153 1.772-.016.069-.045.14-.003.213M5.92 68.182v-1.769c.004-1.153-.766-1.8-1.489-2.003-1.103-.31-2.226.245-2.583 1.28a2.4 2.4 0 0 0-.106.777v3.537c0 .108 0 .216-.025.324a.853.853 0 0 1-1.638.108 1.2 1.2 0 0 1-.071-.398c.004-1.17-.025-2.34.008-3.51.058-2.083 1.414-3.39 3.036-3.695 2.066-.388 4.068.794 4.5 2.934.047.23.079.464.079.701q.001 1.809-.001 3.619c-.001.5-.294.841-.762.902a.84.84 0 0 1-.925-.66 2 2 0 0 1-.022-.324zm21.341 1.24c.117.054.208.034.296.034h3.346c.073 0 .146-.003.218.002.424.027.684.284.693.685.009.394-.25.668-.672.705-.08.007-.163.005-.245.005-1.659 0-3.319-.004-4.978.002-.367.002-.702-.05-.871-.418-.17-.37-.01-.674.232-.965 1.327-1.597 2.646-3.201 3.967-4.803.068-.083.134-.168.212-.264-.086-.07-.18-.04-.262-.04l-3.237-.001c-.1 0-.2 0-.298-.014-.407-.057-.641-.344-.622-.752.018-.362.287-.614.69-.625.398-.01.798-.003 1.197-.003h3.917c.082 0 .164-.003.245.003.572.048.858.597.566 1.093-.05.085-.116.162-.179.239l-4.068 4.93c-.046.054-.088.112-.147.187m-6.134-3.094v1.686q0 .287.066.566c.12.502.444.79.958.868.316.048.633.03.95.04a.67.67 0 0 1 .645.452c.163.447-.112.92-.594.954-.651.044-1.307.038-1.94-.162-.978-.31-1.514-1.008-1.713-1.991a4.6 4.6 0 0 1-.082-.92q-.002-1.59 0-3.181v-.163c-.005-.194-.006-.197-.191-.198-.29-.003-.58 0-.87-.001-.073 0-.146.002-.218-.004-.398-.03-.66-.32-.657-.723.003-.4.273-.689.675-.7.353-.01.707-.001 1.06-.004.194-.002.198-.005.2-.196q.002-.898 0-1.795-.002-.109.002-.218c.028-.498.375-.827.864-.823.482.005.836.35.843.845.01.634.002 1.269.003 1.904v.19q.001.099.1.099h.19c.554 0 1.107-.007 1.66.003.534.01.858.5.661.99-.117.291-.345.434-.657.435q-.843.004-1.686 0c-.287 0-.268-.054-.268.28zm21.239 10.705.642.907c.041.059.087.117.117.181a.313.313 0 0 1-.106.408.32.32 0 0 1-.42-.056c-.048-.053-.085-.116-.126-.177q-.375-.565-.753-1.13c-.086-.127-.371-.197-.505-.133-.065.03-.052.088-.052.14l-.001.897c0 .063.004.127-.001.19-.016.184-.139.31-.309.32-.164.008-.303-.11-.332-.295-.012-.071-.007-.145-.007-.217v-3.154c0-.064-.004-.128.003-.19.025-.222.131-.326.354-.328.472-.005.943-.013 1.414.003.432.015.762.22.957.611.22.44.225.891.032 1.34a1.01 1.01 0 0 1-.72.608c-.06.015-.124.024-.187.075m-1.204-1.338c0 .2.003.4 0 .598-.002.087.023.139.12.137.308-.005.616 0 .924-.014.222-.008.366-.147.453-.34a.87.87 0 0 0-.002-.738c-.096-.216-.262-.344-.507-.346-.28-.003-.562.002-.842-.006-.128-.004-.15.057-.147.165.005.181.001.363.002.544m-17.477 1.339.667.94c.047.067.1.129.115.213.028.153-.022.28-.145.35a.31.31 0 0 1-.396-.058c-.05-.052-.086-.116-.126-.176l-.755-1.129c-.089-.132-.358-.209-.5-.146-.078.034-.058.105-.058.164q-.002.45-.001.897c0 .064.005.128-.003.19a.33.33 0 0 1-.33.3c-.157-.001-.284-.114-.31-.286-.01-.07-.006-.144-.006-.217v-3.18c0-.072-.004-.145.006-.216.027-.176.13-.28.31-.283.507-.005 1.016-.02 1.521.01.522.03.883.392 1.013.948q.107.449-.047.883c-.135.372-.383.63-.78.724q-.066.017-.13.038c-.008.003-.015.01-.045.034m-1.199-1.36q.002.314-.001.626c-.002.09.028.133.123.131.3-.005.598-.001.897-.011.22-.007.37-.132.463-.326a.86.86 0 0 0-.019-.808.5.5 0 0 0-.457-.292c-.29-.006-.58 0-.87-.007-.108-.002-.14.042-.137.145.005.18 0 .362.001.543m25.818.373c.259-.298.575-.388.922-.379.365.01.633.192.814.528.266-.415.63-.572 1.082-.521.52.058.838.368.918.884q.026.174.027.352.004.61.001 1.223c0 .054.004.11-.004.163a.314.314 0 0 1-.314.28c-.158 0-.282-.115-.305-.288-.008-.063-.003-.127-.003-.19v-1.006q.002-.096-.002-.19c-.021-.37-.231-.604-.555-.62a.64.64 0 0 0-.691.554c-.018.107-.018.217-.019.326q-.002.475 0 .951c0 .064.004.128-.007.19a.32.32 0 0 1-.322.274.31.31 0 0 1-.298-.267c-.011-.062-.006-.127-.007-.19v-1.033q.002-.096 0-.19c-.019-.371-.232-.607-.555-.616-.39-.011-.682.227-.701.603-.02.37-.007.743-.008 1.114 0 .082.005.164-.003.245-.02.203-.15.334-.325.334s-.308-.131-.31-.341a164 164 0 0 1 0-2.175c0-.204.102-.33.264-.359.169-.03.274.043.363.25zm-18.677-.014c.404-.462 1.338-.559 1.712.12.073.013.09-.052.119-.092.271-.369.756-.483 1.229-.34.444.136.644.487.683.923.049.534.022 1.07.016 1.604-.003.206-.142.333-.32.33-.18-.004-.295-.131-.298-.35-.006-.39 0-.78-.003-1.169 0-.09-.003-.182-.02-.27-.064-.322-.254-.495-.547-.508a.635.635 0 0 0-.667.484c-.026.104-.03.215-.032.323-.004.327-.002.653-.002.98 0 .054.002.109-.003.163-.02.223-.15.357-.337.347-.177-.01-.287-.137-.29-.358-.005-.39-.001-.78-.002-1.17 0-.072.004-.146-.006-.217-.043-.34-.256-.546-.563-.552-.357-.006-.624.2-.682.533-.044.252-.015.507-.02.76-.005.218.005.436-.005.653-.01.225-.146.359-.332.35-.177-.007-.293-.136-.294-.354q-.006-1.074 0-2.148c0-.223.1-.35.275-.374.17-.022.26.049.347.267.006.016.019.03.043.065m-26.018-.036c0 .363-.01.726.003 1.088.03.86-.672 1.561-1.613 1.52-.876-.037-1.47-.634-1.485-1.515-.012-.77-.003-1.54-.003-2.31q0-.042.002-.082c.022-.204.153-.342.321-.342.186 0 .324.143.325.36.004.724.002 1.449.002 2.174 0 .09-.004.182.003.272.04.492.436.833.94.823.406-.008.865-.353.859-.873-.01-.743-.003-1.486-.003-2.23 0-.072-.005-.145.004-.217.026-.189.182-.321.353-.308.164.013.283.142.29.335.008.227.002.453.002.68zm23.868.047c.025-.064.039-.118.064-.165q.116-.214.331-.176c.134.023.24.13.263.276.009.053.005.108.005.162v2.064c-.01.213-.113.348-.285.371-.158.021-.27-.066-.348-.273l-.027-.077c-.635.608-1.529.412-1.971-.07-.509-.555-.503-1.516.018-2.058.492-.513 1.384-.608 1.95-.054m-.85 1.948c.505.005.865-.342.872-.84.007-.5-.345-.862-.844-.871-.501-.009-.866.343-.872.84s.354.867.845.871m19.52-1.965c.065-.037.046-.114.078-.166.073-.12.176-.179.318-.159.136.02.245.126.267.269.008.053.005.108.005.162v2.01c0 .044.003.09-.003.135a.33.33 0 0 1-.27.297c-.135.022-.257-.046-.327-.187-.024-.046-.014-.11-.067-.142-.713.622-1.57.347-1.97-.1-.497-.556-.49-1.498.017-2.037.44-.47 1.31-.667 1.952-.082m.029 1.131c.011-.499-.338-.865-.836-.877-.492-.011-.861.329-.874.806-.015.523.332.898.833.905.508.007.865-.332.877-.834m8.199.199c-.29 0-.58-.003-.87 0-.161.003-.177.029-.128.173a.71.71 0 0 0 .414.444c.3.122.6.123.885-.055.076-.048.145-.11.222-.157.14-.086.309-.069.396.035.092.109.078.261-.047.39-.304.312-.687.424-1.111.42-.853-.008-1.493-.682-1.42-1.627.074-.953.952-1.51 1.885-1.254.553.152.949.629.973 1.296.009.23-.088.327-.328.332-.29.007-.58.002-.87.002m.55-.466c-.024-.4-.309-.657-.734-.675-.445-.018-.781.252-.83.675zm-19.23.467q-.449.002-.897-.001c-.117-.001-.142.054-.11.153a.72.72 0 0 0 .425.466c.3.12.601.123.885-.058.076-.048.144-.11.221-.156.142-.086.312-.066.396.038.09.111.076.268-.05.392-.348.342-.775.448-1.249.405-.7-.064-1.204-.574-1.28-1.292-.078-.74.306-1.366.976-1.568.841-.254 1.768.168 1.88 1.207.031.288-.067.408-.354.413-.28.004-.562.001-.843.001m-1.01-.466h1.563c-.03-.406-.336-.674-.764-.676-.44-.001-.765.27-.799.676m-20.855-.86c.168-.181.38-.305.64-.348.623-.104 1.126.247 1.214.871.078.559.037 1.122.032 1.683-.001.22-.158.354-.342.34-.176-.013-.284-.142-.287-.362-.005-.345-.002-.69-.002-1.033 0-.09.003-.182-.001-.272-.017-.364-.21-.595-.517-.625-.39-.037-.693.17-.768.532-.018.088-.018.18-.018.27l-.002 1.06c0 .064.004.13-.01.19a.32.32 0 0 1-.322.24.3.3 0 0 1-.281-.248c-.013-.061-.013-.126-.013-.19v-1.984q-.002-.055 0-.108c.014-.204.113-.326.279-.346.17-.021.272.058.347.27.007.02-.004.053.05.06m-2.145 2.176c-.28.307-.596.426-.973.392-.478-.044-.803-.327-.9-.799a2.2 2.2 0 0 1-.051-.458c.003-.398 0-.796.001-1.195 0-.063-.003-.128.01-.189a.315.315 0 0 1 .334-.258c.148.009.262.115.287.277.01.062.004.126.004.19v.977q-.001.122.005.244c.023.352.212.575.508.602.385.035.673-.156.763-.501a1.1 1.1 0 0 0 .03-.296v-1.032c0-.064-.004-.128.006-.19a.31.31 0 0 1 .319-.272c.154.003.265.102.292.265.01.053.008.109.008.163v2.037q-.009.389-.295.413c-.175.014-.28-.09-.348-.37m-6.573-2.153c.296-.309.628-.432 1.025-.372.44.066.724.317.83.748.034.14.058.284.057.43l-.001 1.305c0 .054.002.11-.01.162a.324.324 0 0 1-.315.25.306.306 0 0 1-.294-.237c-.017-.069-.015-.143-.016-.215v-1.033q.002-.109-.004-.218c-.022-.336-.204-.552-.493-.587-.367-.044-.673.14-.766.46q-.046.172-.043.35v1.006c0 .063.005.127-.003.19a.315.315 0 0 1-.308.285c-.162.002-.289-.11-.302-.285-.01-.135-.004-.272-.004-.408v-1.712c0-.073-.005-.147.006-.217.023-.14.115-.224.25-.252.128-.025.229.024.31.126.047.06.036.135.081.224m2.937.232c-.091-.059-.175-.031-.255-.039q-.283-.026-.28-.263c.002-.149.085-.233.259-.257a1 1 0 0 1 .136-.004c.102.004.144-.04.142-.146q-.009-.299 0-.598c.005-.216.121-.348.296-.351.184-.004.316.14.322.358.005.19.008.381-.002.571-.007.136.05.175.175.167a1 1 0 0 1 .243.013c.14.028.224.142.214.272a.26.26 0 0 1-.23.232 1 1 0 0 1-.216.004c-.14-.014-.188.035-.186.18.008.535.003 1.07.003 1.604q.002.096 0 .19c-.01.222-.135.36-.322.358-.178-.002-.294-.13-.297-.348-.006-.371-.002-.743-.002-1.115zm30.534.551c.253 0 .506-.004.759.001.198.005.322.122.322.29-.001.157-.112.275-.304.278q-.786.012-1.573-.002c-.2-.003-.291-.112-.287-.286.004-.17.104-.273.296-.279.262-.007.524-.002.786-.002"/></g><defs><clipPath id="clip0_3802_18304"><path fill="#fff" d="M0 0h55.744v80H0z"/></clipPath></defs></svg>