<svg fill="none" viewBox="0 0 80 29"><g clip-path="url(#clip0_3802_9852)"><path fill="#55474A" d="M6.575 2.906C2.953 2.906 0 5.646 0 9.014c0 3.865 2.705 6.563 6.575 6.563s6.576-2.698 6.576-6.563c0-3.368-2.948-6.108-6.576-6.108m0 9.92c-2.018 0-3.604-1.67-3.604-3.794 0-1.8 1.687-3.374 3.604-3.374s3.599 1.58 3.599 3.374c0 2.13-1.58 3.793-3.599 3.793m15.915 2.344h3.457l-5.38-6.25.023-.024 4.865-5.587h-3.231l-4.717 5.345V3.308H14.66V15.17h2.847V9.56l.065.07z"/><path fill="#FAA61A" d="M38.257 2.811A7.46 7.46 0 0 0 32.404 0a7.46 7.46 0 0 0-5.854 2.811l-.248.314.307.249 1.237.988.308.248.249-.313a5.1 5.1 0 0 1 3.995-1.924 5.08 5.08 0 0 1 3.995 1.924l.248.313.308-.248 1.237-.988.314-.249-.249-.314z"/><path fill="#F04923" d="M32.404 13.033a1.308 1.308 0 1 0 0 2.616 1.308 1.308 0 0 0 0-2.616m1.681-7.293a1.68 1.68 0 0 0-3.362 0c0 .072.787 5.748.787 5.748h.006a.888.888 0 0 0 1.776 0s.792-5.587.792-5.747"/><path fill="#55474A" d="M46.709 9.304c.727-.326 1.598-.947 1.598-2.486 0-1.941-1.178-2.847-3.711-2.847h-3.622v11.204h3.764c2.332 0 3.835-1.267 3.835-3.226 0-1.627-.983-2.331-1.87-2.64m-3.267 1.019h.929c1.107 0 1.669.497 1.669 1.48 0 .982-.58 1.473-1.604 1.473h-.994zm.911-1.823h-.911v-2.71h.864c.947 0 1.533.49 1.533 1.278 0 .846-.61 1.432-1.486 1.432m11.038-4.534h-2.628l-4.03 11.121-.03.077h2.563l.84-2.61h3.735l.823 2.61h2.621L55.421 4.09l-.048-.124zm-.106 6.706h-2.605l1.356-4.273 1.243 4.273zm11.387 1.166-3.61-7.872H60.19V15.17h2.326V7.351l3.545 7.706.041.112h2.895V3.971h-2.332zm8.901-2.581 4.125-5.29H76.74L73.644 8.22V3.97H71.11v11.2h2.534v-4.73l3.213 4.646.06.083H80zM42.205 21.52H40.98v6.682h1.225zm1.255 2.568c0-.308-.013-.592-.036-.81h1.112c.012.248.042.508.042.757h.018c.171-.296.509-.835 1.308-.835 1.124 0 1.456.835 1.456 1.83v3.177h-1.19v-2.959c0-.757-.19-1.071-.68-1.071-.622 0-.841.527-.841 1.16v2.87h-1.19zm9.02-3.066v6.34c0 .354.01.662.04.84h-1.112a7 7 0 0 1-.042-.77h-.03c-.194.42-.55.84-1.313.84-1.225 0-1.734-1.165-1.734-2.538 0-1.61.639-2.545 1.704-2.545.71 0 1.101.402 1.273.787h.017v-2.96h1.19zm-2.126 6.387c.699 0 .941-.758.941-1.687 0-.93-.266-1.658-.917-1.658s-.888.64-.888 1.628c0 1.136.178 1.717.87 1.717m5.25-4.209c1.006 0 2.166.527 2.166 2.54s-1.16 2.544-2.166 2.544-2.172-.479-2.172-2.544 1.166-2.54 2.172-2.54m0 4.244c.764 0 .941-.882.941-1.704 0-.823-.172-1.693-.941-1.693-.77 0-.947.87-.947 1.692 0 .823.184 1.705.947 1.705m3.101-3.356c0-.308-.012-.592-.035-.81h1.112c.006.248.036.508.036.757h.018c.171-.296.509-.835 1.314-.835 1.118 0 1.456.835 1.456 1.83v3.177h-1.19v-2.959c0-.757-.195-1.071-.68-1.071-.622 0-.841.527-.841 1.16v2.87h-1.19zm8.588 3.877c-.249.106-.764.32-1.474.32-1.586 0-2.278-1.143-2.278-2.469 0-1.473.775-2.616 2.03-2.616 1.065 0 1.97.622 1.97 2.634v.231h-2.852c0 .84.337 1.35 1.255 1.35.727 0 1.07-.22 1.29-.385zm-.9-2.652c0-.87-.284-1.314-.822-1.314-.622 0-.882.663-.882 1.314zm1.936 1.74c.195.077.68.326 1.237.326.432 0 .763-.107.763-.485 0-.196-.095-.373-.527-.622l-.49-.29c-.498-.296-1.048-.61-1.048-1.385 0-.68.662-1.397 1.704-1.397.633 0 1.119.16 1.231.202l-.065.917c-.296-.112-.61-.219-1.042-.219-.479 0-.68.183-.68.48 0 .266.213.414.556.633l.586.373c.61.39.917.668.917 1.242 0 .912-.769 1.456-1.84 1.456a4 4 0 0 1-1.367-.236l.059-.989zm4.125-5.877h1.225v1.172H72.46zm.018 2.095h1.19v4.93h-1.19zm2.616.291c.337-.154.805-.362 1.562-.362 1.533 0 1.888.746 1.888 1.983v2.154c0 .356.036.681.065.87h-1.071c-.06-.195-.065-.432-.065-.668h-.018c-.296.402-.675.745-1.379.745-.763 0-1.474-.526-1.474-1.444 0-1.343 1.095-1.675 2.593-1.675h.242v-.183c0-.491-.242-.941-.917-.941-.592 0-1.119.284-1.35.48l-.065-.96zm2.337 2.23h-.106c-1.018 0-1.622.208-1.622.93 0 .45.296.758.758.758.71 0 .97-.527.97-1.41z"/></g><defs><clipPath id="clip0_3802_9852"><path fill="#fff" d="M0 0h80v28.284H0z"/></clipPath></defs></svg>