<svg fill="none" viewBox="0 0 80 81"><g clip-path="url(#clip0_3802_18209)"><path fill="#FFCB07" d="M0 68.417V11.626c.063-.032.058-.097.065-.151.043-.336.07-.674.124-1.008.499-3.054 1.92-5.594 4.29-7.584C6.365 1.3 8.546.38 10.996.1c.265-.03.54.002.795-.1H68.31c.068.076.162.047.245.052.396.026.791.065 1.18.139 4.23.799 7.294 3.135 9.165 7.013a11.3 11.3 0 0 1 1.099 4.538q-.005.246-.006.493v55.603q.001.231.007.464c-.01.212-.01.426-.03.637-.152 1.488-.524 2.918-1.213 4.247-1.977 3.81-5.084 6.072-9.329 6.756-.218.035-.445.009-.654.101H11.327c-.077-.05-.166-.044-.252-.052a10 10 0 0 1-1.061-.155c-2.522-.498-4.69-1.66-6.477-3.507-2.002-2.067-3.145-4.542-3.43-7.41-.017-.17-.009-.348-.107-.502M40.051 5.482H12.432a6.845 6.845 0 0 0-6.923 6.842l-.001 55.453q.001.626.115 1.242c.588 3.194 3.408 5.56 6.65 5.575.832.004 1.665 0 2.497 0l52.887.001a7.3 7.3 0 0 0 1.385-.122c3.179-.61 5.53-3.45 5.53-6.696q.003-27.727 0-55.454 0-.815-.197-1.61c-.774-3.104-3.5-5.23-6.704-5.23z"/><path fill="#0079C0" d="M40.051 5.482h27.62c3.205 0 5.93 2.127 6.704 5.232q.197.793.198 1.61v55.453c0 3.246-2.352 6.086-5.531 6.696a7.3 7.3 0 0 1-1.385.122H14.77c-.832 0-1.665.003-2.498-.001-3.241-.014-6.061-2.381-6.649-5.575a7 7 0 0 1-.115-1.242l.001-55.453a6.845 6.845 0 0 1 6.923-6.842zM8.994 40.038c-.042 16.924 13.58 30.913 30.713 31.091 17.262.18 31.243-13.682 31.377-30.808.135-17.301-13.75-31.195-30.717-31.365C22.96 8.782 8.973 22.91 8.994 40.038"/><path fill="#FEFEFF" d="M8.994 40.038C8.973 22.91 22.96 8.782 40.367 8.956c16.966.17 30.852 14.064 30.717 31.365-.134 17.126-14.115 30.987-31.377 30.808-17.133-.178-30.755-14.167-30.713-31.09m52.474 5.72c.24.256.441.478.652.69.26.263.433.264.689.01.542-.54 1.074-1.09 1.627-1.619.202-.194.226-.46.007-.676-1.294-1.28-2.577-2.573-3.865-3.86-.249-.248-.409-.246-.663.007q-.815.809-1.623 1.623c-.262.264-.261.42.001.687q.397.406.802.8c.081.08.099.15.044.254-.12.231-.226.47-.346.703-1 1.938-2.252 3.703-3.67 5.354-2.011 2.343-4.381 4.23-7.166 5.58a17.6 17.6 0 0 1-6.693 1.755 18 18 0 0 1-4.678-.325c-4.316-.884-8.007-2.935-11.092-6.06-1.573-1.592-2.812-3.446-3.871-5.418a11.5 11.5 0 0 1-.62-1.376c-.055-.147-.043-.247.075-.358.254-.238.498-.488.74-.738.248-.253.248-.416-.002-.668q-.798-.804-1.601-1.602c-.264-.263-.432-.266-.69-.009a2576 2576 0 0 0-3.84 3.843c-.252.253-.249.41.004.666q.666.669 1.334 1.336c.117.117.228.238.35.348.167.15.35.151.522.008.082-.068.151-.15.23-.223.13-.121.239-.27.38-.36.067.032.073.072.085.107a9.7 9.7 0 0 0 .968 2.01c1.604 2.563 3.524 4.86 5.843 6.803 3.974 3.33 8.557 5.1 13.744 5.265 1.904.06 3.788-.136 5.645-.564 3.896-.898 7.375-2.626 10.314-5.354 2.425-2.25 4.38-4.878 5.941-7.796.136-.255.26-.516.423-.844zM37.582 36.3v-3.748c0-.28.002-.28.29-.28l1.48-.001c.315-.001.336-.02.337-.324q.005-.755 0-1.51c0-.31-.025-.335-.328-.335h-5.75c-.29 0-.32.032-.322.312q-.005.77 0 1.54c.001.289.028.316.316.317q.754.002 1.51 0c.283.001.283.003.286.288v5.463c0 .253.016.503.087.748a2.19 2.19 0 0 0 1.872 1.56c.2.018.215.005.222-.194q.002-.087 0-.174zm6.801.001v-3.775c0-.251.004-.254.257-.254l1.538-.001c.288-.002.319-.03.32-.315q.006-.755.001-1.51c-.001-.32-.026-.344-.35-.344H40.43c-.311 0-.34.028-.34.326q-.005.77 0 1.539c0 .265.038.302.302.304.493.003.986 0 1.48.001.357.001.339-.044.339.35v5.43c0 .233.01.463.072.69.236.858 1 1.506 1.879 1.587.198.019.213.006.22-.194q.002-.087 0-.174zm7.737-6.28a5.19 5.19 0 0 0-5.197 5.187 5.186 5.186 0 0 0 5.2 5.21c2.866-.005 5.196-2.338 5.193-5.198a5.21 5.21 0 0 0-5.196-5.199m-19.233 5.195a5.1 5.1 0 0 0-5.09-5.106c-2.833-.002-5.126 2.28-5.128 5.102-.002 2.827 2.29 5.127 5.111 5.124 2.929-.002 5.145-2.421 5.107-5.12m3.99 14.164c.38-.002.716.02 1.051-.015.184-.019.293-.135.35-.305.078-.229.165-.455.231-.688.041-.146.113-.198.265-.196q.813.014 1.626-.001c.171-.004.238.063.28.216.066.233.152.46.231.688a.4.4 0 0 0 .275.276c.16.046.897.034 1.099-.025l-.54-1.405-1.417-3.654c-.1-.255-.107-.26-.38-.262-.243-.002-.485.008-.727-.004-.195-.01-.298.069-.365.252-.194.526-.402 1.047-.605 1.57zm-3.589-3.138v1.916c.016.577.427 1.08.969 1.189.252.05.286.025.287-.232q.002-.595 0-1.19c.002-.362-.033-.335.322-.333.29.001.58-.005.868-.044.924-.122 1.495-.67 1.59-1.57.085-.789-.243-1.498-1.092-1.802a2.8 2.8 0 0 0-.91-.161c-.56-.008-1.121-.007-1.682-.006-.325 0-.35.026-.352.346zm10.662.186c-.086-.074-.108-.171-.15-.255-.293-.6-.59-1.198-.872-1.802-.123-.263-.305-.382-.593-.365-.222.012-.445-.001-.668.003-.234.005-.263.054-.158.254q.042.076.087.15c.527.902 1.051 1.806 1.584 2.705.098.165.146.33.137.52-.009.213-.01.427.006.639.041.536.496 1.013 1.016 1.08.205.026.216.02.217-.185a96 96 0 0 0-.001-1.598.8.8 0 0 1 .117-.438c.342-.573.676-1.15 1.013-1.727.224-.384.452-.767.671-1.154.104-.184.07-.239-.14-.246-.203-.006-.408.014-.61-.005-.362-.032-.57.126-.716.454-.295.662-.623 1.31-.94 1.97"/><path fill="#0074BA" d="M61.468 45.759c-.164.327-.287.589-.423.843-1.561 2.919-3.516 5.546-5.94 7.797-2.94 2.727-6.419 4.455-10.315 5.353a22 22 0 0 1-5.645.565c-5.187-.165-9.77-1.936-13.744-5.266-2.319-1.943-4.239-4.24-5.843-6.802a9.7 9.7 0 0 1-.968-2.01c-.012-.036-.018-.076-.086-.107-.14.09-.248.238-.38.36-.078.072-.147.154-.229.222-.172.144-.355.142-.521-.008-.123-.11-.234-.231-.35-.348q-.669-.666-1.335-1.336c-.253-.255-.256-.413-.004-.666q1.918-1.922 3.84-3.842c.258-.257.426-.255.69.008q.803.799 1.601 1.603c.25.252.25.415.003.668-.243.25-.487.5-.741.738-.118.11-.13.21-.074.358.178.471.38.932.619 1.376 1.059 1.971 2.298 3.825 3.871 5.418 3.085 3.124 6.776 5.175 11.092 6.06 1.546.316 3.107.419 4.678.324a17.6 17.6 0 0 0 6.693-1.755c2.785-1.35 5.155-3.236 7.167-5.58 1.417-1.65 2.67-3.416 3.67-5.354.119-.232.225-.471.345-.703.055-.104.037-.173-.044-.253q-.405-.395-.802-.8c-.262-.267-.263-.423 0-.687q.809-.815 1.621-1.624c.255-.253.415-.255.664-.006 1.288 1.287 2.57 2.579 3.865 3.859.219.216.195.483-.007.677-.553.528-1.085 1.079-1.627 1.618-.256.254-.428.253-.689-.01-.21-.212-.412-.434-.652-.689z"/><path fill="#0074BA" d="M37.582 36.3v3.662q.002.087 0 .174c-.007.2-.022.212-.222.193a2.19 2.19 0 0 1-1.872-1.56 2.7 2.7 0 0 1-.087-.747V32.56c-.003-.285-.003-.287-.286-.287l-1.51-.001c-.288-.002-.315-.028-.316-.317q-.005-.77 0-1.54c.001-.28.033-.312.323-.312h5.75c.302 0 .326.026.327.334q.005.756 0 1.511c-.001.304-.022.323-.337.324h-1.48c-.288 0-.29.002-.29.28zm6.801.001v3.66q.002.087 0 .174c-.007.2-.022.213-.22.194a2.19 2.19 0 0 1-1.878-1.587 2.6 2.6 0 0 1-.073-.69v-5.43c0-.394.018-.349-.34-.35-.493-.002-.986.002-1.48-.001-.263-.002-.3-.04-.302-.304q-.004-.77 0-1.54c.001-.297.03-.325.341-.325h5.717c.325 0 .35.024.351.344q.005.754 0 1.51c-.002.284-.033.314-.32.315-.513.002-1.026-.001-1.539 0-.253.001-.256.004-.256.255z"/><path fill="#EE3151" d="M52.12 30.021a5.21 5.21 0 0 1 5.196 5.2c.003 2.86-2.327 5.192-5.193 5.197a5.186 5.186 0 0 1-5.2-5.21 5.19 5.19 0 0 1 5.197-5.187m-.013.757a4.44 4.44 0 0 0-4.428 4.444 4.435 4.435 0 0 0 4.429 4.44c2.45.006 4.464-2.008 4.451-4.456-.012-2.442-2.014-4.433-4.452-4.428m-19.22 4.438c.038 2.699-2.178 5.118-5.107 5.12-2.822.003-5.113-2.297-5.111-5.124.002-2.823 2.295-5.104 5.129-5.102a5.1 5.1 0 0 1 5.09 5.106m-.736.046c.051-2.32-1.88-4.329-4.198-4.41-2.357-.082-4.453 1.74-4.534 4.213-.08 2.45 1.842 4.474 4.25 4.525 2.448.051 4.428-1.86 4.482-4.328"/><path fill="#0074BA" d="m36.878 49.38 1.373-3.552c.203-.524.411-1.045.605-1.571.067-.183.17-.262.365-.252.242.012.484.002.726.004.274.002.282.007.381.262l1.416 3.654.541 1.405c-.202.059-.938.07-1.099.025a.4.4 0 0 1-.275-.276c-.079-.228-.166-.455-.23-.688-.043-.153-.11-.22-.28-.216q-.814.016-1.627.001c-.152-.002-.224.05-.265.196-.066.233-.153.46-.23.688-.058.17-.167.286-.351.305-.335.034-.67.013-1.05.015m3.435-2.07-.721-2.139c-.236.754-.505 1.425-.703 2.138zm-7.025-1.068v-1.887c.001-.32.027-.346.352-.346.56 0 1.122-.002 1.682.006.31.005.615.055.91.16.849.305 1.177 1.014 1.093 1.804-.096.9-.667 1.447-1.59 1.57a6 6 0 0 1-.869.043c-.355-.002-.32-.029-.321.333-.002.397.001.793 0 1.19-.002.257-.036.282-.288.232-.542-.108-.953-.612-.969-1.19zm1.258-.463q.001.346-.001.694c-.002.101.025.166.143.162.241-.007.484.008.722-.016.416-.04.649-.32.67-.767.02-.474-.181-.77-.591-.865-.266-.062-.537-.04-.806-.044-.123-.002-.138.074-.138.17zm9.404.649c.317-.66.645-1.308.94-1.97.147-.328.354-.486.716-.453.202.018.407-.002.61.004.21.007.244.062.14.246-.22.387-.447.77-.671 1.154-.337.577-.671 1.154-1.014 1.727a.8.8 0 0 0-.116.438q.007.799.001 1.598c0 .204-.012.21-.217.184-.52-.066-.975-.543-1.016-1.08a5 5 0 0 1-.006-.638.9.9 0 0 0-.137-.52c-.533-.899-1.057-1.803-1.584-2.705q-.046-.074-.087-.15c-.105-.2-.076-.25.158-.254.223-.004.446.01.668-.003.288-.017.47.102.593.365.282.604.579 1.202.872 1.802.042.084.064.181.15.255"/><path fill="#FFF4F2" d="M52.107 30.778c2.438-.005 4.44 1.986 4.452 4.428.013 2.448-2 4.462-4.451 4.455a4.435 4.435 0 0 1-4.429-4.44 4.44 4.44 0 0 1 4.428-4.443m-3.981 4.424c-.005 2.211 1.765 4.005 3.962 4.018 2.2.011 4.012-1.777 4.018-3.965.005-2.226-1.77-4.026-3.98-4.033a3.997 3.997 0 0 0-4 3.98m-15.975.06c-.054 2.468-2.034 4.38-4.482 4.328-2.408-.05-4.33-2.075-4.25-4.525.081-2.472 2.177-4.295 4.534-4.213 2.319.081 4.25 2.09 4.198 4.41m-4.363 3.886a3.925 3.925 0 0 0 3.922-3.911c.003-2.174-1.754-3.961-3.918-3.95a3.927 3.927 0 0 0-3.937 3.932 3.926 3.926 0 0 0 3.933 3.929"/><path fill="#FEFEFF" d="M40.313 47.31h-1.424c.198-.714.467-1.385.703-2.139zm-5.767-1.531-.001-.666c0-.096.015-.172.138-.17.27.005.54-.018.806.044.41.095.612.39.59.864-.02.448-.253.727-.669.768-.238.024-.48.01-.721.016-.12.004-.145-.06-.144-.162q.002-.348 0-.694"/><path fill="#EE3151" d="M48.126 35.202a3.997 3.997 0 0 1 4-3.98c2.21.007 3.986 1.807 3.98 4.033-.006 2.188-1.818 3.976-4.018 3.965-2.197-.013-3.967-1.807-3.962-4.018m.753.023a3.247 3.247 0 0 0 3.232 3.24c1.788.001 3.244-1.464 3.24-3.262-.003-1.772-1.47-3.23-3.248-3.227-1.774.004-3.226 1.467-3.224 3.249m-21.091 3.923a3.926 3.926 0 0 1-3.933-3.93 3.927 3.927 0 0 1 3.937-3.93c2.164-.012 3.92 1.775 3.918 3.949a3.925 3.925 0 0 1-3.922 3.91m3.177-3.935a3.19 3.19 0 0 0-3.206-3.18c-1.74.005-3.165 1.445-3.16 3.197a3.2 3.2 0 0 0 3.177 3.184c1.755.004 3.192-1.439 3.19-3.201"/><path fill="#FFF4F2" d="M48.879 35.225c-.002-1.782 1.45-3.245 3.224-3.249 1.777-.004 3.245 1.455 3.249 3.227.003 1.798-1.453 3.263-3.24 3.261a3.247 3.247 0 0 1-3.233-3.239m3.237 2.808c1.343.04 2.79-1.045 2.818-2.8.024-1.547-1.277-2.841-2.822-2.836a2.824 2.824 0 0 0-2.811 2.84 2.796 2.796 0 0 0 2.815 2.796m-21.151-2.82c.003 1.762-1.434 3.205-3.189 3.2A3.2 3.2 0 0 1 24.6 35.23c-.005-1.751 1.42-3.192 3.16-3.197a3.19 3.19 0 0 1 3.206 3.18m-.412.016a2.776 2.776 0 0 0-2.755-2.783c-1.533-.005-2.756 1.223-2.784 2.753a2.773 2.773 0 0 0 2.768 2.797c1.524.01 2.768-1.24 2.77-2.767"/><path fill="#EE3151" d="M52.116 38.033a2.796 2.796 0 0 1-2.815-2.795 2.824 2.824 0 0 1 2.811-2.841c1.545-.005 2.846 1.29 2.822 2.837-.027 1.754-1.475 2.839-2.818 2.799m-.004-.757c.94.04 2.054-.723 2.065-2.068.009-1.122-.942-2.051-2.06-2.054-1.135-.004-2.066.937-2.06 2.08a2.046 2.046 0 0 0 2.055 2.042M30.553 35.23c-.003 1.525-1.247 2.776-2.771 2.766a2.773 2.773 0 0 1-2.768-2.797c.027-1.53 1.251-2.758 2.784-2.753a2.776 2.776 0 0 1 2.755 2.783m-.746-.006a2.03 2.03 0 0 0-2.03-2.031 2.043 2.043 0 0 0-2.026 2.04 2.05 2.05 0 0 0 2.021 2.02 2.034 2.034 0 0 0 2.035-2.029"/><path fill="#FEFEFF" d="M52.113 37.276a2.046 2.046 0 0 1-2.056-2.042c-.006-1.143.925-2.084 2.06-2.08 1.118.003 2.069.932 2.06 2.054-.01 1.345-1.124 2.107-2.065 2.068m-22.305-2.052a2.034 2.034 0 0 1-2.035 2.03 2.05 2.05 0 0 1-2.02-2.02 2.043 2.043 0 0 1 2.026-2.041 2.03 2.03 0 0 1 2.029 2.031"/></g><defs><clipPath id="clip0_3802_18209"><path fill="#fff" d="M0 0h80v80.043H0z"/></clipPath></defs></svg>