<svg fill="none" viewBox="0 0 80 15"><g fill-rule="evenodd" clip-path="url(#clip0_3802_9712)" clip-rule="evenodd"><path fill="url(#paint0_linear_3802_9712)" d="M75.778 0a4.223 4.223 0 1 1-.002 8.446A4.223 4.223 0 0 1 75.778 0"/><path fill="url(#paint1_linear_3802_9712)" d="M74.41.611a4.2 4.2 0 0 1-.186 1.147 3.2 3.2 0 0 1 1.402.323c.09-.391.121-.782.094-1.154a2 2 0 0 0-.22-.103 2.7 2.7 0 0 0-1.094-.209zm-2.806 3.927q.09.052.175.11l.118.045q.165.058.33.088a3 3 0 0 0-.615-.255l-.011.008zm.764.714c.231.334.395.74.467 1.184h.011c.304.095.619.133.93.122a3.85 3.85 0 0 0-.9-1.303q-.254.024-.508 0zm.505 1.659v.034q.001.166-.016.327a4 4 0 0 1-.315-.338v-.126l-.118-.045-.019-.008a4.4 4.4 0 0 1-.474-.805q.243.207.543.35a2.5 2.5 0 0 0-.494-1.014 2 2 0 0 0-.118-.13l-.106-.034a1 1 0 0 1-.106-.041 4 4 0 0 1-.072-.528V4.54c0-.049-.004-.094-.008-.144V4.36l1.352-3.205a4.3 4.3 0 0 1-.03.881c.28-.11.573-.182.87-.224.132-.38.2-.767.216-1.139q-.36.055-.707.19c.22-.163.456-.308.707-.425h.015V.433h.004l.007-.004h.008V.425l.007-.004h.008l.004-.003.007-.004h.008l.007-.008h.016L74.076.4h.016l.007-.008h.011l.008-.007h.008l.007-.008h.012l.007-.008h.016l.007-.003h.015l.008-.004h.011l.008-.004h.007V.353h.004l.008-.004h.007l.004-.003.008-.004h.007l.004-.004h.015l.008-.004h.015l.008-.004h.015l.008-.003h.01l.008-.004h.012l.008-.004h.01L74.4.311h.008q.095-.032.197-.06a3.2 3.2 0 0 1 1.04.227 3 3 0 0 0-.113-.38V.092A5 5 0 0 1 76 .087c.065.205.114.422.145.642.497.315.873.763 1.105 1.287.296.672.353 1.47.114 2.267l-.02.057a3.85 3.85 0 0 1-.09 2.047q-.046.143-.1.285a4.3 4.3 0 0 1-.835 1.344 3.5 3.5 0 0 1-.098.486 4 4 0 0 1-.44.023h-.02q-.36-.002-.702-.061c.304-.17.585-.391.835-.646.042-.444 0-.915-.133-1.385a4 4 0 0 1-1.378.581c.125.448.175.896.156 1.325a4 4 0 0 1-.445-.164c0-.357-.05-.729-.16-1.1-.352.026-.71 0-1.059-.084zm-.103-4.367c-.03.106-.06.213-.099.32a5 5 0 0 1-.193.47q.147-.016.296-.015c.304-.285.566-.638.77-1.04a3.6 3.6 0 0 0-.77.265zm-1.21 1.773 1.352-3.19q-.241.224-.44.475a4 4 0 0 1-.084.635 4 4 0 0 0-.483.307 4.4 4.4 0 0 0-.262.832 4 4 0 0 1 .54-.479q-.12.299-.282.562c-.03.012-.056.02-.087.03q-.102.042-.205.088a5 5 0 0 0-.042.41v.3zm.63-.053q.129-.063.258-.14.256-.154.49-.353c.384.026.767.148 1.128.349q.096.056.194.118a3 3 0 0 1-.274.186 2.7 2.7 0 0 1-.964.36 3.4 3.4 0 0 0-.555-.383 5 5 0 0 0-.273-.14zm1.219.896a3.4 3.4 0 0 0 1.219-.638c.406.361.752.836.983 1.398a3 3 0 0 1-.444.27 3.4 3.4 0 0 1-.923.318 4.4 4.4 0 0 0-.831-1.348zm.657-2.954c-.186.44-.437.836-.73 1.166.324.064.643.186.946.357.11.06.22.133.323.205a3.9 3.9 0 0 0 .896-1.424 2 2 0 0 0-.246-.11q-.091-.035-.183-.065a2.9 2.9 0 0 0-1.006-.129m1.967.103c.437.296.782.695 1.021 1.158a2.76 2.76 0 0 0-.212-1.348 2.5 2.5 0 0 0-.661-.889c0 .353-.053.714-.148 1.079m.315 4.872q.236-.35.391-.748.052-.128.091-.255a3.6 3.6 0 0 0 .167-1.128 4 4 0 0 1-.858 1.022q.182.559.21 1.112zm.532-2.936a3 3 0 0 0-.126-.36 2.74 2.74 0 0 0-.87-1.128 4.3 4.3 0 0 1-.93 1.466c.41.372.76.846 1.01 1.404.365-.337.661-.755.859-1.23l.057-.148z"/><path fill="red" d="M73.583 6.28c-.148-.52-.448-1.017-.874-1.465.44-.015 1.174-.209 1.534-.581-.322-.32-1.025-.566-1.655-.577.38-.479.907-1.003.999-1.63-.437.118-.935.308-1.292.684a3.3 3.3 0 0 0 .217-1.185l-.06.076-.57 1.379-.118-.11a4.24 4.24 0 0 0-.06 2.483c.295.41.572.927.842 1.481-.019-.387-.068-.778-.228-1.185.368.289.85.467 1.269.627z"/><path fill="#2171B5" d="M1.147 7.465V6.85h.197q.115-.002.148.008c.034.007.065.03.088.06a.2.2 0 0 1 .034.122.2.2 0 0 1-.02.095.2.2 0 0 1-.052.06.3.3 0 0 1-.065.031q-.044.01-.129.008h-.08v.231h-.125zm.125-.512v.174h.068c.05 0 .08 0 .1-.011.014-.008.03-.015.037-.03a.1.1 0 0 0 .015-.05.1.1 0 0 0-.019-.057.08.08 0 0 0-.049-.026l-.087-.004h-.061zm.938.512-.247-.615H1.83l-.239.615h.133l.05-.14h.246l.053.14zm-.395-.243.084-.228.087.228zm.46.243V6.85h.121l.254.414V6.85h.114v.615H2.64l-.25-.406v.406zm.615 0V6.85h.125v.615zm.243 0V6.85h.121l.255.414V6.85h.114v.615h-.126l-.25-.406v.406zm1.146-.227v-.103h.266v.247a.42.42 0 0 1-.266.099.33.33 0 0 1-.167-.042.23.23 0 0 1-.106-.118.4.4 0 0 1-.038-.163q0-.097.042-.171a.26.26 0 0 1 .118-.114.3.3 0 0 1 .148-.03q.115-.001.178.049a.22.22 0 0 1 .084.133l-.126.023a.14.14 0 0 0-.049-.072q-.034-.028-.091-.027a.17.17 0 0 0-.13.053.23.23 0 0 0-.049.152c0 .072.016.13.05.163a.16.16 0 0 0 .129.053.2.2 0 0 0 .08-.015.3.3 0 0 0 .068-.038v-.08zm.384-.388h.262a.5.5 0 0 1 .144.015.14.14 0 0 1 .072.061q.029.04.027.099a.17.17 0 0 1-.042.114.2.2 0 0 1-.121.057.2.2 0 0 1 .064.053 1 1 0 0 1 .072.099l.076.121H5.07l-.087-.133c-.03-.05-.053-.076-.065-.09a.1.1 0 0 0-.038-.027.3.3 0 0 0-.064-.008h-.027v.258h-.125zm.125.262h.091q.09.002.11-.007a.06.06 0 0 0 .035-.027.1.1 0 0 0 .011-.046c0-.019-.004-.038-.015-.049a.1.1 0 0 0-.046-.023h-.19v.156zm.471.05c0-.065.008-.114.027-.16a.3.3 0 0 1 .057-.083.2.2 0 0 1 .08-.057.4.4 0 0 1 .132-.023.28.28 0 0 1 .217.083.33.33 0 0 1 .083.236.33.33 0 0 1-.08.235.28.28 0 0 1-.216.084.3.3 0 0 1-.22-.084c-.057-.057-.08-.133-.08-.231m.13-.004q-.002.102.049.16a.16.16 0 0 0 .121.052q.075-.001.122-.053a.24.24 0 0 0 .049-.16.25.25 0 0 0-.046-.159.16.16 0 0 0-.125-.053.17.17 0 0 0-.125.053q-.046.051-.046.16m.565-.308h.125v.334q-.001.08.004.103a.1.1 0 0 0 .038.06.13.13 0 0 0 .08.023q.05 0 .08-.022a.08.08 0 0 0 .03-.054l.004-.106v-.342h.125v.323c0 .072 0 .125-.011.156a.16.16 0 0 1-.038.076.16.16 0 0 1-.072.05.3.3 0 0 1-.118.018.4.4 0 0 1-.133-.019.2.2 0 0 1-.072-.053.14.14 0 0 1-.034-.068 1 1 0 0 1-.012-.156v-.33zm.619.615V6.85h.197q.114-.002.149.008c.034.007.064.03.087.06a.2.2 0 0 1 .034.122.2.2 0 0 1-.019.095.2.2 0 0 1-.053.06.3.3 0 0 1-.065.031q-.044.01-.129.008h-.08v.231H6.57zm.125-.512v.174h.069c.049 0 .08 0 .098-.011.016-.008.03-.015.038-.03a.1.1 0 0 0 .016-.05.1.1 0 0 0-.02-.057.08.08 0 0 0-.049-.026l-.087-.004h-.06zm-6.295.512c0 .21.129.433.356.433h6.456c.334 0 .474-.125.474-.433V.752c0-.24-.186-.395-.46-.395H.806C.638.357.403.539.403.668zM0 .63v6.782c0 .304.118.593.368.737.065.038.19.106.285.106h6.68c.413 0 .744-.319.744-.68V.672c0-.152-.11-.35-.228-.46a.84.84 0 0 0-.501-.204H.714C.574.008.354.125.25.22.156.308 0 .494 0 .63m4.276 3.672c-.038.012-.057.03-.107.042-.186.053-.303-.046-.341-.057l.083.243a1.51 1.51 0 0 1-.391 1.432c-.505.482-1.276.58-1.872.182-.06-.042-.13-.087-.167-.144.733 0 .65-1.064-.015-1.045-.179.004-.388.13-.422.274h-.026c0-.053-.02-.099-.023-.14a2 2 0 0 1 .019-.464 1.4 1.4 0 0 1 .315-.664c.03-.035.046-.057.076-.088a1.7 1.7 0 0 1 .482-.33c.137-.053.334-.122.532-.122.421 0 .668.091.98.323.125.095.208.198.307.33 0-.098.011-.155.065-.22l.045-.05c.24-.227.665-.01.596.286l.023-.02s.012-.015.02-.022l.284-.27a1.49 1.49 0 0 1 1.473-.144c.084.038.137.072.21.118.33.22.538.531.633.926.061.266.02.346.02.577-.054-.015-.05-.049-.084-.09a.5.5 0 0 0-.638-.088.5.5 0 0 0-.179.175c-.19.326-.045.79.467.79a.7.7 0 0 1-.182.155l-.201.122a1.48 1.48 0 0 1-1.93-.585 1.3 1.3 0 0 1-.147-.342 1.4 1.4 0 0 1-.05-.589c.023-.28.13-.417.148-.5zM2.609 2.214c0-.32.125-.672.319-.915A1.5 1.5 0 0 1 3.345.93c.194-.106.171-.076.308-.14-.03.129-.16.25-.015.528.042.08.072.114.148.167.292.197.68.083.797-.213.103-.254-.011-.383-.034-.482.065.034.148.06.217.095.193.095.356.239.493.402.562.691.372 1.736-.399 2.199-.36.216-.778.262-1.188.148a1.4 1.4 0 0 1-.467-.24 2 2 0 0 1-.274-.265c-.19-.277-.319-.55-.319-.915zm29.573-.501c0 .322-.11.592-.357.816-.22.201-.467.292-.737.292-.289 0-.543-.09-.76-.28-.243-.202-.364-.483-.364-.817s.114-.623.353-.843q.332-.283.77-.281c.278 0 .525.099.745.289.24.22.353.493.353.824z"/><path fill="red" d="M23.592 3.11h1.906v.858c.278-.353.57-.604.866-.752.289-.152.65-.224 1.067-.224.558 0 1.003.167 1.325.501.323.327.479.836.479 1.53v3.323h-2.05V5.472c0-.334-.069-.558-.19-.703-.126-.133-.297-.2-.524-.2a.73.73 0 0 0-.597.276c-.155.183-.239.51-.239.995v2.506h-2.043zm9.303 0h1.907v.858c.28-.353.57-.604.858-.752q.437-.226 1.063-.224.854 0 1.337.501c.315.327.478.836.478 1.53v3.323H36.48V5.472c0-.334-.06-.558-.178-.703-.13-.133-.3-.2-.528-.2a.76.76 0 0 0-.608.276c-.152.183-.228.51-.228.995v2.506h-2.043zM29.96 8.346h2.221V3.11h-2.22zM16.75 3.501c.007 1.94-1.5 2.806-3.114 2.624V4.667c.57-.069 1.014-.452 1.029-1.28.015-.57-.425-1.014-1.03-1.067V.964q.156-.009.335-.007c1.599.015 2.772.733 2.783 2.544zm-3.114 2.624V4.667a2.3 2.3 0 0 1-1.037-.16V2.563a1.73 1.73 0 0 1 1.037-.243V.964a3 3 0 0 0-1.037.259V.957h-2.305v7.39H12.6V5.873c.338.133.691.22 1.037.25m6.307-3.133c.581 0 1.056.034 1.416.099.376.072.68.216.927.433.376.326.596.93.596 1.412v3.41h-1.906v-.592c-.24.201-.615.368-1.03.467v-.942c.13-.026.26-.068.377-.136a.95.95 0 0 0 .414-.369q.12-.223.121-.577V5.89c-.277.103-.573.175-.877.251-.008 0-.023.004-.034.004v-.987q.116-.026.197-.05.331-.09.714-.243 0-.374-.152-.528c-.102-.09-.288-.14-.543-.14-.076 0-.144 0-.212.011v-1.22zm-.85 1.838c.08-.235.19-.383.318-.467q.194-.125.536-.152V2.992h-.05c-.383 0-.732.034-1.063.084q-.485.09-.767.243c-.25.144-.46.307-.592.509-.137.19-.247.46-.315.793l1.94.21zm.85 2.45a1.4 1.4 0 0 1-.254.022c-.224 0-.384-.05-.494-.14a.47.47 0 0 1-.17-.369c0-.133.06-.243.17-.35.11-.09.357-.193.748-.291v-.988c-.273.065-.699.148-1.291.277q-.944.187-1.303.578c-.239.258-.356.584-.356.994-.008.942.945 1.337 1.948 1.337.341 0 .68-.042 1.002-.125z"/><path fill="#2171B5" d="M69.056 1.788a.9.9 0 0 1-.311.707.9.9 0 0 1-.638.25q-.376 0-.657-.243c-.213-.174-.315-.417-.315-.706 0-.288.099-.54.308-.729a1 1 0 0 1 .664-.243q.36 0 .646.25c.209.19.303.43.303.71z"/><path fill="#3B720D" d="M67.135 3.083h1.921v5.138h-1.921zm-2.901 2.72a10 10 0 0 1-.862.265q-.61.166-.77.327a.5.5 0 0 0-.168.375q.002.241.163.395.167.153.486.152c.213 0 .433-.057.627-.167q.285-.164.41-.402.12-.239.121-.62v-.326zm-1.735-1.06-1.914-.205q.107-.507.311-.798c.137-.193.33-.364.589-.505q.275-.153.755-.239a6 6 0 0 1 1.045-.084q.9 0 1.443.103.547.102.907.425c.171.148.308.361.403.634q.147.412.148.783v2.331q0 .374.045.585.046.21.205.54H64.56a2 2 0 0 1-.148-.308 2.4 2.4 0 0 1-.068-.335 2.5 2.5 0 0 1-.782.543 3.2 3.2 0 0 1-1.234.22q-.936.002-1.42-.44a1.4 1.4 0 0 1-.486-1.078c0-.403.113-.733.349-.991q.352-.389 1.29-.578 1.128-.226 1.463-.322.336-.09.71-.24c0-.25-.05-.421-.152-.524-.102-.098-.277-.148-.535-.148q-.492 0-.737.16-.195.125-.308.47zM42.187 2.297l.008 4.633q.24.08.456.08c.258 0 .493-.076.69-.24.202-.163.369-.413.487-.755.125-.357.197-.809.2-1.363a4 4 0 0 0-.12-1.124c-.107-.4-.282-.714-.506-.934a1.2 1.2 0 0 0-.816-.346c-.125 0-.258.011-.395.046zM40.057.995h1.963v.296c.562-.262 1.097-.368 1.58-.338.474.027.9.182 1.264.44.361.259.657.62.874 1.06.284.589.425 1.314.38 2.126-.039 1.007-.198 1.797-.456 2.393-.228.535-.54.915-.912 1.162-.372.243-.809.349-1.294.33-.445-.019-.935-.14-1.447-.353v.323h-2.036q.017-3.721.038-7.435h.046zm15.618 4.708q-.001.668.277.965.273.3.695.3a.85.85 0 0 0 .653-.292c.179-.198.266-.524.266-.988q0-.61-.258-.896a.82.82 0 0 0-.627-.288.94.94 0 0 0-.721.3c-.19.197-.281.5-.281.903zm-2.183-4.5h2.202v2.45q.324-.308.74-.463.415-.153.916-.152 1.036-.001 1.716.676t.68 1.94q0 .842-.312 1.485-.309.643-.858.957-.547.316-1.215.315c-.38 0-.733-.076-1.048-.224-.24-.118-.501-.334-.782-.657v.76h-2.04zm-1.067 7.162h-1.793v-.828q-.4.513-.805.73c-.273.144-.603.216-1.002.216-.528 0-.938-.163-1.242-.486q-.449-.485-.448-1.5V3.224h1.929v2.833q-.001.482.175.687c.114.137.277.201.486.201a.69.69 0 0 0 .558-.27q.216-.271.216-.975V3.224h1.922V8.36zm-31.491 4.132 1.113-.069q.034.269.148.407.18.227.516.227.25.002.388-.117a.34.34 0 0 0 .136-.27c0-.102-.041-.182-.129-.262q-.129-.114-.6-.216-.77-.171-1.097-.456a.91.91 0 0 1-.33-.721q0-.286.17-.543a1.1 1.1 0 0 1 .51-.403q.34-.148.933-.148.728-.001 1.109.266.381.266.456.85l-1.102.065c-.03-.171-.09-.292-.186-.372a.6.6 0 0 0-.39-.114q-.206.002-.308.083a.26.26 0 0 0-.103.21q0 .09.084.159c.053.05.186.095.39.136q.771.165 1.102.33c.22.11.384.251.482.415q.153.245.152.554 0 .359-.201.665a1.26 1.26 0 0 1-.566.46q-.365.156-.911.155-.97 0-1.34-.369a1.46 1.46 0 0 1-.422-.934zm3.66-1.477h1.113l.566 1.807.524-1.807h1.037l-1.09 2.9c-.125.331-.25.551-.38.669q-.273.244-.835.243-.23 0-.703-.06l-.083-.726q.226.07.509.072a.5.5 0 0 0 .303-.083c.076-.054.14-.156.194-.297l-1.154-2.715zm4.417.877-1.006-.107q.055-.261.163-.41a.9.9 0 0 1 .307-.258 1.2 1.2 0 0 1 .4-.121q.251-.043.55-.042.474.001.76.053.284.05.478.22.135.115.212.327.078.21.076.402v1.2q0 .193.027.3c.015.072.053.163.106.277h-.987a1 1 0 0 1-.076-.16 2 2 0 0 1-.038-.17q-.206.195-.41.281a1.7 1.7 0 0 1-.65.114q-.49-.001-.748-.224a.7.7 0 0 1-.254-.555q0-.308.182-.508.184-.2.68-.296c.395-.08.65-.133.767-.168a3 3 0 0 0 .372-.125c0-.129-.026-.216-.08-.27-.053-.053-.148-.075-.28-.075q-.257-.001-.388.083-.101.065-.163.243zm.911.543a5 5 0 0 1-.456.136q-.32.087-.406.167a.26.26 0 0 0-.087.194q0 .127.087.201c.057.054.145.08.255.08s.227-.03.33-.083a.5.5 0 0 0 .216-.21.66.66 0 0 0 .065-.318v-.167zm1.67-1.424h.988v.444q.144-.291.293-.399a.64.64 0 0 1 .376-.106q.233.002.512.144l-.326.737a.8.8 0 0 0-.297-.076.37.37 0 0 0-.322.167q-.165.239-.164.892v.912h-1.06zm2.382 0h1.055v2.715h-1.055zm2.692.877-1.006-.106q.055-.263.163-.41a.9.9 0 0 1 .308-.259 1.2 1.2 0 0 1 .398-.121q.253-.043.55-.042.474.001.76.053.285.05.479.22.135.116.213.327c.053.14.075.273.075.402v1.2q0 .193.027.3.024.107.106.278h-.987a1 1 0 0 1-.076-.16 2 2 0 0 1-.038-.17 1.4 1.4 0 0 1-.41.28 1.7 1.7 0 0 1-.65.114q-.49-.001-.747-.224a.7.7 0 0 1-.255-.554q0-.308.182-.51.184-.198.68-.295.594-.118.767-.167.178-.045.372-.126c0-.129-.026-.216-.08-.27-.053-.053-.148-.075-.28-.075q-.256-.001-.388.083c-.068.042-.121.126-.163.243zm.911.543a5 5 0 0 1-.455.137q-.32.087-.407.167a.26.26 0 0 0-.087.193q0 .126.087.202c.057.053.145.08.255.08s.228-.031.33-.084a.5.5 0 0 0 .217-.209.7.7 0 0 0 .064-.319v-.167zm1.66-2.453h1.055v1.378a1.4 1.4 0 0 1 .426-.315q.21-.096.5-.095.43.002.677.258.246.257.247.794v1.724h-1.06v-1.492q.001-.258-.095-.361-.094-.107-.27-.106a.39.39 0 0 0-.307.144q-.119.143-.118.512v1.303h-1.055zm5.377 0h2.198q.548 0 .843.27a.85.85 0 0 1 .293.664q0 .33-.21.57a.9.9 0 0 1-.41.25c.274.065.471.175.6.334q.195.24.194.593 0 .29-.136.524a1 1 0 0 1-.376.368q-.148.084-.448.122-.398.052-.524.053h-2.024zm1.18 1.47h.513q.274.001.384-.095c.072-.065.106-.152.106-.27q.001-.165-.106-.254-.108-.092-.376-.092h-.52zm0 1.469h.6q.303.001.43-.106a.35.35 0 0 0 .125-.285.33.33 0 0 0-.122-.266q-.124-.102-.432-.103h-.597v.76zm3.832-1.03-1.006-.105q.055-.263.163-.41a.9.9 0 0 1 .308-.259 1.2 1.2 0 0 1 .398-.121q.253-.043.55-.042.474.001.76.053.285.05.479.22.135.116.212.327c.054.14.076.273.076.402v1.2q0 .193.027.3.025.107.106.278h-.987a1 1 0 0 1-.076-.16q-.016-.057-.038-.17a1.4 1.4 0 0 1-.41.28 1.7 1.7 0 0 1-.65.114q-.49-.001-.747-.224a.7.7 0 0 1-.255-.554q0-.308.182-.51.184-.198.68-.295.592-.118.767-.167a3 3 0 0 0 .372-.126c0-.129-.026-.216-.08-.27-.053-.053-.148-.075-.28-.075q-.256-.001-.388.083c-.068.042-.121.126-.163.243zm.911.544a5 5 0 0 1-.455.137q-.32.087-.407.167a.26.26 0 0 0-.087.193q0 .126.087.202c.057.053.145.08.255.08s.228-.031.33-.084a.5.5 0 0 0 .217-.209.7.7 0 0 0 .064-.319v-.167zm1.66-1.424h.983v.44a1.4 1.4 0 0 1 .444-.387 1.2 1.2 0 0 1 .547-.118q.439-.002.684.259.246.256.247.793v1.724h-1.06v-1.492q.001-.258-.095-.36-.094-.108-.27-.107a.38.38 0 0 0-.307.144q-.119.143-.118.513v1.302h-1.055v-2.715zm3.535-1.03h1.075v1.93l.786-.896h1.294l-.987.95 1.044 1.765H57.76l-.559-1.086-.398.383v.707h-1.075V9.99z"/><path fill="#2171B5" d="M34.524 10.739c.316 0 .57-.259.57-.57a.574.574 0 0 0-.57-.57.574.574 0 0 0-.57.57c0 .311.259.57.57.57"/></g><defs><linearGradient id="paint0_linear_3802_9712" x1="75.011" x2="77.775" y1="5.863" y2="-.057" gradientUnits="userSpaceOnUse"><stop stop-color="#406F3D"/><stop offset=".68" stop-color="#72C380"/><stop offset="1" stop-color="#406F3D"/></linearGradient><linearGradient id="paint1_linear_3802_9712" x1="73.86" x2="76.757" y1="5.836" y2=".771" gradientUnits="userSpaceOnUse"><stop stop-color="#FFF9AE"/><stop offset=".26" stop-color="#ABA048"/><stop offset=".73" stop-color="#E5E3DD"/><stop offset="1" stop-color="#C7BC84"/></linearGradient><clipPath id="clip0_3802_9712"><path fill="#fff" d="M0 0h80v14.832H0z"/></clipPath></defs></svg>