<svg fill="none" viewBox="0 0 80 78"><g clip-path="url(#clip0_3802_18248)"><path fill="#fff" d="M60.662 0H19.336C8.656 0 0 8.657 0 19.336v39.315c0 10.68 8.657 19.336 19.336 19.336h41.326c10.679 0 19.336-8.657 19.336-19.336V19.336C79.998 8.657 71.34 0 60.662 0"/><path fill="url(#paint0_linear_3802_18248)" d="m23.778 55.166.69.735c3.661 3.893 8.123 6.321 13.405 7.157 6.14.971 11.92-.038 17.129-3.533 5.82-3.905 9.258-9.428 10.526-16.267 1.037-5.595.593-11.084-1.9-16.274-3.577-7.44-9.518-12.102-17.48-13.98-8.504-2.008-16.29-.158-23.054 5.405-4.811 3.957-7.708 9.101-8.668 15.273a27 27 0 0 0-.316 4.147c-.023 12.897-.014 25.794-.014 38.692v.813c-.735-.247-1.425-.43-2.078-.704C5.595 73.938 1.608 69.227.274 62.361a14.7 14.7 0 0 1-.244-2.8c-.015-13.582-.066-27.167.012-40.75.042-7.542 3.653-13.047 10.222-16.63C13.043.666 16.074.035 19.236.034c13.833-.005 27.667-.08 41.499.01 7.66.05 13.468 3.504 17.196 10.242 1.385 2.503 2.04 5.236 2.042 8.107.003 13.673.07 27.348-.026 41.021-.052 7.392-3.652 12.791-10.053 16.346-2.864 1.591-5.993 2.233-9.275 2.228-12.025-.018-24.05-.01-36.075-.01h-.766z"/><path fill="url(#paint1_linear_3802_18248)" d="M56.798 37.805c-.166 6.47-2.602 11.49-7.977 14.856-3.153 1.976-6.655 2.704-10.369 2.37-3.793-.341-7.126-1.728-9.907-4.361-2.573-2.437-4.17-5.433-4.833-8.884-.903-4.7-.294-9.205 2.218-13.338 2.547-4.187 6.29-6.692 11.133-7.472 5.074-.817 9.696.276 13.69 3.574 3.24 2.677 5.059 6.197 5.757 10.304.176 1.044.208 2.113.286 2.95z"/></g><defs><linearGradient id="paint0_linear_3802_18248" x1="-.001" x2="78.783" y1="38.994" y2="38.994" gradientUnits="userSpaceOnUse"><stop offset=".02" stop-color="#2B357F"/><stop offset="1" stop-color="#272660"/></linearGradient><linearGradient id="paint1_linear_3802_18248" x1=".029" x2="78.814" y1="37.913" y2="37.913" gradientUnits="userSpaceOnUse"><stop stop-color="#2B357F"/><stop offset="1" stop-color="#272660"/></linearGradient><clipPath id="clip0_3802_18248"><path fill="#fff" d="M0 0h79.998v77.988H0z"/></clipPath></defs></svg>