<svg fill="none" viewBox="0 0 80 27"><g clip-path="url(#clip0_3802_10602)"><path fill="#000" d="M80 0v20.049h-4.562V0zm-6.241 6.766v13.32h-4.055v-1.149a5.5 5.5 0 0 1-1.747 1.148 5.3 5.3 0 0 1-2.119.428 6.6 6.6 0 0 1-2.65-.531 6.8 6.8 0 0 1-2.12-1.515 7.3 7.3 0 0 1-1.434-2.235 7.7 7.7 0 0 1-.501-2.797q-.001-1.492.5-2.766a7.3 7.3 0 0 1 1.436-2.266 6.4 6.4 0 0 1 2.119-1.49 6.3 6.3 0 0 1 2.65-.562c.757 0 1.466.14 2.12.428a5.4 5.4 0 0 1 1.746 1.148V6.779h4.055zm-7.188 9.692c.83 0 1.508-.28 2.04-.855q.825-.852.824-2.18c0-.886-.275-1.618-.824-2.18-.532-.568-1.216-.855-2.04-.855s-1.52.28-2.07.855q-.796.852-.794 2.18c0 .885.269 1.618.794 2.18q.825.853 2.07.855M52.623 0q1.805.002 3.078.507a6 6 0 0 1 2.15 1.41 6.9 6.9 0 0 1 1.404 2.132q.502 1.2.5 2.583.002 1.383-.5 2.583a6.8 6.8 0 0 1-1.405 2.132c-.58.604-1.3 1.074-2.15 1.41q-1.272.506-3.077.507h-2.199v6.815h-4.64V0zm-.666 9.136c.623 0 1.093-.061 1.435-.19a2.8 2.8 0 0 0 .874-.53q.714-.669.714-1.784 0-1.116-.714-1.783a2.4 2.4 0 0 0-.874-.507c-.336-.14-.812-.214-1.435-.214h-1.539v5.008zm-23.273-2.37h5.038l3.42 6.388h.055l3.047-6.388h4.666l-9.997 20.08h-4.641l4.562-9.185zm-.898 0v13.32h-4.055v-1.149a5.5 5.5 0 0 1-1.746 1.148 5.3 5.3 0 0 1-2.12.428 6.6 6.6 0 0 1-2.65-.531 6.8 6.8 0 0 1-2.119-1.515 7.5 7.5 0 0 1-1.435-2.235 7.7 7.7 0 0 1-.5-2.797c0-.995.164-1.917.5-2.766a7.3 7.3 0 0 1 1.435-2.266 6.3 6.3 0 0 1 2.12-1.49 6.3 6.3 0 0 1 2.65-.562c.757 0 1.465.14 2.119.428.653.268 1.24.647 1.746 1.148V6.779h4.055zM20.6 16.458c.83 0 1.508-.28 2.045-.855q.825-.852.825-2.18c0-.886-.275-1.618-.825-2.18q-.798-.854-2.045-.855c-.831 0-1.521.28-2.07.855q-.797.852-.795 2.18c0 .885.27 1.618.794 2.18q.825.853 2.07.855M6.839 0q1.806.002 3.079.507a6 6 0 0 1 2.15 1.41 6.9 6.9 0 0 1 1.404 2.132c.336.8.5 1.66.5 2.583q.002 1.383-.5 2.583a6.8 6.8 0 0 1-1.405 2.132c-.58.604-1.3 1.074-2.15 1.41q-1.272.506-3.077.507h-2.2v6.815H0V0zM6.18 9.136c.623 0 1.093-.061 1.435-.19.354-.14.648-.323.874-.53q.714-.669.714-1.784 0-1.116-.714-1.783a2.4 2.4 0 0 0-.874-.507c-.336-.14-.812-.214-1.435-.214H4.641v5.008z"/></g><defs><clipPath id="clip0_3802_10602"><path fill="#fff" d="M0 0h80v26.846H0z"/></clipPath></defs></svg>