<svg fill="none" viewBox="0 0 80 21"><g clip-path="url(#clip0_3802_18191)"><path fill="#FB4C0F" d="M11.628.017c.791-.02 1.585-.033 2.375.026a7.55 7.55 0 0 1 4.034 1.973 7.45 7.45 0 0 1 2.228 5.116c.057 2.023-.738 4.077-2.221 5.468a7.27 7.27 0 0 1-4.853 2.087c-1.94.03-3.878.004-5.816.037-.387 1.222-.706 2.465-1.1 3.685-.26.806-.962 1.416-1.747 1.692-.559.145-1.142.107-1.712.125-.939-.001-1.878.03-2.816-.01.353-1.21.706-2.421 1.088-3.622.321-1.085 1.41-1.895 2.544-1.879 1.253-.022 2.506 0 3.759-.02.098-.494.253-.973.395-1.455 1.29-4.404 2.607-8.802 3.842-13.223"/><path fill="#2E4251" d="M50.84 7.097q-.005 3.6-.056 7.204c.011 1.258-.72 2.47-1.801 3.098-1.448.803-3.311.73-4.763-.023-.429-.242-.794-.58-1.138-.927.512-.385.998-.808 1.526-1.174.2-.017.317.196.469.295.805.773 2.196.865 3.076.169.564-.457.755-1.226.709-1.923-.434.438-.928.86-1.555.97-.948.141-2.04.011-2.738-.71-.64-.6-.839-1.515-.853-2.362a224 224 0 0 1-.011-4.619q.993.003 1.989 0c.023 1.539-.032 3.079.046 4.616.008.623.447 1.239 1.073 1.36.484.062 1.047.051 1.423-.307.289-.268.548-.63.528-1.044.017-1.022.018-2.043.019-3.066q-.007-.24.068-.468c-.128-.356-.053-.736.014-1.095.658.01 1.316.003 1.975.006m4.301-2.677c.047.89.034 1.784.047 2.676h1.934c.01.585.007 1.17.005 1.755h-1.944c.01 1.152.013 2.305.025 3.457-.018.354.315.677.663.68.309.052.579-.138.874-.176.24.526.756.99.718 1.598-.986.463-2.204.64-3.185.08-.628-.342-.916-1.058-.99-1.736-.133-1.296-.05-2.603-.075-3.903h-1.374q-.002-.878.002-1.755h1.371c0-.88.02-1.76.007-2.638.64-.023 1.283.016 1.922-.038"/><path fill="#2E4251" fill-rule="evenodd" d="M36.074 7.544a3.6 3.6 0 0 1 2.943-.468c.538.15.967.526 1.371.896l.007-.438.008-.439h.481c.483.001.966.003 1.45-.004.05 1.568.043 3.139.036 4.71-.005.966-.01 1.933-.001 2.899q-.74.004-1.479.003h-.492v-.148a45 45 0 0 0-.01-.747c-.48.445-1.023.825-1.662.997l-.2.008c-.535.025-1.082.05-1.59-.142-.958-.31-1.749-1.049-2.16-1.964-.802-1.734-.347-4.08 1.298-5.163m3.815 1.811c-.692-.685-1.88-.754-2.667-.191-.537.355-.85.981-.903 1.612-.048.802.41 1.597 1.113 1.976.455.276 1.014.276 1.524.198.806-.192 1.38-.91 1.553-1.698v-.728l-.007-.022c-.136-.412-.28-.848-.613-1.147M65.19 7.864c1.22-1.068 3.097-1.19 4.514-.455a3.74 3.74 0 0 1 1.883 2.516c.09.423.091.857.093 1.289q0 .172.004.345-3.015.017-6.03.025c.204.716.774 1.345 1.517 1.504.635.14 1.36.12 1.908-.269.184-.135.346-.298.506-.46q.078-.081.159-.161c.538.271 1.05.59 1.554.919-.617.847-1.538 1.513-2.591 1.668-.599.062-1.203.041-1.802.017-1.707-.338-3.147-1.9-3.088-3.681-.13-1.23.427-2.474 1.373-3.257m3.687 1.017a2.42 2.42 0 0 0-2.26.04c-.423.24-.699.656-.882 1.093q2.004.02 4.01 0c-.154-.459-.436-.892-.868-1.133" clip-rule="evenodd"/><path fill="#2E4251" d="M61.502 7.12c.715-.273 1.519-.163 2.22.104-.211.654-.47 1.29-.684 1.94a2.47 2.47 0 0 0-1.693-.134c-.549.154-.928.703-.934 1.265-.035 1.467-.033 2.935-.043 4.402q-.975.013-1.949.002c-.004-2.518.011-5.034-.006-7.552.65-.076 1.317-.095 1.966.01-.006.333 0 .666.007.997.248-.452.616-.861 1.116-1.034m14.853-.103c.857-.163 1.827-.072 2.527.495.654.525 1.075 1.357 1.059 2.202.079 1.66.037 3.326.059 4.989h-1.993c-.022-1.15.036-2.302-.06-3.45-.033-.526.038-1.058-.037-1.581-.161-.41-.473-.808-.91-.935-.508-.06-1.093-.11-1.503.259-.359.242-.514.655-.621 1.055-.022 1.551-.015 3.102-.017 4.652h-1.997c.001-2.535-.007-5.071.003-7.608.653.002 1.309-.001 1.964.002q.003.439.015.876c.426-.423.9-.845 1.511-.956"/><path fill="#2E4251" fill-rule="evenodd" d="M25.87 4.47a35 35 0 0 1 4.397-.011c.822.025 1.63.339 2.266.86 1.084.912 1.55 2.487 1.148 3.845-.392 1.44-1.72 2.612-3.23 2.697-.604.036-1.211.043-1.818.05q-.349.004-.697.01l-.002 1.738v1.044h-.516q-.775 0-1.548-.003v-2.582q0-2.906.008-5.812l.003-.352.001-.353-.007-.678zm2.89 1.767c-.276.006-.552.012-.825 0V8.4l-.002 1.622h1.32q.38 0 .76-.01c.754.028 1.436-.525 1.68-1.217.076-.369.05-.747.025-1.121l-.013-.21c-.253-.477-.62-.935-1.164-1.083-.578-.17-1.18-.157-1.78-.144" clip-rule="evenodd"/></g><defs><clipPath id="clip0_3802_18191"><path fill="#fff" d="M0 0h80v20.236H0z"/></clipPath></defs></svg>