<svg fill="none" viewBox="0 0 80 17"><g clip-path="url(#clip0_3802_18384)"><path fill="#ED6A1D" d="M6.863 8.609h6.106a2.064 2.064 0 0 1 2.057 2.025c0 .323-.08.642-.231.928l.167-.25c.41-.762.627-1.614.63-2.48a5.45 5.45 0 0 0-.77-2.786l-.296-.409-1.362-1.922-.195-.297A7.74 7.74 0 0 0 6.594 0H.766A.75.75 0 0 0 0 .785c.006.138.05.27.126.385l4.077 6.018a3.2 3.2 0 0 0 2.66 1.422"/><path fill="#D24124" d="M15.017 10.634c0 .323-.08.642-.231.928l-3.197 4.727a.75.75 0 0 1-1.251 0L8.67 13.856a3.21 3.21 0 0 1 0-3.613L9.773 8.6h3.196a2.057 2.057 0 0 1 2.048 2.034"/><path fill="#73246C" d="M15.582 8.841c0 .25 0 .502-.046.752-.046.251 0 .223-.065.353a1.6 1.6 0 0 1-.083.335 6.6 6.6 0 0 1-.408 1.058l-.167.251c.128-.238.204-.5.223-.77v-.168a2.09 2.09 0 0 0-2.011-2.024H9.8l1.742-2.582c.065-.102.149-.186.214-.288.315-.53.479-1.138.472-1.755a3.38 3.38 0 0 0-1.288-2.666A7.6 7.6 0 0 1 12.97 3.4l.166.25 1.353 1.997.297.418c.306.51.522 1.07.639 1.653a2 2 0 0 0 .046.186v.27a.2.2 0 0 0 0 .102c.084.185.111.38.111.566"/><path fill="#ED6A1D" d="M23.653 8.628h-4.271a2.9 2.9 0 0 1-2.391-1.273l-1.436-2.098h4.271a2.9 2.9 0 0 1 2.41 1.244c.453.734.926 1.44 1.417 2.127"/><path fill="#111820" d="M30.76 3.316h-4.197v7.067a2.5 2.5 0 0 0 .733 1.764 2.5 2.5 0 0 0 1.76.734v-2.665h1.704c2.437 0 3.855-1.31 3.855-3.566 0-2.257-1.418-3.334-3.855-3.334m-.12 4.94h-1.585V5.312h1.585c1 0 1.603.502 1.603 1.44a1.415 1.415 0 0 1-.98 1.453 1.4 1.4 0 0 1-.623.051m28.16-4.94h-4.198v7.067c.002.662.266 1.296.733 1.764a2.5 2.5 0 0 0 1.76.734v-2.665h1.704c2.437 0 3.855-1.31 3.855-3.566 0-2.257-1.418-3.334-3.855-3.334m-.12 4.94h-1.586V5.312h1.585c1 0 1.603.502 1.603 1.44a1.42 1.42 0 0 1-.442 1.137 1.4 1.4 0 0 1-1.16.367M40.23 3.232a4.82 4.82 0 0 0-3.647 1.276 4.84 4.84 0 0 0-1.546 3.548 4.84 4.84 0 0 0 3.237 4.569c.627.22 1.294.306 1.956.256a4.8 4.8 0 0 0 3.543-1.336 4.84 4.84 0 0 0 0-6.977 4.82 4.82 0 0 0-3.543-1.336m0 7.55a2.67 2.67 0 0 1-1.862-.832 2.68 2.68 0 0 1-.733-1.907 2.65 2.65 0 0 1 .735-1.894 2.63 2.63 0 0 1 1.86-.809 2.58 2.58 0 0 1 1.863.801 2.6 2.6 0 0 1 .713 1.902 2.62 2.62 0 0 1-.692 1.906 2.6 2.6 0 0 1-1.847.833z"/><path fill="#111820" d="M48.523 5.897c0-.436.399-.64.982-.64.432.016.859.091 1.27.222a2.275 2.275 0 0 0 2.724-1.188 7.07 7.07 0 0 0-3.762-1.06c-2.27.001-3.77 1.125-3.77 2.898 0 3.353 4.975 2.378 4.975 3.985 0 .501-.464.77-1.186.77a4.8 4.8 0 0 1-1.789-.436 1.98 1.98 0 0 0-2.585.928 7.3 7.3 0 0 0 2.02 1.106 7 7 0 0 0 2.354.418c2.094 0 3.808-.985 3.808-2.926-.065-3.408-5.04-2.544-5.04-4.077m15.686 6.965a1.68 1.68 0 0 1-1.582-1.058 1.7 1.7 0 0 1-.122-.66 1.4 1.4 0 0 1 .148-.668l3.132-7.225h2.78l3.799 9.611h-3.623a2.44 2.44 0 0 1-2.02-1.058l-1.205-1.802h3.049l-.297-.743-1.149-3.111zm8.71-9.63a1.704 1.704 0 0 0-1.574 1.7l.25.482.333.604 2.02 3.817v3.018h2.512V9.798L80 3.232h-2.539L75.21 7.43z"/></g><defs><clipPath id="clip0_3802_18384"><path fill="#fff" d="M0 0h80v16.626H0z"/></clipPath></defs></svg>