<svg fill="none" viewBox="0 0 80 42"><g clip-path="url(#clip0_3802_9568)"><path fill="#0D92D2" d="M10.295 0h7.79l-4.842 19.367h-7.79zM2.801 29.974 0 41.179h7.79l2.802-11.205zm8.347 0-2.8 11.205h11.407l2.801-11.205zm12.799 0-2.801 11.205h17.668l2.801-11.205zm20.32-10.607H26.599L31.44 0h17.667zm-19.059 0H13.8L18.642 0h11.407z"/><path fill="#000" d="M72.156 20.98h2.326l-1.05 2.842 3.48-2.841H80l-3.788 2.83 1.142 4.705h-2.862l-.453-3.088-1.667 1.256-.67 1.832h-2.326l2.77-7.525m-8.751 0h2.172l1.297 4.159 1.524-4.16h2.192l-2.769 7.526h-2.203l-1.287-4.138-1.523 4.138h-2.183l2.77-7.525m-5.776 4.653.175-2.707-1.822 2.707zm-.103 1.627h-2.635l-.834 1.245h-2.378l5.6-7.525h2.543l.051 7.525h-2.44l.083-1.245m-10.13-.381h1.184q.602 0 .926-.216c.217-.145.37-.33.453-.567.083-.226.072-.401-.04-.535-.114-.134-.372-.206-.783-.206h-1.184zm1.08-2.955h1.02c.36 0 .638-.062.823-.185a1.06 1.06 0 0 0 .412-.546c.083-.216.072-.39-.02-.515q-.14-.185-.68-.185h-1.03zm-1.255-2.954h4.354c.731 0 1.215.185 1.473.535.257.36.288.803.092 1.338a2.66 2.66 0 0 1-.834 1.143c-.267.216-.597.38-.998.504.494.134.813.35.947.67.134.319.113.71-.052 1.194-.144.39-.36.741-.658 1.05a3.6 3.6 0 0 1-1.02.741c-.236.113-.566.196-.978.247-.545.072-.906.103-1.08.103h-4.015zm-9.265 4.653.175-2.708-1.822 2.708zm-.103 1.626h-2.636l-.834 1.246h-2.378l5.6-7.525h2.543l.052 7.525h-2.44l.082-1.246m-12.26-6.29h3.067l-.514 4.582 2.851-4.582h3.058l-2.77 7.526H29.34l2.11-5.734-3.572 5.734h-1.73l.639-5.734-2.11 5.734h-1.905l2.77-7.526m-3.975 0h2.337l-2.769 7.526h-2.337zm-7.03 3.058h.977c.103 0 .33-.031.659-.103a.9.9 0 0 0 .463-.237c.144-.123.247-.278.31-.432.092-.247.081-.433-.022-.556-.102-.134-.37-.196-.802-.196h-1.02l-.566 1.534m-3.974 4.468 2.77-7.525h3.88q1.081 0 1.576.185c.34.123.556.35.669.68.113.34.072.74-.103 1.224-.154.422-.37.783-.67 1.081a3.4 3.4 0 0 1-1.008.742c-.237.123-.556.216-.926.298.247.093.411.185.504.278.062.062.134.196.226.402.083.206.145.36.155.473l.33 2.172h-2.626l-.401-2.295c-.052-.299-.114-.494-.206-.577a.73.73 0 0 0-.505-.175h-.206L12.9 28.516h-2.337m-3.716-4.313h.576c.453 0 .793-.082 1.04-.237.237-.154.402-.36.494-.597.083-.237.083-.432-.02-.597-.093-.165-.37-.247-.803-.247h-.67zM5.693 20.99h3.87c.845 0 1.4.195 1.668.597s.278.968 0 1.709c-.277.762-.73 1.359-1.338 1.78-.617.433-1.39.64-2.337.64H6.28l-1.02 2.789H2.925l2.769-7.525"/></g><defs><clipPath id="clip0_3802_9568"><path fill="#fff" d="M0 0h80v41.179H0z"/></clipPath></defs></svg>