<svg fill="none" viewBox="0 0 80 54"><g fill="#FF6100" clip-path="url(#clip0_3802_10492)"><path d="M0 37.833v14.784h10.867V39.65c0-5.767 3.2-9.483 10.983-9.75V19.05C7.55 19.3 0 26.667 0 37.833m62.8-19.266a16.767 16.767 0 0 0-17.333 17.266c0 9.85 6.033 16.3 16.233 17.267l7.133-5.367.234.117v4.767H80V35.833c0-10.45-6.867-17.316-17.2-17.266m0 23.916a6.333 6.333 0 0 1-6.467-6.666A6.334 6.334 0 0 1 62.8 29.15a6.234 6.234 0 0 1 6.333 6.667 6.266 6.266 0 0 1-6.333 6.666M39.9 19.05H29.033v33.583H39.9zM34.467 0a7.233 7.233 0 0 0-7.1 8.633 7.25 7.25 0 0 0 14.3-1.4A7.233 7.233 0 0 0 34.45 0z"/></g><defs><clipPath id="clip0_3802_10492"><path fill="#fff" d="M0 0h80v53.1H0z"/></clipPath></defs></svg>