<svg fill="none" viewBox="0 0 80 37"><g fill="#1E4BC6" clip-path="url(#clip0_3802_26164)"><path d="M18.277 36.302V17.869h2.97v1.354c.409-.661 1.208-1.132 1.834-1.34a6.2 6.2 0 0 1 1.945-.316c1.642 0 3.396.555 4.82 2.033 1.315 1.368 2.012 3.033 2.012 5.004 0 .905-.173 1.793-.52 2.65a6.65 6.65 0 0 1-1.425 2.242 6.6 6.6 0 0 1-2.197 1.536 6.2 6.2 0 0 1-2.557.52 6.2 6.2 0 0 1-2.078-.342c-.648-.209-1.554-.728-1.882-1.301v6.388h-2.922m6.65-16.12c-1.082 0-2.028.338-2.8 1.133-.79.825-1.101 2.006-1.101 3.183 0 1.252.297 2.473 1.07 3.298.776.83 1.735 1.12 2.854 1.12s2.051-.463 2.748-1.169c.804-.816 1.181-1.922 1.181-3.116 0-1.305-.386-2.464-1.163-3.285-.666-.71-1.634-1.163-2.793-1.163m27.295 16.124 2.508-5.811-5.75-12.622h3.13l4.085 9.474 3.769-9.474h3.148l-7.814 18.433zm-7.956-4.99v-1.394c-.329.568-1.234 1.092-1.883 1.3a6.3 6.3 0 0 1-2.077.343c-.995 0-1.75-.174-2.562-.52a6.6 6.6 0 0 1-2.193-1.54 6.5 6.5 0 0 1-1.425-2.238 7 7 0 0 1-.524-2.65c0-1.971.697-3.636 2.016-5.004 1.43-1.483 3.183-2.033 4.826-2.033q.993.002 1.94.315c.63.209 1.43.68 1.837 1.341v-1.354h2.966V31.32h-2.921m-6.526-9.963c-.777.826-1.159 1.985-1.159 3.286 0 1.19.382 2.3 1.181 3.116.697.706 1.616 1.168 2.748 1.168s2.073-.289 2.85-1.119c.777-.826 1.07-2.047 1.07-3.299 0-1.176-.306-2.352-1.092-3.183-.781-.799-1.723-1.132-2.801-1.132-1.163 0-2.127.453-2.797 1.163M66.22 9.34 66.069.365H68.9V11.69h-4.075l-2.82-9.296h-.07l.16 9.296h-2.81V.364h4.239l2.633 8.977zM14.77 1.42l-1.562 10.371h-3.086L12.235.364h5.092l2.114 11.427h-3.077l-1.527-10.37zm13.332 7.69L29.518.364h4.657l.258 11.427h-2.864l-.08-10.273h-.057l-1.91 10.273h-2.894L24.71 1.518h-.066l-.071 10.273h-2.86L21.976.364h4.662l1.407 8.746zm23.973.968c.804 0 1.044-.546 1.101-.822.023-.124.023-.288.023-.44V.365h2.903V8.56c0 .213-.022.64-.031.755-.195 2.136-1.891 2.82-3.996 2.82s-3.787-.684-3.982-2.82a7 7 0 0 1-.027-.755V.364h2.895v8.457c-.009.147 0 .316.022.44.054.275.302.821 1.092.821M5.305 8.568c.107.276.076.635.022.848-.093.382-.35.773-1.118.773-.71 0-1.141-.413-1.141-1.04l-.01-1.109H0v.883c0 2.553 2.002 3.321 4.147 3.321 2.144 0 3.778-.701 4.044-2.606.142-.99.04-1.638-.009-1.878-.48-2.402-4.826-3.103-5.15-4.444a1.45 1.45 0 0 1-.013-.599c.084-.373.333-.773 1.043-.773s1.07.422 1.07 1.03v.715h2.855v-.803C7.987.39 5.749 0 4.124 0 2.095 0 .435.675.13 2.544c-.081.506-.09.959.02 1.536.502 2.344 4.564 3.014 5.154 4.493m37.178-.018c.115.27.066.621.022.835-.089.372-.35.754-1.101.754-.71 0-1.137-.408-1.137-1.025V8.018h-3.04v.879c0 2.53 1.988 3.28 4.12 3.28 2.13 0 3.724-.692 3.995-2.583.137-.977.035-1.616-.014-1.865-.475-2.366-4.772-3.067-5.087-4.4a1.5 1.5 0 0 1-.014-.585c.076-.364.325-.76 1.035-.76.67 0 1.056.404 1.056 1.013v.706h2.82v-.795c0-2.464-2.216-2.85-3.81-2.85-2.015 0-3.667.657-3.955 2.512-.093.498-.102.946.022 1.523.493 2.322 4.51 2.984 5.096 4.453m33.439 1.416c.821 0 1.114-.515 1.168-.825a3 3 0 0 0 .026-.436V7.046h-1.167V5.367h4.048V8.44c0 .213-.008.372-.04.754-.19 2.069-1.997 2.824-4.026 2.824s-3.823-.755-4.005-2.824c-.044-.382-.044-.541-.044-.754V3.632c0-.205.022-.569.053-.75.249-2.15 1.976-2.829 4-2.829s3.814.67 4.018 2.828c.044.351.022.75.022.75v.373h-2.877v-.639s0-.275-.04-.44c-.048-.244-.27-.825-1.145-.825-.821 0-1.07.55-1.132.826a2.7 2.7 0 0 0-.044.546v5.225c0 .147.008.306.022.435.057.31.342.826 1.176.826"/></g><defs><clipPath id="clip0_3802_26164"><path fill="#fff" d="M0 0h80.004v36.302H0z"/></clipPath></defs></svg>