<svg fill="none" viewBox="0 0 80 28"><g clip-path="url(#clip0_3802_9533)"><path fill="#292075" d="M46.83 13.777c-1.448-1.2-3.321-1.974-4.973-2.658-2.278-.942-4.246-1.755-4.246-3.263 0-.658.308-1.263.868-1.7.59-.46 1.416-.713 2.322-.713 2.848 0 5.12 2.015 5.14 2.033l.556.507 2.525-4.735-.29-.305C48.623 2.826 45.965.08 40.836.08c-2.461 0-4.724.786-6.375 2.214-1.675 1.45-2.6 3.45-2.6 5.632 0 2.128.826 3.849 2.521 5.26 1.426 1.184 3.202 1.95 4.921 2.69 2.344 1.01 4.37 1.884 4.37 3.438 0 1.183-.801 2.449-3.048 2.449-3.223 0-5.809-2.454-5.834-2.48l-.485-.47-3.138 4.35.313.35c.035.036.846.932 2.37 1.823a13.3 13.3 0 0 0 6.702 1.79c2.63 0 4.873-.807 6.484-2.332 1.516-1.436 2.35-3.419 2.35-5.585 0-2.229-.836-4.006-2.557-5.433m26.531 12.96h5.882V.472H73.36zm-11.495-4.919h-4.477V5.388h3.947c1.77 0 2.785.99 2.785 2.715 0 1.743-.913 2.625-2.715 2.625h-1.36v4.834h1.82c.994 0 1.823.31 2.396.9.602.618.846 1.23.846 2.112 0 2.001-1.242 3.243-3.242 3.243m7.808-6.885a6 6 0 0 0-2.328-2.128c1.532-1.228 2.398-3.114 2.398-5.267 0-2.177-.829-3.992-2.398-5.254C65.868 1.097 63.814.47 61.406.47h-9.569v26.264h9.676c2.567 0 4.788-.648 6.42-1.877 1.855-1.394 2.833-3.468 2.833-6 0-1.444-.377-2.8-1.092-3.924"/><path fill="#00B5EF" d="M13.578 0C6.08 0 0 6.093 0 13.61c0 7.046 5.343 12.841 12.189 13.538v-9.886a3.91 3.91 0 0 1-2.52-3.653 3.914 3.914 0 0 1 3.91-3.91 3.915 3.915 0 0 1 3.91 3.91 3.92 3.92 0 0 1-2.522 3.653v9.886c6.846-.697 12.19-6.492 12.19-13.539C27.156 6.093 21.076 0 13.577 0"/></g><defs><clipPath id="clip0_3802_9533"><path fill="#fff" d="M0 0h79.243v27.148H0z"/></clipPath></defs></svg>