<svg fill="none" viewBox="0 0 80 28"><g fill-rule="evenodd" clip-path="url(#clip0_3802_8185)" clip-rule="evenodd"><path fill="#E30016" d="M0 1.74C0 .78.78 0 1.74 0h15.63c.96 0 1.74.78 1.74 1.74v15.63c0 .96-.78 1.74-1.74 1.74H1.74A1.74 1.74 0 0 1 0 17.37z"/><path fill="#fff" d="M4.003 9.379a6.782 6.782 0 0 1 13.558 0h-.336a5.227 5.227 0 0 0-10.452 0zm-3.15 0a8.703 8.703 0 0 1 17.403 0H17.9a7.131 7.131 0 0 0-14.256 0zm6.272 0a4.878 4.878 0 0 1 9.756 0h-.36l.002-.121a3.486 3.486 0 1 0-6.97.12zm4.86.352a4.878 4.878 0 0 1-9.756 0h.36l-.002.12a3.486 3.486 0 1 0 6.97-.12zm6.27 0a8.703 8.703 0 0 1-17.401 0h.356a7.131 7.131 0 0 0 14.256 0zm-3.148 0a6.782 6.782 0 0 1-13.558 0h.335a5.227 5.227 0 0 0 10.453 0z"/><path fill="#3B3B3B" d="M21.976 5.26V0h1.018v1.894q.471-.53 1.116-.53.704 0 1.164.505.46.503.46 1.446 0 .976-.471 1.503-.468.528-1.138.528-.33 0-.652-.162a1.6 1.6 0 0 1-.551-.484v.56zm12.088 0V0h1.018v2.791l1.192-1.342h1.254l-1.315 1.392 1.41 2.419h-1.099l-.967-1.712-.475.492v1.22zm-.626 0H32.42V3.315q0-.617-.065-.796a.56.56 0 0 0-.214-.284.6.6 0 0 0-.351-.1.82.82 0 0 0-.475.143.73.73 0 0 0-.29.38q-.076.237-.076.876V5.26H29.93V1.45h.945v.56q.504-.647 1.269-.647.337 0 .616.122.279.119.42.305.145.187.2.424.057.236.057.678zm-5.133-1.83a7 7 0 0 1-.62.154q-.423.09-.554.176a.42.42 0 0 0-.2.355q0 .212.16.366a.56.56 0 0 0 .406.154q.275 0 .526-.18a.63.63 0 0 0 .242-.333q.04-.13.04-.491zm-1.363-.818-.924-.165q.156-.553.537-.818.38-.266 1.13-.266.682 0 1.015.162.333.158.468.405.137.244.137.9l-.01 1.177q0 .503.047.743.05.237.184.51H28.52a4 4 0 0 1-.098-.298q-.026-.09-.036-.119-.261.252-.558.377t-.634.126q-.595 0-.939-.32a1.06 1.06 0 0 1-.34-.807q0-.322.155-.574.157-.255.435-.388.283-.136.812-.236.713-.133.99-.248v-.1q-.001-.29-.146-.413-.145-.125-.547-.125-.272 0-.424.107-.153.105-.247.37m-3.955.66q0 .592.188.875.265.402.703.402a.72.72 0 0 0 .573-.283q.24-.287.24-.9 0-.655-.24-.94a.76.76 0 0 0-.612-.291.77.77 0 0 0-.61.283q-.242.28-.242.854"/><path fill="#009035" d="M49.644 21.926c-.656.503-.277 1.527-.034 1.7.37.29 2.237.307 2.46.29.51 0 .196.646.022.75-1.764 1.052-9.25-.036-7.818-2.11-1.93 1.904 6.253 4.56 8.613 2.754.445-.34.766-1.683.214-2.107-.3-.197-1.723.02-2.312-.181-.465-.159-.198-.57-.091-.654 1.03-.801 2.892.264 2.892.264s.017-.552-.004-.723c-.08-.644-2.76-.845-3.942.017m6.597.442c-.01.231 0 1.786 0 1.786s-.619.816-1.231 0V21.67c-.016 0-1.048.48-1.048.697v2.16c.578 1.156 2.279.782 2.279.782s.011 1.062-2.279 1.357c0 .023 3.266.366 3.266-1.357-.035-.295.034-3.317.034-3.639-.054 0-1.011.466-1.021.697m2.562 1.787c.101-.59.352-1.293 1.395-1.293v1.293c-1.667.816-1.395 0-1.395 0m2.211 0V21.67c-3.413 0-3.378 3.299-3.378 3.299s.895.816 2.528 0c1.122.578 1.633 0 1.633 0s-.783-.34-.783-.816m.788-2.227s.012 1.412.012 2.228c0-.799-.154 1.02.91 1.156l-.003-2.755c-.51-.181-.919-.63-.919-.63m4.541.205c.131-.408-.744-.459-.752-.459-.255 0-.697 1.054-.697 1.054-.026 0 .417-.17.653-.17 0 0-.102 1.395-.102 1.599 0 .234.057.642.297.816.4.289.601.34.601.34zm-.284-1.853-.617.617.617.618.618-.617zm8.591 4.421c-.306-.544.65-2.209.088-2.772-.1-.1-.509-.255-.65-.255 0 0-1.477-.008-1.709.255l-.007-2.816c-.615 0-1.018.928-1.018.928v3.878s-.09 1.394 1.02 1.394c.02 0 .023-2.146.022-2.296.272-.425 1.29-.414 1.517-.262.255.17-.34 2.082.034 2.558 1.496 1.565 6.875-2.126 5.787-2.755.884 1.072-4.404 3.3-5.084 2.143m-21.66 1.36-.539.539.539.538.539-.538z"/><path fill="#009035" d="m51.619 26.058-.539.539.539.538.539-.538zm16.606-1.904c.101-.59.35-1.293 1.395-1.293v1.293c-1.667.816-1.395 0-1.395 0m2.21 0V21.67c-3.412 0-3.378 3.299-3.378 3.299s.896.816 2.528 0c1.123.578 1.633 0 1.633 0s-.782-.34-.782-.816m-6.097-2.277c-.076.042-.3-.037-.3-.207s.15-.385.261-.422c.059-.02.34-.005.34.238 0 .204-.145.303-.301.39m-.21-1.206c-.305 0-.898.766-.125 1.256-.297.156-1.155.442-2.141-.238-.061-.017.33.422.58.578.871.545 2.59.629 2.693-.783.044-.611-.7-.813-1.006-.813"/><path fill="#7DD1F1" d="m21.7 15.028 2.023-.309q.129.588.523.897.394.3 1.105.3.78 0 1.176-.286a.64.64 0 0 0 .265-.538.53.53 0 0 0-.143-.38q-.151-.143-.674-.265-2.439-.537-3.09-.982-.904-.616-.904-1.714 0-.99.781-1.663.782-.675 2.424-.674 1.563 0 2.323.509.76.51 1.047 1.505l-1.9.352a1.17 1.17 0 0 0-.466-.681q-.338-.237-.968-.237-.795 0-1.14.222a.48.48 0 0 0-.23.409q0 .214.2.366.274.2 1.88.566 1.613.366 2.251.896.63.538.631 1.499 0 1.046-.875 1.8-.875.752-2.588.752-1.557 0-2.467-.63a2.9 2.9 0 0 1-1.183-1.714m8.144-8.339h2.015v1.865h-2.015zm0 2.897h2.015V17.2h-2.015zM40.117 17.2h-2.015v-3.886q0-1.233-.13-1.592a1.1 1.1 0 0 0-.422-.566 1.2 1.2 0 0 0-.696-.2q-.524 0-.94.286a1.46 1.46 0 0 0-.573.76q-.15.474-.15 1.75V17.2h-2.016V9.586h1.872v1.118q.995-1.29 2.51-1.29.666 0 1.219.244.552.236.832.609.286.373.394.846.114.474.115 1.355zm2.815-5.291-1.829-.33q.31-1.103 1.061-1.635.754-.53 2.238-.53 1.348 0 2.008.323.66.315.925.81.272.488.272 1.8l-.021 2.35q0 1.005.093 1.485.1.473.365 1.018h-1.993a7 7 0 0 1-.194-.595 4 4 0 0 0-.071-.237 3.6 3.6 0 0 1-1.105.753q-.588.25-1.254.251-1.176 0-1.858-.638-.675-.638-.674-1.613 0-.645.309-1.147a2 2 0 0 1 .86-.775q.56-.272 1.606-.473 1.413-.265 1.958-.494v-.201q0-.58-.287-.825-.286-.25-1.083-.25-.537 0-.839.214-.3.208-.487.739m2.696 1.635q-.387.128-1.226.308-.84.18-1.097.351-.395.28-.395.71 0 .423.316.731.315.309.803.309.545 0 1.04-.359.364-.272.48-.667.08-.259.079-.982zm4.94 3.656h-2.015V9.586h1.87v1.083q.481-.768.861-1.011a1.6 1.6 0 0 1 .875-.244q.689 0 1.327.38l-.624 1.756q-.51-.33-.946-.33-.424 0-.718.237-.294.23-.465.84-.165.608-.165 2.551zm3.121-7.614h1.858v1.04q.996-1.212 2.373-1.212.73 0 1.27.301.537.3.881.91.502-.609 1.083-.91.58-.3 1.24-.301.84 0 1.42.344.58.337.868.997.208.486.208 1.577V17.2h-2.015v-4.352q0-1.133-.208-1.462-.28-.43-.86-.43-.424 0-.797.257-.372.26-.537.76-.165.495-.165 1.57V17.2h-2.015v-4.172q0-1.112-.108-1.434a.9.9 0 0 0-.337-.481q-.222-.157-.61-.158-.466 0-.838.251a1.4 1.4 0 0 0-.538.724q-.158.474-.158 1.57v3.7H53.69zm13.98 2.323-1.828-.33q.308-1.103 1.061-1.635.752-.53 2.237-.53 1.348 0 2.008.323.66.315.925.81.273.488.272 1.8l-.02 2.35q0 1.005.092 1.485.101.473.366 1.018h-1.993a7 7 0 0 1-.194-.595 4 4 0 0 0-.072-.237 3.6 3.6 0 0 1-1.104.753q-.588.25-1.255.251-1.176 0-1.857-.638-.674-.638-.674-1.613 0-.645.308-1.147.308-.51.86-.775.56-.272 1.607-.473 1.412-.265 1.957-.494v-.201q0-.58-.287-.825-.286-.25-1.082-.25-.538 0-.84.214-.3.208-.487.739m2.697 1.635a13 13 0 0 1-1.227.308q-.839.18-1.097.351-.394.28-.394.71 0 .423.315.731.315.309.803.309.546 0 1.04-.359.366-.272.48-.667.08-.259.08-.982zm2.52 1.484 2.023-.309q.129.588.523.897.394.3 1.105.3.78 0 1.176-.286a.64.64 0 0 0 .265-.538.53.53 0 0 0-.144-.38q-.15-.143-.674-.265-2.438-.537-3.09-.982-.903-.616-.904-1.714 0-.99.782-1.663.78-.675 2.424-.674 1.563 0 2.323.509.76.51 1.047 1.505l-1.9.352a1.17 1.17 0 0 0-.466-.681q-.338-.237-.969-.237-.795 0-1.14.222a.48.48 0 0 0-.23.409q0 .214.202.366.271.2 1.879.566 1.613.366 2.25.896.632.538.632 1.499 0 1.046-.875 1.8-.875.752-2.588.752-1.557 0-2.467-.63a2.9 2.9 0 0 1-1.183-1.714"/><path fill="#3B3B3B" d="m21.696 15.025 2.022-.308q.129.588.523.896.394.3 1.104.301.782 0 1.176-.287a.64.64 0 0 0 .265-.537.53.53 0 0 0-.143-.38q-.151-.144-.674-.266-2.437-.537-3.09-.982-.903-.615-.903-1.713 0-.989.781-1.663.782-.673 2.423-.674 1.563 0 2.323.51.76.508 1.047 1.505l-1.9.351a1.17 1.17 0 0 0-.466-.681q-.337-.237-.968-.237-.795 0-1.14.223a.48.48 0 0 0-.23.408q0 .215.201.366.273.2 1.879.566 1.612.366 2.25.896.632.538.632 1.498 0 1.047-.875 1.8-.875.752-2.588.752-1.556 0-2.466-.63a2.9 2.9 0 0 1-1.183-1.714m8.141-8.337h2.015v1.864h-2.015zm0 2.896h2.015v7.613h-2.015zm10.27 7.613h-2.014v-3.885q0-1.233-.129-1.591a1.1 1.1 0 0 0-.423-.567 1.2 1.2 0 0 0-.695-.2q-.524 0-.94.287a1.46 1.46 0 0 0-.573.76q-.15.473-.15 1.748v3.448h-2.015V9.584h1.871v1.119q.995-1.29 2.51-1.29.666 0 1.218.243.552.237.832.61.285.372.394.845.114.474.115 1.355zm2.815-5.29-1.828-.33q.31-1.104 1.061-1.634.753-.53 2.237-.53 1.347 0 2.007.322.66.315.925.81.271.488.273 1.8l-.022 2.35q0 1.005.093 1.484.1.474.366 1.018H46.04a7 7 0 0 1-.194-.594 4 4 0 0 0-.072-.237 3.6 3.6 0 0 1-1.103.752 3.2 3.2 0 0 1-1.255.251q-1.176 0-1.857-.638-.675-.638-.674-1.613 0-.645.308-1.147.31-.508.86-.774.56-.272 1.607-.473 1.411-.266 1.957-.494v-.201q0-.58-.287-.825-.287-.25-1.082-.25-.538 0-.84.215-.3.207-.487.738m2.696 1.634q-.387.13-1.226.309-.84.18-1.097.35-.394.28-.394.71 0 .424.315.732t.803.308q.545 0 1.04-.358.364-.273.48-.667.078-.258.079-.982zm4.938 3.656h-2.014V9.584h1.87v1.083q.481-.767.861-1.01.387-.244.875-.245.688 0 1.326.38l-.624 1.757q-.51-.33-.946-.33-.423 0-.717.236-.294.23-.466.84-.165.609-.165 2.551zm3.121-7.613h1.857v1.04q.996-1.211 2.373-1.212.731 0 1.269.301.537.302.882.91.501-.608 1.083-.91.58-.3 1.24-.3.838 0 1.42.343.579.337.867.997.207.487.208 1.577v4.867H62.86v-4.35q0-1.133-.208-1.463-.28-.43-.86-.43-.423 0-.796.258t-.538.76q-.165.495-.164 1.57v3.655H58.28v-4.172q0-1.11-.108-1.433a.9.9 0 0 0-.337-.48q-.222-.158-.61-.159-.465 0-.838.251a1.4 1.4 0 0 0-.538.725q-.157.472-.157 1.57v3.698h-2.015zm13.977 2.323-1.828-.33q.31-1.104 1.061-1.634.752-.53 2.237-.53 1.347 0 2.007.322.66.315.925.81.272.488.273 1.8l-.022 2.35q0 1.005.093 1.484.1.474.366 1.018h-1.993a7 7 0 0 1-.194-.594 4 4 0 0 0-.071-.237 3.6 3.6 0 0 1-1.104.752q-.589.252-1.255.251-1.176 0-1.857-.638-.674-.638-.674-1.613 0-.645.308-1.147.31-.508.86-.774.56-.272 1.606-.473 1.412-.266 1.958-.494v-.201q0-.58-.287-.825-.287-.25-1.083-.25-.538 0-.838.215-.302.207-.488.738m2.696 1.634q-.387.13-1.226.309-.839.18-1.097.35-.394.28-.394.71 0 .424.315.732t.803.308q.545 0 1.04-.358.364-.273.48-.667.079-.258.079-.982zm2.52 1.484 2.022-.308q.129.588.524.896.393.3 1.103.301.782 0 1.176-.287a.64.64 0 0 0 .266-.537.53.53 0 0 0-.144-.38q-.15-.144-.674-.266-2.437-.537-3.09-.982-.903-.615-.903-1.713 0-.989.781-1.663.783-.673 2.424-.674 1.563 0 2.322.51.76.508 1.047 1.505l-1.9.351a1.17 1.17 0 0 0-.466-.681q-.337-.237-.967-.237-.796 0-1.14.223a.48.48 0 0 0-.23.408q0 .215.201.366.272.2 1.878.566 1.614.366 2.251.896.63.538.631 1.498 0 1.047-.874 1.8-.875.752-2.589.752-1.556 0-2.466-.63a2.9 2.9 0 0 1-1.182-1.714"/></g><defs><clipPath id="clip0_3802_8185"><path fill="#fff" d="M0 0h80v27.136H0z"/></clipPath></defs></svg>