<svg fill="none" viewBox="0 0 80 28"><g clip-path="url(#clip0_3802_10147)"><path fill="#862165" d="m63.621 2.681 6.657-1.19v25.552H63.62zm9.723 0v24.362h6.66V1.491zM54.143 27.048h6.66V8.353h-6.66zm-44.018-16.05c-.843-.057-2.789-.183-2.789-1.937 0-2.119 2.808-2.119 3.858-2.119 1.852 0 4.247.549 5.958 1.06 0 0 .956.337 1.767.68l.075.018V2.906l-.103-.032c-2.02-.708-4.369-1.388-8.723-1.388C2.658 1.491 0 5.864 0 9.61c0 2.16.923 7.242 9.525 7.828.727.042 2.663.155 2.663 1.969 0 1.495-1.585 2.381-4.247 2.381-2.92 0-5.752-.745-7.472-1.448v5.972c2.573.675 5.475 1.012 8.878 1.012 7.341 0 10.627-4.139 10.627-8.24 0-4.65-3.68-7.674-9.849-8.087m40.258-2.916c-6.155.196-9.281 2.957-9.281 8.447v10.519h6.717V18.47c0-3.287.431-4.698 4.331-4.829V8.18c-.656-.14-1.767-.098-1.767-.098m-18.066.253c-.15.37-1.214 3.384-3.793 6.506V1.491l-6.872 1.36v24.192h6.872v-7.481c1.993 2.986 2.973 7.481 2.973 7.481h8.231c-.816-3.384-4.378-9.628-4.378-9.628 3.197-4.055 4.598-8.372 4.823-9.085h-7.856zm25.15-1.772a3.28 3.28 0 0 0 3.28-3.282 3.282 3.282 0 1 0-3.281 3.281"/></g><defs><clipPath id="clip0_3802_10147"><path fill="#fff" d="M0 0h80.005v27.325H0z"/></clipPath></defs></svg>