<svg fill="none" viewBox="0 0 80 73"><g clip-path="url(#clip0_3802_18270)"><path fill="#007CC2" d="M33.877 39.307c-.686-.003-1.318.076-1.95.111a60 60 0 0 1-3.34.078 39 39 0 0 1-3.718-.196 31 31 0 0 1-3.38-.516c-1.534-.32-3.027-.762-4.438-1.45-1.19-.58-2.266-1.315-3.052-2.404-.945-1.309-1.11-2.743-.62-4.264.413-1.28 1.186-2.337 2.075-3.32.355-.394.755-.742 1.134-1.111.149-.145.217-.068.319.04.103.11.134.177 0 .305-.593.568-1.108 1.195-1.466 1.946-.583 1.224-.194 2.492.608 3.376.913 1.006 2.092 1.571 3.345 2.009 1.21.421 2.456.674 3.721.857 1.358.196 2.723.274 4.092.332 1.403.058 2.802-.011 4.2-.078a46 46 0 0 0 3.457-.308 81 81 0 0 0 3.898-.577 74 74 0 0 0 6.011-1.307c1.627-.425 3.242-.895 4.825-1.463 2.474-.889 4.908-1.87 7.215-3.143 1.85-1.02 3.61-2.163 5.092-3.688.75-.77 1.394-1.616 1.743-2.65.272-.805.303-1.62-.047-2.411-.285-.648-.824-1.071-1.401-1.446a10 10 0 0 0-1.403-.736c-.211-.093-.251-.28-.106-.457.057-.068.096-.01.137.004 1.127.36 2.206.82 3.21 1.453.823.519 1.551 1.137 2.084 1.958.647.996.9 2.084.698 3.267-.224 1.311-.858 2.427-1.674 3.446-1.175 1.467-2.62 2.638-4.155 3.703-2.151 1.491-4.474 2.668-6.877 3.691a64 64 0 0 1-3.609 1.388c-.356.127-.63.413-.937.632-.843.6-1.68 1.213-2.52 1.818q-2.026 1.46-4.053 2.916-3.916 2.813-7.831 5.628c-.989.712-1.969 1.435-2.957 2.147-1.455 1.049-2.913 2.091-4.37 3.137q-.201.146-.398.3c-.085.068-.12.046-.153-.053-.313-.914-.602-1.834-.707-2.802-.095-.864-.089-1.725.11-2.573a7.3 7.3 0 0 1 1.64-3.168c.644-.734 1.407-1.327 2.188-1.904 1.076-.794 2.196-1.53 3.22-2.398l.14-.12"/><path fill="#F8941F" d="m28.578 16.819 8.761-6.302 5.225-3.767 5.505-3.963c1.264-.91 2.532-1.815 3.795-2.727.113-.081.171-.094.223.052.441 1.237.755 2.502.737 3.824-.024 1.828-.67 3.417-1.895 4.777-.875.97-1.947 1.695-2.998 2.448-1.04.745-2.084 1.485-3.013 2.37-.528.505-1.012 1.048-1.312 1.723-.628 1.41-.42 2.726.494 3.94.676.9 1.552 1.59 2.433 2.272 1.052.816 2.183 1.524 3.225 2.355 1.211.967 2.157 2.132 2.677 3.614.2.567.203.553-.34.785-1.616.69-3.275 1.263-4.949 1.795a.32.32 0 0 1-.315-.049c-1.749-1.26-3.51-2.501-5.249-3.775-2.422-1.774-4.879-3.5-7.309-5.264-1.83-1.328-3.668-2.644-5.502-3.965z"/><path fill="#007CC2" d="M44.27 30.833c-1.052.259-2.065.525-3.09.745a65 65 0 0 1-3.288.63c-.887.144-1.777.274-2.665.408-.23.035-.414.006-.603-.188-.925-.944-1.995-1.714-3.066-2.482-.817-.586-1.66-1.138-2.412-1.812-1.091-.98-1.9-2.142-2.334-3.557-.318-1.035-.347-2.083-.22-3.143.114-.956.4-1.87.74-2.798zM7.856 61.199q-.307-.002-.614 0c-.088.002-.143-.01-.13-.123.092-.873-.429-1.585-1.515-1.694-.806-.08-1.592.024-2.277.505-.42.296-.73.674-.766 1.225-.029.423.152.732.475.971.46.34.997.496 1.547.606.719.142 1.439.274 2.097.617 1.055.55 1.504 1.44 1.351 2.624-.16 1.236-.709 2.219-1.82 2.839-.637.355-1.336.507-2.057.57-.575.05-1.147.053-1.713-.087-1.206-.298-2.036-.996-2.356-2.224-.11-.421-.09-.854-.026-1.285.015-.1.073-.1.143-.1l1.274.001c.069 0 .116-.006.108.11-.074 1.094.365 1.705 1.454 1.941.985.214 1.94.1 2.806-.46.56-.361.792-1.29.628-1.846-.087-.295-.31-.478-.567-.62-.483-.264-1.013-.383-1.548-.48-.642-.115-1.27-.27-1.855-.566-1.68-.849-1.823-2.568-1.033-3.897.67-1.127 1.708-1.727 2.975-1.946.946-.164 1.884-.15 2.764.306 1.02.528 1.617 1.71 1.453 2.848-.017.121-.054.174-.183.168-.204-.008-.409-.002-.614-.002zm34.974.773c.089-.497.175-.964.257-1.431q.233-1.326.458-2.653c.014-.087.052-.115.133-.115q.671.002 1.342-.001c.106-.001.123.037.105.137q-.4 2.193-.788 4.388c-.223 1.27-.426 2.544-.66 3.812-.16.86-.287 1.727-.43 2.59-.03.177.02.412-.106.516-.135.11-.364.03-.552.034-.273.006-.546-.01-.819.005-.18.01-.203-.07-.174-.215.032-.161.06-.324.095-.523-.202.141-.37.267-.546.379-.54.348-1.142.502-1.778.532-.656.031-1.296-.021-1.899-.327-.679-.344-1.117-.89-1.287-1.612-.409-1.73-.023-3.315 1.018-4.733.618-.843 1.448-1.414 2.493-1.61 1.12-.209 2.171-.1 3.033.754.02.02.048.034.103.072zm-5.165 4.183a2.5 2.5 0 0 0 .063.7c.143.57.45 1.02 1.041 1.175.88.23 1.694.062 2.343-.597.957-.974 1.322-2.178 1.204-3.52-.089-1.007-.857-1.554-1.827-1.527-.882.024-1.552.457-2.048 1.163-.547.78-.751 1.669-.776 2.606m-25.729-4.183c.535-.407 1.111-.736 1.784-.843 1.111-.175 2.164-.071 3.018.764.511.5.734 1.147.783 1.84.107 1.514-.283 2.899-1.23 4.093-.783.988-1.801 1.564-3.091 1.607-.746.024-1.446-.104-2.054-.566-.124-.095-.235-.207-.372-.329-.16.597-.232 1.186-.341 1.768q-.186.99-.352 1.984c-.02.113-.057.15-.17.148-.41-.006-.82-.011-1.228.001-.177.006-.18-.073-.156-.202q.193-1.059.378-2.117c.222-1.271.44-2.543.662-3.813.168-.958.349-1.915.51-2.874a63 63 0 0 0 .3-2.039c.015-.117.045-.153.162-.152q.648.01 1.296 0c.128-.001.156.048.139.163-.027.179-.045.36-.066.54l-.009.05.039-.022zm1.15 6.14c.607.035 1.148-.22 1.586-.668.992-1.019 1.299-2.275 1.157-3.65-.065-.626-.396-1.138-1.029-1.311-.958-.262-1.828-.037-2.499.711-.832.928-1.118 2.068-1.042 3.28.064 1.017.742 1.688 1.828 1.637"/><path fill="#F8941F" d="M62.167 61.913c.05-.281.101-.516.128-.754.02-.18.095-.234.275-.226.348.017.698.02 1.046 0 .22-.014.255.069.22.257q-.168.923-.33 1.85l-.764 4.368c-.1.564-.211 1.126-.305 1.691-.022.13-.074.156-.191.155a48 48 0 0 0-1.205-.001c-.123.001-.178-.012-.139-.163.058-.225.084-.458.133-.739-.118.09-.195.156-.279.213-1.358.933-2.803 1.132-4.3.407-.947-.458-1.422-1.31-1.575-2.326-.219-1.459.186-2.767 1.054-3.94.673-.909 1.567-1.51 2.664-1.764.989-.229 1.967-.199 2.873.346.256.154.451.377.694.625zm-2.535.327a2.64 2.64 0 0 0-1.397.322c-1.37.76-2.092 2.26-1.8 3.793.167.886.75 1.39 1.526 1.556 1.108.236 2.043-.14 2.804-.95.669-.71.964-1.585.974-2.545.013-1.328-.827-2.176-2.107-2.176m-5.644-.999c-.19 0-.38-.011-.568.004-.167.013-.198-.046-.186-.203.049-.667-.21-1.185-.81-1.496-.498-.257-1.042-.305-1.591-.248-1.115.116-1.932.713-2.57 1.601-.662.92-.97 1.963-1.126 3.067-.101.72-.096 1.43.095 2.134.365 1.345 1.46 1.866 2.652 1.758.616-.055 1.2-.231 1.69-.643.367-.31.639-.687.78-1.146.044-.144.099-.193.247-.189.378.01.758.013 1.136 0 .174-.006.205.056.174.209-.127.624-.444 1.152-.831 1.642-.796 1.006-1.86 1.51-3.116 1.642-.81.085-1.603.021-2.347-.339-1.017-.492-1.582-1.351-1.887-2.402-.308-1.062-.253-2.132-.044-3.207.278-1.419.806-2.718 1.766-3.817.794-.909 1.773-1.539 2.964-1.766 1.127-.215 2.24-.137 3.227.526.707.474 1.062 1.175 1.15 2.02a4 4 0 0 1-.004.7c-.007.117-.048.158-.164.154-.212-.007-.425-.001-.637-.001m20.583.586c.427-.326.835-.627 1.32-.785 1.098-.358 2.16-.355 3.124.378.645.492.908 1.188.973 1.971.059.711-.12 1.398-.24 2.09-.203 1.189-.42 2.376-.624 3.566-.027.16-.08.215-.244.209a17 17 0 0 0-1.136 0c-.172.006-.187-.068-.163-.202.173-.965.352-1.93.517-2.897.117-.691.3-1.376.338-2.076.075-1.42-.964-2.11-2.267-1.768-1.221.321-1.92 1.164-2.132 2.41q-.216 1.26-.436 2.521c-.101.588-.205 1.174-.302 1.763-.027.166-.07.262-.28.252-.43-.022-.862-.007-1.305-.007.296-1.681.59-3.337.88-4.994.253-1.442.5-2.884.753-4.327.118-.676.243-1.351.358-2.028.016-.093.048-.132.143-.13q.648.005 1.296-.001c.208-.003.115.145.103.22-.073.454-.161.906-.245 1.358l-.413 2.226c-.013.072-.011.146-.018.252"/><path fill="#007CC2" d="M23.264 65.566c-.91 0-1.82.004-2.73-.004-.174-.001-.235.046-.245.226-.016.319-.006.63.054.945.149.77.802 1.318 1.59 1.376 1.162.084 2.15-.302 3.029-1.032.041-.034.084-.064.124-.099.076-.066.11-.051.128.051.07.386.14.772.221 1.156.031.15-.07.201-.16.266-.673.485-1.42.8-2.243.912-.876.119-1.751.145-2.593-.202-.904-.372-1.483-1.038-1.686-1.99-.35-1.634.074-3.096 1.082-4.401.706-.915 1.65-1.462 2.78-1.651.83-.139 1.661-.105 2.431.303.804.425 1.178 1.132 1.307 2.004.098.663.013 1.31-.118 1.958-.032.16-.1.186-.241.185-.91-.005-1.82-.003-2.73-.003m-2.65-1.187h3.544q.732 0 .602-.733c-.114-.64-.53-1.112-1.1-1.214-.54-.097-1.065-.043-1.56.222-.709.38-1.194.95-1.486 1.725m13.358 2.527.25 1.246c.023.114-.005.197-.106.27a5.14 5.14 0 0 1-2.395.953c-.687.087-1.376.114-2.05-.067-1.292-.347-2.08-1.232-2.212-2.569-.175-1.77.382-3.307 1.686-4.522.986-.92 2.186-1.273 3.534-1.127.983.106 1.765.508 2.207 1.433.31.65.329 1.345.27 2.044-.021.255-.08.507-.114.76-.023.18-.102.244-.294.243-1.796-.008-3.593-.001-5.39-.01-.223-.002-.278.068-.28.281-.005.527-.003 1.048.305 1.508.316.472.768.706 1.328.755 1.177.101 2.18-.304 3.069-1.045.051-.044.106-.085.192-.154m-4.555-2.527h3.995c.081 0 .166.019.174-.114.055-1.062-.42-1.895-1.646-1.88-1.213.014-2.187.976-2.523 1.994"/><path fill="#F8941F" d="M65.187 66.51c.204 0 .41.006.614-.002.118-.004.146.043.123.147-.1.447.118.737.475.957.5.306 1.049.32 1.603.243.29-.04.579-.103.843-.247.39-.213.534-.56.535-.98.001-.178-.098-.311-.245-.41-.341-.227-.732-.312-1.125-.384-.557-.102-1.113-.198-1.636-.43-1.494-.664-1.607-2.083-.844-3.174.562-.803 1.384-1.197 2.33-1.347.74-.118 1.48-.113 2.185.189.88.377 1.387 1.255 1.3 2.21-.013.138-.053.198-.205.197-.393 0-.787.017-1.18.026-.082.001-.157.017-.166-.118-.043-.628-.28-.928-.897-1.025-.628-.098-1.254-.061-1.808.318a2 2 0 0 0-.163.123c-.461.411-.406.876.138 1.165.4.212.838.284 1.278.362.58.102 1.15.234 1.67.538.624.366.948.907.92 1.626-.042 1.086-.514 1.92-1.504 2.432-.498.257-1.03.39-1.582.436-.776.065-1.542.036-2.253-.344-.916-.49-1.346-1.325-1.211-2.351.014-.11.05-.162.169-.158.212.006.423.001.636.001"/><path fill="#fff" d="m11.936 61.972-.038.022.008-.05z"/></g><defs><clipPath id="clip0_3802_18270"><path fill="#fff" d="M0 0h79.999v72.44H0z"/></clipPath></defs></svg>