<svg fill="none" viewBox="0 0 80 32"><g fill-rule="evenodd" clip-path="url(#clip0_3802_8419)" clip-rule="evenodd"><path fill="#38D200" d="M15.307 30.907 2.148 22.35S.498 21.4.12 19.635c-.53-2.48 1.219-4.605 1.219-4.605l17.078 11.112c1.317.858 1.677 2.612.83 3.936-.87 1.36-2.657 1.66-3.94.83"/><path fill="#0473EA" d="M2.843 13.196S.827 11.98.827 9.168c0-2.803 2.015-4.004 2.015-4.004L10.036.46a2.85 2.85 0 0 1 3.939.835 2.843 2.843 0 0 1-.836 3.935L7.076 9.174l10.331 6.722s1.86 1.065 2.226 2.861c.511 2.507-1.216 4.572-1.216 4.572z"/><path fill="#38D200" d="M16.384 6.371c-.676 0-1.157.213-1.626.518l-3.512 2.285 3.512 2.286c.474.304.97.517 1.626.517a2.804 2.804 0 1 0 0-5.606"/><path fill="#0473EA" d="M2.806 31.36c.675 0 1.156-.212 1.625-.517l3.512-2.285-3.512-2.285c-.474-.305-.97-.518-1.625-.518a2.804 2.804 0 1 0 0 5.606"/><path fill="#525355" d="m78.968 15.155 1.032.63v7.534h-1.032v-1.065a2.69 2.69 0 0 1-2.279 1.195c-1.812 0-3.109-1.346-3.109-3.182 0-1.873 1.297-3.244 3.11-3.244a2.68 2.68 0 0 1 2.278 1.22zm-26.305-.002 1.02.63v5.475c0 .868.529 1.207 1.196 1.207.504 0 1.007-.138 1.448-.452v.993c-.428.314-1.02.44-1.536.44-1.322 0-2.127-.59-2.127-2.264zm17.264 1.853c1.787 0 2.958 1.32 2.958 3.093 0 .177-.013.353-.038.516h-4.896c.15 1.12 1.032 1.861 2.265 1.861a3.8 3.8 0 0 0 2.216-.691v.98a3.9 3.9 0 0 1-2.216.667c-1.95 0-3.348-1.257-3.348-3.156 0-1.862 1.183-3.27 3.059-3.27m-26.207 0c.969 0 1.762.453 2.278 1.195v-1.082h1.032v6.2h-1.032v-1.056a2.71 2.71 0 0 1-2.278 1.17c-1.813 0-3.11-1.346-3.11-3.183 0-1.873 1.297-3.244 3.11-3.244m-12.802 0c.743 0 1.435.214 1.989.629v1.144c-.491-.528-1.17-.805-1.926-.805-1.322 0-2.253.918-2.253 2.239s.944 2.25 2.265 2.25c.743 0 1.436-.2 1.977-.666v1.044c-.605.415-1.322.591-2.077.591-1.9 0-3.223-1.32-3.223-3.22 0-1.886 1.36-3.206 3.248-3.206m28.51 0c1.788 0 2.959 1.32 2.959 3.093 0 .177-.013.353-.038.516h-4.896c.15 1.12 1.032 1.861 2.265 1.861a3.8 3.8 0 0 0 2.216-.691v.98a3.9 3.9 0 0 1-2.216.667c-1.95 0-3.348-1.257-3.348-3.156 0-1.862 1.183-3.27 3.059-3.27m-25.325-1.852 1.02.63v2.391c.465-.716 1.208-1.17 2.152-1.17 1.56 0 2.391 1.145 2.391 2.667v3.647h-1.032v-3.471c0-1.207-.529-1.849-1.611-1.849-1.146 0-1.9.981-1.9 2.214v3.106h-1.02zM51.9 17.006v1.17c-1.233-.177-2.265.653-2.265 2.188v2.955h-1.02v-6.2h1.02v1.32c.49-.918 1.284-1.433 2.265-1.433m14.891 0v1.17c-1.233-.177-2.265.653-2.265 2.188v2.955h-1.02v-6.2h1.02v1.32c.49-.918 1.284-1.433 2.265-1.433m9.998.985c-1.259 0-2.152.956-2.152 2.264 0 1.282.893 2.226 2.152 2.226 1.272 0 2.178-.944 2.178-2.226 0-1.308-.906-2.264-2.178-2.264m-32.97-.017c-1.258 0-2.152.956-2.152 2.264 0 1.283.894 2.226 2.152 2.226 1.272 0 2.178-.943 2.178-2.226 0-1.308-.906-2.264-2.178-2.264m15.621-.025c-1.133 0-1.812.792-1.976 1.836h3.84c-.101-1.056-.769-1.836-1.864-1.836m10.498 0c-1.132 0-1.812.792-1.976 1.836h3.84c-.101-1.056-.769-1.836-1.864-1.836m-15.464-.918a.79.79 0 0 1 .856.007l1.027.683-1.014.65a.79.79 0 0 1-.848 0l-.022-.013a.786.786 0 0 1 .001-1.327M40.095 7.94c.969 0 1.762.452 2.278 1.194V8.053h1.032v6.2h-1.032v-1.057c-.516.73-1.31 1.17-2.279 1.17-1.812 0-3.109-1.346-3.109-3.182 0-1.874 1.297-3.244 3.11-3.244m-6.068-1.874v6.112c0 .867.529 1.207 1.196 1.207.504 0 1.007-.138 1.448-.453v.994c-.428.314-1.02.44-1.536.44-1.322 0-2.127-.591-2.127-2.264V6.697zm42.773 0v8.187h-1.032V13.17a2.69 2.69 0 0 1-2.278 1.195c-1.813 0-3.11-1.346-3.11-3.182 0-1.874 1.297-3.244 3.11-3.244.969 0 1.775.465 2.278 1.22V6.695zM62.135 7.94c.97 0 1.763.452 2.279 1.194V8.053h1.032v6.2h-1.032v-1.057c-.516.73-1.31 1.17-2.279 1.17-1.812 0-3.109-1.346-3.109-3.182 0-1.874 1.297-3.244 3.11-3.244m-32.237 0c.73 0 1.41.2 1.888.565v1.07c-.566-.504-1.258-.793-1.875-.793-.655 0-1.12.302-1.12.805 0 .377.176.604.667.792l1.473.591c.793.34 1.158.818 1.158 1.484 0 1.182-.957 1.912-2.304 1.912-.818 0-1.56-.226-2.102-.629V12.63c.654.617 1.384.893 2.115.893.73 0 1.259-.314 1.259-.88 0-.34-.177-.604-.642-.792l-1.473-.591c-.756-.327-1.17-.755-1.17-1.56 0-1.081.868-1.76 2.126-1.76m28.02-1.873v8.186h-1.032V13.17a2.69 2.69 0 0 1-2.278 1.195c-1.813 0-3.11-1.346-3.11-3.182 0-1.874 1.297-3.244 3.11-3.244.97 0 1.775.465 2.278 1.22V6.695zm12.4 1.873v1.17c-1.234-.177-2.266.653-2.266 2.187v2.956h-1.02v-6.2h1.02v1.32c.49-.918 1.283-1.433 2.265-1.433m-22.155 0c1.56 0 2.392 1.144 2.392 2.666v3.647h-1.033v-3.471c0-1.208-.528-1.849-1.61-1.849-1.146 0-1.901.981-1.901 2.213v3.107h-1.02v-6.2h1.02v1.056a2.49 2.49 0 0 1 2.152-1.17m-7.968.968c-1.259 0-2.153.956-2.153 2.264 0 1.282.894 2.226 2.153 2.226 1.271 0 2.178-.944 2.178-2.226 0-1.308-.907-2.264-2.178-2.264m14.514 0c-1.26 0-2.153.956-2.153 2.264 0 1.282.894 2.226 2.153 2.226 1.271 0 2.177-.944 2.177-2.226 0-1.308-.906-2.264-2.177-2.264m18.881 0c-1.258 0-2.152.956-2.152 2.264 0 1.282.894 2.226 2.152 2.226 1.272 0 2.178-.944 2.178-2.226 0-1.308-.906-2.264-2.178-2.264m-11.354 0c-1.259 0-2.152.956-2.152 2.264 0 1.282.893 2.226 2.152 2.226 1.271 0 2.178-.944 2.178-2.226 0-1.308-.907-2.264-2.178-2.264M35.448 8.04a.79.79 0 0 1 .849-.003l.022.014a.786.786 0 1 1-.854 1.322l-1.03-.68z"/></g><defs><clipPath id="clip0_3802_8419"><path fill="#fff" d="M0 0h80v31.368H0z"/></clipPath></defs></svg>