<svg fill="none" viewBox="0 0 80 28"><g clip-path="url(#clip0_3802_10549)"><path fill="#333D3E" d="M13.691 0C10.97 0 8.326.8 6.083 2.322A14.04 14.04 0 0 0 1.038 8.49c-1.04 2.563-1.281 5.285-.8 8.008s1.761 5.125 3.683 7.047 4.405 3.284 7.048 3.764c2.642.56 5.445.24 7.928-.8a13.7 13.7 0 0 0 6.166-5.126c1.522-2.242 2.323-4.965 2.323-7.688 0-3.684-1.442-7.207-4.005-9.77A14.04 14.04 0 0 0 13.691 0M.878 14.335h4.244c0 1.922.32 3.844.881 5.686H2.48C1.519 18.259.958 16.257.878 14.335m13.294-7.688V1.04c2.402.24 4.484 2.403 5.766 5.606zm6.086.96c.56 1.843.881 3.765.961 5.687h-7.047V7.608zm-7.127-6.566v5.606H7.365C8.646 3.444 10.808 1.28 13.13 1.04m0 6.567v5.686H6.083c0-1.922.32-3.844.961-5.686zm-8.009 5.686H.878c.08-2.002.64-3.924 1.602-5.686h3.523c-.56 1.842-.8 3.764-.88 5.686m.961 1.04h7.048v5.687H7.044a23 23 0 0 1-.96-5.686m7.048 6.648v5.606c-2.403-.24-4.485-2.403-5.766-5.606zm1.04 5.606v-5.686h5.767c-1.282 3.283-3.364 5.445-5.766 5.686m0-6.647v-5.686h7.048c0 1.922-.32 3.844-.96 5.686zm8.01-5.606h4.243c-.08 2.002-.64 3.924-1.601 5.686h-3.524c.56-1.922.881-3.764.881-5.686m0-1.041c0-1.922-.321-3.844-.882-5.686h3.524c.96 1.762 1.521 3.684 1.601 5.686zm2.081-6.647H20.98a14 14 0 0 0-1.201-2.483 10.1 10.1 0 0 0-2.002-2.482c2.642.88 4.885 2.642 6.486 4.965M9.527 1.682c-.72.72-1.442 1.521-2.002 2.482a14 14 0 0 0-1.201 2.483H3.04c1.602-2.323 3.844-4.084 6.487-4.965m-6.487 19.3h3.284c.32.88.72 1.681 1.2 2.482.561.881 1.202 1.762 2.003 2.483-2.643-.881-4.885-2.643-6.487-4.965m14.736 4.965c.8-.72 1.441-1.522 2.002-2.483.48-.8.88-1.681 1.2-2.482h3.284c-1.601 2.322-3.844 4.084-6.486 4.965M65.185 9.85h-2.243v12.333h2.243zm-1.121-1.682c.8 0 1.521-.64 1.521-1.521s-.64-1.522-1.521-1.522a1.521 1.521 0 1 0 0 3.043m5.685 4.966h3.284v-1.922h-3.284V9.45c0-1.282.881-2.002 2.403-2.002h.88V5.205h-.88c-2.883 0-4.645 1.602-4.645 4.165v12.893h2.242zm9.37 9.13H80V20.02h-.88c-1.523 0-2.403-.721-2.403-2.002v-4.885H80v-1.922h-3.283V5.205h-2.243V18.1c0 2.482 1.762 4.084 4.645 4.164m-28.35 0 2.243-9.21 2.242 9.21h2.563L61.261 9.93h-2.323l-2.402 9.45-2.323-9.45h-2.482l-2.323 9.45-2.402-9.45h-2.242l3.443 12.333zM38.598 20.18c-1.922 0-3.523-1.201-4.084-2.403L32.43 18.9c.96 2.162 3.363 3.603 6.086 3.603 3.524 0 6.006-2.002 6.006-4.885 0-6.647-9.37-3.844-9.37-7.688 0-1.681 1.442-2.482 3.444-2.482 1.602 0 3.043.88 3.924 2.002l1.762-1.522c-1.201-1.682-3.364-2.643-5.686-2.643-3.604 0-5.846 2.243-5.846 4.645 0 6.487 9.45 3.284 9.45 7.768 0 1.442-1.442 2.483-3.604 2.483"/></g><defs><clipPath id="clip0_3802_10549"><path fill="#fff" d="M0 0h80v27.581H0z"/></clipPath></defs></svg>