<svg fill="none" viewBox="0 0 80 14"><g clip-path="url(#clip0_3802_8328)"><path fill="url(#paint0_linear_3802_8328)" d="M3.286 2.98c-.016.138-1.364 9.645-1.413 9.986-.032.345.142.487.357.528h1.848a.59.59 0 0 0 .597-.475c.289-2.067 1.418-10.177 1.438-10.291.02-.134.053-.22.17-.296L9.879 0H.159C-.003 0-.06.24.078.35c.057.04 1.974 1.343 2.847 1.915.35.223.402.398.361.715"/><path fill="url(#paint1_linear_3802_8328)" d="M10.73.276c.02-.016.05-.02.074-.024a.2.2 0 0 1 .073.012l.308.122.358.178q.316.177.585.414a3.6 3.6 0 0 1 1.088 1.84c.443 1.77-.621 3.239-.812 3.503a4.7 4.7 0 0 1-2.279 1.688l-.154.057s1.897 4.38 2.03 4.673c.13.377-.21.738-.454.738h-2.1a.31.31 0 0 1-.28-.186l-2.9-6.65a.3.3 0 0 1 0-.085c0-.012.065-.487.09-.662a.07.07 0 0 1 .077-.06l1.514.003c.061.005.407-.008.407-.008.686-.024 1.125-.255 1.328-.385q.167-.104.308-.244c.277-.28.447-.645.492-1.04a1.36 1.36 0 0 0-.061-.649 1.27 1.27 0 0 0-.71-.747 4 4 0 0 0-.646-.183L7.4 2.57z"/><path fill="#2E4865" d="M22.537 10.997q-.48-.518-.48-1.262v-4.77h-1.279l.122-1.068h1.157V2.054l1.373-.138v1.981h1.966v1.068H23.43v3.93q0 .776.093 1.067a.53.53 0 0 0 .39.373c.2.057.56.086 1.089.086h.349l-.106 1.096h-1.234c-.666-.004-1.154-.175-1.474-.52m5.86.008a3.36 3.36 0 0 1-1.28-1.392q-.443-.884-.442-1.981-.001-1.097.443-1.981a3.37 3.37 0 0 1 1.28-1.397q.838-.51 1.981-.511 1.127 0 1.974.511a3.33 3.33 0 0 1 1.287 1.393q.444.884.443 1.98.001 1.098-.443 1.982A3.33 3.33 0 0 1 32.353 11q-.848.512-1.974.512-1.147.005-1.982-.508m3.68-1.408q.602-.699.6-1.965c0-.845-.198-1.498-.605-1.965q-.602-.701-1.697-.702c-.731 0-1.3.231-1.698.702s-.6 1.12-.6 1.965q-.002 1.265.6 1.965t1.698.702q1.1-.005 1.702-.702m13.13-5.699h1.129l.166 1.234q.58-.718 1.105-1.051c.329-.215.71-.333 1.105-.337q.177 0 .349.045l-.138 1.51a2 2 0 0 0-.46-.045c-.369 0-.734.085-1.067.252q-.5.25-.731.584v5.27h-1.462zm5.592 6.719q-.778-.901-.776-2.33a4.96 4.96 0 0 1 .52-2.233 4.34 4.34 0 0 1 1.446-1.677 3.65 3.65 0 0 1 2.104-.633q1.065 0 1.645.52.58.517.58 1.388c0 .422-.113.832-.329 1.197-.219.382-.584.695-1.104.946-.52.248-1.198.374-2.043.374q-.366 0-.755-.037a5 5 0 0 1-.586-.085q0 1.248.512 1.754.513.504 1.426.503.52-.004 1.028-.114a4.6 4.6 0 0 0 1.027-.328l-.06 1.08q-1.006.579-2.365.58c-.995-.008-1.75-.305-2.27-.905m3.704-3.808q.548-.425.548-.99 0-.428-.304-.642-.305-.214-.792-.215-.732 0-1.324.523c-.394.35-.723.881-.975 1.592q.458.153 1.068.154 1.23.005 1.779-.422m15.303.154v4.4h-1.373V6.975q-.001-1.052-.41-1.53-.414-.48-1.34-.48-1.981 0-1.982 2.071v4.328h-1.373V7.25q0-1.277-.45-1.782-.451-.504-1.304-.503a2.8 2.8 0 0 0-1.19.243 1.73 1.73 0 0 0-.792.731v5.424h-1.373V3.897h1.068l.154.792q.567-.505 1.134-.723c.39-.15.808-.223 1.226-.22q1.707.001 2.408 1.495.778-1.493 2.726-1.494 2.869 0 2.87 3.215M72.198.698h1.373v1.523h-1.373zm0 3.2h1.373v7.465h-1.373zm4.942 7.099q-.48-.518-.479-1.262v-4.77h-1.28l.123-1.068h1.157V2.054l1.373-.138v1.981H80v1.068h-1.966v3.93q.001.776.094 1.067a.53.53 0 0 0 .39.373q.296.086 1.088.086h.349l-.105 1.096h-1.235q-.993-.004-1.474-.52m-39.663 2.858v-3.406q.367.518 1.007.792c.451.186.93.28 1.418.276q1.052 0 1.783-.512a3.17 3.17 0 0 0 1.104-1.384q.373-.876.374-1.99-.001-1.096-.398-1.98c-.264-.589-.642-1.056-1.137-1.393q-.737-.51-1.73-.511-1.632.001-2.575 1.19L37.17 3.9h-1.065v9.958zm.557-8.204q.633-.687 1.608-.686.991 0 1.555.706.566.707.565 1.957.001 1.249-.565 1.956-.564.706-1.555.71c-.662 0-1.198-.218-1.617-.66q-.626-.663-.625-2.006c.004-.86.211-1.518.634-1.977"/></g><defs><linearGradient id="paint0_linear_3802_8328" x1="-3.931" x2="-2.762" y1="12.465" y2="-5.636" gradientUnits="userSpaceOnUse"><stop stop-color="#18A4E9"/><stop offset="1" stop-color="#06E4AE"/></linearGradient><linearGradient id="paint1_linear_3802_8328" x1="-4.575" x2="-3.704" y1="15.84" y2="-2.664" gradientUnits="userSpaceOnUse"><stop stop-color="#18A4E9"/><stop offset="1" stop-color="#06E4AE"/></linearGradient><clipPath id="clip0_3802_8328"><path fill="#fff" d="M0 0h80v13.859H0z"/></clipPath></defs></svg>