<svg fill="none" viewBox="0 0 80 15"><g clip-path="url(#clip0_3802_10504)"><path fill="#EA5CA1" d="M80 .372a.4.4 0 0 1-.061.208l-1.648 2.547-2.236 3.443a7 7 0 0 1-.576.753c-.06.07-.137.127-.213.182-.042.031-.099.058-.15.03-.053-.028-.057-.087-.053-.142.015-.213.067-.419.13-.621q.479-1.517.953-3.035a.572.572 0 0 0-.52-.747c-.063-.004-.127-.002-.19-.002h-6.097c-.079.005-.146-.017-.177-.093a.186.186 0 0 1 .05-.22c.569-.537 1.114-1.1 1.723-1.59.64-.516 1.391-.81 2.194-.979.203-.043.414-.036.612-.106h5.86a.5.5 0 0 1 .145.021.3.3 0 0 1 .254.295z"/><path fill="#132F59" d="M22.049 12.48c-.045.06-.095.116-.135.178-.441.683-1.079 1.084-1.849 1.304-1.062.303-2.132.374-3.202.062-.747-.218-1.369-.626-1.755-1.328-.44-.8-.415-2.343.82-3.072.65-.384 1.353-.616 2.087-.763.943-.189 1.897-.31 2.847-.45.644-.095.611-.575.367-.932-.216-.314-.551-.469-.918-.538-.556-.105-1.101-.084-1.611.195a1.4 1.4 0 0 0-.548.525.43.43 0 0 1-.411.227c-.688-.003-1.376 0-2.064 0-.333-.001-.505-.229-.413-.546.205-.705.666-1.218 1.25-1.634.656-.468 1.396-.73 2.188-.845 1.092-.16 2.178-.126 3.245.175.648.182 1.236.476 1.722.956a2.5 2.5 0 0 1 .77 1.835c.007 1.92.002 3.842.002 5.763 0 .247-.136.381-.385.381q-.978.003-1.956 0c-.248 0-.378-.146-.363-.394.02-.32.132-.61.264-.897l.08-.18zm-.671-1.952c0-.168-.008-.308.002-.447.008-.123-.019-.158-.153-.133-.542.104-1.087.191-1.63.289-.41.073-.827.123-1.212.297-.362.164-.578.426-.586.84-.008.398.225.623.547.789q.077.04.162.064c.789.22 1.537.129 2.234-.308.312-.195.54-.459.616-.83.04-.194.013-.393.02-.56m.716 1.932-.01-.017c-.002.003-.008.007-.008.009l.008.018zm37.933-2.419c-1.133 0-2.266.002-3.398-.004-.123 0-.146.035-.145.15.004.772.28 1.41.934 1.85.437.293.933.357 1.446.312.816-.072 1.372-.503 1.687-1.25.063-.148.157-.21.319-.208.773.004 1.546.007 2.32-.001.24-.003.368.124.283.385-.343 1.056-1.032 1.81-2.006 2.316-1.021.53-2.121.667-3.254.616-.741-.034-1.464-.163-2.143-.472-1.249-.568-2.096-1.482-2.417-2.84a4 4 0 0 1-.107-.758c-.022-.766-.062-1.535.178-2.28.323-1.004.977-1.74 1.864-2.284.973-.596 2.047-.8 3.172-.78 1.035.02 2.022.234 2.915.783 1.035.636 1.728 1.521 1.962 2.733.098.506.076 1.018.07 1.53-.001.121-.087.18-.2.2-.039.006-.08.001-.12.001zm-1.416-1.577h1.943c.143 0 .17-.03.143-.154-.211-.955-.865-1.582-1.791-1.671-1.15-.112-2.11.524-2.362 1.636-.038.166-.022.188.152.189zM25.97 10.132V6.833c0-1.033.77-1.804 1.802-1.804.328 0 .657.003.985-.003.096-.001.13.019.13.124.005.364-.126.682-.31.986-.016.026-.038.05-.051.079-.014.027-.062.053-.019.09.044.038.064-.01.085-.033q.174-.187.346-.377c.626-.682 1.412-1.027 2.326-1.103a5.1 5.1 0 0 1 1.83.15c1.242.349 1.968 1.189 2.278 2.416.114.454.162.918.163 1.385v4.78c0 .294-.134.428-.426.428h-2.037c-.324 0-.451-.125-.451-.445V8.672c0-.356-.04-.707-.163-1.044q-.305-.832-1.18-.976c-.432-.071-.862-.06-1.268.121-.639.284-.96.809-1.083 1.474a3 3 0 0 0-.043.562v4.646q.002.088-.007.174c-.022.192-.157.322-.35.323q-1.1.003-2.2 0c-.212-.001-.353-.15-.356-.373-.004-.265-.002-.53-.002-.794zm12.408 1.354c.427 0 .855.003 1.282-.002.12-.001.188.035.23.154a.92.92 0 0 0 .558.569c.797.297 1.597.313 2.38-.055.22-.103.399-.265.45-.52.066-.318-.073-.58-.378-.723a3.3 3.3 0 0 0-.838-.242c-.747-.13-1.496-.246-2.243-.38a5.1 5.1 0 0 1-1.578-.557c-1.561-.868-1.565-3.069-.18-4.04.6-.422 1.27-.664 1.986-.777 1.19-.19 2.381-.181 3.56.098.668.158 1.285.427 1.78.92.39.386.59.86.637 1.402.012.132-.033.185-.166.185l-2.535.002c-.077 0-.133-.023-.154-.1-.124-.448-.455-.66-.88-.751a3.1 3.1 0 0 0-1.56.038 1.3 1.3 0 0 0-.45.232c-.418.337-.36.927.116 1.165.346.173.725.23 1.1.3.886.162 1.787.253 2.66.487.496.133.967.33 1.374.655.656.52.88 1.213.784 2.02-.114.959-.707 1.567-1.52 2-.742.395-1.549.558-2.378.623-.84.065-1.68.042-2.512-.104-.777-.137-1.514-.377-2.144-.875a2.3 2.3 0 0 1-.883-1.517c-.022-.15.023-.205.181-.206zM68.78 13.97h-4.167c-.26 0-.323-.06-.311-.316.05-1.116.509-2.03 1.343-2.774 1.325-1.179 2.64-2.37 3.958-3.555.024-.021.055-.038.068-.065.024-.047.034-.098-.05-.095h-3.776a1.46 1.46 0 0 1-1.492-1.49c0-.14-.003-.278 0-.417q.008-.21.22-.219h8.335c.27 0 .328.055.318.322q-.056 1.614-1.245 2.708c-1.056.968-2.118 1.929-3.177 2.893l-.796.726c-.038.035-.096.069-.066.131.027.056.089.026.133.026l3.695.002c.855 0 1.49.633 1.49 1.486v.417c-.003.137-.068.207-.203.22-.04.003-.081 0-.121 0zm-20.321-3.481V7.433c0-.202-.025-.227-.223-.228q-.304.002-.607 0c-.285-.003-.433-.15-.434-.432v-1.24q.002-.438.437-.44l.634-.001c.153-.001.19-.04.193-.191.008-.435-.023-.87.026-1.305.086-.75.357-1.396 1.032-1.81.45-.276.952-.393 1.47-.44.8-.07 1.6-.026 2.396.053.148.014.173.062.1.19q-.391.69-.784 1.378c-.08.14-.194.22-.362.211a1 1 0 0 0-.175.009c-.564.079-.807.36-.808.93V4.9c.001.15.043.192.193.193h1.672c.234 0 .277.05.227.268-.132.573-.373 1.085-.852 1.455-.3.231-.645.345-1.02.375-.187.015-.22.047-.22.241v6.086c0 .108 0 .215-.07.308a.36.36 0 0 1-.298.156c-.72 0-1.439.003-2.158 0-.225-.002-.37-.169-.37-.41zM3.956 4.88c.498 0 .995-.003 1.493 0 .668.004 1.19.427 1.309 1.072.05.27.024.547.013.82-.006.13-.117.209-.268.21q-.357.004-.715.002H4.722c-.155.001-.215.057-.215.21 0 1.202-.006 2.405.004 3.607.005.595.287.924.852 1.041q.264.058.535.061.304.003.607-.004c.204-.005.315.092.317.294q.004.673 0 1.346c-.001.151-.075.259-.206.278-1.049.157-2.1.244-3.143-.037-.663-.18-1.214-.53-1.564-1.145a2.5 2.5 0 0 1-.316-1.237c-.007-1.373-.004-2.746-.005-4.12 0-.261-.034-.296-.291-.297A1.29 1.29 0 0 1 0 5.68v-.485c.002-.207.096-.303.305-.306q.324-.003.648-.001.068.001.134-.004c.363-.027.554-.204.547-.565a1.55 1.55 0 0 1 1.285-1.536c.42-.079.834-.178 1.251-.266.199-.042.335.07.336.275.002.386-.009.773.003 1.158.012.428-.145.74-.553.93m4.324 5.299V6.975c0-1.093.838-1.933 1.934-1.938.293-.001.585.003.877-.002.084-.002.103.024.104.106.01.443-.084.862-.273 1.262l-.068.146c-.01.022-.015.043.006.06.034.026.048-.006.063-.026l.296-.4c.704-.966 1.679-1.377 2.85-1.374.24 0 .394.165.395.402v1.427c0 .25-.158.407-.414.41-.337.005-.674-.032-1.01.002-.863.086-1.485.599-1.73 1.43q-.114.39-.115.796.002 2.1 0 4.2c0 .353-.136.49-.488.49h-1.97c-.318 0-.458-.142-.458-.462z"/><path fill="#FEFEFE" d="m22.094 12.46-.01.01-.008-.018c0-.002.006-.006.008-.01z"/></g><defs><clipPath id="clip0_3802_10504"><path fill="#fff" d="M0 0h80v14.226H0z"/></clipPath></defs></svg>