<svg fill="none" viewBox="0 0 80 16"><g clip-path="url(#clip0_3802_18260)"><path fill="#ED1C24" d="M4.18 0H1.341v2.354H0V4.96h1.341v3.057c0 2.403 1.94 3.932 4.337 3.932h1.678V9.444H5.67a1.485 1.485 0 0 1-1.485-1.486V4.96H6.05a1.36 1.36 0 0 0 1.31-1.367V2.36H4.18zm16.33 8.07a1.485 1.485 0 0 1-2.97 0V3.726a1.37 1.37 0 0 0-1.376-1.372h-1.479V7.7c0 2.402 1.31 4.352 4.338 4.352s4.34-1.948 4.34-4.352V2.354h-2.84V8.07m12.667-.638c-.02-2.968-1.631-5.303-4.63-5.303-2.575 0-4.652 2.08-4.652 4.945 0 3.09 1.89 4.92 4.674 4.975a4.78 4.78 0 0 0 4.196-2.507l-2.606-.682a1.93 1.93 0 0 1-1.612.806c-1.015 0-1.836-.73-1.865-1.611h6.493v-.623m-6.513-1.33c.029-.873.848-1.605 1.866-1.605 1.017 0 1.856.714 1.87 1.605zm-14.32-3.748h-.387a3.946 3.946 0 0 0-3.946 3.951v5.633h2.839V6.445a1.48 1.48 0 0 1 1.49-1.485h1.664V2.354H12.35z"/><path fill="#F58220" d="M53.652 9.136a1.966 1.966 0 0 1-3.173 0c-.387-.51-.6-1.359-.6-2.134a3.23 3.23 0 0 1 .6-1.99 1.93 1.93 0 0 1 3.173 0c.412.58.623 1.279.603 1.99 0 .773-.218 1.625-.603 2.134m-1.581-7.033a3.82 3.82 0 0 0-2.942 1.433 5.34 5.34 0 0 0-1.214 3.468c0 1.332.463 2.721 1.214 3.604a3.712 3.712 0 0 0 5.864 0c.756-.874 1.215-2.272 1.215-3.604a5.36 5.36 0 0 0-1.215-3.468 3.83 3.83 0 0 0-2.924-1.433m8.961-.002a3.01 3.01 0 0 0-2.374 1.275v-.01a1.3 1.3 0 0 0-.288-.83.92.92 0 0 0-.704-.352.9.9 0 0 0-.699.36c-.18.237-.28.526-.28.824v7.454c-.003.294.101.58.293.803a.96.96 0 0 0 .701.335.93.93 0 0 0 .686-.335c.192-.223.295-.509.289-.803V6.55a2.8 2.8 0 0 1 .493-1.656 1.71 1.71 0 0 1 1.415-.714 1.55 1.55 0 0 1 1.33.666c.329.5.492 1.09.468 1.686v4.288c-.01.295.094.584.293.803a.94.94 0 0 0 .696.334.92.92 0 0 0 .686-.334c.189-.225.29-.51.286-.803V6.462c0-1.225-.295-2.321-.874-3.105a2.87 2.87 0 0 0-2.43-1.256m7.882 1.981a1.9 1.9 0 0 1 1.365.607c.34.38.561.85.638 1.354h-4.008a2.73 2.73 0 0 1 .633-1.374 1.87 1.87 0 0 1 1.37-.587m3.479 5.023h-.014a.81.81 0 0 0-.655-.393.68.68 0 0 0-.524.236c-.594.675-1.328 1.092-2.184 1.092a2.06 2.06 0 0 1-1.505-.655 3 3 0 0 1-.655-1.645h5.285a.75.75 0 0 0 .523-.218.84.84 0 0 0 .235-.588 5.54 5.54 0 0 0-1.129-3.46A3.65 3.65 0 0 0 68.9 2.082a3.79 3.79 0 0 0-2.912 1.453 5.42 5.42 0 0 0-1.181 3.468c0 1.34.46 2.721 1.208 3.603a3.87 3.87 0 0 0 2.944 1.431 4.37 4.37 0 0 0 3.304-1.588v-.017c.173-.215.27-.48.278-.756a1.2 1.2 0 0 0-.153-.557"/><path fill="#F58220" d="M79.998 3.394a1.04 1.04 0 0 0-.579-.98.66.66 0 0 0-.288-.08.89.89 0 0 0-.817.636l-2.018 5.358-2.053-5.369a.88.88 0 0 0-.83-.622.9.9 0 0 0-.345.079 1.11 1.11 0 0 0-.55.998.8.8 0 0 0 .035.196c.072.264.262.824.515 1.51.72 1.989 1.942 5.092 2.184 5.759-.535 1.32-1.402 2.402-2.584 3.035a1.1 1.1 0 0 0-.384.354c-.108.17-.165.368-.162.57-.002.253.084.5.245.695a.76.76 0 0 0 .59.32.8.8 0 0 0 .323-.098c1.81-.82 3.08-2.527 3.822-4.505l2.813-7.426c.057-.138.084-.287.076-.437m-35.584-1.29a3.06 3.06 0 0 0-2.651 1.625 3.1 3.1 0 0 0-.874-1.119 2.47 2.47 0 0 0-1.54-.506c-.873 0-1.493.506-1.991 1.245a1.28 1.28 0 0 0-.269-.806.86.86 0 0 0-.679-.359 1 1 0 0 0-.751.359 1.36 1.36 0 0 0-.262.825v7.426c-.003.292.087.577.257.814a.95.95 0 0 0 .717.35.93.93 0 0 0 .718-.35c.184-.23.28-.52.273-.814V6.55c0-.642.02-1.234.29-1.664a1.47 1.47 0 0 1 1.272-.7 1.31 1.31 0 0 1 1.188.656c.253.4.332.994.332 1.675v4.27c0 .618.4 1.164.924 1.164a.98.98 0 0 0 .727-.35c.179-.234.279-.52.286-.814V6.454a2.8 2.8 0 0 1 .4-1.595 1.45 1.45 0 0 1 1.249-.67 1.31 1.31 0 0 1 1.188.655c.249.4.258.994.258 1.675v4.27c-.005.294.089.58.266.815a.9.9 0 0 0 .701.349.98.98 0 0 0 .727-.35c.183-.231.279-.52.271-.814v-4.39c0-1.245-.218-2.304-.723-3.07a2.53 2.53 0 0 0-2.304-1.237"/></g><defs><clipPath id="clip0_3802_18260"><path fill="#fff" d="M0 0h79.999v15.854H0z"/></clipPath></defs></svg>