<svg fill="none" viewBox="0 0 64 56"><g clip-path="url(#clip0_3802_18167)"><path fill="#3BB8EA" fill-rule="evenodd" d="M.789 1.469C-.151 2.61.063 4.182 0 5.55c.076 10.322-.063 20.644.07 30.96.403 9.849 9.564 18.126 19.369 17.78 9.679.132 18.6-8.095 18.985-17.818.189-9.71.019-19.426.088-29.136H56.64c.012 13.722.006 27.445 0 41.168-4.625.05-9.256-.076-13.875.05-2.347-.1-4.277 2.436-3.514 4.67.46 1.772 2.328 2.763 4.082 2.617 5.71-.025 11.426.064 17.143-.044 2.139.013 3.71-2.088 3.495-4.139.025-14.738-.012-29.477.02-44.209-.02-1.609.106-3.237-.19-4.827C63.358.907 61.554-.12 59.844.011c-8.24-.006-16.486-.018-24.726 0-2.013-.138-4 1.527-3.9 3.61-.138 10.731.038 21.476-.081 32.215-.108 4.435-3.117 8.536-7.193 10.202-4.436 1.937-10 .845-13.338-2.675-2.139-2.158-3.312-5.18-3.287-8.209.006-10.095-.044-20.196.044-30.284.006-1.35-.07-2.865-1.148-3.83C4.745-.487 2.006-.247.789 1.469" clip-rule="evenodd"/></g><defs><clipPath id="clip0_3802_18167"><path fill="#fff" d="M0 0h64v55.856H0z"/></clipPath></defs></svg>