<svg fill="none" viewBox="0 0 80 61"><g fill-rule="evenodd" clip-path="url(#clip0_3802_28671)" clip-rule="evenodd"><path fill="#2CAD42" d="M33.91 24.937a1.49 1.49 0 0 1-1.969-.603l-.096-.216-4.067-8.924a.8.8 0 0 1-.072-.316.744.744 0 0 1 1.193-.594l4.8 3.415c.35.23.77.365 1.221.365.268 0 .527-.048.762-.14L58.252 7.88C54.2 3.118 47.538 0 39.999 0c-12.34 0-22.342 8.335-22.342 18.62 0 5.608 3.009 10.657 7.722 14.073.378.268.628.713.628 1.212 0 .162-.034.316-.077.474-.378 1.403-.977 3.65-1.006 3.755-.048.178-.12.36-.12.546 0 .412.336.743.748.743.162 0 .292-.062.43-.14l4.891-2.825c.37-.211.757-.345 1.188-.345q.346 0 .657.1a26.4 26.4 0 0 0 7.29 1.02c12.34 0 22.341-8.334 22.341-18.618 0-3.114-.924-6.05-2.543-8.628L34.077 24.842l-.163.095z"/><path fill="#4D4D4D" d="m10.763 51.288-.249.89c-.21.743-.392 1.4-.555 2.046a64 64 0 0 0-.738-2.965L7.54 44.922l-.03-.11h-1.1l-1.883 6.49c-.336 1.097-.637 2.089-.843 2.956-.163-.685-.355-1.452-.556-2.251l-1.825-7.085-.029-.11H0L3.056 56.38l.029.115h1.082l1.964-6.63c.345-1.13.6-2.016.786-2.792.168.819.398 1.72.69 2.788l1.7 6.524.029.115h1.102l3.444-11.487.057-.197H12.66l-1.897 6.481zm4.652.038c.311-1.739 1.451-2.361 2.428-2.361.623 0 1.121.186 1.485.555.537.546.656 1.337.68 1.806zm2.529-3.468c-2.285 0-3.823 1.83-3.823 4.556 0 2.534 1.59 4.239 3.957 4.239 1.485 0 2.333-.383 2.625-.546l.182-.1-.537-.93-.124.057c-.417.192-.987.393-2.045.393-1.734 0-2.76-1.14-2.831-3.128h5.858l.038-.172c.039-.173.039-.302.039-.532 0-.311-.044-1.403-.609-2.352-.584-.987-1.504-1.485-2.73-1.485m12.775 7.21c-.632.292-1.518.464-2.371.464-2.84 0-4.531-1.796-4.531-4.8s1.743-4.986 4.665-4.986c.81 0 1.576.153 2.165.43l.125.058.57-.991-.173-.096c-.225-.124-1.087-.527-2.706-.527-3.545 0-5.925 2.448-5.925 6.093 0 4.383 2.984 5.94 5.542 5.94 1.442 0 2.563-.307 3.133-.59l.186-.095-.555-.963-.125.058zm5.772-7.21c-.627 0-1.226.173-1.729.494a3.1 3.1 0 0 0-.79.67V44.62H32.73v11.865h1.24V51.38c0-.307.015-.503.087-.728.35-.973 1.26-1.658 2.213-1.658 1.724 0 1.983 1.586 1.983 2.535v4.957h1.24v-5.039c0-3.415-2.505-3.588-3.003-3.588m12.833-1.614v1.878h-1.35v1.01h1.35v4.834c0 .962.182 1.638.546 2.055.33.426.867.651 1.543.651.469 0 .876-.072 1.207-.22l.2-.087-.521-.9-.106.024a3.4 3.4 0 0 1-.675.062c-.666 0-.949-.426-.949-1.432v-4.987h2.285v-1.01H50.57v-1.878zm10.232-.316c.244-.038.7-.096 1.365-.096 1.81 0 2.85.857 2.85 2.347 0 1.61-1.092 2.534-2.999 2.534-.368 0-.833-.014-1.216-.11zm1.398-1.203c-.824 0-1.647.077-2.457.22l-.182.034v11.51h1.24v-4.747c.336.062.705.077 1.15.077 1.485 0 2.716-.47 3.464-1.322.565-.618.838-1.404.838-2.4 0-.997-.321-1.787-.934-2.357-.68-.661-1.758-1.01-3.123-1.01zm17.71 3.32-2.003 5.327c-.163.416-.302.833-.421 1.188a24 24 0 0 0-.403-1.14l-2.103-5.236-.052-.139h-1.327l3.09 7.722c.081.21.086.268.086.268 0 .058-.043.168-.082.268a6.1 6.1 0 0 1-1.283 1.945 4 4 0 0 1-1.327.838l-.225.082.934.967c.21-.081.541-.32 1.164-.847 1.068-.93 1.739-2.343 2.764-4.973l2.438-6.064.086-.206zm-36.07 4.943c.541-.522 1.552-.79 3.013-.79h.148v1.504c0 .106-.014.264-.072.412-.239.704-.934 1.452-2.16 1.452-.637 0-1.38-.379-1.38-1.447 0-.46.15-.843.45-1.13M47 54.368v-3.133c0-2.208-1.035-3.372-2.99-3.372-.861 0-1.786.268-2.471.718l-.13.077.537.93.134-.092c.503-.34 1.155-.531 1.844-.531h.03c.55 0 .981.148 1.273.44.355.35.527.906.527 1.687-1.916.004-3.295.416-4.11 1.221q-.776.771-.776 1.935c0 1.164.805 2.424 2.573 2.424a3.28 3.28 0 0 0 2.433-1.03l.086.848h1.188l-.043-.254c-.1-.618-.115-1.26-.115-1.868zm23.189-.666c0 .106-.015.264-.072.412-.24.704-.934 1.452-2.16 1.452-.638 0-1.385-.379-1.385-1.447 0-.46.154-.843.45-1.13.542-.523 1.553-.79 3.009-.79h.153v1.503zm1.24.666v-3.133c0-2.208-1.034-3.372-2.989-3.372-.814 0-1.7.25-2.376.661l-.124.077.532.92.134-.082c.488-.302 1.111-.47 1.753-.47h.029q.827.002 1.274.441c.354.355.527.906.527 1.686-1.912.005-3.296.417-4.11 1.222q-.776.77-.776 1.935c0 1.164.805 2.42 2.572 2.42a3.28 3.28 0 0 0 2.434-1.03l.086.847h1.192l-.043-.254c-.1-.618-.115-1.264-.115-1.868"/></g><defs><clipPath id="clip0_3802_28671"><path fill="#fff" d="M0 0h80v60.135H0z"/></clipPath></defs></svg>