<svg fill="none" viewBox="0 0 80 80"><g clip-path="url(#clip0_3802_8210)"><path fill="#F47921" d="M39.996 76.726c-2.018 1.108-4.115 2.03-6.318 2.703-.6.182-1.205.346-1.808.516-.49.138-.952-.041-1.412-.156a39.5 39.5 0 0 1-10.795-4.443 40.1 40.1 0 0 1-9.6-8.007 40.3 40.3 0 0 1-7.49-12.457 40.6 40.6 0 0 1-2.335-9.614C.014 43.382-.03 41.496.02 39.604c.13-.435.115-.89.18-1.334a28.4 28.4 0 0 1 2.135-7.444c1.617-3.638 3.895-6.8 6.855-9.452 2.815-2.522 6.032-4.358 9.683-5.387 1.815-.51 3.664-.826 5.556-.82 1.519.006 3.034-.012 4.53-.314-1.234.616-2.475 1.214-3.646 1.954a26.4 26.4 0 0 0-6.026 5.237c-2.378 2.796-4.18 5.924-5.349 9.41a28.2 28.2 0 0 0-1.38 6.732c-.274 3.436.05 6.813 1.012 10.116a27.6 27.6 0 0 0 5.858 10.65c2.387 2.708 5.19 4.882 8.433 6.477 1.023.576 2.122.973 3.215 1.385.158.06.304.042.462-.022 3.327-1.347 6.135-3.403 8.437-6.155 1.591-1.947 2.838-4.089 3.703-6.456.828-2.268 1.24-4.608 1.297-7.014.017-.745.04-1.49-.034-2.233q-.005-.803-.013-1.605c-.025-2.43-.195-4.855-.416-7.272a87 87 0 0 0-1.197-8.543c-.396-2.047-.852-4.082-1.697-6-.337-.764-.666-1.55-1.375-2.073 1.083-.027 2.08.323 3.041.758 3.232 1.462 5.8 3.72 7.843 6.601a34.3 34.3 0 0 1 4.819 9.719 34.3 34.3 0 0 1 1.396 7.01q.222 2.385.118 4.77a34.3 34.3 0 0 1-1.29 7.966 34.6 34.6 0 0 1-3.525 8.162q-.287.48-.577.958c-.065.083-.137.162-.195.25a34.6 34.6 0 0 1-6.056 6.964c-1.795 1.58-3.755 2.933-5.825 4.128z"/><path fill="#006EB8" d="M39.996 76.726c2.07-1.195 4.029-2.549 5.824-4.128a34.6 34.6 0 0 0 6.056-6.964c.058-.087.13-.166.195-.25.561-.116 1.02-.452 1.497-.731 4.645-2.715 8.235-6.446 10.745-11.21 1.47-2.791 2.414-5.757 2.89-8.873.29-1.9.317-3.812.268-5.725q.041.061-.002.026c-.009-.007-.019-.02-.019-.031.023-.708-.025-1.414-.05-2.12a61 61 0 0 0-.446-5.386 58 58 0 0 0-1.084-6.125c-.79-3.4-1.896-6.685-3.441-9.817-1.803-3.653-4.118-6.927-7.165-9.655a24.3 24.3 0 0 0-4.587-3.26A21.2 21.2 0 0 0 44.777.3c.864-.034 1.7.17 2.538.327A39.1 39.1 0 0 1 58.22 4.39a40.2 40.2 0 0 1 10.376 7.745 40.2 40.2 0 0 1 7.191 10.189c1.81 3.651 3.025 7.494 3.694 11.518.508 3.058.615 6.133.438 9.211-.3 5.194-1.586 10.15-3.82 14.855-3 6.323-7.346 11.529-13.022 15.613-4.305 3.097-9.06 5.228-14.23 6.425-.44.103-.848-.026-1.26-.137-2.656-.72-5.194-1.726-7.592-3.082"/><path fill="#006EB8" d="M40.246 19.44c.708.523 1.038 1.308 1.374 2.072.846 1.919 1.301 3.953 1.697 6a86 86 0 0 1 1.197 8.543c.222 2.418.391 4.842.416 7.272q.009.803.013 1.605c-.095-.08-.08-.193-.092-.297-.22-1.99-.684-3.919-1.443-5.771-.489-1.193-1.063-2.34-2.002-3.258-.917-.897-1.941-.891-2.864.01a6.2 6.2 0 0 0-1.032 1.326c-1.655 2.868-2.38 5.999-2.518 9.27-.116 2.782.363 5.486 1.331 8.101.857 2.316 2.093 4.413 3.653 6.324a21.2 21.2 0 0 1-8.436 6.155.6.6 0 0 1-.463.022c-1.093-.412-2.192-.81-3.214-1.385-.056-.358-.31-.612-.486-.903a34.2 34.2 0 0 1-3.984-9.754 34 34 0 0 1-.9-9.439c.2-4.577 1.24-8.96 3.192-13.115 1.234-2.628 2.704-5.112 4.637-7.286 2.046-2.303 4.458-4.115 7.406-5.129.811-.28 1.645-.477 2.518-.364m-11.284-4.586c-1.497.302-3.013.32-4.53.315-1.893-.007-3.743.307-5.556.82-3.652 1.028-6.869 2.864-9.683 5.386-2.96 2.652-5.239 5.814-6.855 9.452A28.4 28.4 0 0 0 .203 38.27c-.065.444-.05.899-.18 1.334-.074-1.234.044-2.461.178-3.684a40.2 40.2 0 0 1 2.244-9.571c1.787-4.83 4.38-9.177 7.813-13.023a40.2 40.2 0 0 1 10.123-8.199 39 39 0 0 1 10.288-4.081C33.102.464 35.57.08 38.083.006c.331-.01.45.09.49.394.672 5.115-1.12 9.207-5.148 12.358-1.258.984-2.685 1.64-4.241 2.013-.076.018-.148.054-.222.082"/><path fill="#F47921" d="M44.777.301c2.077.426 4.04 1.16 5.9 2.175a24.3 24.3 0 0 1 4.587 3.26c3.047 2.729 5.362 6.003 7.165 9.656 1.545 3.132 2.651 6.417 3.441 9.817a58 58 0 0 1 1.084 6.125c.22 1.788.385 3.582.446 5.385.025.707.073 1.413.05 2.12 0 .011.01.025.019.032q.043.035.002-.026c-.133-1.677-.355-3.337-.748-4.975-1.112-4.625-3.3-8.696-6.39-12.283-2.809-3.26-6.216-5.717-10.264-7.198-2.576-.943-4.73-2.408-6.368-4.6-1.885-2.523-2.712-5.36-2.406-8.509.031-.32.076-.637.11-.956.025-.245.114-.328.398-.324 1.001.015 1.987.16 2.973.303z"/></g><defs><clipPath id="clip0_3802_8210"><path fill="#fff" d="M0 0h79.999v79.995H0z"/></clipPath></defs></svg>