<svg fill="none" viewBox="0 0 80 19"><g clip-path="url(#clip0_3802_26324)"><path fill="#FD0" d="M0 .019h8.127c2.858 4.932 5.698 9.883 8.557 14.815l-1.01 1.738c-.354.579-.784 1.12-1.326 1.513-.448.318-.971.56-1.532.598-.579.056-1.14-.112-1.644-.411-.616-.374-1.102-.916-1.494-1.513-.3-.468-.56-.953-.841-1.44C5.904 10.24 2.952 5.139 0 .02M10.817.019h8.127a1787 1787 0 0 0 5.867 10.126c.261.486.803.803 1.345.803.56 0 1.084-.318 1.364-.803C25.577 6.763 23.615 3.382 21.672 0H29.8l3.139 5.437c-1.887 3.27-3.774 6.52-5.661 9.79-.28.467-.542.934-.822 1.4-.355.58-.803 1.103-1.345 1.495-.467.318-1.01.542-1.588.542a2.7 2.7 0 0 1-1.607-.486c-.598-.392-1.065-.934-1.439-1.532-.28-.448-.541-.915-.803-1.382C16.703 10.2 13.769 5.119 10.817.019"/><path fill="#000" d="M36.058.019h1.607c.299 1.195.616 2.372.915 3.568.262 1.046.523 2.093.729 3.158.187-1.084.467-2.168.728-3.251.28-1.159.58-2.317.879-3.475h1.625c.448 1.681.878 3.363 1.289 5.063.13.523.243 1.027.336 1.55.131-.728.3-1.457.486-2.185.355-1.476.747-2.971 1.14-4.447h1.55c-.784 2.896-1.588 5.81-2.372 8.706h-1.7c-.412-1.57-.823-3.157-1.196-4.745-.131-.58-.262-1.159-.374-1.756-.15.878-.373 1.737-.598 2.615-.336 1.29-.691 2.578-1.027 3.886h-1.663c-.785-2.877-1.57-5.791-2.354-8.687M59.99.86c.468-.113.953-.243 1.42-.356v1.831h.972c0 .411.019.822.019 1.233h-.99v3.68c0 .17.149.319.317.319.224.018.449-.02.673-.038v1.215c-.393.112-.785.112-1.177.112-.3 0-.617-.094-.841-.318-.28-.261-.392-.635-.392-1.009V3.55h-.748V2.318h.748zM48.24 2.616c.54-.318 1.195-.449 1.811-.411.617.018 1.233.205 1.72.579.448.317.784.784.99 1.308.261.616.336 1.307.317 1.98h-4.951a1.69 1.69 0 0 0 1.009 1.345c.71.299 1.625.187 2.186-.355.15-.13.261-.317.355-.486.392.206.785.393 1.158.598-.299.635-.86 1.121-1.513 1.401a3.7 3.7 0 0 1-2.055.243 3.13 3.13 0 0 1-1.757-.86 3.25 3.25 0 0 1-.896-1.737c-.131-.766-.038-1.588.317-2.279.337-.56.785-1.027 1.308-1.326m.447 1.251a1.6 1.6 0 0 0-.541.99h3.4a1.43 1.43 0 0 0-.673-1.102c-.635-.43-1.588-.392-2.185.112m6.857-1.625c.729-.112 1.532-.019 2.149.411.523.355.86.953.86 1.588-.45.075-.879.168-1.327.243-.038-.224-.056-.449-.169-.635-.168-.28-.504-.43-.822-.467-.298-.02-.597.018-.859.168a.55.55 0 0 0-.262.504c.02.187.169.336.337.43.28.15.579.224.896.299.561.15 1.14.28 1.645.579.336.205.616.504.747.878.205.635.093 1.383-.374 1.868s-1.158.673-1.812.71c-.822.056-1.681-.13-2.354-.654a1.75 1.75 0 0 1-.71-1.382c.448-.094.916-.168 1.364-.262.019.243.093.486.261.654.28.3.71.393 1.103.393.299 0 .635-.038.878-.243.205-.168.28-.486.13-.71-.13-.187-.373-.28-.579-.374-.597-.205-1.214-.299-1.793-.56-.374-.15-.71-.374-.934-.71-.393-.598-.337-1.458.13-2.018.393-.374.935-.617 1.495-.71m8.818.392a3.3 3.3 0 0 1 1.831-.43 3.2 3.2 0 0 1 1.72.561c.466.336.821.803 1.045 1.345.262.617.337 1.29.3 1.962h-4.952c.075.58.449 1.102.972 1.326a2.15 2.15 0 0 0 2.092-.205q.337-.252.505-.617c.392.187.784.393 1.177.598-.28.617-.822 1.084-1.42 1.364-1.158.542-2.616.43-3.643-.355-.56-.43-.934-1.065-1.102-1.756a3.75 3.75 0 0 1 .242-2.429c.28-.579.71-1.046 1.233-1.364m1.028.934c-.56.187-.99.71-1.065 1.29h3.4a1.55 1.55 0 0 0-.336-.804c-.486-.579-1.326-.728-1.999-.486M76.73 2.26c.73-.168 1.514-.093 2.149.318.448.28.785.748.953 1.252.13.374.168.785.168 1.177v3.718h-1.513V5.23c0-.373-.038-.766-.243-1.083a1.2 1.2 0 0 0-.692-.542c-.597-.168-1.345-.056-1.718.467-.262.336-.355.785-.355 1.196v3.456h-1.514V2.317h1.308v.915c.318-.504.878-.84 1.458-.971m-6.82.056h1.252v.803c.168-.262.411-.486.691-.617.467-.224.99-.261 1.495-.186 0 .448 0 .896-.019 1.345-.41-.056-.86-.075-1.27.093a1.07 1.07 0 0 0-.58.598c-.13.318-.074.673-.093.99 0 1.121 0 2.26.019 3.382h-1.513c.018-2.13.018-4.26.018-6.408M52.07 9.865c.242-.075.54-.056.746.093.262.168.43.467.411.766a.87.87 0 0 1-.71.803c-.317.056-.672-.074-.859-.317a.85.85 0 0 1-.13-.785.82.82 0 0 1 .541-.56M36.73 15.114v-5.25h1.533v5.194c.018.617.168 1.29.635 1.738.41.392 1.027.504 1.588.448.467-.037.934-.243 1.233-.616.373-.449.486-1.046.486-1.607V9.865h1.513v4.427c0 .486.019.972-.056 1.458-.112.728-.392 1.457-.916 1.98-.467.486-1.083.766-1.737.878-.785.13-1.626.075-2.354-.243-.542-.243-1.028-.635-1.327-1.158-.41-.598-.56-1.345-.598-2.093m10.668-2.989c.71-.15 1.514-.075 2.13.318.449.28.766.728.934 1.214.131.393.187.822.187 1.233v3.7h-1.513v-3.363c0-.374-.019-.785-.187-1.14a1.13 1.13 0 0 0-.598-.58 1.73 1.73 0 0 0-.971-.093 1.4 1.4 0 0 0-.878.505c-.262.336-.355.784-.355 1.195v3.475h-1.514v-6.408h1.308v.916c.318-.523.878-.86 1.457-.972m9.398-.055c.785-.076 1.588.074 2.26.504.561.336.99.859 1.234 1.457.485 1.158.317 2.597-.505 3.55a3.26 3.26 0 0 1-1.887 1.064c-.803.15-1.681.056-2.41-.336a3.07 3.07 0 0 1-1.326-1.345c-.58-1.177-.468-2.69.373-3.7.56-.71 1.402-1.12 2.26-1.195m.13 1.382a1.88 1.88 0 0 0-1.232.69c-.56.71-.542 1.795.018 2.504.355.449.953.71 1.532.673.58 0 1.159-.299 1.514-.785.523-.728.485-1.83-.131-2.484a1.94 1.94 0 0 0-1.7-.598m7.119-1.326c.71-.15 1.495-.093 2.111.3.448.26.766.69.953 1.176.15.392.205.822.205 1.252v3.736h-1.513v-3.55c0-.392-.056-.784-.28-1.12a1.13 1.13 0 0 0-.748-.486 1.8 1.8 0 0 0-.952.037 1.33 1.33 0 0 0-.729.542c-.224.318-.299.729-.299 1.102v3.475H61.28v-6.408h1.308v.916c.317-.523.878-.841 1.457-.972m-12.443.056h1.513v6.408h-1.513z"/></g><defs><clipPath id="clip0_3802_26324"><path fill="#fff" d="M0 0h80v18.713H0z"/></clipPath></defs></svg>