<svg fill="none" viewBox="0 0 80 19"><g clip-path="url(#clip0_3802_8264)"><path fill="#163300" d="M44.557.272h4.93l-2.48 17.692h-4.93zm-6.215 0-3.326 10.192L33.564.272h-3.448l-4.355 10.161-.544-10.16H20.44l1.663 17.69h3.962l4.899-11.189 1.724 11.19h3.901L43.029.272zm41.386 10.282H68.024c.06 2.299 1.437 3.81 3.463 3.81 1.527 0 2.737-.816 3.674-2.373l3.951 1.796c-1.357 2.675-4.218 4.419-7.746 4.419-4.808 0-7.999-3.236-7.999-8.438 0-5.716 3.75-9.768 9.042-9.768C77.066 0 80 3.145 80 8.044c0 .817-.09 1.633-.272 2.51m-4.385-3.387c0-2.056-1.15-3.357-2.994-3.357s-3.478 1.361-3.901 3.357zM5.033 5.604 0 11.484h8.985l1.01-2.773h-3.85l2.353-2.72.008-.073-1.53-2.632h6.88L8.523 17.964h3.65L18.614.272H1.972L5.03 5.604zM57.5 3.81c1.739 0 3.263.935 4.594 2.538l.698-4.987C61.552.52 59.875 0 57.652 0c-4.416 0-6.896 2.586-6.896 5.867 0 2.276 1.27 3.667 3.357 4.566l.998.454c1.86.794 2.359 1.187 2.359 2.026 0 .84-.84 1.422-2.117 1.422-2.11.007-3.818-1.074-5.103-2.919l-.712 5.082c1.463 1.116 3.34 1.707 5.815 1.707 4.196 0 6.774-2.419 6.774-5.776 0-2.283-1.013-3.75-3.568-4.899l-1.09-.514c-1.511-.673-2.025-1.043-2.025-1.784 0-.802.703-1.422 2.056-1.422"/></g><defs><clipPath id="clip0_3802_8264"><path fill="#fff" d="M0 0h80v18.206H0z"/></clipPath></defs></svg>