<svg fill="none" viewBox="0 0 80 32"><g clip-path="url(#clip0_3802_18375)"><path fill="url(#paint0_linear_3802_18375)" d="M20.147 20.75c-2.128 3.059-5.098 4.3-8.822 4.389-2.483.044-4.966.177-7.493.266-2.128.088-3.458 1.374-3.369 3.236.089 1.773 1.463 2.882 3.591 2.837 2.305-.044 4.655-.133 6.96-.221 6.34-.222 10.42-6.739 10.33-13.212-.177.355-.665 1.95-1.197 2.705m-14.01-7.936c-.044-3.148 0-6.296 0-9.443C6.138 1.376 4.853.046 3.08.046h-.09m0 0C1.217.09.02 1.376.02 3.37v5.275c0 1.818-.045 3.591 0 5.41.177 5.851 4.167 9.974 9.798 10.24 6.34.31 10.728-3.103 11.35-9.221.354-3.769.176-7.626.22-11.438 0-2.261-1.196-3.636-3.103-3.591-1.862.044-3.014 1.374-3.014 3.59 0 3.326.044 6.606-.045 9.932-.044 2.305-1.862 4.256-4.167 4.566-1.862.266-4.079-1.242-4.7-3.28-.177-.621-.221-1.33-.221-2.04M40.275.134c-1.241.355-2.128 1.463-2.128 2.882-.044 3.325 0 6.606-.044 9.93 0 2.838-2.04 5.1-4.522 5.144-2.527.044-4.611-2.306-4.611-5.187V3.105C28.97 1.287 27.729.045 26 0s-3.06 1.109-3.104 2.926c-.044 4.079-.133 8.158.133 12.237.355 5.23 4.39 8.866 9.665 9.132 5.896.266 10.108-2.704 11.216-8.068.267-1.198.31-2.395.31-3.902-.044-.222 0-.399-.044-.576 0-2.793.045-5.542-.044-8.335 0-.754-.221-1.552-.576-2.172C43.068.4 42.18 0 41.206 0q-.465 0-.93.133M57.122.18a4.95 4.95 0 0 0-1.773 1.24 1110 1110 0 0 0-10.153 10.286c-.088.09-.532.577-.62.665.975.932 1.906 1.774 2.748 2.616l8.38 8.38c1.108 1.108 2.438 1.285 3.635.664 1.152-.62 1.906-1.95 1.551-3.236-.221-.754-.709-1.463-1.24-2.04-2.129-2.216-4.301-4.3-6.474-6.517.355-.399.621-.709.931-.975 1.995-1.995 4.035-3.99 5.985-6.03 1.064-1.108 1.153-2.57.355-3.768C59.871.622 58.94.09 58.01.09c-.266-.089-.577-.044-.887.089m11.571.753c-3.724 3.68-7.36 7.448-11.216 11.305l6.384 6.385c3.59 3.59 7.138 7.182 10.773 10.728 1.64 1.64 3.99 1.33 5.01-.576.665-1.286.399-2.616-.798-3.857-3.902-3.901-7.759-7.803-11.66-11.66-.355-.354-.665-.71-1.109-1.153 1.242-1.197 2.395-2.305 3.503-3.458a121 121 0 0 0 3.37-3.369c1.285-1.374 1.285-3.148.044-4.39a3 3 0 0 0-2.128-.886c-.754 0-1.508.31-2.173.931"/></g><defs><linearGradient id="paint0_linear_3802_18375" x1=".009" x2="80.009" y1="15.74" y2="15.74" gradientUnits="userSpaceOnUse"><stop stop-color="#EC008C"/><stop offset="1" stop-color="#5C2D91"/></linearGradient><clipPath id="clip0_3802_18375"><path fill="#fff" d="M0 0h80v31.48H0z"/></clipPath></defs></svg>